<?xml version="1.0" encoding="utf-8" standalone="no"?>
<!DOCTYPE svg PUBLIC "-//W3C//DTD SVG 1.1//EN"
  "http://www.w3.org/Graphics/SVG/1.1/DTD/svg11.dtd">
<!-- Created with matplotlib (http://matplotlib.org/) -->
<svg height="345pt" version="1.1" viewBox="0 0 460 345" width="460pt" xmlns="http://www.w3.org/2000/svg" xmlns:xlink="http://www.w3.org/1999/xlink">
 <defs>
  <style type="text/css">
*{stroke-linecap:butt;stroke-linejoin:round;}
  </style>
 </defs>
 <g id="figure_1">
  <g id="patch_1">
   <path d="M 0 345.6 
L 460.8 345.6 
L 460.8 0 
L 0 0 
z
" style="fill:#ffffff;"/>
  </g>
  <g id="axes_1">
   <g id="patch_2">
    <path d="M 57.6 307.584 
L 414.72 307.584 
L 414.72 41.472 
L 57.6 41.472 
z
" style="fill:#ffffff;"/>
   </g>
   <g id="PolyCollection_1">
    <path clip-path="url(#pc53a23a401)" d="M 73.832727 304.562361 
L 73.832727 307.584 
L 77.112066 307.584 
L 80.391405 307.584 
L 83.670744 307.584 
L 86.950083 307.584 
L 90.229421 307.584 
L 93.50876 307.584 
L 96.788099 307.584 
L 100.067438 307.584 
L 103.346777 307.584 
L 106.626116 307.584 
L 109.905455 307.584 
L 113.184793 307.584 
L 116.464132 307.584 
L 119.743471 307.584 
L 123.02281 307.584 
L 126.302149 307.584 
L 129.581488 307.584 
L 132.860826 307.584 
L 136.140165 307.584 
L 139.419504 307.584 
L 142.698843 307.584 
L 145.978182 307.584 
L 149.257521 307.584 
L 152.53686 307.584 
L 155.816198 307.584 
L 159.095537 307.584 
L 162.374876 307.584 
L 165.654215 307.584 
L 168.933554 307.584 
L 172.212893 307.584 
L 175.492231 307.584 
L 178.77157 307.584 
L 182.050909 307.584 
L 185.330248 307.584 
L 188.609587 307.584 
L 191.888926 307.584 
L 195.168264 307.584 
L 198.447603 307.584 
L 201.726942 307.584 
L 205.006281 307.584 
L 208.28562 307.584 
L 211.564959 307.584 
L 214.844298 307.584 
L 218.123636 307.584 
L 221.402975 307.584 
L 224.682314 307.584 
L 227.961653 307.584 
L 231.240992 307.584 
L 234.520331 307.584 
L 237.799669 307.584 
L 241.079008 307.584 
L 244.358347 307.584 
L 247.637686 307.584 
L 250.917025 307.584 
L 254.196364 307.584 
L 257.475702 307.584 
L 260.755041 307.584 
L 264.03438 307.584 
L 267.313719 307.584 
L 270.593058 307.584 
L 273.872397 307.584 
L 277.151736 307.584 
L 280.431074 307.584 
L 283.710413 307.584 
L 286.989752 307.584 
L 290.269091 307.584 
L 293.54843 307.584 
L 296.827769 307.584 
L 300.107107 307.584 
L 303.386446 307.584 
L 306.665785 307.584 
L 309.945124 307.584 
L 313.224463 307.584 
L 316.503802 307.584 
L 319.78314 307.584 
L 323.062479 307.584 
L 326.341818 307.584 
L 329.621157 307.584 
L 332.900496 307.584 
L 336.179835 307.584 
L 339.459174 307.584 
L 342.738512 307.584 
L 346.017851 307.584 
L 349.29719 307.584 
L 352.576529 307.584 
L 355.855868 307.584 
L 359.135207 307.584 
L 362.414545 307.584 
L 365.693884 307.584 
L 368.973223 307.584 
L 372.252562 307.584 
L 375.531901 307.584 
L 378.81124 307.584 
L 382.090579 307.584 
L 385.369917 307.584 
L 388.649256 307.584 
L 391.928595 307.584 
L 395.207934 307.584 
L 398.487273 307.584 
L 398.487273 300.342857 
L 398.487273 300.342857 
L 395.207934 295.145227 
L 391.928595 304.334769 
L 388.649256 300.73427 
L 385.369917 305.990038 
L 382.090579 297.910718 
L 378.81124 305.969732 
L 375.531901 298.467453 
L 372.252562 302.832 
L 368.973223 298.25492 
L 365.693884 298.478371 
L 362.414545 305.8944 
L 359.135207 298.722462 
L 355.855868 298.722462 
L 352.576529 304.416 
L 349.29719 296.896771 
L 346.017851 293.23834 
L 342.738512 303.644518 
L 339.459174 301.402537 
L 336.179835 302.19166 
L 332.900496 303.496258 
L 329.621157 300.216558 
L 326.341818 302.114072 
L 323.062479 307.584 
L 319.78314 301.952 
L 316.503802 293.345798 
L 313.224463 294.66986 
L 309.945124 300.807529 
L 306.665785 301.952 
L 303.386446 299.452235 
L 300.107107 301.208151 
L 296.827769 299.452235 
L 293.54843 306.335527 
L 290.269091 304.566857 
L 286.989752 303.058286 
L 283.710413 304.814164 
L 280.431074 304.997878 
L 277.151736 302.733474 
L 273.872397 301.287354 
L 270.593058 301.491692 
L 267.313719 297.672939 
L 264.03438 304.687543 
L 260.755041 302.565386 
L 257.475702 300.914526 
L 254.196364 301.432544 
L 250.917025 306.335527 
L 247.637686 300.879238 
L 244.358347 303.111529 
L 241.079008 305.024 
L 237.799669 299.628484 
L 234.520331 305.062209 
L 231.240992 301.118694 
L 227.961653 303.36 
L 224.682314 302.686609 
L 221.402975 299.628484 
L 218.123636 302.026105 
L 214.844298 306.566169 
L 211.564959 306.388528 
L 208.28562 299.76867 
L 205.006281 298.603843 
L 201.726942 303.214345 
L 198.447603 301.644 
L 195.168264 307.584 
L 191.888926 301.952 
L 188.609587 305.580522 
L 185.330248 299.628484 
L 182.050909 301.113191 
L 178.77157 300.018627 
L 175.492231 300.253091 
L 172.212893 300.129882 
L 168.933554 299.2896 
L 165.654215 300.544 
L 162.374876 303.317333 
L 159.095537 303.273796 
L 155.816198 300.914526 
L 152.53686 302.959182 
L 149.257521 302.817103 
L 145.978182 303.302919 
L 142.698843 305.177924 
L 139.419504 304.334769 
L 136.140165 305.354323 
L 132.860826 303.522462 
L 129.581488 306.199082 
L 126.302149 301.70713 
L 123.02281 298.276881 
L 119.743471 300.73427 
L 116.464132 304.186681 
L 113.184793 300.363487 
L 109.905455 301.952 
L 106.626116 303.474162 
L 103.346777 301.765224 
L 100.067438 300.631781 
L 96.788099 300.683406 
L 93.50876 299.079302 
L 90.229421 301.160406 
L 86.950083 301.14061 
L 83.670744 301.549714 
L 80.391405 305.245993 
L 77.112066 304.455111 
L 73.832727 304.562361 
z
" style="fill:#fdae6b;"/>
   </g>
   <g id="PolyCollection_2">
    <path clip-path="url(#pc53a23a401)" d="M 73.832727 304.562361 
L 73.832727 304.562361 
L 77.112066 304.455111 
L 80.391405 305.245993 
L 83.670744 301.549714 
L 86.950083 301.14061 
L 90.229421 301.160406 
L 93.50876 299.079302 
L 96.788099 300.683406 
L 100.067438 300.631781 
L 103.346777 301.765224 
L 106.626116 303.474162 
L 109.905455 301.952 
L 113.184793 300.363487 
L 116.464132 304.186681 
L 119.743471 300.73427 
L 123.02281 298.276881 
L 126.302149 301.70713 
L 129.581488 306.199082 
L 132.860826 303.522462 
L 136.140165 305.354323 
L 139.419504 304.334769 
L 142.698843 305.177924 
L 145.978182 303.302919 
L 149.257521 302.817103 
L 152.53686 302.959182 
L 155.816198 300.914526 
L 159.095537 303.273796 
L 162.374876 303.317333 
L 165.654215 300.544 
L 168.933554 299.2896 
L 172.212893 300.129882 
L 175.492231 300.253091 
L 178.77157 300.018627 
L 182.050909 301.113191 
L 185.330248 299.628484 
L 188.609587 305.580522 
L 191.888926 301.952 
L 195.168264 307.584 
L 198.447603 301.644 
L 201.726942 303.214345 
L 205.006281 298.603843 
L 208.28562 299.76867 
L 211.564959 306.388528 
L 214.844298 306.566169 
L 218.123636 302.026105 
L 221.402975 299.628484 
L 224.682314 302.686609 
L 227.961653 303.36 
L 231.240992 301.118694 
L 234.520331 305.062209 
L 237.799669 299.628484 
L 241.079008 305.024 
L 244.358347 303.111529 
L 247.637686 300.879238 
L 250.917025 306.335527 
L 254.196364 301.432544 
L 257.475702 300.914526 
L 260.755041 302.565386 
L 264.03438 304.687543 
L 267.313719 297.672939 
L 270.593058 301.491692 
L 273.872397 301.287354 
L 277.151736 302.733474 
L 280.431074 304.997878 
L 283.710413 304.814164 
L 286.989752 303.058286 
L 290.269091 304.566857 
L 293.54843 306.335527 
L 296.827769 299.452235 
L 300.107107 301.208151 
L 303.386446 299.452235 
L 306.665785 301.952 
L 309.945124 300.807529 
L 313.224463 294.66986 
L 316.503802 293.345798 
L 319.78314 301.952 
L 323.062479 307.584 
L 326.341818 302.114072 
L 329.621157 300.216558 
L 332.900496 303.496258 
L 336.179835 302.19166 
L 339.459174 301.402537 
L 342.738512 303.644518 
L 346.017851 293.23834 
L 349.29719 296.896771 
L 352.576529 304.416 
L 355.855868 298.722462 
L 359.135207 298.722462 
L 362.414545 305.8944 
L 365.693884 298.478371 
L 368.973223 298.25492 
L 372.252562 302.832 
L 375.531901 298.467453 
L 378.81124 305.969732 
L 382.090579 297.910718 
L 385.369917 305.990038 
L 388.649256 300.73427 
L 391.928595 304.334769 
L 395.207934 295.145227 
L 398.487273 300.342857 
L 398.487273 300.342857 
L 398.487273 300.342857 
L 395.207934 295.145227 
L 391.928595 304.334769 
L 388.649256 300.73427 
L 385.369917 305.990038 
L 382.090579 297.910718 
L 378.81124 305.969732 
L 375.531901 298.467453 
L 372.252562 302.832 
L 368.973223 298.25492 
L 365.693884 298.478371 
L 362.414545 305.8944 
L 359.135207 298.722462 
L 355.855868 298.722462 
L 352.576529 304.416 
L 349.29719 296.896771 
L 346.017851 293.23834 
L 342.738512 303.644518 
L 339.459174 301.402537 
L 336.179835 302.19166 
L 332.900496 303.496258 
L 329.621157 300.216558 
L 326.341818 302.114072 
L 323.062479 307.584 
L 319.78314 301.952 
L 316.503802 293.345798 
L 313.224463 294.66986 
L 309.945124 300.807529 
L 306.665785 301.952 
L 303.386446 299.452235 
L 300.107107 301.208151 
L 296.827769 299.452235 
L 293.54843 306.335527 
L 290.269091 304.566857 
L 286.989752 303.058286 
L 283.710413 304.814164 
L 280.431074 304.997878 
L 277.151736 302.733474 
L 273.872397 301.287354 
L 270.593058 301.491692 
L 267.313719 297.672939 
L 264.03438 304.687543 
L 260.755041 302.565386 
L 257.475702 300.914526 
L 254.196364 301.432544 
L 250.917025 306.335527 
L 247.637686 300.879238 
L 244.358347 303.111529 
L 241.079008 305.024 
L 237.799669 299.628484 
L 234.520331 305.062209 
L 231.240992 301.118694 
L 227.961653 303.36 
L 224.682314 302.686609 
L 221.402975 299.628484 
L 218.123636 302.026105 
L 214.844298 306.566169 
L 211.564959 306.388528 
L 208.28562 299.76867 
L 205.006281 298.603843 
L 201.726942 303.214345 
L 198.447603 301.644 
L 195.168264 307.584 
L 191.888926 301.952 
L 188.609587 305.580522 
L 185.330248 299.628484 
L 182.050909 301.113191 
L 178.77157 300.018627 
L 175.492231 300.253091 
L 172.212893 300.129882 
L 168.933554 299.2896 
L 165.654215 300.544 
L 162.374876 303.317333 
L 159.095537 303.273796 
L 155.816198 300.914526 
L 152.53686 302.959182 
L 149.257521 302.817103 
L 145.978182 303.302919 
L 142.698843 305.177924 
L 139.419504 304.334769 
L 136.140165 305.354323 
L 132.860826 303.522462 
L 129.581488 306.199082 
L 126.302149 301.70713 
L 123.02281 298.276881 
L 119.743471 300.73427 
L 116.464132 304.186681 
L 113.184793 300.363487 
L 109.905455 301.952 
L 106.626116 303.474162 
L 103.346777 301.765224 
L 100.067438 300.631781 
L 96.788099 300.683406 
L 93.50876 299.079302 
L 90.229421 301.160406 
L 86.950083 301.14061 
L 83.670744 301.549714 
L 80.391405 305.245993 
L 77.112066 304.455111 
L 73.832727 304.562361 
z
" style="fill:#c6dbef;"/>
   </g>
   <g id="PolyCollection_3">
    <path clip-path="url(#pc53a23a401)" d="M 73.832727 259.615475 
L 73.832727 304.562361 
L 77.112066 304.455111 
L 80.391405 305.245993 
L 83.670744 301.549714 
L 86.950083 301.14061 
L 90.229421 301.160406 
L 93.50876 299.079302 
L 96.788099 300.683406 
L 100.067438 300.631781 
L 103.346777 301.765224 
L 106.626116 303.474162 
L 109.905455 301.952 
L 113.184793 300.363487 
L 116.464132 304.186681 
L 119.743471 300.73427 
L 123.02281 298.276881 
L 126.302149 301.70713 
L 129.581488 306.199082 
L 132.860826 303.522462 
L 136.140165 305.354323 
L 139.419504 304.334769 
L 142.698843 305.177924 
L 145.978182 303.302919 
L 149.257521 302.817103 
L 152.53686 302.959182 
L 155.816198 300.914526 
L 159.095537 303.273796 
L 162.374876 303.317333 
L 165.654215 300.544 
L 168.933554 299.2896 
L 172.212893 300.129882 
L 175.492231 300.253091 
L 178.77157 300.018627 
L 182.050909 301.113191 
L 185.330248 299.628484 
L 188.609587 305.580522 
L 191.888926 301.952 
L 195.168264 307.584 
L 198.447603 301.644 
L 201.726942 303.214345 
L 205.006281 298.603843 
L 208.28562 299.76867 
L 211.564959 306.388528 
L 214.844298 306.566169 
L 218.123636 302.026105 
L 221.402975 299.628484 
L 224.682314 302.686609 
L 227.961653 303.36 
L 231.240992 301.118694 
L 234.520331 305.062209 
L 237.799669 299.628484 
L 241.079008 305.024 
L 244.358347 303.111529 
L 247.637686 300.879238 
L 250.917025 306.335527 
L 254.196364 301.432544 
L 257.475702 300.914526 
L 260.755041 302.565386 
L 264.03438 304.687543 
L 267.313719 297.672939 
L 270.593058 301.491692 
L 273.872397 301.287354 
L 277.151736 302.733474 
L 280.431074 304.997878 
L 283.710413 304.814164 
L 286.989752 303.058286 
L 290.269091 304.566857 
L 293.54843 306.335527 
L 296.827769 299.452235 
L 300.107107 301.208151 
L 303.386446 299.452235 
L 306.665785 301.952 
L 309.945124 300.807529 
L 313.224463 294.66986 
L 316.503802 293.345798 
L 319.78314 301.952 
L 323.062479 307.584 
L 326.341818 302.114072 
L 329.621157 300.216558 
L 332.900496 303.496258 
L 336.179835 302.19166 
L 339.459174 301.402537 
L 342.738512 303.644518 
L 346.017851 293.23834 
L 349.29719 296.896771 
L 352.576529 304.416 
L 355.855868 298.722462 
L 359.135207 298.722462 
L 362.414545 305.8944 
L 365.693884 298.478371 
L 368.973223 298.25492 
L 372.252562 302.832 
L 375.531901 298.467453 
L 378.81124 305.969732 
L 382.090579 297.910718 
L 385.369917 305.990038 
L 388.649256 300.73427 
L 391.928595 304.334769 
L 395.207934 295.145227 
L 398.487273 300.342857 
L 398.487273 231.552 
L 398.487273 231.552 
L 395.207934 228.286822 
L 391.928595 252.347077 
L 388.649256 228.812108 
L 385.369917 254.983245 
L 382.090579 245.674992 
L 378.81124 260.770242 
L 375.531901 234.651626 
L 372.252562 236.304 
L 368.973223 246.944982 
L 365.693884 254.467832 
L 362.414545 250.1376 
L 359.135207 259.731692 
L 355.855868 242.008615 
L 352.576529 233.136 
L 349.29719 234.300145 
L 346.017851 232.667774 
L 342.738512 260.310218 
L 339.459174 251.950829 
L 336.179835 253.660596 
L 332.900496 253.080774 
L 329.621157 244.224 
L 326.341818 254.708029 
L 323.062479 254.137469 
L 319.78314 230.144 
L 316.503802 244.93591 
L 313.224463 234.941962 
L 309.945124 246.595765 
L 306.665785 247.04 
L 303.386446 237.108706 
L 300.107107 262.953057 
L 296.827769 238.464 
L 293.54843 252.651192 
L 290.269091 227.629714 
L 286.989752 233.664 
L 283.710413 239.723016 
L 280.431074 249.396245 
L 277.151736 238.464 
L 273.872397 239.895056 
L 270.593058 244.224 
L 267.313719 238.20657 
L 264.03438 256.896 
L 260.755041 248.615287 
L 257.475702 239.555368 
L 254.196364 246.069437 
L 250.917025 256.396611 
L 247.637686 239.195429 
L 244.358347 246.460235 
L 241.079008 247.424 
L 237.799669 248.485883 
L 234.520331 254.626388 
L 231.240992 248.103184 
L 227.961653 248.448 
L 224.682314 245.142261 
L 221.402975 239.393865 
L 218.123636 254.228211 
L 214.844298 248.549783 
L 211.564959 245.419472 
L 208.28562 250.643736 
L 205.006281 248.714079 
L 201.726942 244.224 
L 198.447603 245.214 
L 195.168264 253.703055 
L 191.888926 245.632 
L 188.609587 250.48487 
L 185.330248 248.485883 
L 182.050909 254.739064 
L 178.77157 237.604299 
L 175.492231 242.653091 
L 172.212893 237.302319 
L 168.933554 252.288 
L 165.654215 239.824 
L 162.374876 252.970667 
L 159.095537 242.930939 
L 155.816198 246.605955 
L 152.53686 246.536409 
L 149.257521 256.737103 
L 145.978182 244.224 
L 142.698843 249.036152 
L 139.419504 245.848615 
L 136.140165 255.558194 
L 132.860826 256.408615 
L 129.581488 252.187279 
L 126.302149 251.01913 
L 123.02281 259.616542 
L 119.743471 257.580973 
L 116.464132 246.432257 
L 113.184793 257.762462 
L 109.905455 258.304 
L 106.626116 250.04627 
L 103.346777 255.21502 
L 100.067438 247.542105 
L 96.788099 259.907168 
L 93.50876 250.319034 
L 90.229421 253.275429 
L 86.950083 254.426034 
L 83.670744 252.772571 
L 80.391405 256.147838 
L 77.112066 261.544635 
L 73.832727 259.615475 
z
" style="fill:#9ecae1;"/>
   </g>
   <g id="PolyCollection_4">
    <path clip-path="url(#pc53a23a401)" d="M 73.832727 116.843016 
L 73.832727 259.615475 
L 77.112066 261.544635 
L 80.391405 256.147838 
L 83.670744 252.772571 
L 86.950083 254.426034 
L 90.229421 253.275429 
L 93.50876 250.319034 
L 96.788099 259.907168 
L 100.067438 247.542105 
L 103.346777 255.21502 
L 106.626116 250.04627 
L 109.905455 258.304 
L 113.184793 257.762462 
L 116.464132 246.432257 
L 119.743471 257.580973 
L 123.02281 259.616542 
L 126.302149 251.01913 
L 129.581488 252.187279 
L 132.860826 256.408615 
L 136.140165 255.558194 
L 139.419504 245.848615 
L 142.698843 249.036152 
L 145.978182 244.224 
L 149.257521 256.737103 
L 152.53686 246.536409 
L 155.816198 246.605955 
L 159.095537 242.930939 
L 162.374876 252.970667 
L 165.654215 239.824 
L 168.933554 252.288 
L 172.212893 237.302319 
L 175.492231 242.653091 
L 178.77157 237.604299 
L 182.050909 254.739064 
L 185.330248 248.485883 
L 188.609587 250.48487 
L 191.888926 245.632 
L 195.168264 253.703055 
L 198.447603 245.214 
L 201.726942 244.224 
L 205.006281 248.714079 
L 208.28562 250.643736 
L 211.564959 245.419472 
L 214.844298 248.549783 
L 218.123636 254.228211 
L 221.402975 239.393865 
L 224.682314 245.142261 
L 227.961653 248.448 
L 231.240992 248.103184 
L 234.520331 254.626388 
L 237.799669 248.485883 
L 241.079008 247.424 
L 244.358347 246.460235 
L 247.637686 239.195429 
L 250.917025 256.396611 
L 254.196364 246.069437 
L 257.475702 239.555368 
L 260.755041 248.615287 
L 264.03438 256.896 
L 267.313719 238.20657 
L 270.593058 244.224 
L 273.872397 239.895056 
L 277.151736 238.464 
L 280.431074 249.396245 
L 283.710413 239.723016 
L 286.989752 233.664 
L 290.269091 227.629714 
L 293.54843 252.651192 
L 296.827769 238.464 
L 300.107107 262.953057 
L 303.386446 237.108706 
L 306.665785 247.04 
L 309.945124 246.595765 
L 313.224463 234.941962 
L 316.503802 244.93591 
L 319.78314 230.144 
L 323.062479 254.137469 
L 326.341818 254.708029 
L 329.621157 244.224 
L 332.900496 253.080774 
L 336.179835 253.660596 
L 339.459174 251.950829 
L 342.738512 260.310218 
L 346.017851 232.667774 
L 349.29719 234.300145 
L 352.576529 233.136 
L 355.855868 242.008615 
L 359.135207 259.731692 
L 362.414545 250.1376 
L 365.693884 254.467832 
L 368.973223 246.944982 
L 372.252562 236.304 
L 375.531901 234.651626 
L 378.81124 260.770242 
L 382.090579 245.674992 
L 385.369917 254.983245 
L 388.649256 228.812108 
L 391.928595 252.347077 
L 395.207934 228.286822 
L 398.487273 231.552 
L 398.487273 84.918857 
L 398.487273 84.918857 
L 395.207934 85.240933 
L 391.928595 93.134769 
L 388.649256 102.092108 
L 385.369917 87.617208 
L 382.090579 90.902473 
L 378.81124 97.729223 
L 375.531901 90.610187 
L 372.252562 88.992 
L 368.973223 97.679706 
L 365.693884 98.154539 
L 362.414545 104.832 
L 359.135207 91.362462 
L 355.855868 75.411692 
L 352.576529 93.744 
L 349.29719 84.67894 
L 346.017851 93.993057 
L 342.738512 88.286176 
L 339.459174 81.960585 
L 336.179835 97.282723 
L 332.900496 92.296258 
L 329.621157 101.295628 
L 326.341818 112.489899 
L 323.062479 95.521959 
L 319.78314 89.344 
L 316.503802 79.772764 
L 313.224463 89.657885 
L 309.945124 88.026353 
L 306.665785 89.344 
L 303.386446 101.579294 
L 300.107107 90.805132 
L 296.827769 102.934588 
L 293.54843 95.343606 
L 290.269091 91.858286 
L 286.989752 84.315429 
L 283.710413 87.382033 
L 280.431074 91.642776 
L 277.151736 89.310316 
L 273.872397 82.478907 
L 270.593058 82.168615 
L 267.313719 82.461318 
L 264.03438 83.108571 
L 260.755041 91.783604 
L 257.475702 91.493053 
L 254.196364 98.434485 
L 250.917025 84.10735 
L 247.637686 91.690667 
L 244.358347 80.978824 
L 241.079008 92.544 
L 237.799669 101.877094 
L 234.520331 94.492657 
L 231.240992 85.177469 
L 227.961653 92.16 
L 224.682314 103.117913 
L 221.402975 88.239067 
L 218.123636 97.495579 
L 214.844298 104.017735 
L 211.564959 90.008151 
L 208.28562 97.686555 
L 205.006281 85.075654 
L 201.726942 93.470897 
L 198.447603 93.744 
L 195.168264 104.033764 
L 191.888926 92.4416 
L 188.609587 94.213565 
L 185.330248 99.60409 
L 182.050909 97.282723 
L 178.77157 90.079522 
L 175.492231 97.082182 
L 172.212893 92.479462 
L 168.933554 103.9104 
L 165.654215 95.504 
L 162.374876 100.224 
L 159.095537 97.246041 
L 155.816198 90.349714 
L 152.53686 97.617285 
L 149.257521 101.018483 
L 145.978182 95.242378 
L 142.698843 97.453367 
L 139.419504 94.759385 
L 136.140165 98.737548 
L 132.860826 98.008615 
L 129.581488 99.846295 
L 126.302149 91.609043 
L 123.02281 108.554847 
L 119.743471 99.352216 
L 116.464132 105.103786 
L 113.184793 106.853744 
L 109.905455 107.648 
L 106.626116 110.996757 
L 103.346777 101.987265 
L 100.067438 107.233676 
L 96.788099 107.466772 
L 93.50876 101.770309 
L 90.229421 112.540313 
L 86.950083 110.523661 
L 83.670744 111.469714 
L 80.391405 113.061786 
L 77.112066 110.017016 
L 73.832727 116.843016 
z
" style="fill:#6baed6;"/>
   </g>
   <g id="PolyCollection_5">
    <path clip-path="url(#pc53a23a401)" d="M 73.832727 58.676459 
L 73.832727 116.843016 
L 77.112066 110.017016 
L 80.391405 113.061786 
L 83.670744 111.469714 
L 86.950083 110.523661 
L 90.229421 112.540313 
L 93.50876 101.770309 
L 96.788099 107.466772 
L 100.067438 107.233676 
L 103.346777 101.987265 
L 106.626116 110.996757 
L 109.905455 107.648 
L 113.184793 106.853744 
L 116.464132 105.103786 
L 119.743471 99.352216 
L 123.02281 108.554847 
L 126.302149 91.609043 
L 129.581488 99.846295 
L 132.860826 98.008615 
L 136.140165 98.737548 
L 139.419504 94.759385 
L 142.698843 97.453367 
L 145.978182 95.242378 
L 149.257521 101.018483 
L 152.53686 97.617285 
L 155.816198 90.349714 
L 159.095537 97.246041 
L 162.374876 100.224 
L 165.654215 95.504 
L 168.933554 103.9104 
L 172.212893 92.479462 
L 175.492231 97.082182 
L 178.77157 90.079522 
L 182.050909 97.282723 
L 185.330248 99.60409 
L 188.609587 94.213565 
L 191.888926 92.4416 
L 195.168264 104.033764 
L 198.447603 93.744 
L 201.726942 93.470897 
L 205.006281 85.075654 
L 208.28562 97.686555 
L 211.564959 90.008151 
L 214.844298 104.017735 
L 218.123636 97.495579 
L 221.402975 88.239067 
L 224.682314 103.117913 
L 227.961653 92.16 
L 231.240992 85.177469 
L 234.520331 94.492657 
L 237.799669 101.877094 
L 241.079008 92.544 
L 244.358347 80.978824 
L 247.637686 91.690667 
L 250.917025 84.10735 
L 254.196364 98.434485 
L 257.475702 91.493053 
L 260.755041 91.783604 
L 264.03438 83.108571 
L 267.313719 82.461318 
L 270.593058 82.168615 
L 273.872397 82.478907 
L 277.151736 89.310316 
L 280.431074 91.642776 
L 283.710413 87.382033 
L 286.989752 84.315429 
L 290.269091 91.858286 
L 293.54843 95.343606 
L 296.827769 102.934588 
L 300.107107 90.805132 
L 303.386446 101.579294 
L 306.665785 89.344 
L 309.945124 88.026353 
L 313.224463 89.657885 
L 316.503802 79.772764 
L 319.78314 89.344 
L 323.062479 95.521959 
L 326.341818 112.489899 
L 329.621157 101.295628 
L 332.900496 92.296258 
L 336.179835 97.282723 
L 339.459174 81.960585 
L 342.738512 88.286176 
L 346.017851 93.993057 
L 349.29719 84.67894 
L 352.576529 93.744 
L 355.855868 75.411692 
L 359.135207 91.362462 
L 362.414545 104.832 
L 365.693884 98.154539 
L 368.973223 97.679706 
L 372.252562 88.992 
L 375.531901 90.610187 
L 378.81124 97.729223 
L 382.090579 90.902473 
L 385.369917 87.617208 
L 388.649256 102.092108 
L 391.928595 93.134769 
L 395.207934 85.240933 
L 398.487273 84.918857 
L 398.487273 61.385143 
L 398.487273 61.385143 
L 395.207934 58.80854 
L 391.928595 55.768615 
L 388.649256 64.418595 
L 385.369917 58.925887 
L 382.090579 58.013313 
L 378.81124 65.443873 
L 375.531901 68.730475 
L 372.252562 60.48 
L 368.973223 60.363387 
L 365.693884 60.214419 
L 362.414545 59.2128 
L 359.135207 57.688615 
L 355.855868 63.005538 
L 352.576529 62.064 
L 349.29719 57.197494 
L 346.017851 60.519849 
L 342.738512 60.709803 
L 339.459174 57.234732 
L 336.179835 61.333787 
L 332.900496 59.594323 
L 329.621157 58.564465 
L 326.341818 65.083856 
L 323.062479 62.764408 
L 319.78314 56.96 
L 316.503802 55.56782 
L 313.224463 57.372535 
L 309.945124 55.499294 
L 306.665785 56.96 
L 303.386446 59.565176 
L 300.107107 62.113811 
L 296.827769 60.920471 
L 293.54843 60.386365 
L 290.269091 58.669714 
L 286.989752 60.178286 
L 283.710413 62.453508 
L 280.431074 63.195429 
L 277.151736 60.207158 
L 273.872397 60.440646 
L 270.593058 59.017846 
L 267.313719 56.975732 
L 264.03438 61.385143 
L 260.755041 56.653307 
L 257.475702 59.479579 
L 254.196364 59.065165 
L 250.917025 57.889419 
L 247.637686 63.530667 
L 244.358347 57.125647 
L 241.079008 55.424 
L 237.799669 56.417004 
L 234.520331 59.187582 
L 231.240992 60.609306 
L 227.961653 59.424 
L 224.682314 62.714435 
L 221.402975 57.553507 
L 218.123636 57.478737 
L 214.844298 65.340145 
L 211.564959 61.31683 
L 208.28562 63.075806 
L 205.006281 58.135181 
L 201.726942 62.88331 
L 198.447603 58.104 
L 195.168264 62.126362 
L 191.888926 60.9024 
L 188.609587 60.154435 
L 185.330248 60.963013 
L 182.050909 59.53634 
L 178.77157 58.872358 
L 175.492231 61.474909 
L 172.212893 57.338622 
L 168.933554 63.36 
L 165.654215 59.424 
L 162.374876 60.970667 
L 159.095537 55.868082 
L 155.816198 58.90791 
L 152.53686 64.318599 
L 149.257521 58.910897 
L 145.978182 61.849946 
L 142.698843 59.758177 
L 139.419504 58.205538 
L 136.140165 63.06271 
L 132.860826 59.830154 
L 129.581488 56.221377 
L 126.302149 58.551652 
L 123.02281 62.019254 
L 119.743471 63.048649 
L 116.464132 62.297566 
L 113.184793 62.808615 
L 109.905455 64 
L 106.626116 63.733622 
L 103.346777 61.255837 
L 100.067438 59.83218 
L 96.788099 63.553901 
L 93.50876 60.380779 
L 90.229421 62.319484 
L 86.950083 65.419932 
L 83.670744 64.704 
L 80.391405 63.963631 
L 77.112066 61.74273 
L 73.832727 58.676459 
z
" style="fill:#3182bd;"/>
   </g>
   <g id="PolyCollection_6">
    <path clip-path="url(#pc53a23a401)" d="M 73.832727 54.144 
L 73.832727 58.676459 
L 77.112066 61.74273 
L 80.391405 63.963631 
L 83.670744 64.704 
L 86.950083 65.419932 
L 90.229421 62.319484 
L 93.50876 60.380779 
L 96.788099 63.553901 
L 100.067438 59.83218 
L 103.346777 61.255837 
L 106.626116 63.733622 
L 109.905455 64 
L 113.184793 62.808615 
L 116.464132 62.297566 
L 119.743471 63.048649 
L 123.02281 62.019254 
L 126.302149 58.551652 
L 129.581488 56.221377 
L 132.860826 59.830154 
L 136.140165 63.06271 
L 139.419504 58.205538 
L 142.698843 59.758177 
L 145.978182 61.849946 
L 149.257521 58.910897 
L 152.53686 64.318599 
L 155.816198 58.90791 
L 159.095537 55.868082 
L 162.374876 60.970667 
L 165.654215 59.424 
L 168.933554 63.36 
L 172.212893 57.338622 
L 175.492231 61.474909 
L 178.77157 58.872358 
L 182.050909 59.53634 
L 185.330248 60.963013 
L 188.609587 60.154435 
L 191.888926 60.9024 
L 195.168264 62.126362 
L 198.447603 58.104 
L 201.726942 62.88331 
L 205.006281 58.135181 
L 208.28562 63.075806 
L 211.564959 61.31683 
L 214.844298 65.340145 
L 218.123636 57.478737 
L 221.402975 57.553507 
L 224.682314 62.714435 
L 227.961653 59.424 
L 231.240992 60.609306 
L 234.520331 59.187582 
L 237.799669 56.417004 
L 241.079008 55.424 
L 244.358347 57.125647 
L 247.637686 63.530667 
L 250.917025 57.889419 
L 254.196364 59.065165 
L 257.475702 59.479579 
L 260.755041 56.653307 
L 264.03438 61.385143 
L 267.313719 56.975732 
L 270.593058 59.017846 
L 273.872397 60.440646 
L 277.151736 60.207158 
L 280.431074 63.195429 
L 283.710413 62.453508 
L 286.989752 60.178286 
L 290.269091 58.669714 
L 293.54843 60.386365 
L 296.827769 60.920471 
L 300.107107 62.113811 
L 303.386446 59.565176 
L 306.665785 56.96 
L 309.945124 55.499294 
L 313.224463 57.372535 
L 316.503802 55.56782 
L 319.78314 56.96 
L 323.062479 62.764408 
L 326.341818 65.083856 
L 329.621157 58.564465 
L 332.900496 59.594323 
L 336.179835 61.333787 
L 339.459174 57.234732 
L 342.738512 60.709803 
L 346.017851 60.519849 
L 349.29719 57.197494 
L 352.576529 62.064 
L 355.855868 63.005538 
L 359.135207 57.688615 
L 362.414545 59.2128 
L 365.693884 60.214419 
L 368.973223 60.363387 
L 372.252562 60.48 
L 375.531901 68.730475 
L 378.81124 65.443873 
L 382.090579 58.013313 
L 385.369917 58.925887 
L 388.649256 64.418595 
L 391.928595 55.768615 
L 395.207934 58.80854 
L 398.487273 61.385143 
L 398.487273 54.144 
L 398.487273 54.144 
L 395.207934 54.144 
L 391.928595 54.144 
L 388.649256 54.144 
L 385.369917 54.144 
L 382.090579 54.144 
L 378.81124 54.144 
L 375.531901 54.144 
L 372.252562 54.144 
L 368.973223 54.144 
L 365.693884 54.144 
L 362.414545 54.144 
L 359.135207 54.144 
L 355.855868 54.144 
L 352.576529 54.144 
L 349.29719 54.144 
L 346.017851 54.144 
L 342.738512 54.144 
L 339.459174 54.144 
L 336.179835 54.144 
L 332.900496 54.144 
L 329.621157 54.144 
L 326.341818 54.144 
L 323.062479 54.144 
L 319.78314 54.144 
L 316.503802 54.144 
L 313.224463 54.144 
L 309.945124 54.144 
L 306.665785 54.144 
L 303.386446 54.144 
L 300.107107 54.144 
L 296.827769 54.144 
L 293.54843 54.144 
L 290.269091 54.144 
L 286.989752 54.144 
L 283.710413 54.144 
L 280.431074 54.144 
L 277.151736 54.144 
L 273.872397 54.144 
L 270.593058 54.144 
L 267.313719 54.144 
L 264.03438 54.144 
L 260.755041 54.144 
L 257.475702 54.144 
L 254.196364 54.144 
L 250.917025 54.144 
L 247.637686 54.144 
L 244.358347 54.144 
L 241.079008 54.144 
L 237.799669 54.144 
L 234.520331 54.144 
L 231.240992 54.144 
L 227.961653 54.144 
L 224.682314 54.144 
L 221.402975 54.144 
L 218.123636 54.144 
L 214.844298 54.144 
L 211.564959 54.144 
L 208.28562 54.144 
L 205.006281 54.144 
L 201.726942 54.144 
L 198.447603 54.144 
L 195.168264 54.144 
L 191.888926 54.144 
L 188.609587 54.144 
L 185.330248 54.144 
L 182.050909 54.144 
L 178.77157 54.144 
L 175.492231 54.144 
L 172.212893 54.144 
L 168.933554 54.144 
L 165.654215 54.144 
L 162.374876 54.144 
L 159.095537 54.144 
L 155.816198 54.144 
L 152.53686 54.144 
L 149.257521 54.144 
L 145.978182 54.144 
L 142.698843 54.144 
L 139.419504 54.144 
L 136.140165 54.144 
L 132.860826 54.144 
L 129.581488 54.144 
L 126.302149 54.144 
L 123.02281 54.144 
L 119.743471 54.144 
L 116.464132 54.144 
L 113.184793 54.144 
L 109.905455 54.144 
L 106.626116 54.144 
L 103.346777 54.144 
L 100.067438 54.144 
L 96.788099 54.144 
L 93.50876 54.144 
L 90.229421 54.144 
L 86.950083 54.144 
L 83.670744 54.144 
L 80.391405 54.144 
L 77.112066 54.144 
L 73.832727 54.144 
z
" style="fill:#0e5a90;"/>
   </g>
   <g id="matplotlib.axis_1">
    <g id="xtick_1">
     <g id="line2d_1">
      <defs>
       <path d="M 0 0 
L 0 3.5 
" id="m90eee5e4da" style="stroke:#000000;stroke-width:0.8;"/>
      </defs>
      <g>
       <use style="stroke:#000000;stroke-width:0.8;" x="70.553388" xlink:href="#m90eee5e4da" y="307.584"/>
      </g>
     </g>
     <g id="text_1">
      <!-- 0 -->
      <defs>
       <path d="M 31.78125 66.40625 
Q 24.171875 66.40625 20.328125 58.90625 
Q 16.5 51.421875 16.5 36.375 
Q 16.5 21.390625 20.328125 13.890625 
Q 24.171875 6.390625 31.78125 6.390625 
Q 39.453125 6.390625 43.28125 13.890625 
Q 47.125 21.390625 47.125 36.375 
Q 47.125 51.421875 43.28125 58.90625 
Q 39.453125 66.40625 31.78125 66.40625 
z
M 31.78125 74.21875 
Q 44.046875 74.21875 50.515625 64.515625 
Q 56.984375 54.828125 56.984375 36.375 
Q 56.984375 17.96875 50.515625 8.265625 
Q 44.046875 -1.421875 31.78125 -1.421875 
Q 19.53125 -1.421875 13.0625 8.265625 
Q 6.59375 17.96875 6.59375 36.375 
Q 6.59375 54.828125 13.0625 64.515625 
Q 19.53125 74.21875 31.78125 74.21875 
z
" id="DejaVuSans-30"/>
      </defs>
      <g transform="translate(67.372138 322.182437)scale(0.1 -0.1)">
       <use xlink:href="#DejaVuSans-30"/>
      </g>
     </g>
    </g>
    <g id="xtick_2">
     <g id="line2d_2">
      <g>
       <use style="stroke:#000000;stroke-width:0.8;" x="136.140165" xlink:href="#m90eee5e4da" y="307.584"/>
      </g>
     </g>
     <g id="text_2">
      <!-- 200000 -->
      <defs>
       <path d="M 19.1875 8.296875 
L 53.609375 8.296875 
L 53.609375 0 
L 7.328125 0 
L 7.328125 8.296875 
Q 12.9375 14.109375 22.625 23.890625 
Q 32.328125 33.6875 34.8125 36.53125 
Q 39.546875 41.84375 41.421875 45.53125 
Q 43.3125 49.21875 43.3125 52.78125 
Q 43.3125 58.59375 39.234375 62.25 
Q 35.15625 65.921875 28.609375 65.921875 
Q 23.96875 65.921875 18.8125 64.3125 
Q 13.671875 62.703125 7.8125 59.421875 
L 7.8125 69.390625 
Q 13.765625 71.78125 18.9375 73 
Q 24.125 74.21875 28.421875 74.21875 
Q 39.75 74.21875 46.484375 68.546875 
Q 53.21875 62.890625 53.21875 53.421875 
Q 53.21875 48.921875 51.53125 44.890625 
Q 49.859375 40.875 45.40625 35.40625 
Q 44.1875 33.984375 37.640625 27.21875 
Q 31.109375 20.453125 19.1875 8.296875 
z
" id="DejaVuSans-32"/>
      </defs>
      <g transform="translate(117.052665 322.182437)scale(0.1 -0.1)">
       <use xlink:href="#DejaVuSans-32"/>
       <use x="63.623047" xlink:href="#DejaVuSans-30"/>
       <use x="127.246094" xlink:href="#DejaVuSans-30"/>
       <use x="190.869141" xlink:href="#DejaVuSans-30"/>
       <use x="254.492188" xlink:href="#DejaVuSans-30"/>
       <use x="318.115234" xlink:href="#DejaVuSans-30"/>
      </g>
     </g>
    </g>
    <g id="xtick_3">
     <g id="line2d_3">
      <g>
       <use style="stroke:#000000;stroke-width:0.8;" x="201.726942" xlink:href="#m90eee5e4da" y="307.584"/>
      </g>
     </g>
     <g id="text_3">
      <!-- 400000 -->
      <defs>
       <path d="M 37.796875 64.3125 
L 12.890625 25.390625 
L 37.796875 25.390625 
z
M 35.203125 72.90625 
L 47.609375 72.90625 
L 47.609375 25.390625 
L 58.015625 25.390625 
L 58.015625 17.1875 
L 47.609375 17.1875 
L 47.609375 0 
L 37.796875 0 
L 37.796875 17.1875 
L 4.890625 17.1875 
L 4.890625 26.703125 
z
" id="DejaVuSans-34"/>
      </defs>
      <g transform="translate(182.639442 322.182437)scale(0.1 -0.1)">
       <use xlink:href="#DejaVuSans-34"/>
       <use x="63.623047" xlink:href="#DejaVuSans-30"/>
       <use x="127.246094" xlink:href="#DejaVuSans-30"/>
       <use x="190.869141" xlink:href="#DejaVuSans-30"/>
       <use x="254.492188" xlink:href="#DejaVuSans-30"/>
       <use x="318.115234" xlink:href="#DejaVuSans-30"/>
      </g>
     </g>
    </g>
    <g id="xtick_4">
     <g id="line2d_4">
      <g>
       <use style="stroke:#000000;stroke-width:0.8;" x="267.313719" xlink:href="#m90eee5e4da" y="307.584"/>
      </g>
     </g>
     <g id="text_4">
      <!-- 600000 -->
      <defs>
       <path d="M 33.015625 40.375 
Q 26.375 40.375 22.484375 35.828125 
Q 18.609375 31.296875 18.609375 23.390625 
Q 18.609375 15.53125 22.484375 10.953125 
Q 26.375 6.390625 33.015625 6.390625 
Q 39.65625 6.390625 43.53125 10.953125 
Q 47.40625 15.53125 47.40625 23.390625 
Q 47.40625 31.296875 43.53125 35.828125 
Q 39.65625 40.375 33.015625 40.375 
z
M 52.59375 71.296875 
L 52.59375 62.3125 
Q 48.875 64.0625 45.09375 64.984375 
Q 41.3125 65.921875 37.59375 65.921875 
Q 27.828125 65.921875 22.671875 59.328125 
Q 17.53125 52.734375 16.796875 39.40625 
Q 19.671875 43.65625 24.015625 45.921875 
Q 28.375 48.1875 33.59375 48.1875 
Q 44.578125 48.1875 50.953125 41.515625 
Q 57.328125 34.859375 57.328125 23.390625 
Q 57.328125 12.15625 50.6875 5.359375 
Q 44.046875 -1.421875 33.015625 -1.421875 
Q 20.359375 -1.421875 13.671875 8.265625 
Q 6.984375 17.96875 6.984375 36.375 
Q 6.984375 53.65625 15.1875 63.9375 
Q 23.390625 74.21875 37.203125 74.21875 
Q 40.921875 74.21875 44.703125 73.484375 
Q 48.484375 72.75 52.59375 71.296875 
z
" id="DejaVuSans-36"/>
      </defs>
      <g transform="translate(248.226219 322.182437)scale(0.1 -0.1)">
       <use xlink:href="#DejaVuSans-36"/>
       <use x="63.623047" xlink:href="#DejaVuSans-30"/>
       <use x="127.246094" xlink:href="#DejaVuSans-30"/>
       <use x="190.869141" xlink:href="#DejaVuSans-30"/>
       <use x="254.492188" xlink:href="#DejaVuSans-30"/>
       <use x="318.115234" xlink:href="#DejaVuSans-30"/>
      </g>
     </g>
    </g>
    <g id="xtick_5">
     <g id="line2d_5">
      <g>
       <use style="stroke:#000000;stroke-width:0.8;" x="332.900496" xlink:href="#m90eee5e4da" y="307.584"/>
      </g>
     </g>
     <g id="text_5">
      <!-- 800000 -->
      <defs>
       <path d="M 31.78125 34.625 
Q 24.75 34.625 20.71875 30.859375 
Q 16.703125 27.09375 16.703125 20.515625 
Q 16.703125 13.921875 20.71875 10.15625 
Q 24.75 6.390625 31.78125 6.390625 
Q 38.8125 6.390625 42.859375 10.171875 
Q 46.921875 13.96875 46.921875 20.515625 
Q 46.921875 27.09375 42.890625 30.859375 
Q 38.875 34.625 31.78125 34.625 
z
M 21.921875 38.8125 
Q 15.578125 40.375 12.03125 44.71875 
Q 8.5 49.078125 8.5 55.328125 
Q 8.5 64.0625 14.71875 69.140625 
Q 20.953125 74.21875 31.78125 74.21875 
Q 42.671875 74.21875 48.875 69.140625 
Q 55.078125 64.0625 55.078125 55.328125 
Q 55.078125 49.078125 51.53125 44.71875 
Q 48 40.375 41.703125 38.8125 
Q 48.828125 37.15625 52.796875 32.3125 
Q 56.78125 27.484375 56.78125 20.515625 
Q 56.78125 9.90625 50.3125 4.234375 
Q 43.84375 -1.421875 31.78125 -1.421875 
Q 19.734375 -1.421875 13.25 4.234375 
Q 6.78125 9.90625 6.78125 20.515625 
Q 6.78125 27.484375 10.78125 32.3125 
Q 14.796875 37.15625 21.921875 38.8125 
z
M 18.3125 54.390625 
Q 18.3125 48.734375 21.84375 45.5625 
Q 25.390625 42.390625 31.78125 42.390625 
Q 38.140625 42.390625 41.71875 45.5625 
Q 45.3125 48.734375 45.3125 54.390625 
Q 45.3125 60.0625 41.71875 63.234375 
Q 38.140625 66.40625 31.78125 66.40625 
Q 25.390625 66.40625 21.84375 63.234375 
Q 18.3125 60.0625 18.3125 54.390625 
z
" id="DejaVuSans-38"/>
      </defs>
      <g transform="translate(313.812996 322.182437)scale(0.1 -0.1)">
       <use xlink:href="#DejaVuSans-38"/>
       <use x="63.623047" xlink:href="#DejaVuSans-30"/>
       <use x="127.246094" xlink:href="#DejaVuSans-30"/>
       <use x="190.869141" xlink:href="#DejaVuSans-30"/>
       <use x="254.492188" xlink:href="#DejaVuSans-30"/>
       <use x="318.115234" xlink:href="#DejaVuSans-30"/>
      </g>
     </g>
    </g>
    <g id="xtick_6">
     <g id="line2d_6">
      <g>
       <use style="stroke:#000000;stroke-width:0.8;" x="398.487273" xlink:href="#m90eee5e4da" y="307.584"/>
      </g>
     </g>
     <g id="text_6">
      <!-- 1000000 -->
      <defs>
       <path d="M 12.40625 8.296875 
L 28.515625 8.296875 
L 28.515625 63.921875 
L 10.984375 60.40625 
L 10.984375 69.390625 
L 28.421875 72.90625 
L 38.28125 72.90625 
L 38.28125 8.296875 
L 54.390625 8.296875 
L 54.390625 0 
L 12.40625 0 
z
" id="DejaVuSans-31"/>
      </defs>
      <g transform="translate(376.218523 322.182437)scale(0.1 -0.1)">
       <use xlink:href="#DejaVuSans-31"/>
       <use x="63.623047" xlink:href="#DejaVuSans-30"/>
       <use x="127.246094" xlink:href="#DejaVuSans-30"/>
       <use x="190.869141" xlink:href="#DejaVuSans-30"/>
       <use x="254.492188" xlink:href="#DejaVuSans-30"/>
       <use x="318.115234" xlink:href="#DejaVuSans-30"/>
       <use x="381.738281" xlink:href="#DejaVuSans-30"/>
      </g>
     </g>
    </g>
    <g id="text_7">
     <!-- alexa rank -->
     <defs>
      <path d="M 34.28125 27.484375 
Q 23.390625 27.484375 19.1875 25 
Q 14.984375 22.515625 14.984375 16.5 
Q 14.984375 11.71875 18.140625 8.90625 
Q 21.296875 6.109375 26.703125 6.109375 
Q 34.1875 6.109375 38.703125 11.40625 
Q 43.21875 16.703125 43.21875 25.484375 
L 43.21875 27.484375 
z
M 52.203125 31.203125 
L 52.203125 0 
L 43.21875 0 
L 43.21875 8.296875 
Q 40.140625 3.328125 35.546875 0.953125 
Q 30.953125 -1.421875 24.3125 -1.421875 
Q 15.921875 -1.421875 10.953125 3.296875 
Q 6 8.015625 6 15.921875 
Q 6 25.140625 12.171875 29.828125 
Q 18.359375 34.515625 30.609375 34.515625 
L 43.21875 34.515625 
L 43.21875 35.40625 
Q 43.21875 41.609375 39.140625 45 
Q 35.0625 48.390625 27.6875 48.390625 
Q 23 48.390625 18.546875 47.265625 
Q 14.109375 46.140625 10.015625 43.890625 
L 10.015625 52.203125 
Q 14.9375 54.109375 19.578125 55.046875 
Q 24.21875 56 28.609375 56 
Q 40.484375 56 46.34375 49.84375 
Q 52.203125 43.703125 52.203125 31.203125 
z
" id="DejaVuSans-61"/>
      <path d="M 9.421875 75.984375 
L 18.40625 75.984375 
L 18.40625 0 
L 9.421875 0 
z
" id="DejaVuSans-6c"/>
      <path d="M 56.203125 29.59375 
L 56.203125 25.203125 
L 14.890625 25.203125 
Q 15.484375 15.921875 20.484375 11.0625 
Q 25.484375 6.203125 34.421875 6.203125 
Q 39.59375 6.203125 44.453125 7.46875 
Q 49.3125 8.734375 54.109375 11.28125 
L 54.109375 2.78125 
Q 49.265625 0.734375 44.1875 -0.34375 
Q 39.109375 -1.421875 33.890625 -1.421875 
Q 20.796875 -1.421875 13.15625 6.1875 
Q 5.515625 13.8125 5.515625 26.8125 
Q 5.515625 40.234375 12.765625 48.109375 
Q 20.015625 56 32.328125 56 
Q 43.359375 56 49.78125 48.890625 
Q 56.203125 41.796875 56.203125 29.59375 
z
M 47.21875 32.234375 
Q 47.125 39.59375 43.09375 43.984375 
Q 39.0625 48.390625 32.421875 48.390625 
Q 24.90625 48.390625 20.390625 44.140625 
Q 15.875 39.890625 15.1875 32.171875 
z
" id="DejaVuSans-65"/>
      <path d="M 54.890625 54.6875 
L 35.109375 28.078125 
L 55.90625 0 
L 45.3125 0 
L 29.390625 21.484375 
L 13.484375 0 
L 2.875 0 
L 24.125 28.609375 
L 4.6875 54.6875 
L 15.28125 54.6875 
L 29.78125 35.203125 
L 44.28125 54.6875 
z
" id="DejaVuSans-78"/>
      <path id="DejaVuSans-20"/>
      <path d="M 41.109375 46.296875 
Q 39.59375 47.171875 37.8125 47.578125 
Q 36.03125 48 33.890625 48 
Q 26.265625 48 22.1875 43.046875 
Q 18.109375 38.09375 18.109375 28.8125 
L 18.109375 0 
L 9.078125 0 
L 9.078125 54.6875 
L 18.109375 54.6875 
L 18.109375 46.1875 
Q 20.953125 51.171875 25.484375 53.578125 
Q 30.03125 56 36.53125 56 
Q 37.453125 56 38.578125 55.875 
Q 39.703125 55.765625 41.0625 55.515625 
z
" id="DejaVuSans-72"/>
      <path d="M 54.890625 33.015625 
L 54.890625 0 
L 45.90625 0 
L 45.90625 32.71875 
Q 45.90625 40.484375 42.875 44.328125 
Q 39.84375 48.1875 33.796875 48.1875 
Q 26.515625 48.1875 22.3125 43.546875 
Q 18.109375 38.921875 18.109375 30.90625 
L 18.109375 0 
L 9.078125 0 
L 9.078125 54.6875 
L 18.109375 54.6875 
L 18.109375 46.1875 
Q 21.34375 51.125 25.703125 53.5625 
Q 30.078125 56 35.796875 56 
Q 45.21875 56 50.046875 50.171875 
Q 54.890625 44.34375 54.890625 33.015625 
z
" id="DejaVuSans-6e"/>
      <path d="M 9.078125 75.984375 
L 18.109375 75.984375 
L 18.109375 31.109375 
L 44.921875 54.6875 
L 56.390625 54.6875 
L 27.390625 29.109375 
L 57.625 0 
L 45.90625 0 
L 18.109375 26.703125 
L 18.109375 0 
L 9.078125 0 
z
" id="DejaVuSans-6b"/>
     </defs>
     <g transform="translate(209.835 335.860562)scale(0.1 -0.1)">
      <use xlink:href="#DejaVuSans-61"/>
      <use x="61.279297" xlink:href="#DejaVuSans-6c"/>
      <use x="89.0625" xlink:href="#DejaVuSans-65"/>
      <use x="150.570312" xlink:href="#DejaVuSans-78"/>
      <use x="209.75" xlink:href="#DejaVuSans-61"/>
      <use x="271.029297" xlink:href="#DejaVuSans-20"/>
      <use x="302.816406" xlink:href="#DejaVuSans-72"/>
      <use x="343.929688" xlink:href="#DejaVuSans-61"/>
      <use x="405.208984" xlink:href="#DejaVuSans-6e"/>
      <use x="468.587891" xlink:href="#DejaVuSans-6b"/>
     </g>
    </g>
   </g>
   <g id="matplotlib.axis_2">
    <g id="ytick_1">
     <g id="line2d_7">
      <defs>
       <path d="M 0 0 
L -3.5 0 
" id="mfdb064d3ad" style="stroke:#000000;stroke-width:0.8;"/>
      </defs>
      <g>
       <use style="stroke:#000000;stroke-width:0.8;" x="57.6" xlink:href="#mfdb064d3ad" y="307.584"/>
      </g>
     </g>
     <g id="text_8">
      <!-- 0.0 -->
      <defs>
       <path d="M 10.6875 12.40625 
L 21 12.40625 
L 21 0 
L 10.6875 0 
z
" id="DejaVuSans-2e"/>
      </defs>
      <g transform="translate(34.696875 311.383219)scale(0.1 -0.1)">
       <use xlink:href="#DejaVuSans-30"/>
       <use x="63.623047" xlink:href="#DejaVuSans-2e"/>
       <use x="95.410156" xlink:href="#DejaVuSans-30"/>
      </g>
     </g>
    </g>
    <g id="ytick_2">
     <g id="line2d_8">
      <g>
       <use style="stroke:#000000;stroke-width:0.8;" x="57.6" xlink:href="#mfdb064d3ad" y="256.896"/>
      </g>
     </g>
     <g id="text_9">
      <!-- 0.2 -->
      <g transform="translate(34.696875 260.695219)scale(0.1 -0.1)">
       <use xlink:href="#DejaVuSans-30"/>
       <use x="63.623047" xlink:href="#DejaVuSans-2e"/>
       <use x="95.410156" xlink:href="#DejaVuSans-32"/>
      </g>
     </g>
    </g>
    <g id="ytick_3">
     <g id="line2d_9">
      <g>
       <use style="stroke:#000000;stroke-width:0.8;" x="57.6" xlink:href="#mfdb064d3ad" y="206.208"/>
      </g>
     </g>
     <g id="text_10">
      <!-- 0.4 -->
      <g transform="translate(34.696875 210.007219)scale(0.1 -0.1)">
       <use xlink:href="#DejaVuSans-30"/>
       <use x="63.623047" xlink:href="#DejaVuSans-2e"/>
       <use x="95.410156" xlink:href="#DejaVuSans-34"/>
      </g>
     </g>
    </g>
    <g id="ytick_4">
     <g id="line2d_10">
      <g>
       <use style="stroke:#000000;stroke-width:0.8;" x="57.6" xlink:href="#mfdb064d3ad" y="155.52"/>
      </g>
     </g>
     <g id="text_11">
      <!-- 0.6 -->
      <g transform="translate(34.696875 159.319219)scale(0.1 -0.1)">
       <use xlink:href="#DejaVuSans-30"/>
       <use x="63.623047" xlink:href="#DejaVuSans-2e"/>
       <use x="95.410156" xlink:href="#DejaVuSans-36"/>
      </g>
     </g>
    </g>
    <g id="ytick_5">
     <g id="line2d_11">
      <g>
       <use style="stroke:#000000;stroke-width:0.8;" x="57.6" xlink:href="#mfdb064d3ad" y="104.832"/>
      </g>
     </g>
     <g id="text_12">
      <!-- 0.8 -->
      <g transform="translate(34.696875 108.631219)scale(0.1 -0.1)">
       <use xlink:href="#DejaVuSans-30"/>
       <use x="63.623047" xlink:href="#DejaVuSans-2e"/>
       <use x="95.410156" xlink:href="#DejaVuSans-38"/>
      </g>
     </g>
    </g>
    <g id="ytick_6">
     <g id="line2d_12">
      <g>
       <use style="stroke:#000000;stroke-width:0.8;" x="57.6" xlink:href="#mfdb064d3ad" y="54.144"/>
      </g>
     </g>
     <g id="text_13">
      <!-- 1.0 -->
      <g transform="translate(34.696875 57.943219)scale(0.1 -0.1)">
       <use xlink:href="#DejaVuSans-31"/>
       <use x="63.623047" xlink:href="#DejaVuSans-2e"/>
       <use x="95.410156" xlink:href="#DejaVuSans-30"/>
      </g>
     </g>
    </g>
    <g id="text_14">
     <!-- proportion -->
     <defs>
      <path d="M 18.109375 8.203125 
L 18.109375 -20.796875 
L 9.078125 -20.796875 
L 9.078125 54.6875 
L 18.109375 54.6875 
L 18.109375 46.390625 
Q 20.953125 51.265625 25.265625 53.625 
Q 29.59375 56 35.59375 56 
Q 45.5625 56 51.78125 48.09375 
Q 58.015625 40.1875 58.015625 27.296875 
Q 58.015625 14.40625 51.78125 6.484375 
Q 45.5625 -1.421875 35.59375 -1.421875 
Q 29.59375 -1.421875 25.265625 0.953125 
Q 20.953125 3.328125 18.109375 8.203125 
z
M 48.6875 27.296875 
Q 48.6875 37.203125 44.609375 42.84375 
Q 40.53125 48.484375 33.40625 48.484375 
Q 26.265625 48.484375 22.1875 42.84375 
Q 18.109375 37.203125 18.109375 27.296875 
Q 18.109375 17.390625 22.1875 11.75 
Q 26.265625 6.109375 33.40625 6.109375 
Q 40.53125 6.109375 44.609375 11.75 
Q 48.6875 17.390625 48.6875 27.296875 
z
" id="DejaVuSans-70"/>
      <path d="M 30.609375 48.390625 
Q 23.390625 48.390625 19.1875 42.75 
Q 14.984375 37.109375 14.984375 27.296875 
Q 14.984375 17.484375 19.15625 11.84375 
Q 23.34375 6.203125 30.609375 6.203125 
Q 37.796875 6.203125 41.984375 11.859375 
Q 46.1875 17.53125 46.1875 27.296875 
Q 46.1875 37.015625 41.984375 42.703125 
Q 37.796875 48.390625 30.609375 48.390625 
z
M 30.609375 56 
Q 42.328125 56 49.015625 48.375 
Q 55.71875 40.765625 55.71875 27.296875 
Q 55.71875 13.875 49.015625 6.21875 
Q 42.328125 -1.421875 30.609375 -1.421875 
Q 18.84375 -1.421875 12.171875 6.21875 
Q 5.515625 13.875 5.515625 27.296875 
Q 5.515625 40.765625 12.171875 48.375 
Q 18.84375 56 30.609375 56 
z
" id="DejaVuSans-6f"/>
      <path d="M 18.3125 70.21875 
L 18.3125 54.6875 
L 36.8125 54.6875 
L 36.8125 47.703125 
L 18.3125 47.703125 
L 18.3125 18.015625 
Q 18.3125 11.328125 20.140625 9.421875 
Q 21.96875 7.515625 27.59375 7.515625 
L 36.8125 7.515625 
L 36.8125 0 
L 27.59375 0 
Q 17.1875 0 13.234375 3.875 
Q 9.28125 7.765625 9.28125 18.015625 
L 9.28125 47.703125 
L 2.6875 47.703125 
L 2.6875 54.6875 
L 9.28125 54.6875 
L 9.28125 70.21875 
z
" id="DejaVuSans-74"/>
      <path d="M 9.421875 54.6875 
L 18.40625 54.6875 
L 18.40625 0 
L 9.421875 0 
z
M 9.421875 75.984375 
L 18.40625 75.984375 
L 18.40625 64.59375 
L 9.421875 64.59375 
z
" id="DejaVuSans-69"/>
     </defs>
     <g transform="translate(28.617187 200.681906)rotate(-90)scale(0.1 -0.1)">
      <use xlink:href="#DejaVuSans-70"/>
      <use x="63.476562" xlink:href="#DejaVuSans-72"/>
      <use x="104.558594" xlink:href="#DejaVuSans-6f"/>
      <use x="165.740234" xlink:href="#DejaVuSans-70"/>
      <use x="229.216797" xlink:href="#DejaVuSans-6f"/>
      <use x="290.398438" xlink:href="#DejaVuSans-72"/>
      <use x="331.511719" xlink:href="#DejaVuSans-74"/>
      <use x="370.720703" xlink:href="#DejaVuSans-69"/>
      <use x="398.503906" xlink:href="#DejaVuSans-6f"/>
      <use x="459.685547" xlink:href="#DejaVuSans-6e"/>
     </g>
    </g>
   </g>
   <g id="line2d_13">
    <path clip-path="url(#pc53a23a401)" d="M 57.6 301.896801 
L 414.72 301.896801 
" style="fill:none;stroke:#808080;stroke-dasharray:3.7,1.6;stroke-dashoffset:0;"/>
   </g>
   <g id="line2d_14">
    <path clip-path="url(#pc53a23a401)" d="M 57.6 301.896801 
L 414.72 301.896801 
" style="fill:none;stroke:#808080;stroke-dasharray:1,1.65;stroke-dashoffset:0;"/>
   </g>
   <g id="line2d_15">
    <path clip-path="url(#pc53a23a401)" d="M 57.6 247.499785 
L 414.72 247.499785 
" style="fill:none;stroke:#808080;stroke-dasharray:1,1.65;stroke-dashoffset:0;"/>
   </g>
   <g id="line2d_16">
    <path clip-path="url(#pc53a23a401)" d="M 57.6 95.495223 
L 414.72 95.495223 
" style="fill:none;stroke:#808080;stroke-dasharray:1,1.65;stroke-dashoffset:0;"/>
   </g>
   <g id="line2d_17">
    <path clip-path="url(#pc53a23a401)" d="M 57.6 60.371673 
L 414.72 60.371673 
" style="fill:none;stroke:#808080;stroke-dasharray:1,1.65;stroke-dashoffset:0;"/>
   </g>
   <g id="patch_3">
    <path d="M 57.6 307.584 
L 57.6 41.472 
" style="fill:none;stroke:#000000;stroke-linecap:square;stroke-linejoin:miter;stroke-width:0.8;"/>
   </g>
   <g id="patch_4">
    <path d="M 414.72 307.584 
L 414.72 41.472 
" style="fill:none;stroke:#000000;stroke-linecap:square;stroke-linejoin:miter;stroke-width:0.8;"/>
   </g>
   <g id="patch_5">
    <path d="M 57.6 307.584 
L 414.72 307.584 
" style="fill:none;stroke:#000000;stroke-linecap:square;stroke-linejoin:miter;stroke-width:0.8;"/>
   </g>
   <g id="patch_6">
    <path d="M 57.6 41.472 
L 414.72 41.472 
" style="fill:none;stroke:#000000;stroke-linecap:square;stroke-linejoin:miter;stroke-width:0.8;"/>
   </g>
   <g id="text_15">
    <!-- without sct -->
    <defs>
     <path d="M 4.203125 54.6875 
L 13.1875 54.6875 
L 24.421875 12.015625 
L 35.59375 54.6875 
L 46.1875 54.6875 
L 57.421875 12.015625 
L 68.609375 54.6875 
L 77.59375 54.6875 
L 63.28125 0 
L 52.6875 0 
L 40.921875 44.828125 
L 29.109375 0 
L 18.5 0 
z
" id="DejaVuSans-77"/>
     <path d="M 54.890625 33.015625 
L 54.890625 0 
L 45.90625 0 
L 45.90625 32.71875 
Q 45.90625 40.484375 42.875 44.328125 
Q 39.84375 48.1875 33.796875 48.1875 
Q 26.515625 48.1875 22.3125 43.546875 
Q 18.109375 38.921875 18.109375 30.90625 
L 18.109375 0 
L 9.078125 0 
L 9.078125 75.984375 
L 18.109375 75.984375 
L 18.109375 46.1875 
Q 21.34375 51.125 25.703125 53.5625 
Q 30.078125 56 35.796875 56 
Q 45.21875 56 50.046875 50.171875 
Q 54.890625 44.34375 54.890625 33.015625 
z
" id="DejaVuSans-68"/>
     <path d="M 8.5 21.578125 
L 8.5 54.6875 
L 17.484375 54.6875 
L 17.484375 21.921875 
Q 17.484375 14.15625 20.5 10.265625 
Q 23.53125 6.390625 29.59375 6.390625 
Q 36.859375 6.390625 41.078125 11.03125 
Q 45.3125 15.671875 45.3125 23.6875 
L 45.3125 54.6875 
L 54.296875 54.6875 
L 54.296875 0 
L 45.3125 0 
L 45.3125 8.40625 
Q 42.046875 3.421875 37.71875 1 
Q 33.40625 -1.421875 27.6875 -1.421875 
Q 18.265625 -1.421875 13.375 4.4375 
Q 8.5 10.296875 8.5 21.578125 
z
M 31.109375 56 
z
" id="DejaVuSans-75"/>
     <path d="M 44.28125 53.078125 
L 44.28125 44.578125 
Q 40.484375 46.53125 36.375 47.5 
Q 32.28125 48.484375 27.875 48.484375 
Q 21.1875 48.484375 17.84375 46.4375 
Q 14.5 44.390625 14.5 40.28125 
Q 14.5 37.15625 16.890625 35.375 
Q 19.28125 33.59375 26.515625 31.984375 
L 29.59375 31.296875 
Q 39.15625 29.25 43.1875 25.515625 
Q 47.21875 21.78125 47.21875 15.09375 
Q 47.21875 7.46875 41.1875 3.015625 
Q 35.15625 -1.421875 24.609375 -1.421875 
Q 20.21875 -1.421875 15.453125 -0.5625 
Q 10.6875 0.296875 5.421875 2 
L 5.421875 11.28125 
Q 10.40625 8.6875 15.234375 7.390625 
Q 20.0625 6.109375 24.8125 6.109375 
Q 31.15625 6.109375 34.5625 8.28125 
Q 37.984375 10.453125 37.984375 14.40625 
Q 37.984375 18.0625 35.515625 20.015625 
Q 33.0625 21.96875 24.703125 23.78125 
L 21.578125 24.515625 
Q 13.234375 26.265625 9.515625 29.90625 
Q 5.8125 33.546875 5.8125 39.890625 
Q 5.8125 47.609375 11.28125 51.796875 
Q 16.75 56 26.8125 56 
Q 31.78125 56 36.171875 55.265625 
Q 40.578125 54.546875 44.28125 53.078125 
z
" id="DejaVuSans-73"/>
     <path d="M 48.78125 52.59375 
L 48.78125 44.1875 
Q 44.96875 46.296875 41.140625 47.34375 
Q 37.3125 48.390625 33.40625 48.390625 
Q 24.65625 48.390625 19.8125 42.84375 
Q 14.984375 37.3125 14.984375 27.296875 
Q 14.984375 17.28125 19.8125 11.734375 
Q 24.65625 6.203125 33.40625 6.203125 
Q 37.3125 6.203125 41.140625 7.25 
Q 44.96875 8.296875 48.78125 10.40625 
L 48.78125 2.09375 
Q 45.015625 0.34375 40.984375 -0.53125 
Q 36.96875 -1.421875 32.421875 -1.421875 
Q 20.0625 -1.421875 12.78125 6.34375 
Q 5.515625 14.109375 5.515625 27.296875 
Q 5.515625 40.671875 12.859375 48.328125 
Q 20.21875 56 33.015625 56 
Q 37.15625 56 41.109375 55.140625 
Q 45.0625 54.296875 48.78125 52.59375 
z
" id="DejaVuSans-63"/>
    </defs>
    <g transform="translate(80.391405 305.0496)scale(0.1 -0.1)">
     <use xlink:href="#DejaVuSans-77"/>
     <use x="81.787109" xlink:href="#DejaVuSans-69"/>
     <use x="109.570312" xlink:href="#DejaVuSans-74"/>
     <use x="148.779297" xlink:href="#DejaVuSans-68"/>
     <use x="212.158203" xlink:href="#DejaVuSans-6f"/>
     <use x="273.339844" xlink:href="#DejaVuSans-75"/>
     <use x="336.71875" xlink:href="#DejaVuSans-74"/>
     <use x="375.927734" xlink:href="#DejaVuSans-20"/>
     <use x="407.714844" xlink:href="#DejaVuSans-73"/>
     <use x="459.814453" xlink:href="#DejaVuSans-63"/>
     <use x="514.794922" xlink:href="#DejaVuSans-74"/>
    </g>
   </g>
   <g id="text_16">
    <!-- 2 scts -->
    <g transform="translate(80.391405 282.24)scale(0.1 -0.1)">
     <use xlink:href="#DejaVuSans-32"/>
     <use x="63.623047" xlink:href="#DejaVuSans-20"/>
     <use x="95.410156" xlink:href="#DejaVuSans-73"/>
     <use x="147.509766" xlink:href="#DejaVuSans-63"/>
     <use x="202.490234" xlink:href="#DejaVuSans-74"/>
     <use x="241.699219" xlink:href="#DejaVuSans-73"/>
    </g>
   </g>
   <g id="text_17">
    <!-- 3 scts -->
    <defs>
     <path d="M 40.578125 39.3125 
Q 47.65625 37.796875 51.625 33 
Q 55.609375 28.21875 55.609375 21.1875 
Q 55.609375 10.40625 48.1875 4.484375 
Q 40.765625 -1.421875 27.09375 -1.421875 
Q 22.515625 -1.421875 17.65625 -0.515625 
Q 12.796875 0.390625 7.625 2.203125 
L 7.625 11.71875 
Q 11.71875 9.328125 16.59375 8.109375 
Q 21.484375 6.890625 26.8125 6.890625 
Q 36.078125 6.890625 40.9375 10.546875 
Q 45.796875 14.203125 45.796875 21.1875 
Q 45.796875 27.640625 41.28125 31.265625 
Q 36.765625 34.90625 28.71875 34.90625 
L 20.21875 34.90625 
L 20.21875 43.015625 
L 29.109375 43.015625 
Q 36.375 43.015625 40.234375 45.921875 
Q 44.09375 48.828125 44.09375 54.296875 
Q 44.09375 59.90625 40.109375 62.90625 
Q 36.140625 65.921875 28.71875 65.921875 
Q 24.65625 65.921875 20.015625 65.03125 
Q 15.375 64.15625 9.8125 62.3125 
L 9.8125 71.09375 
Q 15.4375 72.65625 20.34375 73.4375 
Q 25.25 74.21875 29.59375 74.21875 
Q 40.828125 74.21875 47.359375 69.109375 
Q 53.90625 64.015625 53.90625 55.328125 
Q 53.90625 49.265625 50.4375 45.09375 
Q 46.96875 40.921875 40.578125 39.3125 
z
" id="DejaVuSans-33"/>
    </defs>
    <g transform="translate(80.391405 180.864)scale(0.1 -0.1)">
     <use xlink:href="#DejaVuSans-33"/>
     <use x="63.623047" xlink:href="#DejaVuSans-20"/>
     <use x="95.410156" xlink:href="#DejaVuSans-73"/>
     <use x="147.509766" xlink:href="#DejaVuSans-63"/>
     <use x="202.490234" xlink:href="#DejaVuSans-74"/>
     <use x="241.699219" xlink:href="#DejaVuSans-73"/>
    </g>
   </g>
   <g id="text_18">
    <!-- 4 scts -->
    <g transform="translate(80.391405 79.488)scale(0.1 -0.1)">
     <use xlink:href="#DejaVuSans-34"/>
     <use x="63.623047" xlink:href="#DejaVuSans-20"/>
     <use x="95.410156" xlink:href="#DejaVuSans-73"/>
     <use x="147.509766" xlink:href="#DejaVuSans-63"/>
     <use x="202.490234" xlink:href="#DejaVuSans-74"/>
     <use x="241.699219" xlink:href="#DejaVuSans-73"/>
    </g>
   </g>
   <g id="text_19">
    <!-- 5 or more scts -->
    <defs>
     <path d="M 10.796875 72.90625 
L 49.515625 72.90625 
L 49.515625 64.59375 
L 19.828125 64.59375 
L 19.828125 46.734375 
Q 21.96875 47.46875 24.109375 47.828125 
Q 26.265625 48.1875 28.421875 48.1875 
Q 40.625 48.1875 47.75 41.5 
Q 54.890625 34.8125 54.890625 23.390625 
Q 54.890625 11.625 47.5625 5.09375 
Q 40.234375 -1.421875 26.90625 -1.421875 
Q 22.3125 -1.421875 17.546875 -0.640625 
Q 12.796875 0.140625 7.71875 1.703125 
L 7.71875 11.625 
Q 12.109375 9.234375 16.796875 8.0625 
Q 21.484375 6.890625 26.703125 6.890625 
Q 35.15625 6.890625 40.078125 11.328125 
Q 45.015625 15.765625 45.015625 23.390625 
Q 45.015625 31 40.078125 35.4375 
Q 35.15625 39.890625 26.703125 39.890625 
Q 22.75 39.890625 18.8125 39.015625 
Q 14.890625 38.140625 10.796875 36.28125 
z
" id="DejaVuSans-35"/>
     <path d="M 52 44.1875 
Q 55.375 50.25 60.0625 53.125 
Q 64.75 56 71.09375 56 
Q 79.640625 56 84.28125 50.015625 
Q 88.921875 44.046875 88.921875 33.015625 
L 88.921875 0 
L 79.890625 0 
L 79.890625 32.71875 
Q 79.890625 40.578125 77.09375 44.375 
Q 74.3125 48.1875 68.609375 48.1875 
Q 61.625 48.1875 57.5625 43.546875 
Q 53.515625 38.921875 53.515625 30.90625 
L 53.515625 0 
L 44.484375 0 
L 44.484375 32.71875 
Q 44.484375 40.625 41.703125 44.40625 
Q 38.921875 48.1875 33.109375 48.1875 
Q 26.21875 48.1875 22.15625 43.53125 
Q 18.109375 38.875 18.109375 30.90625 
L 18.109375 0 
L 9.078125 0 
L 9.078125 54.6875 
L 18.109375 54.6875 
L 18.109375 46.1875 
Q 21.1875 51.21875 25.484375 53.609375 
Q 29.78125 56 35.6875 56 
Q 41.65625 56 45.828125 52.96875 
Q 50 49.953125 52 44.1875 
z
" id="DejaVuSans-6d"/>
    </defs>
    <g transform="translate(80.391405 59.2128)scale(0.1 -0.1)">
     <use xlink:href="#DejaVuSans-35"/>
     <use x="63.623047" xlink:href="#DejaVuSans-20"/>
     <use x="95.410156" xlink:href="#DejaVuSans-6f"/>
     <use x="156.591797" xlink:href="#DejaVuSans-72"/>
     <use x="197.705078" xlink:href="#DejaVuSans-20"/>
     <use x="229.492188" xlink:href="#DejaVuSans-6d"/>
     <use x="326.904297" xlink:href="#DejaVuSans-6f"/>
     <use x="388.085938" xlink:href="#DejaVuSans-72"/>
     <use x="429.167969" xlink:href="#DejaVuSans-65"/>
     <use x="490.691406" xlink:href="#DejaVuSans-20"/>
     <use x="522.478516" xlink:href="#DejaVuSans-73"/>
     <use x="574.578125" xlink:href="#DejaVuSans-63"/>
     <use x="629.558594" xlink:href="#DejaVuSans-74"/>
     <use x="668.767578" xlink:href="#DejaVuSans-73"/>
    </g>
   </g>
   <g id="text_20">
    <!-- 0.02 -->
    <g style="fill:#808080;" transform="translate(48.287763 299.817114)scale(0.1 -0.1)">
     <use xlink:href="#DejaVuSans-30"/>
     <use x="63.623047" xlink:href="#DejaVuSans-2e"/>
     <use x="95.410156" xlink:href="#DejaVuSans-30"/>
     <use x="159.033203" xlink:href="#DejaVuSans-32"/>
    </g>
   </g>
   <g id="text_21">
    <!-- 0.02 -->
    <g style="fill:#808080;" transform="translate(48.287763 299.817114)scale(0.1 -0.1)">
     <use xlink:href="#DejaVuSans-30"/>
     <use x="63.623047" xlink:href="#DejaVuSans-2e"/>
     <use x="95.410156" xlink:href="#DejaVuSans-30"/>
     <use x="159.033203" xlink:href="#DejaVuSans-32"/>
    </g>
   </g>
   <g id="text_22">
    <!-- 0.24 -->
    <g style="fill:#808080;" transform="translate(48.287763 245.420098)scale(0.1 -0.1)">
     <use xlink:href="#DejaVuSans-30"/>
     <use x="63.623047" xlink:href="#DejaVuSans-2e"/>
     <use x="95.410156" xlink:href="#DejaVuSans-32"/>
     <use x="159.033203" xlink:href="#DejaVuSans-34"/>
    </g>
   </g>
   <g id="text_23">
    <!-- 0.84 -->
    <g style="fill:#808080;" transform="translate(48.287763 93.415536)scale(0.1 -0.1)">
     <use xlink:href="#DejaVuSans-30"/>
     <use x="63.623047" xlink:href="#DejaVuSans-2e"/>
     <use x="95.410156" xlink:href="#DejaVuSans-38"/>
     <use x="159.033203" xlink:href="#DejaVuSans-34"/>
    </g>
   </g>
   <g id="text_24">
    <!-- 0.98 -->
    <defs>
     <path d="M 10.984375 1.515625 
L 10.984375 10.5 
Q 14.703125 8.734375 18.5 7.8125 
Q 22.3125 6.890625 25.984375 6.890625 
Q 35.75 6.890625 40.890625 13.453125 
Q 46.046875 20.015625 46.78125 33.40625 
Q 43.953125 29.203125 39.59375 26.953125 
Q 35.25 24.703125 29.984375 24.703125 
Q 19.046875 24.703125 12.671875 31.3125 
Q 6.296875 37.9375 6.296875 49.421875 
Q 6.296875 60.640625 12.9375 67.421875 
Q 19.578125 74.21875 30.609375 74.21875 
Q 43.265625 74.21875 49.921875 64.515625 
Q 56.59375 54.828125 56.59375 36.375 
Q 56.59375 19.140625 48.40625 8.859375 
Q 40.234375 -1.421875 26.421875 -1.421875 
Q 22.703125 -1.421875 18.890625 -0.6875 
Q 15.09375 0.046875 10.984375 1.515625 
z
M 30.609375 32.421875 
Q 37.25 32.421875 41.125 36.953125 
Q 45.015625 41.5 45.015625 49.421875 
Q 45.015625 57.28125 41.125 61.84375 
Q 37.25 66.40625 30.609375 66.40625 
Q 23.96875 66.40625 20.09375 61.84375 
Q 16.21875 57.28125 16.21875 49.421875 
Q 16.21875 41.5 20.09375 36.953125 
Q 23.96875 32.421875 30.609375 32.421875 
z
" id="DejaVuSans-39"/>
    </defs>
    <g style="fill:#808080;" transform="translate(48.287763 58.291985)scale(0.1 -0.1)">
     <use xlink:href="#DejaVuSans-30"/>
     <use x="63.623047" xlink:href="#DejaVuSans-2e"/>
     <use x="95.410156" xlink:href="#DejaVuSans-39"/>
     <use x="159.033203" xlink:href="#DejaVuSans-38"/>
    </g>
   </g>
   <g id="text_25">
    <!-- EV Certificates with or without SCTs -->
    <defs>
     <path d="M 9.8125 72.90625 
L 55.90625 72.90625 
L 55.90625 64.59375 
L 19.671875 64.59375 
L 19.671875 43.015625 
L 54.390625 43.015625 
L 54.390625 34.71875 
L 19.671875 34.71875 
L 19.671875 8.296875 
L 56.78125 8.296875 
L 56.78125 0 
L 9.8125 0 
z
" id="DejaVuSans-45"/>
     <path d="M 28.609375 0 
L 0.78125 72.90625 
L 11.078125 72.90625 
L 34.1875 11.53125 
L 57.328125 72.90625 
L 67.578125 72.90625 
L 39.796875 0 
z
" id="DejaVuSans-56"/>
     <path d="M 64.40625 67.28125 
L 64.40625 56.890625 
Q 59.421875 61.53125 53.78125 63.8125 
Q 48.140625 66.109375 41.796875 66.109375 
Q 29.296875 66.109375 22.65625 58.46875 
Q 16.015625 50.828125 16.015625 36.375 
Q 16.015625 21.96875 22.65625 14.328125 
Q 29.296875 6.6875 41.796875 6.6875 
Q 48.140625 6.6875 53.78125 8.984375 
Q 59.421875 11.28125 64.40625 15.921875 
L 64.40625 5.609375 
Q 59.234375 2.09375 53.4375 0.328125 
Q 47.65625 -1.421875 41.21875 -1.421875 
Q 24.65625 -1.421875 15.125 8.703125 
Q 5.609375 18.84375 5.609375 36.375 
Q 5.609375 53.953125 15.125 64.078125 
Q 24.65625 74.21875 41.21875 74.21875 
Q 47.75 74.21875 53.53125 72.484375 
Q 59.328125 70.75 64.40625 67.28125 
z
" id="DejaVuSans-43"/>
     <path d="M 37.109375 75.984375 
L 37.109375 68.5 
L 28.515625 68.5 
Q 23.6875 68.5 21.796875 66.546875 
Q 19.921875 64.59375 19.921875 59.515625 
L 19.921875 54.6875 
L 34.71875 54.6875 
L 34.71875 47.703125 
L 19.921875 47.703125 
L 19.921875 0 
L 10.890625 0 
L 10.890625 47.703125 
L 2.296875 47.703125 
L 2.296875 54.6875 
L 10.890625 54.6875 
L 10.890625 58.5 
Q 10.890625 67.625 15.140625 71.796875 
Q 19.390625 75.984375 28.609375 75.984375 
z
" id="DejaVuSans-66"/>
     <path d="M 53.515625 70.515625 
L 53.515625 60.890625 
Q 47.90625 63.578125 42.921875 64.890625 
Q 37.9375 66.21875 33.296875 66.21875 
Q 25.25 66.21875 20.875 63.09375 
Q 16.5 59.96875 16.5 54.203125 
Q 16.5 49.359375 19.40625 46.890625 
Q 22.3125 44.4375 30.421875 42.921875 
L 36.375 41.703125 
Q 47.40625 39.59375 52.65625 34.296875 
Q 57.90625 29 57.90625 20.125 
Q 57.90625 9.515625 50.796875 4.046875 
Q 43.703125 -1.421875 29.984375 -1.421875 
Q 24.8125 -1.421875 18.96875 -0.25 
Q 13.140625 0.921875 6.890625 3.21875 
L 6.890625 13.375 
Q 12.890625 10.015625 18.65625 8.296875 
Q 24.421875 6.59375 29.984375 6.59375 
Q 38.421875 6.59375 43.015625 9.90625 
Q 47.609375 13.234375 47.609375 19.390625 
Q 47.609375 24.75 44.3125 27.78125 
Q 41.015625 30.8125 33.5 32.328125 
L 27.484375 33.5 
Q 16.453125 35.6875 11.515625 40.375 
Q 6.59375 45.0625 6.59375 53.421875 
Q 6.59375 63.09375 13.40625 68.65625 
Q 20.21875 74.21875 32.171875 74.21875 
Q 37.3125 74.21875 42.625 73.28125 
Q 47.953125 72.359375 53.515625 70.515625 
z
" id="DejaVuSans-53"/>
     <path d="M -0.296875 72.90625 
L 61.375 72.90625 
L 61.375 64.59375 
L 35.5 64.59375 
L 35.5 0 
L 25.59375 0 
L 25.59375 64.59375 
L -0.296875 64.59375 
z
" id="DejaVuSans-54"/>
    </defs>
    <g transform="translate(128.243437 35.472)scale(0.12 -0.12)">
     <use xlink:href="#DejaVuSans-45"/>
     <use x="63.183594" xlink:href="#DejaVuSans-56"/>
     <use x="131.591797" xlink:href="#DejaVuSans-20"/>
     <use x="163.378906" xlink:href="#DejaVuSans-43"/>
     <use x="233.203125" xlink:href="#DejaVuSans-65"/>
     <use x="294.726562" xlink:href="#DejaVuSans-72"/>
     <use x="335.839844" xlink:href="#DejaVuSans-74"/>
     <use x="375.048828" xlink:href="#DejaVuSans-69"/>
     <use x="402.832031" xlink:href="#DejaVuSans-66"/>
     <use x="438.037109" xlink:href="#DejaVuSans-69"/>
     <use x="465.820312" xlink:href="#DejaVuSans-63"/>
     <use x="520.800781" xlink:href="#DejaVuSans-61"/>
     <use x="582.080078" xlink:href="#DejaVuSans-74"/>
     <use x="621.289062" xlink:href="#DejaVuSans-65"/>
     <use x="682.8125" xlink:href="#DejaVuSans-73"/>
     <use x="734.912109" xlink:href="#DejaVuSans-20"/>
     <use x="766.699219" xlink:href="#DejaVuSans-77"/>
     <use x="848.486328" xlink:href="#DejaVuSans-69"/>
     <use x="876.269531" xlink:href="#DejaVuSans-74"/>
     <use x="915.478516" xlink:href="#DejaVuSans-68"/>
     <use x="978.857422" xlink:href="#DejaVuSans-20"/>
     <use x="1010.644531" xlink:href="#DejaVuSans-6f"/>
     <use x="1071.826172" xlink:href="#DejaVuSans-72"/>
     <use x="1112.939453" xlink:href="#DejaVuSans-20"/>
     <use x="1144.726562" xlink:href="#DejaVuSans-77"/>
     <use x="1226.513672" xlink:href="#DejaVuSans-69"/>
     <use x="1254.296875" xlink:href="#DejaVuSans-74"/>
     <use x="1293.505859" xlink:href="#DejaVuSans-68"/>
     <use x="1356.884766" xlink:href="#DejaVuSans-6f"/>
     <use x="1418.066406" xlink:href="#DejaVuSans-75"/>
     <use x="1481.445312" xlink:href="#DejaVuSans-74"/>
     <use x="1520.654297" xlink:href="#DejaVuSans-20"/>
     <use x="1552.441406" xlink:href="#DejaVuSans-53"/>
     <use x="1615.917969" xlink:href="#DejaVuSans-43"/>
     <use x="1685.742188" xlink:href="#DejaVuSans-54"/>
     <use x="1746.576172" xlink:href="#DejaVuSans-73"/>
    </g>
   </g>
  </g>
 </g>
 <defs>
  <clipPath id="pc53a23a401">
   <rect height="266.112" width="357.12" x="57.6" y="41.472"/>
  </clipPath>
 </defs>
</svg>
