<?xml version="1.0" encoding="utf-8" standalone="no"?>
<!DOCTYPE svg PUBLIC "-//W3C//DTD SVG 1.1//EN"
  "http://www.w3.org/Graphics/SVG/1.1/DTD/svg11.dtd">
<!-- Created with matplotlib (http://matplotlib.org/) -->
<svg height="345pt" version="1.1" viewBox="0 0 460 345" width="460pt" xmlns="http://www.w3.org/2000/svg" xmlns:xlink="http://www.w3.org/1999/xlink">
 <defs>
  <style type="text/css">
*{stroke-linecap:butt;stroke-linejoin:round;}
  </style>
 </defs>
 <g id="figure_1">
  <g id="patch_1">
   <path d="M 0 345.6 
L 460.8 345.6 
L 460.8 0 
L 0 0 
z
" style="fill:#ffffff;"/>
  </g>
  <g id="axes_1">
   <g id="patch_2">
    <path d="M 57.6 307.584 
L 414.72 307.584 
L 414.72 41.472 
L 57.6 41.472 
z
" style="fill:#ffffff;"/>
   </g>
   <g id="PolyCollection_1">
    <path clip-path="url(#p5108c16f02)" d="M 73.832727 150.314205 
L 73.832727 307.584 
L 77.112066 307.584 
L 80.391405 307.584 
L 83.670744 307.584 
L 86.950083 307.584 
L 90.229421 307.584 
L 93.50876 307.584 
L 96.788099 307.584 
L 100.067438 307.584 
L 103.346777 307.584 
L 106.626116 307.584 
L 109.905455 307.584 
L 113.184793 307.584 
L 116.464132 307.584 
L 119.743471 307.584 
L 123.02281 307.584 
L 126.302149 307.584 
L 129.581488 307.584 
L 132.860826 307.584 
L 136.140165 307.584 
L 139.419504 307.584 
L 142.698843 307.584 
L 145.978182 307.584 
L 149.257521 307.584 
L 152.53686 307.584 
L 155.816198 307.584 
L 159.095537 307.584 
L 162.374876 307.584 
L 165.654215 307.584 
L 168.933554 307.584 
L 172.212893 307.584 
L 175.492231 307.584 
L 178.77157 307.584 
L 182.050909 307.584 
L 185.330248 307.584 
L 188.609587 307.584 
L 191.888926 307.584 
L 195.168264 307.584 
L 198.447603 307.584 
L 201.726942 307.584 
L 205.006281 307.584 
L 208.28562 307.584 
L 211.564959 307.584 
L 214.844298 307.584 
L 218.123636 307.584 
L 221.402975 307.584 
L 224.682314 307.584 
L 227.961653 307.584 
L 231.240992 307.584 
L 234.520331 307.584 
L 237.799669 307.584 
L 241.079008 307.584 
L 244.358347 307.584 
L 247.637686 307.584 
L 250.917025 307.584 
L 254.196364 307.584 
L 257.475702 307.584 
L 260.755041 307.584 
L 264.03438 307.584 
L 267.313719 307.584 
L 270.593058 307.584 
L 273.872397 307.584 
L 277.151736 307.584 
L 280.431074 307.584 
L 283.710413 307.584 
L 286.989752 307.584 
L 290.269091 307.584 
L 293.54843 307.584 
L 296.827769 307.584 
L 300.107107 307.584 
L 303.386446 307.584 
L 306.665785 307.584 
L 309.945124 307.584 
L 313.224463 307.584 
L 316.503802 307.584 
L 319.78314 307.584 
L 323.062479 307.584 
L 326.341818 307.584 
L 329.621157 307.584 
L 332.900496 307.584 
L 336.179835 307.584 
L 339.459174 307.584 
L 342.738512 307.584 
L 346.017851 307.584 
L 349.29719 307.584 
L 352.576529 307.584 
L 355.855868 307.584 
L 359.135207 307.584 
L 362.414545 307.584 
L 365.693884 307.584 
L 368.973223 307.584 
L 372.252562 307.584 
L 375.531901 307.584 
L 378.81124 307.584 
L 382.090579 307.584 
L 385.369917 307.584 
L 388.649256 307.584 
L 391.928595 307.584 
L 395.207934 307.584 
L 398.487273 307.584 
L 398.487273 154.091429 
L 398.487273 154.091429 
L 395.207934 154.307343 
L 391.928595 153.906043 
L 388.649256 154.54471 
L 385.369917 153.985592 
L 382.090579 155.063028 
L 378.81124 153.686189 
L 375.531901 153.929641 
L 372.252562 152.94219 
L 368.973223 153.842444 
L 365.693884 154.074774 
L 362.414545 153.43138 
L 359.135207 154.045651 
L 355.855868 154.216335 
L 352.576529 154.083241 
L 349.29719 153.76895 
L 346.017851 154.453904 
L 342.738512 154.311087 
L 339.459174 153.151502 
L 336.179835 153.332899 
L 332.900496 153.491453 
L 329.621157 152.285471 
L 326.341818 152.717147 
L 323.062479 153.192247 
L 319.78314 153.006456 
L 316.503802 153.083833 
L 313.224463 153.985598 
L 309.945124 153.642667 
L 306.665785 153.418341 
L 303.386446 153.350896 
L 300.107107 153.033041 
L 296.827769 154.595599 
L 293.54843 153.384151 
L 290.269091 153.359478 
L 286.989752 152.936872 
L 283.710413 153.385937 
L 280.431074 152.805661 
L 277.151736 154.405123 
L 273.872397 153.435874 
L 270.593058 152.033109 
L 267.313719 152.453189 
L 264.03438 153.634254 
L 260.755041 153.66638 
L 257.475702 152.494606 
L 254.196364 152.638512 
L 250.917025 153.080757 
L 247.637686 152.859056 
L 244.358347 152.752873 
L 241.079008 153.522709 
L 237.799669 152.199758 
L 234.520331 153.338807 
L 231.240992 152.210915 
L 227.961653 153.641107 
L 224.682314 152.488969 
L 221.402975 153.265591 
L 218.123636 152.73684 
L 214.844298 152.561378 
L 211.564959 152.930819 
L 208.28562 152.254744 
L 205.006281 152.64405 
L 201.726942 153.211091 
L 198.447603 152.487817 
L 195.168264 152.880331 
L 191.888926 152.411943 
L 188.609587 152.217782 
L 185.330248 151.578655 
L 182.050909 151.810995 
L 178.77157 152.757569 
L 175.492231 152.920869 
L 172.212893 152.002552 
L 168.933554 151.722481 
L 165.654215 151.891828 
L 162.374876 153.02481 
L 159.095537 153.209635 
L 155.816198 152.90278 
L 152.53686 151.57188 
L 149.257521 152.453294 
L 145.978182 152.283762 
L 142.698843 150.531097 
L 139.419504 151.245733 
L 136.140165 151.189211 
L 132.860826 151.153471 
L 129.581488 152.473689 
L 126.302149 151.038624 
L 123.02281 150.654428 
L 119.743471 151.532544 
L 116.464132 151.881143 
L 113.184793 149.624897 
L 109.905455 151.701906 
L 106.626116 150.908809 
L 103.346777 151.235503 
L 100.067438 151.231526 
L 96.788099 151.121964 
L 93.50876 151.597892 
L 90.229421 150.027382 
L 86.950083 150.523439 
L 83.670744 150.174 
L 80.391405 149.570341 
L 77.112066 149.360011 
L 73.832727 150.314205 
z
" style="fill:#4086f4;"/>
   </g>
   <g id="PolyCollection_2">
    <path clip-path="url(#p5108c16f02)" d="M 73.832727 91.889273 
L 73.832727 150.314205 
L 77.112066 149.360011 
L 80.391405 149.570341 
L 83.670744 150.174 
L 86.950083 150.523439 
L 90.229421 150.027382 
L 93.50876 151.597892 
L 96.788099 151.121964 
L 100.067438 151.231526 
L 103.346777 151.235503 
L 106.626116 150.908809 
L 109.905455 151.701906 
L 113.184793 149.624897 
L 116.464132 151.881143 
L 119.743471 151.532544 
L 123.02281 150.654428 
L 126.302149 151.038624 
L 129.581488 152.473689 
L 132.860826 151.153471 
L 136.140165 151.189211 
L 139.419504 151.245733 
L 142.698843 150.531097 
L 145.978182 152.283762 
L 149.257521 152.453294 
L 152.53686 151.57188 
L 155.816198 152.90278 
L 159.095537 153.209635 
L 162.374876 153.02481 
L 165.654215 151.891828 
L 168.933554 151.722481 
L 172.212893 152.002552 
L 175.492231 152.920869 
L 178.77157 152.757569 
L 182.050909 151.810995 
L 185.330248 151.578655 
L 188.609587 152.217782 
L 191.888926 152.411943 
L 195.168264 152.880331 
L 198.447603 152.487817 
L 201.726942 153.211091 
L 205.006281 152.64405 
L 208.28562 152.254744 
L 211.564959 152.930819 
L 214.844298 152.561378 
L 218.123636 152.73684 
L 221.402975 153.265591 
L 224.682314 152.488969 
L 227.961653 153.641107 
L 231.240992 152.210915 
L 234.520331 153.338807 
L 237.799669 152.199758 
L 241.079008 153.522709 
L 244.358347 152.752873 
L 247.637686 152.859056 
L 250.917025 153.080757 
L 254.196364 152.638512 
L 257.475702 152.494606 
L 260.755041 153.66638 
L 264.03438 153.634254 
L 267.313719 152.453189 
L 270.593058 152.033109 
L 273.872397 153.435874 
L 277.151736 154.405123 
L 280.431074 152.805661 
L 283.710413 153.385937 
L 286.989752 152.936872 
L 290.269091 153.359478 
L 293.54843 153.384151 
L 296.827769 154.595599 
L 300.107107 153.033041 
L 303.386446 153.350896 
L 306.665785 153.418341 
L 309.945124 153.642667 
L 313.224463 153.985598 
L 316.503802 153.083833 
L 319.78314 153.006456 
L 323.062479 153.192247 
L 326.341818 152.717147 
L 329.621157 152.285471 
L 332.900496 153.491453 
L 336.179835 153.332899 
L 339.459174 153.151502 
L 342.738512 154.311087 
L 346.017851 154.453904 
L 349.29719 153.76895 
L 352.576529 154.083241 
L 355.855868 154.216335 
L 359.135207 154.045651 
L 362.414545 153.43138 
L 365.693884 154.074774 
L 368.973223 153.842444 
L 372.252562 152.94219 
L 375.531901 153.929641 
L 378.81124 153.686189 
L 382.090579 155.063028 
L 385.369917 153.985592 
L 388.649256 154.54471 
L 391.928595 153.906043 
L 395.207934 154.307343 
L 398.487273 154.091429 
L 398.487273 87.442303 
L 398.487273 87.442303 
L 395.207934 86.605078 
L 391.928595 87.939611 
L 388.649256 85.949298 
L 385.369917 86.697614 
L 382.090579 86.157744 
L 378.81124 87.632121 
L 375.531901 86.888255 
L 372.252562 86.031672 
L 368.973223 85.062648 
L 365.693884 86.595882 
L 362.414545 86.330568 
L 359.135207 87.726385 
L 355.855868 86.495201 
L 352.576529 85.203341 
L 349.29719 84.896134 
L 346.017851 86.476849 
L 342.738512 85.743046 
L 339.459174 87.13761 
L 336.179835 86.89557 
L 332.900496 87.268377 
L 329.621157 86.386443 
L 326.341818 87.825569 
L 323.062479 86.764206 
L 319.78314 86.565468 
L 316.503802 85.735591 
L 313.224463 86.176622 
L 309.945124 86.509227 
L 306.665785 85.800898 
L 303.386446 86.60328 
L 300.107107 86.940038 
L 296.827769 86.318298 
L 293.54843 88.089696 
L 290.269091 86.577374 
L 286.989752 86.524798 
L 283.710413 86.04797 
L 280.431074 86.675408 
L 277.151736 85.879096 
L 273.872397 86.306437 
L 270.593058 86.608158 
L 267.313719 87.147243 
L 264.03438 85.520273 
L 260.755041 86.053121 
L 257.475702 87.155199 
L 254.196364 87.490679 
L 250.917025 87.944935 
L 247.637686 86.985792 
L 244.358347 86.16056 
L 241.079008 86.991335 
L 237.799669 87.424 
L 234.520331 85.352233 
L 231.240992 85.747045 
L 227.961653 87.248301 
L 224.682314 85.953473 
L 221.402975 86.589904 
L 218.123636 85.867102 
L 214.844298 87.034519 
L 211.564959 86.650884 
L 208.28562 87.204719 
L 205.006281 87.094462 
L 201.726942 87.234928 
L 198.447603 85.779781 
L 195.168264 86.597651 
L 191.888926 86.224688 
L 188.609587 88.002184 
L 185.330248 85.76468 
L 182.050909 87.176512 
L 178.77157 85.807712 
L 175.492231 88.115534 
L 172.212893 87.034763 
L 168.933554 87.582333 
L 165.654215 86.726609 
L 162.374876 86.747814 
L 159.095537 87.049193 
L 155.816198 87.647422 
L 152.53686 88.241397 
L 149.257521 86.824804 
L 145.978182 88.783003 
L 142.698843 88.634323 
L 139.419504 86.825413 
L 136.140165 88.331976 
L 132.860826 89.037025 
L 129.581488 87.075829 
L 126.302149 88.103702 
L 123.02281 88.656147 
L 119.743471 87.575552 
L 116.464132 87.744 
L 113.184793 88.65192 
L 109.905455 88.137199 
L 106.626116 88.651151 
L 103.346777 88.927699 
L 100.067438 90.087606 
L 96.788099 89.319779 
L 93.50876 89.451522 
L 90.229421 90.312969 
L 86.950083 90.444314 
L 83.670744 91.916308 
L 80.391405 94.060098 
L 77.112066 94.104621 
L 73.832727 91.889273 
z
" style="fill:#fcba2f;"/>
   </g>
   <g id="PolyCollection_3">
    <path clip-path="url(#p5108c16f02)" d="M 73.832727 79.5989 
L 73.832727 91.889273 
L 77.112066 94.104621 
L 80.391405 94.060098 
L 83.670744 91.916308 
L 86.950083 90.444314 
L 90.229421 90.312969 
L 93.50876 89.451522 
L 96.788099 89.319779 
L 100.067438 90.087606 
L 103.346777 88.927699 
L 106.626116 88.651151 
L 109.905455 88.137199 
L 113.184793 88.65192 
L 116.464132 87.744 
L 119.743471 87.575552 
L 123.02281 88.656147 
L 126.302149 88.103702 
L 129.581488 87.075829 
L 132.860826 89.037025 
L 136.140165 88.331976 
L 139.419504 86.825413 
L 142.698843 88.634323 
L 145.978182 88.783003 
L 149.257521 86.824804 
L 152.53686 88.241397 
L 155.816198 87.647422 
L 159.095537 87.049193 
L 162.374876 86.747814 
L 165.654215 86.726609 
L 168.933554 87.582333 
L 172.212893 87.034763 
L 175.492231 88.115534 
L 178.77157 85.807712 
L 182.050909 87.176512 
L 185.330248 85.76468 
L 188.609587 88.002184 
L 191.888926 86.224688 
L 195.168264 86.597651 
L 198.447603 85.779781 
L 201.726942 87.234928 
L 205.006281 87.094462 
L 208.28562 87.204719 
L 211.564959 86.650884 
L 214.844298 87.034519 
L 218.123636 85.867102 
L 221.402975 86.589904 
L 224.682314 85.953473 
L 227.961653 87.248301 
L 231.240992 85.747045 
L 234.520331 85.352233 
L 237.799669 87.424 
L 241.079008 86.991335 
L 244.358347 86.16056 
L 247.637686 86.985792 
L 250.917025 87.944935 
L 254.196364 87.490679 
L 257.475702 87.155199 
L 260.755041 86.053121 
L 264.03438 85.520273 
L 267.313719 87.147243 
L 270.593058 86.608158 
L 273.872397 86.306437 
L 277.151736 85.879096 
L 280.431074 86.675408 
L 283.710413 86.04797 
L 286.989752 86.524798 
L 290.269091 86.577374 
L 293.54843 88.089696 
L 296.827769 86.318298 
L 300.107107 86.940038 
L 303.386446 86.60328 
L 306.665785 85.800898 
L 309.945124 86.509227 
L 313.224463 86.176622 
L 316.503802 85.735591 
L 319.78314 86.565468 
L 323.062479 86.764206 
L 326.341818 87.825569 
L 329.621157 86.386443 
L 332.900496 87.268377 
L 336.179835 86.89557 
L 339.459174 87.13761 
L 342.738512 85.743046 
L 346.017851 86.476849 
L 349.29719 84.896134 
L 352.576529 85.203341 
L 355.855868 86.495201 
L 359.135207 87.726385 
L 362.414545 86.330568 
L 365.693884 86.595882 
L 368.973223 85.062648 
L 372.252562 86.031672 
L 375.531901 86.888255 
L 378.81124 87.632121 
L 382.090579 86.157744 
L 385.369917 86.697614 
L 388.649256 85.949298 
L 391.928595 87.939611 
L 395.207934 86.605078 
L 398.487273 87.442303 
L 398.487273 59.343577 
L 398.487273 59.343577 
L 395.207934 59.651263 
L 391.928595 59.532883 
L 388.649256 60.266655 
L 385.369917 59.924303 
L 382.090579 60.279754 
L 378.81124 60.309398 
L 375.531901 60.890977 
L 372.252562 59.101327 
L 368.973223 59.744456 
L 365.693884 60.056286 
L 362.414545 59.36555 
L 359.135207 60.908037 
L 355.855868 60.475325 
L 352.576529 58.87157 
L 349.29719 59.799565 
L 346.017851 60.982088 
L 342.738512 59.594903 
L 339.459174 60.838742 
L 336.179835 62.112083 
L 332.900496 61.025653 
L 329.621157 60.854748 
L 326.341818 61.085401 
L 323.062479 61.37534 
L 319.78314 61.159172 
L 316.503802 61.164353 
L 313.224463 60.89326 
L 309.945124 60.426809 
L 306.665785 61.219937 
L 303.386446 61.202605 
L 300.107107 61.510585 
L 296.827769 61.641921 
L 293.54843 62.358806 
L 290.269091 61.652198 
L 286.989752 62.867953 
L 283.710413 61.2308 
L 280.431074 61.692303 
L 277.151736 61.8185 
L 273.872397 61.991635 
L 270.593058 61.645782 
L 267.313719 63.095351 
L 264.03438 62.278589 
L 260.755041 62.405261 
L 257.475702 62.491659 
L 254.196364 63.49574 
L 250.917025 64.303044 
L 247.637686 62.191865 
L 244.358347 64.007553 
L 241.079008 62.753942 
L 237.799669 63.556525 
L 234.520331 62.603279 
L 231.240992 63.045182 
L 227.961653 63.933189 
L 224.682314 63.956691 
L 221.402975 63.528752 
L 218.123636 63.306262 
L 214.844298 63.396047 
L 211.564959 64.195811 
L 208.28562 64.092827 
L 205.006281 64.056744 
L 201.726942 64.402959 
L 198.447603 62.608845 
L 195.168264 64.115497 
L 191.888926 63.452785 
L 188.609587 65.064309 
L 185.330248 64.18469 
L 182.050909 65.614345 
L 178.77157 64.67251 
L 175.492231 66.274926 
L 172.212893 65.693829 
L 168.933554 65.426137 
L 165.654215 66.45749 
L 162.374876 66.334785 
L 159.095537 66.896013 
L 155.816198 66.879804 
L 152.53686 67.131236 
L 149.257521 67.002817 
L 145.978182 68.21992 
L 142.698843 68.636903 
L 139.419504 68.894227 
L 136.140165 67.777098 
L 132.860826 69.924273 
L 129.581488 67.582236 
L 126.302149 69.889376 
L 123.02281 71.491618 
L 119.743471 69.305344 
L 116.464132 70.212571 
L 113.184793 71.240697 
L 109.905455 71.339458 
L 106.626116 71.562104 
L 103.346777 72.782896 
L 100.067438 72.756863 
L 96.788099 72.710176 
L 93.50876 74.503031 
L 90.229421 75.592119 
L 86.950083 76.437891 
L 83.670744 76.609385 
L 80.391405 79.818146 
L 77.112066 80.638749 
L 73.832727 79.5989 
z
" style="fill:#1974bb;"/>
   </g>
   <g id="PolyCollection_4">
    <path clip-path="url(#p5108c16f02)" d="M 73.832727 54.287518 
L 73.832727 79.5989 
L 77.112066 80.638749 
L 80.391405 79.818146 
L 83.670744 76.609385 
L 86.950083 76.437891 
L 90.229421 75.592119 
L 93.50876 74.503031 
L 96.788099 72.710176 
L 100.067438 72.756863 
L 103.346777 72.782896 
L 106.626116 71.562104 
L 109.905455 71.339458 
L 113.184793 71.240697 
L 116.464132 70.212571 
L 119.743471 69.305344 
L 123.02281 71.491618 
L 126.302149 69.889376 
L 129.581488 67.582236 
L 132.860826 69.924273 
L 136.140165 67.777098 
L 139.419504 68.894227 
L 142.698843 68.636903 
L 145.978182 68.21992 
L 149.257521 67.002817 
L 152.53686 67.131236 
L 155.816198 66.879804 
L 159.095537 66.896013 
L 162.374876 66.334785 
L 165.654215 66.45749 
L 168.933554 65.426137 
L 172.212893 65.693829 
L 175.492231 66.274926 
L 178.77157 64.67251 
L 182.050909 65.614345 
L 185.330248 64.18469 
L 188.609587 65.064309 
L 191.888926 63.452785 
L 195.168264 64.115497 
L 198.447603 62.608845 
L 201.726942 64.402959 
L 205.006281 64.056744 
L 208.28562 64.092827 
L 211.564959 64.195811 
L 214.844298 63.396047 
L 218.123636 63.306262 
L 221.402975 63.528752 
L 224.682314 63.956691 
L 227.961653 63.933189 
L 231.240992 63.045182 
L 234.520331 62.603279 
L 237.799669 63.556525 
L 241.079008 62.753942 
L 244.358347 64.007553 
L 247.637686 62.191865 
L 250.917025 64.303044 
L 254.196364 63.49574 
L 257.475702 62.491659 
L 260.755041 62.405261 
L 264.03438 62.278589 
L 267.313719 63.095351 
L 270.593058 61.645782 
L 273.872397 61.991635 
L 277.151736 61.8185 
L 280.431074 61.692303 
L 283.710413 61.2308 
L 286.989752 62.867953 
L 290.269091 61.652198 
L 293.54843 62.358806 
L 296.827769 61.641921 
L 300.107107 61.510585 
L 303.386446 61.202605 
L 306.665785 61.219937 
L 309.945124 60.426809 
L 313.224463 60.89326 
L 316.503802 61.164353 
L 319.78314 61.159172 
L 323.062479 61.37534 
L 326.341818 61.085401 
L 329.621157 60.854748 
L 332.900496 61.025653 
L 336.179835 62.112083 
L 339.459174 60.838742 
L 342.738512 59.594903 
L 346.017851 60.982088 
L 349.29719 59.799565 
L 352.576529 58.87157 
L 355.855868 60.475325 
L 359.135207 60.908037 
L 362.414545 59.36555 
L 365.693884 60.056286 
L 368.973223 59.744456 
L 372.252562 59.101327 
L 375.531901 60.890977 
L 378.81124 60.309398 
L 382.090579 60.279754 
L 385.369917 59.924303 
L 388.649256 60.266655 
L 391.928595 59.532883 
L 395.207934 59.651263 
L 398.487273 59.343577 
L 398.487273 54.537907 
L 398.487273 54.537907 
L 395.207934 54.62059 
L 391.928595 54.550197 
L 388.649256 54.658737 
L 385.369917 54.643208 
L 382.090579 54.606107 
L 378.81124 54.776348 
L 375.531901 54.625927 
L 372.252562 54.465556 
L 368.973223 54.582745 
L 365.693884 54.590706 
L 362.414545 54.741491 
L 359.135207 54.593174 
L 355.855868 54.731718 
L 352.576529 54.434521 
L 349.29719 54.470283 
L 346.017851 54.97857 
L 342.738512 54.440831 
L 339.459174 54.650773 
L 336.179835 55.297998 
L 332.900496 54.657556 
L 329.621157 54.812504 
L 326.341818 54.64357 
L 323.062479 54.882969 
L 319.78314 54.685712 
L 316.503802 54.825079 
L 313.224463 54.855836 
L 309.945124 54.469404 
L 306.665785 54.61925 
L 303.386446 54.633465 
L 300.107107 54.585995 
L 296.827769 54.529167 
L 293.54843 54.832984 
L 290.269091 54.6803 
L 286.989752 54.589367 
L 283.710413 54.732338 
L 280.431074 54.779379 
L 277.151736 54.63662 
L 273.872397 54.658599 
L 270.593058 54.666772 
L 267.313719 54.766703 
L 264.03438 55.041974 
L 260.755041 54.608696 
L 257.475702 54.548735 
L 254.196364 54.589321 
L 250.917025 54.733707 
L 247.637686 54.414972 
L 244.358347 54.677165 
L 241.079008 54.548856 
L 237.799669 54.557737 
L 234.520331 54.5084 
L 231.240992 54.503126 
L 227.961653 54.749246 
L 224.682314 54.416575 
L 221.402975 54.505946 
L 218.123636 54.636595 
L 214.844298 54.728607 
L 211.564959 54.531602 
L 208.28562 54.756236 
L 205.006281 54.846676 
L 201.726942 54.60681 
L 198.447603 54.42195 
L 195.168264 54.725891 
L 191.888926 54.708169 
L 188.609587 54.457502 
L 185.330248 54.718467 
L 182.050909 54.716217 
L 178.77157 54.456728 
L 175.492231 54.736958 
L 172.212893 54.616493 
L 168.933554 54.528073 
L 165.654215 54.752074 
L 162.374876 54.666802 
L 159.095537 54.594071 
L 155.816198 54.54434 
L 152.53686 54.687103 
L 149.257521 54.507929 
L 145.978182 54.486718 
L 142.698843 54.376258 
L 139.419504 54.544565 
L 136.140165 54.541535 
L 132.860826 54.266518 
L 129.581488 54.376898 
L 126.302149 54.796175 
L 123.02281 54.761923 
L 119.743471 54.436864 
L 116.464132 54.326857 
L 113.184793 54.346195 
L 109.905455 54.565113 
L 106.626116 54.692429 
L 103.346777 54.567105 
L 100.067438 54.409266 
L 96.788099 54.441739 
L 93.50876 54.33647 
L 90.229421 54.579294 
L 86.950083 54.485131 
L 83.670744 54.353423 
L 80.391405 54.284488 
L 77.112066 54.289664 
L 73.832727 54.287518 
z
" style="fill:#2ea039;"/>
   </g>
   <g id="PolyCollection_5">
    <path clip-path="url(#p5108c16f02)" d="M 73.832727 54.144 
L 73.832727 54.287518 
L 77.112066 54.289664 
L 80.391405 54.284488 
L 83.670744 54.353423 
L 86.950083 54.485131 
L 90.229421 54.579294 
L 93.50876 54.33647 
L 96.788099 54.441739 
L 100.067438 54.409266 
L 103.346777 54.567105 
L 106.626116 54.692429 
L 109.905455 54.565113 
L 113.184793 54.346195 
L 116.464132 54.326857 
L 119.743471 54.436864 
L 123.02281 54.761923 
L 126.302149 54.796175 
L 129.581488 54.376898 
L 132.860826 54.266518 
L 136.140165 54.541535 
L 139.419504 54.544565 
L 142.698843 54.376258 
L 145.978182 54.486718 
L 149.257521 54.507929 
L 152.53686 54.687103 
L 155.816198 54.54434 
L 159.095537 54.594071 
L 162.374876 54.666802 
L 165.654215 54.752074 
L 168.933554 54.528073 
L 172.212893 54.616493 
L 175.492231 54.736958 
L 178.77157 54.456728 
L 182.050909 54.716217 
L 185.330248 54.718467 
L 188.609587 54.457502 
L 191.888926 54.708169 
L 195.168264 54.725891 
L 198.447603 54.42195 
L 201.726942 54.60681 
L 205.006281 54.846676 
L 208.28562 54.756236 
L 211.564959 54.531602 
L 214.844298 54.728607 
L 218.123636 54.636595 
L 221.402975 54.505946 
L 224.682314 54.416575 
L 227.961653 54.749246 
L 231.240992 54.503126 
L 234.520331 54.5084 
L 237.799669 54.557737 
L 241.079008 54.548856 
L 244.358347 54.677165 
L 247.637686 54.414972 
L 250.917025 54.733707 
L 254.196364 54.589321 
L 257.475702 54.548735 
L 260.755041 54.608696 
L 264.03438 55.041974 
L 267.313719 54.766703 
L 270.593058 54.666772 
L 273.872397 54.658599 
L 277.151736 54.63662 
L 280.431074 54.779379 
L 283.710413 54.732338 
L 286.989752 54.589367 
L 290.269091 54.6803 
L 293.54843 54.832984 
L 296.827769 54.529167 
L 300.107107 54.585995 
L 303.386446 54.633465 
L 306.665785 54.61925 
L 309.945124 54.469404 
L 313.224463 54.855836 
L 316.503802 54.825079 
L 319.78314 54.685712 
L 323.062479 54.882969 
L 326.341818 54.64357 
L 329.621157 54.812504 
L 332.900496 54.657556 
L 336.179835 55.297998 
L 339.459174 54.650773 
L 342.738512 54.440831 
L 346.017851 54.97857 
L 349.29719 54.470283 
L 352.576529 54.434521 
L 355.855868 54.731718 
L 359.135207 54.593174 
L 362.414545 54.741491 
L 365.693884 54.590706 
L 368.973223 54.582745 
L 372.252562 54.465556 
L 375.531901 54.625927 
L 378.81124 54.776348 
L 382.090579 54.606107 
L 385.369917 54.643208 
L 388.649256 54.658737 
L 391.928595 54.550197 
L 395.207934 54.62059 
L 398.487273 54.537907 
L 398.487273 54.144 
L 398.487273 54.144 
L 395.207934 54.144 
L 391.928595 54.144 
L 388.649256 54.144 
L 385.369917 54.144 
L 382.090579 54.144 
L 378.81124 54.144 
L 375.531901 54.144 
L 372.252562 54.144 
L 368.973223 54.144 
L 365.693884 54.144 
L 362.414545 54.144 
L 359.135207 54.144 
L 355.855868 54.144 
L 352.576529 54.144 
L 349.29719 54.144 
L 346.017851 54.144 
L 342.738512 54.144 
L 339.459174 54.144 
L 336.179835 54.198952 
L 332.900496 54.144 
L 329.621157 54.144 
L 326.341818 54.144 
L 323.062479 54.144 
L 319.78314 54.144 
L 316.503802 54.144 
L 313.224463 54.144 
L 309.945124 54.144 
L 306.665785 54.144 
L 303.386446 54.144 
L 300.107107 54.144 
L 296.827769 54.144 
L 293.54843 54.144 
L 290.269091 54.144 
L 286.989752 54.144 
L 283.710413 54.144 
L 280.431074 54.144 
L 277.151736 54.144 
L 273.872397 54.144 
L 270.593058 54.144 
L 267.313719 54.144 
L 264.03438 54.196822 
L 260.755041 54.144 
L 257.475702 54.194592 
L 254.196364 54.144 
L 250.917025 54.144 
L 247.637686 54.144 
L 244.358347 54.144 
L 241.079008 54.144 
L 237.799669 54.144 
L 234.520331 54.144 
L 231.240992 54.144 
L 227.961653 54.144 
L 224.682314 54.144 
L 221.402975 54.195707 
L 218.123636 54.144 
L 214.844298 54.144 
L 211.564959 54.144 
L 208.28562 54.144 
L 205.006281 54.144 
L 201.726942 54.144 
L 198.447603 54.144 
L 195.168264 54.249798 
L 191.888926 54.144 
L 188.609587 54.144 
L 185.330248 54.193954 
L 182.050909 54.144 
L 178.77157 54.144 
L 175.492231 54.144 
L 172.212893 54.144 
L 168.933554 54.144 
L 165.654215 54.144 
L 162.374876 54.144 
L 159.095537 54.144 
L 155.816198 54.244085 
L 152.53686 54.144 
L 149.257521 54.144 
L 145.978182 54.144 
L 142.698843 54.144 
L 139.419504 54.191125 
L 136.140165 54.144 
L 132.860826 54.144 
L 129.581488 54.144 
L 126.302149 54.237168 
L 123.02281 54.166886 
L 119.743471 54.189056 
L 116.464132 54.144 
L 113.184793 54.144 
L 109.905455 54.144 
L 106.626116 54.187874 
L 103.346777 54.144 
L 100.067438 54.144 
L 96.788099 54.144 
L 93.50876 54.144 
L 90.229421 54.223144 
L 86.950083 54.184133 
L 83.670744 54.144 
L 80.391405 54.144 
L 77.112066 54.144 
L 73.832727 54.144 
z
" style="fill:#4086f4;"/>
   </g>
   <g id="PolyCollection_6">
    <path clip-path="url(#p5108c16f02)" d="M 73.832727 54.144 
L 73.832727 54.144 
L 77.112066 54.144 
L 80.391405 54.144 
L 83.670744 54.144 
L 86.950083 54.184133 
L 90.229421 54.223144 
L 93.50876 54.144 
L 96.788099 54.144 
L 100.067438 54.144 
L 103.346777 54.144 
L 106.626116 54.187874 
L 109.905455 54.144 
L 113.184793 54.144 
L 116.464132 54.144 
L 119.743471 54.189056 
L 123.02281 54.166886 
L 126.302149 54.237168 
L 129.581488 54.144 
L 132.860826 54.144 
L 136.140165 54.144 
L 139.419504 54.191125 
L 142.698843 54.144 
L 145.978182 54.144 
L 149.257521 54.144 
L 152.53686 54.144 
L 155.816198 54.244085 
L 159.095537 54.144 
L 162.374876 54.144 
L 165.654215 54.144 
L 168.933554 54.144 
L 172.212893 54.144 
L 175.492231 54.144 
L 178.77157 54.144 
L 182.050909 54.144 
L 185.330248 54.193954 
L 188.609587 54.144 
L 191.888926 54.144 
L 195.168264 54.249798 
L 198.447603 54.144 
L 201.726942 54.144 
L 205.006281 54.144 
L 208.28562 54.144 
L 211.564959 54.144 
L 214.844298 54.144 
L 218.123636 54.144 
L 221.402975 54.195707 
L 224.682314 54.144 
L 227.961653 54.144 
L 231.240992 54.144 
L 234.520331 54.144 
L 237.799669 54.144 
L 241.079008 54.144 
L 244.358347 54.144 
L 247.637686 54.144 
L 250.917025 54.144 
L 254.196364 54.144 
L 257.475702 54.194592 
L 260.755041 54.144 
L 264.03438 54.196822 
L 267.313719 54.144 
L 270.593058 54.144 
L 273.872397 54.144 
L 277.151736 54.144 
L 280.431074 54.144 
L 283.710413 54.144 
L 286.989752 54.144 
L 290.269091 54.144 
L 293.54843 54.144 
L 296.827769 54.144 
L 300.107107 54.144 
L 303.386446 54.144 
L 306.665785 54.144 
L 309.945124 54.144 
L 313.224463 54.144 
L 316.503802 54.144 
L 319.78314 54.144 
L 323.062479 54.144 
L 326.341818 54.144 
L 329.621157 54.144 
L 332.900496 54.144 
L 336.179835 54.198952 
L 339.459174 54.144 
L 342.738512 54.144 
L 346.017851 54.144 
L 349.29719 54.144 
L 352.576529 54.144 
L 355.855868 54.144 
L 359.135207 54.144 
L 362.414545 54.144 
L 365.693884 54.144 
L 368.973223 54.144 
L 372.252562 54.144 
L 375.531901 54.144 
L 378.81124 54.144 
L 382.090579 54.144 
L 385.369917 54.144 
L 388.649256 54.144 
L 391.928595 54.144 
L 395.207934 54.144 
L 398.487273 54.144 
L 398.487273 54.144 
L 398.487273 54.144 
L 395.207934 54.144 
L 391.928595 54.144 
L 388.649256 54.144 
L 385.369917 54.144 
L 382.090579 54.144 
L 378.81124 54.144 
L 375.531901 54.144 
L 372.252562 54.144 
L 368.973223 54.144 
L 365.693884 54.144 
L 362.414545 54.144 
L 359.135207 54.144 
L 355.855868 54.144 
L 352.576529 54.144 
L 349.29719 54.144 
L 346.017851 54.144 
L 342.738512 54.144 
L 339.459174 54.144 
L 336.179835 54.144 
L 332.900496 54.144 
L 329.621157 54.144 
L 326.341818 54.144 
L 323.062479 54.144 
L 319.78314 54.144 
L 316.503802 54.144 
L 313.224463 54.144 
L 309.945124 54.144 
L 306.665785 54.144 
L 303.386446 54.144 
L 300.107107 54.144 
L 296.827769 54.144 
L 293.54843 54.144 
L 290.269091 54.144 
L 286.989752 54.144 
L 283.710413 54.144 
L 280.431074 54.144 
L 277.151736 54.144 
L 273.872397 54.144 
L 270.593058 54.144 
L 267.313719 54.144 
L 264.03438 54.196822 
L 260.755041 54.144 
L 257.475702 54.144 
L 254.196364 54.144 
L 250.917025 54.144 
L 247.637686 54.144 
L 244.358347 54.144 
L 241.079008 54.144 
L 237.799669 54.144 
L 234.520331 54.144 
L 231.240992 54.144 
L 227.961653 54.144 
L 224.682314 54.144 
L 221.402975 54.144 
L 218.123636 54.144 
L 214.844298 54.144 
L 211.564959 54.144 
L 208.28562 54.144 
L 205.006281 54.144 
L 201.726942 54.144 
L 198.447603 54.144 
L 195.168264 54.196899 
L 191.888926 54.144 
L 188.609587 54.144 
L 185.330248 54.193954 
L 182.050909 54.144 
L 178.77157 54.144 
L 175.492231 54.144 
L 172.212893 54.144 
L 168.933554 54.144 
L 165.654215 54.144 
L 162.374876 54.144 
L 159.095537 54.144 
L 155.816198 54.194042 
L 152.53686 54.144 
L 149.257521 54.144 
L 145.978182 54.144 
L 142.698843 54.144 
L 139.419504 54.144 
L 136.140165 54.144 
L 132.860826 54.144 
L 129.581488 54.144 
L 126.302149 54.190584 
L 123.02281 54.144 
L 119.743471 54.144 
L 116.464132 54.144 
L 113.184793 54.144 
L 109.905455 54.144 
L 106.626116 54.144 
L 103.346777 54.144 
L 100.067438 54.144 
L 96.788099 54.144 
L 93.50876 54.144 
L 90.229421 54.144 
L 86.950083 54.144 
L 83.670744 54.144 
L 80.391405 54.144 
L 77.112066 54.144 
L 73.832727 54.144 
z
" style="fill:#fcba2f;"/>
   </g>
   <g id="PolyCollection_7">
    <path clip-path="url(#p5108c16f02)" d="M 73.832727 54.144 
L 73.832727 54.144 
L 77.112066 54.144 
L 80.391405 54.144 
L 83.670744 54.144 
L 86.950083 54.144 
L 90.229421 54.144 
L 93.50876 54.144 
L 96.788099 54.144 
L 100.067438 54.144 
L 103.346777 54.144 
L 106.626116 54.144 
L 109.905455 54.144 
L 113.184793 54.144 
L 116.464132 54.144 
L 119.743471 54.144 
L 123.02281 54.144 
L 126.302149 54.190584 
L 129.581488 54.144 
L 132.860826 54.144 
L 136.140165 54.144 
L 139.419504 54.144 
L 142.698843 54.144 
L 145.978182 54.144 
L 149.257521 54.144 
L 152.53686 54.144 
L 155.816198 54.194042 
L 159.095537 54.144 
L 162.374876 54.144 
L 165.654215 54.144 
L 168.933554 54.144 
L 172.212893 54.144 
L 175.492231 54.144 
L 178.77157 54.144 
L 182.050909 54.144 
L 185.330248 54.193954 
L 188.609587 54.144 
L 191.888926 54.144 
L 195.168264 54.196899 
L 198.447603 54.144 
L 201.726942 54.144 
L 205.006281 54.144 
L 208.28562 54.144 
L 211.564959 54.144 
L 214.844298 54.144 
L 218.123636 54.144 
L 221.402975 54.144 
L 224.682314 54.144 
L 227.961653 54.144 
L 231.240992 54.144 
L 234.520331 54.144 
L 237.799669 54.144 
L 241.079008 54.144 
L 244.358347 54.144 
L 247.637686 54.144 
L 250.917025 54.144 
L 254.196364 54.144 
L 257.475702 54.144 
L 260.755041 54.144 
L 264.03438 54.196822 
L 267.313719 54.144 
L 270.593058 54.144 
L 273.872397 54.144 
L 277.151736 54.144 
L 280.431074 54.144 
L 283.710413 54.144 
L 286.989752 54.144 
L 290.269091 54.144 
L 293.54843 54.144 
L 296.827769 54.144 
L 300.107107 54.144 
L 303.386446 54.144 
L 306.665785 54.144 
L 309.945124 54.144 
L 313.224463 54.144 
L 316.503802 54.144 
L 319.78314 54.144 
L 323.062479 54.144 
L 326.341818 54.144 
L 329.621157 54.144 
L 332.900496 54.144 
L 336.179835 54.144 
L 339.459174 54.144 
L 342.738512 54.144 
L 346.017851 54.144 
L 349.29719 54.144 
L 352.576529 54.144 
L 355.855868 54.144 
L 359.135207 54.144 
L 362.414545 54.144 
L 365.693884 54.144 
L 368.973223 54.144 
L 372.252562 54.144 
L 375.531901 54.144 
L 378.81124 54.144 
L 382.090579 54.144 
L 385.369917 54.144 
L 388.649256 54.144 
L 391.928595 54.144 
L 395.207934 54.144 
L 398.487273 54.144 
L 398.487273 54.144 
L 398.487273 54.144 
L 395.207934 54.144 
L 391.928595 54.144 
L 388.649256 54.144 
L 385.369917 54.144 
L 382.090579 54.144 
L 378.81124 54.144 
L 375.531901 54.144 
L 372.252562 54.144 
L 368.973223 54.144 
L 365.693884 54.144 
L 362.414545 54.144 
L 359.135207 54.144 
L 355.855868 54.144 
L 352.576529 54.144 
L 349.29719 54.144 
L 346.017851 54.144 
L 342.738512 54.144 
L 339.459174 54.144 
L 336.179835 54.144 
L 332.900496 54.144 
L 329.621157 54.144 
L 326.341818 54.144 
L 323.062479 54.144 
L 319.78314 54.144 
L 316.503802 54.144 
L 313.224463 54.144 
L 309.945124 54.144 
L 306.665785 54.144 
L 303.386446 54.144 
L 300.107107 54.144 
L 296.827769 54.144 
L 293.54843 54.144 
L 290.269091 54.144 
L 286.989752 54.144 
L 283.710413 54.144 
L 280.431074 54.144 
L 277.151736 54.144 
L 273.872397 54.144 
L 270.593058 54.144 
L 267.313719 54.144 
L 264.03438 54.144 
L 260.755041 54.144 
L 257.475702 54.144 
L 254.196364 54.144 
L 250.917025 54.144 
L 247.637686 54.144 
L 244.358347 54.144 
L 241.079008 54.144 
L 237.799669 54.144 
L 234.520331 54.144 
L 231.240992 54.144 
L 227.961653 54.144 
L 224.682314 54.144 
L 221.402975 54.144 
L 218.123636 54.144 
L 214.844298 54.144 
L 211.564959 54.144 
L 208.28562 54.144 
L 205.006281 54.144 
L 201.726942 54.144 
L 198.447603 54.144 
L 195.168264 54.144 
L 191.888926 54.144 
L 188.609587 54.144 
L 185.330248 54.144 
L 182.050909 54.144 
L 178.77157 54.144 
L 175.492231 54.144 
L 172.212893 54.144 
L 168.933554 54.144 
L 165.654215 54.144 
L 162.374876 54.144 
L 159.095537 54.144 
L 155.816198 54.144 
L 152.53686 54.144 
L 149.257521 54.144 
L 145.978182 54.144 
L 142.698843 54.144 
L 139.419504 54.144 
L 136.140165 54.144 
L 132.860826 54.144 
L 129.581488 54.144 
L 126.302149 54.144 
L 123.02281 54.144 
L 119.743471 54.144 
L 116.464132 54.144 
L 113.184793 54.144 
L 109.905455 54.144 
L 106.626116 54.144 
L 103.346777 54.144 
L 100.067438 54.144 
L 96.788099 54.144 
L 93.50876 54.144 
L 90.229421 54.144 
L 86.950083 54.144 
L 83.670744 54.144 
L 80.391405 54.144 
L 77.112066 54.144 
L 73.832727 54.144 
z
" style="fill:#1974bb;"/>
   </g>
   <g id="matplotlib.axis_1">
    <g id="xtick_1">
     <g id="line2d_1">
      <defs>
       <path d="M 0 0 
L 0 3.5 
" id="m2f3ce326ed" style="stroke:#000000;stroke-width:0.8;"/>
      </defs>
      <g>
       <use style="stroke:#000000;stroke-width:0.8;" x="70.553388" xlink:href="#m2f3ce326ed" y="307.584"/>
      </g>
     </g>
     <g id="text_1">
      <!-- 0 -->
      <defs>
       <path d="M 31.78125 66.40625 
Q 24.171875 66.40625 20.328125 58.90625 
Q 16.5 51.421875 16.5 36.375 
Q 16.5 21.390625 20.328125 13.890625 
Q 24.171875 6.390625 31.78125 6.390625 
Q 39.453125 6.390625 43.28125 13.890625 
Q 47.125 21.390625 47.125 36.375 
Q 47.125 51.421875 43.28125 58.90625 
Q 39.453125 66.40625 31.78125 66.40625 
z
M 31.78125 74.21875 
Q 44.046875 74.21875 50.515625 64.515625 
Q 56.984375 54.828125 56.984375 36.375 
Q 56.984375 17.96875 50.515625 8.265625 
Q 44.046875 -1.421875 31.78125 -1.421875 
Q 19.53125 -1.421875 13.0625 8.265625 
Q 6.59375 17.96875 6.59375 36.375 
Q 6.59375 54.828125 13.0625 64.515625 
Q 19.53125 74.21875 31.78125 74.21875 
z
" id="DejaVuSans-30"/>
      </defs>
      <g transform="translate(67.372138 322.182437)scale(0.1 -0.1)">
       <use xlink:href="#DejaVuSans-30"/>
      </g>
     </g>
    </g>
    <g id="xtick_2">
     <g id="line2d_2">
      <g>
       <use style="stroke:#000000;stroke-width:0.8;" x="136.140165" xlink:href="#m2f3ce326ed" y="307.584"/>
      </g>
     </g>
     <g id="text_2">
      <!-- 200000 -->
      <defs>
       <path d="M 19.1875 8.296875 
L 53.609375 8.296875 
L 53.609375 0 
L 7.328125 0 
L 7.328125 8.296875 
Q 12.9375 14.109375 22.625 23.890625 
Q 32.328125 33.6875 34.8125 36.53125 
Q 39.546875 41.84375 41.421875 45.53125 
Q 43.3125 49.21875 43.3125 52.78125 
Q 43.3125 58.59375 39.234375 62.25 
Q 35.15625 65.921875 28.609375 65.921875 
Q 23.96875 65.921875 18.8125 64.3125 
Q 13.671875 62.703125 7.8125 59.421875 
L 7.8125 69.390625 
Q 13.765625 71.78125 18.9375 73 
Q 24.125 74.21875 28.421875 74.21875 
Q 39.75 74.21875 46.484375 68.546875 
Q 53.21875 62.890625 53.21875 53.421875 
Q 53.21875 48.921875 51.53125 44.890625 
Q 49.859375 40.875 45.40625 35.40625 
Q 44.1875 33.984375 37.640625 27.21875 
Q 31.109375 20.453125 19.1875 8.296875 
z
" id="DejaVuSans-32"/>
      </defs>
      <g transform="translate(117.052665 322.182437)scale(0.1 -0.1)">
       <use xlink:href="#DejaVuSans-32"/>
       <use x="63.623047" xlink:href="#DejaVuSans-30"/>
       <use x="127.246094" xlink:href="#DejaVuSans-30"/>
       <use x="190.869141" xlink:href="#DejaVuSans-30"/>
       <use x="254.492188" xlink:href="#DejaVuSans-30"/>
       <use x="318.115234" xlink:href="#DejaVuSans-30"/>
      </g>
     </g>
    </g>
    <g id="xtick_3">
     <g id="line2d_3">
      <g>
       <use style="stroke:#000000;stroke-width:0.8;" x="201.726942" xlink:href="#m2f3ce326ed" y="307.584"/>
      </g>
     </g>
     <g id="text_3">
      <!-- 400000 -->
      <defs>
       <path d="M 37.796875 64.3125 
L 12.890625 25.390625 
L 37.796875 25.390625 
z
M 35.203125 72.90625 
L 47.609375 72.90625 
L 47.609375 25.390625 
L 58.015625 25.390625 
L 58.015625 17.1875 
L 47.609375 17.1875 
L 47.609375 0 
L 37.796875 0 
L 37.796875 17.1875 
L 4.890625 17.1875 
L 4.890625 26.703125 
z
" id="DejaVuSans-34"/>
      </defs>
      <g transform="translate(182.639442 322.182437)scale(0.1 -0.1)">
       <use xlink:href="#DejaVuSans-34"/>
       <use x="63.623047" xlink:href="#DejaVuSans-30"/>
       <use x="127.246094" xlink:href="#DejaVuSans-30"/>
       <use x="190.869141" xlink:href="#DejaVuSans-30"/>
       <use x="254.492188" xlink:href="#DejaVuSans-30"/>
       <use x="318.115234" xlink:href="#DejaVuSans-30"/>
      </g>
     </g>
    </g>
    <g id="xtick_4">
     <g id="line2d_4">
      <g>
       <use style="stroke:#000000;stroke-width:0.8;" x="267.313719" xlink:href="#m2f3ce326ed" y="307.584"/>
      </g>
     </g>
     <g id="text_4">
      <!-- 600000 -->
      <defs>
       <path d="M 33.015625 40.375 
Q 26.375 40.375 22.484375 35.828125 
Q 18.609375 31.296875 18.609375 23.390625 
Q 18.609375 15.53125 22.484375 10.953125 
Q 26.375 6.390625 33.015625 6.390625 
Q 39.65625 6.390625 43.53125 10.953125 
Q 47.40625 15.53125 47.40625 23.390625 
Q 47.40625 31.296875 43.53125 35.828125 
Q 39.65625 40.375 33.015625 40.375 
z
M 52.59375 71.296875 
L 52.59375 62.3125 
Q 48.875 64.0625 45.09375 64.984375 
Q 41.3125 65.921875 37.59375 65.921875 
Q 27.828125 65.921875 22.671875 59.328125 
Q 17.53125 52.734375 16.796875 39.40625 
Q 19.671875 43.65625 24.015625 45.921875 
Q 28.375 48.1875 33.59375 48.1875 
Q 44.578125 48.1875 50.953125 41.515625 
Q 57.328125 34.859375 57.328125 23.390625 
Q 57.328125 12.15625 50.6875 5.359375 
Q 44.046875 -1.421875 33.015625 -1.421875 
Q 20.359375 -1.421875 13.671875 8.265625 
Q 6.984375 17.96875 6.984375 36.375 
Q 6.984375 53.65625 15.1875 63.9375 
Q 23.390625 74.21875 37.203125 74.21875 
Q 40.921875 74.21875 44.703125 73.484375 
Q 48.484375 72.75 52.59375 71.296875 
z
" id="DejaVuSans-36"/>
      </defs>
      <g transform="translate(248.226219 322.182437)scale(0.1 -0.1)">
       <use xlink:href="#DejaVuSans-36"/>
       <use x="63.623047" xlink:href="#DejaVuSans-30"/>
       <use x="127.246094" xlink:href="#DejaVuSans-30"/>
       <use x="190.869141" xlink:href="#DejaVuSans-30"/>
       <use x="254.492188" xlink:href="#DejaVuSans-30"/>
       <use x="318.115234" xlink:href="#DejaVuSans-30"/>
      </g>
     </g>
    </g>
    <g id="xtick_5">
     <g id="line2d_5">
      <g>
       <use style="stroke:#000000;stroke-width:0.8;" x="332.900496" xlink:href="#m2f3ce326ed" y="307.584"/>
      </g>
     </g>
     <g id="text_5">
      <!-- 800000 -->
      <defs>
       <path d="M 31.78125 34.625 
Q 24.75 34.625 20.71875 30.859375 
Q 16.703125 27.09375 16.703125 20.515625 
Q 16.703125 13.921875 20.71875 10.15625 
Q 24.75 6.390625 31.78125 6.390625 
Q 38.8125 6.390625 42.859375 10.171875 
Q 46.921875 13.96875 46.921875 20.515625 
Q 46.921875 27.09375 42.890625 30.859375 
Q 38.875 34.625 31.78125 34.625 
z
M 21.921875 38.8125 
Q 15.578125 40.375 12.03125 44.71875 
Q 8.5 49.078125 8.5 55.328125 
Q 8.5 64.0625 14.71875 69.140625 
Q 20.953125 74.21875 31.78125 74.21875 
Q 42.671875 74.21875 48.875 69.140625 
Q 55.078125 64.0625 55.078125 55.328125 
Q 55.078125 49.078125 51.53125 44.71875 
Q 48 40.375 41.703125 38.8125 
Q 48.828125 37.15625 52.796875 32.3125 
Q 56.78125 27.484375 56.78125 20.515625 
Q 56.78125 9.90625 50.3125 4.234375 
Q 43.84375 -1.421875 31.78125 -1.421875 
Q 19.734375 -1.421875 13.25 4.234375 
Q 6.78125 9.90625 6.78125 20.515625 
Q 6.78125 27.484375 10.78125 32.3125 
Q 14.796875 37.15625 21.921875 38.8125 
z
M 18.3125 54.390625 
Q 18.3125 48.734375 21.84375 45.5625 
Q 25.390625 42.390625 31.78125 42.390625 
Q 38.140625 42.390625 41.71875 45.5625 
Q 45.3125 48.734375 45.3125 54.390625 
Q 45.3125 60.0625 41.71875 63.234375 
Q 38.140625 66.40625 31.78125 66.40625 
Q 25.390625 66.40625 21.84375 63.234375 
Q 18.3125 60.0625 18.3125 54.390625 
z
" id="DejaVuSans-38"/>
      </defs>
      <g transform="translate(313.812996 322.182437)scale(0.1 -0.1)">
       <use xlink:href="#DejaVuSans-38"/>
       <use x="63.623047" xlink:href="#DejaVuSans-30"/>
       <use x="127.246094" xlink:href="#DejaVuSans-30"/>
       <use x="190.869141" xlink:href="#DejaVuSans-30"/>
       <use x="254.492188" xlink:href="#DejaVuSans-30"/>
       <use x="318.115234" xlink:href="#DejaVuSans-30"/>
      </g>
     </g>
    </g>
    <g id="xtick_6">
     <g id="line2d_6">
      <g>
       <use style="stroke:#000000;stroke-width:0.8;" x="398.487273" xlink:href="#m2f3ce326ed" y="307.584"/>
      </g>
     </g>
     <g id="text_6">
      <!-- 1000000 -->
      <defs>
       <path d="M 12.40625 8.296875 
L 28.515625 8.296875 
L 28.515625 63.921875 
L 10.984375 60.40625 
L 10.984375 69.390625 
L 28.421875 72.90625 
L 38.28125 72.90625 
L 38.28125 8.296875 
L 54.390625 8.296875 
L 54.390625 0 
L 12.40625 0 
z
" id="DejaVuSans-31"/>
      </defs>
      <g transform="translate(376.218523 322.182437)scale(0.1 -0.1)">
       <use xlink:href="#DejaVuSans-31"/>
       <use x="63.623047" xlink:href="#DejaVuSans-30"/>
       <use x="127.246094" xlink:href="#DejaVuSans-30"/>
       <use x="190.869141" xlink:href="#DejaVuSans-30"/>
       <use x="254.492188" xlink:href="#DejaVuSans-30"/>
       <use x="318.115234" xlink:href="#DejaVuSans-30"/>
       <use x="381.738281" xlink:href="#DejaVuSans-30"/>
      </g>
     </g>
    </g>
   </g>
   <g id="matplotlib.axis_2">
    <g id="ytick_1">
     <g id="line2d_7">
      <defs>
       <path d="M 0 0 
L -3.5 0 
" id="m99cc4e5d1e" style="stroke:#000000;stroke-width:0.8;"/>
      </defs>
      <g>
       <use style="stroke:#000000;stroke-width:0.8;" x="57.6" xlink:href="#m99cc4e5d1e" y="307.584"/>
      </g>
     </g>
     <g id="text_7">
      <!-- 0.0 -->
      <defs>
       <path d="M 10.6875 12.40625 
L 21 12.40625 
L 21 0 
L 10.6875 0 
z
" id="DejaVuSans-2e"/>
      </defs>
      <g transform="translate(34.696875 311.383219)scale(0.1 -0.1)">
       <use xlink:href="#DejaVuSans-30"/>
       <use x="63.623047" xlink:href="#DejaVuSans-2e"/>
       <use x="95.410156" xlink:href="#DejaVuSans-30"/>
      </g>
     </g>
    </g>
    <g id="ytick_2">
     <g id="line2d_8">
      <g>
       <use style="stroke:#000000;stroke-width:0.8;" x="57.6" xlink:href="#m99cc4e5d1e" y="256.896"/>
      </g>
     </g>
     <g id="text_8">
      <!-- 0.2 -->
      <g transform="translate(34.696875 260.695219)scale(0.1 -0.1)">
       <use xlink:href="#DejaVuSans-30"/>
       <use x="63.623047" xlink:href="#DejaVuSans-2e"/>
       <use x="95.410156" xlink:href="#DejaVuSans-32"/>
      </g>
     </g>
    </g>
    <g id="ytick_3">
     <g id="line2d_9">
      <g>
       <use style="stroke:#000000;stroke-width:0.8;" x="57.6" xlink:href="#m99cc4e5d1e" y="206.208"/>
      </g>
     </g>
     <g id="text_9">
      <!-- 0.4 -->
      <g transform="translate(34.696875 210.007219)scale(0.1 -0.1)">
       <use xlink:href="#DejaVuSans-30"/>
       <use x="63.623047" xlink:href="#DejaVuSans-2e"/>
       <use x="95.410156" xlink:href="#DejaVuSans-34"/>
      </g>
     </g>
    </g>
    <g id="ytick_4">
     <g id="line2d_10">
      <g>
       <use style="stroke:#000000;stroke-width:0.8;" x="57.6" xlink:href="#m99cc4e5d1e" y="155.52"/>
      </g>
     </g>
     <g id="text_10">
      <!-- 0.6 -->
      <g transform="translate(34.696875 159.319219)scale(0.1 -0.1)">
       <use xlink:href="#DejaVuSans-30"/>
       <use x="63.623047" xlink:href="#DejaVuSans-2e"/>
       <use x="95.410156" xlink:href="#DejaVuSans-36"/>
      </g>
     </g>
    </g>
    <g id="ytick_5">
     <g id="line2d_11">
      <g>
       <use style="stroke:#000000;stroke-width:0.8;" x="57.6" xlink:href="#m99cc4e5d1e" y="104.832"/>
      </g>
     </g>
     <g id="text_11">
      <!-- 0.8 -->
      <g transform="translate(34.696875 108.631219)scale(0.1 -0.1)">
       <use xlink:href="#DejaVuSans-30"/>
       <use x="63.623047" xlink:href="#DejaVuSans-2e"/>
       <use x="95.410156" xlink:href="#DejaVuSans-38"/>
      </g>
     </g>
    </g>
    <g id="ytick_6">
     <g id="line2d_12">
      <g>
       <use style="stroke:#000000;stroke-width:0.8;" x="57.6" xlink:href="#m99cc4e5d1e" y="54.144"/>
      </g>
     </g>
     <g id="text_12">
      <!-- 1.0 -->
      <g transform="translate(34.696875 57.943219)scale(0.1 -0.1)">
       <use xlink:href="#DejaVuSans-31"/>
       <use x="63.623047" xlink:href="#DejaVuSans-2e"/>
       <use x="95.410156" xlink:href="#DejaVuSans-30"/>
      </g>
     </g>
    </g>
   </g>
   <g id="line2d_13">
    <path clip-path="url(#p5108c16f02)" d="M 57.6 152.645245 
L 414.72 152.645245 
" style="fill:none;stroke:#808080;stroke-dasharray:1,1.65;stroke-dashoffset:0;"/>
   </g>
   <g id="line2d_14">
    <path clip-path="url(#p5108c16f02)" d="M 57.6 87.304051 
L 414.72 87.304051 
" style="fill:none;stroke:#808080;stroke-dasharray:1,1.65;stroke-dashoffset:0;"/>
   </g>
   <g id="line2d_15">
    <path clip-path="url(#p5108c16f02)" d="M 57.6 64.772978 
L 414.72 64.772978 
" style="fill:none;stroke:#808080;stroke-dasharray:1,1.65;stroke-dashoffset:0;"/>
   </g>
   <g id="patch_3">
    <path d="M 57.6 307.584 
L 57.6 41.472 
" style="fill:none;stroke:#000000;stroke-linecap:square;stroke-linejoin:miter;stroke-width:0.8;"/>
   </g>
   <g id="patch_4">
    <path d="M 414.72 307.584 
L 414.72 41.472 
" style="fill:none;stroke:#000000;stroke-linecap:square;stroke-linejoin:miter;stroke-width:0.8;"/>
   </g>
   <g id="patch_5">
    <path d="M 57.6 307.584 
L 414.72 307.584 
" style="fill:none;stroke:#000000;stroke-linecap:square;stroke-linejoin:miter;stroke-width:0.8;"/>
   </g>
   <g id="patch_6">
    <path d="M 57.6 41.472 
L 414.72 41.472 
" style="fill:none;stroke:#000000;stroke-linecap:square;stroke-linejoin:miter;stroke-width:0.8;"/>
   </g>
   <g id="text_13">
    <!-- Google -->
    <defs>
     <path d="M 59.515625 10.40625 
L 59.515625 29.984375 
L 43.40625 29.984375 
L 43.40625 38.09375 
L 69.28125 38.09375 
L 69.28125 6.78125 
Q 63.578125 2.734375 56.6875 0.65625 
Q 49.8125 -1.421875 42 -1.421875 
Q 24.90625 -1.421875 15.25 8.5625 
Q 5.609375 18.5625 5.609375 36.375 
Q 5.609375 54.25 15.25 64.234375 
Q 24.90625 74.21875 42 74.21875 
Q 49.125 74.21875 55.546875 72.453125 
Q 61.96875 70.703125 67.390625 67.28125 
L 67.390625 56.78125 
Q 61.921875 61.421875 55.765625 63.765625 
Q 49.609375 66.109375 42.828125 66.109375 
Q 29.4375 66.109375 22.71875 58.640625 
Q 16.015625 51.171875 16.015625 36.375 
Q 16.015625 21.625 22.71875 14.15625 
Q 29.4375 6.6875 42.828125 6.6875 
Q 48.046875 6.6875 52.140625 7.59375 
Q 56.25 8.5 59.515625 10.40625 
z
" id="DejaVuSans-47"/>
     <path d="M 30.609375 48.390625 
Q 23.390625 48.390625 19.1875 42.75 
Q 14.984375 37.109375 14.984375 27.296875 
Q 14.984375 17.484375 19.15625 11.84375 
Q 23.34375 6.203125 30.609375 6.203125 
Q 37.796875 6.203125 41.984375 11.859375 
Q 46.1875 17.53125 46.1875 27.296875 
Q 46.1875 37.015625 41.984375 42.703125 
Q 37.796875 48.390625 30.609375 48.390625 
z
M 30.609375 56 
Q 42.328125 56 49.015625 48.375 
Q 55.71875 40.765625 55.71875 27.296875 
Q 55.71875 13.875 49.015625 6.21875 
Q 42.328125 -1.421875 30.609375 -1.421875 
Q 18.84375 -1.421875 12.171875 6.21875 
Q 5.515625 13.875 5.515625 27.296875 
Q 5.515625 40.765625 12.171875 48.375 
Q 18.84375 56 30.609375 56 
z
" id="DejaVuSans-6f"/>
     <path d="M 45.40625 27.984375 
Q 45.40625 37.75 41.375 43.109375 
Q 37.359375 48.484375 30.078125 48.484375 
Q 22.859375 48.484375 18.828125 43.109375 
Q 14.796875 37.75 14.796875 27.984375 
Q 14.796875 18.265625 18.828125 12.890625 
Q 22.859375 7.515625 30.078125 7.515625 
Q 37.359375 7.515625 41.375 12.890625 
Q 45.40625 18.265625 45.40625 27.984375 
z
M 54.390625 6.78125 
Q 54.390625 -7.171875 48.1875 -13.984375 
Q 42 -20.796875 29.203125 -20.796875 
Q 24.46875 -20.796875 20.265625 -20.09375 
Q 16.0625 -19.390625 12.109375 -17.921875 
L 12.109375 -9.1875 
Q 16.0625 -11.328125 19.921875 -12.34375 
Q 23.78125 -13.375 27.78125 -13.375 
Q 36.625 -13.375 41.015625 -8.765625 
Q 45.40625 -4.15625 45.40625 5.171875 
L 45.40625 9.625 
Q 42.625 4.78125 38.28125 2.390625 
Q 33.9375 0 27.875 0 
Q 17.828125 0 11.671875 7.65625 
Q 5.515625 15.328125 5.515625 27.984375 
Q 5.515625 40.671875 11.671875 48.328125 
Q 17.828125 56 27.875 56 
Q 33.9375 56 38.28125 53.609375 
Q 42.625 51.21875 45.40625 46.390625 
L 45.40625 54.6875 
L 54.390625 54.6875 
z
" id="DejaVuSans-67"/>
     <path d="M 9.421875 75.984375 
L 18.40625 75.984375 
L 18.40625 0 
L 9.421875 0 
z
" id="DejaVuSans-6c"/>
     <path d="M 56.203125 29.59375 
L 56.203125 25.203125 
L 14.890625 25.203125 
Q 15.484375 15.921875 20.484375 11.0625 
Q 25.484375 6.203125 34.421875 6.203125 
Q 39.59375 6.203125 44.453125 7.46875 
Q 49.3125 8.734375 54.109375 11.28125 
L 54.109375 2.78125 
Q 49.265625 0.734375 44.1875 -0.34375 
Q 39.109375 -1.421875 33.890625 -1.421875 
Q 20.796875 -1.421875 13.15625 6.1875 
Q 5.515625 13.8125 5.515625 26.8125 
Q 5.515625 40.234375 12.765625 48.109375 
Q 20.015625 56 32.328125 56 
Q 43.359375 56 49.78125 48.890625 
Q 56.203125 41.796875 56.203125 29.59375 
z
M 47.21875 32.234375 
Q 47.125 39.59375 43.09375 43.984375 
Q 39.0625 48.390625 32.421875 48.390625 
Q 24.90625 48.390625 20.390625 44.140625 
Q 15.875 39.890625 15.1875 32.171875 
z
" id="DejaVuSans-65"/>
    </defs>
    <g transform="translate(119.743471 223.9488)scale(0.1 -0.1)">
     <use xlink:href="#DejaVuSans-47"/>
     <use x="77.490234" xlink:href="#DejaVuSans-6f"/>
     <use x="138.671875" xlink:href="#DejaVuSans-6f"/>
     <use x="199.853516" xlink:href="#DejaVuSans-67"/>
     <use x="263.330078" xlink:href="#DejaVuSans-6c"/>
     <use x="291.113281" xlink:href="#DejaVuSans-65"/>
    </g>
   </g>
   <g id="text_14">
    <!-- Symantec -->
    <defs>
     <path d="M 53.515625 70.515625 
L 53.515625 60.890625 
Q 47.90625 63.578125 42.921875 64.890625 
Q 37.9375 66.21875 33.296875 66.21875 
Q 25.25 66.21875 20.875 63.09375 
Q 16.5 59.96875 16.5 54.203125 
Q 16.5 49.359375 19.40625 46.890625 
Q 22.3125 44.4375 30.421875 42.921875 
L 36.375 41.703125 
Q 47.40625 39.59375 52.65625 34.296875 
Q 57.90625 29 57.90625 20.125 
Q 57.90625 9.515625 50.796875 4.046875 
Q 43.703125 -1.421875 29.984375 -1.421875 
Q 24.8125 -1.421875 18.96875 -0.25 
Q 13.140625 0.921875 6.890625 3.21875 
L 6.890625 13.375 
Q 12.890625 10.015625 18.65625 8.296875 
Q 24.421875 6.59375 29.984375 6.59375 
Q 38.421875 6.59375 43.015625 9.90625 
Q 47.609375 13.234375 47.609375 19.390625 
Q 47.609375 24.75 44.3125 27.78125 
Q 41.015625 30.8125 33.5 32.328125 
L 27.484375 33.5 
Q 16.453125 35.6875 11.515625 40.375 
Q 6.59375 45.0625 6.59375 53.421875 
Q 6.59375 63.09375 13.40625 68.65625 
Q 20.21875 74.21875 32.171875 74.21875 
Q 37.3125 74.21875 42.625 73.28125 
Q 47.953125 72.359375 53.515625 70.515625 
z
" id="DejaVuSans-53"/>
     <path d="M 32.171875 -5.078125 
Q 28.375 -14.84375 24.75 -17.8125 
Q 21.140625 -20.796875 15.09375 -20.796875 
L 7.90625 -20.796875 
L 7.90625 -13.28125 
L 13.1875 -13.28125 
Q 16.890625 -13.28125 18.9375 -11.515625 
Q 21 -9.765625 23.484375 -3.21875 
L 25.09375 0.875 
L 2.984375 54.6875 
L 12.5 54.6875 
L 29.59375 11.921875 
L 46.6875 54.6875 
L 56.203125 54.6875 
z
" id="DejaVuSans-79"/>
     <path d="M 52 44.1875 
Q 55.375 50.25 60.0625 53.125 
Q 64.75 56 71.09375 56 
Q 79.640625 56 84.28125 50.015625 
Q 88.921875 44.046875 88.921875 33.015625 
L 88.921875 0 
L 79.890625 0 
L 79.890625 32.71875 
Q 79.890625 40.578125 77.09375 44.375 
Q 74.3125 48.1875 68.609375 48.1875 
Q 61.625 48.1875 57.5625 43.546875 
Q 53.515625 38.921875 53.515625 30.90625 
L 53.515625 0 
L 44.484375 0 
L 44.484375 32.71875 
Q 44.484375 40.625 41.703125 44.40625 
Q 38.921875 48.1875 33.109375 48.1875 
Q 26.21875 48.1875 22.15625 43.53125 
Q 18.109375 38.875 18.109375 30.90625 
L 18.109375 0 
L 9.078125 0 
L 9.078125 54.6875 
L 18.109375 54.6875 
L 18.109375 46.1875 
Q 21.1875 51.21875 25.484375 53.609375 
Q 29.78125 56 35.6875 56 
Q 41.65625 56 45.828125 52.96875 
Q 50 49.953125 52 44.1875 
z
" id="DejaVuSans-6d"/>
     <path d="M 34.28125 27.484375 
Q 23.390625 27.484375 19.1875 25 
Q 14.984375 22.515625 14.984375 16.5 
Q 14.984375 11.71875 18.140625 8.90625 
Q 21.296875 6.109375 26.703125 6.109375 
Q 34.1875 6.109375 38.703125 11.40625 
Q 43.21875 16.703125 43.21875 25.484375 
L 43.21875 27.484375 
z
M 52.203125 31.203125 
L 52.203125 0 
L 43.21875 0 
L 43.21875 8.296875 
Q 40.140625 3.328125 35.546875 0.953125 
Q 30.953125 -1.421875 24.3125 -1.421875 
Q 15.921875 -1.421875 10.953125 3.296875 
Q 6 8.015625 6 15.921875 
Q 6 25.140625 12.171875 29.828125 
Q 18.359375 34.515625 30.609375 34.515625 
L 43.21875 34.515625 
L 43.21875 35.40625 
Q 43.21875 41.609375 39.140625 45 
Q 35.0625 48.390625 27.6875 48.390625 
Q 23 48.390625 18.546875 47.265625 
Q 14.109375 46.140625 10.015625 43.890625 
L 10.015625 52.203125 
Q 14.9375 54.109375 19.578125 55.046875 
Q 24.21875 56 28.609375 56 
Q 40.484375 56 46.34375 49.84375 
Q 52.203125 43.703125 52.203125 31.203125 
z
" id="DejaVuSans-61"/>
     <path d="M 54.890625 33.015625 
L 54.890625 0 
L 45.90625 0 
L 45.90625 32.71875 
Q 45.90625 40.484375 42.875 44.328125 
Q 39.84375 48.1875 33.796875 48.1875 
Q 26.515625 48.1875 22.3125 43.546875 
Q 18.109375 38.921875 18.109375 30.90625 
L 18.109375 0 
L 9.078125 0 
L 9.078125 54.6875 
L 18.109375 54.6875 
L 18.109375 46.1875 
Q 21.34375 51.125 25.703125 53.5625 
Q 30.078125 56 35.796875 56 
Q 45.21875 56 50.046875 50.171875 
Q 54.890625 44.34375 54.890625 33.015625 
z
" id="DejaVuSans-6e"/>
     <path d="M 18.3125 70.21875 
L 18.3125 54.6875 
L 36.8125 54.6875 
L 36.8125 47.703125 
L 18.3125 47.703125 
L 18.3125 18.015625 
Q 18.3125 11.328125 20.140625 9.421875 
Q 21.96875 7.515625 27.59375 7.515625 
L 36.8125 7.515625 
L 36.8125 0 
L 27.59375 0 
Q 17.1875 0 13.234375 3.875 
Q 9.28125 7.765625 9.28125 18.015625 
L 9.28125 47.703125 
L 2.6875 47.703125 
L 2.6875 54.6875 
L 9.28125 54.6875 
L 9.28125 70.21875 
z
" id="DejaVuSans-74"/>
     <path d="M 48.78125 52.59375 
L 48.78125 44.1875 
Q 44.96875 46.296875 41.140625 47.34375 
Q 37.3125 48.390625 33.40625 48.390625 
Q 24.65625 48.390625 19.8125 42.84375 
Q 14.984375 37.3125 14.984375 27.296875 
Q 14.984375 17.28125 19.8125 11.734375 
Q 24.65625 6.203125 33.40625 6.203125 
Q 37.3125 6.203125 41.140625 7.25 
Q 44.96875 8.296875 48.78125 10.40625 
L 48.78125 2.09375 
Q 45.015625 0.34375 40.984375 -0.53125 
Q 36.96875 -1.421875 32.421875 -1.421875 
Q 20.0625 -1.421875 12.78125 6.34375 
Q 5.515625 14.109375 5.515625 27.296875 
Q 5.515625 40.671875 12.859375 48.328125 
Q 20.21875 56 33.015625 56 
Q 37.15625 56 41.109375 55.140625 
Q 45.0625 54.296875 48.78125 52.59375 
z
" id="DejaVuSans-63"/>
    </defs>
    <g transform="translate(119.743471 117.504)scale(0.1 -0.1)">
     <use xlink:href="#DejaVuSans-53"/>
     <use x="63.476562" xlink:href="#DejaVuSans-79"/>
     <use x="122.65625" xlink:href="#DejaVuSans-6d"/>
     <use x="220.068359" xlink:href="#DejaVuSans-61"/>
     <use x="281.347656" xlink:href="#DejaVuSans-6e"/>
     <use x="344.726562" xlink:href="#DejaVuSans-74"/>
     <use x="383.935547" xlink:href="#DejaVuSans-65"/>
     <use x="445.458984" xlink:href="#DejaVuSans-63"/>
    </g>
   </g>
   <g id="text_15">
    <!-- DigiCert -->
    <defs>
     <path d="M 19.671875 64.796875 
L 19.671875 8.109375 
L 31.59375 8.109375 
Q 46.6875 8.109375 53.6875 14.9375 
Q 60.6875 21.78125 60.6875 36.53125 
Q 60.6875 51.171875 53.6875 57.984375 
Q 46.6875 64.796875 31.59375 64.796875 
z
M 9.8125 72.90625 
L 30.078125 72.90625 
Q 51.265625 72.90625 61.171875 64.09375 
Q 71.09375 55.28125 71.09375 36.53125 
Q 71.09375 17.671875 61.125 8.828125 
Q 51.171875 0 30.078125 0 
L 9.8125 0 
z
" id="DejaVuSans-44"/>
     <path d="M 9.421875 54.6875 
L 18.40625 54.6875 
L 18.40625 0 
L 9.421875 0 
z
M 9.421875 75.984375 
L 18.40625 75.984375 
L 18.40625 64.59375 
L 9.421875 64.59375 
z
" id="DejaVuSans-69"/>
     <path d="M 64.40625 67.28125 
L 64.40625 56.890625 
Q 59.421875 61.53125 53.78125 63.8125 
Q 48.140625 66.109375 41.796875 66.109375 
Q 29.296875 66.109375 22.65625 58.46875 
Q 16.015625 50.828125 16.015625 36.375 
Q 16.015625 21.96875 22.65625 14.328125 
Q 29.296875 6.6875 41.796875 6.6875 
Q 48.140625 6.6875 53.78125 8.984375 
Q 59.421875 11.28125 64.40625 15.921875 
L 64.40625 5.609375 
Q 59.234375 2.09375 53.4375 0.328125 
Q 47.65625 -1.421875 41.21875 -1.421875 
Q 24.65625 -1.421875 15.125 8.703125 
Q 5.609375 18.84375 5.609375 36.375 
Q 5.609375 53.953125 15.125 64.078125 
Q 24.65625 74.21875 41.21875 74.21875 
Q 47.75 74.21875 53.53125 72.484375 
Q 59.328125 70.75 64.40625 67.28125 
z
" id="DejaVuSans-43"/>
     <path d="M 41.109375 46.296875 
Q 39.59375 47.171875 37.8125 47.578125 
Q 36.03125 48 33.890625 48 
Q 26.265625 48 22.1875 43.046875 
Q 18.109375 38.09375 18.109375 28.8125 
L 18.109375 0 
L 9.078125 0 
L 9.078125 54.6875 
L 18.109375 54.6875 
L 18.109375 46.1875 
Q 20.953125 51.171875 25.484375 53.578125 
Q 30.03125 56 36.53125 56 
Q 37.453125 56 38.578125 55.875 
Q 39.703125 55.765625 41.0625 55.515625 
z
" id="DejaVuSans-72"/>
    </defs>
    <g transform="translate(119.743471 82.0224)scale(0.1 -0.1)">
     <use xlink:href="#DejaVuSans-44"/>
     <use x="77.001953" xlink:href="#DejaVuSans-69"/>
     <use x="104.785156" xlink:href="#DejaVuSans-67"/>
     <use x="168.261719" xlink:href="#DejaVuSans-69"/>
     <use x="196.044922" xlink:href="#DejaVuSans-43"/>
     <use x="265.869141" xlink:href="#DejaVuSans-65"/>
     <use x="327.392578" xlink:href="#DejaVuSans-72"/>
     <use x="368.505859" xlink:href="#DejaVuSans-74"/>
    </g>
   </g>
   <g id="text_16">
    <!-- WoSign -->
    <defs>
     <path d="M 3.328125 72.90625 
L 13.28125 72.90625 
L 28.609375 11.28125 
L 43.890625 72.90625 
L 54.984375 72.90625 
L 70.3125 11.28125 
L 85.59375 72.90625 
L 95.609375 72.90625 
L 77.296875 0 
L 64.890625 0 
L 49.515625 63.28125 
L 33.984375 0 
L 21.578125 0 
z
" id="DejaVuSans-57"/>
    </defs>
    <g transform="translate(119.743471 64.2816)scale(0.1 -0.1)">
     <use xlink:href="#DejaVuSans-57"/>
     <use x="98.798828" xlink:href="#DejaVuSans-6f"/>
     <use x="159.980469" xlink:href="#DejaVuSans-53"/>
     <use x="223.457031" xlink:href="#DejaVuSans-69"/>
     <use x="251.240234" xlink:href="#DejaVuSans-67"/>
     <use x="314.716797" xlink:href="#DejaVuSans-6e"/>
    </g>
   </g>
   <g id="text_17">
    <!-- 0.61 -->
    <g style="fill:#808080;" transform="translate(48.287763 150.565557)scale(0.1 -0.1)">
     <use xlink:href="#DejaVuSans-30"/>
     <use x="63.623047" xlink:href="#DejaVuSans-2e"/>
     <use x="95.410156" xlink:href="#DejaVuSans-36"/>
     <use x="159.033203" xlink:href="#DejaVuSans-31"/>
    </g>
   </g>
   <g id="text_18">
    <!-- 0.87 -->
    <defs>
     <path d="M 8.203125 72.90625 
L 55.078125 72.90625 
L 55.078125 68.703125 
L 28.609375 0 
L 18.3125 0 
L 43.21875 64.59375 
L 8.203125 64.59375 
z
" id="DejaVuSans-37"/>
    </defs>
    <g style="fill:#808080;" transform="translate(48.287763 85.224363)scale(0.1 -0.1)">
     <use xlink:href="#DejaVuSans-30"/>
     <use x="63.623047" xlink:href="#DejaVuSans-2e"/>
     <use x="95.410156" xlink:href="#DejaVuSans-38"/>
     <use x="159.033203" xlink:href="#DejaVuSans-37"/>
    </g>
   </g>
   <g id="text_19">
    <!-- 0.96 -->
    <defs>
     <path d="M 10.984375 1.515625 
L 10.984375 10.5 
Q 14.703125 8.734375 18.5 7.8125 
Q 22.3125 6.890625 25.984375 6.890625 
Q 35.75 6.890625 40.890625 13.453125 
Q 46.046875 20.015625 46.78125 33.40625 
Q 43.953125 29.203125 39.59375 26.953125 
Q 35.25 24.703125 29.984375 24.703125 
Q 19.046875 24.703125 12.671875 31.3125 
Q 6.296875 37.9375 6.296875 49.421875 
Q 6.296875 60.640625 12.9375 67.421875 
Q 19.578125 74.21875 30.609375 74.21875 
Q 43.265625 74.21875 49.921875 64.515625 
Q 56.59375 54.828125 56.59375 36.375 
Q 56.59375 19.140625 48.40625 8.859375 
Q 40.234375 -1.421875 26.421875 -1.421875 
Q 22.703125 -1.421875 18.890625 -0.6875 
Q 15.09375 0.046875 10.984375 1.515625 
z
M 30.609375 32.421875 
Q 37.25 32.421875 41.125 36.953125 
Q 45.015625 41.5 45.015625 49.421875 
Q 45.015625 57.28125 41.125 61.84375 
Q 37.25 66.40625 30.609375 66.40625 
Q 23.96875 66.40625 20.09375 61.84375 
Q 16.21875 57.28125 16.21875 49.421875 
Q 16.21875 41.5 20.09375 36.953125 
Q 23.96875 32.421875 30.609375 32.421875 
z
" id="DejaVuSans-39"/>
    </defs>
    <g style="fill:#808080;" transform="translate(48.287763 62.69329)scale(0.1 -0.1)">
     <use xlink:href="#DejaVuSans-30"/>
     <use x="63.623047" xlink:href="#DejaVuSans-2e"/>
     <use x="95.410156" xlink:href="#DejaVuSans-39"/>
     <use x="159.033203" xlink:href="#DejaVuSans-36"/>
    </g>
   </g>
   <g id="text_20">
    <!-- SCTs by CT-Log-Operator (chrome accepted only) -->
    <defs>
     <path d="M -0.296875 72.90625 
L 61.375 72.90625 
L 61.375 64.59375 
L 35.5 64.59375 
L 35.5 0 
L 25.59375 0 
L 25.59375 64.59375 
L -0.296875 64.59375 
z
" id="DejaVuSans-54"/>
     <path d="M 44.28125 53.078125 
L 44.28125 44.578125 
Q 40.484375 46.53125 36.375 47.5 
Q 32.28125 48.484375 27.875 48.484375 
Q 21.1875 48.484375 17.84375 46.4375 
Q 14.5 44.390625 14.5 40.28125 
Q 14.5 37.15625 16.890625 35.375 
Q 19.28125 33.59375 26.515625 31.984375 
L 29.59375 31.296875 
Q 39.15625 29.25 43.1875 25.515625 
Q 47.21875 21.78125 47.21875 15.09375 
Q 47.21875 7.46875 41.1875 3.015625 
Q 35.15625 -1.421875 24.609375 -1.421875 
Q 20.21875 -1.421875 15.453125 -0.5625 
Q 10.6875 0.296875 5.421875 2 
L 5.421875 11.28125 
Q 10.40625 8.6875 15.234375 7.390625 
Q 20.0625 6.109375 24.8125 6.109375 
Q 31.15625 6.109375 34.5625 8.28125 
Q 37.984375 10.453125 37.984375 14.40625 
Q 37.984375 18.0625 35.515625 20.015625 
Q 33.0625 21.96875 24.703125 23.78125 
L 21.578125 24.515625 
Q 13.234375 26.265625 9.515625 29.90625 
Q 5.8125 33.546875 5.8125 39.890625 
Q 5.8125 47.609375 11.28125 51.796875 
Q 16.75 56 26.8125 56 
Q 31.78125 56 36.171875 55.265625 
Q 40.578125 54.546875 44.28125 53.078125 
z
" id="DejaVuSans-73"/>
     <path id="DejaVuSans-20"/>
     <path d="M 48.6875 27.296875 
Q 48.6875 37.203125 44.609375 42.84375 
Q 40.53125 48.484375 33.40625 48.484375 
Q 26.265625 48.484375 22.1875 42.84375 
Q 18.109375 37.203125 18.109375 27.296875 
Q 18.109375 17.390625 22.1875 11.75 
Q 26.265625 6.109375 33.40625 6.109375 
Q 40.53125 6.109375 44.609375 11.75 
Q 48.6875 17.390625 48.6875 27.296875 
z
M 18.109375 46.390625 
Q 20.953125 51.265625 25.265625 53.625 
Q 29.59375 56 35.59375 56 
Q 45.5625 56 51.78125 48.09375 
Q 58.015625 40.1875 58.015625 27.296875 
Q 58.015625 14.40625 51.78125 6.484375 
Q 45.5625 -1.421875 35.59375 -1.421875 
Q 29.59375 -1.421875 25.265625 0.953125 
Q 20.953125 3.328125 18.109375 8.203125 
L 18.109375 0 
L 9.078125 0 
L 9.078125 75.984375 
L 18.109375 75.984375 
z
" id="DejaVuSans-62"/>
     <path d="M 4.890625 31.390625 
L 31.203125 31.390625 
L 31.203125 23.390625 
L 4.890625 23.390625 
z
" id="DejaVuSans-2d"/>
     <path d="M 9.8125 72.90625 
L 19.671875 72.90625 
L 19.671875 8.296875 
L 55.171875 8.296875 
L 55.171875 0 
L 9.8125 0 
z
" id="DejaVuSans-4c"/>
     <path d="M 39.40625 66.21875 
Q 28.65625 66.21875 22.328125 58.203125 
Q 16.015625 50.203125 16.015625 36.375 
Q 16.015625 22.609375 22.328125 14.59375 
Q 28.65625 6.59375 39.40625 6.59375 
Q 50.140625 6.59375 56.421875 14.59375 
Q 62.703125 22.609375 62.703125 36.375 
Q 62.703125 50.203125 56.421875 58.203125 
Q 50.140625 66.21875 39.40625 66.21875 
z
M 39.40625 74.21875 
Q 54.734375 74.21875 63.90625 63.9375 
Q 73.09375 53.65625 73.09375 36.375 
Q 73.09375 19.140625 63.90625 8.859375 
Q 54.734375 -1.421875 39.40625 -1.421875 
Q 24.03125 -1.421875 14.8125 8.828125 
Q 5.609375 19.09375 5.609375 36.375 
Q 5.609375 53.65625 14.8125 63.9375 
Q 24.03125 74.21875 39.40625 74.21875 
z
" id="DejaVuSans-4f"/>
     <path d="M 18.109375 8.203125 
L 18.109375 -20.796875 
L 9.078125 -20.796875 
L 9.078125 54.6875 
L 18.109375 54.6875 
L 18.109375 46.390625 
Q 20.953125 51.265625 25.265625 53.625 
Q 29.59375 56 35.59375 56 
Q 45.5625 56 51.78125 48.09375 
Q 58.015625 40.1875 58.015625 27.296875 
Q 58.015625 14.40625 51.78125 6.484375 
Q 45.5625 -1.421875 35.59375 -1.421875 
Q 29.59375 -1.421875 25.265625 0.953125 
Q 20.953125 3.328125 18.109375 8.203125 
z
M 48.6875 27.296875 
Q 48.6875 37.203125 44.609375 42.84375 
Q 40.53125 48.484375 33.40625 48.484375 
Q 26.265625 48.484375 22.1875 42.84375 
Q 18.109375 37.203125 18.109375 27.296875 
Q 18.109375 17.390625 22.1875 11.75 
Q 26.265625 6.109375 33.40625 6.109375 
Q 40.53125 6.109375 44.609375 11.75 
Q 48.6875 17.390625 48.6875 27.296875 
z
" id="DejaVuSans-70"/>
     <path d="M 31 75.875 
Q 24.46875 64.65625 21.28125 53.65625 
Q 18.109375 42.671875 18.109375 31.390625 
Q 18.109375 20.125 21.3125 9.0625 
Q 24.515625 -2 31 -13.1875 
L 23.1875 -13.1875 
Q 15.875 -1.703125 12.234375 9.375 
Q 8.59375 20.453125 8.59375 31.390625 
Q 8.59375 42.28125 12.203125 53.3125 
Q 15.828125 64.359375 23.1875 75.875 
z
" id="DejaVuSans-28"/>
     <path d="M 54.890625 33.015625 
L 54.890625 0 
L 45.90625 0 
L 45.90625 32.71875 
Q 45.90625 40.484375 42.875 44.328125 
Q 39.84375 48.1875 33.796875 48.1875 
Q 26.515625 48.1875 22.3125 43.546875 
Q 18.109375 38.921875 18.109375 30.90625 
L 18.109375 0 
L 9.078125 0 
L 9.078125 75.984375 
L 18.109375 75.984375 
L 18.109375 46.1875 
Q 21.34375 51.125 25.703125 53.5625 
Q 30.078125 56 35.796875 56 
Q 45.21875 56 50.046875 50.171875 
Q 54.890625 44.34375 54.890625 33.015625 
z
" id="DejaVuSans-68"/>
     <path d="M 45.40625 46.390625 
L 45.40625 75.984375 
L 54.390625 75.984375 
L 54.390625 0 
L 45.40625 0 
L 45.40625 8.203125 
Q 42.578125 3.328125 38.25 0.953125 
Q 33.9375 -1.421875 27.875 -1.421875 
Q 17.96875 -1.421875 11.734375 6.484375 
Q 5.515625 14.40625 5.515625 27.296875 
Q 5.515625 40.1875 11.734375 48.09375 
Q 17.96875 56 27.875 56 
Q 33.9375 56 38.25 53.625 
Q 42.578125 51.265625 45.40625 46.390625 
z
M 14.796875 27.296875 
Q 14.796875 17.390625 18.875 11.75 
Q 22.953125 6.109375 30.078125 6.109375 
Q 37.203125 6.109375 41.296875 11.75 
Q 45.40625 17.390625 45.40625 27.296875 
Q 45.40625 37.203125 41.296875 42.84375 
Q 37.203125 48.484375 30.078125 48.484375 
Q 22.953125 48.484375 18.875 42.84375 
Q 14.796875 37.203125 14.796875 27.296875 
z
" id="DejaVuSans-64"/>
     <path d="M 8.015625 75.875 
L 15.828125 75.875 
Q 23.140625 64.359375 26.78125 53.3125 
Q 30.421875 42.28125 30.421875 31.390625 
Q 30.421875 20.453125 26.78125 9.375 
Q 23.140625 -1.703125 15.828125 -13.1875 
L 8.015625 -13.1875 
Q 14.5 -2 17.703125 9.0625 
Q 20.90625 20.125 20.90625 31.390625 
Q 20.90625 42.671875 17.703125 53.65625 
Q 14.5 64.65625 8.015625 75.875 
z
" id="DejaVuSans-29"/>
    </defs>
    <g transform="translate(86.8575 35.472)scale(0.12 -0.12)">
     <use xlink:href="#DejaVuSans-53"/>
     <use x="63.476562" xlink:href="#DejaVuSans-43"/>
     <use x="133.300781" xlink:href="#DejaVuSans-54"/>
     <use x="194.134766" xlink:href="#DejaVuSans-73"/>
     <use x="246.234375" xlink:href="#DejaVuSans-20"/>
     <use x="278.021484" xlink:href="#DejaVuSans-62"/>
     <use x="341.498047" xlink:href="#DejaVuSans-79"/>
     <use x="400.677734" xlink:href="#DejaVuSans-20"/>
     <use x="432.464844" xlink:href="#DejaVuSans-43"/>
     <use x="502.289062" xlink:href="#DejaVuSans-54"/>
     <use x="563.232422" xlink:href="#DejaVuSans-2d"/>
     <use x="599.316406" xlink:href="#DejaVuSans-4c"/>
     <use x="655.013672" xlink:href="#DejaVuSans-6f"/>
     <use x="716.195312" xlink:href="#DejaVuSans-67"/>
     <use x="779.671875" xlink:href="#DejaVuSans-2d"/>
     <use x="815.787109" xlink:href="#DejaVuSans-4f"/>
     <use x="894.498047" xlink:href="#DejaVuSans-70"/>
     <use x="957.974609" xlink:href="#DejaVuSans-65"/>
     <use x="1019.498047" xlink:href="#DejaVuSans-72"/>
     <use x="1060.611328" xlink:href="#DejaVuSans-61"/>
     <use x="1121.890625" xlink:href="#DejaVuSans-74"/>
     <use x="1161.099609" xlink:href="#DejaVuSans-6f"/>
     <use x="1222.28125" xlink:href="#DejaVuSans-72"/>
     <use x="1263.394531" xlink:href="#DejaVuSans-20"/>
     <use x="1295.181641" xlink:href="#DejaVuSans-28"/>
     <use x="1334.195312" xlink:href="#DejaVuSans-63"/>
     <use x="1389.175781" xlink:href="#DejaVuSans-68"/>
     <use x="1452.554688" xlink:href="#DejaVuSans-72"/>
     <use x="1493.636719" xlink:href="#DejaVuSans-6f"/>
     <use x="1554.818359" xlink:href="#DejaVuSans-6d"/>
     <use x="1652.230469" xlink:href="#DejaVuSans-65"/>
     <use x="1713.753906" xlink:href="#DejaVuSans-20"/>
     <use x="1745.541016" xlink:href="#DejaVuSans-61"/>
     <use x="1806.820312" xlink:href="#DejaVuSans-63"/>
     <use x="1861.800781" xlink:href="#DejaVuSans-63"/>
     <use x="1916.78125" xlink:href="#DejaVuSans-65"/>
     <use x="1978.304688" xlink:href="#DejaVuSans-70"/>
     <use x="2041.78125" xlink:href="#DejaVuSans-74"/>
     <use x="2080.990234" xlink:href="#DejaVuSans-65"/>
     <use x="2142.513672" xlink:href="#DejaVuSans-64"/>
     <use x="2205.990234" xlink:href="#DejaVuSans-20"/>
     <use x="2237.777344" xlink:href="#DejaVuSans-6f"/>
     <use x="2298.958984" xlink:href="#DejaVuSans-6e"/>
     <use x="2362.337891" xlink:href="#DejaVuSans-6c"/>
     <use x="2390.121094" xlink:href="#DejaVuSans-79"/>
     <use x="2449.300781" xlink:href="#DejaVuSans-29"/>
    </g>
   </g>
  </g>
 </g>
 <defs>
  <clipPath id="p5108c16f02">
   <rect height="266.112" width="357.12" x="57.6" y="41.472"/>
  </clipPath>
 </defs>
</svg>
