<?xml version="1.0" encoding="utf-8" standalone="no"?>
<!DOCTYPE svg PUBLIC "-//W3C//DTD SVG 1.1//EN"
  "http://www.w3.org/Graphics/SVG/1.1/DTD/svg11.dtd">
<!-- Created with matplotlib (http://matplotlib.org/) -->
<svg height="345pt" version="1.1" viewBox="0 0 460 345" width="460pt" xmlns="http://www.w3.org/2000/svg" xmlns:xlink="http://www.w3.org/1999/xlink">
 <defs>
  <style type="text/css">
*{stroke-linecap:butt;stroke-linejoin:round;}
  </style>
 </defs>
 <g id="figure_1">
  <g id="patch_1">
   <path d="M 0 345.6 
L 460.8 345.6 
L 460.8 0 
L 0 0 
z
" style="fill:#ffffff;"/>
  </g>
  <g id="axes_1">
   <g id="patch_2">
    <path d="M 57.6 307.584 
L 414.72 307.584 
L 414.72 41.472 
L 57.6 41.472 
z
" style="fill:#ffffff;"/>
   </g>
   <g id="PolyCollection_1">
    <path clip-path="url(#p1431e08643)" d="M 73.832727 307.584 
L 73.832727 307.584 
L 77.112066 307.584 
L 80.391405 307.584 
L 83.670744 307.584 
L 86.950083 307.584 
L 90.229421 307.584 
L 93.50876 307.584 
L 96.788099 307.584 
L 100.067438 307.584 
L 103.346777 307.584 
L 106.626116 307.584 
L 109.905455 307.584 
L 113.184793 307.584 
L 116.464132 307.584 
L 119.743471 307.584 
L 123.02281 307.584 
L 126.302149 307.584 
L 129.581488 307.584 
L 132.860826 307.584 
L 136.140165 307.584 
L 139.419504 307.584 
L 142.698843 307.584 
L 145.978182 307.584 
L 149.257521 307.584 
L 152.53686 307.584 
L 155.816198 307.584 
L 159.095537 307.584 
L 162.374876 307.584 
L 165.654215 307.584 
L 168.933554 307.584 
L 172.212893 307.584 
L 175.492231 307.584 
L 178.77157 307.584 
L 182.050909 307.584 
L 185.330248 307.584 
L 188.609587 307.584 
L 191.888926 307.584 
L 195.168264 307.584 
L 198.447603 307.584 
L 201.726942 307.584 
L 205.006281 307.584 
L 208.28562 307.584 
L 211.564959 307.584 
L 214.844298 307.584 
L 218.123636 307.584 
L 221.402975 307.584 
L 224.682314 307.584 
L 227.961653 307.584 
L 231.240992 307.584 
L 234.520331 307.584 
L 237.799669 307.584 
L 241.079008 307.584 
L 244.358347 307.584 
L 247.637686 307.584 
L 250.917025 307.584 
L 254.196364 307.584 
L 257.475702 307.584 
L 260.755041 307.584 
L 264.03438 307.584 
L 267.313719 307.584 
L 270.593058 307.584 
L 273.872397 307.584 
L 277.151736 307.584 
L 280.431074 307.584 
L 283.710413 307.584 
L 286.989752 307.584 
L 290.269091 307.584 
L 293.54843 307.584 
L 296.827769 307.584 
L 300.107107 307.584 
L 303.386446 307.584 
L 306.665785 307.584 
L 309.945124 307.584 
L 313.224463 307.584 
L 316.503802 307.584 
L 319.78314 307.584 
L 323.062479 307.584 
L 326.341818 307.584 
L 329.621157 307.584 
L 332.900496 307.584 
L 336.179835 307.584 
L 339.459174 307.584 
L 342.738512 307.584 
L 346.017851 307.584 
L 349.29719 307.584 
L 352.576529 307.584 
L 355.855868 307.584 
L 359.135207 307.584 
L 362.414545 307.584 
L 365.693884 307.584 
L 368.973223 307.584 
L 372.252562 307.584 
L 375.531901 307.584 
L 378.81124 307.584 
L 382.090579 307.584 
L 385.369917 307.584 
L 388.649256 307.584 
L 391.928595 307.584 
L 395.207934 307.584 
L 398.487273 307.584 
L 398.487273 307.584 
L 398.487273 307.584 
L 395.207934 307.584 
L 391.928595 307.584 
L 388.649256 307.584 
L 385.369917 307.584 
L 382.090579 307.584 
L 378.81124 307.584 
L 375.531901 307.584 
L 372.252562 307.584 
L 368.973223 307.584 
L 365.693884 307.584 
L 362.414545 307.584 
L 359.135207 307.584 
L 355.855868 307.584 
L 352.576529 307.584 
L 349.29719 307.584 
L 346.017851 307.584 
L 342.738512 307.584 
L 339.459174 307.584 
L 336.179835 307.584 
L 332.900496 307.584 
L 329.621157 307.584 
L 326.341818 307.584 
L 323.062479 307.584 
L 319.78314 307.584 
L 316.503802 307.584 
L 313.224463 307.584 
L 309.945124 307.584 
L 306.665785 307.584 
L 303.386446 307.584 
L 300.107107 307.584 
L 296.827769 307.584 
L 293.54843 307.584 
L 290.269091 307.584 
L 286.989752 307.584 
L 283.710413 307.584 
L 280.431074 307.584 
L 277.151736 307.584 
L 273.872397 307.584 
L 270.593058 307.584 
L 267.313719 307.584 
L 264.03438 307.584 
L 260.755041 307.584 
L 257.475702 307.584 
L 254.196364 307.584 
L 250.917025 307.584 
L 247.637686 307.584 
L 244.358347 307.584 
L 241.079008 307.584 
L 237.799669 307.584 
L 234.520331 307.584 
L 231.240992 307.584 
L 227.961653 307.584 
L 224.682314 307.584 
L 221.402975 307.584 
L 218.123636 307.584 
L 214.844298 307.584 
L 211.564959 307.584 
L 208.28562 307.584 
L 205.006281 307.584 
L 201.726942 307.584 
L 198.447603 307.584 
L 195.168264 307.584 
L 191.888926 307.584 
L 188.609587 307.584 
L 185.330248 307.584 
L 182.050909 307.584 
L 178.77157 307.584 
L 175.492231 307.584 
L 172.212893 307.584 
L 168.933554 307.584 
L 165.654215 307.584 
L 162.374876 307.584 
L 159.095537 307.584 
L 155.816198 307.584 
L 152.53686 307.584 
L 149.257521 307.584 
L 145.978182 307.584 
L 142.698843 307.584 
L 139.419504 307.584 
L 136.140165 307.584 
L 132.860826 307.584 
L 129.581488 307.584 
L 126.302149 307.584 
L 123.02281 307.584 
L 119.743471 307.584 
L 116.464132 307.584 
L 113.184793 307.584 
L 109.905455 307.584 
L 106.626116 307.584 
L 103.346777 307.584 
L 100.067438 307.584 
L 96.788099 307.584 
L 93.50876 307.584 
L 90.229421 307.584 
L 86.950083 307.584 
L 83.670744 307.584 
L 80.391405 307.584 
L 77.112066 307.584 
L 73.832727 307.584 
z
" style="fill:#c6dbef;"/>
   </g>
   <g id="PolyCollection_2">
    <path clip-path="url(#p1431e08643)" d="M 73.832727 271.559577 
L 73.832727 307.584 
L 77.112066 307.584 
L 80.391405 307.584 
L 83.670744 307.584 
L 86.950083 307.584 
L 90.229421 307.584 
L 93.50876 307.584 
L 96.788099 307.584 
L 100.067438 307.584 
L 103.346777 307.584 
L 106.626116 307.584 
L 109.905455 307.584 
L 113.184793 307.584 
L 116.464132 307.584 
L 119.743471 307.584 
L 123.02281 307.584 
L 126.302149 307.584 
L 129.581488 307.584 
L 132.860826 307.584 
L 136.140165 307.584 
L 139.419504 307.584 
L 142.698843 307.584 
L 145.978182 307.584 
L 149.257521 307.584 
L 152.53686 307.584 
L 155.816198 307.584 
L 159.095537 307.584 
L 162.374876 307.584 
L 165.654215 307.584 
L 168.933554 307.584 
L 172.212893 307.584 
L 175.492231 307.584 
L 178.77157 307.584 
L 182.050909 307.584 
L 185.330248 307.584 
L 188.609587 307.584 
L 191.888926 307.584 
L 195.168264 307.584 
L 198.447603 307.584 
L 201.726942 307.584 
L 205.006281 307.584 
L 208.28562 307.584 
L 211.564959 307.584 
L 214.844298 307.584 
L 218.123636 307.584 
L 221.402975 307.584 
L 224.682314 307.584 
L 227.961653 307.584 
L 231.240992 307.584 
L 234.520331 307.584 
L 237.799669 307.584 
L 241.079008 307.584 
L 244.358347 307.584 
L 247.637686 307.584 
L 250.917025 307.584 
L 254.196364 307.584 
L 257.475702 307.584 
L 260.755041 307.584 
L 264.03438 307.584 
L 267.313719 307.584 
L 270.593058 307.584 
L 273.872397 307.584 
L 277.151736 307.584 
L 280.431074 307.584 
L 283.710413 307.584 
L 286.989752 307.584 
L 290.269091 307.584 
L 293.54843 307.584 
L 296.827769 307.584 
L 300.107107 307.584 
L 303.386446 307.584 
L 306.665785 307.584 
L 309.945124 307.584 
L 313.224463 307.584 
L 316.503802 307.584 
L 319.78314 307.584 
L 323.062479 307.584 
L 326.341818 307.584 
L 329.621157 307.584 
L 332.900496 307.584 
L 336.179835 307.584 
L 339.459174 307.584 
L 342.738512 307.584 
L 346.017851 307.584 
L 349.29719 307.584 
L 352.576529 307.584 
L 355.855868 307.584 
L 359.135207 307.584 
L 362.414545 307.584 
L 365.693884 307.584 
L 368.973223 307.584 
L 372.252562 307.584 
L 375.531901 307.584 
L 378.81124 307.584 
L 382.090579 307.584 
L 385.369917 307.584 
L 388.649256 307.584 
L 391.928595 307.584 
L 395.207934 307.584 
L 398.487273 307.584 
L 398.487273 244.98453 
L 398.487273 244.98453 
L 395.207934 247.473481 
L 391.928595 259.946927 
L 388.649256 235.836427 
L 385.369917 255.888954 
L 382.090579 254.399796 
L 378.81124 267.397038 
L 375.531901 244.445012 
L 372.252562 248.003269 
L 368.973223 256.243029 
L 365.693884 261.632848 
L 362.414545 258.263638 
L 359.135207 274.041413 
L 355.855868 249.924141 
L 352.576529 244.665687 
L 349.29719 245.960766 
L 346.017851 243.423481 
L 342.738512 269.343829 
L 339.459174 258.269647 
L 336.179835 262.631786 
L 332.900496 260.998348 
L 329.621157 247.435676 
L 326.341818 264.009631 
L 323.062479 263.431647 
L 319.78314 241.964901 
L 316.503802 255.888954 
L 313.224463 258.609746 
L 309.945124 253.245457 
L 306.665785 259.420913 
L 303.386446 245.549944 
L 300.107107 272.772521 
L 296.827769 247.993168 
L 293.54843 262.453404 
L 290.269091 235.603556 
L 286.989752 237.901022 
L 283.710413 248.592656 
L 280.431074 251.697463 
L 277.151736 243.293206 
L 273.872397 248.839629 
L 270.593058 255.217589 
L 267.313719 249.446714 
L 264.03438 266.166604 
L 260.755041 255.199686 
L 257.475702 244.612697 
L 254.196364 257.773669 
L 250.917025 261.427709 
L 247.637686 244.283943 
L 244.358347 251.740586 
L 241.079008 248.195435 
L 237.799669 259.404738 
L 234.520331 260.46251 
L 231.240992 255.30811 
L 227.961653 253.859356 
L 224.682314 252.532132 
L 221.402975 244.511097 
L 218.123636 261.144006 
L 214.844298 256.569152 
L 211.564959 250.14506 
L 208.28562 256.878333 
L 205.006281 267.643015 
L 201.726942 256.617053 
L 198.447603 258.248479 
L 195.168264 254.67649 
L 191.888926 257.637095 
L 188.609587 256.554555 
L 185.330248 256.878333 
L 182.050909 265.701439 
L 178.77157 244.567311 
L 175.492231 253.591396 
L 172.212893 247.253397 
L 168.933554 265.53049 
L 165.654215 258.493743 
L 162.374876 257.219341 
L 159.095537 251.956677 
L 155.816198 259.779979 
L 152.53686 257.998956 
L 149.257521 263.019305 
L 145.978182 252.442617 
L 142.698843 257.300422 
L 139.419504 253.263461 
L 136.140165 261.526969 
L 132.860826 267.056525 
L 129.581488 254.368511 
L 126.302149 258.591963 
L 123.02281 273.398566 
L 119.743471 259.603568 
L 116.464132 253.127794 
L 113.184793 268.584527 
L 109.905455 270.146909 
L 106.626116 258.786316 
L 103.346777 261.796959 
L 100.067438 259.854199 
L 96.788099 269.688599 
L 93.50876 260.946792 
L 90.229421 261.357951 
L 86.950083 268.720182 
L 83.670744 261.281181 
L 80.391405 261.845584 
L 77.112066 263.109517 
L 73.832727 271.559577 
z
" style="fill:#9ecae1;"/>
   </g>
   <g id="PolyCollection_3">
    <path clip-path="url(#p1431e08643)" d="M 73.832727 144.573488 
L 73.832727 271.559577 
L 77.112066 263.109517 
L 80.391405 261.845584 
L 83.670744 261.281181 
L 86.950083 268.720182 
L 90.229421 261.357951 
L 93.50876 260.946792 
L 96.788099 269.688599 
L 100.067438 259.854199 
L 103.346777 261.796959 
L 106.626116 258.786316 
L 109.905455 270.146909 
L 113.184793 268.584527 
L 116.464132 253.127794 
L 119.743471 259.603568 
L 123.02281 273.398566 
L 126.302149 258.591963 
L 129.581488 254.368511 
L 132.860826 267.056525 
L 136.140165 261.526969 
L 139.419504 253.263461 
L 142.698843 257.300422 
L 145.978182 252.442617 
L 149.257521 263.019305 
L 152.53686 257.998956 
L 155.816198 259.779979 
L 159.095537 251.956677 
L 162.374876 257.219341 
L 165.654215 258.493743 
L 168.933554 265.53049 
L 172.212893 247.253397 
L 175.492231 253.591396 
L 178.77157 244.567311 
L 182.050909 265.701439 
L 185.330248 256.878333 
L 188.609587 256.554555 
L 191.888926 257.637095 
L 195.168264 254.67649 
L 198.447603 258.248479 
L 201.726942 256.617053 
L 205.006281 267.643015 
L 208.28562 256.878333 
L 211.564959 250.14506 
L 214.844298 256.569152 
L 218.123636 261.144006 
L 221.402975 244.511097 
L 224.682314 252.532132 
L 227.961653 253.859356 
L 231.240992 255.30811 
L 234.520331 260.46251 
L 237.799669 259.404738 
L 241.079008 248.195435 
L 244.358347 251.740586 
L 247.637686 244.283943 
L 250.917025 261.427709 
L 254.196364 257.773669 
L 257.475702 244.612697 
L 260.755041 255.199686 
L 264.03438 266.166604 
L 267.313719 249.446714 
L 270.593058 255.217589 
L 273.872397 248.839629 
L 277.151736 243.293206 
L 280.431074 251.697463 
L 283.710413 248.592656 
L 286.989752 237.901022 
L 290.269091 235.603556 
L 293.54843 262.453404 
L 296.827769 247.993168 
L 300.107107 272.772521 
L 303.386446 245.549944 
L 306.665785 259.420913 
L 309.945124 253.245457 
L 313.224463 258.609746 
L 316.503802 255.888954 
L 319.78314 241.964901 
L 323.062479 263.431647 
L 326.341818 264.009631 
L 329.621157 247.435676 
L 332.900496 260.998348 
L 336.179835 262.631786 
L 339.459174 258.269647 
L 342.738512 269.343829 
L 346.017851 243.423481 
L 349.29719 245.960766 
L 352.576529 244.665687 
L 355.855868 249.924141 
L 359.135207 274.041413 
L 362.414545 258.263638 
L 365.693884 261.632848 
L 368.973223 256.243029 
L 372.252562 248.003269 
L 375.531901 244.445012 
L 378.81124 267.397038 
L 382.090579 254.399796 
L 385.369917 255.888954 
L 388.649256 235.836427 
L 391.928595 259.946927 
L 395.207934 247.473481 
L 398.487273 244.98453 
L 398.487273 89.495523 
L 398.487273 89.495523 
L 395.207934 92.903575 
L 391.928595 109.978362 
L 388.649256 105.21905 
L 385.369917 100.803815 
L 382.090579 90.592447 
L 378.81124 119.435951 
L 375.531901 88.570636 
L 372.252562 102.556189 
L 368.973223 107.531252 
L 365.693884 94.239364 
L 362.414545 113.955911 
L 359.135207 98.436103 
L 355.855868 86.885917 
L 352.576529 96.722627 
L 349.29719 95.326194 
L 346.017851 109.602971 
L 342.738512 88.057091 
L 339.459174 91.621142 
L 336.179835 113.472166 
L 332.900496 103.208235 
L 329.621157 104.380201 
L 326.341818 113.479995 
L 323.062479 99.700006 
L 319.78314 107.525771 
L 316.503802 91.110993 
L 313.224463 97.176092 
L 309.945124 97.572874 
L 306.665785 110.115345 
L 303.386446 106.71182 
L 300.107107 105.677422 
L 296.827769 104.975173 
L 293.54843 110.65049 
L 290.269091 98.186344 
L 286.989752 90.432395 
L 283.710413 99.561892 
L 280.431074 98.009488 
L 277.151736 87.158422 
L 273.872397 87.712212 
L 270.593058 91.404715 
L 267.313719 90.747635 
L 264.03438 88.225198 
L 260.755041 100.803815 
L 257.475702 96.703358 
L 254.196364 108.342675 
L 250.917025 87.352553 
L 247.637686 98.090955 
L 244.358347 87.401395 
L 241.079008 88.926102 
L 237.799669 114.866951 
L 234.520331 108.010631 
L 231.240992 101.384658 
L 227.961653 105.818115 
L 224.682314 112.888371 
L 221.402975 97.340988 
L 218.123636 110.825077 
L 214.844298 122.796883 
L 211.564959 93.145289 
L 208.28562 105.998054 
L 205.006281 101.032049 
L 201.726942 109.783705 
L 198.447603 99.516801 
L 195.168264 115.794276 
L 191.888926 107.796381 
L 188.609587 106.794228 
L 185.330248 102.287883 
L 182.050909 105.351064 
L 178.77157 105.71698 
L 175.492231 101.952593 
L 172.212893 104.116083 
L 168.933554 118.856053 
L 165.654215 114.228497 
L 162.374876 108.025917 
L 159.095537 108.092912 
L 155.816198 113.03275 
L 152.53686 118.738831 
L 149.257521 111.499341 
L 145.978182 115.573828 
L 142.698843 108.214026 
L 139.419504 111.124717 
L 136.140165 105.091883 
L 132.860826 113.052118 
L 129.581488 112.967355 
L 126.302149 111.61585 
L 123.02281 129.152711 
L 119.743471 112.566759 
L 116.464132 118.137762 
L 113.184793 125.033274 
L 109.905455 124.381216 
L 106.626116 124.592685 
L 103.346777 119.266331 
L 100.067438 129.882278 
L 96.788099 120.967028 
L 93.50876 119.721443 
L 90.229421 131.143728 
L 86.950083 124.985746 
L 83.670744 132.922732 
L 80.391405 129.416916 
L 77.112066 131.255755 
L 73.832727 144.573488 
z
" style="fill:#6baed6;"/>
   </g>
   <g id="PolyCollection_4">
    <path clip-path="url(#p1431e08643)" d="M 73.832727 91.88777 
L 73.832727 144.573488 
L 77.112066 131.255755 
L 80.391405 129.416916 
L 83.670744 132.922732 
L 86.950083 124.985746 
L 90.229421 131.143728 
L 93.50876 119.721443 
L 96.788099 120.967028 
L 100.067438 129.882278 
L 103.346777 119.266331 
L 106.626116 124.592685 
L 109.905455 124.381216 
L 113.184793 125.033274 
L 116.464132 118.137762 
L 119.743471 112.566759 
L 123.02281 129.152711 
L 126.302149 111.61585 
L 129.581488 112.967355 
L 132.860826 113.052118 
L 136.140165 105.091883 
L 139.419504 111.124717 
L 142.698843 108.214026 
L 145.978182 115.573828 
L 149.257521 111.499341 
L 152.53686 118.738831 
L 155.816198 113.03275 
L 159.095537 108.092912 
L 162.374876 108.025917 
L 165.654215 114.228497 
L 168.933554 118.856053 
L 172.212893 104.116083 
L 175.492231 101.952593 
L 178.77157 105.71698 
L 182.050909 105.351064 
L 185.330248 102.287883 
L 188.609587 106.794228 
L 191.888926 107.796381 
L 195.168264 115.794276 
L 198.447603 99.516801 
L 201.726942 109.783705 
L 205.006281 101.032049 
L 208.28562 105.998054 
L 211.564959 93.145289 
L 214.844298 122.796883 
L 218.123636 110.825077 
L 221.402975 97.340988 
L 224.682314 112.888371 
L 227.961653 105.818115 
L 231.240992 101.384658 
L 234.520331 108.010631 
L 237.799669 114.866951 
L 241.079008 88.926102 
L 244.358347 87.401395 
L 247.637686 98.090955 
L 250.917025 87.352553 
L 254.196364 108.342675 
L 257.475702 96.703358 
L 260.755041 100.803815 
L 264.03438 88.225198 
L 267.313719 90.747635 
L 270.593058 91.404715 
L 273.872397 87.712212 
L 277.151736 87.158422 
L 280.431074 98.009488 
L 283.710413 99.561892 
L 286.989752 90.432395 
L 290.269091 98.186344 
L 293.54843 110.65049 
L 296.827769 104.975173 
L 300.107107 105.677422 
L 303.386446 106.71182 
L 306.665785 110.115345 
L 309.945124 97.572874 
L 313.224463 97.176092 
L 316.503802 91.110993 
L 319.78314 107.525771 
L 323.062479 99.700006 
L 326.341818 113.479995 
L 329.621157 104.380201 
L 332.900496 103.208235 
L 336.179835 113.472166 
L 339.459174 91.621142 
L 342.738512 88.057091 
L 346.017851 109.602971 
L 349.29719 95.326194 
L 352.576529 96.722627 
L 355.855868 86.885917 
L 359.135207 98.436103 
L 362.414545 113.955911 
L 365.693884 94.239364 
L 368.973223 107.531252 
L 372.252562 102.556189 
L 375.531901 88.570636 
L 378.81124 119.435951 
L 382.090579 90.592447 
L 385.369917 100.803815 
L 388.649256 105.21905 
L 391.928595 109.978362 
L 395.207934 92.903575 
L 398.487273 89.495523 
L 398.487273 69.302146 
L 398.487273 69.302146 
L 395.207934 60.27215 
L 391.928595 64.105625 
L 388.649256 62.906378 
L 385.369917 69.786787 
L 382.090579 60.809293 
L 378.81124 84.72903 
L 375.531901 64.893515 
L 372.252562 71.013449 
L 368.973223 73.894064 
L 365.693884 59.776 
L 362.414545 68.288909 
L 359.135207 66.866609 
L 355.855868 72.96802 
L 352.576529 66.113718 
L 349.29719 64.514577 
L 346.017851 72.939818 
L 342.738512 65.396249 
L 339.459174 66.113718 
L 336.179835 78.736364 
L 332.900496 70.14745 
L 329.621157 65.365072 
L 326.341818 69.905626 
L 323.062479 68.425423 
L 319.78314 73.915989 
L 316.503802 65.26347 
L 313.224463 60.898867 
L 309.945124 60.857642 
L 306.665785 76.401184 
L 303.386446 62.40178 
L 300.107107 70.865943 
L 296.827769 64.751361 
L 293.54843 70.990269 
L 290.269091 63.832041 
L 286.989752 62.88331 
L 283.710413 76.275835 
L 280.431074 71.463383 
L 277.151736 63.541395 
L 273.872397 60.857642 
L 270.593058 67.235603 
L 267.313719 64.035909 
L 264.03438 62.147578 
L 260.755041 63.583381 
L 257.475702 67.41438 
L 254.196364 66.609695 
L 250.917025 62.29628 
L 247.637686 75.483792 
L 244.358347 61.872977 
L 241.079008 56.532339 
L 237.799669 75.802684 
L 234.520331 70.590624 
L 231.240992 75.246713 
L 227.961653 78.358852 
L 224.682314 71.263788 
L 221.402975 62.712728 
L 218.123636 66.829292 
L 214.844298 83.118667 
L 211.564959 66.34045 
L 208.28562 68.896346 
L 205.006281 73.643945 
L 201.726942 74.592242 
L 198.447603 63.051416 
L 195.168264 75.011403 
L 191.888926 72.833548 
L 188.609587 75.732826 
L 185.330248 65.186175 
L 182.050909 69.451726 
L 178.77157 72.606517 
L 175.492231 66.34045 
L 172.212893 67.44454 
L 168.933554 73.725457 
L 165.654215 76.158502 
L 162.374876 74.766236 
L 159.095537 69.729241 
L 155.816198 83.016272 
L 152.53686 83.923799 
L 149.257521 74.956291 
L 145.978182 83.079799 
L 142.698843 72.927305 
L 139.419504 74.911024 
L 136.140165 67.769806 
L 132.860826 74.325864 
L 129.581488 70.394964 
L 126.302149 80.362309 
L 123.02281 80.792829 
L 119.743471 77.742252 
L 116.464132 80.55531 
L 113.184793 80.225369 
L 109.905455 80.571855 
L 106.626116 78.082393 
L 103.346777 79.387295 
L 100.067438 84.355391 
L 96.788099 81.641612 
L 93.50876 78.995993 
L 90.229421 75.802684 
L 86.950083 82.420612 
L 83.670744 86.033801 
L 80.391405 83.146659 
L 77.112066 92.013564 
L 73.832727 91.88777 
z
" style="fill:#3182bd;"/>
   </g>
   <g id="PolyCollection_5">
    <path clip-path="url(#p1431e08643)" d="M 73.832727 89.185938 
L 73.832727 91.88777 
L 77.112066 92.013564 
L 80.391405 83.146659 
L 83.670744 86.033801 
L 86.950083 82.420612 
L 90.229421 75.802684 
L 93.50876 78.995993 
L 96.788099 81.641612 
L 100.067438 84.355391 
L 103.346777 79.387295 
L 106.626116 78.082393 
L 109.905455 80.571855 
L 113.184793 80.225369 
L 116.464132 80.55531 
L 119.743471 77.742252 
L 123.02281 80.792829 
L 126.302149 80.362309 
L 129.581488 70.394964 
L 132.860826 74.325864 
L 136.140165 67.769806 
L 139.419504 74.911024 
L 142.698843 72.927305 
L 145.978182 83.079799 
L 149.257521 74.956291 
L 152.53686 83.923799 
L 155.816198 83.016272 
L 159.095537 69.729241 
L 162.374876 74.766236 
L 165.654215 76.158502 
L 168.933554 73.725457 
L 172.212893 67.44454 
L 175.492231 66.34045 
L 178.77157 72.606517 
L 182.050909 69.451726 
L 185.330248 65.186175 
L 188.609587 75.732826 
L 191.888926 72.833548 
L 195.168264 75.011403 
L 198.447603 63.051416 
L 201.726942 74.592242 
L 205.006281 73.643945 
L 208.28562 68.896346 
L 211.564959 66.34045 
L 214.844298 83.118667 
L 218.123636 66.829292 
L 221.402975 62.712728 
L 224.682314 71.263788 
L 227.961653 78.358852 
L 231.240992 75.246713 
L 234.520331 70.590624 
L 237.799669 75.802684 
L 241.079008 56.532339 
L 244.358347 61.872977 
L 247.637686 75.483792 
L 250.917025 62.29628 
L 254.196364 66.609695 
L 257.475702 67.41438 
L 260.755041 63.583381 
L 264.03438 62.147578 
L 267.313719 64.035909 
L 270.593058 67.235603 
L 273.872397 60.857642 
L 277.151736 63.541395 
L 280.431074 71.463383 
L 283.710413 76.275835 
L 286.989752 62.88331 
L 290.269091 63.832041 
L 293.54843 70.990269 
L 296.827769 64.751361 
L 300.107107 70.865943 
L 303.386446 62.40178 
L 306.665785 76.401184 
L 309.945124 60.857642 
L 313.224463 60.898867 
L 316.503802 65.26347 
L 319.78314 73.915989 
L 323.062479 68.425423 
L 326.341818 69.905626 
L 329.621157 65.365072 
L 332.900496 70.14745 
L 336.179835 78.736364 
L 339.459174 66.113718 
L 342.738512 65.396249 
L 346.017851 72.939818 
L 349.29719 64.514577 
L 352.576529 66.113718 
L 355.855868 72.96802 
L 359.135207 66.866609 
L 362.414545 68.288909 
L 365.693884 59.776 
L 368.973223 73.894064 
L 372.252562 71.013449 
L 375.531901 64.893515 
L 378.81124 84.72903 
L 382.090579 60.809293 
L 385.369917 69.786787 
L 388.649256 62.906378 
L 391.928595 64.105625 
L 395.207934 60.27215 
L 398.487273 69.302146 
L 398.487273 65.26347 
L 398.487273 65.26347 
L 395.207934 56.837264 
L 391.928595 62.341289 
L 388.649256 55.547653 
L 385.369917 62.894114 
L 382.090579 58.681925 
L 378.81124 75.595629 
L 375.531901 55.028048 
L 372.252562 65.756326 
L 368.973223 68.58293 
L 365.693884 54.852662 
L 362.414545 62.808869 
L 359.135207 62.920422 
L 355.855868 65.014936 
L 352.576529 59.311738 
L 349.29719 62.80282 
L 346.017851 65.607187 
L 342.738512 59.731038 
L 339.459174 62.712728 
L 336.179835 72.606517 
L 332.900496 65.639161 
L 329.621157 62.113811 
L 326.341818 60.00236 
L 323.062479 61.066697 
L 319.78314 72.315523 
L 316.503802 62.03253 
L 313.224463 60.898867 
L 309.945124 57.920424 
L 306.665785 73.190312 
L 303.386446 57.970776 
L 300.107107 60.422499 
L 296.827769 60.282049 
L 293.54843 66.887488 
L 290.269091 62.196122 
L 286.989752 58.021707 
L 283.710413 71.618623 
L 280.431074 61.683239 
L 277.151736 59.605224 
L 273.872397 54.144 
L 270.593058 63.207417 
L 267.313719 60.893353 
L 264.03438 56.011668 
L 260.755041 63.583381 
L 257.475702 61.556584 
L 254.196364 61.224795 
L 250.917025 57.021275 
L 247.637686 67.948071 
L 244.358347 57.086399 
L 241.079008 55.182599 
L 237.799669 71.896257 
L 234.520331 66.432845 
L 231.240992 67.986173 
L 227.961653 72.389447 
L 224.682314 63.207417 
L 221.402975 57.765833 
L 218.123636 63.162977 
L 214.844298 71.782034 
L 211.564959 59.958346 
L 208.28562 62.712728 
L 205.006281 70.220432 
L 201.726942 67.311249 
L 198.447603 58.76137 
L 195.168264 70.602444 
L 191.888926 65.341512 
L 188.609587 69.076812 
L 185.330248 57.765833 
L 182.050909 64.665148 
L 178.77157 68.334199 
L 175.492231 60.596556 
L 172.212893 63.895681 
L 168.933554 63.468503 
L 165.654215 71.149292 
L 162.374876 68.1143 
L 159.095537 67.811058 
L 155.816198 78.569386 
L 152.53686 74.428791 
L 149.257521 69.608528 
L 145.978182 77.171793 
L 142.698843 66.752129 
L 139.419504 69.47897 
L 136.140165 59.034852 
L 132.860826 67.120979 
L 129.581488 67.354079 
L 126.302149 75.294168 
L 123.02281 74.956291 
L 119.743471 69.229595 
L 116.464132 72.885422 
L 113.184793 73.587161 
L 109.905455 71.013449 
L 106.626116 68.170363 
L 103.346777 73.47929 
L 100.067438 77.012344 
L 96.788099 71.631506 
L 93.50876 74.397959 
L 90.229421 66.036617 
L 86.950083 74.401094 
L 83.670744 79.000462 
L 80.391405 76.232712 
L 77.112066 83.641896 
L 73.832727 89.185938 
z
" style="fill:#0e5a90;"/>
   </g>
   <g id="matplotlib.axis_1">
    <g id="xtick_1">
     <g id="line2d_1">
      <defs>
       <path d="M 0 0 
L 0 3.5 
" id="m06cf1fecd0" style="stroke:#000000;stroke-width:0.8;"/>
      </defs>
      <g>
       <use style="stroke:#000000;stroke-width:0.8;" x="70.553388" xlink:href="#m06cf1fecd0" y="307.584"/>
      </g>
     </g>
     <g id="text_1">
      <!-- 0 -->
      <defs>
       <path d="M 31.78125 66.40625 
Q 24.171875 66.40625 20.328125 58.90625 
Q 16.5 51.421875 16.5 36.375 
Q 16.5 21.390625 20.328125 13.890625 
Q 24.171875 6.390625 31.78125 6.390625 
Q 39.453125 6.390625 43.28125 13.890625 
Q 47.125 21.390625 47.125 36.375 
Q 47.125 51.421875 43.28125 58.90625 
Q 39.453125 66.40625 31.78125 66.40625 
z
M 31.78125 74.21875 
Q 44.046875 74.21875 50.515625 64.515625 
Q 56.984375 54.828125 56.984375 36.375 
Q 56.984375 17.96875 50.515625 8.265625 
Q 44.046875 -1.421875 31.78125 -1.421875 
Q 19.53125 -1.421875 13.0625 8.265625 
Q 6.59375 17.96875 6.59375 36.375 
Q 6.59375 54.828125 13.0625 64.515625 
Q 19.53125 74.21875 31.78125 74.21875 
z
" id="DejaVuSans-30"/>
      </defs>
      <g transform="translate(67.372138 322.182437)scale(0.1 -0.1)">
       <use xlink:href="#DejaVuSans-30"/>
      </g>
     </g>
    </g>
    <g id="xtick_2">
     <g id="line2d_2">
      <g>
       <use style="stroke:#000000;stroke-width:0.8;" x="136.140165" xlink:href="#m06cf1fecd0" y="307.584"/>
      </g>
     </g>
     <g id="text_2">
      <!-- 200000 -->
      <defs>
       <path d="M 19.1875 8.296875 
L 53.609375 8.296875 
L 53.609375 0 
L 7.328125 0 
L 7.328125 8.296875 
Q 12.9375 14.109375 22.625 23.890625 
Q 32.328125 33.6875 34.8125 36.53125 
Q 39.546875 41.84375 41.421875 45.53125 
Q 43.3125 49.21875 43.3125 52.78125 
Q 43.3125 58.59375 39.234375 62.25 
Q 35.15625 65.921875 28.609375 65.921875 
Q 23.96875 65.921875 18.8125 64.3125 
Q 13.671875 62.703125 7.8125 59.421875 
L 7.8125 69.390625 
Q 13.765625 71.78125 18.9375 73 
Q 24.125 74.21875 28.421875 74.21875 
Q 39.75 74.21875 46.484375 68.546875 
Q 53.21875 62.890625 53.21875 53.421875 
Q 53.21875 48.921875 51.53125 44.890625 
Q 49.859375 40.875 45.40625 35.40625 
Q 44.1875 33.984375 37.640625 27.21875 
Q 31.109375 20.453125 19.1875 8.296875 
z
" id="DejaVuSans-32"/>
      </defs>
      <g transform="translate(117.052665 322.182437)scale(0.1 -0.1)">
       <use xlink:href="#DejaVuSans-32"/>
       <use x="63.623047" xlink:href="#DejaVuSans-30"/>
       <use x="127.246094" xlink:href="#DejaVuSans-30"/>
       <use x="190.869141" xlink:href="#DejaVuSans-30"/>
       <use x="254.492188" xlink:href="#DejaVuSans-30"/>
       <use x="318.115234" xlink:href="#DejaVuSans-30"/>
      </g>
     </g>
    </g>
    <g id="xtick_3">
     <g id="line2d_3">
      <g>
       <use style="stroke:#000000;stroke-width:0.8;" x="201.726942" xlink:href="#m06cf1fecd0" y="307.584"/>
      </g>
     </g>
     <g id="text_3">
      <!-- 400000 -->
      <defs>
       <path d="M 37.796875 64.3125 
L 12.890625 25.390625 
L 37.796875 25.390625 
z
M 35.203125 72.90625 
L 47.609375 72.90625 
L 47.609375 25.390625 
L 58.015625 25.390625 
L 58.015625 17.1875 
L 47.609375 17.1875 
L 47.609375 0 
L 37.796875 0 
L 37.796875 17.1875 
L 4.890625 17.1875 
L 4.890625 26.703125 
z
" id="DejaVuSans-34"/>
      </defs>
      <g transform="translate(182.639442 322.182437)scale(0.1 -0.1)">
       <use xlink:href="#DejaVuSans-34"/>
       <use x="63.623047" xlink:href="#DejaVuSans-30"/>
       <use x="127.246094" xlink:href="#DejaVuSans-30"/>
       <use x="190.869141" xlink:href="#DejaVuSans-30"/>
       <use x="254.492188" xlink:href="#DejaVuSans-30"/>
       <use x="318.115234" xlink:href="#DejaVuSans-30"/>
      </g>
     </g>
    </g>
    <g id="xtick_4">
     <g id="line2d_4">
      <g>
       <use style="stroke:#000000;stroke-width:0.8;" x="267.313719" xlink:href="#m06cf1fecd0" y="307.584"/>
      </g>
     </g>
     <g id="text_4">
      <!-- 600000 -->
      <defs>
       <path d="M 33.015625 40.375 
Q 26.375 40.375 22.484375 35.828125 
Q 18.609375 31.296875 18.609375 23.390625 
Q 18.609375 15.53125 22.484375 10.953125 
Q 26.375 6.390625 33.015625 6.390625 
Q 39.65625 6.390625 43.53125 10.953125 
Q 47.40625 15.53125 47.40625 23.390625 
Q 47.40625 31.296875 43.53125 35.828125 
Q 39.65625 40.375 33.015625 40.375 
z
M 52.59375 71.296875 
L 52.59375 62.3125 
Q 48.875 64.0625 45.09375 64.984375 
Q 41.3125 65.921875 37.59375 65.921875 
Q 27.828125 65.921875 22.671875 59.328125 
Q 17.53125 52.734375 16.796875 39.40625 
Q 19.671875 43.65625 24.015625 45.921875 
Q 28.375 48.1875 33.59375 48.1875 
Q 44.578125 48.1875 50.953125 41.515625 
Q 57.328125 34.859375 57.328125 23.390625 
Q 57.328125 12.15625 50.6875 5.359375 
Q 44.046875 -1.421875 33.015625 -1.421875 
Q 20.359375 -1.421875 13.671875 8.265625 
Q 6.984375 17.96875 6.984375 36.375 
Q 6.984375 53.65625 15.1875 63.9375 
Q 23.390625 74.21875 37.203125 74.21875 
Q 40.921875 74.21875 44.703125 73.484375 
Q 48.484375 72.75 52.59375 71.296875 
z
" id="DejaVuSans-36"/>
      </defs>
      <g transform="translate(248.226219 322.182437)scale(0.1 -0.1)">
       <use xlink:href="#DejaVuSans-36"/>
       <use x="63.623047" xlink:href="#DejaVuSans-30"/>
       <use x="127.246094" xlink:href="#DejaVuSans-30"/>
       <use x="190.869141" xlink:href="#DejaVuSans-30"/>
       <use x="254.492188" xlink:href="#DejaVuSans-30"/>
       <use x="318.115234" xlink:href="#DejaVuSans-30"/>
      </g>
     </g>
    </g>
    <g id="xtick_5">
     <g id="line2d_5">
      <g>
       <use style="stroke:#000000;stroke-width:0.8;" x="332.900496" xlink:href="#m06cf1fecd0" y="307.584"/>
      </g>
     </g>
     <g id="text_5">
      <!-- 800000 -->
      <defs>
       <path d="M 31.78125 34.625 
Q 24.75 34.625 20.71875 30.859375 
Q 16.703125 27.09375 16.703125 20.515625 
Q 16.703125 13.921875 20.71875 10.15625 
Q 24.75 6.390625 31.78125 6.390625 
Q 38.8125 6.390625 42.859375 10.171875 
Q 46.921875 13.96875 46.921875 20.515625 
Q 46.921875 27.09375 42.890625 30.859375 
Q 38.875 34.625 31.78125 34.625 
z
M 21.921875 38.8125 
Q 15.578125 40.375 12.03125 44.71875 
Q 8.5 49.078125 8.5 55.328125 
Q 8.5 64.0625 14.71875 69.140625 
Q 20.953125 74.21875 31.78125 74.21875 
Q 42.671875 74.21875 48.875 69.140625 
Q 55.078125 64.0625 55.078125 55.328125 
Q 55.078125 49.078125 51.53125 44.71875 
Q 48 40.375 41.703125 38.8125 
Q 48.828125 37.15625 52.796875 32.3125 
Q 56.78125 27.484375 56.78125 20.515625 
Q 56.78125 9.90625 50.3125 4.234375 
Q 43.84375 -1.421875 31.78125 -1.421875 
Q 19.734375 -1.421875 13.25 4.234375 
Q 6.78125 9.90625 6.78125 20.515625 
Q 6.78125 27.484375 10.78125 32.3125 
Q 14.796875 37.15625 21.921875 38.8125 
z
M 18.3125 54.390625 
Q 18.3125 48.734375 21.84375 45.5625 
Q 25.390625 42.390625 31.78125 42.390625 
Q 38.140625 42.390625 41.71875 45.5625 
Q 45.3125 48.734375 45.3125 54.390625 
Q 45.3125 60.0625 41.71875 63.234375 
Q 38.140625 66.40625 31.78125 66.40625 
Q 25.390625 66.40625 21.84375 63.234375 
Q 18.3125 60.0625 18.3125 54.390625 
z
" id="DejaVuSans-38"/>
      </defs>
      <g transform="translate(313.812996 322.182437)scale(0.1 -0.1)">
       <use xlink:href="#DejaVuSans-38"/>
       <use x="63.623047" xlink:href="#DejaVuSans-30"/>
       <use x="127.246094" xlink:href="#DejaVuSans-30"/>
       <use x="190.869141" xlink:href="#DejaVuSans-30"/>
       <use x="254.492188" xlink:href="#DejaVuSans-30"/>
       <use x="318.115234" xlink:href="#DejaVuSans-30"/>
      </g>
     </g>
    </g>
    <g id="xtick_6">
     <g id="line2d_6">
      <g>
       <use style="stroke:#000000;stroke-width:0.8;" x="398.487273" xlink:href="#m06cf1fecd0" y="307.584"/>
      </g>
     </g>
     <g id="text_6">
      <!-- 1000000 -->
      <defs>
       <path d="M 12.40625 8.296875 
L 28.515625 8.296875 
L 28.515625 63.921875 
L 10.984375 60.40625 
L 10.984375 69.390625 
L 28.421875 72.90625 
L 38.28125 72.90625 
L 38.28125 8.296875 
L 54.390625 8.296875 
L 54.390625 0 
L 12.40625 0 
z
" id="DejaVuSans-31"/>
      </defs>
      <g transform="translate(376.218523 322.182437)scale(0.1 -0.1)">
       <use xlink:href="#DejaVuSans-31"/>
       <use x="63.623047" xlink:href="#DejaVuSans-30"/>
       <use x="127.246094" xlink:href="#DejaVuSans-30"/>
       <use x="190.869141" xlink:href="#DejaVuSans-30"/>
       <use x="254.492188" xlink:href="#DejaVuSans-30"/>
       <use x="318.115234" xlink:href="#DejaVuSans-30"/>
       <use x="381.738281" xlink:href="#DejaVuSans-30"/>
      </g>
     </g>
    </g>
    <g id="text_7">
     <!-- alexa rank -->
     <defs>
      <path d="M 34.28125 27.484375 
Q 23.390625 27.484375 19.1875 25 
Q 14.984375 22.515625 14.984375 16.5 
Q 14.984375 11.71875 18.140625 8.90625 
Q 21.296875 6.109375 26.703125 6.109375 
Q 34.1875 6.109375 38.703125 11.40625 
Q 43.21875 16.703125 43.21875 25.484375 
L 43.21875 27.484375 
z
M 52.203125 31.203125 
L 52.203125 0 
L 43.21875 0 
L 43.21875 8.296875 
Q 40.140625 3.328125 35.546875 0.953125 
Q 30.953125 -1.421875 24.3125 -1.421875 
Q 15.921875 -1.421875 10.953125 3.296875 
Q 6 8.015625 6 15.921875 
Q 6 25.140625 12.171875 29.828125 
Q 18.359375 34.515625 30.609375 34.515625 
L 43.21875 34.515625 
L 43.21875 35.40625 
Q 43.21875 41.609375 39.140625 45 
Q 35.0625 48.390625 27.6875 48.390625 
Q 23 48.390625 18.546875 47.265625 
Q 14.109375 46.140625 10.015625 43.890625 
L 10.015625 52.203125 
Q 14.9375 54.109375 19.578125 55.046875 
Q 24.21875 56 28.609375 56 
Q 40.484375 56 46.34375 49.84375 
Q 52.203125 43.703125 52.203125 31.203125 
z
" id="DejaVuSans-61"/>
      <path d="M 9.421875 75.984375 
L 18.40625 75.984375 
L 18.40625 0 
L 9.421875 0 
z
" id="DejaVuSans-6c"/>
      <path d="M 56.203125 29.59375 
L 56.203125 25.203125 
L 14.890625 25.203125 
Q 15.484375 15.921875 20.484375 11.0625 
Q 25.484375 6.203125 34.421875 6.203125 
Q 39.59375 6.203125 44.453125 7.46875 
Q 49.3125 8.734375 54.109375 11.28125 
L 54.109375 2.78125 
Q 49.265625 0.734375 44.1875 -0.34375 
Q 39.109375 -1.421875 33.890625 -1.421875 
Q 20.796875 -1.421875 13.15625 6.1875 
Q 5.515625 13.8125 5.515625 26.8125 
Q 5.515625 40.234375 12.765625 48.109375 
Q 20.015625 56 32.328125 56 
Q 43.359375 56 49.78125 48.890625 
Q 56.203125 41.796875 56.203125 29.59375 
z
M 47.21875 32.234375 
Q 47.125 39.59375 43.09375 43.984375 
Q 39.0625 48.390625 32.421875 48.390625 
Q 24.90625 48.390625 20.390625 44.140625 
Q 15.875 39.890625 15.1875 32.171875 
z
" id="DejaVuSans-65"/>
      <path d="M 54.890625 54.6875 
L 35.109375 28.078125 
L 55.90625 0 
L 45.3125 0 
L 29.390625 21.484375 
L 13.484375 0 
L 2.875 0 
L 24.125 28.609375 
L 4.6875 54.6875 
L 15.28125 54.6875 
L 29.78125 35.203125 
L 44.28125 54.6875 
z
" id="DejaVuSans-78"/>
      <path id="DejaVuSans-20"/>
      <path d="M 41.109375 46.296875 
Q 39.59375 47.171875 37.8125 47.578125 
Q 36.03125 48 33.890625 48 
Q 26.265625 48 22.1875 43.046875 
Q 18.109375 38.09375 18.109375 28.8125 
L 18.109375 0 
L 9.078125 0 
L 9.078125 54.6875 
L 18.109375 54.6875 
L 18.109375 46.1875 
Q 20.953125 51.171875 25.484375 53.578125 
Q 30.03125 56 36.53125 56 
Q 37.453125 56 38.578125 55.875 
Q 39.703125 55.765625 41.0625 55.515625 
z
" id="DejaVuSans-72"/>
      <path d="M 54.890625 33.015625 
L 54.890625 0 
L 45.90625 0 
L 45.90625 32.71875 
Q 45.90625 40.484375 42.875 44.328125 
Q 39.84375 48.1875 33.796875 48.1875 
Q 26.515625 48.1875 22.3125 43.546875 
Q 18.109375 38.921875 18.109375 30.90625 
L 18.109375 0 
L 9.078125 0 
L 9.078125 54.6875 
L 18.109375 54.6875 
L 18.109375 46.1875 
Q 21.34375 51.125 25.703125 53.5625 
Q 30.078125 56 35.796875 56 
Q 45.21875 56 50.046875 50.171875 
Q 54.890625 44.34375 54.890625 33.015625 
z
" id="DejaVuSans-6e"/>
      <path d="M 9.078125 75.984375 
L 18.109375 75.984375 
L 18.109375 31.109375 
L 44.921875 54.6875 
L 56.390625 54.6875 
L 27.390625 29.109375 
L 57.625 0 
L 45.90625 0 
L 18.109375 26.703125 
L 18.109375 0 
L 9.078125 0 
z
" id="DejaVuSans-6b"/>
     </defs>
     <g transform="translate(209.835 335.860562)scale(0.1 -0.1)">
      <use xlink:href="#DejaVuSans-61"/>
      <use x="61.279297" xlink:href="#DejaVuSans-6c"/>
      <use x="89.0625" xlink:href="#DejaVuSans-65"/>
      <use x="150.570312" xlink:href="#DejaVuSans-78"/>
      <use x="209.75" xlink:href="#DejaVuSans-61"/>
      <use x="271.029297" xlink:href="#DejaVuSans-20"/>
      <use x="302.816406" xlink:href="#DejaVuSans-72"/>
      <use x="343.929688" xlink:href="#DejaVuSans-61"/>
      <use x="405.208984" xlink:href="#DejaVuSans-6e"/>
      <use x="468.587891" xlink:href="#DejaVuSans-6b"/>
     </g>
    </g>
   </g>
   <g id="matplotlib.axis_2">
    <g id="ytick_1">
     <g id="line2d_7">
      <defs>
       <path d="M 0 0 
L -3.5 0 
" id="mbeb347abd5" style="stroke:#000000;stroke-width:0.8;"/>
      </defs>
      <g>
       <use style="stroke:#000000;stroke-width:0.8;" x="57.6" xlink:href="#mbeb347abd5" y="307.584"/>
      </g>
     </g>
     <g id="text_8">
      <!-- 0.0 -->
      <defs>
       <path d="M 10.6875 12.40625 
L 21 12.40625 
L 21 0 
L 10.6875 0 
z
" id="DejaVuSans-2e"/>
      </defs>
      <g transform="translate(34.696875 311.383219)scale(0.1 -0.1)">
       <use xlink:href="#DejaVuSans-30"/>
       <use x="63.623047" xlink:href="#DejaVuSans-2e"/>
       <use x="95.410156" xlink:href="#DejaVuSans-30"/>
      </g>
     </g>
    </g>
    <g id="ytick_2">
     <g id="line2d_8">
      <g>
       <use style="stroke:#000000;stroke-width:0.8;" x="57.6" xlink:href="#mbeb347abd5" y="255.888954"/>
      </g>
     </g>
     <g id="text_9">
      <!-- 0.1 -->
      <g transform="translate(34.696875 259.688172)scale(0.1 -0.1)">
       <use xlink:href="#DejaVuSans-30"/>
       <use x="63.623047" xlink:href="#DejaVuSans-2e"/>
       <use x="95.410156" xlink:href="#DejaVuSans-31"/>
      </g>
     </g>
    </g>
    <g id="ytick_3">
     <g id="line2d_9">
      <g>
       <use style="stroke:#000000;stroke-width:0.8;" x="57.6" xlink:href="#mbeb347abd5" y="204.193907"/>
      </g>
     </g>
     <g id="text_10">
      <!-- 0.2 -->
      <g transform="translate(34.696875 207.993126)scale(0.1 -0.1)">
       <use xlink:href="#DejaVuSans-30"/>
       <use x="63.623047" xlink:href="#DejaVuSans-2e"/>
       <use x="95.410156" xlink:href="#DejaVuSans-32"/>
      </g>
     </g>
    </g>
    <g id="ytick_4">
     <g id="line2d_10">
      <g>
       <use style="stroke:#000000;stroke-width:0.8;" x="57.6" xlink:href="#mbeb347abd5" y="152.498861"/>
      </g>
     </g>
     <g id="text_11">
      <!-- 0.3 -->
      <defs>
       <path d="M 40.578125 39.3125 
Q 47.65625 37.796875 51.625 33 
Q 55.609375 28.21875 55.609375 21.1875 
Q 55.609375 10.40625 48.1875 4.484375 
Q 40.765625 -1.421875 27.09375 -1.421875 
Q 22.515625 -1.421875 17.65625 -0.515625 
Q 12.796875 0.390625 7.625 2.203125 
L 7.625 11.71875 
Q 11.71875 9.328125 16.59375 8.109375 
Q 21.484375 6.890625 26.8125 6.890625 
Q 36.078125 6.890625 40.9375 10.546875 
Q 45.796875 14.203125 45.796875 21.1875 
Q 45.796875 27.640625 41.28125 31.265625 
Q 36.765625 34.90625 28.71875 34.90625 
L 20.21875 34.90625 
L 20.21875 43.015625 
L 29.109375 43.015625 
Q 36.375 43.015625 40.234375 45.921875 
Q 44.09375 48.828125 44.09375 54.296875 
Q 44.09375 59.90625 40.109375 62.90625 
Q 36.140625 65.921875 28.71875 65.921875 
Q 24.65625 65.921875 20.015625 65.03125 
Q 15.375 64.15625 9.8125 62.3125 
L 9.8125 71.09375 
Q 15.4375 72.65625 20.34375 73.4375 
Q 25.25 74.21875 29.59375 74.21875 
Q 40.828125 74.21875 47.359375 69.109375 
Q 53.90625 64.015625 53.90625 55.328125 
Q 53.90625 49.265625 50.4375 45.09375 
Q 46.96875 40.921875 40.578125 39.3125 
z
" id="DejaVuSans-33"/>
      </defs>
      <g transform="translate(34.696875 156.29808)scale(0.1 -0.1)">
       <use xlink:href="#DejaVuSans-30"/>
       <use x="63.623047" xlink:href="#DejaVuSans-2e"/>
       <use x="95.410156" xlink:href="#DejaVuSans-33"/>
      </g>
     </g>
    </g>
    <g id="ytick_5">
     <g id="line2d_11">
      <g>
       <use style="stroke:#000000;stroke-width:0.8;" x="57.6" xlink:href="#mbeb347abd5" y="100.803815"/>
      </g>
     </g>
     <g id="text_12">
      <!-- 0.4 -->
      <g transform="translate(34.696875 104.603033)scale(0.1 -0.1)">
       <use xlink:href="#DejaVuSans-30"/>
       <use x="63.623047" xlink:href="#DejaVuSans-2e"/>
       <use x="95.410156" xlink:href="#DejaVuSans-34"/>
      </g>
     </g>
    </g>
    <g id="ytick_6">
     <g id="line2d_12">
      <g>
       <use style="stroke:#000000;stroke-width:0.8;" x="57.6" xlink:href="#mbeb347abd5" y="49.108768"/>
      </g>
     </g>
     <g id="text_13">
      <!-- 0.5 -->
      <defs>
       <path d="M 10.796875 72.90625 
L 49.515625 72.90625 
L 49.515625 64.59375 
L 19.828125 64.59375 
L 19.828125 46.734375 
Q 21.96875 47.46875 24.109375 47.828125 
Q 26.265625 48.1875 28.421875 48.1875 
Q 40.625 48.1875 47.75 41.5 
Q 54.890625 34.8125 54.890625 23.390625 
Q 54.890625 11.625 47.5625 5.09375 
Q 40.234375 -1.421875 26.90625 -1.421875 
Q 22.3125 -1.421875 17.546875 -0.640625 
Q 12.796875 0.140625 7.71875 1.703125 
L 7.71875 11.625 
Q 12.109375 9.234375 16.796875 8.0625 
Q 21.484375 6.890625 26.703125 6.890625 
Q 35.15625 6.890625 40.078125 11.328125 
Q 45.015625 15.765625 45.015625 23.390625 
Q 45.015625 31 40.078125 35.4375 
Q 35.15625 39.890625 26.703125 39.890625 
Q 22.75 39.890625 18.8125 39.015625 
Q 14.890625 38.140625 10.796875 36.28125 
z
" id="DejaVuSans-35"/>
      </defs>
      <g transform="translate(34.696875 52.907987)scale(0.1 -0.1)">
       <use xlink:href="#DejaVuSans-30"/>
       <use x="63.623047" xlink:href="#DejaVuSans-2e"/>
       <use x="95.410156" xlink:href="#DejaVuSans-35"/>
      </g>
     </g>
    </g>
    <g id="text_14">
     <!-- proportion -->
     <defs>
      <path d="M 18.109375 8.203125 
L 18.109375 -20.796875 
L 9.078125 -20.796875 
L 9.078125 54.6875 
L 18.109375 54.6875 
L 18.109375 46.390625 
Q 20.953125 51.265625 25.265625 53.625 
Q 29.59375 56 35.59375 56 
Q 45.5625 56 51.78125 48.09375 
Q 58.015625 40.1875 58.015625 27.296875 
Q 58.015625 14.40625 51.78125 6.484375 
Q 45.5625 -1.421875 35.59375 -1.421875 
Q 29.59375 -1.421875 25.265625 0.953125 
Q 20.953125 3.328125 18.109375 8.203125 
z
M 48.6875 27.296875 
Q 48.6875 37.203125 44.609375 42.84375 
Q 40.53125 48.484375 33.40625 48.484375 
Q 26.265625 48.484375 22.1875 42.84375 
Q 18.109375 37.203125 18.109375 27.296875 
Q 18.109375 17.390625 22.1875 11.75 
Q 26.265625 6.109375 33.40625 6.109375 
Q 40.53125 6.109375 44.609375 11.75 
Q 48.6875 17.390625 48.6875 27.296875 
z
" id="DejaVuSans-70"/>
      <path d="M 30.609375 48.390625 
Q 23.390625 48.390625 19.1875 42.75 
Q 14.984375 37.109375 14.984375 27.296875 
Q 14.984375 17.484375 19.15625 11.84375 
Q 23.34375 6.203125 30.609375 6.203125 
Q 37.796875 6.203125 41.984375 11.859375 
Q 46.1875 17.53125 46.1875 27.296875 
Q 46.1875 37.015625 41.984375 42.703125 
Q 37.796875 48.390625 30.609375 48.390625 
z
M 30.609375 56 
Q 42.328125 56 49.015625 48.375 
Q 55.71875 40.765625 55.71875 27.296875 
Q 55.71875 13.875 49.015625 6.21875 
Q 42.328125 -1.421875 30.609375 -1.421875 
Q 18.84375 -1.421875 12.171875 6.21875 
Q 5.515625 13.875 5.515625 27.296875 
Q 5.515625 40.765625 12.171875 48.375 
Q 18.84375 56 30.609375 56 
z
" id="DejaVuSans-6f"/>
      <path d="M 18.3125 70.21875 
L 18.3125 54.6875 
L 36.8125 54.6875 
L 36.8125 47.703125 
L 18.3125 47.703125 
L 18.3125 18.015625 
Q 18.3125 11.328125 20.140625 9.421875 
Q 21.96875 7.515625 27.59375 7.515625 
L 36.8125 7.515625 
L 36.8125 0 
L 27.59375 0 
Q 17.1875 0 13.234375 3.875 
Q 9.28125 7.765625 9.28125 18.015625 
L 9.28125 47.703125 
L 2.6875 47.703125 
L 2.6875 54.6875 
L 9.28125 54.6875 
L 9.28125 70.21875 
z
" id="DejaVuSans-74"/>
      <path d="M 9.421875 54.6875 
L 18.40625 54.6875 
L 18.40625 0 
L 9.421875 0 
z
M 9.421875 75.984375 
L 18.40625 75.984375 
L 18.40625 64.59375 
L 9.421875 64.59375 
z
" id="DejaVuSans-69"/>
     </defs>
     <g transform="translate(28.617187 200.681906)rotate(-90)scale(0.1 -0.1)">
      <use xlink:href="#DejaVuSans-70"/>
      <use x="63.476562" xlink:href="#DejaVuSans-72"/>
      <use x="104.558594" xlink:href="#DejaVuSans-6f"/>
      <use x="165.740234" xlink:href="#DejaVuSans-70"/>
      <use x="229.216797" xlink:href="#DejaVuSans-6f"/>
      <use x="290.398438" xlink:href="#DejaVuSans-72"/>
      <use x="331.511719" xlink:href="#DejaVuSans-74"/>
      <use x="370.720703" xlink:href="#DejaVuSans-69"/>
      <use x="398.503906" xlink:href="#DejaVuSans-6f"/>
      <use x="459.685547" xlink:href="#DejaVuSans-6e"/>
     </g>
    </g>
   </g>
   <g id="line2d_13">
    <path clip-path="url(#p1431e08643)" d="M 57.6 307.584 
L 414.72 307.584 
" style="fill:none;stroke:#808080;stroke-dasharray:1,1.65;stroke-dashoffset:0;"/>
   </g>
   <g id="line2d_14">
    <path clip-path="url(#p1431e08643)" d="M 57.6 256.290824 
L 414.72 256.290824 
" style="fill:none;stroke:#808080;stroke-dasharray:1,1.65;stroke-dashoffset:0;"/>
   </g>
   <g id="line2d_15">
    <path clip-path="url(#p1431e08643)" d="M 57.6 106.680808 
L 414.72 106.680808 
" style="fill:none;stroke:#808080;stroke-dasharray:1,1.65;stroke-dashoffset:0;"/>
   </g>
   <g id="line2d_16">
    <path clip-path="url(#p1431e08643)" d="M 57.6 71.584392 
L 414.72 71.584392 
" style="fill:none;stroke:#808080;stroke-dasharray:1,1.65;stroke-dashoffset:0;"/>
   </g>
   <g id="patch_3">
    <path d="M 57.6 307.584 
L 57.6 41.472 
" style="fill:none;stroke:#000000;stroke-linecap:square;stroke-linejoin:miter;stroke-width:0.8;"/>
   </g>
   <g id="patch_4">
    <path d="M 414.72 307.584 
L 414.72 41.472 
" style="fill:none;stroke:#000000;stroke-linecap:square;stroke-linejoin:miter;stroke-width:0.8;"/>
   </g>
   <g id="patch_5">
    <path d="M 57.6 307.584 
L 414.72 307.584 
" style="fill:none;stroke:#000000;stroke-linecap:square;stroke-linejoin:miter;stroke-width:0.8;"/>
   </g>
   <g id="patch_6">
    <path d="M 57.6 41.472 
L 414.72 41.472 
" style="fill:none;stroke:#000000;stroke-linecap:square;stroke-linejoin:miter;stroke-width:0.8;"/>
   </g>
   <g id="text_15">
    <!-- 0.00 -->
    <g style="fill:#808080;" transform="translate(48.287763 305.504312)scale(0.1 -0.1)">
     <use xlink:href="#DejaVuSans-30"/>
     <use x="63.623047" xlink:href="#DejaVuSans-2e"/>
     <use x="95.410156" xlink:href="#DejaVuSans-30"/>
     <use x="159.033203" xlink:href="#DejaVuSans-30"/>
    </g>
   </g>
   <g id="text_16">
    <!-- 0.10 -->
    <g style="fill:#808080;" transform="translate(48.287763 254.211137)scale(0.1 -0.1)">
     <use xlink:href="#DejaVuSans-30"/>
     <use x="63.623047" xlink:href="#DejaVuSans-2e"/>
     <use x="95.410156" xlink:href="#DejaVuSans-31"/>
     <use x="159.033203" xlink:href="#DejaVuSans-30"/>
    </g>
   </g>
   <g id="text_17">
    <!-- 0.39 -->
    <defs>
     <path d="M 10.984375 1.515625 
L 10.984375 10.5 
Q 14.703125 8.734375 18.5 7.8125 
Q 22.3125 6.890625 25.984375 6.890625 
Q 35.75 6.890625 40.890625 13.453125 
Q 46.046875 20.015625 46.78125 33.40625 
Q 43.953125 29.203125 39.59375 26.953125 
Q 35.25 24.703125 29.984375 24.703125 
Q 19.046875 24.703125 12.671875 31.3125 
Q 6.296875 37.9375 6.296875 49.421875 
Q 6.296875 60.640625 12.9375 67.421875 
Q 19.578125 74.21875 30.609375 74.21875 
Q 43.265625 74.21875 49.921875 64.515625 
Q 56.59375 54.828125 56.59375 36.375 
Q 56.59375 19.140625 48.40625 8.859375 
Q 40.234375 -1.421875 26.421875 -1.421875 
Q 22.703125 -1.421875 18.890625 -0.6875 
Q 15.09375 0.046875 10.984375 1.515625 
z
M 30.609375 32.421875 
Q 37.25 32.421875 41.125 36.953125 
Q 45.015625 41.5 45.015625 49.421875 
Q 45.015625 57.28125 41.125 61.84375 
Q 37.25 66.40625 30.609375 66.40625 
Q 23.96875 66.40625 20.09375 61.84375 
Q 16.21875 57.28125 16.21875 49.421875 
Q 16.21875 41.5 20.09375 36.953125 
Q 23.96875 32.421875 30.609375 32.421875 
z
" id="DejaVuSans-39"/>
    </defs>
    <g style="fill:#808080;" transform="translate(48.287763 104.601121)scale(0.1 -0.1)">
     <use xlink:href="#DejaVuSans-30"/>
     <use x="63.623047" xlink:href="#DejaVuSans-2e"/>
     <use x="95.410156" xlink:href="#DejaVuSans-33"/>
     <use x="159.033203" xlink:href="#DejaVuSans-39"/>
    </g>
   </g>
   <g id="text_18">
    <!-- 0.46 -->
    <g style="fill:#808080;" transform="translate(48.287763 69.504705)scale(0.1 -0.1)">
     <use xlink:href="#DejaVuSans-30"/>
     <use x="63.623047" xlink:href="#DejaVuSans-2e"/>
     <use x="95.410156" xlink:href="#DejaVuSans-34"/>
     <use x="159.033203" xlink:href="#DejaVuSans-36"/>
    </g>
   </g>
   <g id="text_19">
    <!-- 2 scts -->
    <defs>
     <path d="M 44.28125 53.078125 
L 44.28125 44.578125 
Q 40.484375 46.53125 36.375 47.5 
Q 32.28125 48.484375 27.875 48.484375 
Q 21.1875 48.484375 17.84375 46.4375 
Q 14.5 44.390625 14.5 40.28125 
Q 14.5 37.15625 16.890625 35.375 
Q 19.28125 33.59375 26.515625 31.984375 
L 29.59375 31.296875 
Q 39.15625 29.25 43.1875 25.515625 
Q 47.21875 21.78125 47.21875 15.09375 
Q 47.21875 7.46875 41.1875 3.015625 
Q 35.15625 -1.421875 24.609375 -1.421875 
Q 20.21875 -1.421875 15.453125 -0.5625 
Q 10.6875 0.296875 5.421875 2 
L 5.421875 11.28125 
Q 10.40625 8.6875 15.234375 7.390625 
Q 20.0625 6.109375 24.8125 6.109375 
Q 31.15625 6.109375 34.5625 8.28125 
Q 37.984375 10.453125 37.984375 14.40625 
Q 37.984375 18.0625 35.515625 20.015625 
Q 33.0625 21.96875 24.703125 23.78125 
L 21.578125 24.515625 
Q 13.234375 26.265625 9.515625 29.90625 
Q 5.8125 33.546875 5.8125 39.890625 
Q 5.8125 47.609375 11.28125 51.796875 
Q 16.75 56 26.8125 56 
Q 31.78125 56 36.171875 55.265625 
Q 40.578125 54.546875 44.28125 53.078125 
z
" id="DejaVuSans-73"/>
     <path d="M 48.78125 52.59375 
L 48.78125 44.1875 
Q 44.96875 46.296875 41.140625 47.34375 
Q 37.3125 48.390625 33.40625 48.390625 
Q 24.65625 48.390625 19.8125 42.84375 
Q 14.984375 37.3125 14.984375 27.296875 
Q 14.984375 17.28125 19.8125 11.734375 
Q 24.65625 6.203125 33.40625 6.203125 
Q 37.3125 6.203125 41.140625 7.25 
Q 44.96875 8.296875 48.78125 10.40625 
L 48.78125 2.09375 
Q 45.015625 0.34375 40.984375 -0.53125 
Q 36.96875 -1.421875 32.421875 -1.421875 
Q 20.0625 -1.421875 12.78125 6.34375 
Q 5.515625 14.109375 5.515625 27.296875 
Q 5.515625 40.671875 12.859375 48.328125 
Q 20.21875 56 33.015625 56 
Q 37.15625 56 41.109375 55.140625 
Q 45.0625 54.296875 48.78125 52.59375 
z
" id="DejaVuSans-63"/>
    </defs>
    <g transform="translate(80.391405 255.888954)scale(0.1 -0.1)">
     <use xlink:href="#DejaVuSans-32"/>
     <use x="63.623047" xlink:href="#DejaVuSans-20"/>
     <use x="95.410156" xlink:href="#DejaVuSans-73"/>
     <use x="147.509766" xlink:href="#DejaVuSans-63"/>
     <use x="202.490234" xlink:href="#DejaVuSans-74"/>
     <use x="241.699219" xlink:href="#DejaVuSans-73"/>
    </g>
   </g>
   <g id="text_20">
    <!-- 3 scts -->
    <g transform="translate(80.391405 49.108768)scale(0.1 -0.1)">
     <use xlink:href="#DejaVuSans-33"/>
     <use x="63.623047" xlink:href="#DejaVuSans-20"/>
     <use x="95.410156" xlink:href="#DejaVuSans-73"/>
     <use x="147.509766" xlink:href="#DejaVuSans-63"/>
     <use x="202.490234" xlink:href="#DejaVuSans-74"/>
     <use x="241.699219" xlink:href="#DejaVuSans-73"/>
    </g>
   </g>
   <g id="text_21">
    <!-- 4 scts -->
    <g transform="translate(80.391405 -157.671417)scale(0.1 -0.1)">
     <use xlink:href="#DejaVuSans-34"/>
     <use x="63.623047" xlink:href="#DejaVuSans-20"/>
     <use x="95.410156" xlink:href="#DejaVuSans-73"/>
     <use x="147.509766" xlink:href="#DejaVuSans-63"/>
     <use x="202.490234" xlink:href="#DejaVuSans-74"/>
     <use x="241.699219" xlink:href="#DejaVuSans-73"/>
    </g>
   </g>
   <g id="text_22">
    <!-- 5 or more scts -->
    <defs>
     <path d="M 52 44.1875 
Q 55.375 50.25 60.0625 53.125 
Q 64.75 56 71.09375 56 
Q 79.640625 56 84.28125 50.015625 
Q 88.921875 44.046875 88.921875 33.015625 
L 88.921875 0 
L 79.890625 0 
L 79.890625 32.71875 
Q 79.890625 40.578125 77.09375 44.375 
Q 74.3125 48.1875 68.609375 48.1875 
Q 61.625 48.1875 57.5625 43.546875 
Q 53.515625 38.921875 53.515625 30.90625 
L 53.515625 0 
L 44.484375 0 
L 44.484375 32.71875 
Q 44.484375 40.625 41.703125 44.40625 
Q 38.921875 48.1875 33.109375 48.1875 
Q 26.21875 48.1875 22.15625 43.53125 
Q 18.109375 38.875 18.109375 30.90625 
L 18.109375 0 
L 9.078125 0 
L 9.078125 54.6875 
L 18.109375 54.6875 
L 18.109375 46.1875 
Q 21.1875 51.21875 25.484375 53.609375 
Q 29.78125 56 35.6875 56 
Q 41.65625 56 45.828125 52.96875 
Q 50 49.953125 52 44.1875 
z
" id="DejaVuSans-6d"/>
    </defs>
    <g transform="translate(80.391405 -199.027454)scale(0.1 -0.1)">
     <use xlink:href="#DejaVuSans-35"/>
     <use x="63.623047" xlink:href="#DejaVuSans-20"/>
     <use x="95.410156" xlink:href="#DejaVuSans-6f"/>
     <use x="156.591797" xlink:href="#DejaVuSans-72"/>
     <use x="197.705078" xlink:href="#DejaVuSans-20"/>
     <use x="229.492188" xlink:href="#DejaVuSans-6d"/>
     <use x="326.904297" xlink:href="#DejaVuSans-6f"/>
     <use x="388.085938" xlink:href="#DejaVuSans-72"/>
     <use x="429.167969" xlink:href="#DejaVuSans-65"/>
     <use x="490.691406" xlink:href="#DejaVuSans-20"/>
     <use x="522.478516" xlink:href="#DejaVuSans-73"/>
     <use x="574.578125" xlink:href="#DejaVuSans-63"/>
     <use x="629.558594" xlink:href="#DejaVuSans-74"/>
     <use x="668.767578" xlink:href="#DejaVuSans-73"/>
    </g>
   </g>
   <g id="text_23">
    <!-- EV Certificates with SCTs -->
    <defs>
     <path d="M 9.8125 72.90625 
L 55.90625 72.90625 
L 55.90625 64.59375 
L 19.671875 64.59375 
L 19.671875 43.015625 
L 54.390625 43.015625 
L 54.390625 34.71875 
L 19.671875 34.71875 
L 19.671875 8.296875 
L 56.78125 8.296875 
L 56.78125 0 
L 9.8125 0 
z
" id="DejaVuSans-45"/>
     <path d="M 28.609375 0 
L 0.78125 72.90625 
L 11.078125 72.90625 
L 34.1875 11.53125 
L 57.328125 72.90625 
L 67.578125 72.90625 
L 39.796875 0 
z
" id="DejaVuSans-56"/>
     <path d="M 64.40625 67.28125 
L 64.40625 56.890625 
Q 59.421875 61.53125 53.78125 63.8125 
Q 48.140625 66.109375 41.796875 66.109375 
Q 29.296875 66.109375 22.65625 58.46875 
Q 16.015625 50.828125 16.015625 36.375 
Q 16.015625 21.96875 22.65625 14.328125 
Q 29.296875 6.6875 41.796875 6.6875 
Q 48.140625 6.6875 53.78125 8.984375 
Q 59.421875 11.28125 64.40625 15.921875 
L 64.40625 5.609375 
Q 59.234375 2.09375 53.4375 0.328125 
Q 47.65625 -1.421875 41.21875 -1.421875 
Q 24.65625 -1.421875 15.125 8.703125 
Q 5.609375 18.84375 5.609375 36.375 
Q 5.609375 53.953125 15.125 64.078125 
Q 24.65625 74.21875 41.21875 74.21875 
Q 47.75 74.21875 53.53125 72.484375 
Q 59.328125 70.75 64.40625 67.28125 
z
" id="DejaVuSans-43"/>
     <path d="M 37.109375 75.984375 
L 37.109375 68.5 
L 28.515625 68.5 
Q 23.6875 68.5 21.796875 66.546875 
Q 19.921875 64.59375 19.921875 59.515625 
L 19.921875 54.6875 
L 34.71875 54.6875 
L 34.71875 47.703125 
L 19.921875 47.703125 
L 19.921875 0 
L 10.890625 0 
L 10.890625 47.703125 
L 2.296875 47.703125 
L 2.296875 54.6875 
L 10.890625 54.6875 
L 10.890625 58.5 
Q 10.890625 67.625 15.140625 71.796875 
Q 19.390625 75.984375 28.609375 75.984375 
z
" id="DejaVuSans-66"/>
     <path d="M 4.203125 54.6875 
L 13.1875 54.6875 
L 24.421875 12.015625 
L 35.59375 54.6875 
L 46.1875 54.6875 
L 57.421875 12.015625 
L 68.609375 54.6875 
L 77.59375 54.6875 
L 63.28125 0 
L 52.6875 0 
L 40.921875 44.828125 
L 29.109375 0 
L 18.5 0 
z
" id="DejaVuSans-77"/>
     <path d="M 54.890625 33.015625 
L 54.890625 0 
L 45.90625 0 
L 45.90625 32.71875 
Q 45.90625 40.484375 42.875 44.328125 
Q 39.84375 48.1875 33.796875 48.1875 
Q 26.515625 48.1875 22.3125 43.546875 
Q 18.109375 38.921875 18.109375 30.90625 
L 18.109375 0 
L 9.078125 0 
L 9.078125 75.984375 
L 18.109375 75.984375 
L 18.109375 46.1875 
Q 21.34375 51.125 25.703125 53.5625 
Q 30.078125 56 35.796875 56 
Q 45.21875 56 50.046875 50.171875 
Q 54.890625 44.34375 54.890625 33.015625 
z
" id="DejaVuSans-68"/>
     <path d="M 53.515625 70.515625 
L 53.515625 60.890625 
Q 47.90625 63.578125 42.921875 64.890625 
Q 37.9375 66.21875 33.296875 66.21875 
Q 25.25 66.21875 20.875 63.09375 
Q 16.5 59.96875 16.5 54.203125 
Q 16.5 49.359375 19.40625 46.890625 
Q 22.3125 44.4375 30.421875 42.921875 
L 36.375 41.703125 
Q 47.40625 39.59375 52.65625 34.296875 
Q 57.90625 29 57.90625 20.125 
Q 57.90625 9.515625 50.796875 4.046875 
Q 43.703125 -1.421875 29.984375 -1.421875 
Q 24.8125 -1.421875 18.96875 -0.25 
Q 13.140625 0.921875 6.890625 3.21875 
L 6.890625 13.375 
Q 12.890625 10.015625 18.65625 8.296875 
Q 24.421875 6.59375 29.984375 6.59375 
Q 38.421875 6.59375 43.015625 9.90625 
Q 47.609375 13.234375 47.609375 19.390625 
Q 47.609375 24.75 44.3125 27.78125 
Q 41.015625 30.8125 33.5 32.328125 
L 27.484375 33.5 
Q 16.453125 35.6875 11.515625 40.375 
Q 6.59375 45.0625 6.59375 53.421875 
Q 6.59375 63.09375 13.40625 68.65625 
Q 20.21875 74.21875 32.171875 74.21875 
Q 37.3125 74.21875 42.625 73.28125 
Q 47.953125 72.359375 53.515625 70.515625 
z
" id="DejaVuSans-53"/>
     <path d="M -0.296875 72.90625 
L 61.375 72.90625 
L 61.375 64.59375 
L 35.5 64.59375 
L 35.5 0 
L 25.59375 0 
L 25.59375 64.59375 
L -0.296875 64.59375 
z
" id="DejaVuSans-54"/>
    </defs>
    <g transform="translate(160.749375 35.472)scale(0.12 -0.12)">
     <use xlink:href="#DejaVuSans-45"/>
     <use x="63.183594" xlink:href="#DejaVuSans-56"/>
     <use x="131.591797" xlink:href="#DejaVuSans-20"/>
     <use x="163.378906" xlink:href="#DejaVuSans-43"/>
     <use x="233.203125" xlink:href="#DejaVuSans-65"/>
     <use x="294.726562" xlink:href="#DejaVuSans-72"/>
     <use x="335.839844" xlink:href="#DejaVuSans-74"/>
     <use x="375.048828" xlink:href="#DejaVuSans-69"/>
     <use x="402.832031" xlink:href="#DejaVuSans-66"/>
     <use x="438.037109" xlink:href="#DejaVuSans-69"/>
     <use x="465.820312" xlink:href="#DejaVuSans-63"/>
     <use x="520.800781" xlink:href="#DejaVuSans-61"/>
     <use x="582.080078" xlink:href="#DejaVuSans-74"/>
     <use x="621.289062" xlink:href="#DejaVuSans-65"/>
     <use x="682.8125" xlink:href="#DejaVuSans-73"/>
     <use x="734.912109" xlink:href="#DejaVuSans-20"/>
     <use x="766.699219" xlink:href="#DejaVuSans-77"/>
     <use x="848.486328" xlink:href="#DejaVuSans-69"/>
     <use x="876.269531" xlink:href="#DejaVuSans-74"/>
     <use x="915.478516" xlink:href="#DejaVuSans-68"/>
     <use x="978.857422" xlink:href="#DejaVuSans-20"/>
     <use x="1010.644531" xlink:href="#DejaVuSans-53"/>
     <use x="1074.121094" xlink:href="#DejaVuSans-43"/>
     <use x="1143.945312" xlink:href="#DejaVuSans-54"/>
     <use x="1204.779297" xlink:href="#DejaVuSans-73"/>
    </g>
   </g>
  </g>
 </g>
 <defs>
  <clipPath id="p1431e08643">
   <rect height="266.112" width="357.12" x="57.6" y="41.472"/>
  </clipPath>
 </defs>
</svg>
