<?xml version="1.0" encoding="utf-8" standalone="no"?>
<!DOCTYPE svg PUBLIC "-//W3C//DTD SVG 1.1//EN"
  "http://www.w3.org/Graphics/SVG/1.1/DTD/svg11.dtd">
<!-- Created with matplotlib (http://matplotlib.org/) -->
<svg height="345pt" version="1.1" viewBox="0 0 460 345" width="460pt" xmlns="http://www.w3.org/2000/svg" xmlns:xlink="http://www.w3.org/1999/xlink">
 <defs>
  <style type="text/css">
*{stroke-linecap:butt;stroke-linejoin:round;}
  </style>
 </defs>
 <g id="figure_1">
  <g id="patch_1">
   <path d="M 0 345.6 
L 460.8 345.6 
L 460.8 0 
L 0 0 
z
" style="fill:#ffffff;"/>
  </g>
  <g id="axes_1">
   <g id="patch_2">
    <path d="M 57.6 307.584 
L 414.72 307.584 
L 414.72 41.472 
L 57.6 41.472 
z
" style="fill:#ffffff;"/>
   </g>
   <g id="PolyCollection_1">
    <path clip-path="url(#p6c19454d77)" d="M 73.832727 307.584 
L 73.832727 307.584 
L 77.112066 307.584 
L 80.391405 307.584 
L 83.670744 307.584 
L 86.950083 307.584 
L 90.229421 307.584 
L 93.50876 307.584 
L 96.788099 307.584 
L 100.067438 307.584 
L 103.346777 307.584 
L 106.626116 307.584 
L 109.905455 307.584 
L 113.184793 307.584 
L 116.464132 307.584 
L 119.743471 307.584 
L 123.02281 307.584 
L 126.302149 307.584 
L 129.581488 307.584 
L 132.860826 307.584 
L 136.140165 307.584 
L 139.419504 307.584 
L 142.698843 307.584 
L 145.978182 307.584 
L 149.257521 307.584 
L 152.53686 307.584 
L 155.816198 307.584 
L 159.095537 307.584 
L 162.374876 307.584 
L 165.654215 307.584 
L 168.933554 307.584 
L 172.212893 307.584 
L 175.492231 307.584 
L 178.77157 307.584 
L 182.050909 307.584 
L 185.330248 307.584 
L 188.609587 307.584 
L 191.888926 307.584 
L 195.168264 307.584 
L 198.447603 307.584 
L 201.726942 307.584 
L 205.006281 307.584 
L 208.28562 307.584 
L 211.564959 307.584 
L 214.844298 307.584 
L 218.123636 307.584 
L 221.402975 307.584 
L 224.682314 307.584 
L 227.961653 307.584 
L 231.240992 307.584 
L 234.520331 307.584 
L 237.799669 307.584 
L 241.079008 307.584 
L 244.358347 307.584 
L 247.637686 307.584 
L 250.917025 307.584 
L 254.196364 307.584 
L 257.475702 307.584 
L 260.755041 307.584 
L 264.03438 307.584 
L 267.313719 307.584 
L 270.593058 307.584 
L 273.872397 307.584 
L 277.151736 307.584 
L 280.431074 307.584 
L 283.710413 307.584 
L 286.989752 307.584 
L 290.269091 307.584 
L 293.54843 307.584 
L 296.827769 307.584 
L 300.107107 307.584 
L 303.386446 307.584 
L 306.665785 307.584 
L 309.945124 307.584 
L 313.224463 307.584 
L 316.503802 307.584 
L 319.78314 307.584 
L 323.062479 307.584 
L 326.341818 307.584 
L 329.621157 307.584 
L 332.900496 307.584 
L 336.179835 307.584 
L 339.459174 307.584 
L 342.738512 307.584 
L 346.017851 307.584 
L 349.29719 307.584 
L 352.576529 307.584 
L 355.855868 307.584 
L 359.135207 307.584 
L 362.414545 307.584 
L 365.693884 307.584 
L 368.973223 307.584 
L 372.252562 307.584 
L 375.531901 307.584 
L 378.81124 307.584 
L 382.090579 307.584 
L 385.369917 307.584 
L 388.649256 307.584 
L 391.928595 307.584 
L 395.207934 307.584 
L 398.487273 307.584 
L 398.487273 307.584 
L 398.487273 307.584 
L 395.207934 307.402433 
L 391.928595 307.584 
L 388.649256 307.40256 
L 385.369917 307.584 
L 382.090579 307.584 
L 378.81124 307.584 
L 375.531901 307.402942 
L 372.252562 307.584 
L 368.973223 307.584 
L 365.693884 307.584 
L 362.414545 307.584 
L 359.135207 307.584 
L 355.855868 307.584 
L 352.576529 307.584 
L 349.29719 307.584 
L 346.017851 307.399776 
L 342.738512 307.584 
L 339.459174 307.21984 
L 336.179835 307.584 
L 332.900496 307.584 
L 329.621157 307.22837 
L 326.341818 307.404703 
L 323.062479 307.584 
L 319.78314 307.584 
L 316.503802 307.584 
L 313.224463 307.584 
L 309.945124 307.584 
L 306.665785 307.403259 
L 303.386446 307.584 
L 300.107107 307.584 
L 296.827769 307.584 
L 293.54843 307.396905 
L 290.269091 307.584 
L 286.989752 307.404827 
L 283.710413 307.584 
L 280.431074 307.584 
L 277.151736 307.584 
L 273.872397 307.584 
L 270.593058 307.398318 
L 267.313719 307.228248 
L 264.03438 307.584 
L 260.755041 307.584 
L 257.475702 307.584 
L 254.196364 307.584 
L 250.917025 307.584 
L 247.637686 307.584 
L 244.358347 307.584 
L 241.079008 307.393872 
L 237.799669 307.584 
L 234.520331 307.584 
L 231.240992 307.584 
L 227.961653 307.584 
L 224.682314 307.393662 
L 221.402975 307.584 
L 218.123636 307.410489 
L 214.844298 307.39905 
L 211.564959 307.584 
L 208.28562 307.218033 
L 205.006281 307.405571 
L 201.726942 307.584 
L 198.447603 307.402688 
L 195.168264 307.584 
L 191.888926 307.584 
L 188.609587 307.394431 
L 185.330248 307.584 
L 182.050909 307.584 
L 178.77157 307.584 
L 175.492231 307.584 
L 172.212893 307.584 
L 168.933554 307.408124 
L 165.654215 307.584 
L 162.374876 307.584 
L 159.095537 307.403196 
L 155.816198 307.584 
L 152.53686 307.584 
L 149.257521 307.584 
L 145.978182 307.403638 
L 142.698843 307.584 
L 139.419504 307.584 
L 136.140165 307.584 
L 132.860826 307.403196 
L 129.581488 307.584 
L 126.302149 307.584 
L 123.02281 307.584 
L 119.743471 307.584 
L 116.464132 307.584 
L 113.184793 307.584 
L 109.905455 307.584 
L 106.626116 307.584 
L 103.346777 307.584 
L 100.067438 307.584 
L 96.788099 307.584 
L 93.50876 307.584 
L 90.229421 307.584 
L 86.950083 307.584 
L 83.670744 307.584 
L 80.391405 307.584 
L 77.112066 307.584 
L 73.832727 307.584 
z
" style="fill:#fdae6b;"/>
   </g>
   <g id="PolyCollection_2">
    <path clip-path="url(#p6c19454d77)" d="M 73.832727 236.02022 
L 73.832727 307.584 
L 77.112066 307.584 
L 80.391405 307.584 
L 83.670744 307.584 
L 86.950083 307.584 
L 90.229421 307.584 
L 93.50876 307.584 
L 96.788099 307.584 
L 100.067438 307.584 
L 103.346777 307.584 
L 106.626116 307.584 
L 109.905455 307.584 
L 113.184793 307.584 
L 116.464132 307.584 
L 119.743471 307.584 
L 123.02281 307.584 
L 126.302149 307.584 
L 129.581488 307.584 
L 132.860826 307.403196 
L 136.140165 307.584 
L 139.419504 307.584 
L 142.698843 307.584 
L 145.978182 307.403638 
L 149.257521 307.584 
L 152.53686 307.584 
L 155.816198 307.584 
L 159.095537 307.403196 
L 162.374876 307.584 
L 165.654215 307.584 
L 168.933554 307.408124 
L 172.212893 307.584 
L 175.492231 307.584 
L 178.77157 307.584 
L 182.050909 307.584 
L 185.330248 307.584 
L 188.609587 307.394431 
L 191.888926 307.584 
L 195.168264 307.584 
L 198.447603 307.402688 
L 201.726942 307.584 
L 205.006281 307.405571 
L 208.28562 307.218033 
L 211.564959 307.584 
L 214.844298 307.39905 
L 218.123636 307.410489 
L 221.402975 307.584 
L 224.682314 307.393662 
L 227.961653 307.584 
L 231.240992 307.584 
L 234.520331 307.584 
L 237.799669 307.584 
L 241.079008 307.393872 
L 244.358347 307.584 
L 247.637686 307.584 
L 250.917025 307.584 
L 254.196364 307.584 
L 257.475702 307.584 
L 260.755041 307.584 
L 264.03438 307.584 
L 267.313719 307.228248 
L 270.593058 307.398318 
L 273.872397 307.584 
L 277.151736 307.584 
L 280.431074 307.584 
L 283.710413 307.584 
L 286.989752 307.404827 
L 290.269091 307.584 
L 293.54843 307.396905 
L 296.827769 307.584 
L 300.107107 307.584 
L 303.386446 307.584 
L 306.665785 307.403259 
L 309.945124 307.584 
L 313.224463 307.584 
L 316.503802 307.584 
L 319.78314 307.584 
L 323.062479 307.584 
L 326.341818 307.404703 
L 329.621157 307.22837 
L 332.900496 307.584 
L 336.179835 307.584 
L 339.459174 307.21984 
L 342.738512 307.584 
L 346.017851 307.399776 
L 349.29719 307.584 
L 352.576529 307.584 
L 355.855868 307.584 
L 359.135207 307.584 
L 362.414545 307.584 
L 365.693884 307.584 
L 368.973223 307.584 
L 372.252562 307.584 
L 375.531901 307.402942 
L 378.81124 307.584 
L 382.090579 307.584 
L 385.369917 307.584 
L 388.649256 307.40256 
L 391.928595 307.584 
L 395.207934 307.402433 
L 398.487273 307.584 
L 398.487273 213.198888 
L 398.487273 213.198888 
L 395.207934 216.255575 
L 391.928595 210.125555 
L 388.649256 210.150824 
L 385.369917 214.437165 
L 382.090579 216.086627 
L 378.81124 215.0024 
L 375.531901 215.606555 
L 372.252562 214.199909 
L 368.973223 216.89375 
L 365.693884 211.438623 
L 362.414545 216.773346 
L 359.135207 212.420322 
L 355.855868 217.408416 
L 352.576529 213.827732 
L 349.29719 208.047578 
L 346.017851 215.471893 
L 342.738512 208.200313 
L 339.459174 213.8129 
L 336.179835 215.265369 
L 332.900496 218.795369 
L 329.621157 220.810397 
L 326.341818 215.246012 
L 323.062479 215.554616 
L 319.78314 213.360633 
L 316.503802 219.655503 
L 313.224463 212.47156 
L 309.945124 219.825372 
L 306.665785 215.948321 
L 303.386446 215.891245 
L 300.107107 215.770438 
L 296.827769 218.424454 
L 293.54843 216.842724 
L 290.269091 225.299605 
L 286.989752 218.356047 
L 283.710413 216.848539 
L 280.431074 221.015819 
L 277.151736 215.554616 
L 273.872397 221.904609 
L 270.593058 220.127729 
L 267.313719 220.780496 
L 264.03438 218.951654 
L 260.755041 220.46227 
L 257.475702 220.452496 
L 254.196364 222.755194 
L 250.917025 220.221868 
L 247.637686 219.282297 
L 244.358347 227.43045 
L 241.079008 219.174698 
L 237.799669 221.733952 
L 234.520331 221.188285 
L 231.240992 221.967483 
L 227.961653 219.636664 
L 224.682314 216.602508 
L 221.402975 223.530477 
L 218.123636 217.18459 
L 214.844298 225.096172 
L 211.564959 222.522727 
L 208.28562 225.424441 
L 205.006281 222.473177 
L 201.726942 221.215107 
L 198.447603 218.378326 
L 195.168264 223.059512 
L 191.888926 224.653507 
L 188.609587 228.15461 
L 185.330248 226.553193 
L 182.050909 227.191248 
L 178.77157 224.125993 
L 175.492231 228.982591 
L 172.212893 229.832177 
L 168.933554 230.198532 
L 165.654215 224.284927 
L 162.374876 230.592017 
L 159.095537 221.340353 
L 155.816198 226.467447 
L 152.53686 231.824711 
L 149.257521 229.982316 
L 145.978182 232.192654 
L 142.698843 231.407135 
L 139.419504 232.730358 
L 136.140165 232.108365 
L 132.860826 234.358262 
L 129.581488 227.817799 
L 126.302149 230.805806 
L 123.02281 230.489755 
L 119.743471 238.158066 
L 116.464132 229.728658 
L 113.184793 235.779778 
L 109.905455 235.110953 
L 106.626116 234.378581 
L 103.346777 231.037161 
L 100.067438 236.390213 
L 96.788099 232.512379 
L 93.50876 236.076295 
L 90.229421 236.994309 
L 86.950083 240.384198 
L 83.670744 240.50685 
L 80.391405 245.298075 
L 77.112066 244.713944 
L 73.832727 236.02022 
z
" style="fill:#c6dbef;"/>
   </g>
   <g id="PolyCollection_3">
    <path clip-path="url(#p6c19454d77)" d="M 73.832727 111.725235 
L 73.832727 236.02022 
L 77.112066 244.713944 
L 80.391405 245.298075 
L 83.670744 240.50685 
L 86.950083 240.384198 
L 90.229421 236.994309 
L 93.50876 236.076295 
L 96.788099 232.512379 
L 100.067438 236.390213 
L 103.346777 231.037161 
L 106.626116 234.378581 
L 109.905455 235.110953 
L 113.184793 235.779778 
L 116.464132 229.728658 
L 119.743471 238.158066 
L 123.02281 230.489755 
L 126.302149 230.805806 
L 129.581488 227.817799 
L 132.860826 234.358262 
L 136.140165 232.108365 
L 139.419504 232.730358 
L 142.698843 231.407135 
L 145.978182 232.192654 
L 149.257521 229.982316 
L 152.53686 231.824711 
L 155.816198 226.467447 
L 159.095537 221.340353 
L 162.374876 230.592017 
L 165.654215 224.284927 
L 168.933554 230.198532 
L 172.212893 229.832177 
L 175.492231 228.982591 
L 178.77157 224.125993 
L 182.050909 227.191248 
L 185.330248 226.553193 
L 188.609587 228.15461 
L 191.888926 224.653507 
L 195.168264 223.059512 
L 198.447603 218.378326 
L 201.726942 221.215107 
L 205.006281 222.473177 
L 208.28562 225.424441 
L 211.564959 222.522727 
L 214.844298 225.096172 
L 218.123636 217.18459 
L 221.402975 223.530477 
L 224.682314 216.602508 
L 227.961653 219.636664 
L 231.240992 221.967483 
L 234.520331 221.188285 
L 237.799669 221.733952 
L 241.079008 219.174698 
L 244.358347 227.43045 
L 247.637686 219.282297 
L 250.917025 220.221868 
L 254.196364 222.755194 
L 257.475702 220.452496 
L 260.755041 220.46227 
L 264.03438 218.951654 
L 267.313719 220.780496 
L 270.593058 220.127729 
L 273.872397 221.904609 
L 277.151736 215.554616 
L 280.431074 221.015819 
L 283.710413 216.848539 
L 286.989752 218.356047 
L 290.269091 225.299605 
L 293.54843 216.842724 
L 296.827769 218.424454 
L 300.107107 215.770438 
L 303.386446 215.891245 
L 306.665785 215.948321 
L 309.945124 219.825372 
L 313.224463 212.47156 
L 316.503802 219.655503 
L 319.78314 213.360633 
L 323.062479 215.554616 
L 326.341818 215.246012 
L 329.621157 220.810397 
L 332.900496 218.795369 
L 336.179835 215.265369 
L 339.459174 213.8129 
L 342.738512 208.200313 
L 346.017851 215.471893 
L 349.29719 208.047578 
L 352.576529 213.827732 
L 355.855868 217.408416 
L 359.135207 212.420322 
L 362.414545 216.773346 
L 365.693884 211.438623 
L 368.973223 216.89375 
L 372.252562 214.199909 
L 375.531901 215.606555 
L 378.81124 215.0024 
L 382.090579 216.086627 
L 385.369917 214.437165 
L 388.649256 210.150824 
L 391.928595 210.125555 
L 395.207934 216.255575 
L 398.487273 213.198888 
L 398.487273 151.042839 
L 398.487273 151.042839 
L 395.207934 153.796373 
L 391.928595 149.167707 
L 388.649256 143.199535 
L 385.369917 150.048284 
L 382.090579 147.077351 
L 378.81124 150.769429 
L 375.531901 145.718182 
L 372.252562 148.314296 
L 368.973223 146.766987 
L 365.693884 147.701799 
L 362.414545 153.562008 
L 359.135207 149.27433 
L 355.855868 152.815845 
L 352.576529 149.05718 
L 349.29719 141.140039 
L 346.017851 149.703848 
L 342.738512 146.249277 
L 339.459174 146.443372 
L 336.179835 149.779185 
L 332.900496 148.699082 
L 329.621157 147.728531 
L 326.341818 147.830315 
L 323.062479 148.114616 
L 319.78314 146.66527 
L 316.503802 149.601587 
L 313.224463 146.126587 
L 309.945124 147.863297 
L 306.665785 141.844518 
L 303.386446 147.255733 
L 300.107107 145.58407 
L 296.827769 147.668582 
L 293.54843 143.875512 
L 290.269091 151.2258 
L 286.989752 142.386866 
L 283.710413 146.583884 
L 280.431074 145.335594 
L 277.151736 137.085554 
L 273.872397 147.001389 
L 270.593058 146.411934 
L 267.313719 139.491148 
L 264.03438 141.880049 
L 260.755041 144.956771 
L 257.475702 144.546524 
L 254.196364 139.222898 
L 250.917025 141.406032 
L 247.637686 141.758319 
L 244.358347 141.551647 
L 241.079008 138.370497 
L 237.799669 138.806458 
L 234.520331 140.237677 
L 231.240992 144.377515 
L 227.961653 143.177095 
L 224.682314 135.518584 
L 221.402975 141.33244 
L 218.123636 137.889905 
L 214.844298 143.348146 
L 211.564959 141.650767 
L 208.28562 143.813832 
L 205.006281 138.43293 
L 201.726942 138.513683 
L 198.447603 140.414017 
L 195.168264 142.385797 
L 191.888926 142.828753 
L 188.609587 141.5216 
L 185.330248 138.284341 
L 182.050909 140.441861 
L 178.77157 143.305486 
L 175.492231 141.921837 
L 172.212893 138.805653 
L 168.933554 144.371012 
L 165.654215 135.825734 
L 162.374876 138.901565 
L 159.095537 133.831077 
L 155.816198 135.998208 
L 152.53686 137.297779 
L 149.257521 132.436274 
L 145.978182 138.404377 
L 142.698843 130.690072 
L 139.419504 135.403336 
L 136.140165 135.042772 
L 132.860826 129.491774 
L 129.581488 131.887523 
L 126.302149 133.119265 
L 123.02281 122.055023 
L 119.743471 135.971238 
L 116.464132 130.918815 
L 113.184793 127.08076 
L 109.905455 131.105161 
L 106.626116 131.10665 
L 103.346777 123.640626 
L 100.067438 125.552555 
L 96.788099 126.528915 
L 93.50876 122.908966 
L 90.229421 119.490973 
L 86.950083 121.699471 
L 83.670744 119.541081 
L 80.391405 116.512378 
L 77.112066 115.073998 
L 73.832727 111.725235 
z
" style="fill:#9ecae1;"/>
   </g>
   <g id="PolyCollection_4">
    <path clip-path="url(#p6c19454d77)" d="M 73.832727 83.522307 
L 73.832727 111.725235 
L 77.112066 115.073998 
L 80.391405 116.512378 
L 83.670744 119.541081 
L 86.950083 121.699471 
L 90.229421 119.490973 
L 93.50876 122.908966 
L 96.788099 126.528915 
L 100.067438 125.552555 
L 103.346777 123.640626 
L 106.626116 131.10665 
L 109.905455 131.105161 
L 113.184793 127.08076 
L 116.464132 130.918815 
L 119.743471 135.971238 
L 123.02281 122.055023 
L 126.302149 133.119265 
L 129.581488 131.887523 
L 132.860826 129.491774 
L 136.140165 135.042772 
L 139.419504 135.403336 
L 142.698843 130.690072 
L 145.978182 138.404377 
L 149.257521 132.436274 
L 152.53686 137.297779 
L 155.816198 135.998208 
L 159.095537 133.831077 
L 162.374876 138.901565 
L 165.654215 135.825734 
L 168.933554 144.371012 
L 172.212893 138.805653 
L 175.492231 141.921837 
L 178.77157 143.305486 
L 182.050909 140.441861 
L 185.330248 138.284341 
L 188.609587 141.5216 
L 191.888926 142.828753 
L 195.168264 142.385797 
L 198.447603 140.414017 
L 201.726942 138.513683 
L 205.006281 138.43293 
L 208.28562 143.813832 
L 211.564959 141.650767 
L 214.844298 143.348146 
L 218.123636 137.889905 
L 221.402975 141.33244 
L 224.682314 135.518584 
L 227.961653 143.177095 
L 231.240992 144.377515 
L 234.520331 140.237677 
L 237.799669 138.806458 
L 241.079008 138.370497 
L 244.358347 141.551647 
L 247.637686 141.758319 
L 250.917025 141.406032 
L 254.196364 139.222898 
L 257.475702 144.546524 
L 260.755041 144.956771 
L 264.03438 141.880049 
L 267.313719 139.491148 
L 270.593058 146.411934 
L 273.872397 147.001389 
L 277.151736 137.085554 
L 280.431074 145.335594 
L 283.710413 146.583884 
L 286.989752 142.386866 
L 290.269091 151.2258 
L 293.54843 143.875512 
L 296.827769 147.668582 
L 300.107107 145.58407 
L 303.386446 147.255733 
L 306.665785 141.844518 
L 309.945124 147.863297 
L 313.224463 146.126587 
L 316.503802 149.601587 
L 319.78314 146.66527 
L 323.062479 148.114616 
L 326.341818 147.830315 
L 329.621157 147.728531 
L 332.900496 148.699082 
L 336.179835 149.779185 
L 339.459174 146.443372 
L 342.738512 146.249277 
L 346.017851 149.703848 
L 349.29719 141.140039 
L 352.576529 149.05718 
L 355.855868 152.815845 
L 359.135207 149.27433 
L 362.414545 153.562008 
L 365.693884 147.701799 
L 368.973223 146.766987 
L 372.252562 148.314296 
L 375.531901 145.718182 
L 378.81124 150.769429 
L 382.090579 147.077351 
L 385.369917 150.048284 
L 388.649256 143.199535 
L 391.928595 149.167707 
L 395.207934 153.796373 
L 398.487273 151.042839 
L 398.487273 90.8347 
L 398.487273 90.8347 
L 395.207934 92.608144 
L 391.928595 90.433245 
L 388.649256 85.864557 
L 385.369917 91.989771 
L 382.090579 88.367967 
L 378.81124 91.201422 
L 375.531901 89.409156 
L 372.252562 93.871002 
L 368.973223 88.767408 
L 365.693884 89.906544 
L 362.414545 93.377692 
L 359.135207 93.954884 
L 355.855868 93.485029 
L 352.576529 92.338216 
L 349.29719 87.980624 
L 346.017851 94.620808 
L 342.738512 92.90775 
L 339.459174 90.544872 
L 336.179835 96.864848 
L 332.900496 92.622052 
L 329.621157 85.493364 
L 326.341818 92.248225 
L 323.062479 89.353221 
L 319.78314 90.316001 
L 316.503802 93.450124 
L 313.224463 95.423925 
L 309.945124 93.9795 
L 306.665785 88.706669 
L 303.386446 90.238211 
L 300.107107 90.087873 
L 296.827769 93.529619 
L 293.54843 88.308174 
L 290.269091 95.536578 
L 286.989752 87.38088 
L 283.710413 87.937793 
L 280.431074 90.360336 
L 277.151736 89.353221 
L 273.872397 89.587364 
L 270.593058 89.778892 
L 267.313719 87.017719 
L 264.03438 88.847445 
L 260.755041 92.139222 
L 257.475702 91.804346 
L 254.196364 88.103356 
L 250.917025 89.558506 
L 247.637686 89.571445 
L 244.358347 87.25408 
L 241.079008 85.70517 
L 237.799669 88.209727 
L 234.520331 91.594712 
L 231.240992 87.478205 
L 227.961653 92.329599 
L 224.682314 86.030743 
L 221.402975 94.203092 
L 218.123636 92.603445 
L 214.844298 96.370773 
L 211.564959 90.104 
L 208.28562 92.395489 
L 205.006281 90.435422 
L 201.726942 92.303575 
L 198.447603 91.640996 
L 195.168264 90.977965 
L 191.888926 90.858977 
L 188.609587 92.80238 
L 185.330248 87.794557 
L 182.050909 89.401811 
L 178.77157 93.569789 
L 175.492231 95.571679 
L 172.212893 97.085162 
L 168.933554 95.829218 
L 165.654215 88.463207 
L 162.374876 91.481503 
L 159.095537 88.268396 
L 155.816198 92.652112 
L 152.53686 90.636944 
L 149.257521 89.465248 
L 145.978182 91.6906 
L 142.698843 88.426398 
L 139.419504 88.38211 
L 136.140165 88.651128 
L 132.860826 89.353221 
L 129.581488 90.423155 
L 126.302149 88.389112 
L 123.02281 82.167131 
L 119.743471 90.479428 
L 116.464132 93.268858 
L 113.184793 84.891644 
L 109.905455 88.945359 
L 106.626116 89.438387 
L 103.346777 84.70732 
L 100.067438 91.524898 
L 96.788099 91.51652 
L 93.50876 87.793575 
L 90.229421 82.076975 
L 86.950083 88.024737 
L 83.670744 85.789787 
L 80.391405 86.752084 
L 77.112066 86.59339 
L 73.832727 83.522307 
z
" style="fill:#6baed6;"/>
   </g>
   <g id="PolyCollection_5">
    <path clip-path="url(#p6c19454d77)" d="M 73.832727 75.989278 
L 73.832727 83.522307 
L 77.112066 86.59339 
L 80.391405 86.752084 
L 83.670744 85.789787 
L 86.950083 88.024737 
L 90.229421 82.076975 
L 93.50876 87.793575 
L 96.788099 91.51652 
L 100.067438 91.524898 
L 103.346777 84.70732 
L 106.626116 89.438387 
L 109.905455 88.945359 
L 113.184793 84.891644 
L 116.464132 93.268858 
L 119.743471 90.479428 
L 123.02281 82.167131 
L 126.302149 88.389112 
L 129.581488 90.423155 
L 132.860826 89.353221 
L 136.140165 88.651128 
L 139.419504 88.38211 
L 142.698843 88.426398 
L 145.978182 91.6906 
L 149.257521 89.465248 
L 152.53686 90.636944 
L 155.816198 92.652112 
L 159.095537 88.268396 
L 162.374876 91.481503 
L 165.654215 88.463207 
L 168.933554 95.829218 
L 172.212893 97.085162 
L 175.492231 95.571679 
L 178.77157 93.569789 
L 182.050909 89.401811 
L 185.330248 87.794557 
L 188.609587 92.80238 
L 191.888926 90.858977 
L 195.168264 90.977965 
L 198.447603 91.640996 
L 201.726942 92.303575 
L 205.006281 90.435422 
L 208.28562 92.395489 
L 211.564959 90.104 
L 214.844298 96.370773 
L 218.123636 92.603445 
L 221.402975 94.203092 
L 224.682314 86.030743 
L 227.961653 92.329599 
L 231.240992 87.478205 
L 234.520331 91.594712 
L 237.799669 88.209727 
L 241.079008 85.70517 
L 244.358347 87.25408 
L 247.637686 89.571445 
L 250.917025 89.558506 
L 254.196364 88.103356 
L 257.475702 91.804346 
L 260.755041 92.139222 
L 264.03438 88.847445 
L 267.313719 87.017719 
L 270.593058 89.778892 
L 273.872397 89.587364 
L 277.151736 89.353221 
L 280.431074 90.360336 
L 283.710413 87.937793 
L 286.989752 87.38088 
L 290.269091 95.536578 
L 293.54843 88.308174 
L 296.827769 93.529619 
L 300.107107 90.087873 
L 303.386446 90.238211 
L 306.665785 88.706669 
L 309.945124 93.9795 
L 313.224463 95.423925 
L 316.503802 93.450124 
L 319.78314 90.316001 
L 323.062479 89.353221 
L 326.341818 92.248225 
L 329.621157 85.493364 
L 332.900496 92.622052 
L 336.179835 96.864848 
L 339.459174 90.544872 
L 342.738512 92.90775 
L 346.017851 94.620808 
L 349.29719 87.980624 
L 352.576529 92.338216 
L 355.855868 93.485029 
L 359.135207 93.954884 
L 362.414545 93.377692 
L 365.693884 89.906544 
L 368.973223 88.767408 
L 372.252562 93.871002 
L 375.531901 89.409156 
L 378.81124 91.201422 
L 382.090579 88.367967 
L 385.369917 91.989771 
L 388.649256 85.864557 
L 391.928595 90.433245 
L 395.207934 92.608144 
L 398.487273 90.8347 
L 398.487273 55.418148 
L 398.487273 55.418148 
L 395.207934 57.202492 
L 391.928595 54.303213 
L 388.649256 54.83835 
L 385.369917 54.911905 
L 382.090579 55.408313 
L 378.81124 57.29072 
L 375.531901 54.283911 
L 372.252562 55.668419 
L 368.973223 55.725224 
L 365.693884 58.038133 
L 362.414545 58.477911 
L 359.135207 60.336314 
L 355.855868 60.100104 
L 352.576529 60.310788 
L 349.29719 56.268284 
L 346.017851 57.960189 
L 342.738512 59.405528 
L 339.459174 57.770507 
L 336.179835 61.963902 
L 332.900496 57.573909 
L 329.621157 54.553596 
L 326.341818 57.106001 
L 323.062479 56.989254 
L 319.78314 59.831971 
L 316.503802 60.22868 
L 313.224463 56.767641 
L 309.945124 57.822945 
L 306.665785 57.799961 
L 303.386446 58.780268 
L 300.107107 58.667232 
L 296.827769 59.223742 
L 293.54843 56.689049 
L 290.269091 58.945904 
L 286.989752 56.921538 
L 283.710413 56.954953 
L 280.431074 56.80401 
L 277.151736 56.446841 
L 273.872397 58.142144 
L 270.593058 55.799067 
L 267.313719 55.355785 
L 264.03438 57.835299 
L 260.755041 59.468574 
L 257.475702 57.771387 
L 254.196364 56.801897 
L 250.917025 58.981759 
L 247.637686 58.750936 
L 244.358347 57.519699 
L 241.079008 54.144 
L 237.799669 57.157582 
L 234.520331 61.465113 
L 231.240992 58.225895 
L 227.961653 62.951046 
L 224.682314 60.715809 
L 221.402975 58.021112 
L 218.123636 58.942244 
L 214.844298 62.33992 
L 211.564959 60.778807 
L 208.28562 61.105323 
L 205.006281 60.994572 
L 201.726942 58.012741 
L 198.447603 61.543146 
L 195.168264 61.134467 
L 191.888926 55.84388 
L 188.609587 63.040055 
L 185.330248 59.725062 
L 182.050909 60.609989 
L 178.77157 64.557299 
L 175.492231 65.963974 
L 172.212893 65.225879 
L 168.933554 65.402659 
L 165.654215 63.215479 
L 162.374876 63.6594 
L 159.095537 62.594187 
L 155.816198 61.716309 
L 152.53686 60.505408 
L 149.257521 59.548711 
L 145.978182 62.11122 
L 142.698843 63.545364 
L 139.419504 66.081602 
L 136.140165 61.35143 
L 132.860826 65.306251 
L 129.581488 66.177041 
L 126.302149 66.966625 
L 123.02281 64.569532 
L 119.743471 65.866322 
L 116.464132 69.247844 
L 113.184793 66.196075 
L 109.905455 70.827097 
L 106.626116 69.176172 
L 103.346777 66.56044 
L 100.067438 70.877048 
L 96.788099 71.960048 
L 93.50876 72.31088 
L 90.229421 68.777468 
L 86.950083 75.452837 
L 83.670744 74.161191 
L 80.391405 72.530351 
L 77.112066 74.77571 
L 73.832727 75.989278 
z
" style="fill:#3182bd;"/>
   </g>
   <g id="matplotlib.axis_1">
    <g id="xtick_1">
     <g id="line2d_1">
      <defs>
       <path d="M 0 0 
L 0 3.5 
" id="md35a078f1e" style="stroke:#000000;stroke-width:0.8;"/>
      </defs>
      <g>
       <use style="stroke:#000000;stroke-width:0.8;" x="70.553388" xlink:href="#md35a078f1e" y="307.584"/>
      </g>
     </g>
     <g id="text_1">
      <!-- 0 -->
      <defs>
       <path d="M 31.78125 66.40625 
Q 24.171875 66.40625 20.328125 58.90625 
Q 16.5 51.421875 16.5 36.375 
Q 16.5 21.390625 20.328125 13.890625 
Q 24.171875 6.390625 31.78125 6.390625 
Q 39.453125 6.390625 43.28125 13.890625 
Q 47.125 21.390625 47.125 36.375 
Q 47.125 51.421875 43.28125 58.90625 
Q 39.453125 66.40625 31.78125 66.40625 
z
M 31.78125 74.21875 
Q 44.046875 74.21875 50.515625 64.515625 
Q 56.984375 54.828125 56.984375 36.375 
Q 56.984375 17.96875 50.515625 8.265625 
Q 44.046875 -1.421875 31.78125 -1.421875 
Q 19.53125 -1.421875 13.0625 8.265625 
Q 6.59375 17.96875 6.59375 36.375 
Q 6.59375 54.828125 13.0625 64.515625 
Q 19.53125 74.21875 31.78125 74.21875 
z
" id="DejaVuSans-30"/>
      </defs>
      <g transform="translate(67.372138 322.182437)scale(0.1 -0.1)">
       <use xlink:href="#DejaVuSans-30"/>
      </g>
     </g>
    </g>
    <g id="xtick_2">
     <g id="line2d_2">
      <g>
       <use style="stroke:#000000;stroke-width:0.8;" x="136.140165" xlink:href="#md35a078f1e" y="307.584"/>
      </g>
     </g>
     <g id="text_2">
      <!-- 200000 -->
      <defs>
       <path d="M 19.1875 8.296875 
L 53.609375 8.296875 
L 53.609375 0 
L 7.328125 0 
L 7.328125 8.296875 
Q 12.9375 14.109375 22.625 23.890625 
Q 32.328125 33.6875 34.8125 36.53125 
Q 39.546875 41.84375 41.421875 45.53125 
Q 43.3125 49.21875 43.3125 52.78125 
Q 43.3125 58.59375 39.234375 62.25 
Q 35.15625 65.921875 28.609375 65.921875 
Q 23.96875 65.921875 18.8125 64.3125 
Q 13.671875 62.703125 7.8125 59.421875 
L 7.8125 69.390625 
Q 13.765625 71.78125 18.9375 73 
Q 24.125 74.21875 28.421875 74.21875 
Q 39.75 74.21875 46.484375 68.546875 
Q 53.21875 62.890625 53.21875 53.421875 
Q 53.21875 48.921875 51.53125 44.890625 
Q 49.859375 40.875 45.40625 35.40625 
Q 44.1875 33.984375 37.640625 27.21875 
Q 31.109375 20.453125 19.1875 8.296875 
z
" id="DejaVuSans-32"/>
      </defs>
      <g transform="translate(117.052665 322.182437)scale(0.1 -0.1)">
       <use xlink:href="#DejaVuSans-32"/>
       <use x="63.623047" xlink:href="#DejaVuSans-30"/>
       <use x="127.246094" xlink:href="#DejaVuSans-30"/>
       <use x="190.869141" xlink:href="#DejaVuSans-30"/>
       <use x="254.492188" xlink:href="#DejaVuSans-30"/>
       <use x="318.115234" xlink:href="#DejaVuSans-30"/>
      </g>
     </g>
    </g>
    <g id="xtick_3">
     <g id="line2d_3">
      <g>
       <use style="stroke:#000000;stroke-width:0.8;" x="201.726942" xlink:href="#md35a078f1e" y="307.584"/>
      </g>
     </g>
     <g id="text_3">
      <!-- 400000 -->
      <defs>
       <path d="M 37.796875 64.3125 
L 12.890625 25.390625 
L 37.796875 25.390625 
z
M 35.203125 72.90625 
L 47.609375 72.90625 
L 47.609375 25.390625 
L 58.015625 25.390625 
L 58.015625 17.1875 
L 47.609375 17.1875 
L 47.609375 0 
L 37.796875 0 
L 37.796875 17.1875 
L 4.890625 17.1875 
L 4.890625 26.703125 
z
" id="DejaVuSans-34"/>
      </defs>
      <g transform="translate(182.639442 322.182437)scale(0.1 -0.1)">
       <use xlink:href="#DejaVuSans-34"/>
       <use x="63.623047" xlink:href="#DejaVuSans-30"/>
       <use x="127.246094" xlink:href="#DejaVuSans-30"/>
       <use x="190.869141" xlink:href="#DejaVuSans-30"/>
       <use x="254.492188" xlink:href="#DejaVuSans-30"/>
       <use x="318.115234" xlink:href="#DejaVuSans-30"/>
      </g>
     </g>
    </g>
    <g id="xtick_4">
     <g id="line2d_4">
      <g>
       <use style="stroke:#000000;stroke-width:0.8;" x="267.313719" xlink:href="#md35a078f1e" y="307.584"/>
      </g>
     </g>
     <g id="text_4">
      <!-- 600000 -->
      <defs>
       <path d="M 33.015625 40.375 
Q 26.375 40.375 22.484375 35.828125 
Q 18.609375 31.296875 18.609375 23.390625 
Q 18.609375 15.53125 22.484375 10.953125 
Q 26.375 6.390625 33.015625 6.390625 
Q 39.65625 6.390625 43.53125 10.953125 
Q 47.40625 15.53125 47.40625 23.390625 
Q 47.40625 31.296875 43.53125 35.828125 
Q 39.65625 40.375 33.015625 40.375 
z
M 52.59375 71.296875 
L 52.59375 62.3125 
Q 48.875 64.0625 45.09375 64.984375 
Q 41.3125 65.921875 37.59375 65.921875 
Q 27.828125 65.921875 22.671875 59.328125 
Q 17.53125 52.734375 16.796875 39.40625 
Q 19.671875 43.65625 24.015625 45.921875 
Q 28.375 48.1875 33.59375 48.1875 
Q 44.578125 48.1875 50.953125 41.515625 
Q 57.328125 34.859375 57.328125 23.390625 
Q 57.328125 12.15625 50.6875 5.359375 
Q 44.046875 -1.421875 33.015625 -1.421875 
Q 20.359375 -1.421875 13.671875 8.265625 
Q 6.984375 17.96875 6.984375 36.375 
Q 6.984375 53.65625 15.1875 63.9375 
Q 23.390625 74.21875 37.203125 74.21875 
Q 40.921875 74.21875 44.703125 73.484375 
Q 48.484375 72.75 52.59375 71.296875 
z
" id="DejaVuSans-36"/>
      </defs>
      <g transform="translate(248.226219 322.182437)scale(0.1 -0.1)">
       <use xlink:href="#DejaVuSans-36"/>
       <use x="63.623047" xlink:href="#DejaVuSans-30"/>
       <use x="127.246094" xlink:href="#DejaVuSans-30"/>
       <use x="190.869141" xlink:href="#DejaVuSans-30"/>
       <use x="254.492188" xlink:href="#DejaVuSans-30"/>
       <use x="318.115234" xlink:href="#DejaVuSans-30"/>
      </g>
     </g>
    </g>
    <g id="xtick_5">
     <g id="line2d_5">
      <g>
       <use style="stroke:#000000;stroke-width:0.8;" x="332.900496" xlink:href="#md35a078f1e" y="307.584"/>
      </g>
     </g>
     <g id="text_5">
      <!-- 800000 -->
      <defs>
       <path d="M 31.78125 34.625 
Q 24.75 34.625 20.71875 30.859375 
Q 16.703125 27.09375 16.703125 20.515625 
Q 16.703125 13.921875 20.71875 10.15625 
Q 24.75 6.390625 31.78125 6.390625 
Q 38.8125 6.390625 42.859375 10.171875 
Q 46.921875 13.96875 46.921875 20.515625 
Q 46.921875 27.09375 42.890625 30.859375 
Q 38.875 34.625 31.78125 34.625 
z
M 21.921875 38.8125 
Q 15.578125 40.375 12.03125 44.71875 
Q 8.5 49.078125 8.5 55.328125 
Q 8.5 64.0625 14.71875 69.140625 
Q 20.953125 74.21875 31.78125 74.21875 
Q 42.671875 74.21875 48.875 69.140625 
Q 55.078125 64.0625 55.078125 55.328125 
Q 55.078125 49.078125 51.53125 44.71875 
Q 48 40.375 41.703125 38.8125 
Q 48.828125 37.15625 52.796875 32.3125 
Q 56.78125 27.484375 56.78125 20.515625 
Q 56.78125 9.90625 50.3125 4.234375 
Q 43.84375 -1.421875 31.78125 -1.421875 
Q 19.734375 -1.421875 13.25 4.234375 
Q 6.78125 9.90625 6.78125 20.515625 
Q 6.78125 27.484375 10.78125 32.3125 
Q 14.796875 37.15625 21.921875 38.8125 
z
M 18.3125 54.390625 
Q 18.3125 48.734375 21.84375 45.5625 
Q 25.390625 42.390625 31.78125 42.390625 
Q 38.140625 42.390625 41.71875 45.5625 
Q 45.3125 48.734375 45.3125 54.390625 
Q 45.3125 60.0625 41.71875 63.234375 
Q 38.140625 66.40625 31.78125 66.40625 
Q 25.390625 66.40625 21.84375 63.234375 
Q 18.3125 60.0625 18.3125 54.390625 
z
" id="DejaVuSans-38"/>
      </defs>
      <g transform="translate(313.812996 322.182437)scale(0.1 -0.1)">
       <use xlink:href="#DejaVuSans-38"/>
       <use x="63.623047" xlink:href="#DejaVuSans-30"/>
       <use x="127.246094" xlink:href="#DejaVuSans-30"/>
       <use x="190.869141" xlink:href="#DejaVuSans-30"/>
       <use x="254.492188" xlink:href="#DejaVuSans-30"/>
       <use x="318.115234" xlink:href="#DejaVuSans-30"/>
      </g>
     </g>
    </g>
    <g id="xtick_6">
     <g id="line2d_6">
      <g>
       <use style="stroke:#000000;stroke-width:0.8;" x="398.487273" xlink:href="#md35a078f1e" y="307.584"/>
      </g>
     </g>
     <g id="text_6">
      <!-- 1000000 -->
      <defs>
       <path d="M 12.40625 8.296875 
L 28.515625 8.296875 
L 28.515625 63.921875 
L 10.984375 60.40625 
L 10.984375 69.390625 
L 28.421875 72.90625 
L 38.28125 72.90625 
L 38.28125 8.296875 
L 54.390625 8.296875 
L 54.390625 0 
L 12.40625 0 
z
" id="DejaVuSans-31"/>
      </defs>
      <g transform="translate(376.218523 322.182437)scale(0.1 -0.1)">
       <use xlink:href="#DejaVuSans-31"/>
       <use x="63.623047" xlink:href="#DejaVuSans-30"/>
       <use x="127.246094" xlink:href="#DejaVuSans-30"/>
       <use x="190.869141" xlink:href="#DejaVuSans-30"/>
       <use x="254.492188" xlink:href="#DejaVuSans-30"/>
       <use x="318.115234" xlink:href="#DejaVuSans-30"/>
       <use x="381.738281" xlink:href="#DejaVuSans-30"/>
      </g>
     </g>
    </g>
    <g id="text_7">
     <!-- alexa rank -->
     <defs>
      <path d="M 34.28125 27.484375 
Q 23.390625 27.484375 19.1875 25 
Q 14.984375 22.515625 14.984375 16.5 
Q 14.984375 11.71875 18.140625 8.90625 
Q 21.296875 6.109375 26.703125 6.109375 
Q 34.1875 6.109375 38.703125 11.40625 
Q 43.21875 16.703125 43.21875 25.484375 
L 43.21875 27.484375 
z
M 52.203125 31.203125 
L 52.203125 0 
L 43.21875 0 
L 43.21875 8.296875 
Q 40.140625 3.328125 35.546875 0.953125 
Q 30.953125 -1.421875 24.3125 -1.421875 
Q 15.921875 -1.421875 10.953125 3.296875 
Q 6 8.015625 6 15.921875 
Q 6 25.140625 12.171875 29.828125 
Q 18.359375 34.515625 30.609375 34.515625 
L 43.21875 34.515625 
L 43.21875 35.40625 
Q 43.21875 41.609375 39.140625 45 
Q 35.0625 48.390625 27.6875 48.390625 
Q 23 48.390625 18.546875 47.265625 
Q 14.109375 46.140625 10.015625 43.890625 
L 10.015625 52.203125 
Q 14.9375 54.109375 19.578125 55.046875 
Q 24.21875 56 28.609375 56 
Q 40.484375 56 46.34375 49.84375 
Q 52.203125 43.703125 52.203125 31.203125 
z
" id="DejaVuSans-61"/>
      <path d="M 9.421875 75.984375 
L 18.40625 75.984375 
L 18.40625 0 
L 9.421875 0 
z
" id="DejaVuSans-6c"/>
      <path d="M 56.203125 29.59375 
L 56.203125 25.203125 
L 14.890625 25.203125 
Q 15.484375 15.921875 20.484375 11.0625 
Q 25.484375 6.203125 34.421875 6.203125 
Q 39.59375 6.203125 44.453125 7.46875 
Q 49.3125 8.734375 54.109375 11.28125 
L 54.109375 2.78125 
Q 49.265625 0.734375 44.1875 -0.34375 
Q 39.109375 -1.421875 33.890625 -1.421875 
Q 20.796875 -1.421875 13.15625 6.1875 
Q 5.515625 13.8125 5.515625 26.8125 
Q 5.515625 40.234375 12.765625 48.109375 
Q 20.015625 56 32.328125 56 
Q 43.359375 56 49.78125 48.890625 
Q 56.203125 41.796875 56.203125 29.59375 
z
M 47.21875 32.234375 
Q 47.125 39.59375 43.09375 43.984375 
Q 39.0625 48.390625 32.421875 48.390625 
Q 24.90625 48.390625 20.390625 44.140625 
Q 15.875 39.890625 15.1875 32.171875 
z
" id="DejaVuSans-65"/>
      <path d="M 54.890625 54.6875 
L 35.109375 28.078125 
L 55.90625 0 
L 45.3125 0 
L 29.390625 21.484375 
L 13.484375 0 
L 2.875 0 
L 24.125 28.609375 
L 4.6875 54.6875 
L 15.28125 54.6875 
L 29.78125 35.203125 
L 44.28125 54.6875 
z
" id="DejaVuSans-78"/>
      <path id="DejaVuSans-20"/>
      <path d="M 41.109375 46.296875 
Q 39.59375 47.171875 37.8125 47.578125 
Q 36.03125 48 33.890625 48 
Q 26.265625 48 22.1875 43.046875 
Q 18.109375 38.09375 18.109375 28.8125 
L 18.109375 0 
L 9.078125 0 
L 9.078125 54.6875 
L 18.109375 54.6875 
L 18.109375 46.1875 
Q 20.953125 51.171875 25.484375 53.578125 
Q 30.03125 56 36.53125 56 
Q 37.453125 56 38.578125 55.875 
Q 39.703125 55.765625 41.0625 55.515625 
z
" id="DejaVuSans-72"/>
      <path d="M 54.890625 33.015625 
L 54.890625 0 
L 45.90625 0 
L 45.90625 32.71875 
Q 45.90625 40.484375 42.875 44.328125 
Q 39.84375 48.1875 33.796875 48.1875 
Q 26.515625 48.1875 22.3125 43.546875 
Q 18.109375 38.921875 18.109375 30.90625 
L 18.109375 0 
L 9.078125 0 
L 9.078125 54.6875 
L 18.109375 54.6875 
L 18.109375 46.1875 
Q 21.34375 51.125 25.703125 53.5625 
Q 30.078125 56 35.796875 56 
Q 45.21875 56 50.046875 50.171875 
Q 54.890625 44.34375 54.890625 33.015625 
z
" id="DejaVuSans-6e"/>
      <path d="M 9.078125 75.984375 
L 18.109375 75.984375 
L 18.109375 31.109375 
L 44.921875 54.6875 
L 56.390625 54.6875 
L 27.390625 29.109375 
L 57.625 0 
L 45.90625 0 
L 18.109375 26.703125 
L 18.109375 0 
L 9.078125 0 
z
" id="DejaVuSans-6b"/>
     </defs>
     <g transform="translate(209.835 335.860562)scale(0.1 -0.1)">
      <use xlink:href="#DejaVuSans-61"/>
      <use x="61.279297" xlink:href="#DejaVuSans-6c"/>
      <use x="89.0625" xlink:href="#DejaVuSans-65"/>
      <use x="150.570312" xlink:href="#DejaVuSans-78"/>
      <use x="209.75" xlink:href="#DejaVuSans-61"/>
      <use x="271.029297" xlink:href="#DejaVuSans-20"/>
      <use x="302.816406" xlink:href="#DejaVuSans-72"/>
      <use x="343.929688" xlink:href="#DejaVuSans-61"/>
      <use x="405.208984" xlink:href="#DejaVuSans-6e"/>
      <use x="468.587891" xlink:href="#DejaVuSans-6b"/>
     </g>
    </g>
   </g>
   <g id="matplotlib.axis_2">
    <g id="ytick_1">
     <g id="line2d_7">
      <defs>
       <path d="M 0 0 
L -3.5 0 
" id="m83a917800e" style="stroke:#000000;stroke-width:0.8;"/>
      </defs>
      <g>
       <use style="stroke:#000000;stroke-width:0.8;" x="57.6" xlink:href="#m83a917800e" y="307.584"/>
      </g>
     </g>
     <g id="text_8">
      <!-- 0.0 -->
      <defs>
       <path d="M 10.6875 12.40625 
L 21 12.40625 
L 21 0 
L 10.6875 0 
z
" id="DejaVuSans-2e"/>
      </defs>
      <g transform="translate(34.696875 311.383219)scale(0.1 -0.1)">
       <use xlink:href="#DejaVuSans-30"/>
       <use x="63.623047" xlink:href="#DejaVuSans-2e"/>
       <use x="95.410156" xlink:href="#DejaVuSans-30"/>
      </g>
     </g>
    </g>
    <g id="ytick_2">
     <g id="line2d_8">
      <g>
       <use style="stroke:#000000;stroke-width:0.8;" x="57.6" xlink:href="#m83a917800e" y="255.964375"/>
      </g>
     </g>
     <g id="text_9">
      <!-- 0.1 -->
      <g transform="translate(34.696875 259.763594)scale(0.1 -0.1)">
       <use xlink:href="#DejaVuSans-30"/>
       <use x="63.623047" xlink:href="#DejaVuSans-2e"/>
       <use x="95.410156" xlink:href="#DejaVuSans-31"/>
      </g>
     </g>
    </g>
    <g id="ytick_3">
     <g id="line2d_9">
      <g>
       <use style="stroke:#000000;stroke-width:0.8;" x="57.6" xlink:href="#m83a917800e" y="204.34475"/>
      </g>
     </g>
     <g id="text_10">
      <!-- 0.2 -->
      <g transform="translate(34.696875 208.143969)scale(0.1 -0.1)">
       <use xlink:href="#DejaVuSans-30"/>
       <use x="63.623047" xlink:href="#DejaVuSans-2e"/>
       <use x="95.410156" xlink:href="#DejaVuSans-32"/>
      </g>
     </g>
    </g>
    <g id="ytick_4">
     <g id="line2d_10">
      <g>
       <use style="stroke:#000000;stroke-width:0.8;" x="57.6" xlink:href="#m83a917800e" y="152.725125"/>
      </g>
     </g>
     <g id="text_11">
      <!-- 0.3 -->
      <defs>
       <path d="M 40.578125 39.3125 
Q 47.65625 37.796875 51.625 33 
Q 55.609375 28.21875 55.609375 21.1875 
Q 55.609375 10.40625 48.1875 4.484375 
Q 40.765625 -1.421875 27.09375 -1.421875 
Q 22.515625 -1.421875 17.65625 -0.515625 
Q 12.796875 0.390625 7.625 2.203125 
L 7.625 11.71875 
Q 11.71875 9.328125 16.59375 8.109375 
Q 21.484375 6.890625 26.8125 6.890625 
Q 36.078125 6.890625 40.9375 10.546875 
Q 45.796875 14.203125 45.796875 21.1875 
Q 45.796875 27.640625 41.28125 31.265625 
Q 36.765625 34.90625 28.71875 34.90625 
L 20.21875 34.90625 
L 20.21875 43.015625 
L 29.109375 43.015625 
Q 36.375 43.015625 40.234375 45.921875 
Q 44.09375 48.828125 44.09375 54.296875 
Q 44.09375 59.90625 40.109375 62.90625 
Q 36.140625 65.921875 28.71875 65.921875 
Q 24.65625 65.921875 20.015625 65.03125 
Q 15.375 64.15625 9.8125 62.3125 
L 9.8125 71.09375 
Q 15.4375 72.65625 20.34375 73.4375 
Q 25.25 74.21875 29.59375 74.21875 
Q 40.828125 74.21875 47.359375 69.109375 
Q 53.90625 64.015625 53.90625 55.328125 
Q 53.90625 49.265625 50.4375 45.09375 
Q 46.96875 40.921875 40.578125 39.3125 
z
" id="DejaVuSans-33"/>
      </defs>
      <g transform="translate(34.696875 156.524344)scale(0.1 -0.1)">
       <use xlink:href="#DejaVuSans-30"/>
       <use x="63.623047" xlink:href="#DejaVuSans-2e"/>
       <use x="95.410156" xlink:href="#DejaVuSans-33"/>
      </g>
     </g>
    </g>
    <g id="ytick_5">
     <g id="line2d_11">
      <g>
       <use style="stroke:#000000;stroke-width:0.8;" x="57.6" xlink:href="#m83a917800e" y="101.1055"/>
      </g>
     </g>
     <g id="text_12">
      <!-- 0.4 -->
      <g transform="translate(34.696875 104.904719)scale(0.1 -0.1)">
       <use xlink:href="#DejaVuSans-30"/>
       <use x="63.623047" xlink:href="#DejaVuSans-2e"/>
       <use x="95.410156" xlink:href="#DejaVuSans-34"/>
      </g>
     </g>
    </g>
    <g id="ytick_6">
     <g id="line2d_12">
      <g>
       <use style="stroke:#000000;stroke-width:0.8;" x="57.6" xlink:href="#m83a917800e" y="49.485875"/>
      </g>
     </g>
     <g id="text_13">
      <!-- 0.5 -->
      <defs>
       <path d="M 10.796875 72.90625 
L 49.515625 72.90625 
L 49.515625 64.59375 
L 19.828125 64.59375 
L 19.828125 46.734375 
Q 21.96875 47.46875 24.109375 47.828125 
Q 26.265625 48.1875 28.421875 48.1875 
Q 40.625 48.1875 47.75 41.5 
Q 54.890625 34.8125 54.890625 23.390625 
Q 54.890625 11.625 47.5625 5.09375 
Q 40.234375 -1.421875 26.90625 -1.421875 
Q 22.3125 -1.421875 17.546875 -0.640625 
Q 12.796875 0.140625 7.71875 1.703125 
L 7.71875 11.625 
Q 12.109375 9.234375 16.796875 8.0625 
Q 21.484375 6.890625 26.703125 6.890625 
Q 35.15625 6.890625 40.078125 11.328125 
Q 45.015625 15.765625 45.015625 23.390625 
Q 45.015625 31 40.078125 35.4375 
Q 35.15625 39.890625 26.703125 39.890625 
Q 22.75 39.890625 18.8125 39.015625 
Q 14.890625 38.140625 10.796875 36.28125 
z
" id="DejaVuSans-35"/>
      </defs>
      <g transform="translate(34.696875 53.285094)scale(0.1 -0.1)">
       <use xlink:href="#DejaVuSans-30"/>
       <use x="63.623047" xlink:href="#DejaVuSans-2e"/>
       <use x="95.410156" xlink:href="#DejaVuSans-35"/>
      </g>
     </g>
    </g>
    <g id="text_14">
     <!-- proportion -->
     <defs>
      <path d="M 18.109375 8.203125 
L 18.109375 -20.796875 
L 9.078125 -20.796875 
L 9.078125 54.6875 
L 18.109375 54.6875 
L 18.109375 46.390625 
Q 20.953125 51.265625 25.265625 53.625 
Q 29.59375 56 35.59375 56 
Q 45.5625 56 51.78125 48.09375 
Q 58.015625 40.1875 58.015625 27.296875 
Q 58.015625 14.40625 51.78125 6.484375 
Q 45.5625 -1.421875 35.59375 -1.421875 
Q 29.59375 -1.421875 25.265625 0.953125 
Q 20.953125 3.328125 18.109375 8.203125 
z
M 48.6875 27.296875 
Q 48.6875 37.203125 44.609375 42.84375 
Q 40.53125 48.484375 33.40625 48.484375 
Q 26.265625 48.484375 22.1875 42.84375 
Q 18.109375 37.203125 18.109375 27.296875 
Q 18.109375 17.390625 22.1875 11.75 
Q 26.265625 6.109375 33.40625 6.109375 
Q 40.53125 6.109375 44.609375 11.75 
Q 48.6875 17.390625 48.6875 27.296875 
z
" id="DejaVuSans-70"/>
      <path d="M 30.609375 48.390625 
Q 23.390625 48.390625 19.1875 42.75 
Q 14.984375 37.109375 14.984375 27.296875 
Q 14.984375 17.484375 19.15625 11.84375 
Q 23.34375 6.203125 30.609375 6.203125 
Q 37.796875 6.203125 41.984375 11.859375 
Q 46.1875 17.53125 46.1875 27.296875 
Q 46.1875 37.015625 41.984375 42.703125 
Q 37.796875 48.390625 30.609375 48.390625 
z
M 30.609375 56 
Q 42.328125 56 49.015625 48.375 
Q 55.71875 40.765625 55.71875 27.296875 
Q 55.71875 13.875 49.015625 6.21875 
Q 42.328125 -1.421875 30.609375 -1.421875 
Q 18.84375 -1.421875 12.171875 6.21875 
Q 5.515625 13.875 5.515625 27.296875 
Q 5.515625 40.765625 12.171875 48.375 
Q 18.84375 56 30.609375 56 
z
" id="DejaVuSans-6f"/>
      <path d="M 18.3125 70.21875 
L 18.3125 54.6875 
L 36.8125 54.6875 
L 36.8125 47.703125 
L 18.3125 47.703125 
L 18.3125 18.015625 
Q 18.3125 11.328125 20.140625 9.421875 
Q 21.96875 7.515625 27.59375 7.515625 
L 36.8125 7.515625 
L 36.8125 0 
L 27.59375 0 
Q 17.1875 0 13.234375 3.875 
Q 9.28125 7.765625 9.28125 18.015625 
L 9.28125 47.703125 
L 2.6875 47.703125 
L 2.6875 54.6875 
L 9.28125 54.6875 
L 9.28125 70.21875 
z
" id="DejaVuSans-74"/>
      <path d="M 9.421875 54.6875 
L 18.40625 54.6875 
L 18.40625 0 
L 9.421875 0 
z
M 9.421875 75.984375 
L 18.40625 75.984375 
L 18.40625 64.59375 
L 9.421875 64.59375 
z
" id="DejaVuSans-69"/>
     </defs>
     <g transform="translate(28.617187 200.681906)rotate(-90)scale(0.1 -0.1)">
      <use xlink:href="#DejaVuSans-70"/>
      <use x="63.476562" xlink:href="#DejaVuSans-72"/>
      <use x="104.558594" xlink:href="#DejaVuSans-6f"/>
      <use x="165.740234" xlink:href="#DejaVuSans-70"/>
      <use x="229.216797" xlink:href="#DejaVuSans-6f"/>
      <use x="290.398438" xlink:href="#DejaVuSans-72"/>
      <use x="331.511719" xlink:href="#DejaVuSans-74"/>
      <use x="370.720703" xlink:href="#DejaVuSans-69"/>
      <use x="398.503906" xlink:href="#DejaVuSans-6f"/>
      <use x="459.685547" xlink:href="#DejaVuSans-6e"/>
     </g>
    </g>
   </g>
   <g id="line2d_13">
    <path clip-path="url(#p6c19454d77)" d="M 57.6 307.533121 
L 414.72 307.533121 
" style="fill:none;stroke:#808080;stroke-dasharray:1,1.65;stroke-dashoffset:0;"/>
   </g>
   <g id="line2d_14">
    <path clip-path="url(#p6c19454d77)" d="M 57.6 223.110356 
L 414.72 223.110356 
" style="fill:none;stroke:#808080;stroke-dasharray:1,1.65;stroke-dashoffset:0;"/>
   </g>
   <g id="line2d_15">
    <path clip-path="url(#p6c19454d77)" d="M 57.6 140.003215 
L 414.72 140.003215 
" style="fill:none;stroke:#808080;stroke-dasharray:1,1.65;stroke-dashoffset:0;"/>
   </g>
   <g id="line2d_16">
    <path clip-path="url(#p6c19454d77)" d="M 57.6 90.263888 
L 414.72 90.263888 
" style="fill:none;stroke:#808080;stroke-dasharray:1,1.65;stroke-dashoffset:0;"/>
   </g>
   <g id="patch_3">
    <path d="M 57.6 307.584 
L 57.6 41.472 
" style="fill:none;stroke:#000000;stroke-linecap:square;stroke-linejoin:miter;stroke-width:0.8;"/>
   </g>
   <g id="patch_4">
    <path d="M 414.72 307.584 
L 414.72 41.472 
" style="fill:none;stroke:#000000;stroke-linecap:square;stroke-linejoin:miter;stroke-width:0.8;"/>
   </g>
   <g id="patch_5">
    <path d="M 57.6 307.584 
L 414.72 307.584 
" style="fill:none;stroke:#000000;stroke-linecap:square;stroke-linejoin:miter;stroke-width:0.8;"/>
   </g>
   <g id="patch_6">
    <path d="M 57.6 41.472 
L 414.72 41.472 
" style="fill:none;stroke:#000000;stroke-linecap:square;stroke-linejoin:miter;stroke-width:0.8;"/>
   </g>
   <g id="text_15">
    <!-- 2 scts -->
    <defs>
     <path d="M 44.28125 53.078125 
L 44.28125 44.578125 
Q 40.484375 46.53125 36.375 47.5 
Q 32.28125 48.484375 27.875 48.484375 
Q 21.1875 48.484375 17.84375 46.4375 
Q 14.5 44.390625 14.5 40.28125 
Q 14.5 37.15625 16.890625 35.375 
Q 19.28125 33.59375 26.515625 31.984375 
L 29.59375 31.296875 
Q 39.15625 29.25 43.1875 25.515625 
Q 47.21875 21.78125 47.21875 15.09375 
Q 47.21875 7.46875 41.1875 3.015625 
Q 35.15625 -1.421875 24.609375 -1.421875 
Q 20.21875 -1.421875 15.453125 -0.5625 
Q 10.6875 0.296875 5.421875 2 
L 5.421875 11.28125 
Q 10.40625 8.6875 15.234375 7.390625 
Q 20.0625 6.109375 24.8125 6.109375 
Q 31.15625 6.109375 34.5625 8.28125 
Q 37.984375 10.453125 37.984375 14.40625 
Q 37.984375 18.0625 35.515625 20.015625 
Q 33.0625 21.96875 24.703125 23.78125 
L 21.578125 24.515625 
Q 13.234375 26.265625 9.515625 29.90625 
Q 5.8125 33.546875 5.8125 39.890625 
Q 5.8125 47.609375 11.28125 51.796875 
Q 16.75 56 26.8125 56 
Q 31.78125 56 36.171875 55.265625 
Q 40.578125 54.546875 44.28125 53.078125 
z
" id="DejaVuSans-73"/>
     <path d="M 48.78125 52.59375 
L 48.78125 44.1875 
Q 44.96875 46.296875 41.140625 47.34375 
Q 37.3125 48.390625 33.40625 48.390625 
Q 24.65625 48.390625 19.8125 42.84375 
Q 14.984375 37.3125 14.984375 27.296875 
Q 14.984375 17.28125 19.8125 11.734375 
Q 24.65625 6.203125 33.40625 6.203125 
Q 37.3125 6.203125 41.140625 7.25 
Q 44.96875 8.296875 48.78125 10.40625 
L 48.78125 2.09375 
Q 45.015625 0.34375 40.984375 -0.53125 
Q 36.96875 -1.421875 32.421875 -1.421875 
Q 20.0625 -1.421875 12.78125 6.34375 
Q 5.515625 14.109375 5.515625 27.296875 
Q 5.515625 40.671875 12.859375 48.328125 
Q 20.21875 56 33.015625 56 
Q 37.15625 56 41.109375 55.140625 
Q 45.0625 54.296875 48.78125 52.59375 
z
" id="DejaVuSans-63"/>
    </defs>
    <g transform="translate(93.50876 230.154563)scale(0.1 -0.1)">
     <use xlink:href="#DejaVuSans-32"/>
     <use x="63.623047" xlink:href="#DejaVuSans-20"/>
     <use x="95.410156" xlink:href="#DejaVuSans-73"/>
     <use x="147.509766" xlink:href="#DejaVuSans-63"/>
     <use x="202.490234" xlink:href="#DejaVuSans-74"/>
     <use x="241.699219" xlink:href="#DejaVuSans-73"/>
    </g>
   </g>
   <g id="text_16">
    <!-- 3 scts -->
    <g transform="translate(93.50876 13.352138)scale(0.1 -0.1)">
     <use xlink:href="#DejaVuSans-33"/>
     <use x="63.623047" xlink:href="#DejaVuSans-20"/>
     <use x="95.410156" xlink:href="#DejaVuSans-73"/>
     <use x="147.509766" xlink:href="#DejaVuSans-63"/>
     <use x="202.490234" xlink:href="#DejaVuSans-74"/>
     <use x="241.699219" xlink:href="#DejaVuSans-73"/>
    </g>
   </g>
   <g id="text_17">
    <!-- 4 scts -->
    <g transform="translate(93.50876 -131.182812)scale(0.1 -0.1)">
     <use xlink:href="#DejaVuSans-34"/>
     <use x="63.623047" xlink:href="#DejaVuSans-20"/>
     <use x="95.410156" xlink:href="#DejaVuSans-73"/>
     <use x="147.509766" xlink:href="#DejaVuSans-63"/>
     <use x="202.490234" xlink:href="#DejaVuSans-74"/>
     <use x="241.699219" xlink:href="#DejaVuSans-73"/>
    </g>
   </g>
   <g id="text_18">
    <!-- 5 or more scts -->
    <defs>
     <path d="M 52 44.1875 
Q 55.375 50.25 60.0625 53.125 
Q 64.75 56 71.09375 56 
Q 79.640625 56 84.28125 50.015625 
Q 88.921875 44.046875 88.921875 33.015625 
L 88.921875 0 
L 79.890625 0 
L 79.890625 32.71875 
Q 79.890625 40.578125 77.09375 44.375 
Q 74.3125 48.1875 68.609375 48.1875 
Q 61.625 48.1875 57.5625 43.546875 
Q 53.515625 38.921875 53.515625 30.90625 
L 53.515625 0 
L 44.484375 0 
L 44.484375 32.71875 
Q 44.484375 40.625 41.703125 44.40625 
Q 38.921875 48.1875 33.109375 48.1875 
Q 26.21875 48.1875 22.15625 43.53125 
Q 18.109375 38.875 18.109375 30.90625 
L 18.109375 0 
L 9.078125 0 
L 9.078125 54.6875 
L 18.109375 54.6875 
L 18.109375 46.1875 
Q 21.1875 51.21875 25.484375 53.609375 
Q 29.78125 56 35.6875 56 
Q 41.65625 56 45.828125 52.96875 
Q 50 49.953125 52 44.1875 
z
" id="DejaVuSans-6d"/>
    </defs>
    <g transform="translate(93.50876 -193.126362)scale(0.1 -0.1)">
     <use xlink:href="#DejaVuSans-35"/>
     <use x="63.623047" xlink:href="#DejaVuSans-20"/>
     <use x="95.410156" xlink:href="#DejaVuSans-6f"/>
     <use x="156.591797" xlink:href="#DejaVuSans-72"/>
     <use x="197.705078" xlink:href="#DejaVuSans-20"/>
     <use x="229.492188" xlink:href="#DejaVuSans-6d"/>
     <use x="326.904297" xlink:href="#DejaVuSans-6f"/>
     <use x="388.085938" xlink:href="#DejaVuSans-72"/>
     <use x="429.167969" xlink:href="#DejaVuSans-65"/>
     <use x="490.691406" xlink:href="#DejaVuSans-20"/>
     <use x="522.478516" xlink:href="#DejaVuSans-73"/>
     <use x="574.578125" xlink:href="#DejaVuSans-63"/>
     <use x="629.558594" xlink:href="#DejaVuSans-74"/>
     <use x="668.767578" xlink:href="#DejaVuSans-73"/>
    </g>
   </g>
   <g id="text_19">
    <!-- 0.00 -->
    <g style="fill:#808080;" transform="translate(48.287763 305.453434)scale(0.1 -0.1)">
     <use xlink:href="#DejaVuSans-30"/>
     <use x="63.623047" xlink:href="#DejaVuSans-2e"/>
     <use x="95.410156" xlink:href="#DejaVuSans-30"/>
     <use x="159.033203" xlink:href="#DejaVuSans-30"/>
    </g>
   </g>
   <g id="text_20">
    <!-- 0.16 -->
    <g style="fill:#808080;" transform="translate(48.287763 221.030669)scale(0.1 -0.1)">
     <use xlink:href="#DejaVuSans-30"/>
     <use x="63.623047" xlink:href="#DejaVuSans-2e"/>
     <use x="95.410156" xlink:href="#DejaVuSans-31"/>
     <use x="159.033203" xlink:href="#DejaVuSans-36"/>
    </g>
   </g>
   <g id="text_21">
    <!-- 0.32 -->
    <g style="fill:#808080;" transform="translate(48.287763 137.923527)scale(0.1 -0.1)">
     <use xlink:href="#DejaVuSans-30"/>
     <use x="63.623047" xlink:href="#DejaVuSans-2e"/>
     <use x="95.410156" xlink:href="#DejaVuSans-33"/>
     <use x="159.033203" xlink:href="#DejaVuSans-32"/>
    </g>
   </g>
   <g id="text_22">
    <!-- 0.42 -->
    <g style="fill:#808080;" transform="translate(48.287763 88.184201)scale(0.1 -0.1)">
     <use xlink:href="#DejaVuSans-30"/>
     <use x="63.623047" xlink:href="#DejaVuSans-2e"/>
     <use x="95.410156" xlink:href="#DejaVuSans-34"/>
     <use x="159.033203" xlink:href="#DejaVuSans-32"/>
    </g>
   </g>
   <g id="text_23">
    <!-- Non-EV Certificates with SCTs -->
    <defs>
     <path d="M 9.8125 72.90625 
L 23.09375 72.90625 
L 55.421875 11.921875 
L 55.421875 72.90625 
L 64.984375 72.90625 
L 64.984375 0 
L 51.703125 0 
L 19.390625 60.984375 
L 19.390625 0 
L 9.8125 0 
z
" id="DejaVuSans-4e"/>
     <path d="M 4.890625 31.390625 
L 31.203125 31.390625 
L 31.203125 23.390625 
L 4.890625 23.390625 
z
" id="DejaVuSans-2d"/>
     <path d="M 9.8125 72.90625 
L 55.90625 72.90625 
L 55.90625 64.59375 
L 19.671875 64.59375 
L 19.671875 43.015625 
L 54.390625 43.015625 
L 54.390625 34.71875 
L 19.671875 34.71875 
L 19.671875 8.296875 
L 56.78125 8.296875 
L 56.78125 0 
L 9.8125 0 
z
" id="DejaVuSans-45"/>
     <path d="M 28.609375 0 
L 0.78125 72.90625 
L 11.078125 72.90625 
L 34.1875 11.53125 
L 57.328125 72.90625 
L 67.578125 72.90625 
L 39.796875 0 
z
" id="DejaVuSans-56"/>
     <path d="M 64.40625 67.28125 
L 64.40625 56.890625 
Q 59.421875 61.53125 53.78125 63.8125 
Q 48.140625 66.109375 41.796875 66.109375 
Q 29.296875 66.109375 22.65625 58.46875 
Q 16.015625 50.828125 16.015625 36.375 
Q 16.015625 21.96875 22.65625 14.328125 
Q 29.296875 6.6875 41.796875 6.6875 
Q 48.140625 6.6875 53.78125 8.984375 
Q 59.421875 11.28125 64.40625 15.921875 
L 64.40625 5.609375 
Q 59.234375 2.09375 53.4375 0.328125 
Q 47.65625 -1.421875 41.21875 -1.421875 
Q 24.65625 -1.421875 15.125 8.703125 
Q 5.609375 18.84375 5.609375 36.375 
Q 5.609375 53.953125 15.125 64.078125 
Q 24.65625 74.21875 41.21875 74.21875 
Q 47.75 74.21875 53.53125 72.484375 
Q 59.328125 70.75 64.40625 67.28125 
z
" id="DejaVuSans-43"/>
     <path d="M 37.109375 75.984375 
L 37.109375 68.5 
L 28.515625 68.5 
Q 23.6875 68.5 21.796875 66.546875 
Q 19.921875 64.59375 19.921875 59.515625 
L 19.921875 54.6875 
L 34.71875 54.6875 
L 34.71875 47.703125 
L 19.921875 47.703125 
L 19.921875 0 
L 10.890625 0 
L 10.890625 47.703125 
L 2.296875 47.703125 
L 2.296875 54.6875 
L 10.890625 54.6875 
L 10.890625 58.5 
Q 10.890625 67.625 15.140625 71.796875 
Q 19.390625 75.984375 28.609375 75.984375 
z
" id="DejaVuSans-66"/>
     <path d="M 4.203125 54.6875 
L 13.1875 54.6875 
L 24.421875 12.015625 
L 35.59375 54.6875 
L 46.1875 54.6875 
L 57.421875 12.015625 
L 68.609375 54.6875 
L 77.59375 54.6875 
L 63.28125 0 
L 52.6875 0 
L 40.921875 44.828125 
L 29.109375 0 
L 18.5 0 
z
" id="DejaVuSans-77"/>
     <path d="M 54.890625 33.015625 
L 54.890625 0 
L 45.90625 0 
L 45.90625 32.71875 
Q 45.90625 40.484375 42.875 44.328125 
Q 39.84375 48.1875 33.796875 48.1875 
Q 26.515625 48.1875 22.3125 43.546875 
Q 18.109375 38.921875 18.109375 30.90625 
L 18.109375 0 
L 9.078125 0 
L 9.078125 75.984375 
L 18.109375 75.984375 
L 18.109375 46.1875 
Q 21.34375 51.125 25.703125 53.5625 
Q 30.078125 56 35.796875 56 
Q 45.21875 56 50.046875 50.171875 
Q 54.890625 44.34375 54.890625 33.015625 
z
" id="DejaVuSans-68"/>
     <path d="M 53.515625 70.515625 
L 53.515625 60.890625 
Q 47.90625 63.578125 42.921875 64.890625 
Q 37.9375 66.21875 33.296875 66.21875 
Q 25.25 66.21875 20.875 63.09375 
Q 16.5 59.96875 16.5 54.203125 
Q 16.5 49.359375 19.40625 46.890625 
Q 22.3125 44.4375 30.421875 42.921875 
L 36.375 41.703125 
Q 47.40625 39.59375 52.65625 34.296875 
Q 57.90625 29 57.90625 20.125 
Q 57.90625 9.515625 50.796875 4.046875 
Q 43.703125 -1.421875 29.984375 -1.421875 
Q 24.8125 -1.421875 18.96875 -0.25 
Q 13.140625 0.921875 6.890625 3.21875 
L 6.890625 13.375 
Q 12.890625 10.015625 18.65625 8.296875 
Q 24.421875 6.59375 29.984375 6.59375 
Q 38.421875 6.59375 43.015625 9.90625 
Q 47.609375 13.234375 47.609375 19.390625 
Q 47.609375 24.75 44.3125 27.78125 
Q 41.015625 30.8125 33.5 32.328125 
L 27.484375 33.5 
Q 16.453125 35.6875 11.515625 40.375 
Q 6.59375 45.0625 6.59375 53.421875 
Q 6.59375 63.09375 13.40625 68.65625 
Q 20.21875 74.21875 32.171875 74.21875 
Q 37.3125 74.21875 42.625 73.28125 
Q 47.953125 72.359375 53.515625 70.515625 
z
" id="DejaVuSans-53"/>
     <path d="M -0.296875 72.90625 
L 61.375 72.90625 
L 61.375 64.59375 
L 35.5 64.59375 
L 35.5 0 
L 25.59375 0 
L 25.59375 64.59375 
L -0.296875 64.59375 
z
" id="DejaVuSans-54"/>
    </defs>
    <g transform="translate(146.622187 35.472)scale(0.12 -0.12)">
     <use xlink:href="#DejaVuSans-4e"/>
     <use x="74.804688" xlink:href="#DejaVuSans-6f"/>
     <use x="135.986328" xlink:href="#DejaVuSans-6e"/>
     <use x="199.365234" xlink:href="#DejaVuSans-2d"/>
     <use x="235.449219" xlink:href="#DejaVuSans-45"/>
     <use x="298.632812" xlink:href="#DejaVuSans-56"/>
     <use x="367.041016" xlink:href="#DejaVuSans-20"/>
     <use x="398.828125" xlink:href="#DejaVuSans-43"/>
     <use x="468.652344" xlink:href="#DejaVuSans-65"/>
     <use x="530.175781" xlink:href="#DejaVuSans-72"/>
     <use x="571.289062" xlink:href="#DejaVuSans-74"/>
     <use x="610.498047" xlink:href="#DejaVuSans-69"/>
     <use x="638.28125" xlink:href="#DejaVuSans-66"/>
     <use x="673.486328" xlink:href="#DejaVuSans-69"/>
     <use x="701.269531" xlink:href="#DejaVuSans-63"/>
     <use x="756.25" xlink:href="#DejaVuSans-61"/>
     <use x="817.529297" xlink:href="#DejaVuSans-74"/>
     <use x="856.738281" xlink:href="#DejaVuSans-65"/>
     <use x="918.261719" xlink:href="#DejaVuSans-73"/>
     <use x="970.361328" xlink:href="#DejaVuSans-20"/>
     <use x="1002.148438" xlink:href="#DejaVuSans-77"/>
     <use x="1083.935547" xlink:href="#DejaVuSans-69"/>
     <use x="1111.71875" xlink:href="#DejaVuSans-74"/>
     <use x="1150.927734" xlink:href="#DejaVuSans-68"/>
     <use x="1214.306641" xlink:href="#DejaVuSans-20"/>
     <use x="1246.09375" xlink:href="#DejaVuSans-53"/>
     <use x="1309.570312" xlink:href="#DejaVuSans-43"/>
     <use x="1379.394531" xlink:href="#DejaVuSans-54"/>
     <use x="1440.228516" xlink:href="#DejaVuSans-73"/>
    </g>
   </g>
  </g>
 </g>
 <defs>
  <clipPath id="p6c19454d77">
   <rect height="266.112" width="357.12" x="57.6" y="41.472"/>
  </clipPath>
 </defs>
</svg>
