<?xml version="1.0" encoding="utf-8" standalone="no"?>
<!DOCTYPE svg PUBLIC "-//W3C//DTD SVG 1.1//EN"
  "http://www.w3.org/Graphics/SVG/1.1/DTD/svg11.dtd">
<!-- Created with matplotlib (http://matplotlib.org/) -->
<svg height="345pt" version="1.1" viewBox="0 0 460 345" width="460pt" xmlns="http://www.w3.org/2000/svg" xmlns:xlink="http://www.w3.org/1999/xlink">
 <defs>
  <style type="text/css">
*{stroke-linecap:butt;stroke-linejoin:round;}
  </style>
 </defs>
 <g id="figure_1">
  <g id="patch_1">
   <path d="M 0 345.6 
L 460.8 345.6 
L 460.8 0 
L 0 0 
z
" style="fill:#ffffff;"/>
  </g>
  <g id="axes_1">
   <g id="patch_2">
    <path d="M 57.6 307.584 
L 414.72 307.584 
L 414.72 41.472 
L 57.6 41.472 
z
" style="fill:#ffffff;"/>
   </g>
   <g id="PolyCollection_1">
    <path clip-path="url(#pd1528a2e1d)" d="M 73.832727 307.584 
L 73.832727 307.584 
L 77.112066 307.584 
L 80.391405 307.584 
L 83.670744 307.584 
L 86.950083 307.584 
L 90.229421 307.584 
L 93.50876 307.584 
L 96.788099 307.584 
L 100.067438 307.584 
L 103.346777 307.584 
L 106.626116 307.584 
L 109.905455 307.584 
L 113.184793 307.584 
L 116.464132 307.584 
L 119.743471 307.584 
L 123.02281 307.584 
L 126.302149 307.584 
L 129.581488 307.584 
L 132.860826 307.584 
L 136.140165 307.584 
L 139.419504 307.584 
L 142.698843 307.584 
L 145.978182 307.584 
L 149.257521 307.584 
L 152.53686 307.584 
L 155.816198 307.584 
L 159.095537 307.584 
L 162.374876 307.584 
L 165.654215 307.584 
L 168.933554 307.584 
L 172.212893 307.584 
L 175.492231 307.584 
L 178.77157 307.584 
L 182.050909 307.584 
L 185.330248 307.584 
L 188.609587 307.584 
L 191.888926 307.584 
L 195.168264 307.584 
L 198.447603 307.584 
L 201.726942 307.584 
L 205.006281 307.584 
L 208.28562 307.584 
L 211.564959 307.584 
L 214.844298 307.584 
L 218.123636 307.584 
L 221.402975 307.584 
L 224.682314 307.584 
L 227.961653 307.584 
L 231.240992 307.584 
L 234.520331 307.584 
L 237.799669 307.584 
L 241.079008 307.584 
L 244.358347 307.584 
L 247.637686 307.584 
L 250.917025 307.584 
L 254.196364 307.584 
L 257.475702 307.584 
L 260.755041 307.584 
L 264.03438 307.584 
L 267.313719 307.584 
L 270.593058 307.584 
L 273.872397 307.584 
L 277.151736 307.584 
L 280.431074 307.584 
L 283.710413 307.584 
L 286.989752 307.584 
L 290.269091 307.584 
L 293.54843 307.584 
L 296.827769 307.584 
L 300.107107 307.584 
L 303.386446 307.584 
L 306.665785 307.584 
L 309.945124 307.584 
L 313.224463 307.584 
L 316.503802 307.584 
L 319.78314 307.584 
L 323.062479 307.584 
L 326.341818 307.584 
L 329.621157 307.584 
L 332.900496 307.584 
L 336.179835 307.584 
L 339.459174 307.584 
L 342.738512 307.584 
L 346.017851 307.584 
L 349.29719 307.584 
L 352.576529 307.584 
L 355.855868 307.584 
L 359.135207 307.584 
L 362.414545 307.584 
L 365.693884 307.584 
L 368.973223 307.584 
L 372.252562 307.584 
L 375.531901 307.584 
L 378.81124 307.584 
L 382.090579 307.584 
L 385.369917 307.584 
L 388.649256 307.584 
L 391.928595 307.584 
L 395.207934 307.584 
L 398.487273 307.584 
L 398.487273 307.584 
L 398.487273 307.584 
L 395.207934 307.584 
L 391.928595 307.584 
L 388.649256 307.584 
L 385.369917 307.584 
L 382.090579 307.584 
L 378.81124 307.584 
L 375.531901 307.584 
L 372.252562 307.584 
L 368.973223 307.584 
L 365.693884 307.584 
L 362.414545 307.584 
L 359.135207 307.584 
L 355.855868 307.584 
L 352.576529 307.584 
L 349.29719 307.584 
L 346.017851 307.584 
L 342.738512 307.584 
L 339.459174 307.584 
L 336.179835 307.584 
L 332.900496 307.584 
L 329.621157 307.584 
L 326.341818 307.584 
L 323.062479 307.584 
L 319.78314 307.584 
L 316.503802 307.584 
L 313.224463 307.584 
L 309.945124 307.584 
L 306.665785 307.584 
L 303.386446 307.584 
L 300.107107 307.584 
L 296.827769 307.584 
L 293.54843 307.584 
L 290.269091 307.584 
L 286.989752 307.584 
L 283.710413 307.584 
L 280.431074 307.584 
L 277.151736 307.584 
L 273.872397 307.584 
L 270.593058 307.584 
L 267.313719 307.584 
L 264.03438 307.584 
L 260.755041 307.584 
L 257.475702 307.584 
L 254.196364 307.584 
L 250.917025 307.584 
L 247.637686 307.584 
L 244.358347 307.584 
L 241.079008 307.584 
L 237.799669 307.584 
L 234.520331 307.584 
L 231.240992 307.584 
L 227.961653 307.584 
L 224.682314 307.584 
L 221.402975 307.584 
L 218.123636 307.584 
L 214.844298 307.584 
L 211.564959 307.584 
L 208.28562 307.584 
L 205.006281 307.584 
L 201.726942 307.584 
L 198.447603 307.584 
L 195.168264 307.584 
L 191.888926 307.584 
L 188.609587 307.584 
L 185.330248 307.584 
L 182.050909 307.584 
L 178.77157 307.584 
L 175.492231 307.584 
L 172.212893 307.584 
L 168.933554 307.584 
L 165.654215 307.584 
L 162.374876 307.584 
L 159.095537 307.584 
L 155.816198 307.584 
L 152.53686 307.584 
L 149.257521 307.584 
L 145.978182 307.584 
L 142.698843 307.584 
L 139.419504 307.584 
L 136.140165 307.584 
L 132.860826 307.584 
L 129.581488 307.584 
L 126.302149 307.584 
L 123.02281 307.584 
L 119.743471 307.584 
L 116.464132 307.584 
L 113.184793 307.584 
L 109.905455 307.584 
L 106.626116 307.584 
L 103.346777 307.584 
L 100.067438 307.584 
L 96.788099 307.584 
L 93.50876 307.584 
L 90.229421 307.584 
L 86.950083 307.584 
L 83.670744 307.584 
L 80.391405 307.584 
L 77.112066 307.584 
L 73.832727 307.584 
z
" style="fill:#c6dbef;"/>
   </g>
   <g id="PolyCollection_2">
    <path clip-path="url(#pd1528a2e1d)" d="M 73.832727 262.094769 
L 73.832727 307.584 
L 77.112066 307.584 
L 80.391405 307.584 
L 83.670744 307.584 
L 86.950083 307.584 
L 90.229421 307.584 
L 93.50876 307.584 
L 96.788099 307.584 
L 100.067438 307.584 
L 103.346777 307.584 
L 106.626116 307.584 
L 109.905455 307.584 
L 113.184793 307.584 
L 116.464132 307.584 
L 119.743471 307.584 
L 123.02281 307.584 
L 126.302149 307.584 
L 129.581488 307.584 
L 132.860826 307.584 
L 136.140165 307.584 
L 139.419504 307.584 
L 142.698843 307.584 
L 145.978182 307.584 
L 149.257521 307.584 
L 152.53686 307.584 
L 155.816198 307.584 
L 159.095537 307.584 
L 162.374876 307.584 
L 165.654215 307.584 
L 168.933554 307.584 
L 172.212893 307.584 
L 175.492231 307.584 
L 178.77157 307.584 
L 182.050909 307.584 
L 185.330248 307.584 
L 188.609587 307.584 
L 191.888926 307.584 
L 195.168264 307.584 
L 198.447603 307.584 
L 201.726942 307.584 
L 205.006281 307.584 
L 208.28562 307.584 
L 211.564959 307.584 
L 214.844298 307.584 
L 218.123636 307.584 
L 221.402975 307.584 
L 224.682314 307.584 
L 227.961653 307.584 
L 231.240992 307.584 
L 234.520331 307.584 
L 237.799669 307.584 
L 241.079008 307.584 
L 244.358347 307.584 
L 247.637686 307.584 
L 250.917025 307.584 
L 254.196364 307.584 
L 257.475702 307.584 
L 260.755041 307.584 
L 264.03438 307.584 
L 267.313719 307.584 
L 270.593058 307.584 
L 273.872397 307.584 
L 277.151736 307.584 
L 280.431074 307.584 
L 283.710413 307.584 
L 286.989752 307.584 
L 290.269091 307.584 
L 293.54843 307.584 
L 296.827769 307.584 
L 300.107107 307.584 
L 303.386446 307.584 
L 306.665785 307.584 
L 309.945124 307.584 
L 313.224463 307.584 
L 316.503802 307.584 
L 319.78314 307.584 
L 323.062479 307.584 
L 326.341818 307.584 
L 329.621157 307.584 
L 332.900496 307.584 
L 336.179835 307.584 
L 339.459174 307.584 
L 342.738512 307.584 
L 346.017851 307.584 
L 349.29719 307.584 
L 352.576529 307.584 
L 355.855868 307.584 
L 359.135207 307.584 
L 362.414545 307.584 
L 365.693884 307.584 
L 368.973223 307.584 
L 372.252562 307.584 
L 375.531901 307.584 
L 378.81124 307.584 
L 382.090579 307.584 
L 385.369917 307.584 
L 388.649256 307.584 
L 391.928595 307.584 
L 395.207934 307.584 
L 398.487273 307.584 
L 398.487273 242.44409 
L 398.487273 242.44409 
L 395.207934 244.892959 
L 391.928595 259.656378 
L 388.649256 241.992662 
L 385.369917 260.77469 
L 382.090579 258.824302 
L 378.81124 264.16547 
L 375.531901 248.960699 
L 372.252562 245.105471 
L 368.973223 257.989375 
L 365.693884 267.183107 
L 362.414545 256.412161 
L 359.135207 270.735068 
L 355.855868 253.573257 
L 352.576529 242.624533 
L 349.29719 248.006753 
L 346.017851 248.449898 
L 342.738512 267.9083 
L 339.459174 261.390602 
L 336.179835 260.751562 
L 332.900496 260.383478 
L 329.621157 255.144324 
L 326.341818 263.868408 
L 323.062479 259.171346 
L 319.78314 238.293902 
L 316.503802 260.957538 
L 313.224463 250.612142 
L 309.945124 257.716127 
L 306.665785 254.4329 
L 303.386446 249.908243 
L 300.107107 272.122401 
L 296.827769 250.674266 
L 293.54843 257.663356 
L 290.269091 236.758995 
L 286.989752 244.303388 
L 283.710413 245.646005 
L 280.431074 256.583991 
L 277.151736 248.552589 
L 273.872397 252.016941 
L 270.593058 254.011656 
L 267.313719 251.562219 
L 264.03438 264.611803 
L 260.755041 257.263991 
L 257.475702 250.398405 
L 254.196364 256.157756 
L 250.917025 262.804685 
L 247.637686 248.731186 
L 244.358347 256.11543 
L 241.079008 256.023483 
L 237.799669 257.841738 
L 234.520331 260.523701 
L 231.240992 257.043751 
L 227.961653 254.882987 
L 224.682314 254.011656 
L 221.402975 251.941952 
L 218.123636 262.974063 
L 214.844298 252.729339 
L 211.564959 252.323009 
L 208.28562 261.390602 
L 205.006281 259.147214 
L 201.726942 251.956739 
L 198.447603 255.688304 
L 195.168264 257.056893 
L 191.888926 254.584328 
L 188.609587 255.7899 
L 185.330248 260.340752 
L 182.050909 263.903437 
L 178.77157 247.742552 
L 175.492231 253.948332 
L 172.212893 248.335945 
L 168.933554 263.177846 
L 165.654215 248.90227 
L 162.374876 259.989515 
L 159.095537 250.592145 
L 155.816198 253.791042 
L 152.53686 252.953236 
L 149.257521 263.700271 
L 145.978182 249.908243 
L 142.698843 255.163164 
L 139.419504 252.249001 
L 136.140165 262.419487 
L 132.860826 263.241557 
L 129.581488 257.246782 
L 126.302149 258.107247 
L 123.02281 269.362688 
L 119.743471 266.196651 
L 116.464132 252.241019 
L 113.184793 266.024771 
L 109.905455 265.661178 
L 106.626116 257.098295 
L 103.346777 262.446451 
L 100.067438 255.222733 
L 96.788099 268.131132 
L 93.50876 259.629735 
L 90.229421 262.263273 
L 86.950083 262.024521 
L 83.670744 259.32185 
L 80.391405 260.178738 
L 77.112066 264.94394 
L 73.832727 262.094769 
z
" style="fill:#9ecae1;"/>
   </g>
   <g id="PolyCollection_3">
    <path clip-path="url(#pd1528a2e1d)" d="M 73.832727 117.599566 
L 73.832727 262.094769 
L 77.112066 264.94394 
L 80.391405 260.178738 
L 83.670744 259.32185 
L 86.950083 262.024521 
L 90.229421 262.263273 
L 93.50876 259.629735 
L 96.788099 268.131132 
L 100.067438 255.222733 
L 103.346777 262.446451 
L 106.626116 257.098295 
L 109.905455 265.661178 
L 113.184793 266.024771 
L 116.464132 252.241019 
L 119.743471 266.196651 
L 123.02281 269.362688 
L 126.302149 258.107247 
L 129.581488 257.246782 
L 132.860826 263.241557 
L 136.140165 262.419487 
L 139.419504 252.249001 
L 142.698843 255.163164 
L 145.978182 249.908243 
L 149.257521 263.700271 
L 152.53686 252.953236 
L 155.816198 253.791042 
L 159.095537 250.592145 
L 162.374876 259.989515 
L 165.654215 248.90227 
L 168.933554 263.177846 
L 172.212893 248.335945 
L 175.492231 253.948332 
L 178.77157 247.742552 
L 182.050909 263.903437 
L 185.330248 260.340752 
L 188.609587 255.7899 
L 191.888926 254.584328 
L 195.168264 257.056893 
L 198.447603 255.688304 
L 201.726942 251.956739 
L 205.006281 259.147214 
L 208.28562 261.390602 
L 211.564959 252.323009 
L 214.844298 252.729339 
L 218.123636 262.974063 
L 221.402975 251.941952 
L 224.682314 254.011656 
L 227.961653 254.882987 
L 231.240992 257.043751 
L 234.520331 260.523701 
L 237.799669 257.841738 
L 241.079008 256.023483 
L 244.358347 256.11543 
L 247.637686 248.731186 
L 250.917025 262.804685 
L 254.196364 256.157756 
L 257.475702 250.398405 
L 260.755041 257.263991 
L 264.03438 264.611803 
L 267.313719 251.562219 
L 270.593058 254.011656 
L 273.872397 252.016941 
L 277.151736 248.552589 
L 280.431074 256.583991 
L 283.710413 245.646005 
L 286.989752 244.303388 
L 290.269091 236.758995 
L 293.54843 257.663356 
L 296.827769 250.674266 
L 300.107107 272.122401 
L 303.386446 249.908243 
L 306.665785 254.4329 
L 309.945124 257.716127 
L 313.224463 250.612142 
L 316.503802 260.957538 
L 319.78314 238.293902 
L 323.062479 259.171346 
L 326.341818 263.868408 
L 329.621157 255.144324 
L 332.900496 260.383478 
L 336.179835 260.751562 
L 339.459174 261.390602 
L 342.738512 267.9083 
L 346.017851 248.449898 
L 349.29719 248.006753 
L 352.576529 242.624533 
L 355.855868 253.573257 
L 359.135207 270.735068 
L 362.414545 256.412161 
L 365.693884 267.183107 
L 368.973223 257.989375 
L 372.252562 245.105471 
L 375.531901 248.960699 
L 378.81124 264.16547 
L 382.090579 258.824302 
L 385.369917 260.77469 
L 388.649256 241.992662 
L 391.928595 259.656378 
L 395.207934 244.892959 
L 398.487273 242.44409 
L 398.487273 103.593231 
L 398.487273 103.593231 
L 395.207934 110.763291 
L 391.928595 112.878037 
L 388.649256 126.426971 
L 385.369917 107.18164 
L 382.090579 114.351121 
L 378.81124 107.54863 
L 375.531901 116.639532 
L 372.252562 106.760158 
L 368.973223 113.714104 
L 365.693884 123.690281 
L 362.414545 123.055248 
L 359.135207 111.614678 
L 355.855868 94.9167 
L 352.576529 115.592688 
L 349.29719 105.602601 
L 346.017851 113.063927 
L 342.738512 110.407795 
L 339.459174 102.600794 
L 336.179835 109.847042 
L 332.900496 109.852084 
L 329.621157 121.285153 
L 326.341818 132.721634 
L 323.062479 115.495082 
L 319.78314 102.430966 
L 316.503802 101.879023 
L 313.224463 112.031947 
L 309.945124 111.852597 
L 306.665785 101.793845 
L 303.386446 124.526161 
L 300.107107 112.545207 
L 296.827769 124.208189 
L 293.54843 111.384261 
L 290.269091 111.773692 
L 286.989752 108.112507 
L 283.710413 100.684739 
L 280.431074 111.886292 
L 277.151736 111.555162 
L 273.872397 109.537303 
L 270.593058 102.413321 
L 267.313719 104.838507 
L 264.03438 108.349268 
L 260.755041 110.984896 
L 257.475702 112.407077 
L 254.196364 119.021104 
L 250.917025 108.316049 
L 247.637686 107.996197 
L 244.358347 105.773026 
L 241.079008 117.382983 
L 237.799669 115.247255 
L 234.520331 111.107253 
L 231.240992 101.724936 
L 227.961653 104.887794 
L 224.682314 121.790552 
L 221.402975 112.311907 
L 218.123636 116.694968 
L 214.844298 116.073869 
L 211.564959 111.461658 
L 208.28562 117.561156 
L 205.006281 100.274554 
L 201.726942 109.798181 
L 198.447603 116.389332 
L 195.168264 116.703816 
L 191.888926 110.42522 
L 188.609587 108.882998 
L 185.330248 122.810406 
L 182.050909 115.592688 
L 178.77157 106.29913 
L 175.492231 118.39637 
L 172.212893 111.764159 
L 168.933554 122.993713 
L 165.654215 109.426854 
L 162.374876 115.592688 
L 159.095537 112.997523 
L 155.816198 99.018323 
L 152.53686 108.763842 
L 149.257521 115.403534 
L 145.978182 104.465028 
L 142.698843 113.626906 
L 139.419504 109.300253 
L 136.140165 120.184975 
L 132.860826 114.159204 
L 129.581488 115.270013 
L 126.302149 102.506445 
L 123.02281 120.016451 
L 119.743471 114.443039 
L 116.464132 116.813489 
L 113.184793 118.806484 
L 109.905455 120.959823 
L 106.626116 125.70601 
L 103.346777 113.868684 
L 100.067438 116.839385 
L 96.788099 120.638103 
L 93.50876 113.536509 
L 90.229421 129.06455 
L 86.950083 121.680377 
L 83.670744 119.510878 
L 80.391405 122.026259 
L 77.112066 114.371228 
L 73.832727 117.599566 
z
" style="fill:#6baed6;"/>
   </g>
   <g id="PolyCollection_4">
    <path clip-path="url(#pd1528a2e1d)" d="M 73.832727 58.731149 
L 73.832727 117.599566 
L 77.112066 114.371228 
L 80.391405 122.026259 
L 83.670744 119.510878 
L 86.950083 121.680377 
L 90.229421 129.06455 
L 93.50876 113.536509 
L 96.788099 120.638103 
L 100.067438 116.839385 
L 103.346777 113.868684 
L 106.626116 125.70601 
L 109.905455 120.959823 
L 113.184793 118.806484 
L 116.464132 116.813489 
L 119.743471 114.443039 
L 123.02281 120.016451 
L 126.302149 102.506445 
L 129.581488 115.270013 
L 132.860826 114.159204 
L 136.140165 120.184975 
L 139.419504 109.300253 
L 142.698843 113.626906 
L 145.978182 104.465028 
L 149.257521 115.403534 
L 152.53686 108.763842 
L 155.816198 99.018323 
L 159.095537 112.997523 
L 162.374876 115.592688 
L 165.654215 109.426854 
L 168.933554 122.993713 
L 172.212893 111.764159 
L 175.492231 118.39637 
L 178.77157 106.29913 
L 182.050909 115.592688 
L 185.330248 122.810406 
L 188.609587 108.882998 
L 191.888926 110.42522 
L 195.168264 116.703816 
L 198.447603 116.389332 
L 201.726942 109.798181 
L 205.006281 100.274554 
L 208.28562 117.561156 
L 211.564959 111.461658 
L 214.844298 116.073869 
L 218.123636 116.694968 
L 221.402975 112.311907 
L 224.682314 121.790552 
L 227.961653 104.887794 
L 231.240992 101.724936 
L 234.520331 111.107253 
L 237.799669 115.247255 
L 241.079008 117.382983 
L 244.358347 105.773026 
L 247.637686 107.996197 
L 250.917025 108.316049 
L 254.196364 119.021104 
L 257.475702 112.407077 
L 260.755041 110.984896 
L 264.03438 108.349268 
L 267.313719 104.838507 
L 270.593058 102.413321 
L 273.872397 109.537303 
L 277.151736 111.555162 
L 280.431074 111.886292 
L 283.710413 100.684739 
L 286.989752 108.112507 
L 290.269091 111.773692 
L 293.54843 111.384261 
L 296.827769 124.208189 
L 300.107107 112.545207 
L 303.386446 124.526161 
L 306.665785 101.793845 
L 309.945124 111.852597 
L 313.224463 112.031947 
L 316.503802 101.879023 
L 319.78314 102.430966 
L 323.062479 115.495082 
L 326.341818 132.721634 
L 329.621157 121.285153 
L 332.900496 109.852084 
L 336.179835 109.847042 
L 339.459174 102.600794 
L 342.738512 110.407795 
L 346.017851 113.063927 
L 349.29719 105.602601 
L 352.576529 115.592688 
L 355.855868 94.9167 
L 359.135207 111.614678 
L 362.414545 123.055248 
L 365.693884 123.690281 
L 368.973223 113.714104 
L 372.252562 106.760158 
L 375.531901 116.639532 
L 378.81124 107.54863 
L 382.090579 114.351121 
L 385.369917 107.18164 
L 388.649256 126.426971 
L 391.928595 112.878037 
L 395.207934 110.763291 
L 398.487273 103.593231 
L 398.487273 81.308525 
L 398.487273 81.308525 
L 395.207934 85.978461 
L 391.928595 78.430059 
L 388.649256 92.069604 
L 385.369917 80.851403 
L 382.090579 83.650571 
L 378.81124 76.535394 
L 375.531901 96.540115 
L 372.252562 79.983645 
L 368.973223 77.645286 
L 365.693884 88.861925 
L 362.414545 81.187379 
L 359.135207 79.7906 
L 355.855868 83.10185 
L 352.576529 86.721814 
L 349.29719 79.446736 
L 346.017851 80.384555 
L 342.738512 85.159623 
L 339.459174 79.504095 
L 336.179835 75.156347 
L 332.900496 79.235529 
L 329.621157 81.2654 
L 326.341818 89.006042 
L 323.062479 85.82281 
L 319.78314 71.18249 
L 316.503802 78.565792 
L 313.224463 81.236348 
L 309.945124 81.931873 
L 306.665785 70.448324 
L 303.386446 85.657716 
L 300.107107 85.949008 
L 296.827769 85.003706 
L 293.54843 78.877796 
L 290.269091 81.22173 
L 286.989752 86.101859 
L 283.710413 76.963805 
L 280.431074 85.793264 
L 277.151736 84.823957 
L 273.872397 89.590154 
L 270.593058 80.756416 
L 267.313719 80.829172 
L 264.03438 88.816451 
L 260.755041 78.218379 
L 257.475702 82.571114 
L 254.196364 82.45133 
L 250.917025 84.806909 
L 247.637686 81.128608 
L 244.358347 84.102049 
L 241.079008 84.155095 
L 237.799669 71.031912 
L 234.520331 78.165044 
L 231.240992 78.303845 
L 227.961653 73.469883 
L 224.682314 84.175928 
L 221.402975 83.965958 
L 218.123636 79.347114 
L 214.844298 79.504095 
L 211.564959 85.456485 
L 208.28562 85.015808 
L 205.006281 74.118689 
L 201.726942 80.954416 
L 198.447603 83.613103 
L 195.168264 77.404955 
L 191.888926 80.745403 
L 188.609587 76.864827 
L 185.330248 87.115508 
L 182.050909 80.038741 
L 178.77157 76.378406 
L 175.492231 85.239776 
L 172.212893 78.625416 
L 168.933554 84.682522 
L 165.654215 74.558 
L 162.374876 78.485123 
L 159.095537 73.917394 
L 155.816198 67.875031 
L 152.53686 76.522736 
L 149.257521 75.302885 
L 145.978182 71.865687 
L 142.698843 78.430059 
L 139.419504 74.715879 
L 136.140165 87.828309 
L 132.860826 78.226534 
L 129.581488 74.61303 
L 126.302149 70.238998 
L 123.02281 74.009316 
L 119.743471 79.625111 
L 116.464132 75.794573 
L 113.184793 75.838467 
L 109.905455 79.037001 
L 106.626116 81.045579 
L 103.346777 74.373329 
L 100.067438 70.088253 
L 96.788099 78.150399 
L 93.50876 72.831145 
L 90.229421 81.533056 
L 86.950083 77.691914 
L 83.670744 73.238919 
L 80.391405 74.620997 
L 77.112066 66.40116 
L 73.832727 58.731149 
z
" style="fill:#3182bd;"/>
   </g>
   <g id="PolyCollection_5">
    <path clip-path="url(#pd1528a2e1d)" d="M 73.832727 54.144 
L 73.832727 58.731149 
L 77.112066 66.40116 
L 80.391405 74.620997 
L 83.670744 73.238919 
L 86.950083 77.691914 
L 90.229421 81.533056 
L 93.50876 72.831145 
L 96.788099 78.150399 
L 100.067438 70.088253 
L 103.346777 74.373329 
L 106.626116 81.045579 
L 109.905455 79.037001 
L 113.184793 75.838467 
L 116.464132 75.794573 
L 119.743471 79.625111 
L 123.02281 74.009316 
L 126.302149 70.238998 
L 129.581488 74.61303 
L 132.860826 78.226534 
L 136.140165 87.828309 
L 139.419504 74.715879 
L 142.698843 78.430059 
L 145.978182 71.865687 
L 149.257521 75.302885 
L 152.53686 76.522736 
L 155.816198 67.875031 
L 159.095537 73.917394 
L 162.374876 78.485123 
L 165.654215 74.558 
L 168.933554 84.682522 
L 172.212893 78.625416 
L 175.492231 85.239776 
L 178.77157 76.378406 
L 182.050909 80.038741 
L 185.330248 87.115508 
L 188.609587 76.864827 
L 191.888926 80.745403 
L 195.168264 77.404955 
L 198.447603 83.613103 
L 201.726942 80.954416 
L 205.006281 74.118689 
L 208.28562 85.015808 
L 211.564959 85.456485 
L 214.844298 79.504095 
L 218.123636 79.347114 
L 221.402975 83.965958 
L 224.682314 84.175928 
L 227.961653 73.469883 
L 231.240992 78.303845 
L 234.520331 78.165044 
L 237.799669 71.031912 
L 241.079008 84.155095 
L 244.358347 84.102049 
L 247.637686 81.128608 
L 250.917025 84.806909 
L 254.196364 82.45133 
L 257.475702 82.571114 
L 260.755041 78.218379 
L 264.03438 88.816451 
L 267.313719 80.829172 
L 270.593058 80.756416 
L 273.872397 89.590154 
L 277.151736 84.823957 
L 280.431074 85.793264 
L 283.710413 76.963805 
L 286.989752 86.101859 
L 290.269091 81.22173 
L 293.54843 78.877796 
L 296.827769 85.003706 
L 300.107107 85.949008 
L 303.386446 85.657716 
L 306.665785 70.448324 
L 309.945124 81.931873 
L 313.224463 81.236348 
L 316.503802 78.565792 
L 319.78314 71.18249 
L 323.062479 85.82281 
L 326.341818 89.006042 
L 329.621157 81.2654 
L 332.900496 79.235529 
L 336.179835 75.156347 
L 339.459174 79.504095 
L 342.738512 85.159623 
L 346.017851 80.384555 
L 349.29719 79.446736 
L 352.576529 86.721814 
L 355.855868 83.10185 
L 359.135207 79.7906 
L 362.414545 81.187379 
L 365.693884 88.861925 
L 368.973223 77.645286 
L 372.252562 79.983645 
L 375.531901 96.540115 
L 378.81124 76.535394 
L 382.090579 83.650571 
L 385.369917 80.851403 
L 388.649256 92.069604 
L 391.928595 78.430059 
L 395.207934 85.978461 
L 398.487273 81.308525 
L 398.487273 74.451692 
L 398.487273 74.451692 
L 395.207934 81.604667 
L 391.928595 76.932321 
L 388.649256 82.699413 
L 385.369917 76.46303 
L 382.090579 80.038741 
L 378.81124 65.680762 
L 375.531901 83.140503 
L 372.252562 74.033309 
L 368.973223 71.633816 
L 365.693884 83.289388 
L 362.414545 76.535394 
L 359.135207 76.440697 
L 355.855868 74.662672 
L 352.576529 79.504095 
L 349.29719 76.540529 
L 346.017851 74.159912 
L 342.738512 79.148153 
L 339.459174 76.617008 
L 336.179835 68.218208 
L 332.900496 74.13277 
L 329.621157 77.125426 
L 326.341818 78.917828 
L 323.062479 78.014317 
L 319.78314 68.465232 
L 316.503802 77.194425 
L 313.224463 78.156788 
L 309.945124 80.685176 
L 306.665785 67.722627 
L 303.386446 80.642433 
L 300.107107 78.561174 
L 296.827769 78.680402 
L 293.54843 73.07307 
L 290.269091 77.055553 
L 286.989752 80.599197 
L 283.710413 69.056827 
L 280.431074 77.490937 
L 277.151736 79.254956 
L 273.872397 83.890968 
L 270.593058 76.197068 
L 267.313719 78.161468 
L 264.03438 82.305512 
L 260.755041 75.877913 
L 257.475702 77.598454 
L 254.196364 77.880109 
L 250.917025 81.44846 
L 247.637686 72.172745 
L 244.358347 81.393177 
L 241.079008 83.009306 
L 237.799669 68.821145 
L 234.520331 73.459014 
L 231.240992 72.1404 
L 227.961653 68.402477 
L 224.682314 76.197068 
L 221.402975 80.816408 
L 218.123636 76.234793 
L 214.844298 68.918108 
L 211.564959 78.955192 
L 208.28562 76.617008 
L 205.006281 70.243746 
L 201.726942 72.71334 
L 198.447603 79.9713 
L 195.168264 69.919458 
L 191.888926 74.385443 
L 188.609587 71.214561 
L 185.330248 80.816408 
L 182.050909 74.959606 
L 178.77157 71.844963 
L 175.492231 78.413418 
L 172.212893 75.612804 
L 168.933554 75.975433 
L 165.654215 69.455241 
L 162.374876 72.031634 
L 159.095537 72.289055 
L 155.816198 63.156351 
L 152.53686 66.671286 
L 149.257521 70.763189 
L 145.978182 64.342762 
L 142.698843 73.187976 
L 139.419504 70.87317 
L 136.140165 79.739142 
L 132.860826 72.87486 
L 129.581488 72.676983 
L 126.302149 65.936671 
L 123.02281 66.223493 
L 119.743471 71.084864 
L 116.464132 67.981447 
L 113.184793 67.385743 
L 109.905455 69.570557 
L 106.626116 71.984042 
L 103.346777 67.477314 
L 100.067438 64.478118 
L 96.788099 69.045891 
L 93.50876 66.69746 
L 90.229421 73.795371 
L 86.950083 66.694798 
L 83.670744 62.790412 
L 80.391405 65.139944 
L 77.112066 58.850316 
L 73.832727 54.144 
z
" style="fill:#0e5a90;"/>
   </g>
   <g id="matplotlib.axis_1">
    <g id="xtick_1">
     <g id="line2d_1">
      <defs>
       <path d="M 0 0 
L 0 3.5 
" id="m9f4af6ba60" style="stroke:#000000;stroke-width:0.8;"/>
      </defs>
      <g>
       <use style="stroke:#000000;stroke-width:0.8;" x="70.553388" xlink:href="#m9f4af6ba60" y="307.584"/>
      </g>
     </g>
     <g id="text_1">
      <!-- 0 -->
      <defs>
       <path d="M 31.78125 66.40625 
Q 24.171875 66.40625 20.328125 58.90625 
Q 16.5 51.421875 16.5 36.375 
Q 16.5 21.390625 20.328125 13.890625 
Q 24.171875 6.390625 31.78125 6.390625 
Q 39.453125 6.390625 43.28125 13.890625 
Q 47.125 21.390625 47.125 36.375 
Q 47.125 51.421875 43.28125 58.90625 
Q 39.453125 66.40625 31.78125 66.40625 
z
M 31.78125 74.21875 
Q 44.046875 74.21875 50.515625 64.515625 
Q 56.984375 54.828125 56.984375 36.375 
Q 56.984375 17.96875 50.515625 8.265625 
Q 44.046875 -1.421875 31.78125 -1.421875 
Q 19.53125 -1.421875 13.0625 8.265625 
Q 6.59375 17.96875 6.59375 36.375 
Q 6.59375 54.828125 13.0625 64.515625 
Q 19.53125 74.21875 31.78125 74.21875 
z
" id="DejaVuSans-30"/>
      </defs>
      <g transform="translate(67.372138 322.182437)scale(0.1 -0.1)">
       <use xlink:href="#DejaVuSans-30"/>
      </g>
     </g>
    </g>
    <g id="xtick_2">
     <g id="line2d_2">
      <g>
       <use style="stroke:#000000;stroke-width:0.8;" x="136.140165" xlink:href="#m9f4af6ba60" y="307.584"/>
      </g>
     </g>
     <g id="text_2">
      <!-- 200000 -->
      <defs>
       <path d="M 19.1875 8.296875 
L 53.609375 8.296875 
L 53.609375 0 
L 7.328125 0 
L 7.328125 8.296875 
Q 12.9375 14.109375 22.625 23.890625 
Q 32.328125 33.6875 34.8125 36.53125 
Q 39.546875 41.84375 41.421875 45.53125 
Q 43.3125 49.21875 43.3125 52.78125 
Q 43.3125 58.59375 39.234375 62.25 
Q 35.15625 65.921875 28.609375 65.921875 
Q 23.96875 65.921875 18.8125 64.3125 
Q 13.671875 62.703125 7.8125 59.421875 
L 7.8125 69.390625 
Q 13.765625 71.78125 18.9375 73 
Q 24.125 74.21875 28.421875 74.21875 
Q 39.75 74.21875 46.484375 68.546875 
Q 53.21875 62.890625 53.21875 53.421875 
Q 53.21875 48.921875 51.53125 44.890625 
Q 49.859375 40.875 45.40625 35.40625 
Q 44.1875 33.984375 37.640625 27.21875 
Q 31.109375 20.453125 19.1875 8.296875 
z
" id="DejaVuSans-32"/>
      </defs>
      <g transform="translate(117.052665 322.182437)scale(0.1 -0.1)">
       <use xlink:href="#DejaVuSans-32"/>
       <use x="63.623047" xlink:href="#DejaVuSans-30"/>
       <use x="127.246094" xlink:href="#DejaVuSans-30"/>
       <use x="190.869141" xlink:href="#DejaVuSans-30"/>
       <use x="254.492188" xlink:href="#DejaVuSans-30"/>
       <use x="318.115234" xlink:href="#DejaVuSans-30"/>
      </g>
     </g>
    </g>
    <g id="xtick_3">
     <g id="line2d_3">
      <g>
       <use style="stroke:#000000;stroke-width:0.8;" x="201.726942" xlink:href="#m9f4af6ba60" y="307.584"/>
      </g>
     </g>
     <g id="text_3">
      <!-- 400000 -->
      <defs>
       <path d="M 37.796875 64.3125 
L 12.890625 25.390625 
L 37.796875 25.390625 
z
M 35.203125 72.90625 
L 47.609375 72.90625 
L 47.609375 25.390625 
L 58.015625 25.390625 
L 58.015625 17.1875 
L 47.609375 17.1875 
L 47.609375 0 
L 37.796875 0 
L 37.796875 17.1875 
L 4.890625 17.1875 
L 4.890625 26.703125 
z
" id="DejaVuSans-34"/>
      </defs>
      <g transform="translate(182.639442 322.182437)scale(0.1 -0.1)">
       <use xlink:href="#DejaVuSans-34"/>
       <use x="63.623047" xlink:href="#DejaVuSans-30"/>
       <use x="127.246094" xlink:href="#DejaVuSans-30"/>
       <use x="190.869141" xlink:href="#DejaVuSans-30"/>
       <use x="254.492188" xlink:href="#DejaVuSans-30"/>
       <use x="318.115234" xlink:href="#DejaVuSans-30"/>
      </g>
     </g>
    </g>
    <g id="xtick_4">
     <g id="line2d_4">
      <g>
       <use style="stroke:#000000;stroke-width:0.8;" x="267.313719" xlink:href="#m9f4af6ba60" y="307.584"/>
      </g>
     </g>
     <g id="text_4">
      <!-- 600000 -->
      <defs>
       <path d="M 33.015625 40.375 
Q 26.375 40.375 22.484375 35.828125 
Q 18.609375 31.296875 18.609375 23.390625 
Q 18.609375 15.53125 22.484375 10.953125 
Q 26.375 6.390625 33.015625 6.390625 
Q 39.65625 6.390625 43.53125 10.953125 
Q 47.40625 15.53125 47.40625 23.390625 
Q 47.40625 31.296875 43.53125 35.828125 
Q 39.65625 40.375 33.015625 40.375 
z
M 52.59375 71.296875 
L 52.59375 62.3125 
Q 48.875 64.0625 45.09375 64.984375 
Q 41.3125 65.921875 37.59375 65.921875 
Q 27.828125 65.921875 22.671875 59.328125 
Q 17.53125 52.734375 16.796875 39.40625 
Q 19.671875 43.65625 24.015625 45.921875 
Q 28.375 48.1875 33.59375 48.1875 
Q 44.578125 48.1875 50.953125 41.515625 
Q 57.328125 34.859375 57.328125 23.390625 
Q 57.328125 12.15625 50.6875 5.359375 
Q 44.046875 -1.421875 33.015625 -1.421875 
Q 20.359375 -1.421875 13.671875 8.265625 
Q 6.984375 17.96875 6.984375 36.375 
Q 6.984375 53.65625 15.1875 63.9375 
Q 23.390625 74.21875 37.203125 74.21875 
Q 40.921875 74.21875 44.703125 73.484375 
Q 48.484375 72.75 52.59375 71.296875 
z
" id="DejaVuSans-36"/>
      </defs>
      <g transform="translate(248.226219 322.182437)scale(0.1 -0.1)">
       <use xlink:href="#DejaVuSans-36"/>
       <use x="63.623047" xlink:href="#DejaVuSans-30"/>
       <use x="127.246094" xlink:href="#DejaVuSans-30"/>
       <use x="190.869141" xlink:href="#DejaVuSans-30"/>
       <use x="254.492188" xlink:href="#DejaVuSans-30"/>
       <use x="318.115234" xlink:href="#DejaVuSans-30"/>
      </g>
     </g>
    </g>
    <g id="xtick_5">
     <g id="line2d_5">
      <g>
       <use style="stroke:#000000;stroke-width:0.8;" x="332.900496" xlink:href="#m9f4af6ba60" y="307.584"/>
      </g>
     </g>
     <g id="text_5">
      <!-- 800000 -->
      <defs>
       <path d="M 31.78125 34.625 
Q 24.75 34.625 20.71875 30.859375 
Q 16.703125 27.09375 16.703125 20.515625 
Q 16.703125 13.921875 20.71875 10.15625 
Q 24.75 6.390625 31.78125 6.390625 
Q 38.8125 6.390625 42.859375 10.171875 
Q 46.921875 13.96875 46.921875 20.515625 
Q 46.921875 27.09375 42.890625 30.859375 
Q 38.875 34.625 31.78125 34.625 
z
M 21.921875 38.8125 
Q 15.578125 40.375 12.03125 44.71875 
Q 8.5 49.078125 8.5 55.328125 
Q 8.5 64.0625 14.71875 69.140625 
Q 20.953125 74.21875 31.78125 74.21875 
Q 42.671875 74.21875 48.875 69.140625 
Q 55.078125 64.0625 55.078125 55.328125 
Q 55.078125 49.078125 51.53125 44.71875 
Q 48 40.375 41.703125 38.8125 
Q 48.828125 37.15625 52.796875 32.3125 
Q 56.78125 27.484375 56.78125 20.515625 
Q 56.78125 9.90625 50.3125 4.234375 
Q 43.84375 -1.421875 31.78125 -1.421875 
Q 19.734375 -1.421875 13.25 4.234375 
Q 6.78125 9.90625 6.78125 20.515625 
Q 6.78125 27.484375 10.78125 32.3125 
Q 14.796875 37.15625 21.921875 38.8125 
z
M 18.3125 54.390625 
Q 18.3125 48.734375 21.84375 45.5625 
Q 25.390625 42.390625 31.78125 42.390625 
Q 38.140625 42.390625 41.71875 45.5625 
Q 45.3125 48.734375 45.3125 54.390625 
Q 45.3125 60.0625 41.71875 63.234375 
Q 38.140625 66.40625 31.78125 66.40625 
Q 25.390625 66.40625 21.84375 63.234375 
Q 18.3125 60.0625 18.3125 54.390625 
z
" id="DejaVuSans-38"/>
      </defs>
      <g transform="translate(313.812996 322.182437)scale(0.1 -0.1)">
       <use xlink:href="#DejaVuSans-38"/>
       <use x="63.623047" xlink:href="#DejaVuSans-30"/>
       <use x="127.246094" xlink:href="#DejaVuSans-30"/>
       <use x="190.869141" xlink:href="#DejaVuSans-30"/>
       <use x="254.492188" xlink:href="#DejaVuSans-30"/>
       <use x="318.115234" xlink:href="#DejaVuSans-30"/>
      </g>
     </g>
    </g>
    <g id="xtick_6">
     <g id="line2d_6">
      <g>
       <use style="stroke:#000000;stroke-width:0.8;" x="398.487273" xlink:href="#m9f4af6ba60" y="307.584"/>
      </g>
     </g>
     <g id="text_6">
      <!-- 1000000 -->
      <defs>
       <path d="M 12.40625 8.296875 
L 28.515625 8.296875 
L 28.515625 63.921875 
L 10.984375 60.40625 
L 10.984375 69.390625 
L 28.421875 72.90625 
L 38.28125 72.90625 
L 38.28125 8.296875 
L 54.390625 8.296875 
L 54.390625 0 
L 12.40625 0 
z
" id="DejaVuSans-31"/>
      </defs>
      <g transform="translate(376.218523 322.182437)scale(0.1 -0.1)">
       <use xlink:href="#DejaVuSans-31"/>
       <use x="63.623047" xlink:href="#DejaVuSans-30"/>
       <use x="127.246094" xlink:href="#DejaVuSans-30"/>
       <use x="190.869141" xlink:href="#DejaVuSans-30"/>
       <use x="254.492188" xlink:href="#DejaVuSans-30"/>
       <use x="318.115234" xlink:href="#DejaVuSans-30"/>
       <use x="381.738281" xlink:href="#DejaVuSans-30"/>
      </g>
     </g>
    </g>
    <g id="text_7">
     <!-- alexa rank -->
     <defs>
      <path d="M 34.28125 27.484375 
Q 23.390625 27.484375 19.1875 25 
Q 14.984375 22.515625 14.984375 16.5 
Q 14.984375 11.71875 18.140625 8.90625 
Q 21.296875 6.109375 26.703125 6.109375 
Q 34.1875 6.109375 38.703125 11.40625 
Q 43.21875 16.703125 43.21875 25.484375 
L 43.21875 27.484375 
z
M 52.203125 31.203125 
L 52.203125 0 
L 43.21875 0 
L 43.21875 8.296875 
Q 40.140625 3.328125 35.546875 0.953125 
Q 30.953125 -1.421875 24.3125 -1.421875 
Q 15.921875 -1.421875 10.953125 3.296875 
Q 6 8.015625 6 15.921875 
Q 6 25.140625 12.171875 29.828125 
Q 18.359375 34.515625 30.609375 34.515625 
L 43.21875 34.515625 
L 43.21875 35.40625 
Q 43.21875 41.609375 39.140625 45 
Q 35.0625 48.390625 27.6875 48.390625 
Q 23 48.390625 18.546875 47.265625 
Q 14.109375 46.140625 10.015625 43.890625 
L 10.015625 52.203125 
Q 14.9375 54.109375 19.578125 55.046875 
Q 24.21875 56 28.609375 56 
Q 40.484375 56 46.34375 49.84375 
Q 52.203125 43.703125 52.203125 31.203125 
z
" id="DejaVuSans-61"/>
      <path d="M 9.421875 75.984375 
L 18.40625 75.984375 
L 18.40625 0 
L 9.421875 0 
z
" id="DejaVuSans-6c"/>
      <path d="M 56.203125 29.59375 
L 56.203125 25.203125 
L 14.890625 25.203125 
Q 15.484375 15.921875 20.484375 11.0625 
Q 25.484375 6.203125 34.421875 6.203125 
Q 39.59375 6.203125 44.453125 7.46875 
Q 49.3125 8.734375 54.109375 11.28125 
L 54.109375 2.78125 
Q 49.265625 0.734375 44.1875 -0.34375 
Q 39.109375 -1.421875 33.890625 -1.421875 
Q 20.796875 -1.421875 13.15625 6.1875 
Q 5.515625 13.8125 5.515625 26.8125 
Q 5.515625 40.234375 12.765625 48.109375 
Q 20.015625 56 32.328125 56 
Q 43.359375 56 49.78125 48.890625 
Q 56.203125 41.796875 56.203125 29.59375 
z
M 47.21875 32.234375 
Q 47.125 39.59375 43.09375 43.984375 
Q 39.0625 48.390625 32.421875 48.390625 
Q 24.90625 48.390625 20.390625 44.140625 
Q 15.875 39.890625 15.1875 32.171875 
z
" id="DejaVuSans-65"/>
      <path d="M 54.890625 54.6875 
L 35.109375 28.078125 
L 55.90625 0 
L 45.3125 0 
L 29.390625 21.484375 
L 13.484375 0 
L 2.875 0 
L 24.125 28.609375 
L 4.6875 54.6875 
L 15.28125 54.6875 
L 29.78125 35.203125 
L 44.28125 54.6875 
z
" id="DejaVuSans-78"/>
      <path id="DejaVuSans-20"/>
      <path d="M 41.109375 46.296875 
Q 39.59375 47.171875 37.8125 47.578125 
Q 36.03125 48 33.890625 48 
Q 26.265625 48 22.1875 43.046875 
Q 18.109375 38.09375 18.109375 28.8125 
L 18.109375 0 
L 9.078125 0 
L 9.078125 54.6875 
L 18.109375 54.6875 
L 18.109375 46.1875 
Q 20.953125 51.171875 25.484375 53.578125 
Q 30.03125 56 36.53125 56 
Q 37.453125 56 38.578125 55.875 
Q 39.703125 55.765625 41.0625 55.515625 
z
" id="DejaVuSans-72"/>
      <path d="M 54.890625 33.015625 
L 54.890625 0 
L 45.90625 0 
L 45.90625 32.71875 
Q 45.90625 40.484375 42.875 44.328125 
Q 39.84375 48.1875 33.796875 48.1875 
Q 26.515625 48.1875 22.3125 43.546875 
Q 18.109375 38.921875 18.109375 30.90625 
L 18.109375 0 
L 9.078125 0 
L 9.078125 54.6875 
L 18.109375 54.6875 
L 18.109375 46.1875 
Q 21.34375 51.125 25.703125 53.5625 
Q 30.078125 56 35.796875 56 
Q 45.21875 56 50.046875 50.171875 
Q 54.890625 44.34375 54.890625 33.015625 
z
" id="DejaVuSans-6e"/>
      <path d="M 9.078125 75.984375 
L 18.109375 75.984375 
L 18.109375 31.109375 
L 44.921875 54.6875 
L 56.390625 54.6875 
L 27.390625 29.109375 
L 57.625 0 
L 45.90625 0 
L 18.109375 26.703125 
L 18.109375 0 
L 9.078125 0 
z
" id="DejaVuSans-6b"/>
     </defs>
     <g transform="translate(209.835 335.860562)scale(0.1 -0.1)">
      <use xlink:href="#DejaVuSans-61"/>
      <use x="61.279297" xlink:href="#DejaVuSans-6c"/>
      <use x="89.0625" xlink:href="#DejaVuSans-65"/>
      <use x="150.570312" xlink:href="#DejaVuSans-78"/>
      <use x="209.75" xlink:href="#DejaVuSans-61"/>
      <use x="271.029297" xlink:href="#DejaVuSans-20"/>
      <use x="302.816406" xlink:href="#DejaVuSans-72"/>
      <use x="343.929688" xlink:href="#DejaVuSans-61"/>
      <use x="405.208984" xlink:href="#DejaVuSans-6e"/>
      <use x="468.587891" xlink:href="#DejaVuSans-6b"/>
     </g>
    </g>
   </g>
   <g id="matplotlib.axis_2">
    <g id="ytick_1">
     <g id="line2d_7">
      <defs>
       <path d="M 0 0 
L -3.5 0 
" id="m3b9db9f3c0" style="stroke:#000000;stroke-width:0.8;"/>
      </defs>
      <g>
       <use style="stroke:#000000;stroke-width:0.8;" x="57.6" xlink:href="#m3b9db9f3c0" y="307.584"/>
      </g>
     </g>
     <g id="text_8">
      <!-- 0.0 -->
      <defs>
       <path d="M 10.6875 12.40625 
L 21 12.40625 
L 21 0 
L 10.6875 0 
z
" id="DejaVuSans-2e"/>
      </defs>
      <g transform="translate(34.696875 311.383219)scale(0.1 -0.1)">
       <use xlink:href="#DejaVuSans-30"/>
       <use x="63.623047" xlink:href="#DejaVuSans-2e"/>
       <use x="95.410156" xlink:href="#DejaVuSans-30"/>
      </g>
     </g>
    </g>
    <g id="ytick_2">
     <g id="line2d_8">
      <g>
       <use style="stroke:#000000;stroke-width:0.8;" x="57.6" xlink:href="#m3b9db9f3c0" y="263.700271"/>
      </g>
     </g>
     <g id="text_9">
      <!-- 0.1 -->
      <g transform="translate(34.696875 267.49949)scale(0.1 -0.1)">
       <use xlink:href="#DejaVuSans-30"/>
       <use x="63.623047" xlink:href="#DejaVuSans-2e"/>
       <use x="95.410156" xlink:href="#DejaVuSans-31"/>
      </g>
     </g>
    </g>
    <g id="ytick_3">
     <g id="line2d_9">
      <g>
       <use style="stroke:#000000;stroke-width:0.8;" x="57.6" xlink:href="#m3b9db9f3c0" y="219.816543"/>
      </g>
     </g>
     <g id="text_10">
      <!-- 0.2 -->
      <g transform="translate(34.696875 223.615762)scale(0.1 -0.1)">
       <use xlink:href="#DejaVuSans-30"/>
       <use x="63.623047" xlink:href="#DejaVuSans-2e"/>
       <use x="95.410156" xlink:href="#DejaVuSans-32"/>
      </g>
     </g>
    </g>
    <g id="ytick_4">
     <g id="line2d_10">
      <g>
       <use style="stroke:#000000;stroke-width:0.8;" x="57.6" xlink:href="#m3b9db9f3c0" y="175.932814"/>
      </g>
     </g>
     <g id="text_11">
      <!-- 0.3 -->
      <defs>
       <path d="M 40.578125 39.3125 
Q 47.65625 37.796875 51.625 33 
Q 55.609375 28.21875 55.609375 21.1875 
Q 55.609375 10.40625 48.1875 4.484375 
Q 40.765625 -1.421875 27.09375 -1.421875 
Q 22.515625 -1.421875 17.65625 -0.515625 
Q 12.796875 0.390625 7.625 2.203125 
L 7.625 11.71875 
Q 11.71875 9.328125 16.59375 8.109375 
Q 21.484375 6.890625 26.8125 6.890625 
Q 36.078125 6.890625 40.9375 10.546875 
Q 45.796875 14.203125 45.796875 21.1875 
Q 45.796875 27.640625 41.28125 31.265625 
Q 36.765625 34.90625 28.71875 34.90625 
L 20.21875 34.90625 
L 20.21875 43.015625 
L 29.109375 43.015625 
Q 36.375 43.015625 40.234375 45.921875 
Q 44.09375 48.828125 44.09375 54.296875 
Q 44.09375 59.90625 40.109375 62.90625 
Q 36.140625 65.921875 28.71875 65.921875 
Q 24.65625 65.921875 20.015625 65.03125 
Q 15.375 64.15625 9.8125 62.3125 
L 9.8125 71.09375 
Q 15.4375 72.65625 20.34375 73.4375 
Q 25.25 74.21875 29.59375 74.21875 
Q 40.828125 74.21875 47.359375 69.109375 
Q 53.90625 64.015625 53.90625 55.328125 
Q 53.90625 49.265625 50.4375 45.09375 
Q 46.96875 40.921875 40.578125 39.3125 
z
" id="DejaVuSans-33"/>
      </defs>
      <g transform="translate(34.696875 179.732033)scale(0.1 -0.1)">
       <use xlink:href="#DejaVuSans-30"/>
       <use x="63.623047" xlink:href="#DejaVuSans-2e"/>
       <use x="95.410156" xlink:href="#DejaVuSans-33"/>
      </g>
     </g>
    </g>
    <g id="ytick_5">
     <g id="line2d_11">
      <g>
       <use style="stroke:#000000;stroke-width:0.8;" x="57.6" xlink:href="#m3b9db9f3c0" y="132.049086"/>
      </g>
     </g>
     <g id="text_12">
      <!-- 0.4 -->
      <g transform="translate(34.696875 135.848305)scale(0.1 -0.1)">
       <use xlink:href="#DejaVuSans-30"/>
       <use x="63.623047" xlink:href="#DejaVuSans-2e"/>
       <use x="95.410156" xlink:href="#DejaVuSans-34"/>
      </g>
     </g>
    </g>
    <g id="ytick_6">
     <g id="line2d_12">
      <g>
       <use style="stroke:#000000;stroke-width:0.8;" x="57.6" xlink:href="#m3b9db9f3c0" y="88.165357"/>
      </g>
     </g>
     <g id="text_13">
      <!-- 0.5 -->
      <defs>
       <path d="M 10.796875 72.90625 
L 49.515625 72.90625 
L 49.515625 64.59375 
L 19.828125 64.59375 
L 19.828125 46.734375 
Q 21.96875 47.46875 24.109375 47.828125 
Q 26.265625 48.1875 28.421875 48.1875 
Q 40.625 48.1875 47.75 41.5 
Q 54.890625 34.8125 54.890625 23.390625 
Q 54.890625 11.625 47.5625 5.09375 
Q 40.234375 -1.421875 26.90625 -1.421875 
Q 22.3125 -1.421875 17.546875 -0.640625 
Q 12.796875 0.140625 7.71875 1.703125 
L 7.71875 11.625 
Q 12.109375 9.234375 16.796875 8.0625 
Q 21.484375 6.890625 26.703125 6.890625 
Q 35.15625 6.890625 40.078125 11.328125 
Q 45.015625 15.765625 45.015625 23.390625 
Q 45.015625 31 40.078125 35.4375 
Q 35.15625 39.890625 26.703125 39.890625 
Q 22.75 39.890625 18.8125 39.015625 
Q 14.890625 38.140625 10.796875 36.28125 
z
" id="DejaVuSans-35"/>
      </defs>
      <g transform="translate(34.696875 91.964576)scale(0.1 -0.1)">
       <use xlink:href="#DejaVuSans-30"/>
       <use x="63.623047" xlink:href="#DejaVuSans-2e"/>
       <use x="95.410156" xlink:href="#DejaVuSans-35"/>
      </g>
     </g>
    </g>
    <g id="ytick_7">
     <g id="line2d_13">
      <g>
       <use style="stroke:#000000;stroke-width:0.8;" x="57.6" xlink:href="#m3b9db9f3c0" y="44.281629"/>
      </g>
     </g>
     <g id="text_14">
      <!-- 0.6 -->
      <g transform="translate(34.696875 48.080848)scale(0.1 -0.1)">
       <use xlink:href="#DejaVuSans-30"/>
       <use x="63.623047" xlink:href="#DejaVuSans-2e"/>
       <use x="95.410156" xlink:href="#DejaVuSans-36"/>
      </g>
     </g>
    </g>
    <g id="text_15">
     <!-- proportion -->
     <defs>
      <path d="M 18.109375 8.203125 
L 18.109375 -20.796875 
L 9.078125 -20.796875 
L 9.078125 54.6875 
L 18.109375 54.6875 
L 18.109375 46.390625 
Q 20.953125 51.265625 25.265625 53.625 
Q 29.59375 56 35.59375 56 
Q 45.5625 56 51.78125 48.09375 
Q 58.015625 40.1875 58.015625 27.296875 
Q 58.015625 14.40625 51.78125 6.484375 
Q 45.5625 -1.421875 35.59375 -1.421875 
Q 29.59375 -1.421875 25.265625 0.953125 
Q 20.953125 3.328125 18.109375 8.203125 
z
M 48.6875 27.296875 
Q 48.6875 37.203125 44.609375 42.84375 
Q 40.53125 48.484375 33.40625 48.484375 
Q 26.265625 48.484375 22.1875 42.84375 
Q 18.109375 37.203125 18.109375 27.296875 
Q 18.109375 17.390625 22.1875 11.75 
Q 26.265625 6.109375 33.40625 6.109375 
Q 40.53125 6.109375 44.609375 11.75 
Q 48.6875 17.390625 48.6875 27.296875 
z
" id="DejaVuSans-70"/>
      <path d="M 30.609375 48.390625 
Q 23.390625 48.390625 19.1875 42.75 
Q 14.984375 37.109375 14.984375 27.296875 
Q 14.984375 17.484375 19.15625 11.84375 
Q 23.34375 6.203125 30.609375 6.203125 
Q 37.796875 6.203125 41.984375 11.859375 
Q 46.1875 17.53125 46.1875 27.296875 
Q 46.1875 37.015625 41.984375 42.703125 
Q 37.796875 48.390625 30.609375 48.390625 
z
M 30.609375 56 
Q 42.328125 56 49.015625 48.375 
Q 55.71875 40.765625 55.71875 27.296875 
Q 55.71875 13.875 49.015625 6.21875 
Q 42.328125 -1.421875 30.609375 -1.421875 
Q 18.84375 -1.421875 12.171875 6.21875 
Q 5.515625 13.875 5.515625 27.296875 
Q 5.515625 40.765625 12.171875 48.375 
Q 18.84375 56 30.609375 56 
z
" id="DejaVuSans-6f"/>
      <path d="M 18.3125 70.21875 
L 18.3125 54.6875 
L 36.8125 54.6875 
L 36.8125 47.703125 
L 18.3125 47.703125 
L 18.3125 18.015625 
Q 18.3125 11.328125 20.140625 9.421875 
Q 21.96875 7.515625 27.59375 7.515625 
L 36.8125 7.515625 
L 36.8125 0 
L 27.59375 0 
Q 17.1875 0 13.234375 3.875 
Q 9.28125 7.765625 9.28125 18.015625 
L 9.28125 47.703125 
L 2.6875 47.703125 
L 2.6875 54.6875 
L 9.28125 54.6875 
L 9.28125 70.21875 
z
" id="DejaVuSans-74"/>
      <path d="M 9.421875 54.6875 
L 18.40625 54.6875 
L 18.40625 0 
L 9.421875 0 
z
M 9.421875 75.984375 
L 18.40625 75.984375 
L 18.40625 64.59375 
L 9.421875 64.59375 
z
" id="DejaVuSans-69"/>
     </defs>
     <g transform="translate(28.617187 200.681906)rotate(-90)scale(0.1 -0.1)">
      <use xlink:href="#DejaVuSans-70"/>
      <use x="63.476562" xlink:href="#DejaVuSans-72"/>
      <use x="104.558594" xlink:href="#DejaVuSans-6f"/>
      <use x="165.740234" xlink:href="#DejaVuSans-70"/>
      <use x="229.216797" xlink:href="#DejaVuSans-6f"/>
      <use x="290.398438" xlink:href="#DejaVuSans-72"/>
      <use x="331.511719" xlink:href="#DejaVuSans-74"/>
      <use x="370.720703" xlink:href="#DejaVuSans-69"/>
      <use x="398.503906" xlink:href="#DejaVuSans-6f"/>
      <use x="459.685547" xlink:href="#DejaVuSans-6e"/>
     </g>
    </g>
   </g>
   <g id="line2d_14">
    <path clip-path="url(#pd1528a2e1d)" d="M 57.6 307.584 
L 414.72 307.584 
" style="fill:none;stroke:#808080;stroke-dasharray:1,1.65;stroke-dashoffset:0;"/>
   </g>
   <g id="line2d_15">
    <path clip-path="url(#pd1528a2e1d)" d="M 57.6 256.32773 
L 414.72 256.32773 
" style="fill:none;stroke:#808080;stroke-dasharray:1,1.65;stroke-dashoffset:0;"/>
   </g>
   <g id="line2d_16">
    <path clip-path="url(#pd1528a2e1d)" d="M 57.6 112.990751 
L 414.72 112.990751 
" style="fill:none;stroke:#808080;stroke-dasharray:1,1.65;stroke-dashoffset:0;"/>
   </g>
   <g id="line2d_17">
    <path clip-path="url(#pd1528a2e1d)" d="M 57.6 79.78629 
L 414.72 79.78629 
" style="fill:none;stroke:#808080;stroke-dasharray:1,1.65;stroke-dashoffset:0;"/>
   </g>
   <g id="patch_3">
    <path d="M 57.6 307.584 
L 57.6 41.472 
" style="fill:none;stroke:#000000;stroke-linecap:square;stroke-linejoin:miter;stroke-width:0.8;"/>
   </g>
   <g id="patch_4">
    <path d="M 414.72 307.584 
L 414.72 41.472 
" style="fill:none;stroke:#000000;stroke-linecap:square;stroke-linejoin:miter;stroke-width:0.8;"/>
   </g>
   <g id="patch_5">
    <path d="M 57.6 307.584 
L 414.72 307.584 
" style="fill:none;stroke:#000000;stroke-linecap:square;stroke-linejoin:miter;stroke-width:0.8;"/>
   </g>
   <g id="patch_6">
    <path d="M 57.6 41.472 
L 414.72 41.472 
" style="fill:none;stroke:#000000;stroke-linecap:square;stroke-linejoin:miter;stroke-width:0.8;"/>
   </g>
   <g id="text_16">
    <!-- 0.00 -->
    <g style="fill:#808080;" transform="translate(48.287763 305.504312)scale(0.1 -0.1)">
     <use xlink:href="#DejaVuSans-30"/>
     <use x="63.623047" xlink:href="#DejaVuSans-2e"/>
     <use x="95.410156" xlink:href="#DejaVuSans-30"/>
     <use x="159.033203" xlink:href="#DejaVuSans-30"/>
    </g>
   </g>
   <g id="text_17">
    <!-- 0.12 -->
    <g style="fill:#808080;" transform="translate(48.287763 254.248043)scale(0.1 -0.1)">
     <use xlink:href="#DejaVuSans-30"/>
     <use x="63.623047" xlink:href="#DejaVuSans-2e"/>
     <use x="95.410156" xlink:href="#DejaVuSans-31"/>
     <use x="159.033203" xlink:href="#DejaVuSans-32"/>
    </g>
   </g>
   <g id="text_18">
    <!-- 0.44 -->
    <g style="fill:#808080;" transform="translate(48.287763 110.911063)scale(0.1 -0.1)">
     <use xlink:href="#DejaVuSans-30"/>
     <use x="63.623047" xlink:href="#DejaVuSans-2e"/>
     <use x="95.410156" xlink:href="#DejaVuSans-34"/>
     <use x="159.033203" xlink:href="#DejaVuSans-34"/>
    </g>
   </g>
   <g id="text_19">
    <!-- 0.52 -->
    <g style="fill:#808080;" transform="translate(48.287763 77.706602)scale(0.1 -0.1)">
     <use xlink:href="#DejaVuSans-30"/>
     <use x="63.623047" xlink:href="#DejaVuSans-2e"/>
     <use x="95.410156" xlink:href="#DejaVuSans-35"/>
     <use x="159.033203" xlink:href="#DejaVuSans-32"/>
    </g>
   </g>
   <g id="text_20">
    <!-- 2 scts -->
    <defs>
     <path d="M 44.28125 53.078125 
L 44.28125 44.578125 
Q 40.484375 46.53125 36.375 47.5 
Q 32.28125 48.484375 27.875 48.484375 
Q 21.1875 48.484375 17.84375 46.4375 
Q 14.5 44.390625 14.5 40.28125 
Q 14.5 37.15625 16.890625 35.375 
Q 19.28125 33.59375 26.515625 31.984375 
L 29.59375 31.296875 
Q 39.15625 29.25 43.1875 25.515625 
Q 47.21875 21.78125 47.21875 15.09375 
Q 47.21875 7.46875 41.1875 3.015625 
Q 35.15625 -1.421875 24.609375 -1.421875 
Q 20.21875 -1.421875 15.453125 -0.5625 
Q 10.6875 0.296875 5.421875 2 
L 5.421875 11.28125 
Q 10.40625 8.6875 15.234375 7.390625 
Q 20.0625 6.109375 24.8125 6.109375 
Q 31.15625 6.109375 34.5625 8.28125 
Q 37.984375 10.453125 37.984375 14.40625 
Q 37.984375 18.0625 35.515625 20.015625 
Q 33.0625 21.96875 24.703125 23.78125 
L 21.578125 24.515625 
Q 13.234375 26.265625 9.515625 29.90625 
Q 5.8125 33.546875 5.8125 39.890625 
Q 5.8125 47.609375 11.28125 51.796875 
Q 16.75 56 26.8125 56 
Q 31.78125 56 36.171875 55.265625 
Q 40.578125 54.546875 44.28125 53.078125 
z
" id="DejaVuSans-73"/>
     <path d="M 48.78125 52.59375 
L 48.78125 44.1875 
Q 44.96875 46.296875 41.140625 47.34375 
Q 37.3125 48.390625 33.40625 48.390625 
Q 24.65625 48.390625 19.8125 42.84375 
Q 14.984375 37.3125 14.984375 27.296875 
Q 14.984375 17.28125 19.8125 11.734375 
Q 24.65625 6.203125 33.40625 6.203125 
Q 37.3125 6.203125 41.140625 7.25 
Q 44.96875 8.296875 48.78125 10.40625 
L 48.78125 2.09375 
Q 45.015625 0.34375 40.984375 -0.53125 
Q 36.96875 -1.421875 32.421875 -1.421875 
Q 20.0625 -1.421875 12.78125 6.34375 
Q 5.515625 14.109375 5.515625 27.296875 
Q 5.515625 40.671875 12.859375 48.328125 
Q 20.21875 56 33.015625 56 
Q 37.15625 56 41.109375 55.140625 
Q 45.0625 54.296875 48.78125 52.59375 
z
" id="DejaVuSans-63"/>
    </defs>
    <g transform="translate(80.391405 263.700271)scale(0.1 -0.1)">
     <use xlink:href="#DejaVuSans-32"/>
     <use x="63.623047" xlink:href="#DejaVuSans-20"/>
     <use x="95.410156" xlink:href="#DejaVuSans-73"/>
     <use x="147.509766" xlink:href="#DejaVuSans-63"/>
     <use x="202.490234" xlink:href="#DejaVuSans-74"/>
     <use x="241.699219" xlink:href="#DejaVuSans-73"/>
    </g>
   </g>
   <g id="text_21">
    <!-- 3 scts -->
    <g transform="translate(80.391405 88.165357)scale(0.1 -0.1)">
     <use xlink:href="#DejaVuSans-33"/>
     <use x="63.623047" xlink:href="#DejaVuSans-20"/>
     <use x="95.410156" xlink:href="#DejaVuSans-73"/>
     <use x="147.509766" xlink:href="#DejaVuSans-63"/>
     <use x="202.490234" xlink:href="#DejaVuSans-74"/>
     <use x="241.699219" xlink:href="#DejaVuSans-73"/>
    </g>
   </g>
   <g id="text_22">
    <!-- 4 scts -->
    <g transform="translate(80.391405 -87.369557)scale(0.1 -0.1)">
     <use xlink:href="#DejaVuSans-34"/>
     <use x="63.623047" xlink:href="#DejaVuSans-20"/>
     <use x="95.410156" xlink:href="#DejaVuSans-73"/>
     <use x="147.509766" xlink:href="#DejaVuSans-63"/>
     <use x="202.490234" xlink:href="#DejaVuSans-74"/>
     <use x="241.699219" xlink:href="#DejaVuSans-73"/>
    </g>
   </g>
   <g id="text_23">
    <!-- 5 or more scts -->
    <defs>
     <path d="M 52 44.1875 
Q 55.375 50.25 60.0625 53.125 
Q 64.75 56 71.09375 56 
Q 79.640625 56 84.28125 50.015625 
Q 88.921875 44.046875 88.921875 33.015625 
L 88.921875 0 
L 79.890625 0 
L 79.890625 32.71875 
Q 79.890625 40.578125 77.09375 44.375 
Q 74.3125 48.1875 68.609375 48.1875 
Q 61.625 48.1875 57.5625 43.546875 
Q 53.515625 38.921875 53.515625 30.90625 
L 53.515625 0 
L 44.484375 0 
L 44.484375 32.71875 
Q 44.484375 40.625 41.703125 44.40625 
Q 38.921875 48.1875 33.109375 48.1875 
Q 26.21875 48.1875 22.15625 43.53125 
Q 18.109375 38.875 18.109375 30.90625 
L 18.109375 0 
L 9.078125 0 
L 9.078125 54.6875 
L 18.109375 54.6875 
L 18.109375 46.1875 
Q 21.1875 51.21875 25.484375 53.609375 
Q 29.78125 56 35.6875 56 
Q 41.65625 56 45.828125 52.96875 
Q 50 49.953125 52 44.1875 
z
" id="DejaVuSans-6d"/>
    </defs>
    <g transform="translate(80.391405 -122.476539)scale(0.1 -0.1)">
     <use xlink:href="#DejaVuSans-35"/>
     <use x="63.623047" xlink:href="#DejaVuSans-20"/>
     <use x="95.410156" xlink:href="#DejaVuSans-6f"/>
     <use x="156.591797" xlink:href="#DejaVuSans-72"/>
     <use x="197.705078" xlink:href="#DejaVuSans-20"/>
     <use x="229.492188" xlink:href="#DejaVuSans-6d"/>
     <use x="326.904297" xlink:href="#DejaVuSans-6f"/>
     <use x="388.085938" xlink:href="#DejaVuSans-72"/>
     <use x="429.167969" xlink:href="#DejaVuSans-65"/>
     <use x="490.691406" xlink:href="#DejaVuSans-20"/>
     <use x="522.478516" xlink:href="#DejaVuSans-73"/>
     <use x="574.578125" xlink:href="#DejaVuSans-63"/>
     <use x="629.558594" xlink:href="#DejaVuSans-74"/>
     <use x="668.767578" xlink:href="#DejaVuSans-73"/>
    </g>
   </g>
   <g id="text_24">
    <!-- EV Certificates with SCTs -->
    <defs>
     <path d="M 9.8125 72.90625 
L 55.90625 72.90625 
L 55.90625 64.59375 
L 19.671875 64.59375 
L 19.671875 43.015625 
L 54.390625 43.015625 
L 54.390625 34.71875 
L 19.671875 34.71875 
L 19.671875 8.296875 
L 56.78125 8.296875 
L 56.78125 0 
L 9.8125 0 
z
" id="DejaVuSans-45"/>
     <path d="M 28.609375 0 
L 0.78125 72.90625 
L 11.078125 72.90625 
L 34.1875 11.53125 
L 57.328125 72.90625 
L 67.578125 72.90625 
L 39.796875 0 
z
" id="DejaVuSans-56"/>
     <path d="M 64.40625 67.28125 
L 64.40625 56.890625 
Q 59.421875 61.53125 53.78125 63.8125 
Q 48.140625 66.109375 41.796875 66.109375 
Q 29.296875 66.109375 22.65625 58.46875 
Q 16.015625 50.828125 16.015625 36.375 
Q 16.015625 21.96875 22.65625 14.328125 
Q 29.296875 6.6875 41.796875 6.6875 
Q 48.140625 6.6875 53.78125 8.984375 
Q 59.421875 11.28125 64.40625 15.921875 
L 64.40625 5.609375 
Q 59.234375 2.09375 53.4375 0.328125 
Q 47.65625 -1.421875 41.21875 -1.421875 
Q 24.65625 -1.421875 15.125 8.703125 
Q 5.609375 18.84375 5.609375 36.375 
Q 5.609375 53.953125 15.125 64.078125 
Q 24.65625 74.21875 41.21875 74.21875 
Q 47.75 74.21875 53.53125 72.484375 
Q 59.328125 70.75 64.40625 67.28125 
z
" id="DejaVuSans-43"/>
     <path d="M 37.109375 75.984375 
L 37.109375 68.5 
L 28.515625 68.5 
Q 23.6875 68.5 21.796875 66.546875 
Q 19.921875 64.59375 19.921875 59.515625 
L 19.921875 54.6875 
L 34.71875 54.6875 
L 34.71875 47.703125 
L 19.921875 47.703125 
L 19.921875 0 
L 10.890625 0 
L 10.890625 47.703125 
L 2.296875 47.703125 
L 2.296875 54.6875 
L 10.890625 54.6875 
L 10.890625 58.5 
Q 10.890625 67.625 15.140625 71.796875 
Q 19.390625 75.984375 28.609375 75.984375 
z
" id="DejaVuSans-66"/>
     <path d="M 4.203125 54.6875 
L 13.1875 54.6875 
L 24.421875 12.015625 
L 35.59375 54.6875 
L 46.1875 54.6875 
L 57.421875 12.015625 
L 68.609375 54.6875 
L 77.59375 54.6875 
L 63.28125 0 
L 52.6875 0 
L 40.921875 44.828125 
L 29.109375 0 
L 18.5 0 
z
" id="DejaVuSans-77"/>
     <path d="M 54.890625 33.015625 
L 54.890625 0 
L 45.90625 0 
L 45.90625 32.71875 
Q 45.90625 40.484375 42.875 44.328125 
Q 39.84375 48.1875 33.796875 48.1875 
Q 26.515625 48.1875 22.3125 43.546875 
Q 18.109375 38.921875 18.109375 30.90625 
L 18.109375 0 
L 9.078125 0 
L 9.078125 75.984375 
L 18.109375 75.984375 
L 18.109375 46.1875 
Q 21.34375 51.125 25.703125 53.5625 
Q 30.078125 56 35.796875 56 
Q 45.21875 56 50.046875 50.171875 
Q 54.890625 44.34375 54.890625 33.015625 
z
" id="DejaVuSans-68"/>
     <path d="M 53.515625 70.515625 
L 53.515625 60.890625 
Q 47.90625 63.578125 42.921875 64.890625 
Q 37.9375 66.21875 33.296875 66.21875 
Q 25.25 66.21875 20.875 63.09375 
Q 16.5 59.96875 16.5 54.203125 
Q 16.5 49.359375 19.40625 46.890625 
Q 22.3125 44.4375 30.421875 42.921875 
L 36.375 41.703125 
Q 47.40625 39.59375 52.65625 34.296875 
Q 57.90625 29 57.90625 20.125 
Q 57.90625 9.515625 50.796875 4.046875 
Q 43.703125 -1.421875 29.984375 -1.421875 
Q 24.8125 -1.421875 18.96875 -0.25 
Q 13.140625 0.921875 6.890625 3.21875 
L 6.890625 13.375 
Q 12.890625 10.015625 18.65625 8.296875 
Q 24.421875 6.59375 29.984375 6.59375 
Q 38.421875 6.59375 43.015625 9.90625 
Q 47.609375 13.234375 47.609375 19.390625 
Q 47.609375 24.75 44.3125 27.78125 
Q 41.015625 30.8125 33.5 32.328125 
L 27.484375 33.5 
Q 16.453125 35.6875 11.515625 40.375 
Q 6.59375 45.0625 6.59375 53.421875 
Q 6.59375 63.09375 13.40625 68.65625 
Q 20.21875 74.21875 32.171875 74.21875 
Q 37.3125 74.21875 42.625 73.28125 
Q 47.953125 72.359375 53.515625 70.515625 
z
" id="DejaVuSans-53"/>
     <path d="M -0.296875 72.90625 
L 61.375 72.90625 
L 61.375 64.59375 
L 35.5 64.59375 
L 35.5 0 
L 25.59375 0 
L 25.59375 64.59375 
L -0.296875 64.59375 
z
" id="DejaVuSans-54"/>
    </defs>
    <g transform="translate(160.749375 35.472)scale(0.12 -0.12)">
     <use xlink:href="#DejaVuSans-45"/>
     <use x="63.183594" xlink:href="#DejaVuSans-56"/>
     <use x="131.591797" xlink:href="#DejaVuSans-20"/>
     <use x="163.378906" xlink:href="#DejaVuSans-43"/>
     <use x="233.203125" xlink:href="#DejaVuSans-65"/>
     <use x="294.726562" xlink:href="#DejaVuSans-72"/>
     <use x="335.839844" xlink:href="#DejaVuSans-74"/>
     <use x="375.048828" xlink:href="#DejaVuSans-69"/>
     <use x="402.832031" xlink:href="#DejaVuSans-66"/>
     <use x="438.037109" xlink:href="#DejaVuSans-69"/>
     <use x="465.820312" xlink:href="#DejaVuSans-63"/>
     <use x="520.800781" xlink:href="#DejaVuSans-61"/>
     <use x="582.080078" xlink:href="#DejaVuSans-74"/>
     <use x="621.289062" xlink:href="#DejaVuSans-65"/>
     <use x="682.8125" xlink:href="#DejaVuSans-73"/>
     <use x="734.912109" xlink:href="#DejaVuSans-20"/>
     <use x="766.699219" xlink:href="#DejaVuSans-77"/>
     <use x="848.486328" xlink:href="#DejaVuSans-69"/>
     <use x="876.269531" xlink:href="#DejaVuSans-74"/>
     <use x="915.478516" xlink:href="#DejaVuSans-68"/>
     <use x="978.857422" xlink:href="#DejaVuSans-20"/>
     <use x="1010.644531" xlink:href="#DejaVuSans-53"/>
     <use x="1074.121094" xlink:href="#DejaVuSans-43"/>
     <use x="1143.945312" xlink:href="#DejaVuSans-54"/>
     <use x="1204.779297" xlink:href="#DejaVuSans-73"/>
    </g>
   </g>
  </g>
 </g>
 <defs>
  <clipPath id="pd1528a2e1d">
   <rect height="266.112" width="357.12" x="57.6" y="41.472"/>
  </clipPath>
 </defs>
</svg>
