<?xml version="1.0" encoding="utf-8" standalone="no"?>
<!DOCTYPE svg PUBLIC "-//W3C//DTD SVG 1.1//EN"
  "http://www.w3.org/Graphics/SVG/1.1/DTD/svg11.dtd">
<!-- Created with matplotlib (http://matplotlib.org/) -->
<svg height="345pt" version="1.1" viewBox="0 0 460 345" width="460pt" xmlns="http://www.w3.org/2000/svg" xmlns:xlink="http://www.w3.org/1999/xlink">
 <defs>
  <style type="text/css">
*{stroke-linecap:butt;stroke-linejoin:round;}
  </style>
 </defs>
 <g id="figure_1">
  <g id="patch_1">
   <path d="M 0 345.6 
L 460.8 345.6 
L 460.8 0 
L 0 0 
z
" style="fill:#ffffff;"/>
  </g>
  <g id="axes_1">
   <g id="patch_2">
    <path d="M 57.6 307.584 
L 414.72 307.584 
L 414.72 41.472 
L 57.6 41.472 
z
" style="fill:#ffffff;"/>
   </g>
   <g id="PolyCollection_1">
    <path clip-path="url(#p1e483828ec)" d="M 73.832727 135.28779 
L 73.832727 307.584 
L 77.112066 307.584 
L 80.391405 307.584 
L 83.670744 307.584 
L 86.950083 307.584 
L 90.229421 307.584 
L 93.50876 307.584 
L 96.788099 307.584 
L 100.067438 307.584 
L 103.346777 307.584 
L 106.626116 307.584 
L 109.905455 307.584 
L 113.184793 307.584 
L 116.464132 307.584 
L 119.743471 307.584 
L 123.02281 307.584 
L 126.302149 307.584 
L 129.581488 307.584 
L 132.860826 307.584 
L 136.140165 307.584 
L 139.419504 307.584 
L 142.698843 307.584 
L 145.978182 307.584 
L 149.257521 307.584 
L 152.53686 307.584 
L 155.816198 307.584 
L 159.095537 307.584 
L 162.374876 307.584 
L 165.654215 307.584 
L 168.933554 307.584 
L 172.212893 307.584 
L 175.492231 307.584 
L 178.77157 307.584 
L 182.050909 307.584 
L 185.330248 307.584 
L 188.609587 307.584 
L 191.888926 307.584 
L 195.168264 307.584 
L 198.447603 307.584 
L 201.726942 307.584 
L 205.006281 307.584 
L 208.28562 307.584 
L 211.564959 307.584 
L 214.844298 307.584 
L 218.123636 307.584 
L 221.402975 307.584 
L 224.682314 307.584 
L 227.961653 307.584 
L 231.240992 307.584 
L 234.520331 307.584 
L 237.799669 307.584 
L 241.079008 307.584 
L 244.358347 307.584 
L 247.637686 307.584 
L 250.917025 307.584 
L 254.196364 307.584 
L 257.475702 307.584 
L 260.755041 307.584 
L 264.03438 307.584 
L 267.313719 307.584 
L 270.593058 307.584 
L 273.872397 307.584 
L 277.151736 307.584 
L 280.431074 307.584 
L 283.710413 307.584 
L 286.989752 307.584 
L 290.269091 307.584 
L 293.54843 307.584 
L 296.827769 307.584 
L 300.107107 307.584 
L 303.386446 307.584 
L 306.665785 307.584 
L 309.945124 307.584 
L 313.224463 307.584 
L 316.503802 307.584 
L 319.78314 307.584 
L 323.062479 307.584 
L 326.341818 307.584 
L 329.621157 307.584 
L 332.900496 307.584 
L 336.179835 307.584 
L 339.459174 307.584 
L 342.738512 307.584 
L 346.017851 307.584 
L 349.29719 307.584 
L 352.576529 307.584 
L 355.855868 307.584 
L 359.135207 307.584 
L 362.414545 307.584 
L 365.693884 307.584 
L 368.973223 307.584 
L 372.252562 307.584 
L 375.531901 307.584 
L 378.81124 307.584 
L 382.090579 307.584 
L 385.369917 307.584 
L 388.649256 307.584 
L 391.928595 307.584 
L 395.207934 307.584 
L 398.487273 307.584 
L 398.487273 216.364408 
L 398.487273 216.364408 
L 395.207934 216.901784 
L 391.928595 220.193213 
L 388.649256 218.11088 
L 385.369917 216.498752 
L 382.090579 213.677528 
L 378.81124 216.633096 
L 375.531901 220.058869 
L 372.252562 216.633096 
L 368.973223 212.334087 
L 365.693884 215.625516 
L 362.414545 213.07298 
L 359.135207 215.961376 
L 355.855868 215.827032 
L 352.576529 212.535603 
L 349.29719 216.09572 
L 346.017851 217.842192 
L 342.738512 214.819452 
L 339.459174 216.565924 
L 336.179835 219.319977 
L 332.900496 213.341668 
L 329.621157 213.140152 
L 326.341818 216.09572 
L 323.062479 217.1033 
L 319.78314 215.222484 
L 316.503802 213.7447 
L 313.224463 214.550764 
L 309.945124 209.714379 
L 306.665785 215.558344 
L 303.386446 213.476012 
L 300.107107 224.895254 
L 296.827769 212.535603 
L 293.54843 215.692688 
L 290.269091 212.065399 
L 286.989752 216.565924 
L 283.710413 214.282076 
L 280.431074 211.595195 
L 277.151736 212.669948 
L 273.872397 213.610356 
L 270.593058 215.75986 
L 267.313719 215.020968 
L 264.03438 216.162892 
L 260.755041 213.811872 
L 257.475702 212.804292 
L 254.196364 215.08814 
L 250.917025 219.655837 
L 247.637686 216.565924 
L 244.358347 217.43916 
L 241.079008 218.379569 
L 237.799669 214.013388 
L 234.520331 211.998227 
L 231.240992 211.931055 
L 227.961653 214.214904 
L 224.682314 217.573504 
L 221.402975 215.356828 
L 218.123636 208.370939 
L 214.844298 210.587615 
L 211.564959 213.946216 
L 208.28562 213.677528 
L 205.006281 208.438111 
L 201.726942 214.214904 
L 198.447603 209.445691 
L 195.168264 214.349248 
L 191.888926 214.349248 
L 188.609587 212.602776 
L 185.330248 211.192163 
L 182.050909 215.020968 
L 178.77157 211.326507 
L 175.492231 209.378519 
L 172.212893 214.953796 
L 168.933554 206.75881 
L 165.654215 211.796711 
L 162.374876 205.616886 
L 159.095537 208.572455 
L 155.816198 211.460851 
L 152.53686 206.825983 
L 149.257521 208.236595 
L 145.978182 210.117411 
L 142.698843 206.08709 
L 139.419504 205.549714 
L 136.140165 207.430531 
L 132.860826 211.259335 
L 129.581488 201.116362 
L 126.302149 204.139102 
L 123.02281 204.609306 
L 119.743471 200.578985 
L 116.464132 201.586566 
L 113.184793 203.131522 
L 109.905455 203.668898 
L 106.626116 199.437061 
L 103.346777 201.452222 
L 100.067438 199.705749 
L 96.788099 195.07088 
L 93.50876 196.011289 
L 90.229421 191.37642 
L 86.950083 190.234496 
L 83.670744 184.323359 
L 80.391405 180.964758 
L 77.112066 169.075312 
L 73.832727 135.28779 
z
" style="fill:#1f77b4;"/>
   </g>
   <g id="PolyCollection_2">
    <path clip-path="url(#p1e483828ec)" d="M 73.832727 134.884758 
L 73.832727 135.28779 
L 77.112066 169.075312 
L 80.391405 180.964758 
L 83.670744 184.323359 
L 86.950083 190.234496 
L 90.229421 191.37642 
L 93.50876 196.011289 
L 96.788099 195.07088 
L 100.067438 199.705749 
L 103.346777 201.452222 
L 106.626116 199.437061 
L 109.905455 203.668898 
L 113.184793 203.131522 
L 116.464132 201.586566 
L 119.743471 200.578985 
L 123.02281 204.609306 
L 126.302149 204.139102 
L 129.581488 201.116362 
L 132.860826 211.259335 
L 136.140165 207.430531 
L 139.419504 205.549714 
L 142.698843 206.08709 
L 145.978182 210.117411 
L 149.257521 208.236595 
L 152.53686 206.825983 
L 155.816198 211.460851 
L 159.095537 208.572455 
L 162.374876 205.616886 
L 165.654215 211.796711 
L 168.933554 206.75881 
L 172.212893 214.953796 
L 175.492231 209.378519 
L 178.77157 211.326507 
L 182.050909 215.020968 
L 185.330248 211.192163 
L 188.609587 212.602776 
L 191.888926 214.349248 
L 195.168264 214.349248 
L 198.447603 209.445691 
L 201.726942 214.214904 
L 205.006281 208.438111 
L 208.28562 213.677528 
L 211.564959 213.946216 
L 214.844298 210.587615 
L 218.123636 208.370939 
L 221.402975 215.356828 
L 224.682314 217.573504 
L 227.961653 214.214904 
L 231.240992 211.931055 
L 234.520331 211.998227 
L 237.799669 214.013388 
L 241.079008 218.379569 
L 244.358347 217.43916 
L 247.637686 216.565924 
L 250.917025 219.655837 
L 254.196364 215.08814 
L 257.475702 212.804292 
L 260.755041 213.811872 
L 264.03438 216.162892 
L 267.313719 215.020968 
L 270.593058 215.75986 
L 273.872397 213.610356 
L 277.151736 212.669948 
L 280.431074 211.595195 
L 283.710413 214.282076 
L 286.989752 216.565924 
L 290.269091 212.065399 
L 293.54843 215.692688 
L 296.827769 212.535603 
L 300.107107 224.895254 
L 303.386446 213.476012 
L 306.665785 215.558344 
L 309.945124 209.714379 
L 313.224463 214.550764 
L 316.503802 213.7447 
L 319.78314 215.222484 
L 323.062479 217.1033 
L 326.341818 216.09572 
L 329.621157 213.140152 
L 332.900496 213.341668 
L 336.179835 219.319977 
L 339.459174 216.565924 
L 342.738512 214.819452 
L 346.017851 217.842192 
L 349.29719 216.09572 
L 352.576529 212.535603 
L 355.855868 215.827032 
L 359.135207 215.961376 
L 362.414545 213.07298 
L 365.693884 215.625516 
L 368.973223 212.334087 
L 372.252562 216.633096 
L 375.531901 220.058869 
L 378.81124 216.633096 
L 382.090579 213.677528 
L 385.369917 216.498752 
L 388.649256 218.11088 
L 391.928595 220.193213 
L 395.207934 216.901784 
L 398.487273 216.364408 
L 398.487273 216.364408 
L 398.487273 216.364408 
L 395.207934 216.901784 
L 391.928595 220.193213 
L 388.649256 218.11088 
L 385.369917 216.364408 
L 382.090579 213.543184 
L 378.81124 216.633096 
L 375.531901 220.058869 
L 372.252562 216.633096 
L 368.973223 212.199743 
L 365.693884 215.558344 
L 362.414545 213.07298 
L 359.135207 215.894204 
L 355.855868 215.827032 
L 352.576529 212.401259 
L 349.29719 216.028548 
L 346.017851 217.842192 
L 342.738512 214.75228 
L 339.459174 216.565924 
L 336.179835 219.252805 
L 332.900496 213.341668 
L 329.621157 213.07298 
L 326.341818 216.09572 
L 323.062479 217.036128 
L 319.78314 215.222484 
L 316.503802 213.543184 
L 313.224463 214.483592 
L 309.945124 209.714379 
L 306.665785 215.491172 
L 303.386446 213.40884 
L 300.107107 224.895254 
L 296.827769 212.468431 
L 293.54843 215.558344 
L 290.269091 211.863883 
L 286.989752 216.498752 
L 283.710413 214.282076 
L 280.431074 211.528023 
L 277.151736 212.669948 
L 273.872397 213.476012 
L 270.593058 215.625516 
L 267.313719 215.020968 
L 264.03438 216.09572 
L 260.755041 213.7447 
L 257.475702 212.669948 
L 254.196364 214.886624 
L 250.917025 219.588665 
L 247.637686 216.297236 
L 244.358347 217.371988 
L 241.079008 218.379569 
L 237.799669 213.879044 
L 234.520331 211.998227 
L 231.240992 211.931055 
L 227.961653 214.214904 
L 224.682314 217.371988 
L 221.402975 215.289656 
L 218.123636 208.102251 
L 214.844298 210.587615 
L 211.564959 213.946216 
L 208.28562 213.543184 
L 205.006281 208.438111 
L 201.726942 214.08056 
L 198.447603 209.378519 
L 195.168264 214.349248 
L 191.888926 214.349248 
L 188.609587 212.602776 
L 185.330248 211.192163 
L 182.050909 214.886624 
L 178.77157 211.259335 
L 175.492231 209.378519 
L 172.212893 214.886624 
L 168.933554 206.691638 
L 165.654215 211.662367 
L 162.374876 205.482542 
L 159.095537 208.572455 
L 155.816198 211.259335 
L 152.53686 206.691638 
L 149.257521 208.102251 
L 145.978182 210.050239 
L 142.698843 206.08709 
L 139.419504 205.549714 
L 136.140165 207.363359 
L 132.860826 211.124991 
L 129.581488 201.04919 
L 126.302149 204.139102 
L 123.02281 204.474962 
L 119.743471 200.511813 
L 116.464132 201.519394 
L 113.184793 202.930006 
L 109.905455 203.668898 
L 106.626116 199.369889 
L 103.346777 201.317878 
L 100.067438 199.638577 
L 96.788099 194.802192 
L 93.50876 196.011289 
L 90.229421 191.242076 
L 86.950083 190.234496 
L 83.670744 184.256187 
L 80.391405 180.628898 
L 77.112066 168.806624 
L 73.832727 134.884758 
z
" style="fill:#ff7f0e;"/>
   </g>
   <g id="PolyCollection_3">
    <path clip-path="url(#p1e483828ec)" d="M 73.832727 54.144 
L 73.832727 134.884758 
L 77.112066 168.806624 
L 80.391405 180.628898 
L 83.670744 184.256187 
L 86.950083 190.234496 
L 90.229421 191.242076 
L 93.50876 196.011289 
L 96.788099 194.802192 
L 100.067438 199.638577 
L 103.346777 201.317878 
L 106.626116 199.369889 
L 109.905455 203.668898 
L 113.184793 202.930006 
L 116.464132 201.519394 
L 119.743471 200.511813 
L 123.02281 204.474962 
L 126.302149 204.139102 
L 129.581488 201.04919 
L 132.860826 211.124991 
L 136.140165 207.363359 
L 139.419504 205.549714 
L 142.698843 206.08709 
L 145.978182 210.050239 
L 149.257521 208.102251 
L 152.53686 206.691638 
L 155.816198 211.259335 
L 159.095537 208.572455 
L 162.374876 205.482542 
L 165.654215 211.662367 
L 168.933554 206.691638 
L 172.212893 214.886624 
L 175.492231 209.378519 
L 178.77157 211.259335 
L 182.050909 214.886624 
L 185.330248 211.192163 
L 188.609587 212.602776 
L 191.888926 214.349248 
L 195.168264 214.349248 
L 198.447603 209.378519 
L 201.726942 214.08056 
L 205.006281 208.438111 
L 208.28562 213.543184 
L 211.564959 213.946216 
L 214.844298 210.587615 
L 218.123636 208.102251 
L 221.402975 215.289656 
L 224.682314 217.371988 
L 227.961653 214.214904 
L 231.240992 211.931055 
L 234.520331 211.998227 
L 237.799669 213.879044 
L 241.079008 218.379569 
L 244.358347 217.371988 
L 247.637686 216.297236 
L 250.917025 219.588665 
L 254.196364 214.886624 
L 257.475702 212.669948 
L 260.755041 213.7447 
L 264.03438 216.09572 
L 267.313719 215.020968 
L 270.593058 215.625516 
L 273.872397 213.476012 
L 277.151736 212.669948 
L 280.431074 211.528023 
L 283.710413 214.282076 
L 286.989752 216.498752 
L 290.269091 211.863883 
L 293.54843 215.558344 
L 296.827769 212.468431 
L 300.107107 224.895254 
L 303.386446 213.40884 
L 306.665785 215.491172 
L 309.945124 209.714379 
L 313.224463 214.483592 
L 316.503802 213.543184 
L 319.78314 215.222484 
L 323.062479 217.036128 
L 326.341818 216.09572 
L 329.621157 213.07298 
L 332.900496 213.341668 
L 336.179835 219.252805 
L 339.459174 216.565924 
L 342.738512 214.75228 
L 346.017851 217.842192 
L 349.29719 216.028548 
L 352.576529 212.401259 
L 355.855868 215.827032 
L 359.135207 215.894204 
L 362.414545 213.07298 
L 365.693884 215.558344 
L 368.973223 212.199743 
L 372.252562 216.633096 
L 375.531901 220.058869 
L 378.81124 216.633096 
L 382.090579 213.543184 
L 385.369917 216.364408 
L 388.649256 218.11088 
L 391.928595 220.193213 
L 395.207934 216.901784 
L 398.487273 216.364408 
L 398.487273 198.295137 
L 398.487273 198.295137 
L 395.207934 198.832513 
L 391.928595 201.922426 
L 388.649256 200.377469 
L 385.369917 198.832513 
L 382.090579 195.541085 
L 378.81124 197.556245 
L 375.531901 201.04919 
L 372.252562 200.847673 
L 368.973223 195.809773 
L 365.693884 197.153213 
L 362.414545 196.817353 
L 359.135207 196.615837 
L 355.855868 198.899685 
L 352.576529 195.742601 
L 349.29719 199.705749 
L 346.017851 200.377469 
L 342.738512 198.496653 
L 339.459174 198.563825 
L 336.179835 201.38505 
L 332.900496 195.809773 
L 329.621157 196.817353 
L 326.341818 198.966857 
L 323.062479 198.899685 
L 319.78314 198.227965 
L 316.503802 195.876945 
L 313.224463 198.295137 
L 309.945124 193.39158 
L 306.665785 196.615837 
L 303.386446 194.936536 
L 300.107107 209.177003 
L 296.827769 194.667848 
L 293.54843 198.563825 
L 290.269091 195.339569 
L 286.989752 196.951697 
L 283.710413 198.698169 
L 280.431074 194.533504 
L 277.151736 195.339569 
L 273.872397 195.339569 
L 270.593058 198.026449 
L 267.313719 196.347149 
L 264.03438 198.295137 
L 260.755041 194.936536 
L 257.475702 194.466332 
L 254.196364 197.489073 
L 250.917025 199.235545 
L 247.637686 199.705749 
L 244.358347 199.437061 
L 241.079008 201.653738 
L 237.799669 195.07088 
L 234.520331 194.264816 
L 231.240992 194.264816 
L 227.961653 194.869364 
L 224.682314 198.496653 
L 221.402975 196.414321 
L 218.123636 188.488023 
L 214.844298 192.518344 
L 211.564959 194.0633 
L 208.28562 193.525924 
L 205.006281 189.69712 
L 201.726942 194.39916 
L 198.447603 190.570356 
L 195.168264 196.414321 
L 191.888926 196.414321 
L 188.609587 194.600676 
L 185.330248 190.973388 
L 182.050909 195.205224 
L 178.77157 192.652688 
L 175.492231 187.144583 
L 172.212893 194.936536 
L 168.933554 184.927907 
L 165.654215 189.428431 
L 162.374876 183.248606 
L 159.095537 187.413271 
L 155.816198 188.891055 
L 152.53686 184.256187 
L 149.257521 187.010239 
L 145.978182 187.077411 
L 142.698843 179.285458 
L 139.419504 180.36021 
L 136.140165 183.114262 
L 132.860826 184.995079 
L 129.581488 177.942017 
L 126.302149 177.001609 
L 123.02281 174.919277 
L 119.743471 174.717761 
L 116.464132 173.172805 
L 113.184793 172.702601 
L 109.905455 176.195545 
L 106.626116 168.940968 
L 103.346777 169.814204 
L 100.067438 167.597528 
L 96.788099 161.149015 
L 93.50876 160.34295 
L 90.229421 151.476245 
L 86.950083 149.192397 
L 83.670744 140.460035 
L 80.391405 127.428665 
L 77.112066 108.351813 
L 73.832727 54.144 
z
" style="fill:#2ca02c;"/>
   </g>
   <g id="matplotlib.axis_1">
    <g id="xtick_1">
     <g id="line2d_1">
      <defs>
       <path d="M 0 0 
L 0 3.5 
" id="m6e6650555a" style="stroke:#000000;stroke-width:0.8;"/>
      </defs>
      <g>
       <use style="stroke:#000000;stroke-width:0.8;" x="70.553388" xlink:href="#m6e6650555a" y="307.584"/>
      </g>
     </g>
     <g id="text_1">
      <!-- 0 -->
      <defs>
       <path d="M 31.78125 66.40625 
Q 24.171875 66.40625 20.328125 58.90625 
Q 16.5 51.421875 16.5 36.375 
Q 16.5 21.390625 20.328125 13.890625 
Q 24.171875 6.390625 31.78125 6.390625 
Q 39.453125 6.390625 43.28125 13.890625 
Q 47.125 21.390625 47.125 36.375 
Q 47.125 51.421875 43.28125 58.90625 
Q 39.453125 66.40625 31.78125 66.40625 
z
M 31.78125 74.21875 
Q 44.046875 74.21875 50.515625 64.515625 
Q 56.984375 54.828125 56.984375 36.375 
Q 56.984375 17.96875 50.515625 8.265625 
Q 44.046875 -1.421875 31.78125 -1.421875 
Q 19.53125 -1.421875 13.0625 8.265625 
Q 6.59375 17.96875 6.59375 36.375 
Q 6.59375 54.828125 13.0625 64.515625 
Q 19.53125 74.21875 31.78125 74.21875 
z
" id="DejaVuSans-30"/>
      </defs>
      <g transform="translate(67.372138 322.182437)scale(0.1 -0.1)">
       <use xlink:href="#DejaVuSans-30"/>
      </g>
     </g>
    </g>
    <g id="xtick_2">
     <g id="line2d_2">
      <g>
       <use style="stroke:#000000;stroke-width:0.8;" x="136.140165" xlink:href="#m6e6650555a" y="307.584"/>
      </g>
     </g>
     <g id="text_2">
      <!-- 200000 -->
      <defs>
       <path d="M 19.1875 8.296875 
L 53.609375 8.296875 
L 53.609375 0 
L 7.328125 0 
L 7.328125 8.296875 
Q 12.9375 14.109375 22.625 23.890625 
Q 32.328125 33.6875 34.8125 36.53125 
Q 39.546875 41.84375 41.421875 45.53125 
Q 43.3125 49.21875 43.3125 52.78125 
Q 43.3125 58.59375 39.234375 62.25 
Q 35.15625 65.921875 28.609375 65.921875 
Q 23.96875 65.921875 18.8125 64.3125 
Q 13.671875 62.703125 7.8125 59.421875 
L 7.8125 69.390625 
Q 13.765625 71.78125 18.9375 73 
Q 24.125 74.21875 28.421875 74.21875 
Q 39.75 74.21875 46.484375 68.546875 
Q 53.21875 62.890625 53.21875 53.421875 
Q 53.21875 48.921875 51.53125 44.890625 
Q 49.859375 40.875 45.40625 35.40625 
Q 44.1875 33.984375 37.640625 27.21875 
Q 31.109375 20.453125 19.1875 8.296875 
z
" id="DejaVuSans-32"/>
      </defs>
      <g transform="translate(117.052665 322.182437)scale(0.1 -0.1)">
       <use xlink:href="#DejaVuSans-32"/>
       <use x="63.623047" xlink:href="#DejaVuSans-30"/>
       <use x="127.246094" xlink:href="#DejaVuSans-30"/>
       <use x="190.869141" xlink:href="#DejaVuSans-30"/>
       <use x="254.492188" xlink:href="#DejaVuSans-30"/>
       <use x="318.115234" xlink:href="#DejaVuSans-30"/>
      </g>
     </g>
    </g>
    <g id="xtick_3">
     <g id="line2d_3">
      <g>
       <use style="stroke:#000000;stroke-width:0.8;" x="201.726942" xlink:href="#m6e6650555a" y="307.584"/>
      </g>
     </g>
     <g id="text_3">
      <!-- 400000 -->
      <defs>
       <path d="M 37.796875 64.3125 
L 12.890625 25.390625 
L 37.796875 25.390625 
z
M 35.203125 72.90625 
L 47.609375 72.90625 
L 47.609375 25.390625 
L 58.015625 25.390625 
L 58.015625 17.1875 
L 47.609375 17.1875 
L 47.609375 0 
L 37.796875 0 
L 37.796875 17.1875 
L 4.890625 17.1875 
L 4.890625 26.703125 
z
" id="DejaVuSans-34"/>
      </defs>
      <g transform="translate(182.639442 322.182437)scale(0.1 -0.1)">
       <use xlink:href="#DejaVuSans-34"/>
       <use x="63.623047" xlink:href="#DejaVuSans-30"/>
       <use x="127.246094" xlink:href="#DejaVuSans-30"/>
       <use x="190.869141" xlink:href="#DejaVuSans-30"/>
       <use x="254.492188" xlink:href="#DejaVuSans-30"/>
       <use x="318.115234" xlink:href="#DejaVuSans-30"/>
      </g>
     </g>
    </g>
    <g id="xtick_4">
     <g id="line2d_4">
      <g>
       <use style="stroke:#000000;stroke-width:0.8;" x="267.313719" xlink:href="#m6e6650555a" y="307.584"/>
      </g>
     </g>
     <g id="text_4">
      <!-- 600000 -->
      <defs>
       <path d="M 33.015625 40.375 
Q 26.375 40.375 22.484375 35.828125 
Q 18.609375 31.296875 18.609375 23.390625 
Q 18.609375 15.53125 22.484375 10.953125 
Q 26.375 6.390625 33.015625 6.390625 
Q 39.65625 6.390625 43.53125 10.953125 
Q 47.40625 15.53125 47.40625 23.390625 
Q 47.40625 31.296875 43.53125 35.828125 
Q 39.65625 40.375 33.015625 40.375 
z
M 52.59375 71.296875 
L 52.59375 62.3125 
Q 48.875 64.0625 45.09375 64.984375 
Q 41.3125 65.921875 37.59375 65.921875 
Q 27.828125 65.921875 22.671875 59.328125 
Q 17.53125 52.734375 16.796875 39.40625 
Q 19.671875 43.65625 24.015625 45.921875 
Q 28.375 48.1875 33.59375 48.1875 
Q 44.578125 48.1875 50.953125 41.515625 
Q 57.328125 34.859375 57.328125 23.390625 
Q 57.328125 12.15625 50.6875 5.359375 
Q 44.046875 -1.421875 33.015625 -1.421875 
Q 20.359375 -1.421875 13.671875 8.265625 
Q 6.984375 17.96875 6.984375 36.375 
Q 6.984375 53.65625 15.1875 63.9375 
Q 23.390625 74.21875 37.203125 74.21875 
Q 40.921875 74.21875 44.703125 73.484375 
Q 48.484375 72.75 52.59375 71.296875 
z
" id="DejaVuSans-36"/>
      </defs>
      <g transform="translate(248.226219 322.182437)scale(0.1 -0.1)">
       <use xlink:href="#DejaVuSans-36"/>
       <use x="63.623047" xlink:href="#DejaVuSans-30"/>
       <use x="127.246094" xlink:href="#DejaVuSans-30"/>
       <use x="190.869141" xlink:href="#DejaVuSans-30"/>
       <use x="254.492188" xlink:href="#DejaVuSans-30"/>
       <use x="318.115234" xlink:href="#DejaVuSans-30"/>
      </g>
     </g>
    </g>
    <g id="xtick_5">
     <g id="line2d_5">
      <g>
       <use style="stroke:#000000;stroke-width:0.8;" x="332.900496" xlink:href="#m6e6650555a" y="307.584"/>
      </g>
     </g>
     <g id="text_5">
      <!-- 800000 -->
      <defs>
       <path d="M 31.78125 34.625 
Q 24.75 34.625 20.71875 30.859375 
Q 16.703125 27.09375 16.703125 20.515625 
Q 16.703125 13.921875 20.71875 10.15625 
Q 24.75 6.390625 31.78125 6.390625 
Q 38.8125 6.390625 42.859375 10.171875 
Q 46.921875 13.96875 46.921875 20.515625 
Q 46.921875 27.09375 42.890625 30.859375 
Q 38.875 34.625 31.78125 34.625 
z
M 21.921875 38.8125 
Q 15.578125 40.375 12.03125 44.71875 
Q 8.5 49.078125 8.5 55.328125 
Q 8.5 64.0625 14.71875 69.140625 
Q 20.953125 74.21875 31.78125 74.21875 
Q 42.671875 74.21875 48.875 69.140625 
Q 55.078125 64.0625 55.078125 55.328125 
Q 55.078125 49.078125 51.53125 44.71875 
Q 48 40.375 41.703125 38.8125 
Q 48.828125 37.15625 52.796875 32.3125 
Q 56.78125 27.484375 56.78125 20.515625 
Q 56.78125 9.90625 50.3125 4.234375 
Q 43.84375 -1.421875 31.78125 -1.421875 
Q 19.734375 -1.421875 13.25 4.234375 
Q 6.78125 9.90625 6.78125 20.515625 
Q 6.78125 27.484375 10.78125 32.3125 
Q 14.796875 37.15625 21.921875 38.8125 
z
M 18.3125 54.390625 
Q 18.3125 48.734375 21.84375 45.5625 
Q 25.390625 42.390625 31.78125 42.390625 
Q 38.140625 42.390625 41.71875 45.5625 
Q 45.3125 48.734375 45.3125 54.390625 
Q 45.3125 60.0625 41.71875 63.234375 
Q 38.140625 66.40625 31.78125 66.40625 
Q 25.390625 66.40625 21.84375 63.234375 
Q 18.3125 60.0625 18.3125 54.390625 
z
" id="DejaVuSans-38"/>
      </defs>
      <g transform="translate(313.812996 322.182437)scale(0.1 -0.1)">
       <use xlink:href="#DejaVuSans-38"/>
       <use x="63.623047" xlink:href="#DejaVuSans-30"/>
       <use x="127.246094" xlink:href="#DejaVuSans-30"/>
       <use x="190.869141" xlink:href="#DejaVuSans-30"/>
       <use x="254.492188" xlink:href="#DejaVuSans-30"/>
       <use x="318.115234" xlink:href="#DejaVuSans-30"/>
      </g>
     </g>
    </g>
    <g id="xtick_6">
     <g id="line2d_6">
      <g>
       <use style="stroke:#000000;stroke-width:0.8;" x="398.487273" xlink:href="#m6e6650555a" y="307.584"/>
      </g>
     </g>
     <g id="text_6">
      <!-- 1000000 -->
      <defs>
       <path d="M 12.40625 8.296875 
L 28.515625 8.296875 
L 28.515625 63.921875 
L 10.984375 60.40625 
L 10.984375 69.390625 
L 28.421875 72.90625 
L 38.28125 72.90625 
L 38.28125 8.296875 
L 54.390625 8.296875 
L 54.390625 0 
L 12.40625 0 
z
" id="DejaVuSans-31"/>
      </defs>
      <g transform="translate(376.218523 322.182437)scale(0.1 -0.1)">
       <use xlink:href="#DejaVuSans-31"/>
       <use x="63.623047" xlink:href="#DejaVuSans-30"/>
       <use x="127.246094" xlink:href="#DejaVuSans-30"/>
       <use x="190.869141" xlink:href="#DejaVuSans-30"/>
       <use x="254.492188" xlink:href="#DejaVuSans-30"/>
       <use x="318.115234" xlink:href="#DejaVuSans-30"/>
       <use x="381.738281" xlink:href="#DejaVuSans-30"/>
      </g>
     </g>
    </g>
   </g>
   <g id="matplotlib.axis_2">
    <g id="ytick_1">
     <g id="line2d_7">
      <defs>
       <path d="M 0 0 
L -3.5 0 
" id="me1f59a453a" style="stroke:#000000;stroke-width:0.8;"/>
      </defs>
      <g>
       <use style="stroke:#000000;stroke-width:0.8;" x="57.6" xlink:href="#me1f59a453a" y="307.584"/>
      </g>
     </g>
     <g id="text_7">
      <!-- 0 -->
      <g transform="translate(44.2375 311.383219)scale(0.1 -0.1)">
       <use xlink:href="#DejaVuSans-30"/>
      </g>
     </g>
    </g>
    <g id="ytick_2">
     <g id="line2d_8">
      <g>
       <use style="stroke:#000000;stroke-width:0.8;" x="57.6" xlink:href="#me1f59a453a" y="273.997994"/>
      </g>
     </g>
     <g id="text_8">
      <!-- 500 -->
      <defs>
       <path d="M 10.796875 72.90625 
L 49.515625 72.90625 
L 49.515625 64.59375 
L 19.828125 64.59375 
L 19.828125 46.734375 
Q 21.96875 47.46875 24.109375 47.828125 
Q 26.265625 48.1875 28.421875 48.1875 
Q 40.625 48.1875 47.75 41.5 
Q 54.890625 34.8125 54.890625 23.390625 
Q 54.890625 11.625 47.5625 5.09375 
Q 40.234375 -1.421875 26.90625 -1.421875 
Q 22.3125 -1.421875 17.546875 -0.640625 
Q 12.796875 0.140625 7.71875 1.703125 
L 7.71875 11.625 
Q 12.109375 9.234375 16.796875 8.0625 
Q 21.484375 6.890625 26.703125 6.890625 
Q 35.15625 6.890625 40.078125 11.328125 
Q 45.015625 15.765625 45.015625 23.390625 
Q 45.015625 31 40.078125 35.4375 
Q 35.15625 39.890625 26.703125 39.890625 
Q 22.75 39.890625 18.8125 39.015625 
Q 14.890625 38.140625 10.796875 36.28125 
z
" id="DejaVuSans-35"/>
      </defs>
      <g transform="translate(31.5125 277.797213)scale(0.1 -0.1)">
       <use xlink:href="#DejaVuSans-35"/>
       <use x="63.623047" xlink:href="#DejaVuSans-30"/>
       <use x="127.246094" xlink:href="#DejaVuSans-30"/>
      </g>
     </g>
    </g>
    <g id="ytick_3">
     <g id="line2d_9">
      <g>
       <use style="stroke:#000000;stroke-width:0.8;" x="57.6" xlink:href="#me1f59a453a" y="240.411988"/>
      </g>
     </g>
     <g id="text_9">
      <!-- 1000 -->
      <g transform="translate(25.15 244.211207)scale(0.1 -0.1)">
       <use xlink:href="#DejaVuSans-31"/>
       <use x="63.623047" xlink:href="#DejaVuSans-30"/>
       <use x="127.246094" xlink:href="#DejaVuSans-30"/>
       <use x="190.869141" xlink:href="#DejaVuSans-30"/>
      </g>
     </g>
    </g>
    <g id="ytick_4">
     <g id="line2d_10">
      <g>
       <use style="stroke:#000000;stroke-width:0.8;" x="57.6" xlink:href="#me1f59a453a" y="206.825983"/>
      </g>
     </g>
     <g id="text_10">
      <!-- 1500 -->
      <g transform="translate(25.15 210.625201)scale(0.1 -0.1)">
       <use xlink:href="#DejaVuSans-31"/>
       <use x="63.623047" xlink:href="#DejaVuSans-35"/>
       <use x="127.246094" xlink:href="#DejaVuSans-30"/>
       <use x="190.869141" xlink:href="#DejaVuSans-30"/>
      </g>
     </g>
    </g>
    <g id="ytick_5">
     <g id="line2d_11">
      <g>
       <use style="stroke:#000000;stroke-width:0.8;" x="57.6" xlink:href="#me1f59a453a" y="173.239977"/>
      </g>
     </g>
     <g id="text_11">
      <!-- 2000 -->
      <g transform="translate(25.15 177.039195)scale(0.1 -0.1)">
       <use xlink:href="#DejaVuSans-32"/>
       <use x="63.623047" xlink:href="#DejaVuSans-30"/>
       <use x="127.246094" xlink:href="#DejaVuSans-30"/>
       <use x="190.869141" xlink:href="#DejaVuSans-30"/>
      </g>
     </g>
    </g>
    <g id="ytick_6">
     <g id="line2d_12">
      <g>
       <use style="stroke:#000000;stroke-width:0.8;" x="57.6" xlink:href="#me1f59a453a" y="139.653971"/>
      </g>
     </g>
     <g id="text_12">
      <!-- 2500 -->
      <g transform="translate(25.15 143.45319)scale(0.1 -0.1)">
       <use xlink:href="#DejaVuSans-32"/>
       <use x="63.623047" xlink:href="#DejaVuSans-35"/>
       <use x="127.246094" xlink:href="#DejaVuSans-30"/>
       <use x="190.869141" xlink:href="#DejaVuSans-30"/>
      </g>
     </g>
    </g>
    <g id="ytick_7">
     <g id="line2d_13">
      <g>
       <use style="stroke:#000000;stroke-width:0.8;" x="57.6" xlink:href="#me1f59a453a" y="106.067965"/>
      </g>
     </g>
     <g id="text_13">
      <!-- 3000 -->
      <defs>
       <path d="M 40.578125 39.3125 
Q 47.65625 37.796875 51.625 33 
Q 55.609375 28.21875 55.609375 21.1875 
Q 55.609375 10.40625 48.1875 4.484375 
Q 40.765625 -1.421875 27.09375 -1.421875 
Q 22.515625 -1.421875 17.65625 -0.515625 
Q 12.796875 0.390625 7.625 2.203125 
L 7.625 11.71875 
Q 11.71875 9.328125 16.59375 8.109375 
Q 21.484375 6.890625 26.8125 6.890625 
Q 36.078125 6.890625 40.9375 10.546875 
Q 45.796875 14.203125 45.796875 21.1875 
Q 45.796875 27.640625 41.28125 31.265625 
Q 36.765625 34.90625 28.71875 34.90625 
L 20.21875 34.90625 
L 20.21875 43.015625 
L 29.109375 43.015625 
Q 36.375 43.015625 40.234375 45.921875 
Q 44.09375 48.828125 44.09375 54.296875 
Q 44.09375 59.90625 40.109375 62.90625 
Q 36.140625 65.921875 28.71875 65.921875 
Q 24.65625 65.921875 20.015625 65.03125 
Q 15.375 64.15625 9.8125 62.3125 
L 9.8125 71.09375 
Q 15.4375 72.65625 20.34375 73.4375 
Q 25.25 74.21875 29.59375 74.21875 
Q 40.828125 74.21875 47.359375 69.109375 
Q 53.90625 64.015625 53.90625 55.328125 
Q 53.90625 49.265625 50.4375 45.09375 
Q 46.96875 40.921875 40.578125 39.3125 
z
" id="DejaVuSans-33"/>
      </defs>
      <g transform="translate(25.15 109.867184)scale(0.1 -0.1)">
       <use xlink:href="#DejaVuSans-33"/>
       <use x="63.623047" xlink:href="#DejaVuSans-30"/>
       <use x="127.246094" xlink:href="#DejaVuSans-30"/>
       <use x="190.869141" xlink:href="#DejaVuSans-30"/>
      </g>
     </g>
    </g>
    <g id="ytick_8">
     <g id="line2d_14">
      <g>
       <use style="stroke:#000000;stroke-width:0.8;" x="57.6" xlink:href="#me1f59a453a" y="72.481959"/>
      </g>
     </g>
     <g id="text_14">
      <!-- 3500 -->
      <g transform="translate(25.15 76.281178)scale(0.1 -0.1)">
       <use xlink:href="#DejaVuSans-33"/>
       <use x="63.623047" xlink:href="#DejaVuSans-35"/>
       <use x="127.246094" xlink:href="#DejaVuSans-30"/>
       <use x="190.869141" xlink:href="#DejaVuSans-30"/>
      </g>
     </g>
    </g>
   </g>
   <g id="patch_3">
    <path d="M 57.6 307.584 
L 57.6 41.472 
" style="fill:none;stroke:#000000;stroke-linecap:square;stroke-linejoin:miter;stroke-width:0.8;"/>
   </g>
   <g id="patch_4">
    <path d="M 414.72 307.584 
L 414.72 41.472 
" style="fill:none;stroke:#000000;stroke-linecap:square;stroke-linejoin:miter;stroke-width:0.8;"/>
   </g>
   <g id="patch_5">
    <path d="M 57.6 307.584 
L 414.72 307.584 
" style="fill:none;stroke:#000000;stroke-linecap:square;stroke-linejoin:miter;stroke-width:0.8;"/>
   </g>
   <g id="patch_6">
    <path d="M 57.6 41.472 
L 414.72 41.472 
" style="fill:none;stroke:#000000;stroke-linecap:square;stroke-linejoin:miter;stroke-width:0.8;"/>
   </g>
   <g id="text_15">
    <!-- by cert only -->
    <defs>
     <path d="M 48.6875 27.296875 
Q 48.6875 37.203125 44.609375 42.84375 
Q 40.53125 48.484375 33.40625 48.484375 
Q 26.265625 48.484375 22.1875 42.84375 
Q 18.109375 37.203125 18.109375 27.296875 
Q 18.109375 17.390625 22.1875 11.75 
Q 26.265625 6.109375 33.40625 6.109375 
Q 40.53125 6.109375 44.609375 11.75 
Q 48.6875 17.390625 48.6875 27.296875 
z
M 18.109375 46.390625 
Q 20.953125 51.265625 25.265625 53.625 
Q 29.59375 56 35.59375 56 
Q 45.5625 56 51.78125 48.09375 
Q 58.015625 40.1875 58.015625 27.296875 
Q 58.015625 14.40625 51.78125 6.484375 
Q 45.5625 -1.421875 35.59375 -1.421875 
Q 29.59375 -1.421875 25.265625 0.953125 
Q 20.953125 3.328125 18.109375 8.203125 
L 18.109375 0 
L 9.078125 0 
L 9.078125 75.984375 
L 18.109375 75.984375 
z
" id="DejaVuSans-62"/>
     <path d="M 32.171875 -5.078125 
Q 28.375 -14.84375 24.75 -17.8125 
Q 21.140625 -20.796875 15.09375 -20.796875 
L 7.90625 -20.796875 
L 7.90625 -13.28125 
L 13.1875 -13.28125 
Q 16.890625 -13.28125 18.9375 -11.515625 
Q 21 -9.765625 23.484375 -3.21875 
L 25.09375 0.875 
L 2.984375 54.6875 
L 12.5 54.6875 
L 29.59375 11.921875 
L 46.6875 54.6875 
L 56.203125 54.6875 
z
" id="DejaVuSans-79"/>
     <path id="DejaVuSans-20"/>
     <path d="M 48.78125 52.59375 
L 48.78125 44.1875 
Q 44.96875 46.296875 41.140625 47.34375 
Q 37.3125 48.390625 33.40625 48.390625 
Q 24.65625 48.390625 19.8125 42.84375 
Q 14.984375 37.3125 14.984375 27.296875 
Q 14.984375 17.28125 19.8125 11.734375 
Q 24.65625 6.203125 33.40625 6.203125 
Q 37.3125 6.203125 41.140625 7.25 
Q 44.96875 8.296875 48.78125 10.40625 
L 48.78125 2.09375 
Q 45.015625 0.34375 40.984375 -0.53125 
Q 36.96875 -1.421875 32.421875 -1.421875 
Q 20.0625 -1.421875 12.78125 6.34375 
Q 5.515625 14.109375 5.515625 27.296875 
Q 5.515625 40.671875 12.859375 48.328125 
Q 20.21875 56 33.015625 56 
Q 37.15625 56 41.109375 55.140625 
Q 45.0625 54.296875 48.78125 52.59375 
z
" id="DejaVuSans-63"/>
     <path d="M 56.203125 29.59375 
L 56.203125 25.203125 
L 14.890625 25.203125 
Q 15.484375 15.921875 20.484375 11.0625 
Q 25.484375 6.203125 34.421875 6.203125 
Q 39.59375 6.203125 44.453125 7.46875 
Q 49.3125 8.734375 54.109375 11.28125 
L 54.109375 2.78125 
Q 49.265625 0.734375 44.1875 -0.34375 
Q 39.109375 -1.421875 33.890625 -1.421875 
Q 20.796875 -1.421875 13.15625 6.1875 
Q 5.515625 13.8125 5.515625 26.8125 
Q 5.515625 40.234375 12.765625 48.109375 
Q 20.015625 56 32.328125 56 
Q 43.359375 56 49.78125 48.890625 
Q 56.203125 41.796875 56.203125 29.59375 
z
M 47.21875 32.234375 
Q 47.125 39.59375 43.09375 43.984375 
Q 39.0625 48.390625 32.421875 48.390625 
Q 24.90625 48.390625 20.390625 44.140625 
Q 15.875 39.890625 15.1875 32.171875 
z
" id="DejaVuSans-65"/>
     <path d="M 41.109375 46.296875 
Q 39.59375 47.171875 37.8125 47.578125 
Q 36.03125 48 33.890625 48 
Q 26.265625 48 22.1875 43.046875 
Q 18.109375 38.09375 18.109375 28.8125 
L 18.109375 0 
L 9.078125 0 
L 9.078125 54.6875 
L 18.109375 54.6875 
L 18.109375 46.1875 
Q 20.953125 51.171875 25.484375 53.578125 
Q 30.03125 56 36.53125 56 
Q 37.453125 56 38.578125 55.875 
Q 39.703125 55.765625 41.0625 55.515625 
z
" id="DejaVuSans-72"/>
     <path d="M 18.3125 70.21875 
L 18.3125 54.6875 
L 36.8125 54.6875 
L 36.8125 47.703125 
L 18.3125 47.703125 
L 18.3125 18.015625 
Q 18.3125 11.328125 20.140625 9.421875 
Q 21.96875 7.515625 27.59375 7.515625 
L 36.8125 7.515625 
L 36.8125 0 
L 27.59375 0 
Q 17.1875 0 13.234375 3.875 
Q 9.28125 7.765625 9.28125 18.015625 
L 9.28125 47.703125 
L 2.6875 47.703125 
L 2.6875 54.6875 
L 9.28125 54.6875 
L 9.28125 70.21875 
z
" id="DejaVuSans-74"/>
     <path d="M 30.609375 48.390625 
Q 23.390625 48.390625 19.1875 42.75 
Q 14.984375 37.109375 14.984375 27.296875 
Q 14.984375 17.484375 19.15625 11.84375 
Q 23.34375 6.203125 30.609375 6.203125 
Q 37.796875 6.203125 41.984375 11.859375 
Q 46.1875 17.53125 46.1875 27.296875 
Q 46.1875 37.015625 41.984375 42.703125 
Q 37.796875 48.390625 30.609375 48.390625 
z
M 30.609375 56 
Q 42.328125 56 49.015625 48.375 
Q 55.71875 40.765625 55.71875 27.296875 
Q 55.71875 13.875 49.015625 6.21875 
Q 42.328125 -1.421875 30.609375 -1.421875 
Q 18.84375 -1.421875 12.171875 6.21875 
Q 5.515625 13.875 5.515625 27.296875 
Q 5.515625 40.765625 12.171875 48.375 
Q 18.84375 56 30.609375 56 
z
" id="DejaVuSans-6f"/>
     <path d="M 54.890625 33.015625 
L 54.890625 0 
L 45.90625 0 
L 45.90625 32.71875 
Q 45.90625 40.484375 42.875 44.328125 
Q 39.84375 48.1875 33.796875 48.1875 
Q 26.515625 48.1875 22.3125 43.546875 
Q 18.109375 38.921875 18.109375 30.90625 
L 18.109375 0 
L 9.078125 0 
L 9.078125 54.6875 
L 18.109375 54.6875 
L 18.109375 46.1875 
Q 21.34375 51.125 25.703125 53.5625 
Q 30.078125 56 35.796875 56 
Q 45.21875 56 50.046875 50.171875 
Q 54.890625 44.34375 54.890625 33.015625 
z
" id="DejaVuSans-6e"/>
     <path d="M 9.421875 75.984375 
L 18.40625 75.984375 
L 18.40625 0 
L 9.421875 0 
z
" id="DejaVuSans-6c"/>
    </defs>
    <g transform="translate(93.50876 240.411988)scale(0.1 -0.1)">
     <use xlink:href="#DejaVuSans-62"/>
     <use x="63.476562" xlink:href="#DejaVuSans-79"/>
     <use x="122.65625" xlink:href="#DejaVuSans-20"/>
     <use x="154.443359" xlink:href="#DejaVuSans-63"/>
     <use x="209.423828" xlink:href="#DejaVuSans-65"/>
     <use x="270.947266" xlink:href="#DejaVuSans-72"/>
     <use x="312.060547" xlink:href="#DejaVuSans-74"/>
     <use x="351.269531" xlink:href="#DejaVuSans-20"/>
     <use x="383.056641" xlink:href="#DejaVuSans-6f"/>
     <use x="444.238281" xlink:href="#DejaVuSans-6e"/>
     <use x="507.617188" xlink:href="#DejaVuSans-6c"/>
     <use x="535.400391" xlink:href="#DejaVuSans-79"/>
    </g>
   </g>
   <g id="text_16">
    <!-- by tls only -->
    <defs>
     <path d="M 44.28125 53.078125 
L 44.28125 44.578125 
Q 40.484375 46.53125 36.375 47.5 
Q 32.28125 48.484375 27.875 48.484375 
Q 21.1875 48.484375 17.84375 46.4375 
Q 14.5 44.390625 14.5 40.28125 
Q 14.5 37.15625 16.890625 35.375 
Q 19.28125 33.59375 26.515625 31.984375 
L 29.59375 31.296875 
Q 39.15625 29.25 43.1875 25.515625 
Q 47.21875 21.78125 47.21875 15.09375 
Q 47.21875 7.46875 41.1875 3.015625 
Q 35.15625 -1.421875 24.609375 -1.421875 
Q 20.21875 -1.421875 15.453125 -0.5625 
Q 10.6875 0.296875 5.421875 2 
L 5.421875 11.28125 
Q 10.40625 8.6875 15.234375 7.390625 
Q 20.0625 6.109375 24.8125 6.109375 
Q 31.15625 6.109375 34.5625 8.28125 
Q 37.984375 10.453125 37.984375 14.40625 
Q 37.984375 18.0625 35.515625 20.015625 
Q 33.0625 21.96875 24.703125 23.78125 
L 21.578125 24.515625 
Q 13.234375 26.265625 9.515625 29.90625 
Q 5.8125 33.546875 5.8125 39.890625 
Q 5.8125 47.609375 11.28125 51.796875 
Q 16.75 56 26.8125 56 
Q 31.78125 56 36.171875 55.265625 
Q 40.578125 54.546875 44.28125 53.078125 
z
" id="DejaVuSans-73"/>
    </defs>
    <g transform="translate(93.50876 85.916362)scale(0.1 -0.1)">
     <use xlink:href="#DejaVuSans-62"/>
     <use x="63.476562" xlink:href="#DejaVuSans-79"/>
     <use x="122.65625" xlink:href="#DejaVuSans-20"/>
     <use x="154.443359" xlink:href="#DejaVuSans-74"/>
     <use x="193.652344" xlink:href="#DejaVuSans-6c"/>
     <use x="221.435547" xlink:href="#DejaVuSans-73"/>
     <use x="273.535156" xlink:href="#DejaVuSans-20"/>
     <use x="305.322266" xlink:href="#DejaVuSans-6f"/>
     <use x="366.503906" xlink:href="#DejaVuSans-6e"/>
     <use x="429.882812" xlink:href="#DejaVuSans-6c"/>
     <use x="457.666016" xlink:href="#DejaVuSans-79"/>
    </g>
   </g>
   <g id="text_17">
    <!-- Certificates with SCTs by deliver way -->
    <defs>
     <path d="M 64.40625 67.28125 
L 64.40625 56.890625 
Q 59.421875 61.53125 53.78125 63.8125 
Q 48.140625 66.109375 41.796875 66.109375 
Q 29.296875 66.109375 22.65625 58.46875 
Q 16.015625 50.828125 16.015625 36.375 
Q 16.015625 21.96875 22.65625 14.328125 
Q 29.296875 6.6875 41.796875 6.6875 
Q 48.140625 6.6875 53.78125 8.984375 
Q 59.421875 11.28125 64.40625 15.921875 
L 64.40625 5.609375 
Q 59.234375 2.09375 53.4375 0.328125 
Q 47.65625 -1.421875 41.21875 -1.421875 
Q 24.65625 -1.421875 15.125 8.703125 
Q 5.609375 18.84375 5.609375 36.375 
Q 5.609375 53.953125 15.125 64.078125 
Q 24.65625 74.21875 41.21875 74.21875 
Q 47.75 74.21875 53.53125 72.484375 
Q 59.328125 70.75 64.40625 67.28125 
z
" id="DejaVuSans-43"/>
     <path d="M 9.421875 54.6875 
L 18.40625 54.6875 
L 18.40625 0 
L 9.421875 0 
z
M 9.421875 75.984375 
L 18.40625 75.984375 
L 18.40625 64.59375 
L 9.421875 64.59375 
z
" id="DejaVuSans-69"/>
     <path d="M 37.109375 75.984375 
L 37.109375 68.5 
L 28.515625 68.5 
Q 23.6875 68.5 21.796875 66.546875 
Q 19.921875 64.59375 19.921875 59.515625 
L 19.921875 54.6875 
L 34.71875 54.6875 
L 34.71875 47.703125 
L 19.921875 47.703125 
L 19.921875 0 
L 10.890625 0 
L 10.890625 47.703125 
L 2.296875 47.703125 
L 2.296875 54.6875 
L 10.890625 54.6875 
L 10.890625 58.5 
Q 10.890625 67.625 15.140625 71.796875 
Q 19.390625 75.984375 28.609375 75.984375 
z
" id="DejaVuSans-66"/>
     <path d="M 34.28125 27.484375 
Q 23.390625 27.484375 19.1875 25 
Q 14.984375 22.515625 14.984375 16.5 
Q 14.984375 11.71875 18.140625 8.90625 
Q 21.296875 6.109375 26.703125 6.109375 
Q 34.1875 6.109375 38.703125 11.40625 
Q 43.21875 16.703125 43.21875 25.484375 
L 43.21875 27.484375 
z
M 52.203125 31.203125 
L 52.203125 0 
L 43.21875 0 
L 43.21875 8.296875 
Q 40.140625 3.328125 35.546875 0.953125 
Q 30.953125 -1.421875 24.3125 -1.421875 
Q 15.921875 -1.421875 10.953125 3.296875 
Q 6 8.015625 6 15.921875 
Q 6 25.140625 12.171875 29.828125 
Q 18.359375 34.515625 30.609375 34.515625 
L 43.21875 34.515625 
L 43.21875 35.40625 
Q 43.21875 41.609375 39.140625 45 
Q 35.0625 48.390625 27.6875 48.390625 
Q 23 48.390625 18.546875 47.265625 
Q 14.109375 46.140625 10.015625 43.890625 
L 10.015625 52.203125 
Q 14.9375 54.109375 19.578125 55.046875 
Q 24.21875 56 28.609375 56 
Q 40.484375 56 46.34375 49.84375 
Q 52.203125 43.703125 52.203125 31.203125 
z
" id="DejaVuSans-61"/>
     <path d="M 4.203125 54.6875 
L 13.1875 54.6875 
L 24.421875 12.015625 
L 35.59375 54.6875 
L 46.1875 54.6875 
L 57.421875 12.015625 
L 68.609375 54.6875 
L 77.59375 54.6875 
L 63.28125 0 
L 52.6875 0 
L 40.921875 44.828125 
L 29.109375 0 
L 18.5 0 
z
" id="DejaVuSans-77"/>
     <path d="M 54.890625 33.015625 
L 54.890625 0 
L 45.90625 0 
L 45.90625 32.71875 
Q 45.90625 40.484375 42.875 44.328125 
Q 39.84375 48.1875 33.796875 48.1875 
Q 26.515625 48.1875 22.3125 43.546875 
Q 18.109375 38.921875 18.109375 30.90625 
L 18.109375 0 
L 9.078125 0 
L 9.078125 75.984375 
L 18.109375 75.984375 
L 18.109375 46.1875 
Q 21.34375 51.125 25.703125 53.5625 
Q 30.078125 56 35.796875 56 
Q 45.21875 56 50.046875 50.171875 
Q 54.890625 44.34375 54.890625 33.015625 
z
" id="DejaVuSans-68"/>
     <path d="M 53.515625 70.515625 
L 53.515625 60.890625 
Q 47.90625 63.578125 42.921875 64.890625 
Q 37.9375 66.21875 33.296875 66.21875 
Q 25.25 66.21875 20.875 63.09375 
Q 16.5 59.96875 16.5 54.203125 
Q 16.5 49.359375 19.40625 46.890625 
Q 22.3125 44.4375 30.421875 42.921875 
L 36.375 41.703125 
Q 47.40625 39.59375 52.65625 34.296875 
Q 57.90625 29 57.90625 20.125 
Q 57.90625 9.515625 50.796875 4.046875 
Q 43.703125 -1.421875 29.984375 -1.421875 
Q 24.8125 -1.421875 18.96875 -0.25 
Q 13.140625 0.921875 6.890625 3.21875 
L 6.890625 13.375 
Q 12.890625 10.015625 18.65625 8.296875 
Q 24.421875 6.59375 29.984375 6.59375 
Q 38.421875 6.59375 43.015625 9.90625 
Q 47.609375 13.234375 47.609375 19.390625 
Q 47.609375 24.75 44.3125 27.78125 
Q 41.015625 30.8125 33.5 32.328125 
L 27.484375 33.5 
Q 16.453125 35.6875 11.515625 40.375 
Q 6.59375 45.0625 6.59375 53.421875 
Q 6.59375 63.09375 13.40625 68.65625 
Q 20.21875 74.21875 32.171875 74.21875 
Q 37.3125 74.21875 42.625 73.28125 
Q 47.953125 72.359375 53.515625 70.515625 
z
" id="DejaVuSans-53"/>
     <path d="M -0.296875 72.90625 
L 61.375 72.90625 
L 61.375 64.59375 
L 35.5 64.59375 
L 35.5 0 
L 25.59375 0 
L 25.59375 64.59375 
L -0.296875 64.59375 
z
" id="DejaVuSans-54"/>
     <path d="M 45.40625 46.390625 
L 45.40625 75.984375 
L 54.390625 75.984375 
L 54.390625 0 
L 45.40625 0 
L 45.40625 8.203125 
Q 42.578125 3.328125 38.25 0.953125 
Q 33.9375 -1.421875 27.875 -1.421875 
Q 17.96875 -1.421875 11.734375 6.484375 
Q 5.515625 14.40625 5.515625 27.296875 
Q 5.515625 40.1875 11.734375 48.09375 
Q 17.96875 56 27.875 56 
Q 33.9375 56 38.25 53.625 
Q 42.578125 51.265625 45.40625 46.390625 
z
M 14.796875 27.296875 
Q 14.796875 17.390625 18.875 11.75 
Q 22.953125 6.109375 30.078125 6.109375 
Q 37.203125 6.109375 41.296875 11.75 
Q 45.40625 17.390625 45.40625 27.296875 
Q 45.40625 37.203125 41.296875 42.84375 
Q 37.203125 48.484375 30.078125 48.484375 
Q 22.953125 48.484375 18.875 42.84375 
Q 14.796875 37.203125 14.796875 27.296875 
z
" id="DejaVuSans-64"/>
     <path d="M 2.984375 54.6875 
L 12.5 54.6875 
L 29.59375 8.796875 
L 46.6875 54.6875 
L 56.203125 54.6875 
L 35.6875 0 
L 23.484375 0 
z
" id="DejaVuSans-76"/>
    </defs>
    <g transform="translate(124.791562 35.472)scale(0.12 -0.12)">
     <use xlink:href="#DejaVuSans-43"/>
     <use x="69.824219" xlink:href="#DejaVuSans-65"/>
     <use x="131.347656" xlink:href="#DejaVuSans-72"/>
     <use x="172.460938" xlink:href="#DejaVuSans-74"/>
     <use x="211.669922" xlink:href="#DejaVuSans-69"/>
     <use x="239.453125" xlink:href="#DejaVuSans-66"/>
     <use x="274.658203" xlink:href="#DejaVuSans-69"/>
     <use x="302.441406" xlink:href="#DejaVuSans-63"/>
     <use x="357.421875" xlink:href="#DejaVuSans-61"/>
     <use x="418.701172" xlink:href="#DejaVuSans-74"/>
     <use x="457.910156" xlink:href="#DejaVuSans-65"/>
     <use x="519.433594" xlink:href="#DejaVuSans-73"/>
     <use x="571.533203" xlink:href="#DejaVuSans-20"/>
     <use x="603.320312" xlink:href="#DejaVuSans-77"/>
     <use x="685.107422" xlink:href="#DejaVuSans-69"/>
     <use x="712.890625" xlink:href="#DejaVuSans-74"/>
     <use x="752.099609" xlink:href="#DejaVuSans-68"/>
     <use x="815.478516" xlink:href="#DejaVuSans-20"/>
     <use x="847.265625" xlink:href="#DejaVuSans-53"/>
     <use x="910.742188" xlink:href="#DejaVuSans-43"/>
     <use x="980.566406" xlink:href="#DejaVuSans-54"/>
     <use x="1041.400391" xlink:href="#DejaVuSans-73"/>
     <use x="1093.5" xlink:href="#DejaVuSans-20"/>
     <use x="1125.287109" xlink:href="#DejaVuSans-62"/>
     <use x="1188.763672" xlink:href="#DejaVuSans-79"/>
     <use x="1247.943359" xlink:href="#DejaVuSans-20"/>
     <use x="1279.730469" xlink:href="#DejaVuSans-64"/>
     <use x="1343.207031" xlink:href="#DejaVuSans-65"/>
     <use x="1404.730469" xlink:href="#DejaVuSans-6c"/>
     <use x="1432.513672" xlink:href="#DejaVuSans-69"/>
     <use x="1460.296875" xlink:href="#DejaVuSans-76"/>
     <use x="1519.476562" xlink:href="#DejaVuSans-65"/>
     <use x="1581" xlink:href="#DejaVuSans-72"/>
     <use x="1622.113281" xlink:href="#DejaVuSans-20"/>
     <use x="1653.900391" xlink:href="#DejaVuSans-77"/>
     <use x="1735.6875" xlink:href="#DejaVuSans-61"/>
     <use x="1796.966797" xlink:href="#DejaVuSans-79"/>
    </g>
   </g>
  </g>
 </g>
 <defs>
  <clipPath id="p1e483828ec">
   <rect height="266.112" width="357.12" x="57.6" y="41.472"/>
  </clipPath>
 </defs>
</svg>
