<?xml version="1.0" encoding="utf-8" standalone="no"?>
<!DOCTYPE svg PUBLIC "-//W3C//DTD SVG 1.1//EN"
  "http://www.w3.org/Graphics/SVG/1.1/DTD/svg11.dtd">
<!-- Created with matplotlib (http://matplotlib.org/) -->
<svg height="345pt" version="1.1" viewBox="0 0 460 345" width="460pt" xmlns="http://www.w3.org/2000/svg" xmlns:xlink="http://www.w3.org/1999/xlink">
 <defs>
  <style type="text/css">
*{stroke-linecap:butt;stroke-linejoin:round;}
  </style>
 </defs>
 <g id="figure_1">
  <g id="patch_1">
   <path d="M 0 345.6 
L 460.8 345.6 
L 460.8 0 
L 0 0 
z
" style="fill:#ffffff;"/>
  </g>
  <g id="axes_1">
   <g id="patch_2">
    <path d="M 57.6 307.584 
L 414.72 307.584 
L 414.72 41.472 
L 57.6 41.472 
z
" style="fill:#ffffff;"/>
   </g>
   <g id="PolyCollection_1">
    <path clip-path="url(#p77f93a6e63)" d="M 73.832727 150.818944 
L 73.832727 307.584 
L 77.112066 307.584 
L 80.391405 307.584 
L 83.670744 307.584 
L 86.950083 307.584 
L 90.229421 307.584 
L 93.50876 307.584 
L 96.788099 307.584 
L 100.067438 307.584 
L 103.346777 307.584 
L 106.626116 307.584 
L 109.905455 307.584 
L 113.184793 307.584 
L 116.464132 307.584 
L 119.743471 307.584 
L 123.02281 307.584 
L 126.302149 307.584 
L 129.581488 307.584 
L 132.860826 307.584 
L 136.140165 307.584 
L 139.419504 307.584 
L 142.698843 307.584 
L 145.978182 307.584 
L 149.257521 307.584 
L 152.53686 307.584 
L 155.816198 307.584 
L 159.095537 307.584 
L 162.374876 307.584 
L 165.654215 307.584 
L 168.933554 307.584 
L 172.212893 307.584 
L 175.492231 307.584 
L 178.77157 307.584 
L 182.050909 307.584 
L 185.330248 307.584 
L 188.609587 307.584 
L 191.888926 307.584 
L 195.168264 307.584 
L 198.447603 307.584 
L 201.726942 307.584 
L 205.006281 307.584 
L 208.28562 307.584 
L 211.564959 307.584 
L 214.844298 307.584 
L 218.123636 307.584 
L 221.402975 307.584 
L 224.682314 307.584 
L 227.961653 307.584 
L 231.240992 307.584 
L 234.520331 307.584 
L 237.799669 307.584 
L 241.079008 307.584 
L 244.358347 307.584 
L 247.637686 307.584 
L 250.917025 307.584 
L 254.196364 307.584 
L 257.475702 307.584 
L 260.755041 307.584 
L 264.03438 307.584 
L 267.313719 307.584 
L 270.593058 307.584 
L 273.872397 307.584 
L 277.151736 307.584 
L 280.431074 307.584 
L 283.710413 307.584 
L 286.989752 307.584 
L 290.269091 307.584 
L 293.54843 307.584 
L 296.827769 307.584 
L 300.107107 307.584 
L 303.386446 307.584 
L 306.665785 307.584 
L 309.945124 307.584 
L 313.224463 307.584 
L 316.503802 307.584 
L 319.78314 307.584 
L 323.062479 307.584 
L 326.341818 307.584 
L 329.621157 307.584 
L 332.900496 307.584 
L 336.179835 307.584 
L 339.459174 307.584 
L 342.738512 307.584 
L 346.017851 307.584 
L 349.29719 307.584 
L 352.576529 307.584 
L 355.855868 307.584 
L 359.135207 307.584 
L 362.414545 307.584 
L 365.693884 307.584 
L 368.973223 307.584 
L 372.252562 307.584 
L 375.531901 307.584 
L 378.81124 307.584 
L 382.090579 307.584 
L 385.369917 307.584 
L 388.649256 307.584 
L 391.928595 307.584 
L 395.207934 307.584 
L 398.487273 307.584 
L 398.487273 153.935679 
L 398.487273 153.935679 
L 395.207934 154.482375 
L 391.928595 153.922689 
L 388.649256 154.730667 
L 385.369917 154.168458 
L 382.090579 155.146849 
L 378.81124 153.671415 
L 375.531901 153.841659 
L 372.252562 152.899111 
L 368.973223 153.6647 
L 365.693884 154.008754 
L 362.414545 153.605344 
L 359.135207 154.136583 
L 355.855868 154.079123 
L 352.576529 154.164651 
L 349.29719 153.842433 
L 346.017851 154.472727 
L 342.738512 154.236892 
L 339.459174 153.147238 
L 336.179835 153.216 
L 332.900496 153.331313 
L 329.621157 152.521726 
L 326.341818 152.587636 
L 323.062479 153.059915 
L 319.78314 152.993951 
L 316.503802 153.043717 
L 313.224463 153.869933 
L 309.945124 153.803746 
L 306.665785 153.413964 
L 303.386446 153.579311 
L 300.107107 153.050203 
L 296.827769 154.487779 
L 293.54843 153.369849 
L 290.269091 153.612653 
L 286.989752 153.005025 
L 283.710413 153.494557 
L 280.431074 152.737013 
L 277.151736 154.527309 
L 273.872397 153.742002 
L 270.593058 152.00697 
L 267.313719 152.837178 
L 264.03438 153.794101 
L 260.755041 153.45497 
L 257.475702 152.483617 
L 254.196364 152.579197 
L 250.917025 152.963779 
L 247.637686 152.863178 
L 244.358347 152.915272 
L 241.079008 153.383195 
L 237.799669 152.253039 
L 234.520331 153.366034 
L 231.240992 152.203218 
L 227.961653 153.31834 
L 224.682314 152.335687 
L 221.402975 153.256872 
L 218.123636 152.640433 
L 214.844298 152.399844 
L 211.564959 152.96966 
L 208.28562 152.076229 
L 205.006281 152.722691 
L 201.726942 153.111995 
L 198.447603 152.760676 
L 195.168264 152.833536 
L 191.888926 152.352 
L 188.609587 152.119526 
L 185.330248 151.930611 
L 182.050909 152.060582 
L 178.77157 153.158727 
L 175.492231 153.130033 
L 172.212893 152.27549 
L 168.933554 151.919663 
L 165.654215 151.95788 
L 162.374876 153.168728 
L 159.095537 153.368151 
L 155.816198 153.123111 
L 152.53686 151.857442 
L 149.257521 152.602705 
L 145.978182 152.509847 
L 142.698843 150.759982 
L 139.419504 151.111575 
L 136.140165 151.076688 
L 132.860826 151.266527 
L 129.581488 152.664957 
L 126.302149 151.010329 
L 123.02281 150.776609 
L 119.743471 151.864574 
L 116.464132 151.978667 
L 113.184793 149.569633 
L 109.905455 151.724943 
L 106.626116 150.950848 
L 103.346777 151.086891 
L 100.067438 151.33145 
L 96.788099 150.906274 
L 93.50876 151.971286 
L 90.229421 150.196942 
L 86.950083 150.643462 
L 83.670744 150.295655 
L 80.391405 149.956683 
L 77.112066 149.72861 
L 73.832727 150.818944 
z
" style="fill:#4086f4;"/>
   </g>
   <g id="PolyCollection_2">
    <path clip-path="url(#p77f93a6e63)" d="M 73.832727 90.254935 
L 73.832727 150.818944 
L 77.112066 149.72861 
L 80.391405 149.956683 
L 83.670744 150.295655 
L 86.950083 150.643462 
L 90.229421 150.196942 
L 93.50876 151.971286 
L 96.788099 150.906274 
L 100.067438 151.33145 
L 103.346777 151.086891 
L 106.626116 150.950848 
L 109.905455 151.724943 
L 113.184793 149.569633 
L 116.464132 151.978667 
L 119.743471 151.864574 
L 123.02281 150.776609 
L 126.302149 151.010329 
L 129.581488 152.664957 
L 132.860826 151.266527 
L 136.140165 151.076688 
L 139.419504 151.111575 
L 142.698843 150.759982 
L 145.978182 152.509847 
L 149.257521 152.602705 
L 152.53686 151.857442 
L 155.816198 153.123111 
L 159.095537 153.368151 
L 162.374876 153.168728 
L 165.654215 151.95788 
L 168.933554 151.919663 
L 172.212893 152.27549 
L 175.492231 153.130033 
L 178.77157 153.158727 
L 182.050909 152.060582 
L 185.330248 151.930611 
L 188.609587 152.119526 
L 191.888926 152.352 
L 195.168264 152.833536 
L 198.447603 152.760676 
L 201.726942 153.111995 
L 205.006281 152.722691 
L 208.28562 152.076229 
L 211.564959 152.96966 
L 214.844298 152.399844 
L 218.123636 152.640433 
L 221.402975 153.256872 
L 224.682314 152.335687 
L 227.961653 153.31834 
L 231.240992 152.203218 
L 234.520331 153.366034 
L 237.799669 152.253039 
L 241.079008 153.383195 
L 244.358347 152.915272 
L 247.637686 152.863178 
L 250.917025 152.963779 
L 254.196364 152.579197 
L 257.475702 152.483617 
L 260.755041 153.45497 
L 264.03438 153.794101 
L 267.313719 152.837178 
L 270.593058 152.00697 
L 273.872397 153.742002 
L 277.151736 154.527309 
L 280.431074 152.737013 
L 283.710413 153.494557 
L 286.989752 153.005025 
L 290.269091 153.612653 
L 293.54843 153.369849 
L 296.827769 154.487779 
L 300.107107 153.050203 
L 303.386446 153.579311 
L 306.665785 153.413964 
L 309.945124 153.803746 
L 313.224463 153.869933 
L 316.503802 153.043717 
L 319.78314 152.993951 
L 323.062479 153.059915 
L 326.341818 152.587636 
L 329.621157 152.521726 
L 332.900496 153.331313 
L 336.179835 153.216 
L 339.459174 153.147238 
L 342.738512 154.236892 
L 346.017851 154.472727 
L 349.29719 153.842433 
L 352.576529 154.164651 
L 355.855868 154.079123 
L 359.135207 154.136583 
L 362.414545 153.605344 
L 365.693884 154.008754 
L 368.973223 153.6647 
L 372.252562 152.899111 
L 375.531901 153.841659 
L 378.81124 153.671415 
L 382.090579 155.146849 
L 385.369917 154.168458 
L 388.649256 154.730667 
L 391.928595 153.922689 
L 395.207934 154.482375 
L 398.487273 153.935679 
L 398.487273 87.167844 
L 398.487273 87.167844 
L 395.207934 86.206624 
L 391.928595 87.687529 
L 388.649256 85.344 
L 385.369917 86.07548 
L 382.090579 85.60969 
L 378.81124 87.183629 
L 375.531901 86.391364 
L 372.252562 85.594672 
L 368.973223 84.746363 
L 365.693884 86.615362 
L 362.414545 85.836596 
L 359.135207 87.457907 
L 355.855868 86.615196 
L 352.576529 84.766726 
L 349.29719 84.616258 
L 346.017851 85.876364 
L 342.738512 85.491487 
L 339.459174 86.678816 
L 336.179835 86.347636 
L 332.900496 86.576361 
L 329.621157 86.499117 
L 326.341818 87.605641 
L 323.062479 86.432615 
L 319.78314 85.876191 
L 316.503802 85.476562 
L 313.224463 85.598405 
L 309.945124 85.884947 
L 306.665785 85.223371 
L 303.386446 85.905279 
L 300.107107 86.388566 
L 296.827769 86.05352 
L 293.54843 87.733673 
L 290.269091 86.262542 
L 286.989752 85.939014 
L 283.710413 85.824 
L 280.431074 86.034457 
L 277.151736 85.798676 
L 273.872397 85.635653 
L 270.593058 86.355307 
L 267.313719 86.480679 
L 264.03438 85.169083 
L 260.755041 85.269086 
L 257.475702 86.956522 
L 254.196364 86.819584 
L 250.917025 88.019129 
L 247.637686 86.75519 
L 244.358347 85.60911 
L 241.079008 86.833933 
L 237.799669 87.114249 
L 234.520331 84.708375 
L 231.240992 85.120553 
L 227.961653 87.268528 
L 224.682314 85.67392 
L 221.402975 85.969234 
L 218.123636 85.323413 
L 214.844298 86.314552 
L 211.564959 86.371925 
L 208.28562 86.771771 
L 205.006281 86.490884 
L 201.726942 86.71701 
L 198.447603 85.186392 
L 195.168264 86.533632 
L 191.888926 85.974857 
L 188.609587 87.899436 
L 185.330248 85.429895 
L 182.050909 86.983407 
L 178.77157 85.098504 
L 175.492231 87.358895 
L 172.212893 86.141235 
L 168.933554 86.720658 
L 165.654215 86.15494 
L 162.374876 86.157474 
L 159.095537 85.943547 
L 155.816198 86.850556 
L 152.53686 87.423543 
L 149.257521 85.981786 
L 145.978182 88.066471 
L 142.698843 88.118851 
L 139.419504 86.185073 
L 136.140165 88.032137 
L 132.860826 88.115943 
L 129.581488 86.252256 
L 126.302149 87.508584 
L 123.02281 88.148348 
L 119.743471 86.289489 
L 116.464132 86.741333 
L 113.184793 88.079688 
L 109.905455 87.034492 
L 106.626116 87.796296 
L 103.346777 88.145109 
L 100.067438 89.15766 
L 96.788099 88.432015 
L 93.50876 88.086504 
L 90.229421 89.048688 
L 86.950083 88.913272 
L 83.670744 90.344732 
L 80.391405 92.534141 
L 77.112066 92.200012 
L 73.832727 90.254935 
z
" style="fill:#fcba2f;"/>
   </g>
   <g id="PolyCollection_3">
    <path clip-path="url(#p77f93a6e63)" d="M 73.832727 77.554501 
L 73.832727 90.254935 
L 77.112066 92.200012 
L 80.391405 92.534141 
L 83.670744 90.344732 
L 86.950083 88.913272 
L 90.229421 89.048688 
L 93.50876 88.086504 
L 96.788099 88.432015 
L 100.067438 89.15766 
L 103.346777 88.145109 
L 106.626116 87.796296 
L 109.905455 87.034492 
L 113.184793 88.079688 
L 116.464132 86.741333 
L 119.743471 86.289489 
L 123.02281 88.148348 
L 126.302149 87.508584 
L 129.581488 86.252256 
L 132.860826 88.115943 
L 136.140165 88.032137 
L 139.419504 86.185073 
L 142.698843 88.118851 
L 145.978182 88.066471 
L 149.257521 85.981786 
L 152.53686 87.423543 
L 155.816198 86.850556 
L 159.095537 85.943547 
L 162.374876 86.157474 
L 165.654215 86.15494 
L 168.933554 86.720658 
L 172.212893 86.141235 
L 175.492231 87.358895 
L 178.77157 85.098504 
L 182.050909 86.983407 
L 185.330248 85.429895 
L 188.609587 87.899436 
L 191.888926 85.974857 
L 195.168264 86.533632 
L 198.447603 85.186392 
L 201.726942 86.71701 
L 205.006281 86.490884 
L 208.28562 86.771771 
L 211.564959 86.371925 
L 214.844298 86.314552 
L 218.123636 85.323413 
L 221.402975 85.969234 
L 224.682314 85.67392 
L 227.961653 87.268528 
L 231.240992 85.120553 
L 234.520331 84.708375 
L 237.799669 87.114249 
L 241.079008 86.833933 
L 244.358347 85.60911 
L 247.637686 86.75519 
L 250.917025 88.019129 
L 254.196364 86.819584 
L 257.475702 86.956522 
L 260.755041 85.269086 
L 264.03438 85.169083 
L 267.313719 86.480679 
L 270.593058 86.355307 
L 273.872397 85.635653 
L 277.151736 85.798676 
L 280.431074 86.034457 
L 283.710413 85.824 
L 286.989752 85.939014 
L 290.269091 86.262542 
L 293.54843 87.733673 
L 296.827769 86.05352 
L 300.107107 86.388566 
L 303.386446 85.905279 
L 306.665785 85.223371 
L 309.945124 85.884947 
L 313.224463 85.598405 
L 316.503802 85.476562 
L 319.78314 85.876191 
L 323.062479 86.432615 
L 326.341818 87.605641 
L 329.621157 86.499117 
L 332.900496 86.576361 
L 336.179835 86.347636 
L 339.459174 86.678816 
L 342.738512 85.491487 
L 346.017851 85.876364 
L 349.29719 84.616258 
L 352.576529 84.766726 
L 355.855868 86.615196 
L 359.135207 87.457907 
L 362.414545 85.836596 
L 365.693884 86.615362 
L 368.973223 84.746363 
L 372.252562 85.594672 
L 375.531901 86.391364 
L 378.81124 87.183629 
L 382.090579 85.60969 
L 385.369917 86.07548 
L 388.649256 85.344 
L 391.928595 87.687529 
L 395.207934 86.206624 
L 398.487273 87.167844 
L 398.487273 59.596535 
L 398.487273 59.596535 
L 395.207934 60.058465 
L 391.928595 59.628101 
L 388.649256 60.384 
L 385.369917 60.385856 
L 382.090579 60.548075 
L 378.81124 60.578302 
L 375.531901 61.110697 
L 372.252562 59.176108 
L 368.973223 59.891396 
L 365.693884 60.270672 
L 362.414545 59.384111 
L 359.135207 61.111947 
L 355.855868 60.782327 
L 352.576529 59.035484 
L 349.29719 59.824369 
L 346.017851 61.160727 
L 342.738512 59.829318 
L 339.459174 61.034335 
L 336.179835 62.208 
L 332.900496 61.257233 
L 329.621157 61.008736 
L 326.341818 61.193933 
L 323.062479 61.473003 
L 319.78314 61.24199 
L 316.503802 61.471777 
L 313.224463 60.950527 
L 309.945124 60.384923 
L 306.665785 61.198199 
L 303.386446 61.196504 
L 300.107107 61.576258 
L 296.827769 61.786405 
L 293.54843 62.271364 
L 290.269091 61.85245 
L 286.989752 62.987308 
L 283.710413 61.41482 
L 280.431074 61.67094 
L 277.151736 62.045007 
L 273.872397 62.02947 
L 270.593058 61.876762 
L 267.313719 63.120744 
L 264.03438 62.465297 
L 260.755041 62.224551 
L 257.475702 62.567513 
L 254.196364 63.640342 
L 250.917025 64.794923 
L 247.637686 62.322845 
L 244.358347 64.041965 
L 241.079008 63.073933 
L 237.799669 63.714391 
L 234.520331 62.520534 
L 231.240992 62.958871 
L 227.961653 64.205887 
L 224.682314 64.166756 
L 221.402975 63.69157 
L 218.123636 63.297589 
L 214.844298 63.349429 
L 211.564959 64.504755 
L 208.28562 64.025274 
L 205.006281 63.997063 
L 201.726942 64.585348 
L 198.447603 62.839756 
L 195.168264 64.332288 
L 191.888926 63.849143 
L 188.609587 65.16313 
L 185.330248 64.2816 
L 182.050909 65.675395 
L 178.77157 64.412561 
L 175.492231 66.234975 
L 172.212893 65.489832 
L 168.933554 65.56639 
L 165.654215 66.226325 
L 162.374876 66.216878 
L 159.095537 66.38563 
L 155.816198 66.36718 
L 152.53686 66.804696 
L 149.257521 66.626656 
L 145.978182 67.936653 
L 142.698843 68.521378 
L 139.419504 68.586925 
L 136.140165 67.978651 
L 132.860826 69.594253 
L 129.581488 67.277199 
L 126.302149 69.49607 
L 123.02281 71.232261 
L 119.743471 68.868432 
L 116.464132 69.717333 
L 113.184793 70.794885 
L 109.905455 70.589246 
L 106.626116 71.155051 
L 103.346777 72.127366 
L 100.067438 72.018964 
L 96.788099 72.095016 
L 93.50876 73.551032 
L 90.229421 74.551533 
L 86.950083 75.101326 
L 83.670744 75.348282 
L 80.391405 78.349309 
L 77.112066 78.625516 
L 73.832727 77.554501 
z
" style="fill:#1974bb;"/>
   </g>
   <g id="PolyCollection_4">
    <path clip-path="url(#p77f93a6e63)" d="M 73.832727 54.262474 
L 73.832727 77.554501 
L 77.112066 78.625516 
L 80.391405 78.349309 
L 83.670744 75.348282 
L 86.950083 75.101326 
L 90.229421 74.551533 
L 93.50876 73.551032 
L 96.788099 72.095016 
L 100.067438 72.018964 
L 103.346777 72.127366 
L 106.626116 71.155051 
L 109.905455 70.589246 
L 113.184793 70.794885 
L 116.464132 69.717333 
L 119.743471 68.868432 
L 123.02281 71.232261 
L 126.302149 69.49607 
L 129.581488 67.277199 
L 132.860826 69.594253 
L 136.140165 67.978651 
L 139.419504 68.586925 
L 142.698843 68.521378 
L 145.978182 67.936653 
L 149.257521 66.626656 
L 152.53686 66.804696 
L 155.816198 66.36718 
L 159.095537 66.38563 
L 162.374876 66.216878 
L 165.654215 66.226325 
L 168.933554 65.56639 
L 172.212893 65.489832 
L 175.492231 66.234975 
L 178.77157 64.412561 
L 182.050909 65.675395 
L 185.330248 64.2816 
L 188.609587 65.16313 
L 191.888926 63.849143 
L 195.168264 64.332288 
L 198.447603 62.839756 
L 201.726942 64.585348 
L 205.006281 63.997063 
L 208.28562 64.025274 
L 211.564959 64.504755 
L 214.844298 63.349429 
L 218.123636 63.297589 
L 221.402975 63.69157 
L 224.682314 64.166756 
L 227.961653 64.205887 
L 231.240992 62.958871 
L 234.520331 62.520534 
L 237.799669 63.714391 
L 241.079008 63.073933 
L 244.358347 64.041965 
L 247.637686 62.322845 
L 250.917025 64.794923 
L 254.196364 63.640342 
L 257.475702 62.567513 
L 260.755041 62.224551 
L 264.03438 62.465297 
L 267.313719 63.120744 
L 270.593058 61.876762 
L 273.872397 62.02947 
L 277.151736 62.045007 
L 280.431074 61.67094 
L 283.710413 61.41482 
L 286.989752 62.987308 
L 290.269091 61.85245 
L 293.54843 62.271364 
L 296.827769 61.786405 
L 300.107107 61.576258 
L 303.386446 61.196504 
L 306.665785 61.198199 
L 309.945124 60.384923 
L 313.224463 60.950527 
L 316.503802 61.471777 
L 319.78314 61.24199 
L 323.062479 61.473003 
L 326.341818 61.193933 
L 329.621157 61.008736 
L 332.900496 61.257233 
L 336.179835 62.208 
L 339.459174 61.034335 
L 342.738512 59.829318 
L 346.017851 61.160727 
L 349.29719 59.824369 
L 352.576529 59.035484 
L 355.855868 60.782327 
L 359.135207 61.111947 
L 362.414545 59.384111 
L 365.693884 60.270672 
L 368.973223 59.891396 
L 372.252562 59.176108 
L 375.531901 61.110697 
L 378.81124 60.578302 
L 382.090579 60.548075 
L 385.369917 60.385856 
L 388.649256 60.384 
L 391.928595 59.628101 
L 395.207934 60.058465 
L 398.487273 59.596535 
L 398.487273 54.504073 
L 398.487273 54.504073 
L 395.207934 54.610931 
L 391.928595 54.516706 
L 388.649256 54.677333 
L 385.369917 54.659856 
L 382.090579 54.597832 
L 378.81124 54.756791 
L 375.531901 54.619002 
L 372.252562 54.458507 
L 368.973223 54.597742 
L 365.693884 54.552445 
L 362.414545 54.698243 
L 359.135207 54.550887 
L 355.855868 54.761519 
L 352.576529 54.449718 
L 349.29719 54.515613 
L 346.017851 54.981818 
L 342.738512 54.456953 
L 339.459174 54.610263 
L 336.179835 55.243636 
L 332.900496 54.641429 
L 329.621157 54.749712 
L 326.341818 54.654865 
L 323.062479 54.861525 
L 319.78314 54.665911 
L 316.503802 54.800973 
L 313.224463 54.865904 
L 309.945124 54.436543 
L 306.665785 54.604056 
L 303.386446 54.59416 
L 300.107107 54.60137 
L 296.827769 54.541008 
L 293.54843 54.812707 
L 290.269091 54.687545 
L 286.989752 54.501822 
L 283.710413 54.715279 
L 280.431074 54.738232 
L 277.151736 54.701122 
L 273.872397 54.696485 
L 270.593058 54.656103 
L 267.313719 54.705046 
L 264.03438 55.068589 
L 260.755041 54.54304 
L 257.475702 54.535791 
L 254.196364 54.6035 
L 250.917025 54.715513 
L 247.637686 54.404473 
L 244.358347 54.664946 
L 241.079008 54.569235 
L 237.799669 54.544854 
L 234.520331 54.493022 
L 231.240992 54.492611 
L 227.961653 54.741736 
L 224.682314 54.352807 
L 221.402975 54.447097 
L 218.123636 54.573074 
L 214.844298 54.676946 
L 211.564959 54.542491 
L 208.28562 54.731006 
L 205.006281 54.864956 
L 201.726942 54.593627 
L 198.447603 54.435478 
L 195.168264 54.701568 
L 191.888926 54.747429 
L 188.609587 54.443162 
L 185.330248 54.726063 
L 182.050909 54.695501 
L 178.77157 54.441639 
L 175.492231 54.755606 
L 172.212893 54.591862 
L 168.933554 54.555206 
L 165.654215 54.721641 
L 162.374876 54.641384 
L 159.095537 54.57437 
L 155.816198 54.573721 
L 152.53686 54.641384 
L 149.257521 54.471261 
L 145.978182 54.516774 
L 142.698843 54.36519 
L 139.419504 54.499518 
L 136.140165 54.504512 
L 132.860826 54.237074 
L 129.581488 54.407542 
L 126.302149 54.754594 
L 123.02281 54.746609 
L 119.743471 54.400821 
L 116.464132 54.229333 
L 113.184793 54.313045 
L 109.905455 54.536592 
L 106.626116 54.678163 
L 103.346777 54.562218 
L 100.067438 54.389423 
L 96.788099 54.45893 
L 93.50876 54.302425 
L 90.229421 54.552894 
L 86.950083 54.438655 
L 83.670744 54.318377 
L 80.391405 54.241602 
L 77.112066 54.262555 
L 73.832727 54.262474 
z
" style="fill:#2ea039;"/>
   </g>
   <g id="PolyCollection_5">
    <path clip-path="url(#p77f93a6e63)" d="M 73.832727 54.144 
L 73.832727 54.262474 
L 77.112066 54.262555 
L 80.391405 54.241602 
L 83.670744 54.318377 
L 86.950083 54.438655 
L 90.229421 54.552894 
L 93.50876 54.302425 
L 96.788099 54.45893 
L 100.067438 54.389423 
L 103.346777 54.562218 
L 106.626116 54.678163 
L 109.905455 54.536592 
L 113.184793 54.313045 
L 116.464132 54.229333 
L 119.743471 54.400821 
L 123.02281 54.746609 
L 126.302149 54.754594 
L 129.581488 54.407542 
L 132.860826 54.237074 
L 136.140165 54.504512 
L 139.419504 54.499518 
L 142.698843 54.36519 
L 145.978182 54.516774 
L 149.257521 54.471261 
L 152.53686 54.641384 
L 155.816198 54.573721 
L 159.095537 54.57437 
L 162.374876 54.641384 
L 165.654215 54.721641 
L 168.933554 54.555206 
L 172.212893 54.591862 
L 175.492231 54.755606 
L 178.77157 54.441639 
L 182.050909 54.695501 
L 185.330248 54.726063 
L 188.609587 54.443162 
L 191.888926 54.747429 
L 195.168264 54.701568 
L 198.447603 54.435478 
L 201.726942 54.593627 
L 205.006281 54.864956 
L 208.28562 54.731006 
L 211.564959 54.542491 
L 214.844298 54.676946 
L 218.123636 54.573074 
L 221.402975 54.447097 
L 224.682314 54.352807 
L 227.961653 54.741736 
L 231.240992 54.492611 
L 234.520331 54.493022 
L 237.799669 54.544854 
L 241.079008 54.569235 
L 244.358347 54.664946 
L 247.637686 54.404473 
L 250.917025 54.715513 
L 254.196364 54.6035 
L 257.475702 54.535791 
L 260.755041 54.54304 
L 264.03438 55.068589 
L 267.313719 54.705046 
L 270.593058 54.656103 
L 273.872397 54.696485 
L 277.151736 54.701122 
L 280.431074 54.738232 
L 283.710413 54.715279 
L 286.989752 54.501822 
L 290.269091 54.687545 
L 293.54843 54.812707 
L 296.827769 54.541008 
L 300.107107 54.60137 
L 303.386446 54.59416 
L 306.665785 54.604056 
L 309.945124 54.436543 
L 313.224463 54.865904 
L 316.503802 54.800973 
L 319.78314 54.665911 
L 323.062479 54.861525 
L 326.341818 54.654865 
L 329.621157 54.749712 
L 332.900496 54.641429 
L 336.179835 55.243636 
L 339.459174 54.610263 
L 342.738512 54.456953 
L 346.017851 54.981818 
L 349.29719 54.515613 
L 352.576529 54.449718 
L 355.855868 54.761519 
L 359.135207 54.550887 
L 362.414545 54.698243 
L 365.693884 54.552445 
L 368.973223 54.597742 
L 372.252562 54.458507 
L 375.531901 54.619002 
L 378.81124 54.756791 
L 382.090579 54.597832 
L 385.369917 54.659856 
L 388.649256 54.677333 
L 391.928595 54.516706 
L 395.207934 54.610931 
L 398.487273 54.504073 
L 398.487273 54.144 
L 398.487273 54.144 
L 395.207934 54.144 
L 391.928595 54.144 
L 388.649256 54.144 
L 385.369917 54.144 
L 382.090579 54.144 
L 378.81124 54.144 
L 375.531901 54.144 
L 372.252562 54.144 
L 368.973223 54.144 
L 365.693884 54.144 
L 362.414545 54.144 
L 359.135207 54.144 
L 355.855868 54.144 
L 352.576529 54.144 
L 349.29719 54.144 
L 346.017851 54.144 
L 342.738512 54.144 
L 339.459174 54.144 
L 336.179835 54.196364 
L 332.900496 54.144 
L 329.621157 54.144 
L 326.341818 54.144 
L 323.062479 54.144 
L 319.78314 54.144 
L 316.503802 54.144 
L 313.224463 54.144 
L 309.945124 54.144 
L 306.665785 54.144 
L 303.386446 54.144 
L 300.107107 54.144 
L 296.827769 54.144 
L 293.54843 54.144 
L 290.269091 54.144 
L 286.989752 54.144 
L 283.710413 54.144 
L 280.431074 54.144 
L 277.151736 54.144 
L 273.872397 54.144 
L 270.593058 54.144 
L 267.313719 54.144 
L 264.03438 54.195366 
L 260.755041 54.144 
L 257.475702 54.192974 
L 254.196364 54.144 
L 250.917025 54.144 
L 247.637686 54.144 
L 244.358347 54.144 
L 241.079008 54.144 
L 237.799669 54.144 
L 234.520331 54.144 
L 231.240992 54.144 
L 227.961653 54.144 
L 224.682314 54.144 
L 221.402975 54.144 
L 218.123636 54.144 
L 214.844298 54.144 
L 211.564959 54.144 
L 208.28562 54.144 
L 205.006281 54.144 
L 201.726942 54.144 
L 198.447603 54.144 
L 195.168264 54.245376 
L 191.888926 54.144 
L 188.609587 54.144 
L 185.330248 54.192505 
L 182.050909 54.144 
L 178.77157 54.144 
L 175.492231 54.144 
L 172.212893 54.144 
L 168.933554 54.144 
L 165.654215 54.144 
L 162.374876 54.144 
L 159.095537 54.144 
L 155.816198 54.239494 
L 152.53686 54.144 
L 149.257521 54.144 
L 145.978182 54.144 
L 142.698843 54.144 
L 139.419504 54.18844 
L 136.140165 54.144 
L 132.860826 54.144 
L 129.581488 54.144 
L 126.302149 54.231228 
L 123.02281 54.187043 
L 119.743471 54.186804 
L 116.464132 54.144 
L 113.184793 54.144 
L 109.905455 54.144 
L 106.626116 54.185089 
L 103.346777 54.144 
L 100.067438 54.144 
L 96.788099 54.144 
L 93.50876 54.144 
L 90.229421 54.218344 
L 86.950083 54.180832 
L 83.670744 54.144 
L 80.391405 54.144 
L 77.112066 54.144 
L 73.832727 54.144 
z
" style="fill:#4086f4;"/>
   </g>
   <g id="PolyCollection_6">
    <path clip-path="url(#p77f93a6e63)" d="M 73.832727 54.144 
L 73.832727 54.144 
L 77.112066 54.144 
L 80.391405 54.144 
L 83.670744 54.144 
L 86.950083 54.180832 
L 90.229421 54.218344 
L 93.50876 54.144 
L 96.788099 54.144 
L 100.067438 54.144 
L 103.346777 54.144 
L 106.626116 54.185089 
L 109.905455 54.144 
L 113.184793 54.144 
L 116.464132 54.144 
L 119.743471 54.186804 
L 123.02281 54.187043 
L 126.302149 54.231228 
L 129.581488 54.144 
L 132.860826 54.144 
L 136.140165 54.144 
L 139.419504 54.18844 
L 142.698843 54.144 
L 145.978182 54.144 
L 149.257521 54.144 
L 152.53686 54.144 
L 155.816198 54.239494 
L 159.095537 54.144 
L 162.374876 54.144 
L 165.654215 54.144 
L 168.933554 54.144 
L 172.212893 54.144 
L 175.492231 54.144 
L 178.77157 54.144 
L 182.050909 54.144 
L 185.330248 54.192505 
L 188.609587 54.144 
L 191.888926 54.144 
L 195.168264 54.245376 
L 198.447603 54.144 
L 201.726942 54.144 
L 205.006281 54.144 
L 208.28562 54.144 
L 211.564959 54.144 
L 214.844298 54.144 
L 218.123636 54.144 
L 221.402975 54.144 
L 224.682314 54.144 
L 227.961653 54.144 
L 231.240992 54.144 
L 234.520331 54.144 
L 237.799669 54.144 
L 241.079008 54.144 
L 244.358347 54.144 
L 247.637686 54.144 
L 250.917025 54.144 
L 254.196364 54.144 
L 257.475702 54.192974 
L 260.755041 54.144 
L 264.03438 54.195366 
L 267.313719 54.144 
L 270.593058 54.144 
L 273.872397 54.144 
L 277.151736 54.144 
L 280.431074 54.144 
L 283.710413 54.144 
L 286.989752 54.144 
L 290.269091 54.144 
L 293.54843 54.144 
L 296.827769 54.144 
L 300.107107 54.144 
L 303.386446 54.144 
L 306.665785 54.144 
L 309.945124 54.144 
L 313.224463 54.144 
L 316.503802 54.144 
L 319.78314 54.144 
L 323.062479 54.144 
L 326.341818 54.144 
L 329.621157 54.144 
L 332.900496 54.144 
L 336.179835 54.196364 
L 339.459174 54.144 
L 342.738512 54.144 
L 346.017851 54.144 
L 349.29719 54.144 
L 352.576529 54.144 
L 355.855868 54.144 
L 359.135207 54.144 
L 362.414545 54.144 
L 365.693884 54.144 
L 368.973223 54.144 
L 372.252562 54.144 
L 375.531901 54.144 
L 378.81124 54.144 
L 382.090579 54.144 
L 385.369917 54.144 
L 388.649256 54.144 
L 391.928595 54.144 
L 395.207934 54.144 
L 398.487273 54.144 
L 398.487273 54.144 
L 398.487273 54.144 
L 395.207934 54.144 
L 391.928595 54.144 
L 388.649256 54.144 
L 385.369917 54.144 
L 382.090579 54.144 
L 378.81124 54.144 
L 375.531901 54.144 
L 372.252562 54.144 
L 368.973223 54.144 
L 365.693884 54.144 
L 362.414545 54.144 
L 359.135207 54.144 
L 355.855868 54.144 
L 352.576529 54.144 
L 349.29719 54.144 
L 346.017851 54.144 
L 342.738512 54.144 
L 339.459174 54.144 
L 336.179835 54.144 
L 332.900496 54.144 
L 329.621157 54.144 
L 326.341818 54.144 
L 323.062479 54.144 
L 319.78314 54.144 
L 316.503802 54.144 
L 313.224463 54.144 
L 309.945124 54.144 
L 306.665785 54.144 
L 303.386446 54.144 
L 300.107107 54.144 
L 296.827769 54.144 
L 293.54843 54.144 
L 290.269091 54.144 
L 286.989752 54.144 
L 283.710413 54.144 
L 280.431074 54.144 
L 277.151736 54.144 
L 273.872397 54.144 
L 270.593058 54.144 
L 267.313719 54.144 
L 264.03438 54.195366 
L 260.755041 54.144 
L 257.475702 54.144 
L 254.196364 54.144 
L 250.917025 54.144 
L 247.637686 54.144 
L 244.358347 54.144 
L 241.079008 54.144 
L 237.799669 54.144 
L 234.520331 54.144 
L 231.240992 54.144 
L 227.961653 54.144 
L 224.682314 54.144 
L 221.402975 54.144 
L 218.123636 54.144 
L 214.844298 54.144 
L 211.564959 54.144 
L 208.28562 54.144 
L 205.006281 54.144 
L 201.726942 54.144 
L 198.447603 54.144 
L 195.168264 54.194688 
L 191.888926 54.144 
L 188.609587 54.144 
L 185.330248 54.192505 
L 182.050909 54.144 
L 178.77157 54.144 
L 175.492231 54.144 
L 172.212893 54.144 
L 168.933554 54.144 
L 165.654215 54.144 
L 162.374876 54.144 
L 159.095537 54.144 
L 155.816198 54.191747 
L 152.53686 54.144 
L 149.257521 54.144 
L 145.978182 54.144 
L 142.698843 54.144 
L 139.419504 54.144 
L 136.140165 54.144 
L 132.860826 54.144 
L 129.581488 54.144 
L 126.302149 54.187614 
L 123.02281 54.144 
L 119.743471 54.144 
L 116.464132 54.144 
L 113.184793 54.144 
L 109.905455 54.144 
L 106.626116 54.144 
L 103.346777 54.144 
L 100.067438 54.144 
L 96.788099 54.144 
L 93.50876 54.144 
L 90.229421 54.144 
L 86.950083 54.144 
L 83.670744 54.144 
L 80.391405 54.144 
L 77.112066 54.144 
L 73.832727 54.144 
z
" style="fill:#fcba2f;"/>
   </g>
   <g id="PolyCollection_7">
    <path clip-path="url(#p77f93a6e63)" d="M 73.832727 54.144 
L 73.832727 54.144 
L 77.112066 54.144 
L 80.391405 54.144 
L 83.670744 54.144 
L 86.950083 54.144 
L 90.229421 54.144 
L 93.50876 54.144 
L 96.788099 54.144 
L 100.067438 54.144 
L 103.346777 54.144 
L 106.626116 54.144 
L 109.905455 54.144 
L 113.184793 54.144 
L 116.464132 54.144 
L 119.743471 54.144 
L 123.02281 54.144 
L 126.302149 54.187614 
L 129.581488 54.144 
L 132.860826 54.144 
L 136.140165 54.144 
L 139.419504 54.144 
L 142.698843 54.144 
L 145.978182 54.144 
L 149.257521 54.144 
L 152.53686 54.144 
L 155.816198 54.191747 
L 159.095537 54.144 
L 162.374876 54.144 
L 165.654215 54.144 
L 168.933554 54.144 
L 172.212893 54.144 
L 175.492231 54.144 
L 178.77157 54.144 
L 182.050909 54.144 
L 185.330248 54.192505 
L 188.609587 54.144 
L 191.888926 54.144 
L 195.168264 54.194688 
L 198.447603 54.144 
L 201.726942 54.144 
L 205.006281 54.144 
L 208.28562 54.144 
L 211.564959 54.144 
L 214.844298 54.144 
L 218.123636 54.144 
L 221.402975 54.144 
L 224.682314 54.144 
L 227.961653 54.144 
L 231.240992 54.144 
L 234.520331 54.144 
L 237.799669 54.144 
L 241.079008 54.144 
L 244.358347 54.144 
L 247.637686 54.144 
L 250.917025 54.144 
L 254.196364 54.144 
L 257.475702 54.144 
L 260.755041 54.144 
L 264.03438 54.195366 
L 267.313719 54.144 
L 270.593058 54.144 
L 273.872397 54.144 
L 277.151736 54.144 
L 280.431074 54.144 
L 283.710413 54.144 
L 286.989752 54.144 
L 290.269091 54.144 
L 293.54843 54.144 
L 296.827769 54.144 
L 300.107107 54.144 
L 303.386446 54.144 
L 306.665785 54.144 
L 309.945124 54.144 
L 313.224463 54.144 
L 316.503802 54.144 
L 319.78314 54.144 
L 323.062479 54.144 
L 326.341818 54.144 
L 329.621157 54.144 
L 332.900496 54.144 
L 336.179835 54.144 
L 339.459174 54.144 
L 342.738512 54.144 
L 346.017851 54.144 
L 349.29719 54.144 
L 352.576529 54.144 
L 355.855868 54.144 
L 359.135207 54.144 
L 362.414545 54.144 
L 365.693884 54.144 
L 368.973223 54.144 
L 372.252562 54.144 
L 375.531901 54.144 
L 378.81124 54.144 
L 382.090579 54.144 
L 385.369917 54.144 
L 388.649256 54.144 
L 391.928595 54.144 
L 395.207934 54.144 
L 398.487273 54.144 
L 398.487273 54.144 
L 398.487273 54.144 
L 395.207934 54.144 
L 391.928595 54.144 
L 388.649256 54.144 
L 385.369917 54.144 
L 382.090579 54.144 
L 378.81124 54.144 
L 375.531901 54.144 
L 372.252562 54.144 
L 368.973223 54.144 
L 365.693884 54.144 
L 362.414545 54.144 
L 359.135207 54.144 
L 355.855868 54.144 
L 352.576529 54.144 
L 349.29719 54.144 
L 346.017851 54.144 
L 342.738512 54.144 
L 339.459174 54.144 
L 336.179835 54.144 
L 332.900496 54.144 
L 329.621157 54.144 
L 326.341818 54.144 
L 323.062479 54.144 
L 319.78314 54.144 
L 316.503802 54.144 
L 313.224463 54.144 
L 309.945124 54.144 
L 306.665785 54.144 
L 303.386446 54.144 
L 300.107107 54.144 
L 296.827769 54.144 
L 293.54843 54.144 
L 290.269091 54.144 
L 286.989752 54.144 
L 283.710413 54.144 
L 280.431074 54.144 
L 277.151736 54.144 
L 273.872397 54.144 
L 270.593058 54.144 
L 267.313719 54.144 
L 264.03438 54.144 
L 260.755041 54.144 
L 257.475702 54.144 
L 254.196364 54.144 
L 250.917025 54.144 
L 247.637686 54.144 
L 244.358347 54.144 
L 241.079008 54.144 
L 237.799669 54.144 
L 234.520331 54.144 
L 231.240992 54.144 
L 227.961653 54.144 
L 224.682314 54.144 
L 221.402975 54.144 
L 218.123636 54.144 
L 214.844298 54.144 
L 211.564959 54.144 
L 208.28562 54.144 
L 205.006281 54.144 
L 201.726942 54.144 
L 198.447603 54.144 
L 195.168264 54.144 
L 191.888926 54.144 
L 188.609587 54.144 
L 185.330248 54.144 
L 182.050909 54.144 
L 178.77157 54.144 
L 175.492231 54.144 
L 172.212893 54.144 
L 168.933554 54.144 
L 165.654215 54.144 
L 162.374876 54.144 
L 159.095537 54.144 
L 155.816198 54.144 
L 152.53686 54.144 
L 149.257521 54.144 
L 145.978182 54.144 
L 142.698843 54.144 
L 139.419504 54.144 
L 136.140165 54.144 
L 132.860826 54.144 
L 129.581488 54.144 
L 126.302149 54.144 
L 123.02281 54.144 
L 119.743471 54.144 
L 116.464132 54.144 
L 113.184793 54.144 
L 109.905455 54.144 
L 106.626116 54.144 
L 103.346777 54.144 
L 100.067438 54.144 
L 96.788099 54.144 
L 93.50876 54.144 
L 90.229421 54.144 
L 86.950083 54.144 
L 83.670744 54.144 
L 80.391405 54.144 
L 77.112066 54.144 
L 73.832727 54.144 
z
" style="fill:#1974bb;"/>
   </g>
   <g id="matplotlib.axis_1">
    <g id="xtick_1">
     <g id="line2d_1">
      <defs>
       <path d="M 0 0 
L 0 3.5 
" id="m7e44c40ec6" style="stroke:#000000;stroke-width:0.8;"/>
      </defs>
      <g>
       <use style="stroke:#000000;stroke-width:0.8;" x="70.553388" xlink:href="#m7e44c40ec6" y="307.584"/>
      </g>
     </g>
     <g id="text_1">
      <!-- 0 -->
      <defs>
       <path d="M 31.78125 66.40625 
Q 24.171875 66.40625 20.328125 58.90625 
Q 16.5 51.421875 16.5 36.375 
Q 16.5 21.390625 20.328125 13.890625 
Q 24.171875 6.390625 31.78125 6.390625 
Q 39.453125 6.390625 43.28125 13.890625 
Q 47.125 21.390625 47.125 36.375 
Q 47.125 51.421875 43.28125 58.90625 
Q 39.453125 66.40625 31.78125 66.40625 
z
M 31.78125 74.21875 
Q 44.046875 74.21875 50.515625 64.515625 
Q 56.984375 54.828125 56.984375 36.375 
Q 56.984375 17.96875 50.515625 8.265625 
Q 44.046875 -1.421875 31.78125 -1.421875 
Q 19.53125 -1.421875 13.0625 8.265625 
Q 6.59375 17.96875 6.59375 36.375 
Q 6.59375 54.828125 13.0625 64.515625 
Q 19.53125 74.21875 31.78125 74.21875 
z
" id="DejaVuSans-30"/>
      </defs>
      <g transform="translate(67.372138 322.182437)scale(0.1 -0.1)">
       <use xlink:href="#DejaVuSans-30"/>
      </g>
     </g>
    </g>
    <g id="xtick_2">
     <g id="line2d_2">
      <g>
       <use style="stroke:#000000;stroke-width:0.8;" x="136.140165" xlink:href="#m7e44c40ec6" y="307.584"/>
      </g>
     </g>
     <g id="text_2">
      <!-- 200000 -->
      <defs>
       <path d="M 19.1875 8.296875 
L 53.609375 8.296875 
L 53.609375 0 
L 7.328125 0 
L 7.328125 8.296875 
Q 12.9375 14.109375 22.625 23.890625 
Q 32.328125 33.6875 34.8125 36.53125 
Q 39.546875 41.84375 41.421875 45.53125 
Q 43.3125 49.21875 43.3125 52.78125 
Q 43.3125 58.59375 39.234375 62.25 
Q 35.15625 65.921875 28.609375 65.921875 
Q 23.96875 65.921875 18.8125 64.3125 
Q 13.671875 62.703125 7.8125 59.421875 
L 7.8125 69.390625 
Q 13.765625 71.78125 18.9375 73 
Q 24.125 74.21875 28.421875 74.21875 
Q 39.75 74.21875 46.484375 68.546875 
Q 53.21875 62.890625 53.21875 53.421875 
Q 53.21875 48.921875 51.53125 44.890625 
Q 49.859375 40.875 45.40625 35.40625 
Q 44.1875 33.984375 37.640625 27.21875 
Q 31.109375 20.453125 19.1875 8.296875 
z
" id="DejaVuSans-32"/>
      </defs>
      <g transform="translate(117.052665 322.182437)scale(0.1 -0.1)">
       <use xlink:href="#DejaVuSans-32"/>
       <use x="63.623047" xlink:href="#DejaVuSans-30"/>
       <use x="127.246094" xlink:href="#DejaVuSans-30"/>
       <use x="190.869141" xlink:href="#DejaVuSans-30"/>
       <use x="254.492188" xlink:href="#DejaVuSans-30"/>
       <use x="318.115234" xlink:href="#DejaVuSans-30"/>
      </g>
     </g>
    </g>
    <g id="xtick_3">
     <g id="line2d_3">
      <g>
       <use style="stroke:#000000;stroke-width:0.8;" x="201.726942" xlink:href="#m7e44c40ec6" y="307.584"/>
      </g>
     </g>
     <g id="text_3">
      <!-- 400000 -->
      <defs>
       <path d="M 37.796875 64.3125 
L 12.890625 25.390625 
L 37.796875 25.390625 
z
M 35.203125 72.90625 
L 47.609375 72.90625 
L 47.609375 25.390625 
L 58.015625 25.390625 
L 58.015625 17.1875 
L 47.609375 17.1875 
L 47.609375 0 
L 37.796875 0 
L 37.796875 17.1875 
L 4.890625 17.1875 
L 4.890625 26.703125 
z
" id="DejaVuSans-34"/>
      </defs>
      <g transform="translate(182.639442 322.182437)scale(0.1 -0.1)">
       <use xlink:href="#DejaVuSans-34"/>
       <use x="63.623047" xlink:href="#DejaVuSans-30"/>
       <use x="127.246094" xlink:href="#DejaVuSans-30"/>
       <use x="190.869141" xlink:href="#DejaVuSans-30"/>
       <use x="254.492188" xlink:href="#DejaVuSans-30"/>
       <use x="318.115234" xlink:href="#DejaVuSans-30"/>
      </g>
     </g>
    </g>
    <g id="xtick_4">
     <g id="line2d_4">
      <g>
       <use style="stroke:#000000;stroke-width:0.8;" x="267.313719" xlink:href="#m7e44c40ec6" y="307.584"/>
      </g>
     </g>
     <g id="text_4">
      <!-- 600000 -->
      <defs>
       <path d="M 33.015625 40.375 
Q 26.375 40.375 22.484375 35.828125 
Q 18.609375 31.296875 18.609375 23.390625 
Q 18.609375 15.53125 22.484375 10.953125 
Q 26.375 6.390625 33.015625 6.390625 
Q 39.65625 6.390625 43.53125 10.953125 
Q 47.40625 15.53125 47.40625 23.390625 
Q 47.40625 31.296875 43.53125 35.828125 
Q 39.65625 40.375 33.015625 40.375 
z
M 52.59375 71.296875 
L 52.59375 62.3125 
Q 48.875 64.0625 45.09375 64.984375 
Q 41.3125 65.921875 37.59375 65.921875 
Q 27.828125 65.921875 22.671875 59.328125 
Q 17.53125 52.734375 16.796875 39.40625 
Q 19.671875 43.65625 24.015625 45.921875 
Q 28.375 48.1875 33.59375 48.1875 
Q 44.578125 48.1875 50.953125 41.515625 
Q 57.328125 34.859375 57.328125 23.390625 
Q 57.328125 12.15625 50.6875 5.359375 
Q 44.046875 -1.421875 33.015625 -1.421875 
Q 20.359375 -1.421875 13.671875 8.265625 
Q 6.984375 17.96875 6.984375 36.375 
Q 6.984375 53.65625 15.1875 63.9375 
Q 23.390625 74.21875 37.203125 74.21875 
Q 40.921875 74.21875 44.703125 73.484375 
Q 48.484375 72.75 52.59375 71.296875 
z
" id="DejaVuSans-36"/>
      </defs>
      <g transform="translate(248.226219 322.182437)scale(0.1 -0.1)">
       <use xlink:href="#DejaVuSans-36"/>
       <use x="63.623047" xlink:href="#DejaVuSans-30"/>
       <use x="127.246094" xlink:href="#DejaVuSans-30"/>
       <use x="190.869141" xlink:href="#DejaVuSans-30"/>
       <use x="254.492188" xlink:href="#DejaVuSans-30"/>
       <use x="318.115234" xlink:href="#DejaVuSans-30"/>
      </g>
     </g>
    </g>
    <g id="xtick_5">
     <g id="line2d_5">
      <g>
       <use style="stroke:#000000;stroke-width:0.8;" x="332.900496" xlink:href="#m7e44c40ec6" y="307.584"/>
      </g>
     </g>
     <g id="text_5">
      <!-- 800000 -->
      <defs>
       <path d="M 31.78125 34.625 
Q 24.75 34.625 20.71875 30.859375 
Q 16.703125 27.09375 16.703125 20.515625 
Q 16.703125 13.921875 20.71875 10.15625 
Q 24.75 6.390625 31.78125 6.390625 
Q 38.8125 6.390625 42.859375 10.171875 
Q 46.921875 13.96875 46.921875 20.515625 
Q 46.921875 27.09375 42.890625 30.859375 
Q 38.875 34.625 31.78125 34.625 
z
M 21.921875 38.8125 
Q 15.578125 40.375 12.03125 44.71875 
Q 8.5 49.078125 8.5 55.328125 
Q 8.5 64.0625 14.71875 69.140625 
Q 20.953125 74.21875 31.78125 74.21875 
Q 42.671875 74.21875 48.875 69.140625 
Q 55.078125 64.0625 55.078125 55.328125 
Q 55.078125 49.078125 51.53125 44.71875 
Q 48 40.375 41.703125 38.8125 
Q 48.828125 37.15625 52.796875 32.3125 
Q 56.78125 27.484375 56.78125 20.515625 
Q 56.78125 9.90625 50.3125 4.234375 
Q 43.84375 -1.421875 31.78125 -1.421875 
Q 19.734375 -1.421875 13.25 4.234375 
Q 6.78125 9.90625 6.78125 20.515625 
Q 6.78125 27.484375 10.78125 32.3125 
Q 14.796875 37.15625 21.921875 38.8125 
z
M 18.3125 54.390625 
Q 18.3125 48.734375 21.84375 45.5625 
Q 25.390625 42.390625 31.78125 42.390625 
Q 38.140625 42.390625 41.71875 45.5625 
Q 45.3125 48.734375 45.3125 54.390625 
Q 45.3125 60.0625 41.71875 63.234375 
Q 38.140625 66.40625 31.78125 66.40625 
Q 25.390625 66.40625 21.84375 63.234375 
Q 18.3125 60.0625 18.3125 54.390625 
z
" id="DejaVuSans-38"/>
      </defs>
      <g transform="translate(313.812996 322.182437)scale(0.1 -0.1)">
       <use xlink:href="#DejaVuSans-38"/>
       <use x="63.623047" xlink:href="#DejaVuSans-30"/>
       <use x="127.246094" xlink:href="#DejaVuSans-30"/>
       <use x="190.869141" xlink:href="#DejaVuSans-30"/>
       <use x="254.492188" xlink:href="#DejaVuSans-30"/>
       <use x="318.115234" xlink:href="#DejaVuSans-30"/>
      </g>
     </g>
    </g>
    <g id="xtick_6">
     <g id="line2d_6">
      <g>
       <use style="stroke:#000000;stroke-width:0.8;" x="398.487273" xlink:href="#m7e44c40ec6" y="307.584"/>
      </g>
     </g>
     <g id="text_6">
      <!-- 1000000 -->
      <defs>
       <path d="M 12.40625 8.296875 
L 28.515625 8.296875 
L 28.515625 63.921875 
L 10.984375 60.40625 
L 10.984375 69.390625 
L 28.421875 72.90625 
L 38.28125 72.90625 
L 38.28125 8.296875 
L 54.390625 8.296875 
L 54.390625 0 
L 12.40625 0 
z
" id="DejaVuSans-31"/>
      </defs>
      <g transform="translate(376.218523 322.182437)scale(0.1 -0.1)">
       <use xlink:href="#DejaVuSans-31"/>
       <use x="63.623047" xlink:href="#DejaVuSans-30"/>
       <use x="127.246094" xlink:href="#DejaVuSans-30"/>
       <use x="190.869141" xlink:href="#DejaVuSans-30"/>
       <use x="254.492188" xlink:href="#DejaVuSans-30"/>
       <use x="318.115234" xlink:href="#DejaVuSans-30"/>
       <use x="381.738281" xlink:href="#DejaVuSans-30"/>
      </g>
     </g>
    </g>
   </g>
   <g id="matplotlib.axis_2">
    <g id="ytick_1">
     <g id="line2d_7">
      <defs>
       <path d="M 0 0 
L -3.5 0 
" id="m38b6b511be" style="stroke:#000000;stroke-width:0.8;"/>
      </defs>
      <g>
       <use style="stroke:#000000;stroke-width:0.8;" x="57.6" xlink:href="#m38b6b511be" y="307.584"/>
      </g>
     </g>
     <g id="text_7">
      <!-- 0.0 -->
      <defs>
       <path d="M 10.6875 12.40625 
L 21 12.40625 
L 21 0 
L 10.6875 0 
z
" id="DejaVuSans-2e"/>
      </defs>
      <g transform="translate(34.696875 311.383219)scale(0.1 -0.1)">
       <use xlink:href="#DejaVuSans-30"/>
       <use x="63.623047" xlink:href="#DejaVuSans-2e"/>
       <use x="95.410156" xlink:href="#DejaVuSans-30"/>
      </g>
     </g>
    </g>
    <g id="ytick_2">
     <g id="line2d_8">
      <g>
       <use style="stroke:#000000;stroke-width:0.8;" x="57.6" xlink:href="#m38b6b511be" y="256.896"/>
      </g>
     </g>
     <g id="text_8">
      <!-- 0.2 -->
      <g transform="translate(34.696875 260.695219)scale(0.1 -0.1)">
       <use xlink:href="#DejaVuSans-30"/>
       <use x="63.623047" xlink:href="#DejaVuSans-2e"/>
       <use x="95.410156" xlink:href="#DejaVuSans-32"/>
      </g>
     </g>
    </g>
    <g id="ytick_3">
     <g id="line2d_9">
      <g>
       <use style="stroke:#000000;stroke-width:0.8;" x="57.6" xlink:href="#m38b6b511be" y="206.208"/>
      </g>
     </g>
     <g id="text_9">
      <!-- 0.4 -->
      <g transform="translate(34.696875 210.007219)scale(0.1 -0.1)">
       <use xlink:href="#DejaVuSans-30"/>
       <use x="63.623047" xlink:href="#DejaVuSans-2e"/>
       <use x="95.410156" xlink:href="#DejaVuSans-34"/>
      </g>
     </g>
    </g>
    <g id="ytick_4">
     <g id="line2d_10">
      <g>
       <use style="stroke:#000000;stroke-width:0.8;" x="57.6" xlink:href="#m38b6b511be" y="155.52"/>
      </g>
     </g>
     <g id="text_10">
      <!-- 0.6 -->
      <g transform="translate(34.696875 159.319219)scale(0.1 -0.1)">
       <use xlink:href="#DejaVuSans-30"/>
       <use x="63.623047" xlink:href="#DejaVuSans-2e"/>
       <use x="95.410156" xlink:href="#DejaVuSans-36"/>
      </g>
     </g>
    </g>
    <g id="ytick_5">
     <g id="line2d_11">
      <g>
       <use style="stroke:#000000;stroke-width:0.8;" x="57.6" xlink:href="#m38b6b511be" y="104.832"/>
      </g>
     </g>
     <g id="text_11">
      <!-- 0.8 -->
      <g transform="translate(34.696875 108.631219)scale(0.1 -0.1)">
       <use xlink:href="#DejaVuSans-30"/>
       <use x="63.623047" xlink:href="#DejaVuSans-2e"/>
       <use x="95.410156" xlink:href="#DejaVuSans-38"/>
      </g>
     </g>
    </g>
    <g id="ytick_6">
     <g id="line2d_12">
      <g>
       <use style="stroke:#000000;stroke-width:0.8;" x="57.6" xlink:href="#m38b6b511be" y="54.144"/>
      </g>
     </g>
     <g id="text_12">
      <!-- 1.0 -->
      <g transform="translate(34.696875 57.943219)scale(0.1 -0.1)">
       <use xlink:href="#DejaVuSans-31"/>
       <use x="63.623047" xlink:href="#DejaVuSans-2e"/>
       <use x="95.410156" xlink:href="#DejaVuSans-30"/>
      </g>
     </g>
    </g>
   </g>
   <g id="line2d_13">
    <path clip-path="url(#p77f93a6e63)" d="M 57.6 152.703607 
L 414.72 152.703607 
" style="fill:none;stroke:#808080;stroke-dasharray:1,1.65;stroke-dashoffset:0;"/>
   </g>
   <g id="line2d_14">
    <path clip-path="url(#p77f93a6e63)" d="M 57.6 86.72495 
L 414.72 86.72495 
" style="fill:none;stroke:#808080;stroke-dasharray:1,1.65;stroke-dashoffset:0;"/>
   </g>
   <g id="line2d_15">
    <path clip-path="url(#p77f93a6e63)" d="M 57.6 64.676996 
L 414.72 64.676996 
" style="fill:none;stroke:#808080;stroke-dasharray:1,1.65;stroke-dashoffset:0;"/>
   </g>
   <g id="patch_3">
    <path d="M 57.6 307.584 
L 57.6 41.472 
" style="fill:none;stroke:#000000;stroke-linecap:square;stroke-linejoin:miter;stroke-width:0.8;"/>
   </g>
   <g id="patch_4">
    <path d="M 414.72 307.584 
L 414.72 41.472 
" style="fill:none;stroke:#000000;stroke-linecap:square;stroke-linejoin:miter;stroke-width:0.8;"/>
   </g>
   <g id="patch_5">
    <path d="M 57.6 307.584 
L 414.72 307.584 
" style="fill:none;stroke:#000000;stroke-linecap:square;stroke-linejoin:miter;stroke-width:0.8;"/>
   </g>
   <g id="patch_6">
    <path d="M 57.6 41.472 
L 414.72 41.472 
" style="fill:none;stroke:#000000;stroke-linecap:square;stroke-linejoin:miter;stroke-width:0.8;"/>
   </g>
   <g id="text_13">
    <!-- Google -->
    <defs>
     <path d="M 59.515625 10.40625 
L 59.515625 29.984375 
L 43.40625 29.984375 
L 43.40625 38.09375 
L 69.28125 38.09375 
L 69.28125 6.78125 
Q 63.578125 2.734375 56.6875 0.65625 
Q 49.8125 -1.421875 42 -1.421875 
Q 24.90625 -1.421875 15.25 8.5625 
Q 5.609375 18.5625 5.609375 36.375 
Q 5.609375 54.25 15.25 64.234375 
Q 24.90625 74.21875 42 74.21875 
Q 49.125 74.21875 55.546875 72.453125 
Q 61.96875 70.703125 67.390625 67.28125 
L 67.390625 56.78125 
Q 61.921875 61.421875 55.765625 63.765625 
Q 49.609375 66.109375 42.828125 66.109375 
Q 29.4375 66.109375 22.71875 58.640625 
Q 16.015625 51.171875 16.015625 36.375 
Q 16.015625 21.625 22.71875 14.15625 
Q 29.4375 6.6875 42.828125 6.6875 
Q 48.046875 6.6875 52.140625 7.59375 
Q 56.25 8.5 59.515625 10.40625 
z
" id="DejaVuSans-47"/>
     <path d="M 30.609375 48.390625 
Q 23.390625 48.390625 19.1875 42.75 
Q 14.984375 37.109375 14.984375 27.296875 
Q 14.984375 17.484375 19.15625 11.84375 
Q 23.34375 6.203125 30.609375 6.203125 
Q 37.796875 6.203125 41.984375 11.859375 
Q 46.1875 17.53125 46.1875 27.296875 
Q 46.1875 37.015625 41.984375 42.703125 
Q 37.796875 48.390625 30.609375 48.390625 
z
M 30.609375 56 
Q 42.328125 56 49.015625 48.375 
Q 55.71875 40.765625 55.71875 27.296875 
Q 55.71875 13.875 49.015625 6.21875 
Q 42.328125 -1.421875 30.609375 -1.421875 
Q 18.84375 -1.421875 12.171875 6.21875 
Q 5.515625 13.875 5.515625 27.296875 
Q 5.515625 40.765625 12.171875 48.375 
Q 18.84375 56 30.609375 56 
z
" id="DejaVuSans-6f"/>
     <path d="M 45.40625 27.984375 
Q 45.40625 37.75 41.375 43.109375 
Q 37.359375 48.484375 30.078125 48.484375 
Q 22.859375 48.484375 18.828125 43.109375 
Q 14.796875 37.75 14.796875 27.984375 
Q 14.796875 18.265625 18.828125 12.890625 
Q 22.859375 7.515625 30.078125 7.515625 
Q 37.359375 7.515625 41.375 12.890625 
Q 45.40625 18.265625 45.40625 27.984375 
z
M 54.390625 6.78125 
Q 54.390625 -7.171875 48.1875 -13.984375 
Q 42 -20.796875 29.203125 -20.796875 
Q 24.46875 -20.796875 20.265625 -20.09375 
Q 16.0625 -19.390625 12.109375 -17.921875 
L 12.109375 -9.1875 
Q 16.0625 -11.328125 19.921875 -12.34375 
Q 23.78125 -13.375 27.78125 -13.375 
Q 36.625 -13.375 41.015625 -8.765625 
Q 45.40625 -4.15625 45.40625 5.171875 
L 45.40625 9.625 
Q 42.625 4.78125 38.28125 2.390625 
Q 33.9375 0 27.875 0 
Q 17.828125 0 11.671875 7.65625 
Q 5.515625 15.328125 5.515625 27.984375 
Q 5.515625 40.671875 11.671875 48.328125 
Q 17.828125 56 27.875 56 
Q 33.9375 56 38.28125 53.609375 
Q 42.625 51.21875 45.40625 46.390625 
L 45.40625 54.6875 
L 54.390625 54.6875 
z
" id="DejaVuSans-67"/>
     <path d="M 9.421875 75.984375 
L 18.40625 75.984375 
L 18.40625 0 
L 9.421875 0 
z
" id="DejaVuSans-6c"/>
     <path d="M 56.203125 29.59375 
L 56.203125 25.203125 
L 14.890625 25.203125 
Q 15.484375 15.921875 20.484375 11.0625 
Q 25.484375 6.203125 34.421875 6.203125 
Q 39.59375 6.203125 44.453125 7.46875 
Q 49.3125 8.734375 54.109375 11.28125 
L 54.109375 2.78125 
Q 49.265625 0.734375 44.1875 -0.34375 
Q 39.109375 -1.421875 33.890625 -1.421875 
Q 20.796875 -1.421875 13.15625 6.1875 
Q 5.515625 13.8125 5.515625 26.8125 
Q 5.515625 40.234375 12.765625 48.109375 
Q 20.015625 56 32.328125 56 
Q 43.359375 56 49.78125 48.890625 
Q 56.203125 41.796875 56.203125 29.59375 
z
M 47.21875 32.234375 
Q 47.125 39.59375 43.09375 43.984375 
Q 39.0625 48.390625 32.421875 48.390625 
Q 24.90625 48.390625 20.390625 44.140625 
Q 15.875 39.890625 15.1875 32.171875 
z
" id="DejaVuSans-65"/>
    </defs>
    <g transform="translate(119.743471 223.9488)scale(0.1 -0.1)">
     <use xlink:href="#DejaVuSans-47"/>
     <use x="77.490234" xlink:href="#DejaVuSans-6f"/>
     <use x="138.671875" xlink:href="#DejaVuSans-6f"/>
     <use x="199.853516" xlink:href="#DejaVuSans-67"/>
     <use x="263.330078" xlink:href="#DejaVuSans-6c"/>
     <use x="291.113281" xlink:href="#DejaVuSans-65"/>
    </g>
   </g>
   <g id="text_14">
    <!-- Symantec -->
    <defs>
     <path d="M 53.515625 70.515625 
L 53.515625 60.890625 
Q 47.90625 63.578125 42.921875 64.890625 
Q 37.9375 66.21875 33.296875 66.21875 
Q 25.25 66.21875 20.875 63.09375 
Q 16.5 59.96875 16.5 54.203125 
Q 16.5 49.359375 19.40625 46.890625 
Q 22.3125 44.4375 30.421875 42.921875 
L 36.375 41.703125 
Q 47.40625 39.59375 52.65625 34.296875 
Q 57.90625 29 57.90625 20.125 
Q 57.90625 9.515625 50.796875 4.046875 
Q 43.703125 -1.421875 29.984375 -1.421875 
Q 24.8125 -1.421875 18.96875 -0.25 
Q 13.140625 0.921875 6.890625 3.21875 
L 6.890625 13.375 
Q 12.890625 10.015625 18.65625 8.296875 
Q 24.421875 6.59375 29.984375 6.59375 
Q 38.421875 6.59375 43.015625 9.90625 
Q 47.609375 13.234375 47.609375 19.390625 
Q 47.609375 24.75 44.3125 27.78125 
Q 41.015625 30.8125 33.5 32.328125 
L 27.484375 33.5 
Q 16.453125 35.6875 11.515625 40.375 
Q 6.59375 45.0625 6.59375 53.421875 
Q 6.59375 63.09375 13.40625 68.65625 
Q 20.21875 74.21875 32.171875 74.21875 
Q 37.3125 74.21875 42.625 73.28125 
Q 47.953125 72.359375 53.515625 70.515625 
z
" id="DejaVuSans-53"/>
     <path d="M 32.171875 -5.078125 
Q 28.375 -14.84375 24.75 -17.8125 
Q 21.140625 -20.796875 15.09375 -20.796875 
L 7.90625 -20.796875 
L 7.90625 -13.28125 
L 13.1875 -13.28125 
Q 16.890625 -13.28125 18.9375 -11.515625 
Q 21 -9.765625 23.484375 -3.21875 
L 25.09375 0.875 
L 2.984375 54.6875 
L 12.5 54.6875 
L 29.59375 11.921875 
L 46.6875 54.6875 
L 56.203125 54.6875 
z
" id="DejaVuSans-79"/>
     <path d="M 52 44.1875 
Q 55.375 50.25 60.0625 53.125 
Q 64.75 56 71.09375 56 
Q 79.640625 56 84.28125 50.015625 
Q 88.921875 44.046875 88.921875 33.015625 
L 88.921875 0 
L 79.890625 0 
L 79.890625 32.71875 
Q 79.890625 40.578125 77.09375 44.375 
Q 74.3125 48.1875 68.609375 48.1875 
Q 61.625 48.1875 57.5625 43.546875 
Q 53.515625 38.921875 53.515625 30.90625 
L 53.515625 0 
L 44.484375 0 
L 44.484375 32.71875 
Q 44.484375 40.625 41.703125 44.40625 
Q 38.921875 48.1875 33.109375 48.1875 
Q 26.21875 48.1875 22.15625 43.53125 
Q 18.109375 38.875 18.109375 30.90625 
L 18.109375 0 
L 9.078125 0 
L 9.078125 54.6875 
L 18.109375 54.6875 
L 18.109375 46.1875 
Q 21.1875 51.21875 25.484375 53.609375 
Q 29.78125 56 35.6875 56 
Q 41.65625 56 45.828125 52.96875 
Q 50 49.953125 52 44.1875 
z
" id="DejaVuSans-6d"/>
     <path d="M 34.28125 27.484375 
Q 23.390625 27.484375 19.1875 25 
Q 14.984375 22.515625 14.984375 16.5 
Q 14.984375 11.71875 18.140625 8.90625 
Q 21.296875 6.109375 26.703125 6.109375 
Q 34.1875 6.109375 38.703125 11.40625 
Q 43.21875 16.703125 43.21875 25.484375 
L 43.21875 27.484375 
z
M 52.203125 31.203125 
L 52.203125 0 
L 43.21875 0 
L 43.21875 8.296875 
Q 40.140625 3.328125 35.546875 0.953125 
Q 30.953125 -1.421875 24.3125 -1.421875 
Q 15.921875 -1.421875 10.953125 3.296875 
Q 6 8.015625 6 15.921875 
Q 6 25.140625 12.171875 29.828125 
Q 18.359375 34.515625 30.609375 34.515625 
L 43.21875 34.515625 
L 43.21875 35.40625 
Q 43.21875 41.609375 39.140625 45 
Q 35.0625 48.390625 27.6875 48.390625 
Q 23 48.390625 18.546875 47.265625 
Q 14.109375 46.140625 10.015625 43.890625 
L 10.015625 52.203125 
Q 14.9375 54.109375 19.578125 55.046875 
Q 24.21875 56 28.609375 56 
Q 40.484375 56 46.34375 49.84375 
Q 52.203125 43.703125 52.203125 31.203125 
z
" id="DejaVuSans-61"/>
     <path d="M 54.890625 33.015625 
L 54.890625 0 
L 45.90625 0 
L 45.90625 32.71875 
Q 45.90625 40.484375 42.875 44.328125 
Q 39.84375 48.1875 33.796875 48.1875 
Q 26.515625 48.1875 22.3125 43.546875 
Q 18.109375 38.921875 18.109375 30.90625 
L 18.109375 0 
L 9.078125 0 
L 9.078125 54.6875 
L 18.109375 54.6875 
L 18.109375 46.1875 
Q 21.34375 51.125 25.703125 53.5625 
Q 30.078125 56 35.796875 56 
Q 45.21875 56 50.046875 50.171875 
Q 54.890625 44.34375 54.890625 33.015625 
z
" id="DejaVuSans-6e"/>
     <path d="M 18.3125 70.21875 
L 18.3125 54.6875 
L 36.8125 54.6875 
L 36.8125 47.703125 
L 18.3125 47.703125 
L 18.3125 18.015625 
Q 18.3125 11.328125 20.140625 9.421875 
Q 21.96875 7.515625 27.59375 7.515625 
L 36.8125 7.515625 
L 36.8125 0 
L 27.59375 0 
Q 17.1875 0 13.234375 3.875 
Q 9.28125 7.765625 9.28125 18.015625 
L 9.28125 47.703125 
L 2.6875 47.703125 
L 2.6875 54.6875 
L 9.28125 54.6875 
L 9.28125 70.21875 
z
" id="DejaVuSans-74"/>
     <path d="M 48.78125 52.59375 
L 48.78125 44.1875 
Q 44.96875 46.296875 41.140625 47.34375 
Q 37.3125 48.390625 33.40625 48.390625 
Q 24.65625 48.390625 19.8125 42.84375 
Q 14.984375 37.3125 14.984375 27.296875 
Q 14.984375 17.28125 19.8125 11.734375 
Q 24.65625 6.203125 33.40625 6.203125 
Q 37.3125 6.203125 41.140625 7.25 
Q 44.96875 8.296875 48.78125 10.40625 
L 48.78125 2.09375 
Q 45.015625 0.34375 40.984375 -0.53125 
Q 36.96875 -1.421875 32.421875 -1.421875 
Q 20.0625 -1.421875 12.78125 6.34375 
Q 5.515625 14.109375 5.515625 27.296875 
Q 5.515625 40.671875 12.859375 48.328125 
Q 20.21875 56 33.015625 56 
Q 37.15625 56 41.109375 55.140625 
Q 45.0625 54.296875 48.78125 52.59375 
z
" id="DejaVuSans-63"/>
    </defs>
    <g transform="translate(119.743471 117.504)scale(0.1 -0.1)">
     <use xlink:href="#DejaVuSans-53"/>
     <use x="63.476562" xlink:href="#DejaVuSans-79"/>
     <use x="122.65625" xlink:href="#DejaVuSans-6d"/>
     <use x="220.068359" xlink:href="#DejaVuSans-61"/>
     <use x="281.347656" xlink:href="#DejaVuSans-6e"/>
     <use x="344.726562" xlink:href="#DejaVuSans-74"/>
     <use x="383.935547" xlink:href="#DejaVuSans-65"/>
     <use x="445.458984" xlink:href="#DejaVuSans-63"/>
    </g>
   </g>
   <g id="text_15">
    <!-- DigiCert -->
    <defs>
     <path d="M 19.671875 64.796875 
L 19.671875 8.109375 
L 31.59375 8.109375 
Q 46.6875 8.109375 53.6875 14.9375 
Q 60.6875 21.78125 60.6875 36.53125 
Q 60.6875 51.171875 53.6875 57.984375 
Q 46.6875 64.796875 31.59375 64.796875 
z
M 9.8125 72.90625 
L 30.078125 72.90625 
Q 51.265625 72.90625 61.171875 64.09375 
Q 71.09375 55.28125 71.09375 36.53125 
Q 71.09375 17.671875 61.125 8.828125 
Q 51.171875 0 30.078125 0 
L 9.8125 0 
z
" id="DejaVuSans-44"/>
     <path d="M 9.421875 54.6875 
L 18.40625 54.6875 
L 18.40625 0 
L 9.421875 0 
z
M 9.421875 75.984375 
L 18.40625 75.984375 
L 18.40625 64.59375 
L 9.421875 64.59375 
z
" id="DejaVuSans-69"/>
     <path d="M 64.40625 67.28125 
L 64.40625 56.890625 
Q 59.421875 61.53125 53.78125 63.8125 
Q 48.140625 66.109375 41.796875 66.109375 
Q 29.296875 66.109375 22.65625 58.46875 
Q 16.015625 50.828125 16.015625 36.375 
Q 16.015625 21.96875 22.65625 14.328125 
Q 29.296875 6.6875 41.796875 6.6875 
Q 48.140625 6.6875 53.78125 8.984375 
Q 59.421875 11.28125 64.40625 15.921875 
L 64.40625 5.609375 
Q 59.234375 2.09375 53.4375 0.328125 
Q 47.65625 -1.421875 41.21875 -1.421875 
Q 24.65625 -1.421875 15.125 8.703125 
Q 5.609375 18.84375 5.609375 36.375 
Q 5.609375 53.953125 15.125 64.078125 
Q 24.65625 74.21875 41.21875 74.21875 
Q 47.75 74.21875 53.53125 72.484375 
Q 59.328125 70.75 64.40625 67.28125 
z
" id="DejaVuSans-43"/>
     <path d="M 41.109375 46.296875 
Q 39.59375 47.171875 37.8125 47.578125 
Q 36.03125 48 33.890625 48 
Q 26.265625 48 22.1875 43.046875 
Q 18.109375 38.09375 18.109375 28.8125 
L 18.109375 0 
L 9.078125 0 
L 9.078125 54.6875 
L 18.109375 54.6875 
L 18.109375 46.1875 
Q 20.953125 51.171875 25.484375 53.578125 
Q 30.03125 56 36.53125 56 
Q 37.453125 56 38.578125 55.875 
Q 39.703125 55.765625 41.0625 55.515625 
z
" id="DejaVuSans-72"/>
    </defs>
    <g transform="translate(119.743471 82.0224)scale(0.1 -0.1)">
     <use xlink:href="#DejaVuSans-44"/>
     <use x="77.001953" xlink:href="#DejaVuSans-69"/>
     <use x="104.785156" xlink:href="#DejaVuSans-67"/>
     <use x="168.261719" xlink:href="#DejaVuSans-69"/>
     <use x="196.044922" xlink:href="#DejaVuSans-43"/>
     <use x="265.869141" xlink:href="#DejaVuSans-65"/>
     <use x="327.392578" xlink:href="#DejaVuSans-72"/>
     <use x="368.505859" xlink:href="#DejaVuSans-74"/>
    </g>
   </g>
   <g id="text_16">
    <!-- WoSign -->
    <defs>
     <path d="M 3.328125 72.90625 
L 13.28125 72.90625 
L 28.609375 11.28125 
L 43.890625 72.90625 
L 54.984375 72.90625 
L 70.3125 11.28125 
L 85.59375 72.90625 
L 95.609375 72.90625 
L 77.296875 0 
L 64.890625 0 
L 49.515625 63.28125 
L 33.984375 0 
L 21.578125 0 
z
" id="DejaVuSans-57"/>
    </defs>
    <g transform="translate(119.743471 64.2816)scale(0.1 -0.1)">
     <use xlink:href="#DejaVuSans-57"/>
     <use x="98.798828" xlink:href="#DejaVuSans-6f"/>
     <use x="159.980469" xlink:href="#DejaVuSans-53"/>
     <use x="223.457031" xlink:href="#DejaVuSans-69"/>
     <use x="251.240234" xlink:href="#DejaVuSans-67"/>
     <use x="314.716797" xlink:href="#DejaVuSans-6e"/>
    </g>
   </g>
   <g id="text_17">
    <!-- 0.61 -->
    <g style="fill:#808080;" transform="translate(48.287763 150.623919)scale(0.1 -0.1)">
     <use xlink:href="#DejaVuSans-30"/>
     <use x="63.623047" xlink:href="#DejaVuSans-2e"/>
     <use x="95.410156" xlink:href="#DejaVuSans-36"/>
     <use x="159.033203" xlink:href="#DejaVuSans-31"/>
    </g>
   </g>
   <g id="text_18">
    <!-- 0.87 -->
    <defs>
     <path d="M 8.203125 72.90625 
L 55.078125 72.90625 
L 55.078125 68.703125 
L 28.609375 0 
L 18.3125 0 
L 43.21875 64.59375 
L 8.203125 64.59375 
z
" id="DejaVuSans-37"/>
    </defs>
    <g style="fill:#808080;" transform="translate(48.287763 84.645262)scale(0.1 -0.1)">
     <use xlink:href="#DejaVuSans-30"/>
     <use x="63.623047" xlink:href="#DejaVuSans-2e"/>
     <use x="95.410156" xlink:href="#DejaVuSans-38"/>
     <use x="159.033203" xlink:href="#DejaVuSans-37"/>
    </g>
   </g>
   <g id="text_19">
    <!-- 0.96 -->
    <defs>
     <path d="M 10.984375 1.515625 
L 10.984375 10.5 
Q 14.703125 8.734375 18.5 7.8125 
Q 22.3125 6.890625 25.984375 6.890625 
Q 35.75 6.890625 40.890625 13.453125 
Q 46.046875 20.015625 46.78125 33.40625 
Q 43.953125 29.203125 39.59375 26.953125 
Q 35.25 24.703125 29.984375 24.703125 
Q 19.046875 24.703125 12.671875 31.3125 
Q 6.296875 37.9375 6.296875 49.421875 
Q 6.296875 60.640625 12.9375 67.421875 
Q 19.578125 74.21875 30.609375 74.21875 
Q 43.265625 74.21875 49.921875 64.515625 
Q 56.59375 54.828125 56.59375 36.375 
Q 56.59375 19.140625 48.40625 8.859375 
Q 40.234375 -1.421875 26.421875 -1.421875 
Q 22.703125 -1.421875 18.890625 -0.6875 
Q 15.09375 0.046875 10.984375 1.515625 
z
M 30.609375 32.421875 
Q 37.25 32.421875 41.125 36.953125 
Q 45.015625 41.5 45.015625 49.421875 
Q 45.015625 57.28125 41.125 61.84375 
Q 37.25 66.40625 30.609375 66.40625 
Q 23.96875 66.40625 20.09375 61.84375 
Q 16.21875 57.28125 16.21875 49.421875 
Q 16.21875 41.5 20.09375 36.953125 
Q 23.96875 32.421875 30.609375 32.421875 
z
" id="DejaVuSans-39"/>
    </defs>
    <g style="fill:#808080;" transform="translate(48.287763 62.597309)scale(0.1 -0.1)">
     <use xlink:href="#DejaVuSans-30"/>
     <use x="63.623047" xlink:href="#DejaVuSans-2e"/>
     <use x="95.410156" xlink:href="#DejaVuSans-39"/>
     <use x="159.033203" xlink:href="#DejaVuSans-36"/>
    </g>
   </g>
   <g id="text_20">
    <!-- SCTs by CT-Log-Operator (chrome accepted only) -->
    <defs>
     <path d="M -0.296875 72.90625 
L 61.375 72.90625 
L 61.375 64.59375 
L 35.5 64.59375 
L 35.5 0 
L 25.59375 0 
L 25.59375 64.59375 
L -0.296875 64.59375 
z
" id="DejaVuSans-54"/>
     <path d="M 44.28125 53.078125 
L 44.28125 44.578125 
Q 40.484375 46.53125 36.375 47.5 
Q 32.28125 48.484375 27.875 48.484375 
Q 21.1875 48.484375 17.84375 46.4375 
Q 14.5 44.390625 14.5 40.28125 
Q 14.5 37.15625 16.890625 35.375 
Q 19.28125 33.59375 26.515625 31.984375 
L 29.59375 31.296875 
Q 39.15625 29.25 43.1875 25.515625 
Q 47.21875 21.78125 47.21875 15.09375 
Q 47.21875 7.46875 41.1875 3.015625 
Q 35.15625 -1.421875 24.609375 -1.421875 
Q 20.21875 -1.421875 15.453125 -0.5625 
Q 10.6875 0.296875 5.421875 2 
L 5.421875 11.28125 
Q 10.40625 8.6875 15.234375 7.390625 
Q 20.0625 6.109375 24.8125 6.109375 
Q 31.15625 6.109375 34.5625 8.28125 
Q 37.984375 10.453125 37.984375 14.40625 
Q 37.984375 18.0625 35.515625 20.015625 
Q 33.0625 21.96875 24.703125 23.78125 
L 21.578125 24.515625 
Q 13.234375 26.265625 9.515625 29.90625 
Q 5.8125 33.546875 5.8125 39.890625 
Q 5.8125 47.609375 11.28125 51.796875 
Q 16.75 56 26.8125 56 
Q 31.78125 56 36.171875 55.265625 
Q 40.578125 54.546875 44.28125 53.078125 
z
" id="DejaVuSans-73"/>
     <path id="DejaVuSans-20"/>
     <path d="M 48.6875 27.296875 
Q 48.6875 37.203125 44.609375 42.84375 
Q 40.53125 48.484375 33.40625 48.484375 
Q 26.265625 48.484375 22.1875 42.84375 
Q 18.109375 37.203125 18.109375 27.296875 
Q 18.109375 17.390625 22.1875 11.75 
Q 26.265625 6.109375 33.40625 6.109375 
Q 40.53125 6.109375 44.609375 11.75 
Q 48.6875 17.390625 48.6875 27.296875 
z
M 18.109375 46.390625 
Q 20.953125 51.265625 25.265625 53.625 
Q 29.59375 56 35.59375 56 
Q 45.5625 56 51.78125 48.09375 
Q 58.015625 40.1875 58.015625 27.296875 
Q 58.015625 14.40625 51.78125 6.484375 
Q 45.5625 -1.421875 35.59375 -1.421875 
Q 29.59375 -1.421875 25.265625 0.953125 
Q 20.953125 3.328125 18.109375 8.203125 
L 18.109375 0 
L 9.078125 0 
L 9.078125 75.984375 
L 18.109375 75.984375 
z
" id="DejaVuSans-62"/>
     <path d="M 4.890625 31.390625 
L 31.203125 31.390625 
L 31.203125 23.390625 
L 4.890625 23.390625 
z
" id="DejaVuSans-2d"/>
     <path d="M 9.8125 72.90625 
L 19.671875 72.90625 
L 19.671875 8.296875 
L 55.171875 8.296875 
L 55.171875 0 
L 9.8125 0 
z
" id="DejaVuSans-4c"/>
     <path d="M 39.40625 66.21875 
Q 28.65625 66.21875 22.328125 58.203125 
Q 16.015625 50.203125 16.015625 36.375 
Q 16.015625 22.609375 22.328125 14.59375 
Q 28.65625 6.59375 39.40625 6.59375 
Q 50.140625 6.59375 56.421875 14.59375 
Q 62.703125 22.609375 62.703125 36.375 
Q 62.703125 50.203125 56.421875 58.203125 
Q 50.140625 66.21875 39.40625 66.21875 
z
M 39.40625 74.21875 
Q 54.734375 74.21875 63.90625 63.9375 
Q 73.09375 53.65625 73.09375 36.375 
Q 73.09375 19.140625 63.90625 8.859375 
Q 54.734375 -1.421875 39.40625 -1.421875 
Q 24.03125 -1.421875 14.8125 8.828125 
Q 5.609375 19.09375 5.609375 36.375 
Q 5.609375 53.65625 14.8125 63.9375 
Q 24.03125 74.21875 39.40625 74.21875 
z
" id="DejaVuSans-4f"/>
     <path d="M 18.109375 8.203125 
L 18.109375 -20.796875 
L 9.078125 -20.796875 
L 9.078125 54.6875 
L 18.109375 54.6875 
L 18.109375 46.390625 
Q 20.953125 51.265625 25.265625 53.625 
Q 29.59375 56 35.59375 56 
Q 45.5625 56 51.78125 48.09375 
Q 58.015625 40.1875 58.015625 27.296875 
Q 58.015625 14.40625 51.78125 6.484375 
Q 45.5625 -1.421875 35.59375 -1.421875 
Q 29.59375 -1.421875 25.265625 0.953125 
Q 20.953125 3.328125 18.109375 8.203125 
z
M 48.6875 27.296875 
Q 48.6875 37.203125 44.609375 42.84375 
Q 40.53125 48.484375 33.40625 48.484375 
Q 26.265625 48.484375 22.1875 42.84375 
Q 18.109375 37.203125 18.109375 27.296875 
Q 18.109375 17.390625 22.1875 11.75 
Q 26.265625 6.109375 33.40625 6.109375 
Q 40.53125 6.109375 44.609375 11.75 
Q 48.6875 17.390625 48.6875 27.296875 
z
" id="DejaVuSans-70"/>
     <path d="M 31 75.875 
Q 24.46875 64.65625 21.28125 53.65625 
Q 18.109375 42.671875 18.109375 31.390625 
Q 18.109375 20.125 21.3125 9.0625 
Q 24.515625 -2 31 -13.1875 
L 23.1875 -13.1875 
Q 15.875 -1.703125 12.234375 9.375 
Q 8.59375 20.453125 8.59375 31.390625 
Q 8.59375 42.28125 12.203125 53.3125 
Q 15.828125 64.359375 23.1875 75.875 
z
" id="DejaVuSans-28"/>
     <path d="M 54.890625 33.015625 
L 54.890625 0 
L 45.90625 0 
L 45.90625 32.71875 
Q 45.90625 40.484375 42.875 44.328125 
Q 39.84375 48.1875 33.796875 48.1875 
Q 26.515625 48.1875 22.3125 43.546875 
Q 18.109375 38.921875 18.109375 30.90625 
L 18.109375 0 
L 9.078125 0 
L 9.078125 75.984375 
L 18.109375 75.984375 
L 18.109375 46.1875 
Q 21.34375 51.125 25.703125 53.5625 
Q 30.078125 56 35.796875 56 
Q 45.21875 56 50.046875 50.171875 
Q 54.890625 44.34375 54.890625 33.015625 
z
" id="DejaVuSans-68"/>
     <path d="M 45.40625 46.390625 
L 45.40625 75.984375 
L 54.390625 75.984375 
L 54.390625 0 
L 45.40625 0 
L 45.40625 8.203125 
Q 42.578125 3.328125 38.25 0.953125 
Q 33.9375 -1.421875 27.875 -1.421875 
Q 17.96875 -1.421875 11.734375 6.484375 
Q 5.515625 14.40625 5.515625 27.296875 
Q 5.515625 40.1875 11.734375 48.09375 
Q 17.96875 56 27.875 56 
Q 33.9375 56 38.25 53.625 
Q 42.578125 51.265625 45.40625 46.390625 
z
M 14.796875 27.296875 
Q 14.796875 17.390625 18.875 11.75 
Q 22.953125 6.109375 30.078125 6.109375 
Q 37.203125 6.109375 41.296875 11.75 
Q 45.40625 17.390625 45.40625 27.296875 
Q 45.40625 37.203125 41.296875 42.84375 
Q 37.203125 48.484375 30.078125 48.484375 
Q 22.953125 48.484375 18.875 42.84375 
Q 14.796875 37.203125 14.796875 27.296875 
z
" id="DejaVuSans-64"/>
     <path d="M 8.015625 75.875 
L 15.828125 75.875 
Q 23.140625 64.359375 26.78125 53.3125 
Q 30.421875 42.28125 30.421875 31.390625 
Q 30.421875 20.453125 26.78125 9.375 
Q 23.140625 -1.703125 15.828125 -13.1875 
L 8.015625 -13.1875 
Q 14.5 -2 17.703125 9.0625 
Q 20.90625 20.125 20.90625 31.390625 
Q 20.90625 42.671875 17.703125 53.65625 
Q 14.5 64.65625 8.015625 75.875 
z
" id="DejaVuSans-29"/>
    </defs>
    <g transform="translate(86.8575 35.472)scale(0.12 -0.12)">
     <use xlink:href="#DejaVuSans-53"/>
     <use x="63.476562" xlink:href="#DejaVuSans-43"/>
     <use x="133.300781" xlink:href="#DejaVuSans-54"/>
     <use x="194.134766" xlink:href="#DejaVuSans-73"/>
     <use x="246.234375" xlink:href="#DejaVuSans-20"/>
     <use x="278.021484" xlink:href="#DejaVuSans-62"/>
     <use x="341.498047" xlink:href="#DejaVuSans-79"/>
     <use x="400.677734" xlink:href="#DejaVuSans-20"/>
     <use x="432.464844" xlink:href="#DejaVuSans-43"/>
     <use x="502.289062" xlink:href="#DejaVuSans-54"/>
     <use x="563.232422" xlink:href="#DejaVuSans-2d"/>
     <use x="599.316406" xlink:href="#DejaVuSans-4c"/>
     <use x="655.013672" xlink:href="#DejaVuSans-6f"/>
     <use x="716.195312" xlink:href="#DejaVuSans-67"/>
     <use x="779.671875" xlink:href="#DejaVuSans-2d"/>
     <use x="815.787109" xlink:href="#DejaVuSans-4f"/>
     <use x="894.498047" xlink:href="#DejaVuSans-70"/>
     <use x="957.974609" xlink:href="#DejaVuSans-65"/>
     <use x="1019.498047" xlink:href="#DejaVuSans-72"/>
     <use x="1060.611328" xlink:href="#DejaVuSans-61"/>
     <use x="1121.890625" xlink:href="#DejaVuSans-74"/>
     <use x="1161.099609" xlink:href="#DejaVuSans-6f"/>
     <use x="1222.28125" xlink:href="#DejaVuSans-72"/>
     <use x="1263.394531" xlink:href="#DejaVuSans-20"/>
     <use x="1295.181641" xlink:href="#DejaVuSans-28"/>
     <use x="1334.195312" xlink:href="#DejaVuSans-63"/>
     <use x="1389.175781" xlink:href="#DejaVuSans-68"/>
     <use x="1452.554688" xlink:href="#DejaVuSans-72"/>
     <use x="1493.636719" xlink:href="#DejaVuSans-6f"/>
     <use x="1554.818359" xlink:href="#DejaVuSans-6d"/>
     <use x="1652.230469" xlink:href="#DejaVuSans-65"/>
     <use x="1713.753906" xlink:href="#DejaVuSans-20"/>
     <use x="1745.541016" xlink:href="#DejaVuSans-61"/>
     <use x="1806.820312" xlink:href="#DejaVuSans-63"/>
     <use x="1861.800781" xlink:href="#DejaVuSans-63"/>
     <use x="1916.78125" xlink:href="#DejaVuSans-65"/>
     <use x="1978.304688" xlink:href="#DejaVuSans-70"/>
     <use x="2041.78125" xlink:href="#DejaVuSans-74"/>
     <use x="2080.990234" xlink:href="#DejaVuSans-65"/>
     <use x="2142.513672" xlink:href="#DejaVuSans-64"/>
     <use x="2205.990234" xlink:href="#DejaVuSans-20"/>
     <use x="2237.777344" xlink:href="#DejaVuSans-6f"/>
     <use x="2298.958984" xlink:href="#DejaVuSans-6e"/>
     <use x="2362.337891" xlink:href="#DejaVuSans-6c"/>
     <use x="2390.121094" xlink:href="#DejaVuSans-79"/>
     <use x="2449.300781" xlink:href="#DejaVuSans-29"/>
    </g>
   </g>
  </g>
 </g>
 <defs>
  <clipPath id="p77f93a6e63">
   <rect height="266.112" width="357.12" x="57.6" y="41.472"/>
  </clipPath>
 </defs>
</svg>
