<?xml version="1.0" encoding="utf-8" standalone="no"?>
<!DOCTYPE svg PUBLIC "-//W3C//DTD SVG 1.1//EN"
  "http://www.w3.org/Graphics/SVG/1.1/DTD/svg11.dtd">
<!-- Created with matplotlib (http://matplotlib.org/) -->
<svg height="345pt" version="1.1" viewBox="0 0 460 345" width="460pt" xmlns="http://www.w3.org/2000/svg" xmlns:xlink="http://www.w3.org/1999/xlink">
 <defs>
  <style type="text/css">
*{stroke-linecap:butt;stroke-linejoin:round;}
  </style>
 </defs>
 <g id="figure_1">
  <g id="patch_1">
   <path d="M 0 345.6 
L 460.8 345.6 
L 460.8 0 
L 0 0 
z
" style="fill:#ffffff;"/>
  </g>
  <g id="axes_1">
   <g id="patch_2">
    <path d="M 57.6 307.584 
L 414.72 307.584 
L 414.72 41.472 
L 57.6 41.472 
z
" style="fill:#ffffff;"/>
   </g>
   <g id="PolyCollection_1">
    <path clip-path="url(#p6934337b43)" d="M 73.832727 295.780407 
L 73.832727 307.584 
L 77.112066 307.584 
L 80.391405 307.584 
L 83.670744 307.584 
L 86.950083 307.584 
L 90.229421 307.584 
L 93.50876 307.584 
L 96.788099 307.584 
L 100.067438 307.584 
L 103.346777 307.584 
L 106.626116 307.584 
L 109.905455 307.584 
L 113.184793 307.584 
L 116.464132 307.584 
L 119.743471 307.584 
L 123.02281 307.584 
L 126.302149 307.584 
L 129.581488 307.584 
L 132.860826 307.584 
L 136.140165 307.584 
L 139.419504 307.584 
L 142.698843 307.584 
L 145.978182 307.584 
L 149.257521 307.584 
L 152.53686 307.584 
L 155.816198 307.584 
L 159.095537 307.584 
L 162.374876 307.584 
L 165.654215 307.584 
L 168.933554 307.584 
L 172.212893 307.584 
L 175.492231 307.584 
L 178.77157 307.584 
L 182.050909 307.584 
L 185.330248 307.584 
L 188.609587 307.584 
L 191.888926 307.584 
L 195.168264 307.584 
L 198.447603 307.584 
L 201.726942 307.584 
L 205.006281 307.584 
L 208.28562 307.584 
L 211.564959 307.584 
L 214.844298 307.584 
L 218.123636 307.584 
L 221.402975 307.584 
L 224.682314 307.584 
L 227.961653 307.584 
L 231.240992 307.584 
L 234.520331 307.584 
L 237.799669 307.584 
L 241.079008 307.584 
L 244.358347 307.584 
L 247.637686 307.584 
L 250.917025 307.584 
L 254.196364 307.584 
L 257.475702 307.584 
L 260.755041 307.584 
L 264.03438 307.584 
L 267.313719 307.584 
L 270.593058 307.584 
L 273.872397 307.584 
L 277.151736 307.584 
L 280.431074 307.584 
L 283.710413 307.584 
L 286.989752 307.584 
L 290.269091 307.584 
L 293.54843 307.584 
L 296.827769 307.584 
L 300.107107 307.584 
L 303.386446 307.584 
L 306.665785 307.584 
L 309.945124 307.584 
L 313.224463 307.584 
L 316.503802 307.584 
L 319.78314 307.584 
L 323.062479 307.584 
L 326.341818 307.584 
L 329.621157 307.584 
L 332.900496 307.584 
L 336.179835 307.584 
L 339.459174 307.584 
L 342.738512 307.584 
L 346.017851 307.584 
L 349.29719 307.584 
L 352.576529 307.584 
L 355.855868 307.584 
L 359.135207 307.584 
L 362.414545 307.584 
L 365.693884 307.584 
L 368.973223 307.584 
L 372.252562 307.584 
L 375.531901 307.584 
L 378.81124 307.584 
L 382.090579 307.584 
L 385.369917 307.584 
L 388.649256 307.584 
L 391.928595 307.584 
L 395.207934 307.584 
L 398.487273 307.584 
L 398.487273 300.689907 
L 398.487273 300.689907 
L 395.207934 298.775921 
L 391.928595 300.852526 
L 388.649256 300.129882 
L 385.369917 300.338152 
L 382.090579 300.393079 
L 378.81124 299.258113 
L 375.531901 301.277045 
L 372.252562 298.646994 
L 368.973223 298.532571 
L 365.693884 301.001143 
L 362.414545 299.979147 
L 359.135207 299.214119 
L 355.855868 300.932479 
L 352.576529 300.783581 
L 349.29719 300.218505 
L 346.017851 300.084767 
L 342.738512 300.492408 
L 339.459174 300.395398 
L 336.179835 302.422652 
L 332.900496 299.419052 
L 329.621157 299.694191 
L 326.341818 299.924184 
L 323.062479 301.414737 
L 319.78314 300.089806 
L 316.503802 299.091595 
L 313.224463 296.989513 
L 309.945124 300.74287 
L 306.665785 301.281173 
L 303.386446 301.252059 
L 300.107107 300.326907 
L 296.827769 299.440041 
L 293.54843 299.063604 
L 290.269091 301.670948 
L 286.989752 300.72986 
L 283.710413 301.545721 
L 280.431074 301.171856 
L 277.151736 299.232365 
L 273.872397 300.773712 
L 270.593058 301.157368 
L 267.313719 298.090057 
L 264.03438 301.933534 
L 260.755041 299.705036 
L 257.475702 299.351236 
L 254.196364 299.174475 
L 250.917025 301.32831 
L 247.637686 298.649166 
L 244.358347 301.881181 
L 241.079008 299.914105 
L 237.799669 299.092454 
L 234.520331 300.626824 
L 231.240992 299.962964 
L 227.961653 300.638118 
L 224.682314 301.929152 
L 221.402975 299.720315 
L 218.123636 300.755243 
L 214.844298 301.47104 
L 211.564959 299.076008 
L 208.28562 300.038214 
L 205.006281 300.729962 
L 201.726942 299.780844 
L 198.447603 298.81169 
L 195.168264 299.616321 
L 191.888926 300.760615 
L 188.609587 299.500864 
L 185.330248 300.324822 
L 182.050909 299.435339 
L 178.77157 301.22289 
L 175.492231 300.073483 
L 172.212893 302.46055 
L 168.933554 302.248421 
L 165.654215 300.769352 
L 162.374876 300.347256 
L 159.095537 299.37286 
L 155.816198 300.172531 
L 152.53686 299.319652 
L 149.257521 300.763596 
L 145.978182 299.956966 
L 142.698843 300.449032 
L 139.419504 300.408289 
L 136.140165 299.350568 
L 132.860826 298.594529 
L 129.581488 298.58613 
L 126.302149 300.03665 
L 123.02281 301.280981 
L 119.743471 299.389635 
L 116.464132 299.111226 
L 113.184793 299.577567 
L 109.905455 299.013565 
L 106.626116 299.00735 
L 103.346777 298.4613 
L 100.067438 299.024778 
L 96.788099 298.274526 
L 93.50876 298.854246 
L 90.229421 297.977297 
L 86.950083 300.095104 
L 83.670744 298.123568 
L 80.391405 300.163459 
L 77.112066 299.023266 
L 73.832727 295.780407 
z
" style="fill:#e6550d;"/>
   </g>
   <g id="PolyCollection_2">
    <path clip-path="url(#p6934337b43)" d="M 73.832727 248.650347 
L 73.832727 295.780407 
L 77.112066 299.023266 
L 80.391405 300.163459 
L 83.670744 298.123568 
L 86.950083 300.095104 
L 90.229421 297.977297 
L 93.50876 298.854246 
L 96.788099 298.274526 
L 100.067438 299.024778 
L 103.346777 298.4613 
L 106.626116 299.00735 
L 109.905455 299.013565 
L 113.184793 299.577567 
L 116.464132 299.111226 
L 119.743471 299.389635 
L 123.02281 301.280981 
L 126.302149 300.03665 
L 129.581488 298.58613 
L 132.860826 298.594529 
L 136.140165 299.350568 
L 139.419504 300.408289 
L 142.698843 300.449032 
L 145.978182 299.956966 
L 149.257521 300.763596 
L 152.53686 299.319652 
L 155.816198 300.172531 
L 159.095537 299.37286 
L 162.374876 300.347256 
L 165.654215 300.769352 
L 168.933554 302.248421 
L 172.212893 302.46055 
L 175.492231 300.073483 
L 178.77157 301.22289 
L 182.050909 299.435339 
L 185.330248 300.324822 
L 188.609587 299.500864 
L 191.888926 300.760615 
L 195.168264 299.616321 
L 198.447603 298.81169 
L 201.726942 299.780844 
L 205.006281 300.729962 
L 208.28562 300.038214 
L 211.564959 299.076008 
L 214.844298 301.47104 
L 218.123636 300.755243 
L 221.402975 299.720315 
L 224.682314 301.929152 
L 227.961653 300.638118 
L 231.240992 299.962964 
L 234.520331 300.626824 
L 237.799669 299.092454 
L 241.079008 299.914105 
L 244.358347 301.881181 
L 247.637686 298.649166 
L 250.917025 301.32831 
L 254.196364 299.174475 
L 257.475702 299.351236 
L 260.755041 299.705036 
L 264.03438 301.933534 
L 267.313719 298.090057 
L 270.593058 301.157368 
L 273.872397 300.773712 
L 277.151736 299.232365 
L 280.431074 301.171856 
L 283.710413 301.545721 
L 286.989752 300.72986 
L 290.269091 301.670948 
L 293.54843 299.063604 
L 296.827769 299.440041 
L 300.107107 300.326907 
L 303.386446 301.252059 
L 306.665785 301.281173 
L 309.945124 300.74287 
L 313.224463 296.989513 
L 316.503802 299.091595 
L 319.78314 300.089806 
L 323.062479 301.414737 
L 326.341818 299.924184 
L 329.621157 299.694191 
L 332.900496 299.419052 
L 336.179835 302.422652 
L 339.459174 300.395398 
L 342.738512 300.492408 
L 346.017851 300.084767 
L 349.29719 300.218505 
L 352.576529 300.783581 
L 355.855868 300.932479 
L 359.135207 299.214119 
L 362.414545 299.979147 
L 365.693884 301.001143 
L 368.973223 298.532571 
L 372.252562 298.646994 
L 375.531901 301.277045 
L 378.81124 299.258113 
L 382.090579 300.393079 
L 385.369917 300.338152 
L 388.649256 300.129882 
L 391.928595 300.852526 
L 395.207934 298.775921 
L 398.487273 300.689907 
L 398.487273 230.928249 
L 398.487273 230.928249 
L 395.207934 233.463187 
L 391.928595 229.667187 
L 388.649256 228.073412 
L 385.369917 235.948912 
L 382.090579 233.917014 
L 378.81124 232.317982 
L 375.531901 232.730405 
L 372.252562 231.197892 
L 368.973223 235.980735 
L 365.693884 230.564571 
L 362.414545 233.684665 
L 359.135207 231.752877 
L 355.855868 231.347338 
L 352.576529 232.447665 
L 349.29719 227.902732 
L 346.017851 232.932541 
L 342.738512 227.719163 
L 339.459174 232.020095 
L 336.179835 230.341753 
L 332.900496 236.059052 
L 329.621157 237.863848 
L 326.341818 234.815748 
L 323.062479 232.885895 
L 319.78314 231.449806 
L 316.503802 235.814854 
L 313.224463 231.767201 
L 309.945124 236.627164 
L 306.665785 232.447665 
L 303.386446 235.172571 
L 300.107107 235.571313 
L 296.827769 237.871712 
L 293.54843 235.745371 
L 290.269091 239.419645 
L 286.989752 235.452332 
L 283.710413 235.795568 
L 280.431074 240.8977 
L 277.151736 235.149627 
L 273.872397 237.535324 
L 270.593058 241.175469 
L 267.313719 240.643657 
L 264.03438 237.11937 
L 260.755041 237.165762 
L 257.475702 237.363363 
L 254.196364 241.626941 
L 250.917025 238.095114 
L 247.637686 237.651742 
L 244.358347 242.001578 
L 241.079008 237.554526 
L 237.799669 239.651629 
L 234.520331 238.343529 
L 231.240992 238.183923 
L 227.961653 237.278118 
L 224.682314 233.899619 
L 221.402975 239.432067 
L 218.123636 234.79566 
L 214.844298 241.663166 
L 211.564959 239.683677 
L 208.28562 240.328078 
L 205.006281 242.709736 
L 201.726942 239.794083 
L 198.447603 236.129551 
L 195.168264 240.282542 
L 191.888926 241.462154 
L 188.609587 246.118485 
L 185.330248 243.987288 
L 182.050909 243.226205 
L 178.77157 238.281384 
L 175.492231 243.34511 
L 172.212893 242.857747 
L 168.933554 246.224842 
L 165.654215 240.248789 
L 162.374876 247.380452 
L 159.095537 240.315813 
L 155.816198 241.686378 
L 152.53686 245.754435 
L 149.257521 248.060477 
L 145.978182 247.044414 
L 142.698843 244.409806 
L 139.419504 245.750747 
L 136.140165 250.698471 
L 132.860826 249.073583 
L 129.581488 245.348734 
L 126.302149 244.940998 
L 123.02281 247.0457 
L 119.743471 253.296333 
L 116.464132 245.598968 
L 113.184793 250.519968 
L 109.905455 250.498783 
L 106.626116 247.83334 
L 103.346777 244.722898 
L 100.067438 250.57088 
L 96.788099 245.474526 
L 93.50876 250.217045 
L 90.229421 250.196589 
L 86.950083 253.58512 
L 83.670744 254.804747 
L 80.391405 256.439351 
L 77.112066 257.276477 
L 73.832727 248.650347 
z
" style="fill:#fd8d3c;"/>
   </g>
   <g id="PolyCollection_3">
    <path clip-path="url(#p6934337b43)" d="M 73.832727 224.537293 
L 73.832727 248.650347 
L 77.112066 257.276477 
L 80.391405 256.439351 
L 83.670744 254.804747 
L 86.950083 253.58512 
L 90.229421 250.196589 
L 93.50876 250.217045 
L 96.788099 245.474526 
L 100.067438 250.57088 
L 103.346777 244.722898 
L 106.626116 247.83334 
L 109.905455 250.498783 
L 113.184793 250.519968 
L 116.464132 245.598968 
L 119.743471 253.296333 
L 123.02281 247.0457 
L 126.302149 244.940998 
L 129.581488 245.348734 
L 132.860826 249.073583 
L 136.140165 250.698471 
L 139.419504 245.750747 
L 142.698843 244.409806 
L 145.978182 247.044414 
L 149.257521 248.060477 
L 152.53686 245.754435 
L 155.816198 241.686378 
L 159.095537 240.315813 
L 162.374876 247.380452 
L 165.654215 240.248789 
L 168.933554 246.224842 
L 172.212893 242.857747 
L 175.492231 243.34511 
L 178.77157 238.281384 
L 182.050909 243.226205 
L 185.330248 243.987288 
L 188.609587 246.118485 
L 191.888926 241.462154 
L 195.168264 240.282542 
L 198.447603 236.129551 
L 201.726942 239.794083 
L 205.006281 242.709736 
L 208.28562 240.328078 
L 211.564959 239.683677 
L 214.844298 241.663166 
L 218.123636 234.79566 
L 221.402975 239.432067 
L 224.682314 233.899619 
L 227.961653 237.278118 
L 231.240992 238.183923 
L 234.520331 238.343529 
L 237.799669 239.651629 
L 241.079008 237.554526 
L 244.358347 242.001578 
L 247.637686 237.651742 
L 250.917025 238.095114 
L 254.196364 241.626941 
L 257.475702 237.363363 
L 260.755041 237.165762 
L 264.03438 237.11937 
L 267.313719 240.643657 
L 270.593058 241.175469 
L 273.872397 237.535324 
L 277.151736 235.149627 
L 280.431074 240.8977 
L 283.710413 235.795568 
L 286.989752 235.452332 
L 290.269091 239.419645 
L 293.54843 235.745371 
L 296.827769 237.871712 
L 300.107107 235.571313 
L 303.386446 235.172571 
L 306.665785 232.447665 
L 309.945124 236.627164 
L 313.224463 231.767201 
L 316.503802 235.814854 
L 319.78314 231.449806 
L 323.062479 232.885895 
L 326.341818 234.815748 
L 329.621157 237.863848 
L 332.900496 236.059052 
L 336.179835 230.341753 
L 339.459174 232.020095 
L 342.738512 227.719163 
L 346.017851 232.932541 
L 349.29719 227.902732 
L 352.576529 232.447665 
L 355.855868 231.347338 
L 359.135207 231.752877 
L 362.414545 233.684665 
L 365.693884 230.564571 
L 368.973223 235.980735 
L 372.252562 231.197892 
L 375.531901 232.730405 
L 378.81124 232.317982 
L 382.090579 233.917014 
L 385.369917 235.948912 
L 388.649256 228.073412 
L 391.928595 229.667187 
L 395.207934 233.463187 
L 398.487273 230.928249 
L 398.487273 204.008456 
L 398.487273 204.008456 
L 395.207934 204.878479 
L 391.928595 200.890135 
L 388.649256 199.416471 
L 385.369917 206.636164 
L 382.090579 204.833735 
L 378.81124 202.511306 
L 375.531901 204.017163 
L 372.252562 196.461605 
L 368.973223 204.139102 
L 365.693884 202.258286 
L 362.414545 203.926544 
L 359.135207 203.462679 
L 355.855868 201.841873 
L 352.576529 199.772482 
L 349.29719 194.423207 
L 346.017851 204.469541 
L 342.738512 200.872421 
L 339.459174 202.095451 
L 336.179835 201.687371 
L 332.900496 206.012041 
L 329.621157 206.465626 
L 326.341818 206.507732 
L 323.062479 201.205895 
L 319.78314 201.984 
L 316.503802 201.179164 
L 313.224463 204.12221 
L 309.945124 204.967051 
L 306.665785 202.592168 
L 303.386446 207.571803 
L 300.107107 205.984705 
L 296.827769 208.879219 
L 293.54843 209.515918 
L 290.269091 208.211868 
L 286.989752 205.261476 
L 283.710413 205.771902 
L 280.431074 208.516372 
L 277.151736 202.546129 
L 273.872397 205.267532 
L 270.593058 209.207095 
L 267.313719 206.208 
L 264.03438 205.377049 
L 260.755041 208.932808 
L 257.475702 207.015134 
L 254.196364 209.472874 
L 250.917025 210.705334 
L 247.637686 206.208 
L 244.358347 208.120122 
L 241.079008 207.541895 
L 237.799669 206.501938 
L 234.520331 204.717176 
L 231.240992 206.40258 
L 227.961653 208.308706 
L 224.682314 202.198199 
L 221.402975 206.994368 
L 218.123636 203.135059 
L 214.844298 209.611432 
L 211.564959 207.287861 
L 208.28562 209.816854 
L 205.006281 210.192906 
L 201.726942 210.85738 
L 198.447603 203.751753 
L 195.168264 208.411826 
L 191.888926 206.532923 
L 188.609587 212.438751 
L 185.330248 211.00537 
L 182.050909 212.294551 
L 178.77157 206.141041 
L 175.492231 215.060822 
L 172.212893 210.067666 
L 168.933554 211.700508 
L 165.654215 207.473577 
L 162.374876 214.892092 
L 159.095537 212.997981 
L 155.816198 212.684979 
L 152.53686 214.839652 
L 149.257521 214.423486 
L 145.978182 218.443034 
L 142.698843 214.383484 
L 139.419504 215.215807 
L 136.140165 217.01625 
L 132.860826 217.689289 
L 129.581488 215.655763 
L 126.302149 217.166752 
L 123.02281 215.530605 
L 119.743471 222.86012 
L 116.464132 218.396903 
L 113.184793 216.310663 
L 109.905455 221.267478 
L 106.626116 220.673949 
L 103.346777 218.495136 
L 100.067438 219.960783 
L 96.788099 216.712421 
L 93.50876 219.73219 
L 90.229421 223.778155 
L 86.950083 227.045524 
L 83.670744 229.161996 
L 80.391405 234.291892 
L 77.112066 235.081982 
L 73.832727 224.537293 
z
" style="fill:#fdae6b;"/>
   </g>
   <g id="PolyCollection_4">
    <path clip-path="url(#p6934337b43)" d="M 73.832727 55.99885 
L 73.832727 224.537293 
L 77.112066 235.081982 
L 80.391405 234.291892 
L 83.670744 229.161996 
L 86.950083 227.045524 
L 90.229421 223.778155 
L 93.50876 219.73219 
L 96.788099 216.712421 
L 100.067438 219.960783 
L 103.346777 218.495136 
L 106.626116 220.673949 
L 109.905455 221.267478 
L 113.184793 216.310663 
L 116.464132 218.396903 
L 119.743471 222.86012 
L 123.02281 215.530605 
L 126.302149 217.166752 
L 129.581488 215.655763 
L 132.860826 217.689289 
L 136.140165 217.01625 
L 139.419504 215.215807 
L 142.698843 214.383484 
L 145.978182 218.443034 
L 149.257521 214.423486 
L 152.53686 214.839652 
L 155.816198 212.684979 
L 159.095537 212.997981 
L 162.374876 214.892092 
L 165.654215 207.473577 
L 168.933554 211.700508 
L 172.212893 210.067666 
L 175.492231 215.060822 
L 178.77157 206.141041 
L 182.050909 212.294551 
L 185.330248 211.00537 
L 188.609587 212.438751 
L 191.888926 206.532923 
L 195.168264 208.411826 
L 198.447603 203.751753 
L 201.726942 210.85738 
L 205.006281 210.192906 
L 208.28562 209.816854 
L 211.564959 207.287861 
L 214.844298 209.611432 
L 218.123636 203.135059 
L 221.402975 206.994368 
L 224.682314 202.198199 
L 227.961653 208.308706 
L 231.240992 206.40258 
L 234.520331 204.717176 
L 237.799669 206.501938 
L 241.079008 207.541895 
L 244.358347 208.120122 
L 247.637686 206.208 
L 250.917025 210.705334 
L 254.196364 209.472874 
L 257.475702 207.015134 
L 260.755041 208.932808 
L 264.03438 205.377049 
L 267.313719 206.208 
L 270.593058 209.207095 
L 273.872397 205.267532 
L 277.151736 202.546129 
L 280.431074 208.516372 
L 283.710413 205.771902 
L 286.989752 205.261476 
L 290.269091 208.211868 
L 293.54843 209.515918 
L 296.827769 208.879219 
L 300.107107 205.984705 
L 303.386446 207.571803 
L 306.665785 202.592168 
L 309.945124 204.967051 
L 313.224463 204.12221 
L 316.503802 201.179164 
L 319.78314 201.984 
L 323.062479 201.205895 
L 326.341818 206.507732 
L 329.621157 206.465626 
L 332.900496 206.012041 
L 336.179835 201.687371 
L 339.459174 202.095451 
L 342.738512 200.872421 
L 346.017851 204.469541 
L 349.29719 194.423207 
L 352.576529 199.772482 
L 355.855868 201.841873 
L 359.135207 203.462679 
L 362.414545 203.926544 
L 365.693884 202.258286 
L 368.973223 204.139102 
L 372.252562 196.461605 
L 375.531901 204.017163 
L 378.81124 202.511306 
L 382.090579 204.833735 
L 385.369917 206.636164 
L 388.649256 199.416471 
L 391.928595 200.890135 
L 395.207934 204.878479 
L 398.487273 204.008456 
L 398.487273 54.144 
L 398.487273 54.144 
L 395.207934 54.64257 
L 391.928595 54.144 
L 388.649256 54.475294 
L 385.369917 54.638035 
L 382.090579 54.144 
L 378.81124 54.310518 
L 375.531901 54.309972 
L 372.252562 54.312623 
L 368.973223 54.467265 
L 365.693884 54.473143 
L 362.414545 54.309323 
L 359.135207 54.478795 
L 355.855868 54.144 
L 352.576529 54.475728 
L 349.29719 54.478795 
L 346.017851 54.484874 
L 342.738512 54.81939 
L 339.459174 54.311177 
L 336.179835 54.321978 
L 332.900496 54.470598 
L 329.621157 54.466033 
L 326.341818 54.810071 
L 323.062479 54.144 
L 319.78314 54.82529 
L 316.503802 54.643553 
L 313.224463 54.640617 
L 309.945124 54.462192 
L 306.665785 54.475728 
L 303.386446 54.306357 
L 300.107107 54.702238 
L 296.827769 54.306879 
L 293.54843 54.6452 
L 290.269091 54.472503 
L 286.989752 54.633581 
L 283.710413 54.47946 
L 280.431074 54.785214 
L 277.151736 54.625825 
L 273.872397 54.30615 
L 270.593058 54.473571 
L 267.313719 54.465829 
L 264.03438 54.47638 
L 260.755041 54.308145 
L 257.475702 54.466854 
L 254.196364 54.473785 
L 250.917025 54.313073 
L 247.637686 54.831295 
L 244.358347 54.31173 
L 241.079008 54.310737 
L 237.799669 54.470598 
L 234.520331 54.972235 
L 231.240992 54.792599 
L 227.961653 54.652235 
L 224.682314 54.315359 
L 221.402975 54.471654 
L 218.123636 54.299199 
L 214.844298 55.135291 
L 211.564959 54.962076 
L 208.28562 54.636117 
L 205.006281 54.781585 
L 201.726942 54.794263 
L 198.447603 54.781986 
L 195.168264 54.313525 
L 191.888926 54.468923 
L 188.609587 54.144 
L 185.330248 54.933041 
L 182.050909 54.642898 
L 178.77157 54.144 
L 175.492231 54.942991 
L 172.212893 54.485563 
L 168.933554 54.300929 
L 165.654215 54.955268 
L 162.374876 54.60592 
L 159.095537 54.459813 
L 155.816198 55.271832 
L 152.53686 54.60313 
L 149.257521 54.919046 
L 145.978182 55.097379 
L 142.698843 54.887226 
L 139.419504 54.754699 
L 136.140165 54.742795 
L 132.860826 54.61713 
L 129.581488 55.343716 
L 126.302149 55.200629 
L 123.02281 54.290582 
L 119.743471 55.021968 
L 116.464132 55.630452 
L 113.184793 55.163001 
L 109.905455 54.756174 
L 106.626116 55.573442 
L 103.346777 55.141795 
L 100.067438 55.594716 
L 96.788099 54.699789 
L 93.50876 54.69827 
L 90.229421 55.155232 
L 86.950083 55.326457 
L 83.670744 55.388794 
L 80.391405 55.171459 
L 77.112066 55.940697 
L 73.832727 55.99885 
z
" style="fill:#dadaeb;"/>
   </g>
   <g id="PolyCollection_5">
    <path clip-path="url(#p6934337b43)" d="M 73.832727 54.144 
L 73.832727 55.99885 
L 77.112066 55.940697 
L 80.391405 55.171459 
L 83.670744 55.388794 
L 86.950083 55.326457 
L 90.229421 55.155232 
L 93.50876 54.69827 
L 96.788099 54.699789 
L 100.067438 55.594716 
L 103.346777 55.141795 
L 106.626116 55.573442 
L 109.905455 54.756174 
L 113.184793 55.163001 
L 116.464132 55.630452 
L 119.743471 55.021968 
L 123.02281 54.290582 
L 126.302149 55.200629 
L 129.581488 55.343716 
L 132.860826 54.61713 
L 136.140165 54.742795 
L 139.419504 54.754699 
L 142.698843 54.887226 
L 145.978182 55.097379 
L 149.257521 54.919046 
L 152.53686 54.60313 
L 155.816198 55.271832 
L 159.095537 54.459813 
L 162.374876 54.60592 
L 165.654215 54.955268 
L 168.933554 54.300929 
L 172.212893 54.485563 
L 175.492231 54.942991 
L 178.77157 54.144 
L 182.050909 54.642898 
L 185.330248 54.933041 
L 188.609587 54.144 
L 191.888926 54.468923 
L 195.168264 54.313525 
L 198.447603 54.781986 
L 201.726942 54.794263 
L 205.006281 54.781585 
L 208.28562 54.636117 
L 211.564959 54.962076 
L 214.844298 55.135291 
L 218.123636 54.299199 
L 221.402975 54.471654 
L 224.682314 54.315359 
L 227.961653 54.652235 
L 231.240992 54.792599 
L 234.520331 54.972235 
L 237.799669 54.470598 
L 241.079008 54.310737 
L 244.358347 54.31173 
L 247.637686 54.831295 
L 250.917025 54.313073 
L 254.196364 54.473785 
L 257.475702 54.466854 
L 260.755041 54.308145 
L 264.03438 54.47638 
L 267.313719 54.465829 
L 270.593058 54.473571 
L 273.872397 54.30615 
L 277.151736 54.625825 
L 280.431074 54.785214 
L 283.710413 54.47946 
L 286.989752 54.633581 
L 290.269091 54.472503 
L 293.54843 54.6452 
L 296.827769 54.306879 
L 300.107107 54.702238 
L 303.386446 54.306357 
L 306.665785 54.475728 
L 309.945124 54.462192 
L 313.224463 54.640617 
L 316.503802 54.643553 
L 319.78314 54.82529 
L 323.062479 54.144 
L 326.341818 54.810071 
L 329.621157 54.466033 
L 332.900496 54.470598 
L 336.179835 54.321978 
L 339.459174 54.311177 
L 342.738512 54.81939 
L 346.017851 54.484874 
L 349.29719 54.478795 
L 352.576529 54.475728 
L 355.855868 54.144 
L 359.135207 54.478795 
L 362.414545 54.309323 
L 365.693884 54.473143 
L 368.973223 54.467265 
L 372.252562 54.312623 
L 375.531901 54.309972 
L 378.81124 54.310518 
L 382.090579 54.144 
L 385.369917 54.638035 
L 388.649256 54.475294 
L 391.928595 54.144 
L 395.207934 54.64257 
L 398.487273 54.144 
L 398.487273 54.144 
L 398.487273 54.144 
L 395.207934 54.144 
L 391.928595 54.144 
L 388.649256 54.144 
L 385.369917 54.144 
L 382.090579 54.144 
L 378.81124 54.144 
L 375.531901 54.144 
L 372.252562 54.144 
L 368.973223 54.144 
L 365.693884 54.144 
L 362.414545 54.144 
L 359.135207 54.144 
L 355.855868 54.144 
L 352.576529 54.144 
L 349.29719 54.144 
L 346.017851 54.144 
L 342.738512 54.144 
L 339.459174 54.144 
L 336.179835 54.144 
L 332.900496 54.144 
L 329.621157 54.144 
L 326.341818 54.144 
L 323.062479 54.144 
L 319.78314 54.144 
L 316.503802 54.144 
L 313.224463 54.144 
L 309.945124 54.144 
L 306.665785 54.144 
L 303.386446 54.144 
L 300.107107 54.144 
L 296.827769 54.144 
L 293.54843 54.144 
L 290.269091 54.144 
L 286.989752 54.144 
L 283.710413 54.144 
L 280.431074 54.144 
L 277.151736 54.144 
L 273.872397 54.144 
L 270.593058 54.144 
L 267.313719 54.144 
L 264.03438 54.144 
L 260.755041 54.144 
L 257.475702 54.144 
L 254.196364 54.144 
L 250.917025 54.144 
L 247.637686 54.144 
L 244.358347 54.144 
L 241.079008 54.144 
L 237.799669 54.144 
L 234.520331 54.144 
L 231.240992 54.144 
L 227.961653 54.144 
L 224.682314 54.144 
L 221.402975 54.144 
L 218.123636 54.144 
L 214.844298 54.144 
L 211.564959 54.144 
L 208.28562 54.144 
L 205.006281 54.144 
L 201.726942 54.144 
L 198.447603 54.144 
L 195.168264 54.144 
L 191.888926 54.144 
L 188.609587 54.144 
L 185.330248 54.144 
L 182.050909 54.144 
L 178.77157 54.144 
L 175.492231 54.144 
L 172.212893 54.144 
L 168.933554 54.144 
L 165.654215 54.144 
L 162.374876 54.144 
L 159.095537 54.144 
L 155.816198 54.144 
L 152.53686 54.144 
L 149.257521 54.144 
L 145.978182 54.144 
L 142.698843 54.144 
L 139.419504 54.144 
L 136.140165 54.144 
L 132.860826 54.144 
L 129.581488 54.144 
L 126.302149 54.144 
L 123.02281 54.144 
L 119.743471 54.144 
L 116.464132 54.144 
L 113.184793 54.144 
L 109.905455 54.144 
L 106.626116 54.144 
L 103.346777 54.144 
L 100.067438 54.144 
L 96.788099 54.144 
L 93.50876 54.144 
L 90.229421 54.144 
L 86.950083 54.144 
L 83.670744 54.144 
L 80.391405 54.144 
L 77.112066 54.144 
L 73.832727 54.144 
z
" style="fill:#e6550d;"/>
   </g>
   <g id="matplotlib.axis_1">
    <g id="xtick_1">
     <g id="line2d_1">
      <defs>
       <path d="M 0 0 
L 0 3.5 
" id="m00ea9cbb45" style="stroke:#000000;stroke-width:0.8;"/>
      </defs>
      <g>
       <use style="stroke:#000000;stroke-width:0.8;" x="70.553388" xlink:href="#m00ea9cbb45" y="307.584"/>
      </g>
     </g>
     <g id="text_1">
      <!-- 0 -->
      <defs>
       <path d="M 31.78125 66.40625 
Q 24.171875 66.40625 20.328125 58.90625 
Q 16.5 51.421875 16.5 36.375 
Q 16.5 21.390625 20.328125 13.890625 
Q 24.171875 6.390625 31.78125 6.390625 
Q 39.453125 6.390625 43.28125 13.890625 
Q 47.125 21.390625 47.125 36.375 
Q 47.125 51.421875 43.28125 58.90625 
Q 39.453125 66.40625 31.78125 66.40625 
z
M 31.78125 74.21875 
Q 44.046875 74.21875 50.515625 64.515625 
Q 56.984375 54.828125 56.984375 36.375 
Q 56.984375 17.96875 50.515625 8.265625 
Q 44.046875 -1.421875 31.78125 -1.421875 
Q 19.53125 -1.421875 13.0625 8.265625 
Q 6.59375 17.96875 6.59375 36.375 
Q 6.59375 54.828125 13.0625 64.515625 
Q 19.53125 74.21875 31.78125 74.21875 
z
" id="DejaVuSans-30"/>
      </defs>
      <g transform="translate(67.372138 322.182437)scale(0.1 -0.1)">
       <use xlink:href="#DejaVuSans-30"/>
      </g>
     </g>
    </g>
    <g id="xtick_2">
     <g id="line2d_2">
      <g>
       <use style="stroke:#000000;stroke-width:0.8;" x="136.140165" xlink:href="#m00ea9cbb45" y="307.584"/>
      </g>
     </g>
     <g id="text_2">
      <!-- 200000 -->
      <defs>
       <path d="M 19.1875 8.296875 
L 53.609375 8.296875 
L 53.609375 0 
L 7.328125 0 
L 7.328125 8.296875 
Q 12.9375 14.109375 22.625 23.890625 
Q 32.328125 33.6875 34.8125 36.53125 
Q 39.546875 41.84375 41.421875 45.53125 
Q 43.3125 49.21875 43.3125 52.78125 
Q 43.3125 58.59375 39.234375 62.25 
Q 35.15625 65.921875 28.609375 65.921875 
Q 23.96875 65.921875 18.8125 64.3125 
Q 13.671875 62.703125 7.8125 59.421875 
L 7.8125 69.390625 
Q 13.765625 71.78125 18.9375 73 
Q 24.125 74.21875 28.421875 74.21875 
Q 39.75 74.21875 46.484375 68.546875 
Q 53.21875 62.890625 53.21875 53.421875 
Q 53.21875 48.921875 51.53125 44.890625 
Q 49.859375 40.875 45.40625 35.40625 
Q 44.1875 33.984375 37.640625 27.21875 
Q 31.109375 20.453125 19.1875 8.296875 
z
" id="DejaVuSans-32"/>
      </defs>
      <g transform="translate(117.052665 322.182437)scale(0.1 -0.1)">
       <use xlink:href="#DejaVuSans-32"/>
       <use x="63.623047" xlink:href="#DejaVuSans-30"/>
       <use x="127.246094" xlink:href="#DejaVuSans-30"/>
       <use x="190.869141" xlink:href="#DejaVuSans-30"/>
       <use x="254.492188" xlink:href="#DejaVuSans-30"/>
       <use x="318.115234" xlink:href="#DejaVuSans-30"/>
      </g>
     </g>
    </g>
    <g id="xtick_3">
     <g id="line2d_3">
      <g>
       <use style="stroke:#000000;stroke-width:0.8;" x="201.726942" xlink:href="#m00ea9cbb45" y="307.584"/>
      </g>
     </g>
     <g id="text_3">
      <!-- 400000 -->
      <defs>
       <path d="M 37.796875 64.3125 
L 12.890625 25.390625 
L 37.796875 25.390625 
z
M 35.203125 72.90625 
L 47.609375 72.90625 
L 47.609375 25.390625 
L 58.015625 25.390625 
L 58.015625 17.1875 
L 47.609375 17.1875 
L 47.609375 0 
L 37.796875 0 
L 37.796875 17.1875 
L 4.890625 17.1875 
L 4.890625 26.703125 
z
" id="DejaVuSans-34"/>
      </defs>
      <g transform="translate(182.639442 322.182437)scale(0.1 -0.1)">
       <use xlink:href="#DejaVuSans-34"/>
       <use x="63.623047" xlink:href="#DejaVuSans-30"/>
       <use x="127.246094" xlink:href="#DejaVuSans-30"/>
       <use x="190.869141" xlink:href="#DejaVuSans-30"/>
       <use x="254.492188" xlink:href="#DejaVuSans-30"/>
       <use x="318.115234" xlink:href="#DejaVuSans-30"/>
      </g>
     </g>
    </g>
    <g id="xtick_4">
     <g id="line2d_4">
      <g>
       <use style="stroke:#000000;stroke-width:0.8;" x="267.313719" xlink:href="#m00ea9cbb45" y="307.584"/>
      </g>
     </g>
     <g id="text_4">
      <!-- 600000 -->
      <defs>
       <path d="M 33.015625 40.375 
Q 26.375 40.375 22.484375 35.828125 
Q 18.609375 31.296875 18.609375 23.390625 
Q 18.609375 15.53125 22.484375 10.953125 
Q 26.375 6.390625 33.015625 6.390625 
Q 39.65625 6.390625 43.53125 10.953125 
Q 47.40625 15.53125 47.40625 23.390625 
Q 47.40625 31.296875 43.53125 35.828125 
Q 39.65625 40.375 33.015625 40.375 
z
M 52.59375 71.296875 
L 52.59375 62.3125 
Q 48.875 64.0625 45.09375 64.984375 
Q 41.3125 65.921875 37.59375 65.921875 
Q 27.828125 65.921875 22.671875 59.328125 
Q 17.53125 52.734375 16.796875 39.40625 
Q 19.671875 43.65625 24.015625 45.921875 
Q 28.375 48.1875 33.59375 48.1875 
Q 44.578125 48.1875 50.953125 41.515625 
Q 57.328125 34.859375 57.328125 23.390625 
Q 57.328125 12.15625 50.6875 5.359375 
Q 44.046875 -1.421875 33.015625 -1.421875 
Q 20.359375 -1.421875 13.671875 8.265625 
Q 6.984375 17.96875 6.984375 36.375 
Q 6.984375 53.65625 15.1875 63.9375 
Q 23.390625 74.21875 37.203125 74.21875 
Q 40.921875 74.21875 44.703125 73.484375 
Q 48.484375 72.75 52.59375 71.296875 
z
" id="DejaVuSans-36"/>
      </defs>
      <g transform="translate(248.226219 322.182437)scale(0.1 -0.1)">
       <use xlink:href="#DejaVuSans-36"/>
       <use x="63.623047" xlink:href="#DejaVuSans-30"/>
       <use x="127.246094" xlink:href="#DejaVuSans-30"/>
       <use x="190.869141" xlink:href="#DejaVuSans-30"/>
       <use x="254.492188" xlink:href="#DejaVuSans-30"/>
       <use x="318.115234" xlink:href="#DejaVuSans-30"/>
      </g>
     </g>
    </g>
    <g id="xtick_5">
     <g id="line2d_5">
      <g>
       <use style="stroke:#000000;stroke-width:0.8;" x="332.900496" xlink:href="#m00ea9cbb45" y="307.584"/>
      </g>
     </g>
     <g id="text_5">
      <!-- 800000 -->
      <defs>
       <path d="M 31.78125 34.625 
Q 24.75 34.625 20.71875 30.859375 
Q 16.703125 27.09375 16.703125 20.515625 
Q 16.703125 13.921875 20.71875 10.15625 
Q 24.75 6.390625 31.78125 6.390625 
Q 38.8125 6.390625 42.859375 10.171875 
Q 46.921875 13.96875 46.921875 20.515625 
Q 46.921875 27.09375 42.890625 30.859375 
Q 38.875 34.625 31.78125 34.625 
z
M 21.921875 38.8125 
Q 15.578125 40.375 12.03125 44.71875 
Q 8.5 49.078125 8.5 55.328125 
Q 8.5 64.0625 14.71875 69.140625 
Q 20.953125 74.21875 31.78125 74.21875 
Q 42.671875 74.21875 48.875 69.140625 
Q 55.078125 64.0625 55.078125 55.328125 
Q 55.078125 49.078125 51.53125 44.71875 
Q 48 40.375 41.703125 38.8125 
Q 48.828125 37.15625 52.796875 32.3125 
Q 56.78125 27.484375 56.78125 20.515625 
Q 56.78125 9.90625 50.3125 4.234375 
Q 43.84375 -1.421875 31.78125 -1.421875 
Q 19.734375 -1.421875 13.25 4.234375 
Q 6.78125 9.90625 6.78125 20.515625 
Q 6.78125 27.484375 10.78125 32.3125 
Q 14.796875 37.15625 21.921875 38.8125 
z
M 18.3125 54.390625 
Q 18.3125 48.734375 21.84375 45.5625 
Q 25.390625 42.390625 31.78125 42.390625 
Q 38.140625 42.390625 41.71875 45.5625 
Q 45.3125 48.734375 45.3125 54.390625 
Q 45.3125 60.0625 41.71875 63.234375 
Q 38.140625 66.40625 31.78125 66.40625 
Q 25.390625 66.40625 21.84375 63.234375 
Q 18.3125 60.0625 18.3125 54.390625 
z
" id="DejaVuSans-38"/>
      </defs>
      <g transform="translate(313.812996 322.182437)scale(0.1 -0.1)">
       <use xlink:href="#DejaVuSans-38"/>
       <use x="63.623047" xlink:href="#DejaVuSans-30"/>
       <use x="127.246094" xlink:href="#DejaVuSans-30"/>
       <use x="190.869141" xlink:href="#DejaVuSans-30"/>
       <use x="254.492188" xlink:href="#DejaVuSans-30"/>
       <use x="318.115234" xlink:href="#DejaVuSans-30"/>
      </g>
     </g>
    </g>
    <g id="xtick_6">
     <g id="line2d_6">
      <g>
       <use style="stroke:#000000;stroke-width:0.8;" x="398.487273" xlink:href="#m00ea9cbb45" y="307.584"/>
      </g>
     </g>
     <g id="text_6">
      <!-- 1000000 -->
      <defs>
       <path d="M 12.40625 8.296875 
L 28.515625 8.296875 
L 28.515625 63.921875 
L 10.984375 60.40625 
L 10.984375 69.390625 
L 28.421875 72.90625 
L 38.28125 72.90625 
L 38.28125 8.296875 
L 54.390625 8.296875 
L 54.390625 0 
L 12.40625 0 
z
" id="DejaVuSans-31"/>
      </defs>
      <g transform="translate(376.218523 322.182437)scale(0.1 -0.1)">
       <use xlink:href="#DejaVuSans-31"/>
       <use x="63.623047" xlink:href="#DejaVuSans-30"/>
       <use x="127.246094" xlink:href="#DejaVuSans-30"/>
       <use x="190.869141" xlink:href="#DejaVuSans-30"/>
       <use x="254.492188" xlink:href="#DejaVuSans-30"/>
       <use x="318.115234" xlink:href="#DejaVuSans-30"/>
       <use x="381.738281" xlink:href="#DejaVuSans-30"/>
      </g>
     </g>
    </g>
    <g id="text_7">
     <!-- alexa rank -->
     <defs>
      <path d="M 34.28125 27.484375 
Q 23.390625 27.484375 19.1875 25 
Q 14.984375 22.515625 14.984375 16.5 
Q 14.984375 11.71875 18.140625 8.90625 
Q 21.296875 6.109375 26.703125 6.109375 
Q 34.1875 6.109375 38.703125 11.40625 
Q 43.21875 16.703125 43.21875 25.484375 
L 43.21875 27.484375 
z
M 52.203125 31.203125 
L 52.203125 0 
L 43.21875 0 
L 43.21875 8.296875 
Q 40.140625 3.328125 35.546875 0.953125 
Q 30.953125 -1.421875 24.3125 -1.421875 
Q 15.921875 -1.421875 10.953125 3.296875 
Q 6 8.015625 6 15.921875 
Q 6 25.140625 12.171875 29.828125 
Q 18.359375 34.515625 30.609375 34.515625 
L 43.21875 34.515625 
L 43.21875 35.40625 
Q 43.21875 41.609375 39.140625 45 
Q 35.0625 48.390625 27.6875 48.390625 
Q 23 48.390625 18.546875 47.265625 
Q 14.109375 46.140625 10.015625 43.890625 
L 10.015625 52.203125 
Q 14.9375 54.109375 19.578125 55.046875 
Q 24.21875 56 28.609375 56 
Q 40.484375 56 46.34375 49.84375 
Q 52.203125 43.703125 52.203125 31.203125 
z
" id="DejaVuSans-61"/>
      <path d="M 9.421875 75.984375 
L 18.40625 75.984375 
L 18.40625 0 
L 9.421875 0 
z
" id="DejaVuSans-6c"/>
      <path d="M 56.203125 29.59375 
L 56.203125 25.203125 
L 14.890625 25.203125 
Q 15.484375 15.921875 20.484375 11.0625 
Q 25.484375 6.203125 34.421875 6.203125 
Q 39.59375 6.203125 44.453125 7.46875 
Q 49.3125 8.734375 54.109375 11.28125 
L 54.109375 2.78125 
Q 49.265625 0.734375 44.1875 -0.34375 
Q 39.109375 -1.421875 33.890625 -1.421875 
Q 20.796875 -1.421875 13.15625 6.1875 
Q 5.515625 13.8125 5.515625 26.8125 
Q 5.515625 40.234375 12.765625 48.109375 
Q 20.015625 56 32.328125 56 
Q 43.359375 56 49.78125 48.890625 
Q 56.203125 41.796875 56.203125 29.59375 
z
M 47.21875 32.234375 
Q 47.125 39.59375 43.09375 43.984375 
Q 39.0625 48.390625 32.421875 48.390625 
Q 24.90625 48.390625 20.390625 44.140625 
Q 15.875 39.890625 15.1875 32.171875 
z
" id="DejaVuSans-65"/>
      <path d="M 54.890625 54.6875 
L 35.109375 28.078125 
L 55.90625 0 
L 45.3125 0 
L 29.390625 21.484375 
L 13.484375 0 
L 2.875 0 
L 24.125 28.609375 
L 4.6875 54.6875 
L 15.28125 54.6875 
L 29.78125 35.203125 
L 44.28125 54.6875 
z
" id="DejaVuSans-78"/>
      <path id="DejaVuSans-20"/>
      <path d="M 41.109375 46.296875 
Q 39.59375 47.171875 37.8125 47.578125 
Q 36.03125 48 33.890625 48 
Q 26.265625 48 22.1875 43.046875 
Q 18.109375 38.09375 18.109375 28.8125 
L 18.109375 0 
L 9.078125 0 
L 9.078125 54.6875 
L 18.109375 54.6875 
L 18.109375 46.1875 
Q 20.953125 51.171875 25.484375 53.578125 
Q 30.03125 56 36.53125 56 
Q 37.453125 56 38.578125 55.875 
Q 39.703125 55.765625 41.0625 55.515625 
z
" id="DejaVuSans-72"/>
      <path d="M 54.890625 33.015625 
L 54.890625 0 
L 45.90625 0 
L 45.90625 32.71875 
Q 45.90625 40.484375 42.875 44.328125 
Q 39.84375 48.1875 33.796875 48.1875 
Q 26.515625 48.1875 22.3125 43.546875 
Q 18.109375 38.921875 18.109375 30.90625 
L 18.109375 0 
L 9.078125 0 
L 9.078125 54.6875 
L 18.109375 54.6875 
L 18.109375 46.1875 
Q 21.34375 51.125 25.703125 53.5625 
Q 30.078125 56 35.796875 56 
Q 45.21875 56 50.046875 50.171875 
Q 54.890625 44.34375 54.890625 33.015625 
z
" id="DejaVuSans-6e"/>
      <path d="M 9.078125 75.984375 
L 18.109375 75.984375 
L 18.109375 31.109375 
L 44.921875 54.6875 
L 56.390625 54.6875 
L 27.390625 29.109375 
L 57.625 0 
L 45.90625 0 
L 18.109375 26.703125 
L 18.109375 0 
L 9.078125 0 
z
" id="DejaVuSans-6b"/>
     </defs>
     <g transform="translate(209.835 335.860562)scale(0.1 -0.1)">
      <use xlink:href="#DejaVuSans-61"/>
      <use x="61.279297" xlink:href="#DejaVuSans-6c"/>
      <use x="89.0625" xlink:href="#DejaVuSans-65"/>
      <use x="150.570312" xlink:href="#DejaVuSans-78"/>
      <use x="209.75" xlink:href="#DejaVuSans-61"/>
      <use x="271.029297" xlink:href="#DejaVuSans-20"/>
      <use x="302.816406" xlink:href="#DejaVuSans-72"/>
      <use x="343.929688" xlink:href="#DejaVuSans-61"/>
      <use x="405.208984" xlink:href="#DejaVuSans-6e"/>
      <use x="468.587891" xlink:href="#DejaVuSans-6b"/>
     </g>
    </g>
   </g>
   <g id="matplotlib.axis_2">
    <g id="ytick_1">
     <g id="line2d_7">
      <defs>
       <path d="M 0 0 
L -3.5 0 
" id="me14a7ced4e" style="stroke:#000000;stroke-width:0.8;"/>
      </defs>
      <g>
       <use style="stroke:#000000;stroke-width:0.8;" x="57.6" xlink:href="#me14a7ced4e" y="307.584"/>
      </g>
     </g>
     <g id="text_8">
      <!-- 0.0 -->
      <defs>
       <path d="M 10.6875 12.40625 
L 21 12.40625 
L 21 0 
L 10.6875 0 
z
" id="DejaVuSans-2e"/>
      </defs>
      <g transform="translate(34.696875 311.383219)scale(0.1 -0.1)">
       <use xlink:href="#DejaVuSans-30"/>
       <use x="63.623047" xlink:href="#DejaVuSans-2e"/>
       <use x="95.410156" xlink:href="#DejaVuSans-30"/>
      </g>
     </g>
    </g>
    <g id="ytick_2">
     <g id="line2d_8">
      <g>
       <use style="stroke:#000000;stroke-width:0.8;" x="57.6" xlink:href="#me14a7ced4e" y="256.896"/>
      </g>
     </g>
     <g id="text_9">
      <!-- 0.2 -->
      <g transform="translate(34.696875 260.695219)scale(0.1 -0.1)">
       <use xlink:href="#DejaVuSans-30"/>
       <use x="63.623047" xlink:href="#DejaVuSans-2e"/>
       <use x="95.410156" xlink:href="#DejaVuSans-32"/>
      </g>
     </g>
    </g>
    <g id="ytick_3">
     <g id="line2d_9">
      <g>
       <use style="stroke:#000000;stroke-width:0.8;" x="57.6" xlink:href="#me14a7ced4e" y="206.208"/>
      </g>
     </g>
     <g id="text_10">
      <!-- 0.4 -->
      <g transform="translate(34.696875 210.007219)scale(0.1 -0.1)">
       <use xlink:href="#DejaVuSans-30"/>
       <use x="63.623047" xlink:href="#DejaVuSans-2e"/>
       <use x="95.410156" xlink:href="#DejaVuSans-34"/>
      </g>
     </g>
    </g>
    <g id="ytick_4">
     <g id="line2d_10">
      <g>
       <use style="stroke:#000000;stroke-width:0.8;" x="57.6" xlink:href="#me14a7ced4e" y="155.52"/>
      </g>
     </g>
     <g id="text_11">
      <!-- 0.6 -->
      <g transform="translate(34.696875 159.319219)scale(0.1 -0.1)">
       <use xlink:href="#DejaVuSans-30"/>
       <use x="63.623047" xlink:href="#DejaVuSans-2e"/>
       <use x="95.410156" xlink:href="#DejaVuSans-36"/>
      </g>
     </g>
    </g>
    <g id="ytick_5">
     <g id="line2d_11">
      <g>
       <use style="stroke:#000000;stroke-width:0.8;" x="57.6" xlink:href="#me14a7ced4e" y="104.832"/>
      </g>
     </g>
     <g id="text_12">
      <!-- 0.8 -->
      <g transform="translate(34.696875 108.631219)scale(0.1 -0.1)">
       <use xlink:href="#DejaVuSans-30"/>
       <use x="63.623047" xlink:href="#DejaVuSans-2e"/>
       <use x="95.410156" xlink:href="#DejaVuSans-38"/>
      </g>
     </g>
    </g>
    <g id="ytick_6">
     <g id="line2d_12">
      <g>
       <use style="stroke:#000000;stroke-width:0.8;" x="57.6" xlink:href="#me14a7ced4e" y="54.144"/>
      </g>
     </g>
     <g id="text_13">
      <!-- 1.0 -->
      <g transform="translate(34.696875 57.943219)scale(0.1 -0.1)">
       <use xlink:href="#DejaVuSans-31"/>
       <use x="63.623047" xlink:href="#DejaVuSans-2e"/>
       <use x="95.410156" xlink:href="#DejaVuSans-30"/>
      </g>
     </g>
    </g>
    <g id="text_14">
     <!-- proportion -->
     <defs>
      <path d="M 18.109375 8.203125 
L 18.109375 -20.796875 
L 9.078125 -20.796875 
L 9.078125 54.6875 
L 18.109375 54.6875 
L 18.109375 46.390625 
Q 20.953125 51.265625 25.265625 53.625 
Q 29.59375 56 35.59375 56 
Q 45.5625 56 51.78125 48.09375 
Q 58.015625 40.1875 58.015625 27.296875 
Q 58.015625 14.40625 51.78125 6.484375 
Q 45.5625 -1.421875 35.59375 -1.421875 
Q 29.59375 -1.421875 25.265625 0.953125 
Q 20.953125 3.328125 18.109375 8.203125 
z
M 48.6875 27.296875 
Q 48.6875 37.203125 44.609375 42.84375 
Q 40.53125 48.484375 33.40625 48.484375 
Q 26.265625 48.484375 22.1875 42.84375 
Q 18.109375 37.203125 18.109375 27.296875 
Q 18.109375 17.390625 22.1875 11.75 
Q 26.265625 6.109375 33.40625 6.109375 
Q 40.53125 6.109375 44.609375 11.75 
Q 48.6875 17.390625 48.6875 27.296875 
z
" id="DejaVuSans-70"/>
      <path d="M 30.609375 48.390625 
Q 23.390625 48.390625 19.1875 42.75 
Q 14.984375 37.109375 14.984375 27.296875 
Q 14.984375 17.484375 19.15625 11.84375 
Q 23.34375 6.203125 30.609375 6.203125 
Q 37.796875 6.203125 41.984375 11.859375 
Q 46.1875 17.53125 46.1875 27.296875 
Q 46.1875 37.015625 41.984375 42.703125 
Q 37.796875 48.390625 30.609375 48.390625 
z
M 30.609375 56 
Q 42.328125 56 49.015625 48.375 
Q 55.71875 40.765625 55.71875 27.296875 
Q 55.71875 13.875 49.015625 6.21875 
Q 42.328125 -1.421875 30.609375 -1.421875 
Q 18.84375 -1.421875 12.171875 6.21875 
Q 5.515625 13.875 5.515625 27.296875 
Q 5.515625 40.765625 12.171875 48.375 
Q 18.84375 56 30.609375 56 
z
" id="DejaVuSans-6f"/>
      <path d="M 18.3125 70.21875 
L 18.3125 54.6875 
L 36.8125 54.6875 
L 36.8125 47.703125 
L 18.3125 47.703125 
L 18.3125 18.015625 
Q 18.3125 11.328125 20.140625 9.421875 
Q 21.96875 7.515625 27.59375 7.515625 
L 36.8125 7.515625 
L 36.8125 0 
L 27.59375 0 
Q 17.1875 0 13.234375 3.875 
Q 9.28125 7.765625 9.28125 18.015625 
L 9.28125 47.703125 
L 2.6875 47.703125 
L 2.6875 54.6875 
L 9.28125 54.6875 
L 9.28125 70.21875 
z
" id="DejaVuSans-74"/>
      <path d="M 9.421875 54.6875 
L 18.40625 54.6875 
L 18.40625 0 
L 9.421875 0 
z
M 9.421875 75.984375 
L 18.40625 75.984375 
L 18.40625 64.59375 
L 9.421875 64.59375 
z
" id="DejaVuSans-69"/>
     </defs>
     <g transform="translate(28.617187 200.681906)rotate(-90)scale(0.1 -0.1)">
      <use xlink:href="#DejaVuSans-70"/>
      <use x="63.476562" xlink:href="#DejaVuSans-72"/>
      <use x="104.558594" xlink:href="#DejaVuSans-6f"/>
      <use x="165.740234" xlink:href="#DejaVuSans-70"/>
      <use x="229.216797" xlink:href="#DejaVuSans-6f"/>
      <use x="290.398438" xlink:href="#DejaVuSans-72"/>
      <use x="331.511719" xlink:href="#DejaVuSans-74"/>
      <use x="370.720703" xlink:href="#DejaVuSans-69"/>
      <use x="398.503906" xlink:href="#DejaVuSans-6f"/>
      <use x="459.685547" xlink:href="#DejaVuSans-6e"/>
     </g>
    </g>
   </g>
   <g id="line2d_13">
    <path clip-path="url(#p6934337b43)" d="M 57.6 299.990189 
L 414.72 299.990189 
" style="fill:none;stroke:#808080;stroke-dasharray:1,1.65;stroke-dashoffset:0;"/>
   </g>
   <g id="line2d_14">
    <path clip-path="url(#p6934337b43)" d="M 57.6 239.888011 
L 414.72 239.888011 
" style="fill:none;stroke:#808080;stroke-dasharray:1,1.65;stroke-dashoffset:0;"/>
   </g>
   <g id="line2d_15">
    <path clip-path="url(#p6934337b43)" d="M 57.6 209.641025 
L 414.72 209.641025 
" style="fill:none;stroke:#808080;stroke-dasharray:1,1.65;stroke-dashoffset:0;"/>
   </g>
   <g id="patch_3">
    <path d="M 57.6 307.584 
L 57.6 41.472 
" style="fill:none;stroke:#000000;stroke-linecap:square;stroke-linejoin:miter;stroke-width:0.8;"/>
   </g>
   <g id="patch_4">
    <path d="M 414.72 307.584 
L 414.72 41.472 
" style="fill:none;stroke:#000000;stroke-linecap:square;stroke-linejoin:miter;stroke-width:0.8;"/>
   </g>
   <g id="patch_5">
    <path d="M 57.6 307.584 
L 414.72 307.584 
" style="fill:none;stroke:#000000;stroke-linecap:square;stroke-linejoin:miter;stroke-width:0.8;"/>
   </g>
   <g id="patch_6">
    <path d="M 57.6 41.472 
L 414.72 41.472 
" style="fill:none;stroke:#000000;stroke-linecap:square;stroke-linejoin:miter;stroke-width:0.8;"/>
   </g>
   <g id="text_15">
    <!-- only: ct.googleapis.com/rocketeer/, ct.ws.symantec.com/ -->
    <defs>
     <path d="M 32.171875 -5.078125 
Q 28.375 -14.84375 24.75 -17.8125 
Q 21.140625 -20.796875 15.09375 -20.796875 
L 7.90625 -20.796875 
L 7.90625 -13.28125 
L 13.1875 -13.28125 
Q 16.890625 -13.28125 18.9375 -11.515625 
Q 21 -9.765625 23.484375 -3.21875 
L 25.09375 0.875 
L 2.984375 54.6875 
L 12.5 54.6875 
L 29.59375 11.921875 
L 46.6875 54.6875 
L 56.203125 54.6875 
z
" id="DejaVuSans-79"/>
     <path d="M 11.71875 12.40625 
L 22.015625 12.40625 
L 22.015625 0 
L 11.71875 0 
z
M 11.71875 51.703125 
L 22.015625 51.703125 
L 22.015625 39.3125 
L 11.71875 39.3125 
z
" id="DejaVuSans-3a"/>
     <path d="M 48.78125 52.59375 
L 48.78125 44.1875 
Q 44.96875 46.296875 41.140625 47.34375 
Q 37.3125 48.390625 33.40625 48.390625 
Q 24.65625 48.390625 19.8125 42.84375 
Q 14.984375 37.3125 14.984375 27.296875 
Q 14.984375 17.28125 19.8125 11.734375 
Q 24.65625 6.203125 33.40625 6.203125 
Q 37.3125 6.203125 41.140625 7.25 
Q 44.96875 8.296875 48.78125 10.40625 
L 48.78125 2.09375 
Q 45.015625 0.34375 40.984375 -0.53125 
Q 36.96875 -1.421875 32.421875 -1.421875 
Q 20.0625 -1.421875 12.78125 6.34375 
Q 5.515625 14.109375 5.515625 27.296875 
Q 5.515625 40.671875 12.859375 48.328125 
Q 20.21875 56 33.015625 56 
Q 37.15625 56 41.109375 55.140625 
Q 45.0625 54.296875 48.78125 52.59375 
z
" id="DejaVuSans-63"/>
     <path d="M 45.40625 27.984375 
Q 45.40625 37.75 41.375 43.109375 
Q 37.359375 48.484375 30.078125 48.484375 
Q 22.859375 48.484375 18.828125 43.109375 
Q 14.796875 37.75 14.796875 27.984375 
Q 14.796875 18.265625 18.828125 12.890625 
Q 22.859375 7.515625 30.078125 7.515625 
Q 37.359375 7.515625 41.375 12.890625 
Q 45.40625 18.265625 45.40625 27.984375 
z
M 54.390625 6.78125 
Q 54.390625 -7.171875 48.1875 -13.984375 
Q 42 -20.796875 29.203125 -20.796875 
Q 24.46875 -20.796875 20.265625 -20.09375 
Q 16.0625 -19.390625 12.109375 -17.921875 
L 12.109375 -9.1875 
Q 16.0625 -11.328125 19.921875 -12.34375 
Q 23.78125 -13.375 27.78125 -13.375 
Q 36.625 -13.375 41.015625 -8.765625 
Q 45.40625 -4.15625 45.40625 5.171875 
L 45.40625 9.625 
Q 42.625 4.78125 38.28125 2.390625 
Q 33.9375 0 27.875 0 
Q 17.828125 0 11.671875 7.65625 
Q 5.515625 15.328125 5.515625 27.984375 
Q 5.515625 40.671875 11.671875 48.328125 
Q 17.828125 56 27.875 56 
Q 33.9375 56 38.28125 53.609375 
Q 42.625 51.21875 45.40625 46.390625 
L 45.40625 54.6875 
L 54.390625 54.6875 
z
" id="DejaVuSans-67"/>
     <path d="M 44.28125 53.078125 
L 44.28125 44.578125 
Q 40.484375 46.53125 36.375 47.5 
Q 32.28125 48.484375 27.875 48.484375 
Q 21.1875 48.484375 17.84375 46.4375 
Q 14.5 44.390625 14.5 40.28125 
Q 14.5 37.15625 16.890625 35.375 
Q 19.28125 33.59375 26.515625 31.984375 
L 29.59375 31.296875 
Q 39.15625 29.25 43.1875 25.515625 
Q 47.21875 21.78125 47.21875 15.09375 
Q 47.21875 7.46875 41.1875 3.015625 
Q 35.15625 -1.421875 24.609375 -1.421875 
Q 20.21875 -1.421875 15.453125 -0.5625 
Q 10.6875 0.296875 5.421875 2 
L 5.421875 11.28125 
Q 10.40625 8.6875 15.234375 7.390625 
Q 20.0625 6.109375 24.8125 6.109375 
Q 31.15625 6.109375 34.5625 8.28125 
Q 37.984375 10.453125 37.984375 14.40625 
Q 37.984375 18.0625 35.515625 20.015625 
Q 33.0625 21.96875 24.703125 23.78125 
L 21.578125 24.515625 
Q 13.234375 26.265625 9.515625 29.90625 
Q 5.8125 33.546875 5.8125 39.890625 
Q 5.8125 47.609375 11.28125 51.796875 
Q 16.75 56 26.8125 56 
Q 31.78125 56 36.171875 55.265625 
Q 40.578125 54.546875 44.28125 53.078125 
z
" id="DejaVuSans-73"/>
     <path d="M 52 44.1875 
Q 55.375 50.25 60.0625 53.125 
Q 64.75 56 71.09375 56 
Q 79.640625 56 84.28125 50.015625 
Q 88.921875 44.046875 88.921875 33.015625 
L 88.921875 0 
L 79.890625 0 
L 79.890625 32.71875 
Q 79.890625 40.578125 77.09375 44.375 
Q 74.3125 48.1875 68.609375 48.1875 
Q 61.625 48.1875 57.5625 43.546875 
Q 53.515625 38.921875 53.515625 30.90625 
L 53.515625 0 
L 44.484375 0 
L 44.484375 32.71875 
Q 44.484375 40.625 41.703125 44.40625 
Q 38.921875 48.1875 33.109375 48.1875 
Q 26.21875 48.1875 22.15625 43.53125 
Q 18.109375 38.875 18.109375 30.90625 
L 18.109375 0 
L 9.078125 0 
L 9.078125 54.6875 
L 18.109375 54.6875 
L 18.109375 46.1875 
Q 21.1875 51.21875 25.484375 53.609375 
Q 29.78125 56 35.6875 56 
Q 41.65625 56 45.828125 52.96875 
Q 50 49.953125 52 44.1875 
z
" id="DejaVuSans-6d"/>
     <path d="M 25.390625 72.90625 
L 33.6875 72.90625 
L 8.296875 -9.28125 
L 0 -9.28125 
z
" id="DejaVuSans-2f"/>
     <path d="M 11.71875 12.40625 
L 22.015625 12.40625 
L 22.015625 4 
L 14.015625 -11.625 
L 7.71875 -11.625 
L 11.71875 4 
z
" id="DejaVuSans-2c"/>
     <path d="M 4.203125 54.6875 
L 13.1875 54.6875 
L 24.421875 12.015625 
L 35.59375 54.6875 
L 46.1875 54.6875 
L 57.421875 12.015625 
L 68.609375 54.6875 
L 77.59375 54.6875 
L 63.28125 0 
L 52.6875 0 
L 40.921875 44.828125 
L 29.109375 0 
L 18.5 0 
z
" id="DejaVuSans-77"/>
    </defs>
    <g transform="translate(142.698843 305.0496)scale(0.1 -0.1)">
     <use xlink:href="#DejaVuSans-6f"/>
     <use x="61.181641" xlink:href="#DejaVuSans-6e"/>
     <use x="124.560547" xlink:href="#DejaVuSans-6c"/>
     <use x="152.34375" xlink:href="#DejaVuSans-79"/>
     <use x="211.414062" xlink:href="#DejaVuSans-3a"/>
     <use x="245.105469" xlink:href="#DejaVuSans-20"/>
     <use x="276.892578" xlink:href="#DejaVuSans-63"/>
     <use x="331.873047" xlink:href="#DejaVuSans-74"/>
     <use x="371.082031" xlink:href="#DejaVuSans-2e"/>
     <use x="402.869141" xlink:href="#DejaVuSans-67"/>
     <use x="466.345703" xlink:href="#DejaVuSans-6f"/>
     <use x="527.527344" xlink:href="#DejaVuSans-6f"/>
     <use x="588.708984" xlink:href="#DejaVuSans-67"/>
     <use x="652.185547" xlink:href="#DejaVuSans-6c"/>
     <use x="679.96875" xlink:href="#DejaVuSans-65"/>
     <use x="741.492188" xlink:href="#DejaVuSans-61"/>
     <use x="802.771484" xlink:href="#DejaVuSans-70"/>
     <use x="866.248047" xlink:href="#DejaVuSans-69"/>
     <use x="894.03125" xlink:href="#DejaVuSans-73"/>
     <use x="946.130859" xlink:href="#DejaVuSans-2e"/>
     <use x="977.917969" xlink:href="#DejaVuSans-63"/>
     <use x="1032.898438" xlink:href="#DejaVuSans-6f"/>
     <use x="1094.080078" xlink:href="#DejaVuSans-6d"/>
     <use x="1191.492188" xlink:href="#DejaVuSans-2f"/>
     <use x="1225.183594" xlink:href="#DejaVuSans-72"/>
     <use x="1266.265625" xlink:href="#DejaVuSans-6f"/>
     <use x="1327.447266" xlink:href="#DejaVuSans-63"/>
     <use x="1382.427734" xlink:href="#DejaVuSans-6b"/>
     <use x="1440.291016" xlink:href="#DejaVuSans-65"/>
     <use x="1501.814453" xlink:href="#DejaVuSans-74"/>
     <use x="1541.023438" xlink:href="#DejaVuSans-65"/>
     <use x="1602.546875" xlink:href="#DejaVuSans-65"/>
     <use x="1664.070312" xlink:href="#DejaVuSans-72"/>
     <use x="1705.183594" xlink:href="#DejaVuSans-2f"/>
     <use x="1738.875" xlink:href="#DejaVuSans-2c"/>
     <use x="1770.662109" xlink:href="#DejaVuSans-20"/>
     <use x="1802.449219" xlink:href="#DejaVuSans-63"/>
     <use x="1857.429688" xlink:href="#DejaVuSans-74"/>
     <use x="1896.638672" xlink:href="#DejaVuSans-2e"/>
     <use x="1928.425781" xlink:href="#DejaVuSans-77"/>
     <use x="2010.212891" xlink:href="#DejaVuSans-73"/>
     <use x="2062.3125" xlink:href="#DejaVuSans-2e"/>
     <use x="2094.099609" xlink:href="#DejaVuSans-73"/>
     <use x="2146.199219" xlink:href="#DejaVuSans-79"/>
     <use x="2205.378906" xlink:href="#DejaVuSans-6d"/>
     <use x="2302.791016" xlink:href="#DejaVuSans-61"/>
     <use x="2364.070312" xlink:href="#DejaVuSans-6e"/>
     <use x="2427.449219" xlink:href="#DejaVuSans-74"/>
     <use x="2466.658203" xlink:href="#DejaVuSans-65"/>
     <use x="2528.181641" xlink:href="#DejaVuSans-63"/>
     <use x="2583.162109" xlink:href="#DejaVuSans-2e"/>
     <use x="2614.949219" xlink:href="#DejaVuSans-63"/>
     <use x="2669.929688" xlink:href="#DejaVuSans-6f"/>
     <use x="2731.111328" xlink:href="#DejaVuSans-6d"/>
     <use x="2828.523438" xlink:href="#DejaVuSans-2f"/>
    </g>
   </g>
   <g id="text_16">
    <!-- only: ct.googleapis.com/pilot/, ct.ws.symantec.com/ -->
    <g transform="translate(142.698843 269.568)scale(0.1 -0.1)">
     <use xlink:href="#DejaVuSans-6f"/>
     <use x="61.181641" xlink:href="#DejaVuSans-6e"/>
     <use x="124.560547" xlink:href="#DejaVuSans-6c"/>
     <use x="152.34375" xlink:href="#DejaVuSans-79"/>
     <use x="211.414062" xlink:href="#DejaVuSans-3a"/>
     <use x="245.105469" xlink:href="#DejaVuSans-20"/>
     <use x="276.892578" xlink:href="#DejaVuSans-63"/>
     <use x="331.873047" xlink:href="#DejaVuSans-74"/>
     <use x="371.082031" xlink:href="#DejaVuSans-2e"/>
     <use x="402.869141" xlink:href="#DejaVuSans-67"/>
     <use x="466.345703" xlink:href="#DejaVuSans-6f"/>
     <use x="527.527344" xlink:href="#DejaVuSans-6f"/>
     <use x="588.708984" xlink:href="#DejaVuSans-67"/>
     <use x="652.185547" xlink:href="#DejaVuSans-6c"/>
     <use x="679.96875" xlink:href="#DejaVuSans-65"/>
     <use x="741.492188" xlink:href="#DejaVuSans-61"/>
     <use x="802.771484" xlink:href="#DejaVuSans-70"/>
     <use x="866.248047" xlink:href="#DejaVuSans-69"/>
     <use x="894.03125" xlink:href="#DejaVuSans-73"/>
     <use x="946.130859" xlink:href="#DejaVuSans-2e"/>
     <use x="977.917969" xlink:href="#DejaVuSans-63"/>
     <use x="1032.898438" xlink:href="#DejaVuSans-6f"/>
     <use x="1094.080078" xlink:href="#DejaVuSans-6d"/>
     <use x="1191.492188" xlink:href="#DejaVuSans-2f"/>
     <use x="1225.183594" xlink:href="#DejaVuSans-70"/>
     <use x="1288.660156" xlink:href="#DejaVuSans-69"/>
     <use x="1316.443359" xlink:href="#DejaVuSans-6c"/>
     <use x="1344.226562" xlink:href="#DejaVuSans-6f"/>
     <use x="1405.408203" xlink:href="#DejaVuSans-74"/>
     <use x="1444.617188" xlink:href="#DejaVuSans-2f"/>
     <use x="1478.308594" xlink:href="#DejaVuSans-2c"/>
     <use x="1510.095703" xlink:href="#DejaVuSans-20"/>
     <use x="1541.882812" xlink:href="#DejaVuSans-63"/>
     <use x="1596.863281" xlink:href="#DejaVuSans-74"/>
     <use x="1636.072266" xlink:href="#DejaVuSans-2e"/>
     <use x="1667.859375" xlink:href="#DejaVuSans-77"/>
     <use x="1749.646484" xlink:href="#DejaVuSans-73"/>
     <use x="1801.746094" xlink:href="#DejaVuSans-2e"/>
     <use x="1833.533203" xlink:href="#DejaVuSans-73"/>
     <use x="1885.632812" xlink:href="#DejaVuSans-79"/>
     <use x="1944.8125" xlink:href="#DejaVuSans-6d"/>
     <use x="2042.224609" xlink:href="#DejaVuSans-61"/>
     <use x="2103.503906" xlink:href="#DejaVuSans-6e"/>
     <use x="2166.882812" xlink:href="#DejaVuSans-74"/>
     <use x="2206.091797" xlink:href="#DejaVuSans-65"/>
     <use x="2267.615234" xlink:href="#DejaVuSans-63"/>
     <use x="2322.595703" xlink:href="#DejaVuSans-2e"/>
     <use x="2354.382812" xlink:href="#DejaVuSans-63"/>
     <use x="2409.363281" xlink:href="#DejaVuSans-6f"/>
     <use x="2470.544922" xlink:href="#DejaVuSans-6d"/>
     <use x="2567.957031" xlink:href="#DejaVuSans-2f"/>
    </g>
   </g>
   <g id="text_17">
    <!-- only: -->
    <g transform="translate(70.487802 212.750988)scale(0.1 -0.1)">
     <use xlink:href="#DejaVuSans-6f"/>
     <use x="61.181641" xlink:href="#DejaVuSans-6e"/>
     <use x="124.560547" xlink:href="#DejaVuSans-6c"/>
     <use x="152.34375" xlink:href="#DejaVuSans-79"/>
     <use x="211.414062" xlink:href="#DejaVuSans-3a"/>
    </g>
    <!-- ct.googleapis.com/rocketeer/, ct.googleapis.com/pilot/, ct.ws.symantec.com/ -->
    <g transform="translate(70.487802 223.9488)scale(0.1 -0.1)">
     <use xlink:href="#DejaVuSans-63"/>
     <use x="54.980469" xlink:href="#DejaVuSans-74"/>
     <use x="94.189453" xlink:href="#DejaVuSans-2e"/>
     <use x="125.976562" xlink:href="#DejaVuSans-67"/>
     <use x="189.453125" xlink:href="#DejaVuSans-6f"/>
     <use x="250.634766" xlink:href="#DejaVuSans-6f"/>
     <use x="311.816406" xlink:href="#DejaVuSans-67"/>
     <use x="375.292969" xlink:href="#DejaVuSans-6c"/>
     <use x="403.076172" xlink:href="#DejaVuSans-65"/>
     <use x="464.599609" xlink:href="#DejaVuSans-61"/>
     <use x="525.878906" xlink:href="#DejaVuSans-70"/>
     <use x="589.355469" xlink:href="#DejaVuSans-69"/>
     <use x="617.138672" xlink:href="#DejaVuSans-73"/>
     <use x="669.238281" xlink:href="#DejaVuSans-2e"/>
     <use x="701.025391" xlink:href="#DejaVuSans-63"/>
     <use x="756.005859" xlink:href="#DejaVuSans-6f"/>
     <use x="817.1875" xlink:href="#DejaVuSans-6d"/>
     <use x="914.599609" xlink:href="#DejaVuSans-2f"/>
     <use x="948.291016" xlink:href="#DejaVuSans-72"/>
     <use x="989.373047" xlink:href="#DejaVuSans-6f"/>
     <use x="1050.554688" xlink:href="#DejaVuSans-63"/>
     <use x="1105.535156" xlink:href="#DejaVuSans-6b"/>
     <use x="1163.398438" xlink:href="#DejaVuSans-65"/>
     <use x="1224.921875" xlink:href="#DejaVuSans-74"/>
     <use x="1264.130859" xlink:href="#DejaVuSans-65"/>
     <use x="1325.654297" xlink:href="#DejaVuSans-65"/>
     <use x="1387.177734" xlink:href="#DejaVuSans-72"/>
     <use x="1428.291016" xlink:href="#DejaVuSans-2f"/>
     <use x="1461.982422" xlink:href="#DejaVuSans-2c"/>
     <use x="1493.769531" xlink:href="#DejaVuSans-20"/>
     <use x="1525.556641" xlink:href="#DejaVuSans-63"/>
     <use x="1580.537109" xlink:href="#DejaVuSans-74"/>
     <use x="1619.746094" xlink:href="#DejaVuSans-2e"/>
     <use x="1651.533203" xlink:href="#DejaVuSans-67"/>
     <use x="1715.009766" xlink:href="#DejaVuSans-6f"/>
     <use x="1776.191406" xlink:href="#DejaVuSans-6f"/>
     <use x="1837.373047" xlink:href="#DejaVuSans-67"/>
     <use x="1900.849609" xlink:href="#DejaVuSans-6c"/>
     <use x="1928.632812" xlink:href="#DejaVuSans-65"/>
     <use x="1990.15625" xlink:href="#DejaVuSans-61"/>
     <use x="2051.435547" xlink:href="#DejaVuSans-70"/>
     <use x="2114.912109" xlink:href="#DejaVuSans-69"/>
     <use x="2142.695312" xlink:href="#DejaVuSans-73"/>
     <use x="2194.794922" xlink:href="#DejaVuSans-2e"/>
     <use x="2226.582031" xlink:href="#DejaVuSans-63"/>
     <use x="2281.5625" xlink:href="#DejaVuSans-6f"/>
     <use x="2342.744141" xlink:href="#DejaVuSans-6d"/>
     <use x="2440.15625" xlink:href="#DejaVuSans-2f"/>
     <use x="2473.847656" xlink:href="#DejaVuSans-70"/>
     <use x="2537.324219" xlink:href="#DejaVuSans-69"/>
     <use x="2565.107422" xlink:href="#DejaVuSans-6c"/>
     <use x="2592.890625" xlink:href="#DejaVuSans-6f"/>
     <use x="2654.072266" xlink:href="#DejaVuSans-74"/>
     <use x="2693.28125" xlink:href="#DejaVuSans-2f"/>
     <use x="2726.972656" xlink:href="#DejaVuSans-2c"/>
     <use x="2758.759766" xlink:href="#DejaVuSans-20"/>
     <use x="2790.546875" xlink:href="#DejaVuSans-63"/>
     <use x="2845.527344" xlink:href="#DejaVuSans-74"/>
     <use x="2884.736328" xlink:href="#DejaVuSans-2e"/>
     <use x="2916.523438" xlink:href="#DejaVuSans-77"/>
     <use x="2998.310547" xlink:href="#DejaVuSans-73"/>
     <use x="3050.410156" xlink:href="#DejaVuSans-2e"/>
     <use x="3082.197266" xlink:href="#DejaVuSans-73"/>
     <use x="3134.296875" xlink:href="#DejaVuSans-79"/>
     <use x="3193.476562" xlink:href="#DejaVuSans-6d"/>
     <use x="3290.888672" xlink:href="#DejaVuSans-61"/>
     <use x="3352.167969" xlink:href="#DejaVuSans-6e"/>
     <use x="3415.546875" xlink:href="#DejaVuSans-74"/>
     <use x="3454.755859" xlink:href="#DejaVuSans-65"/>
     <use x="3516.279297" xlink:href="#DejaVuSans-63"/>
     <use x="3571.259766" xlink:href="#DejaVuSans-2e"/>
     <use x="3603.046875" xlink:href="#DejaVuSans-63"/>
     <use x="3658.027344" xlink:href="#DejaVuSans-6f"/>
     <use x="3719.208984" xlink:href="#DejaVuSans-6d"/>
     <use x="3816.621094" xlink:href="#DejaVuSans-2f"/>
    </g>
   </g>
   <g id="text_18">
    <!-- other -->
    <defs>
     <path d="M 54.890625 33.015625 
L 54.890625 0 
L 45.90625 0 
L 45.90625 32.71875 
Q 45.90625 40.484375 42.875 44.328125 
Q 39.84375 48.1875 33.796875 48.1875 
Q 26.515625 48.1875 22.3125 43.546875 
Q 18.109375 38.921875 18.109375 30.90625 
L 18.109375 0 
L 9.078125 0 
L 9.078125 75.984375 
L 18.109375 75.984375 
L 18.109375 46.1875 
Q 21.34375 51.125 25.703125 53.5625 
Q 30.078125 56 35.796875 56 
Q 45.21875 56 50.046875 50.171875 
Q 54.890625 44.34375 54.890625 33.015625 
z
" id="DejaVuSans-68"/>
    </defs>
    <g transform="translate(142.698843 130.176)scale(0.1 -0.1)">
     <use xlink:href="#DejaVuSans-6f"/>
     <use x="61.181641" xlink:href="#DejaVuSans-74"/>
     <use x="100.390625" xlink:href="#DejaVuSans-68"/>
     <use x="163.769531" xlink:href="#DejaVuSans-65"/>
     <use x="225.292969" xlink:href="#DejaVuSans-72"/>
    </g>
   </g>
   <g id="text_19">
    <!-- only: ct.googleapis.com/rocketeer/, ct.googleapis.com/pilot/ -->
    <g transform="translate(77.767934 51.6096)scale(0.1 -0.1)">
     <use xlink:href="#DejaVuSans-6f"/>
     <use x="61.181641" xlink:href="#DejaVuSans-6e"/>
     <use x="124.560547" xlink:href="#DejaVuSans-6c"/>
     <use x="152.34375" xlink:href="#DejaVuSans-79"/>
     <use x="211.414062" xlink:href="#DejaVuSans-3a"/>
     <use x="245.105469" xlink:href="#DejaVuSans-20"/>
     <use x="276.892578" xlink:href="#DejaVuSans-63"/>
     <use x="331.873047" xlink:href="#DejaVuSans-74"/>
     <use x="371.082031" xlink:href="#DejaVuSans-2e"/>
     <use x="402.869141" xlink:href="#DejaVuSans-67"/>
     <use x="466.345703" xlink:href="#DejaVuSans-6f"/>
     <use x="527.527344" xlink:href="#DejaVuSans-6f"/>
     <use x="588.708984" xlink:href="#DejaVuSans-67"/>
     <use x="652.185547" xlink:href="#DejaVuSans-6c"/>
     <use x="679.96875" xlink:href="#DejaVuSans-65"/>
     <use x="741.492188" xlink:href="#DejaVuSans-61"/>
     <use x="802.771484" xlink:href="#DejaVuSans-70"/>
     <use x="866.248047" xlink:href="#DejaVuSans-69"/>
     <use x="894.03125" xlink:href="#DejaVuSans-73"/>
     <use x="946.130859" xlink:href="#DejaVuSans-2e"/>
     <use x="977.917969" xlink:href="#DejaVuSans-63"/>
     <use x="1032.898438" xlink:href="#DejaVuSans-6f"/>
     <use x="1094.080078" xlink:href="#DejaVuSans-6d"/>
     <use x="1191.492188" xlink:href="#DejaVuSans-2f"/>
     <use x="1225.183594" xlink:href="#DejaVuSans-72"/>
     <use x="1266.265625" xlink:href="#DejaVuSans-6f"/>
     <use x="1327.447266" xlink:href="#DejaVuSans-63"/>
     <use x="1382.427734" xlink:href="#DejaVuSans-6b"/>
     <use x="1440.291016" xlink:href="#DejaVuSans-65"/>
     <use x="1501.814453" xlink:href="#DejaVuSans-74"/>
     <use x="1541.023438" xlink:href="#DejaVuSans-65"/>
     <use x="1602.546875" xlink:href="#DejaVuSans-65"/>
     <use x="1664.070312" xlink:href="#DejaVuSans-72"/>
     <use x="1705.183594" xlink:href="#DejaVuSans-2f"/>
     <use x="1738.875" xlink:href="#DejaVuSans-2c"/>
     <use x="1770.662109" xlink:href="#DejaVuSans-20"/>
     <use x="1802.449219" xlink:href="#DejaVuSans-63"/>
     <use x="1857.429688" xlink:href="#DejaVuSans-74"/>
     <use x="1896.638672" xlink:href="#DejaVuSans-2e"/>
     <use x="1928.425781" xlink:href="#DejaVuSans-67"/>
     <use x="1991.902344" xlink:href="#DejaVuSans-6f"/>
     <use x="2053.083984" xlink:href="#DejaVuSans-6f"/>
     <use x="2114.265625" xlink:href="#DejaVuSans-67"/>
     <use x="2177.742188" xlink:href="#DejaVuSans-6c"/>
     <use x="2205.525391" xlink:href="#DejaVuSans-65"/>
     <use x="2267.048828" xlink:href="#DejaVuSans-61"/>
     <use x="2328.328125" xlink:href="#DejaVuSans-70"/>
     <use x="2391.804688" xlink:href="#DejaVuSans-69"/>
     <use x="2419.587891" xlink:href="#DejaVuSans-73"/>
     <use x="2471.6875" xlink:href="#DejaVuSans-2e"/>
     <use x="2503.474609" xlink:href="#DejaVuSans-63"/>
     <use x="2558.455078" xlink:href="#DejaVuSans-6f"/>
     <use x="2619.636719" xlink:href="#DejaVuSans-6d"/>
     <use x="2717.048828" xlink:href="#DejaVuSans-2f"/>
     <use x="2750.740234" xlink:href="#DejaVuSans-70"/>
     <use x="2814.216797" xlink:href="#DejaVuSans-69"/>
     <use x="2842" xlink:href="#DejaVuSans-6c"/>
     <use x="2869.783203" xlink:href="#DejaVuSans-6f"/>
     <use x="2930.964844" xlink:href="#DejaVuSans-74"/>
     <use x="2970.173828" xlink:href="#DejaVuSans-2f"/>
    </g>
   </g>
   <g id="text_20">
    <!-- 0.03 -->
    <defs>
     <path d="M 40.578125 39.3125 
Q 47.65625 37.796875 51.625 33 
Q 55.609375 28.21875 55.609375 21.1875 
Q 55.609375 10.40625 48.1875 4.484375 
Q 40.765625 -1.421875 27.09375 -1.421875 
Q 22.515625 -1.421875 17.65625 -0.515625 
Q 12.796875 0.390625 7.625 2.203125 
L 7.625 11.71875 
Q 11.71875 9.328125 16.59375 8.109375 
Q 21.484375 6.890625 26.8125 6.890625 
Q 36.078125 6.890625 40.9375 10.546875 
Q 45.796875 14.203125 45.796875 21.1875 
Q 45.796875 27.640625 41.28125 31.265625 
Q 36.765625 34.90625 28.71875 34.90625 
L 20.21875 34.90625 
L 20.21875 43.015625 
L 29.109375 43.015625 
Q 36.375 43.015625 40.234375 45.921875 
Q 44.09375 48.828125 44.09375 54.296875 
Q 44.09375 59.90625 40.109375 62.90625 
Q 36.140625 65.921875 28.71875 65.921875 
Q 24.65625 65.921875 20.015625 65.03125 
Q 15.375 64.15625 9.8125 62.3125 
L 9.8125 71.09375 
Q 15.4375 72.65625 20.34375 73.4375 
Q 25.25 74.21875 29.59375 74.21875 
Q 40.828125 74.21875 47.359375 69.109375 
Q 53.90625 64.015625 53.90625 55.328125 
Q 53.90625 49.265625 50.4375 45.09375 
Q 46.96875 40.921875 40.578125 39.3125 
z
" id="DejaVuSans-33"/>
    </defs>
    <g style="fill:#808080;" transform="translate(48.287763 297.910501)scale(0.1 -0.1)">
     <use xlink:href="#DejaVuSans-30"/>
     <use x="63.623047" xlink:href="#DejaVuSans-2e"/>
     <use x="95.410156" xlink:href="#DejaVuSans-30"/>
     <use x="159.033203" xlink:href="#DejaVuSans-33"/>
    </g>
   </g>
   <g id="text_21">
    <!-- 0.27 -->
    <defs>
     <path d="M 8.203125 72.90625 
L 55.078125 72.90625 
L 55.078125 68.703125 
L 28.609375 0 
L 18.3125 0 
L 43.21875 64.59375 
L 8.203125 64.59375 
z
" id="DejaVuSans-37"/>
    </defs>
    <g style="fill:#808080;" transform="translate(48.287763 237.808323)scale(0.1 -0.1)">
     <use xlink:href="#DejaVuSans-30"/>
     <use x="63.623047" xlink:href="#DejaVuSans-2e"/>
     <use x="95.410156" xlink:href="#DejaVuSans-32"/>
     <use x="159.033203" xlink:href="#DejaVuSans-37"/>
    </g>
   </g>
   <g id="text_22">
    <!-- Certificates with SCTs by CT-Log -->
    <defs>
     <path d="M 64.40625 67.28125 
L 64.40625 56.890625 
Q 59.421875 61.53125 53.78125 63.8125 
Q 48.140625 66.109375 41.796875 66.109375 
Q 29.296875 66.109375 22.65625 58.46875 
Q 16.015625 50.828125 16.015625 36.375 
Q 16.015625 21.96875 22.65625 14.328125 
Q 29.296875 6.6875 41.796875 6.6875 
Q 48.140625 6.6875 53.78125 8.984375 
Q 59.421875 11.28125 64.40625 15.921875 
L 64.40625 5.609375 
Q 59.234375 2.09375 53.4375 0.328125 
Q 47.65625 -1.421875 41.21875 -1.421875 
Q 24.65625 -1.421875 15.125 8.703125 
Q 5.609375 18.84375 5.609375 36.375 
Q 5.609375 53.953125 15.125 64.078125 
Q 24.65625 74.21875 41.21875 74.21875 
Q 47.75 74.21875 53.53125 72.484375 
Q 59.328125 70.75 64.40625 67.28125 
z
" id="DejaVuSans-43"/>
     <path d="M 37.109375 75.984375 
L 37.109375 68.5 
L 28.515625 68.5 
Q 23.6875 68.5 21.796875 66.546875 
Q 19.921875 64.59375 19.921875 59.515625 
L 19.921875 54.6875 
L 34.71875 54.6875 
L 34.71875 47.703125 
L 19.921875 47.703125 
L 19.921875 0 
L 10.890625 0 
L 10.890625 47.703125 
L 2.296875 47.703125 
L 2.296875 54.6875 
L 10.890625 54.6875 
L 10.890625 58.5 
Q 10.890625 67.625 15.140625 71.796875 
Q 19.390625 75.984375 28.609375 75.984375 
z
" id="DejaVuSans-66"/>
     <path d="M 53.515625 70.515625 
L 53.515625 60.890625 
Q 47.90625 63.578125 42.921875 64.890625 
Q 37.9375 66.21875 33.296875 66.21875 
Q 25.25 66.21875 20.875 63.09375 
Q 16.5 59.96875 16.5 54.203125 
Q 16.5 49.359375 19.40625 46.890625 
Q 22.3125 44.4375 30.421875 42.921875 
L 36.375 41.703125 
Q 47.40625 39.59375 52.65625 34.296875 
Q 57.90625 29 57.90625 20.125 
Q 57.90625 9.515625 50.796875 4.046875 
Q 43.703125 -1.421875 29.984375 -1.421875 
Q 24.8125 -1.421875 18.96875 -0.25 
Q 13.140625 0.921875 6.890625 3.21875 
L 6.890625 13.375 
Q 12.890625 10.015625 18.65625 8.296875 
Q 24.421875 6.59375 29.984375 6.59375 
Q 38.421875 6.59375 43.015625 9.90625 
Q 47.609375 13.234375 47.609375 19.390625 
Q 47.609375 24.75 44.3125 27.78125 
Q 41.015625 30.8125 33.5 32.328125 
L 27.484375 33.5 
Q 16.453125 35.6875 11.515625 40.375 
Q 6.59375 45.0625 6.59375 53.421875 
Q 6.59375 63.09375 13.40625 68.65625 
Q 20.21875 74.21875 32.171875 74.21875 
Q 37.3125 74.21875 42.625 73.28125 
Q 47.953125 72.359375 53.515625 70.515625 
z
" id="DejaVuSans-53"/>
     <path d="M -0.296875 72.90625 
L 61.375 72.90625 
L 61.375 64.59375 
L 35.5 64.59375 
L 35.5 0 
L 25.59375 0 
L 25.59375 64.59375 
L -0.296875 64.59375 
z
" id="DejaVuSans-54"/>
     <path d="M 48.6875 27.296875 
Q 48.6875 37.203125 44.609375 42.84375 
Q 40.53125 48.484375 33.40625 48.484375 
Q 26.265625 48.484375 22.1875 42.84375 
Q 18.109375 37.203125 18.109375 27.296875 
Q 18.109375 17.390625 22.1875 11.75 
Q 26.265625 6.109375 33.40625 6.109375 
Q 40.53125 6.109375 44.609375 11.75 
Q 48.6875 17.390625 48.6875 27.296875 
z
M 18.109375 46.390625 
Q 20.953125 51.265625 25.265625 53.625 
Q 29.59375 56 35.59375 56 
Q 45.5625 56 51.78125 48.09375 
Q 58.015625 40.1875 58.015625 27.296875 
Q 58.015625 14.40625 51.78125 6.484375 
Q 45.5625 -1.421875 35.59375 -1.421875 
Q 29.59375 -1.421875 25.265625 0.953125 
Q 20.953125 3.328125 18.109375 8.203125 
L 18.109375 0 
L 9.078125 0 
L 9.078125 75.984375 
L 18.109375 75.984375 
z
" id="DejaVuSans-62"/>
     <path d="M 4.890625 31.390625 
L 31.203125 31.390625 
L 31.203125 23.390625 
L 4.890625 23.390625 
z
" id="DejaVuSans-2d"/>
     <path d="M 9.8125 72.90625 
L 19.671875 72.90625 
L 19.671875 8.296875 
L 55.171875 8.296875 
L 55.171875 0 
L 9.8125 0 
z
" id="DejaVuSans-4c"/>
    </defs>
    <g transform="translate(138.544688 35.472)scale(0.12 -0.12)">
     <use xlink:href="#DejaVuSans-43"/>
     <use x="69.824219" xlink:href="#DejaVuSans-65"/>
     <use x="131.347656" xlink:href="#DejaVuSans-72"/>
     <use x="172.460938" xlink:href="#DejaVuSans-74"/>
     <use x="211.669922" xlink:href="#DejaVuSans-69"/>
     <use x="239.453125" xlink:href="#DejaVuSans-66"/>
     <use x="274.658203" xlink:href="#DejaVuSans-69"/>
     <use x="302.441406" xlink:href="#DejaVuSans-63"/>
     <use x="357.421875" xlink:href="#DejaVuSans-61"/>
     <use x="418.701172" xlink:href="#DejaVuSans-74"/>
     <use x="457.910156" xlink:href="#DejaVuSans-65"/>
     <use x="519.433594" xlink:href="#DejaVuSans-73"/>
     <use x="571.533203" xlink:href="#DejaVuSans-20"/>
     <use x="603.320312" xlink:href="#DejaVuSans-77"/>
     <use x="685.107422" xlink:href="#DejaVuSans-69"/>
     <use x="712.890625" xlink:href="#DejaVuSans-74"/>
     <use x="752.099609" xlink:href="#DejaVuSans-68"/>
     <use x="815.478516" xlink:href="#DejaVuSans-20"/>
     <use x="847.265625" xlink:href="#DejaVuSans-53"/>
     <use x="910.742188" xlink:href="#DejaVuSans-43"/>
     <use x="980.566406" xlink:href="#DejaVuSans-54"/>
     <use x="1041.400391" xlink:href="#DejaVuSans-73"/>
     <use x="1093.5" xlink:href="#DejaVuSans-20"/>
     <use x="1125.287109" xlink:href="#DejaVuSans-62"/>
     <use x="1188.763672" xlink:href="#DejaVuSans-79"/>
     <use x="1247.943359" xlink:href="#DejaVuSans-20"/>
     <use x="1279.730469" xlink:href="#DejaVuSans-43"/>
     <use x="1349.554688" xlink:href="#DejaVuSans-54"/>
     <use x="1410.498047" xlink:href="#DejaVuSans-2d"/>
     <use x="1446.582031" xlink:href="#DejaVuSans-4c"/>
     <use x="1502.279297" xlink:href="#DejaVuSans-6f"/>
     <use x="1563.460938" xlink:href="#DejaVuSans-67"/>
    </g>
   </g>
  </g>
 </g>
 <defs>
  <clipPath id="p6934337b43">
   <rect height="266.112" width="357.12" x="57.6" y="41.472"/>
  </clipPath>
 </defs>
</svg>
