<?xml version="1.0" encoding="utf-8" standalone="no"?>
<!DOCTYPE svg PUBLIC "-//W3C//DTD SVG 1.1//EN"
  "http://www.w3.org/Graphics/SVG/1.1/DTD/svg11.dtd">
<!-- Created with matplotlib (http://matplotlib.org/) -->
<svg height="345pt" version="1.1" viewBox="0 0 460 345" width="460pt" xmlns="http://www.w3.org/2000/svg" xmlns:xlink="http://www.w3.org/1999/xlink">
 <defs>
  <style type="text/css">
*{stroke-linecap:butt;stroke-linejoin:round;}
  </style>
 </defs>
 <g id="figure_1">
  <g id="patch_1">
   <path d="M 0 345.6 
L 460.8 345.6 
L 460.8 0 
L 0 0 
z
" style="fill:#ffffff;"/>
  </g>
  <g id="axes_1">
   <g id="patch_2">
    <path d="M 57.6 307.584 
L 414.72 307.584 
L 414.72 41.472 
L 57.6 41.472 
z
" style="fill:#ffffff;"/>
   </g>
   <g id="PolyCollection_1">
    <path clip-path="url(#pa9d0637804)" d="M 73.832727 290.578176 
L 73.832727 307.584 
L 77.112066 307.584 
L 80.391405 307.584 
L 83.670744 307.584 
L 86.950083 307.584 
L 90.229421 307.584 
L 93.50876 307.584 
L 96.788099 307.584 
L 100.067438 307.584 
L 103.346777 307.584 
L 106.626116 307.584 
L 109.905455 307.584 
L 113.184793 307.584 
L 116.464132 307.584 
L 119.743471 307.584 
L 123.02281 307.584 
L 126.302149 307.584 
L 129.581488 307.584 
L 132.860826 307.584 
L 136.140165 307.584 
L 139.419504 307.584 
L 142.698843 307.584 
L 145.978182 307.584 
L 149.257521 307.584 
L 152.53686 307.584 
L 155.816198 307.584 
L 159.095537 307.584 
L 162.374876 307.584 
L 165.654215 307.584 
L 168.933554 307.584 
L 172.212893 307.584 
L 175.492231 307.584 
L 178.77157 307.584 
L 182.050909 307.584 
L 185.330248 307.584 
L 188.609587 307.584 
L 191.888926 307.584 
L 195.168264 307.584 
L 198.447603 307.584 
L 201.726942 307.584 
L 205.006281 307.584 
L 208.28562 307.584 
L 211.564959 307.584 
L 214.844298 307.584 
L 218.123636 307.584 
L 221.402975 307.584 
L 224.682314 307.584 
L 227.961653 307.584 
L 231.240992 307.584 
L 234.520331 307.584 
L 237.799669 307.584 
L 241.079008 307.584 
L 244.358347 307.584 
L 247.637686 307.584 
L 250.917025 307.584 
L 254.196364 307.584 
L 257.475702 307.584 
L 260.755041 307.584 
L 264.03438 307.584 
L 267.313719 307.584 
L 270.593058 307.584 
L 273.872397 307.584 
L 277.151736 307.584 
L 280.431074 307.584 
L 283.710413 307.584 
L 286.989752 307.584 
L 290.269091 307.584 
L 293.54843 307.584 
L 296.827769 307.584 
L 300.107107 307.584 
L 303.386446 307.584 
L 306.665785 307.584 
L 309.945124 307.584 
L 313.224463 307.584 
L 316.503802 307.584 
L 319.78314 307.584 
L 323.062479 307.584 
L 326.341818 307.584 
L 329.621157 307.584 
L 332.900496 307.584 
L 336.179835 307.584 
L 339.459174 307.584 
L 342.738512 307.584 
L 346.017851 307.584 
L 349.29719 307.584 
L 352.576529 307.584 
L 355.855868 307.584 
L 359.135207 307.584 
L 362.414545 307.584 
L 365.693884 307.584 
L 368.973223 307.584 
L 372.252562 307.584 
L 375.531901 307.584 
L 378.81124 307.584 
L 382.090579 307.584 
L 385.369917 307.584 
L 388.649256 307.584 
L 391.928595 307.584 
L 395.207934 307.584 
L 398.487273 307.584 
L 398.487273 304.03584 
L 398.487273 304.03584 
L 395.207934 303.452928 
L 391.928595 303.630336 
L 388.649256 303.833088 
L 385.369917 303.554304 
L 382.090579 304.263936 
L 378.81124 303.604992 
L 375.531901 304.061184 
L 372.252562 303.52896 
L 368.973223 303.452928 
L 365.693884 303.351552 
L 362.414545 303.7824 
L 359.135207 303.959808 
L 355.855868 303.959808 
L 352.576529 303.52896 
L 349.29719 303.376896 
L 346.017851 303.554304 
L 342.738512 302.692608 
L 339.459174 303.427584 
L 336.179835 304.010496 
L 332.900496 302.870016 
L 329.621157 303.224832 
L 326.341818 304.061184 
L 323.062479 303.858432 
L 319.78314 303.02208 
L 316.503802 303.072768 
L 313.224463 303.604992 
L 309.945124 302.844672 
L 306.665785 303.02208 
L 303.386446 302.844672 
L 300.107107 303.554304 
L 296.827769 302.844672 
L 293.54843 302.439168 
L 290.269091 303.326208 
L 286.989752 303.326208 
L 283.710413 302.946048 
L 280.431074 302.616576 
L 277.151736 302.287104 
L 273.872397 303.503616 
L 270.593058 302.312448 
L 267.313719 303.047424 
L 264.03438 303.1488 
L 260.755041 302.464512 
L 257.475702 302.76864 
L 254.196364 302.363136 
L 250.917025 302.439168 
L 247.637686 302.793984 
L 244.358347 303.27552 
L 241.079008 302.565888 
L 237.799669 301.932288 
L 234.520331 302.489856 
L 231.240992 302.616576 
L 227.961653 301.50144 
L 224.682314 302.337792 
L 221.402975 301.932288 
L 218.123636 301.805568 
L 214.844298 301.273344 
L 211.564959 302.211072 
L 208.28562 301.830912 
L 205.006281 301.146624 
L 201.726942 301.704192 
L 198.447603 301.095936 
L 195.168264 301.146624 
L 191.888926 301.8816 
L 188.609587 301.171968 
L 185.330248 301.932288 
L 182.050909 301.62816 
L 178.77157 300.791808 
L 175.492231 301.450752 
L 172.212893 301.552128 
L 168.933554 300.6144 
L 165.654215 300.284928 
L 162.374876 300.056832 
L 159.095537 300.132864 
L 155.816198 300.842496 
L 152.53686 300.639744 
L 149.257521 299.499264 
L 145.978182 300.082176 
L 142.698843 299.575296 
L 139.419504 299.676672 
L 136.140165 298.941696 
L 132.860826 299.676672 
L 129.581488 298.308096 
L 126.302149 298.84032 
L 123.02281 298.612224 
L 119.743471 298.20672 
L 116.464132 298.130688 
L 113.184793 298.688256 
L 109.905455 298.46016 
L 106.626116 298.20672 
L 103.346777 297.649152 
L 100.067438 297.421056 
L 96.788099 297.345024 
L 93.50876 296.255232 
L 90.229421 296.584704 
L 86.950083 295.621632 
L 83.670744 294.810624 
L 80.391405 293.847552 
L 77.112066 293.213952 
L 73.832727 290.578176 
z
" style="fill:#48a33b;"/>
   </g>
   <g id="PolyCollection_2">
    <path clip-path="url(#pa9d0637804)" d="M 73.832727 113.727744 
L 73.832727 290.578176 
L 77.112066 293.213952 
L 80.391405 293.847552 
L 83.670744 294.810624 
L 86.950083 295.621632 
L 90.229421 296.584704 
L 93.50876 296.255232 
L 96.788099 297.345024 
L 100.067438 297.421056 
L 103.346777 297.649152 
L 106.626116 298.20672 
L 109.905455 298.46016 
L 113.184793 298.688256 
L 116.464132 298.130688 
L 119.743471 298.20672 
L 123.02281 298.612224 
L 126.302149 298.84032 
L 129.581488 298.308096 
L 132.860826 299.676672 
L 136.140165 298.941696 
L 139.419504 299.676672 
L 142.698843 299.575296 
L 145.978182 300.082176 
L 149.257521 299.499264 
L 152.53686 300.639744 
L 155.816198 300.842496 
L 159.095537 300.132864 
L 162.374876 300.056832 
L 165.654215 300.284928 
L 168.933554 300.6144 
L 172.212893 301.552128 
L 175.492231 301.450752 
L 178.77157 300.791808 
L 182.050909 301.62816 
L 185.330248 301.932288 
L 188.609587 301.171968 
L 191.888926 301.8816 
L 195.168264 301.146624 
L 198.447603 301.095936 
L 201.726942 301.704192 
L 205.006281 301.146624 
L 208.28562 301.830912 
L 211.564959 302.211072 
L 214.844298 301.273344 
L 218.123636 301.805568 
L 221.402975 301.932288 
L 224.682314 302.337792 
L 227.961653 301.50144 
L 231.240992 302.616576 
L 234.520331 302.489856 
L 237.799669 301.932288 
L 241.079008 302.565888 
L 244.358347 303.27552 
L 247.637686 302.793984 
L 250.917025 302.439168 
L 254.196364 302.363136 
L 257.475702 302.76864 
L 260.755041 302.464512 
L 264.03438 303.1488 
L 267.313719 303.047424 
L 270.593058 302.312448 
L 273.872397 303.503616 
L 277.151736 302.287104 
L 280.431074 302.616576 
L 283.710413 302.946048 
L 286.989752 303.326208 
L 290.269091 303.326208 
L 293.54843 302.439168 
L 296.827769 302.844672 
L 300.107107 303.554304 
L 303.386446 302.844672 
L 306.665785 303.02208 
L 309.945124 302.844672 
L 313.224463 303.604992 
L 316.503802 303.072768 
L 319.78314 303.02208 
L 323.062479 303.858432 
L 326.341818 304.061184 
L 329.621157 303.224832 
L 332.900496 302.870016 
L 336.179835 304.010496 
L 339.459174 303.427584 
L 342.738512 302.692608 
L 346.017851 303.554304 
L 349.29719 303.376896 
L 352.576529 303.52896 
L 355.855868 303.959808 
L 359.135207 303.959808 
L 362.414545 303.7824 
L 365.693884 303.351552 
L 368.973223 303.452928 
L 372.252562 303.52896 
L 375.531901 304.061184 
L 378.81124 303.604992 
L 382.090579 304.263936 
L 385.369917 303.554304 
L 388.649256 303.833088 
L 391.928595 303.630336 
L 395.207934 303.452928 
L 398.487273 304.03584 
L 398.487273 136.76544 
L 398.487273 136.76544 
L 395.207934 135.574272 
L 391.928595 132.96384 
L 388.649256 132.634368 
L 385.369917 134.585856 
L 382.090579 137.601792 
L 378.81124 132.051456 
L 375.531901 136.00512 
L 372.252562 135.827712 
L 368.973223 139.401216 
L 365.693884 135.472896 
L 362.414545 135.422208 
L 359.135207 133.09056 
L 355.855868 133.901568 
L 352.576529 135.802368 
L 349.29719 135.675648 
L 346.017851 135.548928 
L 342.738512 135.295488 
L 339.459174 131.798016 
L 336.179835 137.01888 
L 332.900496 133.445376 
L 329.621157 137.297664 
L 326.341818 137.576448 
L 323.062479 133.825536 
L 319.78314 136.512 
L 316.503802 132.0768 
L 313.224463 136.76544 
L 309.945124 131.69664 
L 306.665785 132.507648 
L 303.386446 133.496064 
L 300.107107 139.223808 
L 296.827769 136.38528 
L 293.54843 136.106496 
L 290.269091 138.514176 
L 286.989752 136.25856 
L 283.710413 136.740096 
L 280.431074 137.576448 
L 277.151736 138.184704 
L 273.872397 137.323008 
L 270.593058 138.590208 
L 267.313719 138.995712 
L 264.03438 138.79296 
L 260.755041 134.788608 
L 257.475702 137.931264 
L 254.196364 139.603968 
L 250.917025 138.488832 
L 247.637686 139.958784 
L 244.358347 140.212224 
L 241.079008 139.882752 
L 237.799669 137.703168 
L 234.520331 139.249152 
L 231.240992 137.880576 
L 227.961653 137.323008 
L 224.682314 137.373696 
L 221.402975 140.56704 
L 218.123636 138.945024 
L 214.844298 137.753856 
L 211.564959 139.832064 
L 208.28562 139.882752 
L 205.006281 136.334592 
L 201.726942 143.35488 
L 198.447603 138.362112 
L 195.168264 142.138368 
L 191.888926 142.315776 
L 188.609587 139.375872 
L 185.330248 137.829888 
L 182.050909 138.28608 
L 178.77157 137.880576 
L 175.492231 140.389632 
L 172.212893 143.937792 
L 168.933554 140.9472 
L 165.654215 141.758208 
L 162.374876 142.771968 
L 159.095537 138.362112 
L 155.816198 143.659008 
L 152.53686 138.843648 
L 149.257521 141.555456 
L 145.978182 143.152128 
L 142.698843 140.389632 
L 139.419504 141.124608 
L 136.140165 143.126784 
L 132.860826 144.87552 
L 129.581488 139.097088 
L 126.302149 139.17312 
L 123.02281 141.935616 
L 119.743471 142.97472 
L 116.464132 139.502592 
L 113.184793 143.10144 
L 109.905455 143.076096 
L 106.626116 145.50912 
L 103.346777 145.990656 
L 100.067438 141.96096 
L 96.788099 140.262912 
L 93.50876 142.366464 
L 90.229421 139.223808 
L 86.950083 142.08768 
L 83.670744 138.514176 
L 80.391405 135.49824 
L 77.112066 131.164416 
L 73.832727 113.727744 
z
" style="fill:#6a83c9;"/>
   </g>
   <g id="PolyCollection_3">
    <path clip-path="url(#pa9d0637804)" d="M 73.832727 76.167936 
L 73.832727 113.727744 
L 77.112066 131.164416 
L 80.391405 135.49824 
L 83.670744 138.514176 
L 86.950083 142.08768 
L 90.229421 139.223808 
L 93.50876 142.366464 
L 96.788099 140.262912 
L 100.067438 141.96096 
L 103.346777 145.990656 
L 106.626116 145.50912 
L 109.905455 143.076096 
L 113.184793 143.10144 
L 116.464132 139.502592 
L 119.743471 142.97472 
L 123.02281 141.935616 
L 126.302149 139.17312 
L 129.581488 139.097088 
L 132.860826 144.87552 
L 136.140165 143.126784 
L 139.419504 141.124608 
L 142.698843 140.389632 
L 145.978182 143.152128 
L 149.257521 141.555456 
L 152.53686 138.843648 
L 155.816198 143.659008 
L 159.095537 138.362112 
L 162.374876 142.771968 
L 165.654215 141.758208 
L 168.933554 140.9472 
L 172.212893 143.937792 
L 175.492231 140.389632 
L 178.77157 137.880576 
L 182.050909 138.28608 
L 185.330248 137.829888 
L 188.609587 139.375872 
L 191.888926 142.315776 
L 195.168264 142.138368 
L 198.447603 138.362112 
L 201.726942 143.35488 
L 205.006281 136.334592 
L 208.28562 139.882752 
L 211.564959 139.832064 
L 214.844298 137.753856 
L 218.123636 138.945024 
L 221.402975 140.56704 
L 224.682314 137.373696 
L 227.961653 137.323008 
L 231.240992 137.880576 
L 234.520331 139.249152 
L 237.799669 137.703168 
L 241.079008 139.882752 
L 244.358347 140.212224 
L 247.637686 139.958784 
L 250.917025 138.488832 
L 254.196364 139.603968 
L 257.475702 137.931264 
L 260.755041 134.788608 
L 264.03438 138.79296 
L 267.313719 138.995712 
L 270.593058 138.590208 
L 273.872397 137.323008 
L 277.151736 138.184704 
L 280.431074 137.576448 
L 283.710413 136.740096 
L 286.989752 136.25856 
L 290.269091 138.514176 
L 293.54843 136.106496 
L 296.827769 136.38528 
L 300.107107 139.223808 
L 303.386446 133.496064 
L 306.665785 132.507648 
L 309.945124 131.69664 
L 313.224463 136.76544 
L 316.503802 132.0768 
L 319.78314 136.512 
L 323.062479 133.825536 
L 326.341818 137.576448 
L 329.621157 137.297664 
L 332.900496 133.445376 
L 336.179835 137.01888 
L 339.459174 131.798016 
L 342.738512 135.295488 
L 346.017851 135.548928 
L 349.29719 135.675648 
L 352.576529 135.802368 
L 355.855868 133.901568 
L 359.135207 133.09056 
L 362.414545 135.422208 
L 365.693884 135.472896 
L 368.973223 139.401216 
L 372.252562 135.827712 
L 375.531901 136.00512 
L 378.81124 132.051456 
L 382.090579 137.601792 
L 385.369917 134.585856 
L 388.649256 132.634368 
L 391.928595 132.96384 
L 395.207934 135.574272 
L 398.487273 136.76544 
L 398.487273 81.186048 
L 398.487273 81.186048 
L 395.207934 80.805888 
L 391.928595 79.564032 
L 388.649256 80.273664 
L 385.369917 79.640064 
L 382.090579 83.593728 
L 378.81124 77.865984 
L 375.531901 80.780544 
L 372.252562 80.679168 
L 368.973223 83.41632 
L 365.693884 80.7552 
L 362.414545 80.527104 
L 359.135207 77.257728 
L 355.855868 76.015872 
L 352.576529 80.476416 
L 349.29719 78.398208 
L 346.017851 78.60096 
L 342.738512 76.82688 
L 339.459174 76.978944 
L 336.179835 83.390976 
L 332.900496 78.068736 
L 329.621157 83.999232 
L 326.341818 81.363456 
L 323.062479 77.536512 
L 319.78314 81.591552 
L 316.503802 76.750848 
L 313.224463 80.527104 
L 309.945124 76.396032 
L 306.665785 76.750848 
L 303.386446 76.421376 
L 300.107107 82.427904 
L 296.827769 80.146944 
L 293.54843 82.073088 
L 290.269091 83.821824 
L 286.989752 80.932608 
L 283.710413 80.983296 
L 280.431074 81.971712 
L 277.151736 83.061504 
L 273.872397 81.490176 
L 270.593058 82.453248 
L 267.313719 79.665408 
L 264.03438 81.616896 
L 260.755041 78.47424 
L 257.475702 81.76896 
L 254.196364 82.858752 
L 250.917025 80.273664 
L 247.637686 83.264256 
L 244.358347 82.0224 
L 241.079008 80.88192 
L 237.799669 79.690752 
L 234.520331 78.905088 
L 231.240992 78.626304 
L 227.961653 81.870336 
L 224.682314 81.312768 
L 221.402975 80.88192 
L 218.123636 81.64224 
L 214.844298 78.753024 
L 211.564959 81.692928 
L 208.28562 81.00864 
L 205.006281 78.423552 
L 201.726942 86.635008 
L 198.447603 81.64224 
L 195.168264 84.68352 
L 191.888926 82.0224 
L 188.609587 81.033984 
L 185.330248 78.955776 
L 182.050909 80.679168 
L 178.77157 77.08032 
L 175.492231 81.160704 
L 172.212893 83.619072 
L 168.933554 81.110016 
L 165.654215 84.278016 
L 162.374876 84.81024 
L 159.095537 77.739264 
L 155.816198 83.16288 
L 152.53686 81.312768 
L 149.257521 81.312768 
L 145.978182 83.593728 
L 142.698843 80.577792 
L 139.419504 79.23456 
L 136.140165 83.948544 
L 132.860826 84.328704 
L 129.581488 79.335936 
L 126.302149 80.577792 
L 123.02281 81.439488 
L 119.743471 84.506112 
L 116.464132 78.676992 
L 113.184793 83.973888 
L 109.905455 82.40256 
L 106.626116 83.847168 
L 103.346777 85.393152 
L 100.067438 82.123776 
L 96.788099 81.110016 
L 93.50876 82.377216 
L 90.229421 81.566208 
L 86.950083 82.884096 
L 83.670744 81.13536 
L 80.391405 81.743616 
L 77.112066 79.842816 
L 73.832727 76.167936 
z
" style="fill:#e9ae2e;"/>
   </g>
   <g id="PolyCollection_4">
    <path clip-path="url(#pa9d0637804)" d="M 73.832727 54.144 
L 73.832727 76.167936 
L 77.112066 79.842816 
L 80.391405 81.743616 
L 83.670744 81.13536 
L 86.950083 82.884096 
L 90.229421 81.566208 
L 93.50876 82.377216 
L 96.788099 81.110016 
L 100.067438 82.123776 
L 103.346777 85.393152 
L 106.626116 83.847168 
L 109.905455 82.40256 
L 113.184793 83.973888 
L 116.464132 78.676992 
L 119.743471 84.506112 
L 123.02281 81.439488 
L 126.302149 80.577792 
L 129.581488 79.335936 
L 132.860826 84.328704 
L 136.140165 83.948544 
L 139.419504 79.23456 
L 142.698843 80.577792 
L 145.978182 83.593728 
L 149.257521 81.312768 
L 152.53686 81.312768 
L 155.816198 83.16288 
L 159.095537 77.739264 
L 162.374876 84.81024 
L 165.654215 84.278016 
L 168.933554 81.110016 
L 172.212893 83.619072 
L 175.492231 81.160704 
L 178.77157 77.08032 
L 182.050909 80.679168 
L 185.330248 78.955776 
L 188.609587 81.033984 
L 191.888926 82.0224 
L 195.168264 84.68352 
L 198.447603 81.64224 
L 201.726942 86.635008 
L 205.006281 78.423552 
L 208.28562 81.00864 
L 211.564959 81.692928 
L 214.844298 78.753024 
L 218.123636 81.64224 
L 221.402975 80.88192 
L 224.682314 81.312768 
L 227.961653 81.870336 
L 231.240992 78.626304 
L 234.520331 78.905088 
L 237.799669 79.690752 
L 241.079008 80.88192 
L 244.358347 82.0224 
L 247.637686 83.264256 
L 250.917025 80.273664 
L 254.196364 82.858752 
L 257.475702 81.76896 
L 260.755041 78.47424 
L 264.03438 81.616896 
L 267.313719 79.665408 
L 270.593058 82.453248 
L 273.872397 81.490176 
L 277.151736 83.061504 
L 280.431074 81.971712 
L 283.710413 80.983296 
L 286.989752 80.932608 
L 290.269091 83.821824 
L 293.54843 82.073088 
L 296.827769 80.146944 
L 300.107107 82.427904 
L 303.386446 76.421376 
L 306.665785 76.750848 
L 309.945124 76.396032 
L 313.224463 80.527104 
L 316.503802 76.750848 
L 319.78314 81.591552 
L 323.062479 77.536512 
L 326.341818 81.363456 
L 329.621157 83.999232 
L 332.900496 78.068736 
L 336.179835 83.390976 
L 339.459174 76.978944 
L 342.738512 76.82688 
L 346.017851 78.60096 
L 349.29719 78.398208 
L 352.576529 80.476416 
L 355.855868 76.015872 
L 359.135207 77.257728 
L 362.414545 80.527104 
L 365.693884 80.7552 
L 368.973223 83.41632 
L 372.252562 80.679168 
L 375.531901 80.780544 
L 378.81124 77.865984 
L 382.090579 83.593728 
L 385.369917 79.640064 
L 388.649256 80.273664 
L 391.928595 79.564032 
L 395.207934 80.805888 
L 398.487273 81.186048 
L 398.487273 54.144 
L 398.487273 54.144 
L 395.207934 54.144 
L 391.928595 54.144 
L 388.649256 54.144 
L 385.369917 54.144 
L 382.090579 54.144 
L 378.81124 54.144 
L 375.531901 54.144 
L 372.252562 54.144 
L 368.973223 54.144 
L 365.693884 54.144 
L 362.414545 54.144 
L 359.135207 54.144 
L 355.855868 54.144 
L 352.576529 54.144 
L 349.29719 54.144 
L 346.017851 54.144 
L 342.738512 54.144 
L 339.459174 54.144 
L 336.179835 54.144 
L 332.900496 54.144 
L 329.621157 54.144 
L 326.341818 54.144 
L 323.062479 54.144 
L 319.78314 54.144 
L 316.503802 54.144 
L 313.224463 54.144 
L 309.945124 54.144 
L 306.665785 54.144 
L 303.386446 54.144 
L 300.107107 54.144 
L 296.827769 54.144 
L 293.54843 54.144 
L 290.269091 54.144 
L 286.989752 54.144 
L 283.710413 54.144 
L 280.431074 54.144 
L 277.151736 54.144 
L 273.872397 54.144 
L 270.593058 54.144 
L 267.313719 54.144 
L 264.03438 54.144 
L 260.755041 54.144 
L 257.475702 54.144 
L 254.196364 54.144 
L 250.917025 54.144 
L 247.637686 54.144 
L 244.358347 54.144 
L 241.079008 54.144 
L 237.799669 54.144 
L 234.520331 54.144 
L 231.240992 54.144 
L 227.961653 54.144 
L 224.682314 54.144 
L 221.402975 54.144 
L 218.123636 54.144 
L 214.844298 54.144 
L 211.564959 54.144 
L 208.28562 54.144 
L 205.006281 54.144 
L 201.726942 54.144 
L 198.447603 54.144 
L 195.168264 54.144 
L 191.888926 54.144 
L 188.609587 54.144 
L 185.330248 54.144 
L 182.050909 54.144 
L 178.77157 54.144 
L 175.492231 54.144 
L 172.212893 54.144 
L 168.933554 54.144 
L 165.654215 54.144 
L 162.374876 54.144 
L 159.095537 54.144 
L 155.816198 54.144 
L 152.53686 54.144 
L 149.257521 54.144 
L 145.978182 54.144 
L 142.698843 54.144 
L 139.419504 54.144 
L 136.140165 54.144 
L 132.860826 54.144 
L 129.581488 54.144 
L 126.302149 54.144 
L 123.02281 54.144 
L 119.743471 54.144 
L 116.464132 54.144 
L 113.184793 54.144 
L 109.905455 54.144 
L 106.626116 54.144 
L 103.346777 54.144 
L 100.067438 54.144 
L 96.788099 54.144 
L 93.50876 54.144 
L 90.229421 54.144 
L 86.950083 54.144 
L 83.670744 54.144 
L 80.391405 54.144 
L 77.112066 54.144 
L 73.832727 54.144 
z
" style="fill:#f9525e;"/>
   </g>
   <g id="matplotlib.axis_1">
    <g id="xtick_1">
     <g id="line2d_1">
      <defs>
       <path d="M 0 0 
L 0 3.5 
" id="mbf436c03e2" style="stroke:#000000;stroke-width:0.8;"/>
      </defs>
      <g>
       <use style="stroke:#000000;stroke-width:0.8;" x="70.553388" xlink:href="#mbf436c03e2" y="307.584"/>
      </g>
     </g>
     <g id="text_1">
      <!-- 0 -->
      <defs>
       <path d="M 31.78125 66.40625 
Q 24.171875 66.40625 20.328125 58.90625 
Q 16.5 51.421875 16.5 36.375 
Q 16.5 21.390625 20.328125 13.890625 
Q 24.171875 6.390625 31.78125 6.390625 
Q 39.453125 6.390625 43.28125 13.890625 
Q 47.125 21.390625 47.125 36.375 
Q 47.125 51.421875 43.28125 58.90625 
Q 39.453125 66.40625 31.78125 66.40625 
z
M 31.78125 74.21875 
Q 44.046875 74.21875 50.515625 64.515625 
Q 56.984375 54.828125 56.984375 36.375 
Q 56.984375 17.96875 50.515625 8.265625 
Q 44.046875 -1.421875 31.78125 -1.421875 
Q 19.53125 -1.421875 13.0625 8.265625 
Q 6.59375 17.96875 6.59375 36.375 
Q 6.59375 54.828125 13.0625 64.515625 
Q 19.53125 74.21875 31.78125 74.21875 
z
" id="DejaVuSans-30"/>
      </defs>
      <g transform="translate(67.372138 322.182437)scale(0.1 -0.1)">
       <use xlink:href="#DejaVuSans-30"/>
      </g>
     </g>
    </g>
    <g id="xtick_2">
     <g id="line2d_2">
      <g>
       <use style="stroke:#000000;stroke-width:0.8;" x="136.140165" xlink:href="#mbf436c03e2" y="307.584"/>
      </g>
     </g>
     <g id="text_2">
      <!-- 200000 -->
      <defs>
       <path d="M 19.1875 8.296875 
L 53.609375 8.296875 
L 53.609375 0 
L 7.328125 0 
L 7.328125 8.296875 
Q 12.9375 14.109375 22.625 23.890625 
Q 32.328125 33.6875 34.8125 36.53125 
Q 39.546875 41.84375 41.421875 45.53125 
Q 43.3125 49.21875 43.3125 52.78125 
Q 43.3125 58.59375 39.234375 62.25 
Q 35.15625 65.921875 28.609375 65.921875 
Q 23.96875 65.921875 18.8125 64.3125 
Q 13.671875 62.703125 7.8125 59.421875 
L 7.8125 69.390625 
Q 13.765625 71.78125 18.9375 73 
Q 24.125 74.21875 28.421875 74.21875 
Q 39.75 74.21875 46.484375 68.546875 
Q 53.21875 62.890625 53.21875 53.421875 
Q 53.21875 48.921875 51.53125 44.890625 
Q 49.859375 40.875 45.40625 35.40625 
Q 44.1875 33.984375 37.640625 27.21875 
Q 31.109375 20.453125 19.1875 8.296875 
z
" id="DejaVuSans-32"/>
      </defs>
      <g transform="translate(117.052665 322.182437)scale(0.1 -0.1)">
       <use xlink:href="#DejaVuSans-32"/>
       <use x="63.623047" xlink:href="#DejaVuSans-30"/>
       <use x="127.246094" xlink:href="#DejaVuSans-30"/>
       <use x="190.869141" xlink:href="#DejaVuSans-30"/>
       <use x="254.492188" xlink:href="#DejaVuSans-30"/>
       <use x="318.115234" xlink:href="#DejaVuSans-30"/>
      </g>
     </g>
    </g>
    <g id="xtick_3">
     <g id="line2d_3">
      <g>
       <use style="stroke:#000000;stroke-width:0.8;" x="201.726942" xlink:href="#mbf436c03e2" y="307.584"/>
      </g>
     </g>
     <g id="text_3">
      <!-- 400000 -->
      <defs>
       <path d="M 37.796875 64.3125 
L 12.890625 25.390625 
L 37.796875 25.390625 
z
M 35.203125 72.90625 
L 47.609375 72.90625 
L 47.609375 25.390625 
L 58.015625 25.390625 
L 58.015625 17.1875 
L 47.609375 17.1875 
L 47.609375 0 
L 37.796875 0 
L 37.796875 17.1875 
L 4.890625 17.1875 
L 4.890625 26.703125 
z
" id="DejaVuSans-34"/>
      </defs>
      <g transform="translate(182.639442 322.182437)scale(0.1 -0.1)">
       <use xlink:href="#DejaVuSans-34"/>
       <use x="63.623047" xlink:href="#DejaVuSans-30"/>
       <use x="127.246094" xlink:href="#DejaVuSans-30"/>
       <use x="190.869141" xlink:href="#DejaVuSans-30"/>
       <use x="254.492188" xlink:href="#DejaVuSans-30"/>
       <use x="318.115234" xlink:href="#DejaVuSans-30"/>
      </g>
     </g>
    </g>
    <g id="xtick_4">
     <g id="line2d_4">
      <g>
       <use style="stroke:#000000;stroke-width:0.8;" x="267.313719" xlink:href="#mbf436c03e2" y="307.584"/>
      </g>
     </g>
     <g id="text_4">
      <!-- 600000 -->
      <defs>
       <path d="M 33.015625 40.375 
Q 26.375 40.375 22.484375 35.828125 
Q 18.609375 31.296875 18.609375 23.390625 
Q 18.609375 15.53125 22.484375 10.953125 
Q 26.375 6.390625 33.015625 6.390625 
Q 39.65625 6.390625 43.53125 10.953125 
Q 47.40625 15.53125 47.40625 23.390625 
Q 47.40625 31.296875 43.53125 35.828125 
Q 39.65625 40.375 33.015625 40.375 
z
M 52.59375 71.296875 
L 52.59375 62.3125 
Q 48.875 64.0625 45.09375 64.984375 
Q 41.3125 65.921875 37.59375 65.921875 
Q 27.828125 65.921875 22.671875 59.328125 
Q 17.53125 52.734375 16.796875 39.40625 
Q 19.671875 43.65625 24.015625 45.921875 
Q 28.375 48.1875 33.59375 48.1875 
Q 44.578125 48.1875 50.953125 41.515625 
Q 57.328125 34.859375 57.328125 23.390625 
Q 57.328125 12.15625 50.6875 5.359375 
Q 44.046875 -1.421875 33.015625 -1.421875 
Q 20.359375 -1.421875 13.671875 8.265625 
Q 6.984375 17.96875 6.984375 36.375 
Q 6.984375 53.65625 15.1875 63.9375 
Q 23.390625 74.21875 37.203125 74.21875 
Q 40.921875 74.21875 44.703125 73.484375 
Q 48.484375 72.75 52.59375 71.296875 
z
" id="DejaVuSans-36"/>
      </defs>
      <g transform="translate(248.226219 322.182437)scale(0.1 -0.1)">
       <use xlink:href="#DejaVuSans-36"/>
       <use x="63.623047" xlink:href="#DejaVuSans-30"/>
       <use x="127.246094" xlink:href="#DejaVuSans-30"/>
       <use x="190.869141" xlink:href="#DejaVuSans-30"/>
       <use x="254.492188" xlink:href="#DejaVuSans-30"/>
       <use x="318.115234" xlink:href="#DejaVuSans-30"/>
      </g>
     </g>
    </g>
    <g id="xtick_5">
     <g id="line2d_5">
      <g>
       <use style="stroke:#000000;stroke-width:0.8;" x="332.900496" xlink:href="#mbf436c03e2" y="307.584"/>
      </g>
     </g>
     <g id="text_5">
      <!-- 800000 -->
      <defs>
       <path d="M 31.78125 34.625 
Q 24.75 34.625 20.71875 30.859375 
Q 16.703125 27.09375 16.703125 20.515625 
Q 16.703125 13.921875 20.71875 10.15625 
Q 24.75 6.390625 31.78125 6.390625 
Q 38.8125 6.390625 42.859375 10.171875 
Q 46.921875 13.96875 46.921875 20.515625 
Q 46.921875 27.09375 42.890625 30.859375 
Q 38.875 34.625 31.78125 34.625 
z
M 21.921875 38.8125 
Q 15.578125 40.375 12.03125 44.71875 
Q 8.5 49.078125 8.5 55.328125 
Q 8.5 64.0625 14.71875 69.140625 
Q 20.953125 74.21875 31.78125 74.21875 
Q 42.671875 74.21875 48.875 69.140625 
Q 55.078125 64.0625 55.078125 55.328125 
Q 55.078125 49.078125 51.53125 44.71875 
Q 48 40.375 41.703125 38.8125 
Q 48.828125 37.15625 52.796875 32.3125 
Q 56.78125 27.484375 56.78125 20.515625 
Q 56.78125 9.90625 50.3125 4.234375 
Q 43.84375 -1.421875 31.78125 -1.421875 
Q 19.734375 -1.421875 13.25 4.234375 
Q 6.78125 9.90625 6.78125 20.515625 
Q 6.78125 27.484375 10.78125 32.3125 
Q 14.796875 37.15625 21.921875 38.8125 
z
M 18.3125 54.390625 
Q 18.3125 48.734375 21.84375 45.5625 
Q 25.390625 42.390625 31.78125 42.390625 
Q 38.140625 42.390625 41.71875 45.5625 
Q 45.3125 48.734375 45.3125 54.390625 
Q 45.3125 60.0625 41.71875 63.234375 
Q 38.140625 66.40625 31.78125 66.40625 
Q 25.390625 66.40625 21.84375 63.234375 
Q 18.3125 60.0625 18.3125 54.390625 
z
" id="DejaVuSans-38"/>
      </defs>
      <g transform="translate(313.812996 322.182437)scale(0.1 -0.1)">
       <use xlink:href="#DejaVuSans-38"/>
       <use x="63.623047" xlink:href="#DejaVuSans-30"/>
       <use x="127.246094" xlink:href="#DejaVuSans-30"/>
       <use x="190.869141" xlink:href="#DejaVuSans-30"/>
       <use x="254.492188" xlink:href="#DejaVuSans-30"/>
       <use x="318.115234" xlink:href="#DejaVuSans-30"/>
      </g>
     </g>
    </g>
    <g id="xtick_6">
     <g id="line2d_6">
      <g>
       <use style="stroke:#000000;stroke-width:0.8;" x="398.487273" xlink:href="#mbf436c03e2" y="307.584"/>
      </g>
     </g>
     <g id="text_6">
      <!-- 1000000 -->
      <defs>
       <path d="M 12.40625 8.296875 
L 28.515625 8.296875 
L 28.515625 63.921875 
L 10.984375 60.40625 
L 10.984375 69.390625 
L 28.421875 72.90625 
L 38.28125 72.90625 
L 38.28125 8.296875 
L 54.390625 8.296875 
L 54.390625 0 
L 12.40625 0 
z
" id="DejaVuSans-31"/>
      </defs>
      <g transform="translate(376.218523 322.182437)scale(0.1 -0.1)">
       <use xlink:href="#DejaVuSans-31"/>
       <use x="63.623047" xlink:href="#DejaVuSans-30"/>
       <use x="127.246094" xlink:href="#DejaVuSans-30"/>
       <use x="190.869141" xlink:href="#DejaVuSans-30"/>
       <use x="254.492188" xlink:href="#DejaVuSans-30"/>
       <use x="318.115234" xlink:href="#DejaVuSans-30"/>
       <use x="381.738281" xlink:href="#DejaVuSans-30"/>
      </g>
     </g>
    </g>
    <g id="text_7">
     <!-- alexa rank -->
     <defs>
      <path d="M 34.28125 27.484375 
Q 23.390625 27.484375 19.1875 25 
Q 14.984375 22.515625 14.984375 16.5 
Q 14.984375 11.71875 18.140625 8.90625 
Q 21.296875 6.109375 26.703125 6.109375 
Q 34.1875 6.109375 38.703125 11.40625 
Q 43.21875 16.703125 43.21875 25.484375 
L 43.21875 27.484375 
z
M 52.203125 31.203125 
L 52.203125 0 
L 43.21875 0 
L 43.21875 8.296875 
Q 40.140625 3.328125 35.546875 0.953125 
Q 30.953125 -1.421875 24.3125 -1.421875 
Q 15.921875 -1.421875 10.953125 3.296875 
Q 6 8.015625 6 15.921875 
Q 6 25.140625 12.171875 29.828125 
Q 18.359375 34.515625 30.609375 34.515625 
L 43.21875 34.515625 
L 43.21875 35.40625 
Q 43.21875 41.609375 39.140625 45 
Q 35.0625 48.390625 27.6875 48.390625 
Q 23 48.390625 18.546875 47.265625 
Q 14.109375 46.140625 10.015625 43.890625 
L 10.015625 52.203125 
Q 14.9375 54.109375 19.578125 55.046875 
Q 24.21875 56 28.609375 56 
Q 40.484375 56 46.34375 49.84375 
Q 52.203125 43.703125 52.203125 31.203125 
z
" id="DejaVuSans-61"/>
      <path d="M 9.421875 75.984375 
L 18.40625 75.984375 
L 18.40625 0 
L 9.421875 0 
z
" id="DejaVuSans-6c"/>
      <path d="M 56.203125 29.59375 
L 56.203125 25.203125 
L 14.890625 25.203125 
Q 15.484375 15.921875 20.484375 11.0625 
Q 25.484375 6.203125 34.421875 6.203125 
Q 39.59375 6.203125 44.453125 7.46875 
Q 49.3125 8.734375 54.109375 11.28125 
L 54.109375 2.78125 
Q 49.265625 0.734375 44.1875 -0.34375 
Q 39.109375 -1.421875 33.890625 -1.421875 
Q 20.796875 -1.421875 13.15625 6.1875 
Q 5.515625 13.8125 5.515625 26.8125 
Q 5.515625 40.234375 12.765625 48.109375 
Q 20.015625 56 32.328125 56 
Q 43.359375 56 49.78125 48.890625 
Q 56.203125 41.796875 56.203125 29.59375 
z
M 47.21875 32.234375 
Q 47.125 39.59375 43.09375 43.984375 
Q 39.0625 48.390625 32.421875 48.390625 
Q 24.90625 48.390625 20.390625 44.140625 
Q 15.875 39.890625 15.1875 32.171875 
z
" id="DejaVuSans-65"/>
      <path d="M 54.890625 54.6875 
L 35.109375 28.078125 
L 55.90625 0 
L 45.3125 0 
L 29.390625 21.484375 
L 13.484375 0 
L 2.875 0 
L 24.125 28.609375 
L 4.6875 54.6875 
L 15.28125 54.6875 
L 29.78125 35.203125 
L 44.28125 54.6875 
z
" id="DejaVuSans-78"/>
      <path id="DejaVuSans-20"/>
      <path d="M 41.109375 46.296875 
Q 39.59375 47.171875 37.8125 47.578125 
Q 36.03125 48 33.890625 48 
Q 26.265625 48 22.1875 43.046875 
Q 18.109375 38.09375 18.109375 28.8125 
L 18.109375 0 
L 9.078125 0 
L 9.078125 54.6875 
L 18.109375 54.6875 
L 18.109375 46.1875 
Q 20.953125 51.171875 25.484375 53.578125 
Q 30.03125 56 36.53125 56 
Q 37.453125 56 38.578125 55.875 
Q 39.703125 55.765625 41.0625 55.515625 
z
" id="DejaVuSans-72"/>
      <path d="M 54.890625 33.015625 
L 54.890625 0 
L 45.90625 0 
L 45.90625 32.71875 
Q 45.90625 40.484375 42.875 44.328125 
Q 39.84375 48.1875 33.796875 48.1875 
Q 26.515625 48.1875 22.3125 43.546875 
Q 18.109375 38.921875 18.109375 30.90625 
L 18.109375 0 
L 9.078125 0 
L 9.078125 54.6875 
L 18.109375 54.6875 
L 18.109375 46.1875 
Q 21.34375 51.125 25.703125 53.5625 
Q 30.078125 56 35.796875 56 
Q 45.21875 56 50.046875 50.171875 
Q 54.890625 44.34375 54.890625 33.015625 
z
" id="DejaVuSans-6e"/>
      <path d="M 9.078125 75.984375 
L 18.109375 75.984375 
L 18.109375 31.109375 
L 44.921875 54.6875 
L 56.390625 54.6875 
L 27.390625 29.109375 
L 57.625 0 
L 45.90625 0 
L 18.109375 26.703125 
L 18.109375 0 
L 9.078125 0 
z
" id="DejaVuSans-6b"/>
     </defs>
     <g transform="translate(209.835 335.860562)scale(0.1 -0.1)">
      <use xlink:href="#DejaVuSans-61"/>
      <use x="61.279297" xlink:href="#DejaVuSans-6c"/>
      <use x="89.0625" xlink:href="#DejaVuSans-65"/>
      <use x="150.570312" xlink:href="#DejaVuSans-78"/>
      <use x="209.75" xlink:href="#DejaVuSans-61"/>
      <use x="271.029297" xlink:href="#DejaVuSans-20"/>
      <use x="302.816406" xlink:href="#DejaVuSans-72"/>
      <use x="343.929688" xlink:href="#DejaVuSans-61"/>
      <use x="405.208984" xlink:href="#DejaVuSans-6e"/>
      <use x="468.587891" xlink:href="#DejaVuSans-6b"/>
     </g>
    </g>
   </g>
   <g id="matplotlib.axis_2">
    <g id="ytick_1">
     <g id="line2d_7">
      <defs>
       <path d="M 0 0 
L -3.5 0 
" id="m7c5467cd22" style="stroke:#000000;stroke-width:0.8;"/>
      </defs>
      <g>
       <use style="stroke:#000000;stroke-width:0.8;" x="57.6" xlink:href="#m7c5467cd22" y="307.584"/>
      </g>
     </g>
     <g id="text_8">
      <!-- 0.0 -->
      <defs>
       <path d="M 10.6875 12.40625 
L 21 12.40625 
L 21 0 
L 10.6875 0 
z
" id="DejaVuSans-2e"/>
      </defs>
      <g transform="translate(34.696875 311.383219)scale(0.1 -0.1)">
       <use xlink:href="#DejaVuSans-30"/>
       <use x="63.623047" xlink:href="#DejaVuSans-2e"/>
       <use x="95.410156" xlink:href="#DejaVuSans-30"/>
      </g>
     </g>
    </g>
    <g id="ytick_2">
     <g id="line2d_8">
      <g>
       <use style="stroke:#000000;stroke-width:0.8;" x="57.6" xlink:href="#m7c5467cd22" y="256.896"/>
      </g>
     </g>
     <g id="text_9">
      <!-- 0.2 -->
      <g transform="translate(34.696875 260.695219)scale(0.1 -0.1)">
       <use xlink:href="#DejaVuSans-30"/>
       <use x="63.623047" xlink:href="#DejaVuSans-2e"/>
       <use x="95.410156" xlink:href="#DejaVuSans-32"/>
      </g>
     </g>
    </g>
    <g id="ytick_3">
     <g id="line2d_9">
      <g>
       <use style="stroke:#000000;stroke-width:0.8;" x="57.6" xlink:href="#m7c5467cd22" y="206.208"/>
      </g>
     </g>
     <g id="text_10">
      <!-- 0.4 -->
      <g transform="translate(34.696875 210.007219)scale(0.1 -0.1)">
       <use xlink:href="#DejaVuSans-30"/>
       <use x="63.623047" xlink:href="#DejaVuSans-2e"/>
       <use x="95.410156" xlink:href="#DejaVuSans-34"/>
      </g>
     </g>
    </g>
    <g id="ytick_4">
     <g id="line2d_10">
      <g>
       <use style="stroke:#000000;stroke-width:0.8;" x="57.6" xlink:href="#m7c5467cd22" y="155.52"/>
      </g>
     </g>
     <g id="text_11">
      <!-- 0.6 -->
      <g transform="translate(34.696875 159.319219)scale(0.1 -0.1)">
       <use xlink:href="#DejaVuSans-30"/>
       <use x="63.623047" xlink:href="#DejaVuSans-2e"/>
       <use x="95.410156" xlink:href="#DejaVuSans-36"/>
      </g>
     </g>
    </g>
    <g id="ytick_5">
     <g id="line2d_11">
      <g>
       <use style="stroke:#000000;stroke-width:0.8;" x="57.6" xlink:href="#m7c5467cd22" y="104.832"/>
      </g>
     </g>
     <g id="text_12">
      <!-- 0.8 -->
      <g transform="translate(34.696875 108.631219)scale(0.1 -0.1)">
       <use xlink:href="#DejaVuSans-30"/>
       <use x="63.623047" xlink:href="#DejaVuSans-2e"/>
       <use x="95.410156" xlink:href="#DejaVuSans-38"/>
      </g>
     </g>
    </g>
    <g id="ytick_6">
     <g id="line2d_12">
      <g>
       <use style="stroke:#000000;stroke-width:0.8;" x="57.6" xlink:href="#m7c5467cd22" y="54.144"/>
      </g>
     </g>
     <g id="text_13">
      <!-- 1.0 -->
      <g transform="translate(34.696875 57.943219)scale(0.1 -0.1)">
       <use xlink:href="#DejaVuSans-31"/>
       <use x="63.623047" xlink:href="#DejaVuSans-2e"/>
       <use x="95.410156" xlink:href="#DejaVuSans-30"/>
      </g>
     </g>
    </g>
    <g id="text_14">
     <!-- proportion -->
     <defs>
      <path d="M 18.109375 8.203125 
L 18.109375 -20.796875 
L 9.078125 -20.796875 
L 9.078125 54.6875 
L 18.109375 54.6875 
L 18.109375 46.390625 
Q 20.953125 51.265625 25.265625 53.625 
Q 29.59375 56 35.59375 56 
Q 45.5625 56 51.78125 48.09375 
Q 58.015625 40.1875 58.015625 27.296875 
Q 58.015625 14.40625 51.78125 6.484375 
Q 45.5625 -1.421875 35.59375 -1.421875 
Q 29.59375 -1.421875 25.265625 0.953125 
Q 20.953125 3.328125 18.109375 8.203125 
z
M 48.6875 27.296875 
Q 48.6875 37.203125 44.609375 42.84375 
Q 40.53125 48.484375 33.40625 48.484375 
Q 26.265625 48.484375 22.1875 42.84375 
Q 18.109375 37.203125 18.109375 27.296875 
Q 18.109375 17.390625 22.1875 11.75 
Q 26.265625 6.109375 33.40625 6.109375 
Q 40.53125 6.109375 44.609375 11.75 
Q 48.6875 17.390625 48.6875 27.296875 
z
" id="DejaVuSans-70"/>
      <path d="M 30.609375 48.390625 
Q 23.390625 48.390625 19.1875 42.75 
Q 14.984375 37.109375 14.984375 27.296875 
Q 14.984375 17.484375 19.15625 11.84375 
Q 23.34375 6.203125 30.609375 6.203125 
Q 37.796875 6.203125 41.984375 11.859375 
Q 46.1875 17.53125 46.1875 27.296875 
Q 46.1875 37.015625 41.984375 42.703125 
Q 37.796875 48.390625 30.609375 48.390625 
z
M 30.609375 56 
Q 42.328125 56 49.015625 48.375 
Q 55.71875 40.765625 55.71875 27.296875 
Q 55.71875 13.875 49.015625 6.21875 
Q 42.328125 -1.421875 30.609375 -1.421875 
Q 18.84375 -1.421875 12.171875 6.21875 
Q 5.515625 13.875 5.515625 27.296875 
Q 5.515625 40.765625 12.171875 48.375 
Q 18.84375 56 30.609375 56 
z
" id="DejaVuSans-6f"/>
      <path d="M 18.3125 70.21875 
L 18.3125 54.6875 
L 36.8125 54.6875 
L 36.8125 47.703125 
L 18.3125 47.703125 
L 18.3125 18.015625 
Q 18.3125 11.328125 20.140625 9.421875 
Q 21.96875 7.515625 27.59375 7.515625 
L 36.8125 7.515625 
L 36.8125 0 
L 27.59375 0 
Q 17.1875 0 13.234375 3.875 
Q 9.28125 7.765625 9.28125 18.015625 
L 9.28125 47.703125 
L 2.6875 47.703125 
L 2.6875 54.6875 
L 9.28125 54.6875 
L 9.28125 70.21875 
z
" id="DejaVuSans-74"/>
      <path d="M 9.421875 54.6875 
L 18.40625 54.6875 
L 18.40625 0 
L 9.421875 0 
z
M 9.421875 75.984375 
L 18.40625 75.984375 
L 18.40625 64.59375 
L 9.421875 64.59375 
z
" id="DejaVuSans-69"/>
     </defs>
     <g transform="translate(28.617187 200.681906)rotate(-90)scale(0.1 -0.1)">
      <use xlink:href="#DejaVuSans-70"/>
      <use x="63.476562" xlink:href="#DejaVuSans-72"/>
      <use x="104.558594" xlink:href="#DejaVuSans-6f"/>
      <use x="165.740234" xlink:href="#DejaVuSans-70"/>
      <use x="229.216797" xlink:href="#DejaVuSans-6f"/>
      <use x="290.398438" xlink:href="#DejaVuSans-72"/>
      <use x="331.511719" xlink:href="#DejaVuSans-74"/>
      <use x="370.720703" xlink:href="#DejaVuSans-69"/>
      <use x="398.503906" xlink:href="#DejaVuSans-6f"/>
      <use x="459.685547" xlink:href="#DejaVuSans-6e"/>
     </g>
    </g>
   </g>
   <g id="line2d_13">
    <path clip-path="url(#pa9d0637804)" d="M 57.6 301.357486 
L 414.72 301.357486 
" style="fill:none;stroke:#808080;stroke-dasharray:3.7,1.6;stroke-dashoffset:0;"/>
   </g>
   <g id="line2d_14">
    <path clip-path="url(#pa9d0637804)" d="M 57.6 138.036442 
L 414.72 138.036442 
" style="fill:none;stroke:#808080;stroke-dasharray:3.7,1.6;stroke-dashoffset:0;"/>
   </g>
   <g id="line2d_15">
    <path clip-path="url(#pa9d0637804)" d="M 57.6 80.914614 
L 414.72 80.914614 
" style="fill:none;stroke:#808080;stroke-dasharray:3.7,1.6;stroke-dashoffset:0;"/>
   </g>
   <g id="patch_3">
    <path d="M 57.6 307.584 
L 57.6 41.472 
" style="fill:none;stroke:#000000;stroke-linecap:square;stroke-linejoin:miter;stroke-width:0.8;"/>
   </g>
   <g id="patch_4">
    <path d="M 414.72 307.584 
L 414.72 41.472 
" style="fill:none;stroke:#000000;stroke-linecap:square;stroke-linejoin:miter;stroke-width:0.8;"/>
   </g>
   <g id="patch_5">
    <path d="M 57.6 307.584 
L 414.72 307.584 
" style="fill:none;stroke:#000000;stroke-linecap:square;stroke-linejoin:miter;stroke-width:0.8;"/>
   </g>
   <g id="patch_6">
    <path d="M 57.6 41.472 
L 414.72 41.472 
" style="fill:none;stroke:#000000;stroke-linecap:square;stroke-linejoin:miter;stroke-width:0.8;"/>
   </g>
   <g id="text_15">
    <g id="patch_7">
     <path d="M 234.520331 297.457288 
L 300.656268 297.457288 
Q 303.656268 297.457288 303.656268 294.457288 
L 303.656268 284.779162 
Q 303.656268 281.779162 300.656268 281.779162 
L 234.520331 281.779162 
Q 231.520331 281.779162 231.520331 284.779162 
L 231.520331 294.457288 
Q 231.520331 297.457288 234.520331 297.457288 
z
" style="fill:#48a33b;stroke:#48a33b;stroke-linejoin:miter;"/>
    </g>
    <!-- ev-certificate -->
    <defs>
     <path d="M 2.984375 54.6875 
L 12.5 54.6875 
L 29.59375 8.796875 
L 46.6875 54.6875 
L 56.203125 54.6875 
L 35.6875 0 
L 23.484375 0 
z
" id="DejaVuSans-76"/>
     <path d="M 4.890625 31.390625 
L 31.203125 31.390625 
L 31.203125 23.390625 
L 4.890625 23.390625 
z
" id="DejaVuSans-2d"/>
     <path d="M 48.78125 52.59375 
L 48.78125 44.1875 
Q 44.96875 46.296875 41.140625 47.34375 
Q 37.3125 48.390625 33.40625 48.390625 
Q 24.65625 48.390625 19.8125 42.84375 
Q 14.984375 37.3125 14.984375 27.296875 
Q 14.984375 17.28125 19.8125 11.734375 
Q 24.65625 6.203125 33.40625 6.203125 
Q 37.3125 6.203125 41.140625 7.25 
Q 44.96875 8.296875 48.78125 10.40625 
L 48.78125 2.09375 
Q 45.015625 0.34375 40.984375 -0.53125 
Q 36.96875 -1.421875 32.421875 -1.421875 
Q 20.0625 -1.421875 12.78125 6.34375 
Q 5.515625 14.109375 5.515625 27.296875 
Q 5.515625 40.671875 12.859375 48.328125 
Q 20.21875 56 33.015625 56 
Q 37.15625 56 41.109375 55.140625 
Q 45.0625 54.296875 48.78125 52.59375 
z
" id="DejaVuSans-63"/>
     <path d="M 37.109375 75.984375 
L 37.109375 68.5 
L 28.515625 68.5 
Q 23.6875 68.5 21.796875 66.546875 
Q 19.921875 64.59375 19.921875 59.515625 
L 19.921875 54.6875 
L 34.71875 54.6875 
L 34.71875 47.703125 
L 19.921875 47.703125 
L 19.921875 0 
L 10.890625 0 
L 10.890625 47.703125 
L 2.296875 47.703125 
L 2.296875 54.6875 
L 10.890625 54.6875 
L 10.890625 58.5 
Q 10.890625 67.625 15.140625 71.796875 
Q 19.390625 75.984375 28.609375 75.984375 
z
" id="DejaVuSans-66"/>
    </defs>
    <g transform="translate(234.520331 292.3776)scale(0.1 -0.1)">
     <use xlink:href="#DejaVuSans-65"/>
     <use x="61.523438" xlink:href="#DejaVuSans-76"/>
     <use x="120.671875" xlink:href="#DejaVuSans-2d"/>
     <use x="156.755859" xlink:href="#DejaVuSans-63"/>
     <use x="211.736328" xlink:href="#DejaVuSans-65"/>
     <use x="273.259766" xlink:href="#DejaVuSans-72"/>
     <use x="314.373047" xlink:href="#DejaVuSans-74"/>
     <use x="353.582031" xlink:href="#DejaVuSans-69"/>
     <use x="381.365234" xlink:href="#DejaVuSans-66"/>
     <use x="416.570312" xlink:href="#DejaVuSans-69"/>
     <use x="444.353516" xlink:href="#DejaVuSans-63"/>
     <use x="499.333984" xlink:href="#DejaVuSans-61"/>
     <use x="560.613281" xlink:href="#DejaVuSans-74"/>
     <use x="599.822266" xlink:href="#DejaVuSans-65"/>
    </g>
   </g>
   <g id="text_16">
    <g id="patch_8">
     <path d="M 80.391405 223.959688 
L 130.85078 223.959688 
Q 133.85078 223.959688 133.85078 220.959688 
L 133.85078 211.281563 
Q 133.85078 208.281563 130.85078 208.281563 
L 80.391405 208.281563 
Q 77.391405 208.281563 77.391405 211.281563 
L 77.391405 220.959688 
Q 77.391405 223.959688 80.391405 223.959688 
z
" style="fill:#6a83c9;stroke:#6a83c9;stroke-linejoin:miter;"/>
    </g>
    <!-- certificate -->
    <g transform="translate(80.391405 218.88)scale(0.1 -0.1)">
     <use xlink:href="#DejaVuSans-63"/>
     <use x="54.980469" xlink:href="#DejaVuSans-65"/>
     <use x="116.503906" xlink:href="#DejaVuSans-72"/>
     <use x="157.617188" xlink:href="#DejaVuSans-74"/>
     <use x="196.826172" xlink:href="#DejaVuSans-69"/>
     <use x="224.609375" xlink:href="#DejaVuSans-66"/>
     <use x="259.814453" xlink:href="#DejaVuSans-69"/>
     <use x="287.597656" xlink:href="#DejaVuSans-63"/>
     <use x="342.578125" xlink:href="#DejaVuSans-61"/>
     <use x="403.857422" xlink:href="#DejaVuSans-74"/>
     <use x="443.066406" xlink:href="#DejaVuSans-65"/>
    </g>
   </g>
   <g id="text_17">
    <g id="patch_9">
     <path d="M 80.391405 120.049288 
L 146.485155 120.049288 
Q 149.485155 120.049288 149.485155 117.049288 
L 149.485155 107.371163 
Q 149.485155 104.371163 146.485155 104.371163 
L 80.391405 104.371163 
Q 77.391405 104.371163 77.391405 107.371163 
L 77.391405 117.049288 
Q 77.391405 120.049288 80.391405 120.049288 
z
" style="fill:#e9ae2e;stroke:#e9ae2e;stroke-linejoin:miter;"/>
    </g>
    <!-- no certificate -->
    <g transform="translate(80.391405 114.9696)scale(0.1 -0.1)">
     <use xlink:href="#DejaVuSans-6e"/>
     <use x="63.378906" xlink:href="#DejaVuSans-6f"/>
     <use x="124.560547" xlink:href="#DejaVuSans-20"/>
     <use x="156.347656" xlink:href="#DejaVuSans-63"/>
     <use x="211.328125" xlink:href="#DejaVuSans-65"/>
     <use x="272.851562" xlink:href="#DejaVuSans-72"/>
     <use x="313.964844" xlink:href="#DejaVuSans-74"/>
     <use x="353.173828" xlink:href="#DejaVuSans-69"/>
     <use x="380.957031" xlink:href="#DejaVuSans-66"/>
     <use x="416.162109" xlink:href="#DejaVuSans-69"/>
     <use x="443.945312" xlink:href="#DejaVuSans-63"/>
     <use x="498.925781" xlink:href="#DejaVuSans-61"/>
     <use x="560.205078" xlink:href="#DejaVuSans-74"/>
     <use x="599.414062" xlink:href="#DejaVuSans-65"/>
    </g>
   </g>
   <g id="text_18">
    <g id="patch_10">
     <path d="M 80.391405 79.498888 
L 119.360155 79.498888 
Q 122.360155 79.498888 122.360155 76.498888 
L 122.360155 66.820763 
Q 122.360155 63.820763 119.360155 63.820763 
L 80.391405 63.820763 
Q 77.391405 63.820763 77.391405 66.820763 
L 77.391405 76.498888 
Q 77.391405 79.498888 80.391405 79.498888 
z
" style="fill:#f9525e;stroke:#f9525e;stroke-linejoin:miter;"/>
    </g>
    <!-- timeout -->
    <defs>
     <path d="M 52 44.1875 
Q 55.375 50.25 60.0625 53.125 
Q 64.75 56 71.09375 56 
Q 79.640625 56 84.28125 50.015625 
Q 88.921875 44.046875 88.921875 33.015625 
L 88.921875 0 
L 79.890625 0 
L 79.890625 32.71875 
Q 79.890625 40.578125 77.09375 44.375 
Q 74.3125 48.1875 68.609375 48.1875 
Q 61.625 48.1875 57.5625 43.546875 
Q 53.515625 38.921875 53.515625 30.90625 
L 53.515625 0 
L 44.484375 0 
L 44.484375 32.71875 
Q 44.484375 40.625 41.703125 44.40625 
Q 38.921875 48.1875 33.109375 48.1875 
Q 26.21875 48.1875 22.15625 43.53125 
Q 18.109375 38.875 18.109375 30.90625 
L 18.109375 0 
L 9.078125 0 
L 9.078125 54.6875 
L 18.109375 54.6875 
L 18.109375 46.1875 
Q 21.1875 51.21875 25.484375 53.609375 
Q 29.78125 56 35.6875 56 
Q 41.65625 56 45.828125 52.96875 
Q 50 49.953125 52 44.1875 
z
" id="DejaVuSans-6d"/>
     <path d="M 8.5 21.578125 
L 8.5 54.6875 
L 17.484375 54.6875 
L 17.484375 21.921875 
Q 17.484375 14.15625 20.5 10.265625 
Q 23.53125 6.390625 29.59375 6.390625 
Q 36.859375 6.390625 41.078125 11.03125 
Q 45.3125 15.671875 45.3125 23.6875 
L 45.3125 54.6875 
L 54.296875 54.6875 
L 54.296875 0 
L 45.3125 0 
L 45.3125 8.40625 
Q 42.046875 3.421875 37.71875 1 
Q 33.40625 -1.421875 27.6875 -1.421875 
Q 18.265625 -1.421875 13.375 4.4375 
Q 8.5 10.296875 8.5 21.578125 
z
M 31.109375 56 
z
" id="DejaVuSans-75"/>
    </defs>
    <g transform="translate(80.391405 74.4192)scale(0.1 -0.1)">
     <use xlink:href="#DejaVuSans-74"/>
     <use x="39.208984" xlink:href="#DejaVuSans-69"/>
     <use x="66.992188" xlink:href="#DejaVuSans-6d"/>
     <use x="164.404297" xlink:href="#DejaVuSans-65"/>
     <use x="225.927734" xlink:href="#DejaVuSans-6f"/>
     <use x="287.109375" xlink:href="#DejaVuSans-75"/>
     <use x="350.488281" xlink:href="#DejaVuSans-74"/>
    </g>
   </g>
   <g id="text_19">
    <!-- 0.02 -->
    <g style="fill:#808080;" transform="translate(48.287763 299.277799)scale(0.1 -0.1)">
     <use xlink:href="#DejaVuSans-30"/>
     <use x="63.623047" xlink:href="#DejaVuSans-2e"/>
     <use x="95.410156" xlink:href="#DejaVuSans-30"/>
     <use x="159.033203" xlink:href="#DejaVuSans-32"/>
    </g>
   </g>
   <g id="text_20">
    <!-- 0.67 -->
    <defs>
     <path d="M 8.203125 72.90625 
L 55.078125 72.90625 
L 55.078125 68.703125 
L 28.609375 0 
L 18.3125 0 
L 43.21875 64.59375 
L 8.203125 64.59375 
z
" id="DejaVuSans-37"/>
    </defs>
    <g style="fill:#808080;" transform="translate(48.287763 135.956754)scale(0.1 -0.1)">
     <use xlink:href="#DejaVuSans-30"/>
     <use x="63.623047" xlink:href="#DejaVuSans-2e"/>
     <use x="95.410156" xlink:href="#DejaVuSans-36"/>
     <use x="159.033203" xlink:href="#DejaVuSans-37"/>
    </g>
   </g>
   <g id="text_21">
    <!-- 0.67 -->
    <g style="fill:#808080;" transform="translate(48.287763 135.956754)scale(0.1 -0.1)">
     <use xlink:href="#DejaVuSans-30"/>
     <use x="63.623047" xlink:href="#DejaVuSans-2e"/>
     <use x="95.410156" xlink:href="#DejaVuSans-36"/>
     <use x="159.033203" xlink:href="#DejaVuSans-37"/>
    </g>
   </g>
   <g id="text_22">
    <!-- 0.89 -->
    <defs>
     <path d="M 10.984375 1.515625 
L 10.984375 10.5 
Q 14.703125 8.734375 18.5 7.8125 
Q 22.3125 6.890625 25.984375 6.890625 
Q 35.75 6.890625 40.890625 13.453125 
Q 46.046875 20.015625 46.78125 33.40625 
Q 43.953125 29.203125 39.59375 26.953125 
Q 35.25 24.703125 29.984375 24.703125 
Q 19.046875 24.703125 12.671875 31.3125 
Q 6.296875 37.9375 6.296875 49.421875 
Q 6.296875 60.640625 12.9375 67.421875 
Q 19.578125 74.21875 30.609375 74.21875 
Q 43.265625 74.21875 49.921875 64.515625 
Q 56.59375 54.828125 56.59375 36.375 
Q 56.59375 19.140625 48.40625 8.859375 
Q 40.234375 -1.421875 26.421875 -1.421875 
Q 22.703125 -1.421875 18.890625 -0.6875 
Q 15.09375 0.046875 10.984375 1.515625 
z
M 30.609375 32.421875 
Q 37.25 32.421875 41.125 36.953125 
Q 45.015625 41.5 45.015625 49.421875 
Q 45.015625 57.28125 41.125 61.84375 
Q 37.25 66.40625 30.609375 66.40625 
Q 23.96875 66.40625 20.09375 61.84375 
Q 16.21875 57.28125 16.21875 49.421875 
Q 16.21875 41.5 20.09375 36.953125 
Q 23.96875 32.421875 30.609375 32.421875 
z
" id="DejaVuSans-39"/>
    </defs>
    <g style="fill:#808080;" transform="translate(48.287763 78.834926)scale(0.1 -0.1)">
     <use xlink:href="#DejaVuSans-30"/>
     <use x="63.623047" xlink:href="#DejaVuSans-2e"/>
     <use x="95.410156" xlink:href="#DejaVuSans-38"/>
     <use x="159.033203" xlink:href="#DejaVuSans-39"/>
    </g>
   </g>
   <g id="text_23">
    <!-- TLS handshake tries (with www. prefix) -->
    <defs>
     <path d="M -0.296875 72.90625 
L 61.375 72.90625 
L 61.375 64.59375 
L 35.5 64.59375 
L 35.5 0 
L 25.59375 0 
L 25.59375 64.59375 
L -0.296875 64.59375 
z
" id="DejaVuSans-54"/>
     <path d="M 9.8125 72.90625 
L 19.671875 72.90625 
L 19.671875 8.296875 
L 55.171875 8.296875 
L 55.171875 0 
L 9.8125 0 
z
" id="DejaVuSans-4c"/>
     <path d="M 53.515625 70.515625 
L 53.515625 60.890625 
Q 47.90625 63.578125 42.921875 64.890625 
Q 37.9375 66.21875 33.296875 66.21875 
Q 25.25 66.21875 20.875 63.09375 
Q 16.5 59.96875 16.5 54.203125 
Q 16.5 49.359375 19.40625 46.890625 
Q 22.3125 44.4375 30.421875 42.921875 
L 36.375 41.703125 
Q 47.40625 39.59375 52.65625 34.296875 
Q 57.90625 29 57.90625 20.125 
Q 57.90625 9.515625 50.796875 4.046875 
Q 43.703125 -1.421875 29.984375 -1.421875 
Q 24.8125 -1.421875 18.96875 -0.25 
Q 13.140625 0.921875 6.890625 3.21875 
L 6.890625 13.375 
Q 12.890625 10.015625 18.65625 8.296875 
Q 24.421875 6.59375 29.984375 6.59375 
Q 38.421875 6.59375 43.015625 9.90625 
Q 47.609375 13.234375 47.609375 19.390625 
Q 47.609375 24.75 44.3125 27.78125 
Q 41.015625 30.8125 33.5 32.328125 
L 27.484375 33.5 
Q 16.453125 35.6875 11.515625 40.375 
Q 6.59375 45.0625 6.59375 53.421875 
Q 6.59375 63.09375 13.40625 68.65625 
Q 20.21875 74.21875 32.171875 74.21875 
Q 37.3125 74.21875 42.625 73.28125 
Q 47.953125 72.359375 53.515625 70.515625 
z
" id="DejaVuSans-53"/>
     <path d="M 54.890625 33.015625 
L 54.890625 0 
L 45.90625 0 
L 45.90625 32.71875 
Q 45.90625 40.484375 42.875 44.328125 
Q 39.84375 48.1875 33.796875 48.1875 
Q 26.515625 48.1875 22.3125 43.546875 
Q 18.109375 38.921875 18.109375 30.90625 
L 18.109375 0 
L 9.078125 0 
L 9.078125 75.984375 
L 18.109375 75.984375 
L 18.109375 46.1875 
Q 21.34375 51.125 25.703125 53.5625 
Q 30.078125 56 35.796875 56 
Q 45.21875 56 50.046875 50.171875 
Q 54.890625 44.34375 54.890625 33.015625 
z
" id="DejaVuSans-68"/>
     <path d="M 45.40625 46.390625 
L 45.40625 75.984375 
L 54.390625 75.984375 
L 54.390625 0 
L 45.40625 0 
L 45.40625 8.203125 
Q 42.578125 3.328125 38.25 0.953125 
Q 33.9375 -1.421875 27.875 -1.421875 
Q 17.96875 -1.421875 11.734375 6.484375 
Q 5.515625 14.40625 5.515625 27.296875 
Q 5.515625 40.1875 11.734375 48.09375 
Q 17.96875 56 27.875 56 
Q 33.9375 56 38.25 53.625 
Q 42.578125 51.265625 45.40625 46.390625 
z
M 14.796875 27.296875 
Q 14.796875 17.390625 18.875 11.75 
Q 22.953125 6.109375 30.078125 6.109375 
Q 37.203125 6.109375 41.296875 11.75 
Q 45.40625 17.390625 45.40625 27.296875 
Q 45.40625 37.203125 41.296875 42.84375 
Q 37.203125 48.484375 30.078125 48.484375 
Q 22.953125 48.484375 18.875 42.84375 
Q 14.796875 37.203125 14.796875 27.296875 
z
" id="DejaVuSans-64"/>
     <path d="M 44.28125 53.078125 
L 44.28125 44.578125 
Q 40.484375 46.53125 36.375 47.5 
Q 32.28125 48.484375 27.875 48.484375 
Q 21.1875 48.484375 17.84375 46.4375 
Q 14.5 44.390625 14.5 40.28125 
Q 14.5 37.15625 16.890625 35.375 
Q 19.28125 33.59375 26.515625 31.984375 
L 29.59375 31.296875 
Q 39.15625 29.25 43.1875 25.515625 
Q 47.21875 21.78125 47.21875 15.09375 
Q 47.21875 7.46875 41.1875 3.015625 
Q 35.15625 -1.421875 24.609375 -1.421875 
Q 20.21875 -1.421875 15.453125 -0.5625 
Q 10.6875 0.296875 5.421875 2 
L 5.421875 11.28125 
Q 10.40625 8.6875 15.234375 7.390625 
Q 20.0625 6.109375 24.8125 6.109375 
Q 31.15625 6.109375 34.5625 8.28125 
Q 37.984375 10.453125 37.984375 14.40625 
Q 37.984375 18.0625 35.515625 20.015625 
Q 33.0625 21.96875 24.703125 23.78125 
L 21.578125 24.515625 
Q 13.234375 26.265625 9.515625 29.90625 
Q 5.8125 33.546875 5.8125 39.890625 
Q 5.8125 47.609375 11.28125 51.796875 
Q 16.75 56 26.8125 56 
Q 31.78125 56 36.171875 55.265625 
Q 40.578125 54.546875 44.28125 53.078125 
z
" id="DejaVuSans-73"/>
     <path d="M 31 75.875 
Q 24.46875 64.65625 21.28125 53.65625 
Q 18.109375 42.671875 18.109375 31.390625 
Q 18.109375 20.125 21.3125 9.0625 
Q 24.515625 -2 31 -13.1875 
L 23.1875 -13.1875 
Q 15.875 -1.703125 12.234375 9.375 
Q 8.59375 20.453125 8.59375 31.390625 
Q 8.59375 42.28125 12.203125 53.3125 
Q 15.828125 64.359375 23.1875 75.875 
z
" id="DejaVuSans-28"/>
     <path d="M 4.203125 54.6875 
L 13.1875 54.6875 
L 24.421875 12.015625 
L 35.59375 54.6875 
L 46.1875 54.6875 
L 57.421875 12.015625 
L 68.609375 54.6875 
L 77.59375 54.6875 
L 63.28125 0 
L 52.6875 0 
L 40.921875 44.828125 
L 29.109375 0 
L 18.5 0 
z
" id="DejaVuSans-77"/>
     <path d="M 8.015625 75.875 
L 15.828125 75.875 
Q 23.140625 64.359375 26.78125 53.3125 
Q 30.421875 42.28125 30.421875 31.390625 
Q 30.421875 20.453125 26.78125 9.375 
Q 23.140625 -1.703125 15.828125 -13.1875 
L 8.015625 -13.1875 
Q 14.5 -2 17.703125 9.0625 
Q 20.90625 20.125 20.90625 31.390625 
Q 20.90625 42.671875 17.703125 53.65625 
Q 14.5 64.65625 8.015625 75.875 
z
" id="DejaVuSans-29"/>
    </defs>
    <g transform="translate(118.320937 35.472)scale(0.12 -0.12)">
     <use xlink:href="#DejaVuSans-54"/>
     <use x="61.083984" xlink:href="#DejaVuSans-4c"/>
     <use x="116.796875" xlink:href="#DejaVuSans-53"/>
     <use x="180.273438" xlink:href="#DejaVuSans-20"/>
     <use x="212.060547" xlink:href="#DejaVuSans-68"/>
     <use x="275.439453" xlink:href="#DejaVuSans-61"/>
     <use x="336.71875" xlink:href="#DejaVuSans-6e"/>
     <use x="400.097656" xlink:href="#DejaVuSans-64"/>
     <use x="463.574219" xlink:href="#DejaVuSans-73"/>
     <use x="515.673828" xlink:href="#DejaVuSans-68"/>
     <use x="579.052734" xlink:href="#DejaVuSans-61"/>
     <use x="640.332031" xlink:href="#DejaVuSans-6b"/>
     <use x="698.195312" xlink:href="#DejaVuSans-65"/>
     <use x="759.71875" xlink:href="#DejaVuSans-20"/>
     <use x="791.505859" xlink:href="#DejaVuSans-74"/>
     <use x="830.714844" xlink:href="#DejaVuSans-72"/>
     <use x="871.828125" xlink:href="#DejaVuSans-69"/>
     <use x="899.611328" xlink:href="#DejaVuSans-65"/>
     <use x="961.134766" xlink:href="#DejaVuSans-73"/>
     <use x="1013.234375" xlink:href="#DejaVuSans-20"/>
     <use x="1045.021484" xlink:href="#DejaVuSans-28"/>
     <use x="1084.035156" xlink:href="#DejaVuSans-77"/>
     <use x="1165.822266" xlink:href="#DejaVuSans-69"/>
     <use x="1193.605469" xlink:href="#DejaVuSans-74"/>
     <use x="1232.814453" xlink:href="#DejaVuSans-68"/>
     <use x="1296.193359" xlink:href="#DejaVuSans-20"/>
     <use x="1327.980469" xlink:href="#DejaVuSans-77"/>
     <use x="1409.767578" xlink:href="#DejaVuSans-77"/>
     <use x="1491.554688" xlink:href="#DejaVuSans-77"/>
     <use x="1573.201172" xlink:href="#DejaVuSans-2e"/>
     <use x="1604.988281" xlink:href="#DejaVuSans-20"/>
     <use x="1636.775391" xlink:href="#DejaVuSans-70"/>
     <use x="1700.251953" xlink:href="#DejaVuSans-72"/>
     <use x="1741.333984" xlink:href="#DejaVuSans-65"/>
     <use x="1802.857422" xlink:href="#DejaVuSans-66"/>
     <use x="1838.0625" xlink:href="#DejaVuSans-69"/>
     <use x="1865.845703" xlink:href="#DejaVuSans-78"/>
     <use x="1925.025391" xlink:href="#DejaVuSans-29"/>
    </g>
   </g>
  </g>
 </g>
 <defs>
  <clipPath id="pa9d0637804">
   <rect height="266.112" width="357.12" x="57.6" y="41.472"/>
  </clipPath>
 </defs>
</svg>
