<?xml version="1.0" encoding="utf-8" standalone="no"?>
<!DOCTYPE svg PUBLIC "-//W3C//DTD SVG 1.1//EN"
  "http://www.w3.org/Graphics/SVG/1.1/DTD/svg11.dtd">
<!-- Created with matplotlib (http://matplotlib.org/) -->
<svg height="345pt" version="1.1" viewBox="0 0 460 345" width="460pt" xmlns="http://www.w3.org/2000/svg" xmlns:xlink="http://www.w3.org/1999/xlink">
 <defs>
  <style type="text/css">
*{stroke-linecap:butt;stroke-linejoin:round;}
  </style>
 </defs>
 <g id="figure_1">
  <g id="patch_1">
   <path d="M 0 345.6 
L 460.8 345.6 
L 460.8 0 
L 0 0 
z
" style="fill:#ffffff;"/>
  </g>
  <g id="axes_1">
   <g id="patch_2">
    <path d="M 57.6 307.584 
L 414.72 307.584 
L 414.72 41.472 
L 57.6 41.472 
z
" style="fill:#ffffff;"/>
   </g>
   <g id="PolyCollection_1">
    <path clip-path="url(#pf6f426e480)" d="M 73.832727 307.502192 
L 73.832727 307.584 
L 77.112066 307.584 
L 80.391405 307.584 
L 83.670744 307.584 
L 86.950083 307.584 
L 90.229421 307.584 
L 93.50876 307.584 
L 96.788099 307.584 
L 100.067438 307.584 
L 103.346777 307.584 
L 106.626116 307.584 
L 109.905455 307.584 
L 113.184793 307.584 
L 116.464132 307.584 
L 119.743471 307.584 
L 123.02281 307.584 
L 126.302149 307.584 
L 129.581488 307.584 
L 132.860826 307.584 
L 136.140165 307.584 
L 139.419504 307.584 
L 142.698843 307.584 
L 145.978182 307.584 
L 149.257521 307.584 
L 152.53686 307.584 
L 155.816198 307.584 
L 159.095537 307.584 
L 162.374876 307.584 
L 165.654215 307.584 
L 168.933554 307.584 
L 172.212893 307.584 
L 175.492231 307.584 
L 178.77157 307.584 
L 182.050909 307.584 
L 185.330248 307.584 
L 188.609587 307.584 
L 191.888926 307.584 
L 195.168264 307.584 
L 198.447603 307.584 
L 201.726942 307.584 
L 205.006281 307.584 
L 208.28562 307.584 
L 211.564959 307.584 
L 214.844298 307.584 
L 218.123636 307.584 
L 221.402975 307.584 
L 224.682314 307.584 
L 227.961653 307.584 
L 231.240992 307.584 
L 234.520331 307.584 
L 237.799669 307.584 
L 241.079008 307.584 
L 244.358347 307.584 
L 247.637686 307.584 
L 250.917025 307.584 
L 254.196364 307.584 
L 257.475702 307.584 
L 260.755041 307.584 
L 264.03438 307.584 
L 267.313719 307.584 
L 270.593058 307.584 
L 273.872397 307.584 
L 277.151736 307.584 
L 280.431074 307.584 
L 283.710413 307.584 
L 286.989752 307.584 
L 290.269091 307.584 
L 293.54843 307.584 
L 296.827769 307.584 
L 300.107107 307.584 
L 303.386446 307.584 
L 306.665785 307.584 
L 309.945124 307.584 
L 313.224463 307.584 
L 316.503802 307.584 
L 319.78314 307.584 
L 323.062479 307.584 
L 326.341818 307.584 
L 329.621157 307.584 
L 332.900496 307.584 
L 336.179835 307.584 
L 339.459174 307.584 
L 342.738512 307.584 
L 346.017851 307.584 
L 349.29719 307.584 
L 352.576529 307.584 
L 355.855868 307.584 
L 359.135207 307.584 
L 362.414545 307.584 
L 365.693884 307.584 
L 368.973223 307.584 
L 372.252562 307.584 
L 375.531901 307.584 
L 378.81124 307.584 
L 382.090579 307.584 
L 385.369917 307.584 
L 388.649256 307.584 
L 391.928595 307.584 
L 395.207934 307.584 
L 398.487273 307.584 
L 398.487273 307.584 
L 398.487273 307.584 
L 395.207934 307.422313 
L 391.928595 307.584 
L 388.649256 307.422426 
L 385.369917 307.584 
L 382.090579 307.584 
L 378.81124 307.584 
L 375.531901 307.422766 
L 372.252562 307.584 
L 368.973223 307.584 
L 365.693884 307.584 
L 362.414545 307.584 
L 359.135207 307.4256 
L 355.855868 307.584 
L 352.576529 307.584 
L 349.29719 307.584 
L 346.017851 307.419947 
L 342.738512 307.584 
L 339.459174 307.259713 
L 336.179835 307.584 
L 332.900496 307.584 
L 329.621157 307.425654 
L 326.341818 307.584 
L 323.062479 307.584 
L 319.78314 307.584 
L 316.503802 307.584 
L 313.224463 307.584 
L 309.945124 307.584 
L 306.665785 307.584 
L 303.386446 307.584 
L 300.107107 307.584 
L 296.827769 307.584 
L 293.54843 307.41739 
L 290.269091 307.584 
L 286.989752 307.424445 
L 283.710413 307.584 
L 280.431074 307.584 
L 277.151736 307.584 
L 273.872397 307.584 
L 270.593058 307.418649 
L 267.313719 307.2672 
L 264.03438 307.584 
L 260.755041 307.584 
L 257.475702 307.584 
L 254.196364 307.584 
L 250.917025 307.584 
L 247.637686 307.584 
L 244.358347 307.584 
L 241.079008 307.584 
L 237.799669 307.584 
L 234.520331 307.584 
L 231.240992 307.584 
L 227.961653 307.584 
L 224.682314 307.414503 
L 221.402975 307.584 
L 218.123636 307.429487 
L 214.844298 307.584 
L 211.564959 307.584 
L 208.28562 307.258104 
L 205.006281 307.425107 
L 201.726942 307.584 
L 198.447603 307.42254 
L 195.168264 307.584 
L 191.888926 307.584 
L 188.609587 307.415187 
L 185.330248 307.584 
L 182.050909 307.584 
L 178.77157 307.584 
L 175.492231 307.584 
L 172.212893 307.584 
L 168.933554 307.427381 
L 165.654215 307.584 
L 162.374876 307.584 
L 159.095537 307.422992 
L 155.816198 307.584 
L 152.53686 307.584 
L 149.257521 307.584 
L 145.978182 307.423386 
L 142.698843 307.584 
L 139.419504 307.584 
L 136.140165 307.584 
L 132.860826 307.422992 
L 129.581488 307.584 
L 126.302149 307.584 
L 123.02281 307.584 
L 119.743471 307.584 
L 116.464132 307.584 
L 113.184793 307.584 
L 109.905455 307.584 
L 106.626116 307.584 
L 103.346777 307.584 
L 100.067438 307.584 
L 96.788099 307.584 
L 93.50876 307.584 
L 90.229421 307.584 
L 86.950083 307.584 
L 83.670744 307.584 
L 80.391405 307.584 
L 77.112066 307.584 
L 73.832727 307.502192 
z
" style="fill:#fdae6b;"/>
   </g>
   <g id="PolyCollection_2">
    <path clip-path="url(#pf6f426e480)" d="M 73.832727 214.1597 
L 73.832727 307.502192 
L 77.112066 307.584 
L 80.391405 307.584 
L 83.670744 307.584 
L 86.950083 307.584 
L 90.229421 307.584 
L 93.50876 307.584 
L 96.788099 307.584 
L 100.067438 307.584 
L 103.346777 307.584 
L 106.626116 307.584 
L 109.905455 307.584 
L 113.184793 307.584 
L 116.464132 307.584 
L 119.743471 307.584 
L 123.02281 307.584 
L 126.302149 307.584 
L 129.581488 307.584 
L 132.860826 307.422992 
L 136.140165 307.584 
L 139.419504 307.584 
L 142.698843 307.584 
L 145.978182 307.423386 
L 149.257521 307.584 
L 152.53686 307.584 
L 155.816198 307.584 
L 159.095537 307.422992 
L 162.374876 307.584 
L 165.654215 307.584 
L 168.933554 307.427381 
L 172.212893 307.584 
L 175.492231 307.584 
L 178.77157 307.584 
L 182.050909 307.584 
L 185.330248 307.584 
L 188.609587 307.415187 
L 191.888926 307.584 
L 195.168264 307.584 
L 198.447603 307.42254 
L 201.726942 307.584 
L 205.006281 307.425107 
L 208.28562 307.258104 
L 211.564959 307.584 
L 214.844298 307.584 
L 218.123636 307.429487 
L 221.402975 307.584 
L 224.682314 307.414503 
L 227.961653 307.584 
L 231.240992 307.584 
L 234.520331 307.584 
L 237.799669 307.584 
L 241.079008 307.584 
L 244.358347 307.584 
L 247.637686 307.584 
L 250.917025 307.584 
L 254.196364 307.584 
L 257.475702 307.584 
L 260.755041 307.584 
L 264.03438 307.584 
L 267.313719 307.2672 
L 270.593058 307.418649 
L 273.872397 307.584 
L 277.151736 307.584 
L 280.431074 307.584 
L 283.710413 307.584 
L 286.989752 307.424445 
L 290.269091 307.584 
L 293.54843 307.41739 
L 296.827769 307.584 
L 300.107107 307.584 
L 303.386446 307.584 
L 306.665785 307.584 
L 309.945124 307.584 
L 313.224463 307.584 
L 316.503802 307.584 
L 319.78314 307.584 
L 323.062479 307.584 
L 326.341818 307.584 
L 329.621157 307.425654 
L 332.900496 307.584 
L 336.179835 307.584 
L 339.459174 307.259713 
L 342.738512 307.584 
L 346.017851 307.419947 
L 349.29719 307.584 
L 352.576529 307.584 
L 355.855868 307.584 
L 359.135207 307.4256 
L 362.414545 307.584 
L 365.693884 307.584 
L 368.973223 307.584 
L 372.252562 307.584 
L 375.531901 307.422766 
L 378.81124 307.584 
L 382.090579 307.584 
L 385.369917 307.584 
L 388.649256 307.422426 
L 391.928595 307.584 
L 395.207934 307.422313 
L 398.487273 307.584 
L 398.487273 220.221715 
L 398.487273 220.221715 
L 395.207934 217.524172 
L 391.928595 216.176584 
L 388.649256 215.002305 
L 385.369917 220.609374 
L 382.090579 220.142947 
L 378.81124 219.866699 
L 375.531901 222.13019 
L 372.252562 219.822999 
L 368.973223 221.032627 
L 365.693884 215.071397 
L 362.414545 219.263858 
L 359.135207 214.127958 
L 355.855868 218.072204 
L 352.576529 214.533265 
L 349.29719 212.416495 
L 346.017851 218.010965 
L 342.738512 211.748511 
L 339.459174 218.40504 
L 336.179835 219.692286 
L 332.900496 225.155846 
L 329.621157 225.719373 
L 326.341818 220.406631 
L 323.062479 221.9279 
L 319.78314 215.780217 
L 316.503802 220.118351 
L 313.224463 216.481173 
L 309.945124 222.869639 
L 306.665785 218.738865 
L 303.386446 218.131619 
L 300.107107 219.282409 
L 296.827769 222.299516 
L 293.54843 222.113067 
L 290.269091 227.156419 
L 286.989752 222.86047 
L 283.710413 221.035311 
L 280.431074 225.407993 
L 277.151736 219.512784 
L 273.872397 219.329791 
L 270.593058 221.270548 
L 267.313719 222.681562 
L 264.03438 223.263583 
L 260.755041 222.728013 
L 257.475702 226.660537 
L 254.196364 227.754911 
L 250.917025 224.037112 
L 247.637686 224.909491 
L 244.358347 228.805723 
L 241.079008 224.622036 
L 237.799669 225.440728 
L 234.520331 222.404752 
L 231.240992 223.241053 
L 227.961653 222.558009 
L 224.682314 220.801321 
L 221.402975 224.637251 
L 218.123636 220.129484 
L 214.844298 226.387023 
L 211.564959 222.915194 
L 208.28562 227.413463 
L 205.006281 222.576327 
L 201.726942 222.180422 
L 198.447603 220.072607 
L 195.168264 222.884097 
L 191.888926 227.005132 
L 188.609587 225.034586 
L 185.330248 221.433864 
L 182.050909 224.838809 
L 178.77157 216.655191 
L 175.492231 219.854589 
L 172.212893 226.693006 
L 168.933554 226.298697 
L 165.654215 222.902338 
L 162.374876 225.932898 
L 159.095537 217.902707 
L 155.816198 220.934084 
L 152.53686 231.533368 
L 149.257521 227.984153 
L 145.978182 229.365027 
L 142.698843 229.428286 
L 139.419504 230.611963 
L 136.140165 232.427684 
L 132.860826 228.2072 
L 129.581488 222.939596 
L 126.302149 227.918862 
L 123.02281 228.483736 
L 119.743471 228.073936 
L 116.464132 223.385737 
L 113.184793 231.265831 
L 109.905455 224.429469 
L 106.626116 227.697113 
L 103.346777 226.490454 
L 100.067438 229.328587 
L 96.788099 224.861802 
L 93.50876 222.727113 
L 90.229421 230.016759 
L 86.950083 224.684871 
L 83.670744 227.898234 
L 80.391405 225.967879 
L 77.112066 221.920749 
L 73.832727 214.1597 
z
" style="fill:#c6dbef;"/>
   </g>
   <g id="PolyCollection_3">
    <path clip-path="url(#pf6f426e480)" d="M 73.832727 89.893929 
L 73.832727 214.1597 
L 77.112066 221.920749 
L 80.391405 225.967879 
L 83.670744 227.898234 
L 86.950083 224.684871 
L 90.229421 230.016759 
L 93.50876 222.727113 
L 96.788099 224.861802 
L 100.067438 229.328587 
L 103.346777 226.490454 
L 106.626116 227.697113 
L 109.905455 224.429469 
L 113.184793 231.265831 
L 116.464132 223.385737 
L 119.743471 228.073936 
L 123.02281 228.483736 
L 126.302149 227.918862 
L 129.581488 222.939596 
L 132.860826 228.2072 
L 136.140165 232.427684 
L 139.419504 230.611963 
L 142.698843 229.428286 
L 145.978182 229.365027 
L 149.257521 227.984153 
L 152.53686 231.533368 
L 155.816198 220.934084 
L 159.095537 217.902707 
L 162.374876 225.932898 
L 165.654215 222.902338 
L 168.933554 226.298697 
L 172.212893 226.693006 
L 175.492231 219.854589 
L 178.77157 216.655191 
L 182.050909 224.838809 
L 185.330248 221.433864 
L 188.609587 225.034586 
L 191.888926 227.005132 
L 195.168264 222.884097 
L 198.447603 220.072607 
L 201.726942 222.180422 
L 205.006281 222.576327 
L 208.28562 227.413463 
L 211.564959 222.915194 
L 214.844298 226.387023 
L 218.123636 220.129484 
L 221.402975 224.637251 
L 224.682314 220.801321 
L 227.961653 222.558009 
L 231.240992 223.241053 
L 234.520331 222.404752 
L 237.799669 225.440728 
L 241.079008 224.622036 
L 244.358347 228.805723 
L 247.637686 224.909491 
L 250.917025 224.037112 
L 254.196364 227.754911 
L 257.475702 226.660537 
L 260.755041 222.728013 
L 264.03438 223.263583 
L 267.313719 222.681562 
L 270.593058 221.270548 
L 273.872397 219.329791 
L 277.151736 219.512784 
L 280.431074 225.407993 
L 283.710413 221.035311 
L 286.989752 222.86047 
L 290.269091 227.156419 
L 293.54843 222.113067 
L 296.827769 222.299516 
L 300.107107 219.282409 
L 303.386446 218.131619 
L 306.665785 218.738865 
L 309.945124 222.869639 
L 313.224463 216.481173 
L 316.503802 220.118351 
L 319.78314 215.780217 
L 323.062479 221.9279 
L 326.341818 220.406631 
L 329.621157 225.719373 
L 332.900496 225.155846 
L 336.179835 219.692286 
L 339.459174 218.40504 
L 342.738512 211.748511 
L 346.017851 218.010965 
L 349.29719 212.416495 
L 352.576529 214.533265 
L 355.855868 218.072204 
L 359.135207 214.127958 
L 362.414545 219.263858 
L 365.693884 215.071397 
L 368.973223 221.032627 
L 372.252562 219.822999 
L 375.531901 222.13019 
L 378.81124 219.866699 
L 382.090579 220.142947 
L 385.369917 220.609374 
L 388.649256 215.002305 
L 391.928595 216.176584 
L 395.207934 217.524172 
L 398.487273 220.221715 
L 398.487273 156.355785 
L 398.487273 156.355785 
L 395.207934 155.597934 
L 391.928595 157.60324 
L 388.649256 150.211275 
L 385.369917 154.573084 
L 382.090579 153.950681 
L 378.81124 153.719226 
L 375.531901 153.444675 
L 372.252562 155.727886 
L 368.973223 153.106232 
L 365.693884 150.61721 
L 362.414545 156.15539 
L 359.135207 150.13433 
L 355.855868 154.41219 
L 352.576529 150.003218 
L 349.29719 147.284704 
L 346.017851 151.569428 
L 342.738512 147.747072 
L 339.459174 150.304743 
L 336.179835 148.175835 
L 332.900496 152.971191 
L 329.621157 154.30555 
L 326.341818 154.145444 
L 323.062479 155.109701 
L 319.78314 145.19989 
L 316.503802 149.534859 
L 313.224463 149.71513 
L 309.945124 150.659242 
L 306.665785 145.827911 
L 303.386446 148.416062 
L 300.107107 148.604799 
L 296.827769 149.425834 
L 293.54843 151.303815 
L 290.269091 154.040436 
L 286.989752 147.550666 
L 283.710413 149.924149 
L 280.431074 150.225689 
L 277.151736 143.517146 
L 273.872397 151.054698 
L 270.593058 152.6497 
L 267.313719 146.015928 
L 264.03438 146.623513 
L 260.755041 145.791918 
L 257.475702 150.814625 
L 254.196364 145.286844 
L 250.917025 144.210937 
L 247.637686 147.454758 
L 244.358347 143.284419 
L 241.079008 147.416616 
L 237.799669 143.297456 
L 234.520331 139.973222 
L 231.240992 145.569299 
L 227.961653 141.556917 
L 224.682314 138.086579 
L 221.402975 142.84713 
L 218.123636 139.782579 
L 214.844298 141.072552 
L 211.564959 140.6794 
L 208.28562 143.821012 
L 205.006281 139.475369 
L 201.726942 140.859232 
L 198.447603 138.535239 
L 195.168264 137.669822 
L 191.888926 146.590376 
L 188.609587 136.745539 
L 185.330248 139.371143 
L 182.050909 138.763832 
L 178.77157 135.456771 
L 175.492231 133.223757 
L 172.212893 133.643032 
L 168.933554 135.146391 
L 165.654215 133.625548 
L 162.374876 133.685852 
L 159.095537 129.18746 
L 155.816198 133.963835 
L 152.53686 137.850029 
L 149.257521 132.884134 
L 145.978182 135.084663 
L 142.698843 127.59822 
L 139.419504 127.777322 
L 136.140165 133.119655 
L 132.860826 122.586144 
L 129.581488 126.404296 
L 126.302149 123.377445 
L 123.02281 120.280545 
L 119.743471 122.110904 
L 116.464132 117.493146 
L 113.184793 118.556565 
L 109.905455 115.832134 
L 106.626116 118.270995 
L 103.346777 114.399193 
L 100.067438 112.23966 
L 96.788099 110.258552 
L 93.50876 104.609738 
L 90.229421 106.76814 
L 86.950083 98.337002 
L 83.670744 98.70879 
L 80.391405 96.859618 
L 77.112066 92.373498 
L 73.832727 89.893929 
z
" style="fill:#9ecae1;"/>
   </g>
   <g id="PolyCollection_4">
    <path clip-path="url(#pf6f426e480)" d="M 73.832727 61.097648 
L 73.832727 89.893929 
L 77.112066 92.373498 
L 80.391405 96.859618 
L 83.670744 98.70879 
L 86.950083 98.337002 
L 90.229421 106.76814 
L 93.50876 104.609738 
L 96.788099 110.258552 
L 100.067438 112.23966 
L 103.346777 114.399193 
L 106.626116 118.270995 
L 109.905455 115.832134 
L 113.184793 118.556565 
L 116.464132 117.493146 
L 119.743471 122.110904 
L 123.02281 120.280545 
L 126.302149 123.377445 
L 129.581488 126.404296 
L 132.860826 122.586144 
L 136.140165 133.119655 
L 139.419504 127.777322 
L 142.698843 127.59822 
L 145.978182 135.084663 
L 149.257521 132.884134 
L 152.53686 137.850029 
L 155.816198 133.963835 
L 159.095537 129.18746 
L 162.374876 133.685852 
L 165.654215 133.625548 
L 168.933554 135.146391 
L 172.212893 133.643032 
L 175.492231 133.223757 
L 178.77157 135.456771 
L 182.050909 138.763832 
L 185.330248 139.371143 
L 188.609587 136.745539 
L 191.888926 146.590376 
L 195.168264 137.669822 
L 198.447603 138.535239 
L 201.726942 140.859232 
L 205.006281 139.475369 
L 208.28562 143.821012 
L 211.564959 140.6794 
L 214.844298 141.072552 
L 218.123636 139.782579 
L 221.402975 142.84713 
L 224.682314 138.086579 
L 227.961653 141.556917 
L 231.240992 145.569299 
L 234.520331 139.973222 
L 237.799669 143.297456 
L 241.079008 147.416616 
L 244.358347 143.284419 
L 247.637686 147.454758 
L 250.917025 144.210937 
L 254.196364 145.286844 
L 257.475702 150.814625 
L 260.755041 145.791918 
L 264.03438 146.623513 
L 267.313719 146.015928 
L 270.593058 152.6497 
L 273.872397 151.054698 
L 277.151736 143.517146 
L 280.431074 150.225689 
L 283.710413 149.924149 
L 286.989752 147.550666 
L 290.269091 154.040436 
L 293.54843 151.303815 
L 296.827769 149.425834 
L 300.107107 148.604799 
L 303.386446 148.416062 
L 306.665785 145.827911 
L 309.945124 150.659242 
L 313.224463 149.71513 
L 316.503802 149.534859 
L 319.78314 145.19989 
L 323.062479 155.109701 
L 326.341818 154.145444 
L 329.621157 154.30555 
L 332.900496 152.971191 
L 336.179835 148.175835 
L 339.459174 150.304743 
L 342.738512 147.747072 
L 346.017851 151.569428 
L 349.29719 147.284704 
L 352.576529 150.003218 
L 355.855868 154.41219 
L 359.135207 150.13433 
L 362.414545 156.15539 
L 365.693884 150.61721 
L 368.973223 153.106232 
L 372.252562 155.727886 
L 375.531901 153.444675 
L 378.81124 153.719226 
L 382.090579 153.950681 
L 385.369917 154.573084 
L 388.649256 150.211275 
L 391.928595 157.60324 
L 395.207934 155.597934 
L 398.487273 156.355785 
L 398.487273 102.266861 
L 398.487273 102.266861 
L 395.207934 100.300877 
L 391.928595 105.464714 
L 388.649256 100.123447 
L 385.369917 104.643206 
L 382.090579 99.376458 
L 378.81124 100.51365 
L 375.531901 103.13979 
L 372.252562 104.451795 
L 368.973223 100.361544 
L 365.693884 99.951729 
L 362.414545 100.49943 
L 359.135207 98.654307 
L 355.855868 98.50771 
L 352.576529 96.785845 
L 349.29719 99.78257 
L 346.017851 101.041049 
L 342.738512 98.5793 
L 339.459174 98.743089 
L 336.179835 98.047481 
L 332.900496 102.073807 
L 329.621157 100.468078 
L 326.341818 103.371812 
L 323.062479 100.689096 
L 319.78314 94.033266 
L 316.503802 97.119782 
L 313.224463 103.76344 
L 309.945124 101.89378 
L 306.665785 97.38156 
L 303.386446 97.163986 
L 300.107107 96.459621 
L 296.827769 99.464401 
L 293.54843 100.154543 
L 290.269091 102.541353 
L 286.989752 96.812281 
L 283.710413 98.19201 
L 280.431074 100.475032 
L 277.151736 98.757004 
L 273.872397 97.409983 
L 270.593058 101.886808 
L 267.313719 98.812707 
L 264.03438 98.253661 
L 260.755041 97.302782 
L 257.475702 101.46718 
L 254.196364 98.11511 
L 250.917025 96.010809 
L 247.637686 96.772421 
L 244.358347 96.083239 
L 241.079008 101.025641 
L 237.799669 97.102031 
L 234.520331 93.746912 
L 231.240992 94.423482 
L 227.961653 94.264354 
L 224.682314 91.474789 
L 221.402975 99.556197 
L 218.123636 97.600454 
L 214.844298 95.121321 
L 211.564959 93.316772 
L 208.28562 95.262434 
L 205.006281 93.714229 
L 201.726942 98.728977 
L 198.447603 93.810781 
L 195.168264 93.776755 
L 191.888926 100.146751 
L 188.609587 91.503733 
L 185.330248 92.994701 
L 182.050909 92.812781 
L 178.77157 90.327897 
L 175.492231 88.652822 
L 172.212893 92.606474 
L 168.933554 89.100381 
L 165.654215 88.494817 
L 162.374876 90.834606 
L 159.095537 88.774526 
L 155.816198 95.523946 
L 152.53686 94.764893 
L 149.257521 93.810781 
L 145.978182 92.200749 
L 142.698843 85.712828 
L 139.419504 82.671708 
L 136.140165 89.9008 
L 132.860826 83.783287 
L 129.581488 85.411996 
L 126.302149 82.171339 
L 123.02281 81.476642 
L 119.743471 82.960511 
L 116.464132 80.627961 
L 113.184793 80.250148 
L 109.905455 73.944591 
L 106.626116 77.818254 
L 103.346777 77.965861 
L 100.067438 77.230659 
L 96.788099 74.445037 
L 93.50876 70.496417 
L 90.229421 72.799935 
L 86.950083 65.683808 
L 83.670744 66.632427 
L 80.391405 69.654244 
L 77.112066 66.379858 
L 73.832727 61.097648 
z
" style="fill:#6baed6;"/>
   </g>
   <g id="PolyCollection_5">
    <path clip-path="url(#pf6f426e480)" d="M 73.832727 54.144 
L 73.832727 61.097648 
L 77.112066 66.379858 
L 80.391405 69.654244 
L 83.670744 66.632427 
L 86.950083 65.683808 
L 90.229421 72.799935 
L 93.50876 70.496417 
L 96.788099 74.445037 
L 100.067438 77.230659 
L 103.346777 77.965861 
L 106.626116 77.818254 
L 109.905455 73.944591 
L 113.184793 80.250148 
L 116.464132 80.627961 
L 119.743471 82.960511 
L 123.02281 81.476642 
L 126.302149 82.171339 
L 129.581488 85.411996 
L 132.860826 83.783287 
L 136.140165 89.9008 
L 139.419504 82.671708 
L 142.698843 85.712828 
L 145.978182 92.200749 
L 149.257521 93.810781 
L 152.53686 94.764893 
L 155.816198 95.523946 
L 159.095537 88.774526 
L 162.374876 90.834606 
L 165.654215 88.494817 
L 168.933554 89.100381 
L 172.212893 92.606474 
L 175.492231 88.652822 
L 178.77157 90.327897 
L 182.050909 92.812781 
L 185.330248 92.994701 
L 188.609587 91.503733 
L 191.888926 100.146751 
L 195.168264 93.776755 
L 198.447603 93.810781 
L 201.726942 98.728977 
L 205.006281 93.714229 
L 208.28562 95.262434 
L 211.564959 93.316772 
L 214.844298 95.121321 
L 218.123636 97.600454 
L 221.402975 99.556197 
L 224.682314 91.474789 
L 227.961653 94.264354 
L 231.240992 94.423482 
L 234.520331 93.746912 
L 237.799669 97.102031 
L 241.079008 101.025641 
L 244.358347 96.083239 
L 247.637686 96.772421 
L 250.917025 96.010809 
L 254.196364 98.11511 
L 257.475702 101.46718 
L 260.755041 97.302782 
L 264.03438 98.253661 
L 267.313719 98.812707 
L 270.593058 101.886808 
L 273.872397 97.409983 
L 277.151736 98.757004 
L 280.431074 100.475032 
L 283.710413 98.19201 
L 286.989752 96.812281 
L 290.269091 102.541353 
L 293.54843 100.154543 
L 296.827769 99.464401 
L 300.107107 96.459621 
L 303.386446 97.163986 
L 306.665785 97.38156 
L 309.945124 101.89378 
L 313.224463 103.76344 
L 316.503802 97.119782 
L 319.78314 94.033266 
L 323.062479 100.689096 
L 326.341818 103.371812 
L 329.621157 100.468078 
L 332.900496 102.073807 
L 336.179835 98.047481 
L 339.459174 98.743089 
L 342.738512 98.5793 
L 346.017851 101.041049 
L 349.29719 99.78257 
L 352.576529 96.785845 
L 355.855868 98.50771 
L 359.135207 98.654307 
L 362.414545 100.49943 
L 365.693884 99.951729 
L 368.973223 100.361544 
L 372.252562 104.451795 
L 375.531901 103.13979 
L 378.81124 100.51365 
L 382.090579 99.376458 
L 385.369917 104.643206 
L 388.649256 100.123447 
L 391.928595 105.464714 
L 395.207934 100.300877 
L 398.487273 102.266861 
L 398.487273 72.46276 
L 398.487273 72.46276 
L 395.207934 70.873787 
L 391.928595 73.455619 
L 388.649256 72.979075 
L 385.369917 72.913574 
L 382.090579 72.471518 
L 378.81124 70.79522 
L 375.531901 73.472807 
L 372.252562 72.239892 
L 368.973223 72.189307 
L 365.693884 70.129642 
L 362.414545 69.738016 
L 359.135207 68.083093 
L 355.855868 68.29344 
L 352.576529 68.105824 
L 349.29719 71.705708 
L 346.017851 70.199052 
L 342.738512 68.911966 
L 339.459174 70.367966 
L 336.179835 66.633713 
L 332.900496 70.543038 
L 329.621157 73.232651 
L 326.341818 70.959714 
L 323.062479 71.063678 
L 319.78314 68.532215 
L 316.503802 68.178942 
L 313.224463 71.261026 
L 309.945124 70.321269 
L 306.665785 70.341736 
L 303.386446 69.468765 
L 300.107107 69.569425 
L 296.827769 69.073848 
L 293.54843 71.331013 
L 290.269091 69.321265 
L 286.989752 71.123979 
L 283.710413 71.094223 
L 280.431074 71.228638 
L 277.151736 71.546701 
L 273.872397 70.03702 
L 270.593058 72.123549 
L 267.313719 72.518295 
L 264.03438 70.310267 
L 260.755041 68.855823 
L 257.475702 70.367182 
L 254.196364 71.23052 
L 250.917025 69.289335 
L 247.637686 69.494885 
L 244.358347 70.591312 
L 241.079008 73.5974 
L 237.799669 70.91378 
L 234.520331 67.077888 
L 231.240992 69.962439 
L 227.961653 65.754653 
L 224.682314 67.74515 
L 221.402975 70.1448 
L 218.123636 69.324524 
L 214.844298 66.298865 
L 211.564959 67.68905 
L 208.28562 67.398284 
L 205.006281 67.496909 
L 201.726942 70.152254 
L 198.447603 67.008399 
L 195.168264 67.372331 
L 191.888926 72.083642 
L 188.609587 65.675389 
L 185.330248 68.627418 
L 182.050909 67.839383 
L 178.77157 64.324271 
L 175.492231 63.071616 
L 172.212893 63.728895 
L 168.933554 63.571471 
L 165.654215 65.519173 
L 162.374876 65.123858 
L 159.095537 66.072439 
L 155.816198 66.854196 
L 152.53686 67.932513 
L 149.257521 68.78446 
L 145.978182 66.502524 
L 142.698843 65.225408 
L 139.419504 62.966867 
L 136.140165 67.179123 
L 132.860826 63.657323 
L 129.581488 62.881878 
L 126.302149 62.178747 
L 123.02281 64.313377 
L 119.743471 63.158575 
L 116.464132 60.147302 
L 113.184793 62.864928 
L 109.905455 58.740964 
L 106.626116 60.211126 
L 103.346777 62.540458 
L 100.067438 58.696483 
L 96.788099 57.732063 
L 93.50876 57.419644 
L 90.229421 60.566176 
L 86.950083 54.621705 
L 83.670744 55.771927 
L 80.391405 57.224203 
L 77.112066 55.224692 
L 73.832727 54.144 
z
" style="fill:#3182bd;"/>
   </g>
   <g id="matplotlib.axis_1">
    <g id="xtick_1">
     <g id="line2d_1">
      <defs>
       <path d="M 0 0 
L 0 3.5 
" id="m67bc50b415" style="stroke:#000000;stroke-width:0.8;"/>
      </defs>
      <g>
       <use style="stroke:#000000;stroke-width:0.8;" x="70.553388" xlink:href="#m67bc50b415" y="307.584"/>
      </g>
     </g>
     <g id="text_1">
      <!-- 0 -->
      <defs>
       <path d="M 31.78125 66.40625 
Q 24.171875 66.40625 20.328125 58.90625 
Q 16.5 51.421875 16.5 36.375 
Q 16.5 21.390625 20.328125 13.890625 
Q 24.171875 6.390625 31.78125 6.390625 
Q 39.453125 6.390625 43.28125 13.890625 
Q 47.125 21.390625 47.125 36.375 
Q 47.125 51.421875 43.28125 58.90625 
Q 39.453125 66.40625 31.78125 66.40625 
z
M 31.78125 74.21875 
Q 44.046875 74.21875 50.515625 64.515625 
Q 56.984375 54.828125 56.984375 36.375 
Q 56.984375 17.96875 50.515625 8.265625 
Q 44.046875 -1.421875 31.78125 -1.421875 
Q 19.53125 -1.421875 13.0625 8.265625 
Q 6.59375 17.96875 6.59375 36.375 
Q 6.59375 54.828125 13.0625 64.515625 
Q 19.53125 74.21875 31.78125 74.21875 
z
" id="DejaVuSans-30"/>
      </defs>
      <g transform="translate(67.372138 322.182437)scale(0.1 -0.1)">
       <use xlink:href="#DejaVuSans-30"/>
      </g>
     </g>
    </g>
    <g id="xtick_2">
     <g id="line2d_2">
      <g>
       <use style="stroke:#000000;stroke-width:0.8;" x="136.140165" xlink:href="#m67bc50b415" y="307.584"/>
      </g>
     </g>
     <g id="text_2">
      <!-- 200000 -->
      <defs>
       <path d="M 19.1875 8.296875 
L 53.609375 8.296875 
L 53.609375 0 
L 7.328125 0 
L 7.328125 8.296875 
Q 12.9375 14.109375 22.625 23.890625 
Q 32.328125 33.6875 34.8125 36.53125 
Q 39.546875 41.84375 41.421875 45.53125 
Q 43.3125 49.21875 43.3125 52.78125 
Q 43.3125 58.59375 39.234375 62.25 
Q 35.15625 65.921875 28.609375 65.921875 
Q 23.96875 65.921875 18.8125 64.3125 
Q 13.671875 62.703125 7.8125 59.421875 
L 7.8125 69.390625 
Q 13.765625 71.78125 18.9375 73 
Q 24.125 74.21875 28.421875 74.21875 
Q 39.75 74.21875 46.484375 68.546875 
Q 53.21875 62.890625 53.21875 53.421875 
Q 53.21875 48.921875 51.53125 44.890625 
Q 49.859375 40.875 45.40625 35.40625 
Q 44.1875 33.984375 37.640625 27.21875 
Q 31.109375 20.453125 19.1875 8.296875 
z
" id="DejaVuSans-32"/>
      </defs>
      <g transform="translate(117.052665 322.182437)scale(0.1 -0.1)">
       <use xlink:href="#DejaVuSans-32"/>
       <use x="63.623047" xlink:href="#DejaVuSans-30"/>
       <use x="127.246094" xlink:href="#DejaVuSans-30"/>
       <use x="190.869141" xlink:href="#DejaVuSans-30"/>
       <use x="254.492188" xlink:href="#DejaVuSans-30"/>
       <use x="318.115234" xlink:href="#DejaVuSans-30"/>
      </g>
     </g>
    </g>
    <g id="xtick_3">
     <g id="line2d_3">
      <g>
       <use style="stroke:#000000;stroke-width:0.8;" x="201.726942" xlink:href="#m67bc50b415" y="307.584"/>
      </g>
     </g>
     <g id="text_3">
      <!-- 400000 -->
      <defs>
       <path d="M 37.796875 64.3125 
L 12.890625 25.390625 
L 37.796875 25.390625 
z
M 35.203125 72.90625 
L 47.609375 72.90625 
L 47.609375 25.390625 
L 58.015625 25.390625 
L 58.015625 17.1875 
L 47.609375 17.1875 
L 47.609375 0 
L 37.796875 0 
L 37.796875 17.1875 
L 4.890625 17.1875 
L 4.890625 26.703125 
z
" id="DejaVuSans-34"/>
      </defs>
      <g transform="translate(182.639442 322.182437)scale(0.1 -0.1)">
       <use xlink:href="#DejaVuSans-34"/>
       <use x="63.623047" xlink:href="#DejaVuSans-30"/>
       <use x="127.246094" xlink:href="#DejaVuSans-30"/>
       <use x="190.869141" xlink:href="#DejaVuSans-30"/>
       <use x="254.492188" xlink:href="#DejaVuSans-30"/>
       <use x="318.115234" xlink:href="#DejaVuSans-30"/>
      </g>
     </g>
    </g>
    <g id="xtick_4">
     <g id="line2d_4">
      <g>
       <use style="stroke:#000000;stroke-width:0.8;" x="267.313719" xlink:href="#m67bc50b415" y="307.584"/>
      </g>
     </g>
     <g id="text_4">
      <!-- 600000 -->
      <defs>
       <path d="M 33.015625 40.375 
Q 26.375 40.375 22.484375 35.828125 
Q 18.609375 31.296875 18.609375 23.390625 
Q 18.609375 15.53125 22.484375 10.953125 
Q 26.375 6.390625 33.015625 6.390625 
Q 39.65625 6.390625 43.53125 10.953125 
Q 47.40625 15.53125 47.40625 23.390625 
Q 47.40625 31.296875 43.53125 35.828125 
Q 39.65625 40.375 33.015625 40.375 
z
M 52.59375 71.296875 
L 52.59375 62.3125 
Q 48.875 64.0625 45.09375 64.984375 
Q 41.3125 65.921875 37.59375 65.921875 
Q 27.828125 65.921875 22.671875 59.328125 
Q 17.53125 52.734375 16.796875 39.40625 
Q 19.671875 43.65625 24.015625 45.921875 
Q 28.375 48.1875 33.59375 48.1875 
Q 44.578125 48.1875 50.953125 41.515625 
Q 57.328125 34.859375 57.328125 23.390625 
Q 57.328125 12.15625 50.6875 5.359375 
Q 44.046875 -1.421875 33.015625 -1.421875 
Q 20.359375 -1.421875 13.671875 8.265625 
Q 6.984375 17.96875 6.984375 36.375 
Q 6.984375 53.65625 15.1875 63.9375 
Q 23.390625 74.21875 37.203125 74.21875 
Q 40.921875 74.21875 44.703125 73.484375 
Q 48.484375 72.75 52.59375 71.296875 
z
" id="DejaVuSans-36"/>
      </defs>
      <g transform="translate(248.226219 322.182437)scale(0.1 -0.1)">
       <use xlink:href="#DejaVuSans-36"/>
       <use x="63.623047" xlink:href="#DejaVuSans-30"/>
       <use x="127.246094" xlink:href="#DejaVuSans-30"/>
       <use x="190.869141" xlink:href="#DejaVuSans-30"/>
       <use x="254.492188" xlink:href="#DejaVuSans-30"/>
       <use x="318.115234" xlink:href="#DejaVuSans-30"/>
      </g>
     </g>
    </g>
    <g id="xtick_5">
     <g id="line2d_5">
      <g>
       <use style="stroke:#000000;stroke-width:0.8;" x="332.900496" xlink:href="#m67bc50b415" y="307.584"/>
      </g>
     </g>
     <g id="text_5">
      <!-- 800000 -->
      <defs>
       <path d="M 31.78125 34.625 
Q 24.75 34.625 20.71875 30.859375 
Q 16.703125 27.09375 16.703125 20.515625 
Q 16.703125 13.921875 20.71875 10.15625 
Q 24.75 6.390625 31.78125 6.390625 
Q 38.8125 6.390625 42.859375 10.171875 
Q 46.921875 13.96875 46.921875 20.515625 
Q 46.921875 27.09375 42.890625 30.859375 
Q 38.875 34.625 31.78125 34.625 
z
M 21.921875 38.8125 
Q 15.578125 40.375 12.03125 44.71875 
Q 8.5 49.078125 8.5 55.328125 
Q 8.5 64.0625 14.71875 69.140625 
Q 20.953125 74.21875 31.78125 74.21875 
Q 42.671875 74.21875 48.875 69.140625 
Q 55.078125 64.0625 55.078125 55.328125 
Q 55.078125 49.078125 51.53125 44.71875 
Q 48 40.375 41.703125 38.8125 
Q 48.828125 37.15625 52.796875 32.3125 
Q 56.78125 27.484375 56.78125 20.515625 
Q 56.78125 9.90625 50.3125 4.234375 
Q 43.84375 -1.421875 31.78125 -1.421875 
Q 19.734375 -1.421875 13.25 4.234375 
Q 6.78125 9.90625 6.78125 20.515625 
Q 6.78125 27.484375 10.78125 32.3125 
Q 14.796875 37.15625 21.921875 38.8125 
z
M 18.3125 54.390625 
Q 18.3125 48.734375 21.84375 45.5625 
Q 25.390625 42.390625 31.78125 42.390625 
Q 38.140625 42.390625 41.71875 45.5625 
Q 45.3125 48.734375 45.3125 54.390625 
Q 45.3125 60.0625 41.71875 63.234375 
Q 38.140625 66.40625 31.78125 66.40625 
Q 25.390625 66.40625 21.84375 63.234375 
Q 18.3125 60.0625 18.3125 54.390625 
z
" id="DejaVuSans-38"/>
      </defs>
      <g transform="translate(313.812996 322.182437)scale(0.1 -0.1)">
       <use xlink:href="#DejaVuSans-38"/>
       <use x="63.623047" xlink:href="#DejaVuSans-30"/>
       <use x="127.246094" xlink:href="#DejaVuSans-30"/>
       <use x="190.869141" xlink:href="#DejaVuSans-30"/>
       <use x="254.492188" xlink:href="#DejaVuSans-30"/>
       <use x="318.115234" xlink:href="#DejaVuSans-30"/>
      </g>
     </g>
    </g>
    <g id="xtick_6">
     <g id="line2d_6">
      <g>
       <use style="stroke:#000000;stroke-width:0.8;" x="398.487273" xlink:href="#m67bc50b415" y="307.584"/>
      </g>
     </g>
     <g id="text_6">
      <!-- 1000000 -->
      <defs>
       <path d="M 12.40625 8.296875 
L 28.515625 8.296875 
L 28.515625 63.921875 
L 10.984375 60.40625 
L 10.984375 69.390625 
L 28.421875 72.90625 
L 38.28125 72.90625 
L 38.28125 8.296875 
L 54.390625 8.296875 
L 54.390625 0 
L 12.40625 0 
z
" id="DejaVuSans-31"/>
      </defs>
      <g transform="translate(376.218523 322.182437)scale(0.1 -0.1)">
       <use xlink:href="#DejaVuSans-31"/>
       <use x="63.623047" xlink:href="#DejaVuSans-30"/>
       <use x="127.246094" xlink:href="#DejaVuSans-30"/>
       <use x="190.869141" xlink:href="#DejaVuSans-30"/>
       <use x="254.492188" xlink:href="#DejaVuSans-30"/>
       <use x="318.115234" xlink:href="#DejaVuSans-30"/>
       <use x="381.738281" xlink:href="#DejaVuSans-30"/>
      </g>
     </g>
    </g>
    <g id="text_7">
     <!-- alexa rank -->
     <defs>
      <path d="M 34.28125 27.484375 
Q 23.390625 27.484375 19.1875 25 
Q 14.984375 22.515625 14.984375 16.5 
Q 14.984375 11.71875 18.140625 8.90625 
Q 21.296875 6.109375 26.703125 6.109375 
Q 34.1875 6.109375 38.703125 11.40625 
Q 43.21875 16.703125 43.21875 25.484375 
L 43.21875 27.484375 
z
M 52.203125 31.203125 
L 52.203125 0 
L 43.21875 0 
L 43.21875 8.296875 
Q 40.140625 3.328125 35.546875 0.953125 
Q 30.953125 -1.421875 24.3125 -1.421875 
Q 15.921875 -1.421875 10.953125 3.296875 
Q 6 8.015625 6 15.921875 
Q 6 25.140625 12.171875 29.828125 
Q 18.359375 34.515625 30.609375 34.515625 
L 43.21875 34.515625 
L 43.21875 35.40625 
Q 43.21875 41.609375 39.140625 45 
Q 35.0625 48.390625 27.6875 48.390625 
Q 23 48.390625 18.546875 47.265625 
Q 14.109375 46.140625 10.015625 43.890625 
L 10.015625 52.203125 
Q 14.9375 54.109375 19.578125 55.046875 
Q 24.21875 56 28.609375 56 
Q 40.484375 56 46.34375 49.84375 
Q 52.203125 43.703125 52.203125 31.203125 
z
" id="DejaVuSans-61"/>
      <path d="M 9.421875 75.984375 
L 18.40625 75.984375 
L 18.40625 0 
L 9.421875 0 
z
" id="DejaVuSans-6c"/>
      <path d="M 56.203125 29.59375 
L 56.203125 25.203125 
L 14.890625 25.203125 
Q 15.484375 15.921875 20.484375 11.0625 
Q 25.484375 6.203125 34.421875 6.203125 
Q 39.59375 6.203125 44.453125 7.46875 
Q 49.3125 8.734375 54.109375 11.28125 
L 54.109375 2.78125 
Q 49.265625 0.734375 44.1875 -0.34375 
Q 39.109375 -1.421875 33.890625 -1.421875 
Q 20.796875 -1.421875 13.15625 6.1875 
Q 5.515625 13.8125 5.515625 26.8125 
Q 5.515625 40.234375 12.765625 48.109375 
Q 20.015625 56 32.328125 56 
Q 43.359375 56 49.78125 48.890625 
Q 56.203125 41.796875 56.203125 29.59375 
z
M 47.21875 32.234375 
Q 47.125 39.59375 43.09375 43.984375 
Q 39.0625 48.390625 32.421875 48.390625 
Q 24.90625 48.390625 20.390625 44.140625 
Q 15.875 39.890625 15.1875 32.171875 
z
" id="DejaVuSans-65"/>
      <path d="M 54.890625 54.6875 
L 35.109375 28.078125 
L 55.90625 0 
L 45.3125 0 
L 29.390625 21.484375 
L 13.484375 0 
L 2.875 0 
L 24.125 28.609375 
L 4.6875 54.6875 
L 15.28125 54.6875 
L 29.78125 35.203125 
L 44.28125 54.6875 
z
" id="DejaVuSans-78"/>
      <path id="DejaVuSans-20"/>
      <path d="M 41.109375 46.296875 
Q 39.59375 47.171875 37.8125 47.578125 
Q 36.03125 48 33.890625 48 
Q 26.265625 48 22.1875 43.046875 
Q 18.109375 38.09375 18.109375 28.8125 
L 18.109375 0 
L 9.078125 0 
L 9.078125 54.6875 
L 18.109375 54.6875 
L 18.109375 46.1875 
Q 20.953125 51.171875 25.484375 53.578125 
Q 30.03125 56 36.53125 56 
Q 37.453125 56 38.578125 55.875 
Q 39.703125 55.765625 41.0625 55.515625 
z
" id="DejaVuSans-72"/>
      <path d="M 54.890625 33.015625 
L 54.890625 0 
L 45.90625 0 
L 45.90625 32.71875 
Q 45.90625 40.484375 42.875 44.328125 
Q 39.84375 48.1875 33.796875 48.1875 
Q 26.515625 48.1875 22.3125 43.546875 
Q 18.109375 38.921875 18.109375 30.90625 
L 18.109375 0 
L 9.078125 0 
L 9.078125 54.6875 
L 18.109375 54.6875 
L 18.109375 46.1875 
Q 21.34375 51.125 25.703125 53.5625 
Q 30.078125 56 35.796875 56 
Q 45.21875 56 50.046875 50.171875 
Q 54.890625 44.34375 54.890625 33.015625 
z
" id="DejaVuSans-6e"/>
      <path d="M 9.078125 75.984375 
L 18.109375 75.984375 
L 18.109375 31.109375 
L 44.921875 54.6875 
L 56.390625 54.6875 
L 27.390625 29.109375 
L 57.625 0 
L 45.90625 0 
L 18.109375 26.703125 
L 18.109375 0 
L 9.078125 0 
z
" id="DejaVuSans-6b"/>
     </defs>
     <g transform="translate(209.835 335.860562)scale(0.1 -0.1)">
      <use xlink:href="#DejaVuSans-61"/>
      <use x="61.279297" xlink:href="#DejaVuSans-6c"/>
      <use x="89.0625" xlink:href="#DejaVuSans-65"/>
      <use x="150.570312" xlink:href="#DejaVuSans-78"/>
      <use x="209.75" xlink:href="#DejaVuSans-61"/>
      <use x="271.029297" xlink:href="#DejaVuSans-20"/>
      <use x="302.816406" xlink:href="#DejaVuSans-72"/>
      <use x="343.929688" xlink:href="#DejaVuSans-61"/>
      <use x="405.208984" xlink:href="#DejaVuSans-6e"/>
      <use x="468.587891" xlink:href="#DejaVuSans-6b"/>
     </g>
    </g>
   </g>
   <g id="matplotlib.axis_2">
    <g id="ytick_1">
     <g id="line2d_7">
      <defs>
       <path d="M 0 0 
L -3.5 0 
" id="mb7fbd372a0" style="stroke:#000000;stroke-width:0.8;"/>
      </defs>
      <g>
       <use style="stroke:#000000;stroke-width:0.8;" x="57.6" xlink:href="#mb7fbd372a0" y="307.584"/>
      </g>
     </g>
     <g id="text_8">
      <!-- 0.0 -->
      <defs>
       <path d="M 10.6875 12.40625 
L 21 12.40625 
L 21 0 
L 10.6875 0 
z
" id="DejaVuSans-2e"/>
      </defs>
      <g transform="translate(34.696875 311.383219)scale(0.1 -0.1)">
       <use xlink:href="#DejaVuSans-30"/>
       <use x="63.623047" xlink:href="#DejaVuSans-2e"/>
       <use x="95.410156" xlink:href="#DejaVuSans-30"/>
      </g>
     </g>
    </g>
    <g id="ytick_2">
     <g id="line2d_8">
      <g>
       <use style="stroke:#000000;stroke-width:0.8;" x="57.6" xlink:href="#mb7fbd372a0" y="261.6163"/>
      </g>
     </g>
     <g id="text_9">
      <!-- 0.1 -->
      <g transform="translate(34.696875 265.415518)scale(0.1 -0.1)">
       <use xlink:href="#DejaVuSans-30"/>
       <use x="63.623047" xlink:href="#DejaVuSans-2e"/>
       <use x="95.410156" xlink:href="#DejaVuSans-31"/>
      </g>
     </g>
    </g>
    <g id="ytick_3">
     <g id="line2d_9">
      <g>
       <use style="stroke:#000000;stroke-width:0.8;" x="57.6" xlink:href="#mb7fbd372a0" y="215.648599"/>
      </g>
     </g>
     <g id="text_10">
      <!-- 0.2 -->
      <g transform="translate(34.696875 219.447818)scale(0.1 -0.1)">
       <use xlink:href="#DejaVuSans-30"/>
       <use x="63.623047" xlink:href="#DejaVuSans-2e"/>
       <use x="95.410156" xlink:href="#DejaVuSans-32"/>
      </g>
     </g>
    </g>
    <g id="ytick_4">
     <g id="line2d_10">
      <g>
       <use style="stroke:#000000;stroke-width:0.8;" x="57.6" xlink:href="#mb7fbd372a0" y="169.680899"/>
      </g>
     </g>
     <g id="text_11">
      <!-- 0.3 -->
      <defs>
       <path d="M 40.578125 39.3125 
Q 47.65625 37.796875 51.625 33 
Q 55.609375 28.21875 55.609375 21.1875 
Q 55.609375 10.40625 48.1875 4.484375 
Q 40.765625 -1.421875 27.09375 -1.421875 
Q 22.515625 -1.421875 17.65625 -0.515625 
Q 12.796875 0.390625 7.625 2.203125 
L 7.625 11.71875 
Q 11.71875 9.328125 16.59375 8.109375 
Q 21.484375 6.890625 26.8125 6.890625 
Q 36.078125 6.890625 40.9375 10.546875 
Q 45.796875 14.203125 45.796875 21.1875 
Q 45.796875 27.640625 41.28125 31.265625 
Q 36.765625 34.90625 28.71875 34.90625 
L 20.21875 34.90625 
L 20.21875 43.015625 
L 29.109375 43.015625 
Q 36.375 43.015625 40.234375 45.921875 
Q 44.09375 48.828125 44.09375 54.296875 
Q 44.09375 59.90625 40.109375 62.90625 
Q 36.140625 65.921875 28.71875 65.921875 
Q 24.65625 65.921875 20.015625 65.03125 
Q 15.375 64.15625 9.8125 62.3125 
L 9.8125 71.09375 
Q 15.4375 72.65625 20.34375 73.4375 
Q 25.25 74.21875 29.59375 74.21875 
Q 40.828125 74.21875 47.359375 69.109375 
Q 53.90625 64.015625 53.90625 55.328125 
Q 53.90625 49.265625 50.4375 45.09375 
Q 46.96875 40.921875 40.578125 39.3125 
z
" id="DejaVuSans-33"/>
      </defs>
      <g transform="translate(34.696875 173.480117)scale(0.1 -0.1)">
       <use xlink:href="#DejaVuSans-30"/>
       <use x="63.623047" xlink:href="#DejaVuSans-2e"/>
       <use x="95.410156" xlink:href="#DejaVuSans-33"/>
      </g>
     </g>
    </g>
    <g id="ytick_5">
     <g id="line2d_11">
      <g>
       <use style="stroke:#000000;stroke-width:0.8;" x="57.6" xlink:href="#mb7fbd372a0" y="123.713198"/>
      </g>
     </g>
     <g id="text_12">
      <!-- 0.4 -->
      <g transform="translate(34.696875 127.512417)scale(0.1 -0.1)">
       <use xlink:href="#DejaVuSans-30"/>
       <use x="63.623047" xlink:href="#DejaVuSans-2e"/>
       <use x="95.410156" xlink:href="#DejaVuSans-34"/>
      </g>
     </g>
    </g>
    <g id="ytick_6">
     <g id="line2d_12">
      <g>
       <use style="stroke:#000000;stroke-width:0.8;" x="57.6" xlink:href="#mb7fbd372a0" y="77.745498"/>
      </g>
     </g>
     <g id="text_13">
      <!-- 0.5 -->
      <defs>
       <path d="M 10.796875 72.90625 
L 49.515625 72.90625 
L 49.515625 64.59375 
L 19.828125 64.59375 
L 19.828125 46.734375 
Q 21.96875 47.46875 24.109375 47.828125 
Q 26.265625 48.1875 28.421875 48.1875 
Q 40.625 48.1875 47.75 41.5 
Q 54.890625 34.8125 54.890625 23.390625 
Q 54.890625 11.625 47.5625 5.09375 
Q 40.234375 -1.421875 26.90625 -1.421875 
Q 22.3125 -1.421875 17.546875 -0.640625 
Q 12.796875 0.140625 7.71875 1.703125 
L 7.71875 11.625 
Q 12.109375 9.234375 16.796875 8.0625 
Q 21.484375 6.890625 26.703125 6.890625 
Q 35.15625 6.890625 40.078125 11.328125 
Q 45.015625 15.765625 45.015625 23.390625 
Q 45.015625 31 40.078125 35.4375 
Q 35.15625 39.890625 26.703125 39.890625 
Q 22.75 39.890625 18.8125 39.015625 
Q 14.890625 38.140625 10.796875 36.28125 
z
" id="DejaVuSans-35"/>
      </defs>
      <g transform="translate(34.696875 81.544716)scale(0.1 -0.1)">
       <use xlink:href="#DejaVuSans-30"/>
       <use x="63.623047" xlink:href="#DejaVuSans-2e"/>
       <use x="95.410156" xlink:href="#DejaVuSans-35"/>
      </g>
     </g>
    </g>
    <g id="text_14">
     <!-- proportion -->
     <defs>
      <path d="M 18.109375 8.203125 
L 18.109375 -20.796875 
L 9.078125 -20.796875 
L 9.078125 54.6875 
L 18.109375 54.6875 
L 18.109375 46.390625 
Q 20.953125 51.265625 25.265625 53.625 
Q 29.59375 56 35.59375 56 
Q 45.5625 56 51.78125 48.09375 
Q 58.015625 40.1875 58.015625 27.296875 
Q 58.015625 14.40625 51.78125 6.484375 
Q 45.5625 -1.421875 35.59375 -1.421875 
Q 29.59375 -1.421875 25.265625 0.953125 
Q 20.953125 3.328125 18.109375 8.203125 
z
M 48.6875 27.296875 
Q 48.6875 37.203125 44.609375 42.84375 
Q 40.53125 48.484375 33.40625 48.484375 
Q 26.265625 48.484375 22.1875 42.84375 
Q 18.109375 37.203125 18.109375 27.296875 
Q 18.109375 17.390625 22.1875 11.75 
Q 26.265625 6.109375 33.40625 6.109375 
Q 40.53125 6.109375 44.609375 11.75 
Q 48.6875 17.390625 48.6875 27.296875 
z
" id="DejaVuSans-70"/>
      <path d="M 30.609375 48.390625 
Q 23.390625 48.390625 19.1875 42.75 
Q 14.984375 37.109375 14.984375 27.296875 
Q 14.984375 17.484375 19.15625 11.84375 
Q 23.34375 6.203125 30.609375 6.203125 
Q 37.796875 6.203125 41.984375 11.859375 
Q 46.1875 17.53125 46.1875 27.296875 
Q 46.1875 37.015625 41.984375 42.703125 
Q 37.796875 48.390625 30.609375 48.390625 
z
M 30.609375 56 
Q 42.328125 56 49.015625 48.375 
Q 55.71875 40.765625 55.71875 27.296875 
Q 55.71875 13.875 49.015625 6.21875 
Q 42.328125 -1.421875 30.609375 -1.421875 
Q 18.84375 -1.421875 12.171875 6.21875 
Q 5.515625 13.875 5.515625 27.296875 
Q 5.515625 40.765625 12.171875 48.375 
Q 18.84375 56 30.609375 56 
z
" id="DejaVuSans-6f"/>
      <path d="M 18.3125 70.21875 
L 18.3125 54.6875 
L 36.8125 54.6875 
L 36.8125 47.703125 
L 18.3125 47.703125 
L 18.3125 18.015625 
Q 18.3125 11.328125 20.140625 9.421875 
Q 21.96875 7.515625 27.59375 7.515625 
L 36.8125 7.515625 
L 36.8125 0 
L 27.59375 0 
Q 17.1875 0 13.234375 3.875 
Q 9.28125 7.765625 9.28125 18.015625 
L 9.28125 47.703125 
L 2.6875 47.703125 
L 2.6875 54.6875 
L 9.28125 54.6875 
L 9.28125 70.21875 
z
" id="DejaVuSans-74"/>
      <path d="M 9.421875 54.6875 
L 18.40625 54.6875 
L 18.40625 0 
L 9.421875 0 
z
M 9.421875 75.984375 
L 18.40625 75.984375 
L 18.40625 64.59375 
L 9.421875 64.59375 
z
" id="DejaVuSans-69"/>
     </defs>
     <g transform="translate(28.617187 200.681906)rotate(-90)scale(0.1 -0.1)">
      <use xlink:href="#DejaVuSans-70"/>
      <use x="63.476562" xlink:href="#DejaVuSans-72"/>
      <use x="104.558594" xlink:href="#DejaVuSans-6f"/>
      <use x="165.740234" xlink:href="#DejaVuSans-70"/>
      <use x="229.216797" xlink:href="#DejaVuSans-6f"/>
      <use x="290.398438" xlink:href="#DejaVuSans-72"/>
      <use x="331.511719" xlink:href="#DejaVuSans-74"/>
      <use x="370.720703" xlink:href="#DejaVuSans-69"/>
      <use x="398.503906" xlink:href="#DejaVuSans-6f"/>
      <use x="459.685547" xlink:href="#DejaVuSans-6e"/>
     </g>
    </g>
   </g>
   <g id="line2d_13">
    <path clip-path="url(#pf6f426e480)" d="M 57.6 307.54442 
L 414.72 307.54442 
" style="fill:none;stroke:#808080;stroke-dasharray:1,1.65;stroke-dashoffset:0;"/>
   </g>
   <g id="line2d_14">
    <path clip-path="url(#pf6f426e480)" d="M 57.6 222.758682 
L 414.72 222.758682 
" style="fill:none;stroke:#808080;stroke-dasharray:1,1.65;stroke-dashoffset:0;"/>
   </g>
   <g id="line2d_15">
    <path clip-path="url(#pf6f426e480)" d="M 57.6 138.780793 
L 414.72 138.780793 
" style="fill:none;stroke:#808080;stroke-dasharray:1,1.65;stroke-dashoffset:0;"/>
   </g>
   <g id="line2d_16">
    <path clip-path="url(#pf6f426e480)" d="M 57.6 92.887554 
L 414.72 92.887554 
" style="fill:none;stroke:#808080;stroke-dasharray:1,1.65;stroke-dashoffset:0;"/>
   </g>
   <g id="patch_3">
    <path d="M 57.6 307.584 
L 57.6 41.472 
" style="fill:none;stroke:#000000;stroke-linecap:square;stroke-linejoin:miter;stroke-width:0.8;"/>
   </g>
   <g id="patch_4">
    <path d="M 414.72 307.584 
L 414.72 41.472 
" style="fill:none;stroke:#000000;stroke-linecap:square;stroke-linejoin:miter;stroke-width:0.8;"/>
   </g>
   <g id="patch_5">
    <path d="M 57.6 307.584 
L 414.72 307.584 
" style="fill:none;stroke:#000000;stroke-linecap:square;stroke-linejoin:miter;stroke-width:0.8;"/>
   </g>
   <g id="patch_6">
    <path d="M 57.6 41.472 
L 414.72 41.472 
" style="fill:none;stroke:#000000;stroke-linecap:square;stroke-linejoin:miter;stroke-width:0.8;"/>
   </g>
   <g id="text_15">
    <!-- 2 scts -->
    <defs>
     <path d="M 44.28125 53.078125 
L 44.28125 44.578125 
Q 40.484375 46.53125 36.375 47.5 
Q 32.28125 48.484375 27.875 48.484375 
Q 21.1875 48.484375 17.84375 46.4375 
Q 14.5 44.390625 14.5 40.28125 
Q 14.5 37.15625 16.890625 35.375 
Q 19.28125 33.59375 26.515625 31.984375 
L 29.59375 31.296875 
Q 39.15625 29.25 43.1875 25.515625 
Q 47.21875 21.78125 47.21875 15.09375 
Q 47.21875 7.46875 41.1875 3.015625 
Q 35.15625 -1.421875 24.609375 -1.421875 
Q 20.21875 -1.421875 15.453125 -0.5625 
Q 10.6875 0.296875 5.421875 2 
L 5.421875 11.28125 
Q 10.40625 8.6875 15.234375 7.390625 
Q 20.0625 6.109375 24.8125 6.109375 
Q 31.15625 6.109375 34.5625 8.28125 
Q 37.984375 10.453125 37.984375 14.40625 
Q 37.984375 18.0625 35.515625 20.015625 
Q 33.0625 21.96875 24.703125 23.78125 
L 21.578125 24.515625 
Q 13.234375 26.265625 9.515625 29.90625 
Q 5.8125 33.546875 5.8125 39.890625 
Q 5.8125 47.609375 11.28125 51.796875 
Q 16.75 56 26.8125 56 
Q 31.78125 56 36.171875 55.265625 
Q 40.578125 54.546875 44.28125 53.078125 
z
" id="DejaVuSans-73"/>
     <path d="M 48.78125 52.59375 
L 48.78125 44.1875 
Q 44.96875 46.296875 41.140625 47.34375 
Q 37.3125 48.390625 33.40625 48.390625 
Q 24.65625 48.390625 19.8125 42.84375 
Q 14.984375 37.3125 14.984375 27.296875 
Q 14.984375 17.28125 19.8125 11.734375 
Q 24.65625 6.203125 33.40625 6.203125 
Q 37.3125 6.203125 41.140625 7.25 
Q 44.96875 8.296875 48.78125 10.40625 
L 48.78125 2.09375 
Q 45.015625 0.34375 40.984375 -0.53125 
Q 36.96875 -1.421875 32.421875 -1.421875 
Q 20.0625 -1.421875 12.78125 6.34375 
Q 5.515625 14.109375 5.515625 27.296875 
Q 5.515625 40.671875 12.859375 48.328125 
Q 20.21875 56 33.015625 56 
Q 37.15625 56 41.109375 55.140625 
Q 45.0625 54.296875 48.78125 52.59375 
z
" id="DejaVuSans-63"/>
    </defs>
    <g transform="translate(93.50876 238.632449)scale(0.1 -0.1)">
     <use xlink:href="#DejaVuSans-32"/>
     <use x="63.623047" xlink:href="#DejaVuSans-20"/>
     <use x="95.410156" xlink:href="#DejaVuSans-73"/>
     <use x="147.509766" xlink:href="#DejaVuSans-63"/>
     <use x="202.490234" xlink:href="#DejaVuSans-74"/>
     <use x="241.699219" xlink:href="#DejaVuSans-73"/>
    </g>
   </g>
   <g id="text_16">
    <!-- 3 scts -->
    <g transform="translate(93.50876 45.568107)scale(0.1 -0.1)">
     <use xlink:href="#DejaVuSans-33"/>
     <use x="63.623047" xlink:href="#DejaVuSans-20"/>
     <use x="95.410156" xlink:href="#DejaVuSans-73"/>
     <use x="147.509766" xlink:href="#DejaVuSans-63"/>
     <use x="202.490234" xlink:href="#DejaVuSans-74"/>
     <use x="241.699219" xlink:href="#DejaVuSans-73"/>
    </g>
   </g>
   <g id="text_17">
    <!-- 4 scts -->
    <g transform="translate(93.50876 -83.141454)scale(0.1 -0.1)">
     <use xlink:href="#DejaVuSans-34"/>
     <use x="63.623047" xlink:href="#DejaVuSans-20"/>
     <use x="95.410156" xlink:href="#DejaVuSans-73"/>
     <use x="147.509766" xlink:href="#DejaVuSans-63"/>
     <use x="202.490234" xlink:href="#DejaVuSans-74"/>
     <use x="241.699219" xlink:href="#DejaVuSans-73"/>
    </g>
   </g>
   <g id="text_18">
    <!-- 5 or more scts -->
    <defs>
     <path d="M 52 44.1875 
Q 55.375 50.25 60.0625 53.125 
Q 64.75 56 71.09375 56 
Q 79.640625 56 84.28125 50.015625 
Q 88.921875 44.046875 88.921875 33.015625 
L 88.921875 0 
L 79.890625 0 
L 79.890625 32.71875 
Q 79.890625 40.578125 77.09375 44.375 
Q 74.3125 48.1875 68.609375 48.1875 
Q 61.625 48.1875 57.5625 43.546875 
Q 53.515625 38.921875 53.515625 30.90625 
L 53.515625 0 
L 44.484375 0 
L 44.484375 32.71875 
Q 44.484375 40.625 41.703125 44.40625 
Q 38.921875 48.1875 33.109375 48.1875 
Q 26.21875 48.1875 22.15625 43.53125 
Q 18.109375 38.875 18.109375 30.90625 
L 18.109375 0 
L 9.078125 0 
L 9.078125 54.6875 
L 18.109375 54.6875 
L 18.109375 46.1875 
Q 21.1875 51.21875 25.484375 53.609375 
Q 29.78125 56 35.6875 56 
Q 41.65625 56 45.828125 52.96875 
Q 50 49.953125 52 44.1875 
z
" id="DejaVuSans-6d"/>
    </defs>
    <g transform="translate(93.50876 -138.302694)scale(0.1 -0.1)">
     <use xlink:href="#DejaVuSans-35"/>
     <use x="63.623047" xlink:href="#DejaVuSans-20"/>
     <use x="95.410156" xlink:href="#DejaVuSans-6f"/>
     <use x="156.591797" xlink:href="#DejaVuSans-72"/>
     <use x="197.705078" xlink:href="#DejaVuSans-20"/>
     <use x="229.492188" xlink:href="#DejaVuSans-6d"/>
     <use x="326.904297" xlink:href="#DejaVuSans-6f"/>
     <use x="388.085938" xlink:href="#DejaVuSans-72"/>
     <use x="429.167969" xlink:href="#DejaVuSans-65"/>
     <use x="490.691406" xlink:href="#DejaVuSans-20"/>
     <use x="522.478516" xlink:href="#DejaVuSans-73"/>
     <use x="574.578125" xlink:href="#DejaVuSans-63"/>
     <use x="629.558594" xlink:href="#DejaVuSans-74"/>
     <use x="668.767578" xlink:href="#DejaVuSans-73"/>
    </g>
   </g>
   <g id="text_19">
    <!-- 0.00 -->
    <g style="fill:#808080;" transform="translate(48.287763 305.464732)scale(0.1 -0.1)">
     <use xlink:href="#DejaVuSans-30"/>
     <use x="63.623047" xlink:href="#DejaVuSans-2e"/>
     <use x="95.410156" xlink:href="#DejaVuSans-30"/>
     <use x="159.033203" xlink:href="#DejaVuSans-30"/>
    </g>
   </g>
   <g id="text_20">
    <!-- 0.18 -->
    <g style="fill:#808080;" transform="translate(48.287763 220.678995)scale(0.1 -0.1)">
     <use xlink:href="#DejaVuSans-30"/>
     <use x="63.623047" xlink:href="#DejaVuSans-2e"/>
     <use x="95.410156" xlink:href="#DejaVuSans-31"/>
     <use x="159.033203" xlink:href="#DejaVuSans-38"/>
    </g>
   </g>
   <g id="text_21">
    <!-- 0.37 -->
    <defs>
     <path d="M 8.203125 72.90625 
L 55.078125 72.90625 
L 55.078125 68.703125 
L 28.609375 0 
L 18.3125 0 
L 43.21875 64.59375 
L 8.203125 64.59375 
z
" id="DejaVuSans-37"/>
    </defs>
    <g style="fill:#808080;" transform="translate(48.287763 136.701105)scale(0.1 -0.1)">
     <use xlink:href="#DejaVuSans-30"/>
     <use x="63.623047" xlink:href="#DejaVuSans-2e"/>
     <use x="95.410156" xlink:href="#DejaVuSans-33"/>
     <use x="159.033203" xlink:href="#DejaVuSans-37"/>
    </g>
   </g>
   <g id="text_22">
    <!-- 0.47 -->
    <g style="fill:#808080;" transform="translate(48.287763 90.807866)scale(0.1 -0.1)">
     <use xlink:href="#DejaVuSans-30"/>
     <use x="63.623047" xlink:href="#DejaVuSans-2e"/>
     <use x="95.410156" xlink:href="#DejaVuSans-34"/>
     <use x="159.033203" xlink:href="#DejaVuSans-37"/>
    </g>
   </g>
   <g id="text_23">
    <!-- Non-EV Certificates with SCTs -->
    <defs>
     <path d="M 9.8125 72.90625 
L 23.09375 72.90625 
L 55.421875 11.921875 
L 55.421875 72.90625 
L 64.984375 72.90625 
L 64.984375 0 
L 51.703125 0 
L 19.390625 60.984375 
L 19.390625 0 
L 9.8125 0 
z
" id="DejaVuSans-4e"/>
     <path d="M 4.890625 31.390625 
L 31.203125 31.390625 
L 31.203125 23.390625 
L 4.890625 23.390625 
z
" id="DejaVuSans-2d"/>
     <path d="M 9.8125 72.90625 
L 55.90625 72.90625 
L 55.90625 64.59375 
L 19.671875 64.59375 
L 19.671875 43.015625 
L 54.390625 43.015625 
L 54.390625 34.71875 
L 19.671875 34.71875 
L 19.671875 8.296875 
L 56.78125 8.296875 
L 56.78125 0 
L 9.8125 0 
z
" id="DejaVuSans-45"/>
     <path d="M 28.609375 0 
L 0.78125 72.90625 
L 11.078125 72.90625 
L 34.1875 11.53125 
L 57.328125 72.90625 
L 67.578125 72.90625 
L 39.796875 0 
z
" id="DejaVuSans-56"/>
     <path d="M 64.40625 67.28125 
L 64.40625 56.890625 
Q 59.421875 61.53125 53.78125 63.8125 
Q 48.140625 66.109375 41.796875 66.109375 
Q 29.296875 66.109375 22.65625 58.46875 
Q 16.015625 50.828125 16.015625 36.375 
Q 16.015625 21.96875 22.65625 14.328125 
Q 29.296875 6.6875 41.796875 6.6875 
Q 48.140625 6.6875 53.78125 8.984375 
Q 59.421875 11.28125 64.40625 15.921875 
L 64.40625 5.609375 
Q 59.234375 2.09375 53.4375 0.328125 
Q 47.65625 -1.421875 41.21875 -1.421875 
Q 24.65625 -1.421875 15.125 8.703125 
Q 5.609375 18.84375 5.609375 36.375 
Q 5.609375 53.953125 15.125 64.078125 
Q 24.65625 74.21875 41.21875 74.21875 
Q 47.75 74.21875 53.53125 72.484375 
Q 59.328125 70.75 64.40625 67.28125 
z
" id="DejaVuSans-43"/>
     <path d="M 37.109375 75.984375 
L 37.109375 68.5 
L 28.515625 68.5 
Q 23.6875 68.5 21.796875 66.546875 
Q 19.921875 64.59375 19.921875 59.515625 
L 19.921875 54.6875 
L 34.71875 54.6875 
L 34.71875 47.703125 
L 19.921875 47.703125 
L 19.921875 0 
L 10.890625 0 
L 10.890625 47.703125 
L 2.296875 47.703125 
L 2.296875 54.6875 
L 10.890625 54.6875 
L 10.890625 58.5 
Q 10.890625 67.625 15.140625 71.796875 
Q 19.390625 75.984375 28.609375 75.984375 
z
" id="DejaVuSans-66"/>
     <path d="M 4.203125 54.6875 
L 13.1875 54.6875 
L 24.421875 12.015625 
L 35.59375 54.6875 
L 46.1875 54.6875 
L 57.421875 12.015625 
L 68.609375 54.6875 
L 77.59375 54.6875 
L 63.28125 0 
L 52.6875 0 
L 40.921875 44.828125 
L 29.109375 0 
L 18.5 0 
z
" id="DejaVuSans-77"/>
     <path d="M 54.890625 33.015625 
L 54.890625 0 
L 45.90625 0 
L 45.90625 32.71875 
Q 45.90625 40.484375 42.875 44.328125 
Q 39.84375 48.1875 33.796875 48.1875 
Q 26.515625 48.1875 22.3125 43.546875 
Q 18.109375 38.921875 18.109375 30.90625 
L 18.109375 0 
L 9.078125 0 
L 9.078125 75.984375 
L 18.109375 75.984375 
L 18.109375 46.1875 
Q 21.34375 51.125 25.703125 53.5625 
Q 30.078125 56 35.796875 56 
Q 45.21875 56 50.046875 50.171875 
Q 54.890625 44.34375 54.890625 33.015625 
z
" id="DejaVuSans-68"/>
     <path d="M 53.515625 70.515625 
L 53.515625 60.890625 
Q 47.90625 63.578125 42.921875 64.890625 
Q 37.9375 66.21875 33.296875 66.21875 
Q 25.25 66.21875 20.875 63.09375 
Q 16.5 59.96875 16.5 54.203125 
Q 16.5 49.359375 19.40625 46.890625 
Q 22.3125 44.4375 30.421875 42.921875 
L 36.375 41.703125 
Q 47.40625 39.59375 52.65625 34.296875 
Q 57.90625 29 57.90625 20.125 
Q 57.90625 9.515625 50.796875 4.046875 
Q 43.703125 -1.421875 29.984375 -1.421875 
Q 24.8125 -1.421875 18.96875 -0.25 
Q 13.140625 0.921875 6.890625 3.21875 
L 6.890625 13.375 
Q 12.890625 10.015625 18.65625 8.296875 
Q 24.421875 6.59375 29.984375 6.59375 
Q 38.421875 6.59375 43.015625 9.90625 
Q 47.609375 13.234375 47.609375 19.390625 
Q 47.609375 24.75 44.3125 27.78125 
Q 41.015625 30.8125 33.5 32.328125 
L 27.484375 33.5 
Q 16.453125 35.6875 11.515625 40.375 
Q 6.59375 45.0625 6.59375 53.421875 
Q 6.59375 63.09375 13.40625 68.65625 
Q 20.21875 74.21875 32.171875 74.21875 
Q 37.3125 74.21875 42.625 73.28125 
Q 47.953125 72.359375 53.515625 70.515625 
z
" id="DejaVuSans-53"/>
     <path d="M -0.296875 72.90625 
L 61.375 72.90625 
L 61.375 64.59375 
L 35.5 64.59375 
L 35.5 0 
L 25.59375 0 
L 25.59375 64.59375 
L -0.296875 64.59375 
z
" id="DejaVuSans-54"/>
    </defs>
    <g transform="translate(146.622187 35.472)scale(0.12 -0.12)">
     <use xlink:href="#DejaVuSans-4e"/>
     <use x="74.804688" xlink:href="#DejaVuSans-6f"/>
     <use x="135.986328" xlink:href="#DejaVuSans-6e"/>
     <use x="199.365234" xlink:href="#DejaVuSans-2d"/>
     <use x="235.449219" xlink:href="#DejaVuSans-45"/>
     <use x="298.632812" xlink:href="#DejaVuSans-56"/>
     <use x="367.041016" xlink:href="#DejaVuSans-20"/>
     <use x="398.828125" xlink:href="#DejaVuSans-43"/>
     <use x="468.652344" xlink:href="#DejaVuSans-65"/>
     <use x="530.175781" xlink:href="#DejaVuSans-72"/>
     <use x="571.289062" xlink:href="#DejaVuSans-74"/>
     <use x="610.498047" xlink:href="#DejaVuSans-69"/>
     <use x="638.28125" xlink:href="#DejaVuSans-66"/>
     <use x="673.486328" xlink:href="#DejaVuSans-69"/>
     <use x="701.269531" xlink:href="#DejaVuSans-63"/>
     <use x="756.25" xlink:href="#DejaVuSans-61"/>
     <use x="817.529297" xlink:href="#DejaVuSans-74"/>
     <use x="856.738281" xlink:href="#DejaVuSans-65"/>
     <use x="918.261719" xlink:href="#DejaVuSans-73"/>
     <use x="970.361328" xlink:href="#DejaVuSans-20"/>
     <use x="1002.148438" xlink:href="#DejaVuSans-77"/>
     <use x="1083.935547" xlink:href="#DejaVuSans-69"/>
     <use x="1111.71875" xlink:href="#DejaVuSans-74"/>
     <use x="1150.927734" xlink:href="#DejaVuSans-68"/>
     <use x="1214.306641" xlink:href="#DejaVuSans-20"/>
     <use x="1246.09375" xlink:href="#DejaVuSans-53"/>
     <use x="1309.570312" xlink:href="#DejaVuSans-43"/>
     <use x="1379.394531" xlink:href="#DejaVuSans-54"/>
     <use x="1440.228516" xlink:href="#DejaVuSans-73"/>
    </g>
   </g>
  </g>
 </g>
 <defs>
  <clipPath id="pf6f426e480">
   <rect height="266.112" width="357.12" x="57.6" y="41.472"/>
  </clipPath>
 </defs>
</svg>
