<?xml version="1.0" encoding="utf-8" standalone="no"?>
<!DOCTYPE svg PUBLIC "-//W3C//DTD SVG 1.1//EN"
  "http://www.w3.org/Graphics/SVG/1.1/DTD/svg11.dtd">
<!-- Created with matplotlib (http://matplotlib.org/) -->
<svg height="345pt" version="1.1" viewBox="0 0 460 345" width="460pt" xmlns="http://www.w3.org/2000/svg" xmlns:xlink="http://www.w3.org/1999/xlink">
 <defs>
  <style type="text/css">
*{stroke-linecap:butt;stroke-linejoin:round;}
  </style>
 </defs>
 <g id="figure_1">
  <g id="patch_1">
   <path d="M 0 345.6 
L 460.8 345.6 
L 460.8 0 
L 0 0 
z
" style="fill:#ffffff;"/>
  </g>
  <g id="axes_1">
   <g id="patch_2">
    <path d="M 57.6 307.584 
L 414.72 307.584 
L 414.72 41.472 
L 57.6 41.472 
z
" style="fill:#ffffff;"/>
   </g>
   <g id="PolyCollection_1">
    <path clip-path="url(#pb8123af759)" d="M 73.832727 307.18929 
L 73.832727 307.584 
L 77.112066 307.584 
L 80.391405 307.584 
L 83.670744 307.584 
L 86.950083 307.584 
L 90.229421 307.584 
L 93.50876 307.584 
L 96.788099 307.584 
L 100.067438 307.584 
L 103.346777 307.584 
L 106.626116 307.584 
L 109.905455 307.584 
L 113.184793 307.584 
L 116.464132 307.584 
L 119.743471 307.584 
L 123.02281 307.584 
L 126.302149 307.584 
L 129.581488 307.584 
L 132.860826 307.584 
L 136.140165 307.584 
L 139.419504 307.584 
L 142.698843 307.584 
L 145.978182 307.584 
L 149.257521 307.584 
L 152.53686 307.584 
L 155.816198 307.584 
L 159.095537 307.584 
L 162.374876 307.584 
L 165.654215 307.584 
L 168.933554 307.584 
L 172.212893 307.584 
L 175.492231 307.584 
L 178.77157 307.584 
L 182.050909 307.584 
L 185.330248 307.584 
L 188.609587 307.584 
L 191.888926 307.584 
L 195.168264 307.584 
L 198.447603 307.584 
L 201.726942 307.584 
L 205.006281 307.584 
L 208.28562 307.584 
L 211.564959 307.584 
L 214.844298 307.584 
L 218.123636 307.584 
L 221.402975 307.584 
L 224.682314 307.584 
L 227.961653 307.584 
L 231.240992 307.584 
L 234.520331 307.584 
L 237.799669 307.584 
L 241.079008 307.584 
L 244.358347 307.584 
L 247.637686 307.584 
L 250.917025 307.584 
L 254.196364 307.584 
L 257.475702 307.584 
L 260.755041 307.584 
L 264.03438 307.584 
L 267.313719 307.584 
L 270.593058 307.584 
L 273.872397 307.584 
L 277.151736 307.584 
L 280.431074 307.584 
L 283.710413 307.584 
L 286.989752 307.584 
L 290.269091 307.584 
L 293.54843 307.584 
L 296.827769 307.584 
L 300.107107 307.584 
L 303.386446 307.584 
L 306.665785 307.584 
L 309.945124 307.584 
L 313.224463 307.584 
L 316.503802 307.584 
L 319.78314 307.584 
L 323.062479 307.584 
L 326.341818 307.584 
L 329.621157 307.584 
L 332.900496 307.584 
L 336.179835 307.584 
L 339.459174 307.584 
L 342.738512 307.584 
L 346.017851 307.584 
L 349.29719 307.584 
L 352.576529 307.584 
L 355.855868 307.584 
L 359.135207 307.584 
L 362.414545 307.584 
L 365.693884 307.584 
L 368.973223 307.584 
L 372.252562 307.584 
L 375.531901 307.584 
L 378.81124 307.584 
L 382.090579 307.584 
L 385.369917 307.584 
L 388.649256 307.584 
L 391.928595 307.584 
L 395.207934 307.584 
L 398.487273 307.584 
L 398.487273 307.395988 
L 398.487273 307.395988 
L 395.207934 307.325048 
L 391.928595 307.473601 
L 388.649256 307.437163 
L 385.369917 307.546996 
L 382.090579 307.323756 
L 378.81124 307.472516 
L 375.531901 307.400534 
L 372.252562 307.470739 
L 368.973223 307.395821 
L 365.693884 307.435442 
L 362.414545 307.546636 
L 359.135207 307.360014 
L 355.855868 307.469356 
L 352.576529 307.507812 
L 349.29719 307.321562 
L 346.017851 307.358787 
L 342.738512 307.433277 
L 339.459174 307.436523 
L 336.179835 307.466612 
L 332.900496 307.509426 
L 329.621157 307.356393 
L 326.341818 307.47161 
L 323.062479 307.584 
L 319.78314 307.432353 
L 316.503802 307.174746 
L 313.224463 307.320392 
L 309.945124 307.400348 
L 306.665785 307.360409 
L 303.386446 307.43224 
L 300.107107 307.356937 
L 296.827769 307.354573 
L 293.54843 307.471126 
L 290.269091 307.506849 
L 286.989752 307.434983 
L 283.710413 307.508795 
L 280.431074 307.471477 
L 277.151736 307.432149 
L 273.872397 307.35872 
L 270.593058 307.394157 
L 267.313719 307.354122 
L 264.03438 307.39447 
L 260.755041 307.470857 
L 257.475702 307.434124 
L 254.196364 307.432489 
L 250.917025 307.432194 
L 247.637686 307.391299 
L 244.358347 307.43026 
L 241.079008 307.470384 
L 237.799669 307.35332 
L 234.520331 307.545087 
L 231.240992 307.391621 
L 227.961653 307.428777 
L 224.682314 307.430795 
L 221.402975 307.31694 
L 218.123636 307.431875 
L 214.844298 307.545009 
L 211.564959 307.545295 
L 208.28562 307.351166 
L 205.006281 307.315485 
L 201.726942 307.392782 
L 198.447603 307.393844 
L 195.168264 307.545384 
L 191.888926 307.43026 
L 188.609587 307.389106 
L 185.330248 307.356291 
L 182.050909 307.39229 
L 178.77157 307.311651 
L 175.492231 307.305538 
L 172.212893 307.424879 
L 168.933554 307.312152 
L 165.654215 307.197482 
L 162.374876 307.389196 
L 159.095537 307.428205 
L 155.816198 307.264806 
L 152.53686 307.352759 
L 149.257521 307.351237 
L 145.978182 307.42555 
L 142.698843 307.545917 
L 139.419504 307.46654 
L 136.140165 307.428825 
L 132.860826 307.34558 
L 129.581488 307.465901 
L 126.302149 307.265508 
L 123.02281 307.145454 
L 119.743471 307.064492 
L 116.464132 307.463962 
L 113.184793 307.227154 
L 109.905455 307.384943 
L 106.626116 307.460851 
L 103.346777 307.218051 
L 100.067438 307.140147 
L 96.788099 307.183747 
L 93.50876 307.139368 
L 90.229421 307.187318 
L 86.950083 307.063672 
L 83.670744 307.18197 
L 80.391405 307.347839 
L 77.112066 307.266356 
L 73.832727 307.18929 
z
" style="fill:#1f77b4;"/>
   </g>
   <g id="PolyCollection_2">
    <path clip-path="url(#pb8123af759)" d="M 73.832727 162.007605 
L 73.832727 307.18929 
L 77.112066 307.266356 
L 80.391405 307.347839 
L 83.670744 307.18197 
L 86.950083 307.063672 
L 90.229421 307.187318 
L 93.50876 307.139368 
L 96.788099 307.183747 
L 100.067438 307.140147 
L 103.346777 307.218051 
L 106.626116 307.460851 
L 109.905455 307.384943 
L 113.184793 307.227154 
L 116.464132 307.463962 
L 119.743471 307.064492 
L 123.02281 307.145454 
L 126.302149 307.265508 
L 129.581488 307.465901 
L 132.860826 307.34558 
L 136.140165 307.428825 
L 139.419504 307.46654 
L 142.698843 307.545917 
L 145.978182 307.42555 
L 149.257521 307.351237 
L 152.53686 307.352759 
L 155.816198 307.264806 
L 159.095537 307.428205 
L 162.374876 307.389196 
L 165.654215 307.197482 
L 168.933554 307.312152 
L 172.212893 307.424879 
L 175.492231 307.305538 
L 178.77157 307.311651 
L 182.050909 307.39229 
L 185.330248 307.356291 
L 188.609587 307.389106 
L 191.888926 307.43026 
L 195.168264 307.545384 
L 198.447603 307.393844 
L 201.726942 307.392782 
L 205.006281 307.315485 
L 208.28562 307.351166 
L 211.564959 307.545295 
L 214.844298 307.545009 
L 218.123636 307.431875 
L 221.402975 307.31694 
L 224.682314 307.430795 
L 227.961653 307.428777 
L 231.240992 307.391621 
L 234.520331 307.545087 
L 237.799669 307.35332 
L 241.079008 307.470384 
L 244.358347 307.43026 
L 247.637686 307.391299 
L 250.917025 307.432194 
L 254.196364 307.432489 
L 257.475702 307.434124 
L 260.755041 307.470857 
L 264.03438 307.39447 
L 267.313719 307.354122 
L 270.593058 307.394157 
L 273.872397 307.35872 
L 277.151736 307.432149 
L 280.431074 307.471477 
L 283.710413 307.508795 
L 286.989752 307.434983 
L 290.269091 307.506849 
L 293.54843 307.471126 
L 296.827769 307.354573 
L 300.107107 307.356937 
L 303.386446 307.43224 
L 306.665785 307.360409 
L 309.945124 307.400348 
L 313.224463 307.320392 
L 316.503802 307.174746 
L 319.78314 307.432353 
L 323.062479 307.584 
L 326.341818 307.47161 
L 329.621157 307.356393 
L 332.900496 307.509426 
L 336.179835 307.466612 
L 339.459174 307.436523 
L 342.738512 307.433277 
L 346.017851 307.358787 
L 349.29719 307.321562 
L 352.576529 307.507812 
L 355.855868 307.469356 
L 359.135207 307.360014 
L 362.414545 307.546636 
L 365.693884 307.435442 
L 368.973223 307.395821 
L 372.252562 307.470739 
L 375.531901 307.400534 
L 378.81124 307.472516 
L 382.090579 307.323756 
L 385.369917 307.546996 
L 388.649256 307.437163 
L 391.928595 307.473601 
L 395.207934 307.325048 
L 398.487273 307.395988 
L 398.487273 112.202065 
L 398.487273 112.202065 
L 395.207934 110.558538 
L 391.928595 109.56445 
L 388.649256 110.309006 
L 385.369917 111.093067 
L 382.090579 113.107744 
L 378.81124 110.703484 
L 375.531901 110.174531 
L 372.252562 110.887679 
L 368.973223 113.157056 
L 365.693884 111.338842 
L 362.414545 111.423009 
L 359.135207 110.663099 
L 355.855868 110.931069 
L 352.576529 112.351774 
L 349.29719 110.905562 
L 346.017851 109.959355 
L 342.738512 110.702644 
L 339.459174 110.037954 
L 336.179835 109.864019 
L 332.900496 112.013484 
L 329.621157 113.85281 
L 326.341818 111.163317 
L 323.062479 110.562981 
L 319.78314 110.556673 
L 316.503802 110.769907 
L 313.224463 111.798776 
L 309.945124 112.655583 
L 306.665785 111.085085 
L 303.386446 113.368527 
L 300.107107 105.68727 
L 296.827769 113.641984 
L 293.54843 111.220675 
L 290.269091 113.665753 
L 286.989752 111.999699 
L 283.710413 110.961187 
L 280.431074 113.443784 
L 277.151736 114.04938 
L 273.872397 112.82944 
L 270.593058 112.539613 
L 267.313719 114.486857 
L 264.03438 111.95076 
L 260.755041 112.374857 
L 257.475702 112.970257 
L 254.196364 112.362096 
L 250.917025 111.033272 
L 247.637686 110.990715 
L 244.358347 112.219196 
L 241.079008 111.709571 
L 237.799669 113.813126 
L 234.520331 113.680803 
L 231.240992 114.281653 
L 227.961653 112.197321 
L 224.682314 110.791689 
L 221.402975 113.164274 
L 218.123636 116.24897 
L 214.844298 113.95584 
L 211.564959 114.097965 
L 208.28562 114.0988 
L 205.006281 115.135312 
L 201.726942 113.765693 
L 198.447603 114.575597 
L 195.168264 111.875647 
L 191.888926 114.102508 
L 188.609587 112.807058 
L 185.330248 115.094081 
L 182.050909 112.577065 
L 178.77157 113.049152 
L 175.492231 117.235483 
L 172.212893 113.177897 
L 168.933554 116.863215 
L 165.654215 114.518147 
L 162.374876 118.273476 
L 159.095537 116.656863 
L 155.816198 116.905511 
L 152.53686 117.966482 
L 149.257521 117.571889 
L 145.978182 117.325744 
L 142.698843 119.074909 
L 139.419504 119.138655 
L 136.140165 119.821931 
L 132.860826 118.000707 
L 129.581488 120.672984 
L 126.302149 120.987506 
L 123.02281 123.075534 
L 119.743471 123.358456 
L 116.464132 122.365535 
L 113.184793 123.173887 
L 109.905455 120.071842 
L 106.626116 126.924875 
L 103.346777 126.439254 
L 100.067438 124.635909 
L 96.788099 127.15009 
L 93.50876 128.074105 
L 90.229421 133.6787 
L 86.950083 131.352743 
L 83.670744 135.997401 
L 80.391405 141.523531 
L 77.112066 149.357711 
L 73.832727 162.007605 
z
" style="fill:#ff7f0e;"/>
   </g>
   <g id="PolyCollection_3">
    <path clip-path="url(#pb8123af759)" d="M 73.832727 71.547143 
L 73.832727 162.007605 
L 77.112066 149.357711 
L 80.391405 141.523531 
L 83.670744 135.997401 
L 86.950083 131.352743 
L 90.229421 133.6787 
L 93.50876 128.074105 
L 96.788099 127.15009 
L 100.067438 124.635909 
L 103.346777 126.439254 
L 106.626116 126.924875 
L 109.905455 120.071842 
L 113.184793 123.173887 
L 116.464132 122.365535 
L 119.743471 123.358456 
L 123.02281 123.075534 
L 126.302149 120.987506 
L 129.581488 120.672984 
L 132.860826 118.000707 
L 136.140165 119.821931 
L 139.419504 119.138655 
L 142.698843 119.074909 
L 145.978182 117.325744 
L 149.257521 117.571889 
L 152.53686 117.966482 
L 155.816198 116.905511 
L 159.095537 116.656863 
L 162.374876 118.273476 
L 165.654215 114.518147 
L 168.933554 116.863215 
L 172.212893 113.177897 
L 175.492231 117.235483 
L 178.77157 113.049152 
L 182.050909 112.577065 
L 185.330248 115.094081 
L 188.609587 112.807058 
L 191.888926 114.102508 
L 195.168264 111.875647 
L 198.447603 114.575597 
L 201.726942 113.765693 
L 205.006281 115.135312 
L 208.28562 114.0988 
L 211.564959 114.097965 
L 214.844298 113.95584 
L 218.123636 116.24897 
L 221.402975 113.164274 
L 224.682314 110.791689 
L 227.961653 112.197321 
L 231.240992 114.281653 
L 234.520331 113.680803 
L 237.799669 113.813126 
L 241.079008 111.709571 
L 244.358347 112.219196 
L 247.637686 110.990715 
L 250.917025 111.033272 
L 254.196364 112.362096 
L 257.475702 112.970257 
L 260.755041 112.374857 
L 264.03438 111.95076 
L 267.313719 114.486857 
L 270.593058 112.539613 
L 273.872397 112.82944 
L 277.151736 114.04938 
L 280.431074 113.443784 
L 283.710413 110.961187 
L 286.989752 111.999699 
L 290.269091 113.665753 
L 293.54843 111.220675 
L 296.827769 113.641984 
L 300.107107 105.68727 
L 303.386446 113.368527 
L 306.665785 111.085085 
L 309.945124 112.655583 
L 313.224463 111.798776 
L 316.503802 110.769907 
L 319.78314 110.556673 
L 323.062479 110.562981 
L 326.341818 111.163317 
L 329.621157 113.85281 
L 332.900496 112.013484 
L 336.179835 109.864019 
L 339.459174 110.037954 
L 342.738512 110.702644 
L 346.017851 109.959355 
L 349.29719 110.905562 
L 352.576529 112.351774 
L 355.855868 110.931069 
L 359.135207 110.663099 
L 362.414545 111.423009 
L 365.693884 111.338842 
L 368.973223 113.157056 
L 372.252562 110.887679 
L 375.531901 110.174531 
L 378.81124 110.703484 
L 382.090579 113.107744 
L 385.369917 111.093067 
L 388.649256 110.309006 
L 391.928595 109.56445 
L 395.207934 110.558538 
L 398.487273 112.202065 
L 398.487273 58.656285 
L 398.487273 58.656285 
L 395.207934 59.544998 
L 391.928595 59.259168 
L 388.649256 59.173154 
L 385.369917 59.39856 
L 382.090579 58.493784 
L 378.81124 58.863484 
L 375.531901 58.840731 
L 372.252562 59.353999 
L 368.973223 59.224843 
L 365.693884 59.863484 
L 362.414545 59.150776 
L 359.135207 58.773041 
L 355.855868 58.806195 
L 352.576529 59.705738 
L 349.29719 59.505231 
L 346.017851 59.098692 
L 342.738512 60.738112 
L 339.459174 59.453188 
L 336.179835 58.643861 
L 332.900496 60.147213 
L 329.621157 59.872101 
L 326.341818 58.826927 
L 323.062479 59.117779 
L 319.78314 59.717026 
L 316.503802 59.79915 
L 313.224463 59.265522 
L 309.945124 60.388174 
L 306.665785 59.584706 
L 303.386446 60.55588 
L 300.107107 59.517821 
L 296.827769 60.491471 
L 293.54843 60.765948 
L 290.269091 59.930301 
L 286.989752 59.881139 
L 283.710413 59.859561 
L 280.431074 60.745367 
L 277.151736 61.318979 
L 273.872397 59.813547 
L 270.593058 61.054274 
L 267.313719 60.159129 
L 264.03438 60.360596 
L 260.755041 60.819429 
L 257.475702 60.438784 
L 254.196364 61.075628 
L 250.917025 61.354782 
L 247.637686 60.271883 
L 244.358347 60.178286 
L 241.079008 61.22608 
L 237.799669 61.102835 
L 234.520331 60.914852 
L 231.240992 60.492505 
L 227.961653 61.788722 
L 224.682314 61.114845 
L 221.402975 61.85059 
L 218.123636 61.750242 
L 214.844298 62.25408 
L 211.564959 61.65276 
L 208.28562 61.827528 
L 205.006281 62.122738 
L 201.726942 61.716223 
L 198.447603 62.967241 
L 195.168264 62.446545 
L 191.888926 61.600379 
L 188.609587 62.524437 
L 185.330248 61.810199 
L 182.050909 61.927407 
L 178.77157 62.859161 
L 175.492231 62.696755 
L 172.212893 62.338732 
L 168.933554 63.386832 
L 165.654215 63.26583 
L 162.374876 63.962121 
L 159.095537 63.881206 
L 155.816198 62.363244 
L 152.53686 62.661372 
L 149.257521 64.501949 
L 145.978182 63.413297 
L 142.698843 64.540562 
L 139.419504 64.441346 
L 136.140165 66.286464 
L 132.860826 64.753671 
L 129.581488 66.583739 
L 126.302149 65.092162 
L 123.02281 65.267134 
L 119.743471 66.452344 
L 116.464132 66.387865 
L 113.184793 65.325176 
L 109.905455 65.968015 
L 106.626116 67.033563 
L 103.346777 67.033536 
L 100.067438 66.813982 
L 96.788099 67.352339 
L 93.50876 68.493474 
L 90.229421 68.860895 
L 86.950083 69.273551 
L 83.670744 69.823188 
L 80.391405 71.265665 
L 77.112066 71.13794 
L 73.832727 71.547143 
z
" style="fill:#2ca02c;"/>
   </g>
   <g id="PolyCollection_4">
    <path clip-path="url(#pb8123af759)" d="M 73.832727 54.144 
L 73.832727 71.547143 
L 77.112066 71.13794 
L 80.391405 71.265665 
L 83.670744 69.823188 
L 86.950083 69.273551 
L 90.229421 68.860895 
L 93.50876 68.493474 
L 96.788099 67.352339 
L 100.067438 66.813982 
L 103.346777 67.033536 
L 106.626116 67.033563 
L 109.905455 65.968015 
L 113.184793 65.325176 
L 116.464132 66.387865 
L 119.743471 66.452344 
L 123.02281 65.267134 
L 126.302149 65.092162 
L 129.581488 66.583739 
L 132.860826 64.753671 
L 136.140165 66.286464 
L 139.419504 64.441346 
L 142.698843 64.540562 
L 145.978182 63.413297 
L 149.257521 64.501949 
L 152.53686 62.661372 
L 155.816198 62.363244 
L 159.095537 63.881206 
L 162.374876 63.962121 
L 165.654215 63.26583 
L 168.933554 63.386832 
L 172.212893 62.338732 
L 175.492231 62.696755 
L 178.77157 62.859161 
L 182.050909 61.927407 
L 185.330248 61.810199 
L 188.609587 62.524437 
L 191.888926 61.600379 
L 195.168264 62.446545 
L 198.447603 62.967241 
L 201.726942 61.716223 
L 205.006281 62.122738 
L 208.28562 61.827528 
L 211.564959 61.65276 
L 214.844298 62.25408 
L 218.123636 61.750242 
L 221.402975 61.85059 
L 224.682314 61.114845 
L 227.961653 61.788722 
L 231.240992 60.492505 
L 234.520331 60.914852 
L 237.799669 61.102835 
L 241.079008 61.22608 
L 244.358347 60.178286 
L 247.637686 60.271883 
L 250.917025 61.354782 
L 254.196364 61.075628 
L 257.475702 60.438784 
L 260.755041 60.819429 
L 264.03438 60.360596 
L 267.313719 60.159129 
L 270.593058 61.054274 
L 273.872397 59.813547 
L 277.151736 61.318979 
L 280.431074 60.745367 
L 283.710413 59.859561 
L 286.989752 59.881139 
L 290.269091 59.930301 
L 293.54843 60.765948 
L 296.827769 60.491471 
L 300.107107 59.517821 
L 303.386446 60.55588 
L 306.665785 59.584706 
L 309.945124 60.388174 
L 313.224463 59.265522 
L 316.503802 59.79915 
L 319.78314 59.717026 
L 323.062479 59.117779 
L 326.341818 58.826927 
L 329.621157 59.872101 
L 332.900496 60.147213 
L 336.179835 58.643861 
L 339.459174 59.453188 
L 342.738512 60.738112 
L 346.017851 59.098692 
L 349.29719 59.505231 
L 352.576529 59.705738 
L 355.855868 58.806195 
L 359.135207 58.773041 
L 362.414545 59.150776 
L 365.693884 59.863484 
L 368.973223 59.224843 
L 372.252562 59.353999 
L 375.531901 58.840731 
L 378.81124 58.863484 
L 382.090579 58.493784 
L 385.369917 59.39856 
L 388.649256 59.173154 
L 391.928595 59.259168 
L 395.207934 59.544998 
L 398.487273 58.656285 
L 398.487273 54.144 
L 398.487273 54.144 
L 395.207934 54.144 
L 391.928595 54.144 
L 388.649256 54.144 
L 385.369917 54.144 
L 382.090579 54.144 
L 378.81124 54.144 
L 375.531901 54.144 
L 372.252562 54.144 
L 368.973223 54.144 
L 365.693884 54.144 
L 362.414545 54.144 
L 359.135207 54.144 
L 355.855868 54.144 
L 352.576529 54.144 
L 349.29719 54.144 
L 346.017851 54.144 
L 342.738512 54.144 
L 339.459174 54.144 
L 336.179835 54.144 
L 332.900496 54.144 
L 329.621157 54.144 
L 326.341818 54.144 
L 323.062479 54.144 
L 319.78314 54.144 
L 316.503802 54.144 
L 313.224463 54.144 
L 309.945124 54.144 
L 306.665785 54.144 
L 303.386446 54.144 
L 300.107107 54.144 
L 296.827769 54.144 
L 293.54843 54.144 
L 290.269091 54.144 
L 286.989752 54.144 
L 283.710413 54.144 
L 280.431074 54.144 
L 277.151736 54.144 
L 273.872397 54.144 
L 270.593058 54.144 
L 267.313719 54.144 
L 264.03438 54.144 
L 260.755041 54.144 
L 257.475702 54.144 
L 254.196364 54.144 
L 250.917025 54.144 
L 247.637686 54.144 
L 244.358347 54.144 
L 241.079008 54.144 
L 237.799669 54.144 
L 234.520331 54.144 
L 231.240992 54.144 
L 227.961653 54.144 
L 224.682314 54.144 
L 221.402975 54.144 
L 218.123636 54.144 
L 214.844298 54.144 
L 211.564959 54.144 
L 208.28562 54.144 
L 205.006281 54.144 
L 201.726942 54.144 
L 198.447603 54.144 
L 195.168264 54.144 
L 191.888926 54.144 
L 188.609587 54.144 
L 185.330248 54.144 
L 182.050909 54.144 
L 178.77157 54.144 
L 175.492231 54.144 
L 172.212893 54.144 
L 168.933554 54.144 
L 165.654215 54.144 
L 162.374876 54.144 
L 159.095537 54.144 
L 155.816198 54.144 
L 152.53686 54.144 
L 149.257521 54.144 
L 145.978182 54.144 
L 142.698843 54.144 
L 139.419504 54.144 
L 136.140165 54.144 
L 132.860826 54.144 
L 129.581488 54.144 
L 126.302149 54.144 
L 123.02281 54.144 
L 119.743471 54.144 
L 116.464132 54.144 
L 113.184793 54.144 
L 109.905455 54.144 
L 106.626116 54.144 
L 103.346777 54.144 
L 100.067438 54.144 
L 96.788099 54.144 
L 93.50876 54.144 
L 90.229421 54.144 
L 86.950083 54.144 
L 83.670744 54.144 
L 80.391405 54.144 
L 77.112066 54.144 
L 73.832727 54.144 
z
" style="fill:#d62728;"/>
   </g>
   <g id="matplotlib.axis_1">
    <g id="xtick_1">
     <g id="line2d_1">
      <defs>
       <path d="M 0 0 
L 0 3.5 
" id="mce0f6f6490" style="stroke:#000000;stroke-width:0.8;"/>
      </defs>
      <g>
       <use style="stroke:#000000;stroke-width:0.8;" x="70.553388" xlink:href="#mce0f6f6490" y="307.584"/>
      </g>
     </g>
     <g id="text_1">
      <!-- 0 -->
      <defs>
       <path d="M 31.78125 66.40625 
Q 24.171875 66.40625 20.328125 58.90625 
Q 16.5 51.421875 16.5 36.375 
Q 16.5 21.390625 20.328125 13.890625 
Q 24.171875 6.390625 31.78125 6.390625 
Q 39.453125 6.390625 43.28125 13.890625 
Q 47.125 21.390625 47.125 36.375 
Q 47.125 51.421875 43.28125 58.90625 
Q 39.453125 66.40625 31.78125 66.40625 
z
M 31.78125 74.21875 
Q 44.046875 74.21875 50.515625 64.515625 
Q 56.984375 54.828125 56.984375 36.375 
Q 56.984375 17.96875 50.515625 8.265625 
Q 44.046875 -1.421875 31.78125 -1.421875 
Q 19.53125 -1.421875 13.0625 8.265625 
Q 6.59375 17.96875 6.59375 36.375 
Q 6.59375 54.828125 13.0625 64.515625 
Q 19.53125 74.21875 31.78125 74.21875 
z
" id="DejaVuSans-30"/>
      </defs>
      <g transform="translate(67.372138 322.182437)scale(0.1 -0.1)">
       <use xlink:href="#DejaVuSans-30"/>
      </g>
     </g>
    </g>
    <g id="xtick_2">
     <g id="line2d_2">
      <g>
       <use style="stroke:#000000;stroke-width:0.8;" x="136.140165" xlink:href="#mce0f6f6490" y="307.584"/>
      </g>
     </g>
     <g id="text_2">
      <!-- 200000 -->
      <defs>
       <path d="M 19.1875 8.296875 
L 53.609375 8.296875 
L 53.609375 0 
L 7.328125 0 
L 7.328125 8.296875 
Q 12.9375 14.109375 22.625 23.890625 
Q 32.328125 33.6875 34.8125 36.53125 
Q 39.546875 41.84375 41.421875 45.53125 
Q 43.3125 49.21875 43.3125 52.78125 
Q 43.3125 58.59375 39.234375 62.25 
Q 35.15625 65.921875 28.609375 65.921875 
Q 23.96875 65.921875 18.8125 64.3125 
Q 13.671875 62.703125 7.8125 59.421875 
L 7.8125 69.390625 
Q 13.765625 71.78125 18.9375 73 
Q 24.125 74.21875 28.421875 74.21875 
Q 39.75 74.21875 46.484375 68.546875 
Q 53.21875 62.890625 53.21875 53.421875 
Q 53.21875 48.921875 51.53125 44.890625 
Q 49.859375 40.875 45.40625 35.40625 
Q 44.1875 33.984375 37.640625 27.21875 
Q 31.109375 20.453125 19.1875 8.296875 
z
" id="DejaVuSans-32"/>
      </defs>
      <g transform="translate(117.052665 322.182437)scale(0.1 -0.1)">
       <use xlink:href="#DejaVuSans-32"/>
       <use x="63.623047" xlink:href="#DejaVuSans-30"/>
       <use x="127.246094" xlink:href="#DejaVuSans-30"/>
       <use x="190.869141" xlink:href="#DejaVuSans-30"/>
       <use x="254.492188" xlink:href="#DejaVuSans-30"/>
       <use x="318.115234" xlink:href="#DejaVuSans-30"/>
      </g>
     </g>
    </g>
    <g id="xtick_3">
     <g id="line2d_3">
      <g>
       <use style="stroke:#000000;stroke-width:0.8;" x="201.726942" xlink:href="#mce0f6f6490" y="307.584"/>
      </g>
     </g>
     <g id="text_3">
      <!-- 400000 -->
      <defs>
       <path d="M 37.796875 64.3125 
L 12.890625 25.390625 
L 37.796875 25.390625 
z
M 35.203125 72.90625 
L 47.609375 72.90625 
L 47.609375 25.390625 
L 58.015625 25.390625 
L 58.015625 17.1875 
L 47.609375 17.1875 
L 47.609375 0 
L 37.796875 0 
L 37.796875 17.1875 
L 4.890625 17.1875 
L 4.890625 26.703125 
z
" id="DejaVuSans-34"/>
      </defs>
      <g transform="translate(182.639442 322.182437)scale(0.1 -0.1)">
       <use xlink:href="#DejaVuSans-34"/>
       <use x="63.623047" xlink:href="#DejaVuSans-30"/>
       <use x="127.246094" xlink:href="#DejaVuSans-30"/>
       <use x="190.869141" xlink:href="#DejaVuSans-30"/>
       <use x="254.492188" xlink:href="#DejaVuSans-30"/>
       <use x="318.115234" xlink:href="#DejaVuSans-30"/>
      </g>
     </g>
    </g>
    <g id="xtick_4">
     <g id="line2d_4">
      <g>
       <use style="stroke:#000000;stroke-width:0.8;" x="267.313719" xlink:href="#mce0f6f6490" y="307.584"/>
      </g>
     </g>
     <g id="text_4">
      <!-- 600000 -->
      <defs>
       <path d="M 33.015625 40.375 
Q 26.375 40.375 22.484375 35.828125 
Q 18.609375 31.296875 18.609375 23.390625 
Q 18.609375 15.53125 22.484375 10.953125 
Q 26.375 6.390625 33.015625 6.390625 
Q 39.65625 6.390625 43.53125 10.953125 
Q 47.40625 15.53125 47.40625 23.390625 
Q 47.40625 31.296875 43.53125 35.828125 
Q 39.65625 40.375 33.015625 40.375 
z
M 52.59375 71.296875 
L 52.59375 62.3125 
Q 48.875 64.0625 45.09375 64.984375 
Q 41.3125 65.921875 37.59375 65.921875 
Q 27.828125 65.921875 22.671875 59.328125 
Q 17.53125 52.734375 16.796875 39.40625 
Q 19.671875 43.65625 24.015625 45.921875 
Q 28.375 48.1875 33.59375 48.1875 
Q 44.578125 48.1875 50.953125 41.515625 
Q 57.328125 34.859375 57.328125 23.390625 
Q 57.328125 12.15625 50.6875 5.359375 
Q 44.046875 -1.421875 33.015625 -1.421875 
Q 20.359375 -1.421875 13.671875 8.265625 
Q 6.984375 17.96875 6.984375 36.375 
Q 6.984375 53.65625 15.1875 63.9375 
Q 23.390625 74.21875 37.203125 74.21875 
Q 40.921875 74.21875 44.703125 73.484375 
Q 48.484375 72.75 52.59375 71.296875 
z
" id="DejaVuSans-36"/>
      </defs>
      <g transform="translate(248.226219 322.182437)scale(0.1 -0.1)">
       <use xlink:href="#DejaVuSans-36"/>
       <use x="63.623047" xlink:href="#DejaVuSans-30"/>
       <use x="127.246094" xlink:href="#DejaVuSans-30"/>
       <use x="190.869141" xlink:href="#DejaVuSans-30"/>
       <use x="254.492188" xlink:href="#DejaVuSans-30"/>
       <use x="318.115234" xlink:href="#DejaVuSans-30"/>
      </g>
     </g>
    </g>
    <g id="xtick_5">
     <g id="line2d_5">
      <g>
       <use style="stroke:#000000;stroke-width:0.8;" x="332.900496" xlink:href="#mce0f6f6490" y="307.584"/>
      </g>
     </g>
     <g id="text_5">
      <!-- 800000 -->
      <defs>
       <path d="M 31.78125 34.625 
Q 24.75 34.625 20.71875 30.859375 
Q 16.703125 27.09375 16.703125 20.515625 
Q 16.703125 13.921875 20.71875 10.15625 
Q 24.75 6.390625 31.78125 6.390625 
Q 38.8125 6.390625 42.859375 10.171875 
Q 46.921875 13.96875 46.921875 20.515625 
Q 46.921875 27.09375 42.890625 30.859375 
Q 38.875 34.625 31.78125 34.625 
z
M 21.921875 38.8125 
Q 15.578125 40.375 12.03125 44.71875 
Q 8.5 49.078125 8.5 55.328125 
Q 8.5 64.0625 14.71875 69.140625 
Q 20.953125 74.21875 31.78125 74.21875 
Q 42.671875 74.21875 48.875 69.140625 
Q 55.078125 64.0625 55.078125 55.328125 
Q 55.078125 49.078125 51.53125 44.71875 
Q 48 40.375 41.703125 38.8125 
Q 48.828125 37.15625 52.796875 32.3125 
Q 56.78125 27.484375 56.78125 20.515625 
Q 56.78125 9.90625 50.3125 4.234375 
Q 43.84375 -1.421875 31.78125 -1.421875 
Q 19.734375 -1.421875 13.25 4.234375 
Q 6.78125 9.90625 6.78125 20.515625 
Q 6.78125 27.484375 10.78125 32.3125 
Q 14.796875 37.15625 21.921875 38.8125 
z
M 18.3125 54.390625 
Q 18.3125 48.734375 21.84375 45.5625 
Q 25.390625 42.390625 31.78125 42.390625 
Q 38.140625 42.390625 41.71875 45.5625 
Q 45.3125 48.734375 45.3125 54.390625 
Q 45.3125 60.0625 41.71875 63.234375 
Q 38.140625 66.40625 31.78125 66.40625 
Q 25.390625 66.40625 21.84375 63.234375 
Q 18.3125 60.0625 18.3125 54.390625 
z
" id="DejaVuSans-38"/>
      </defs>
      <g transform="translate(313.812996 322.182437)scale(0.1 -0.1)">
       <use xlink:href="#DejaVuSans-38"/>
       <use x="63.623047" xlink:href="#DejaVuSans-30"/>
       <use x="127.246094" xlink:href="#DejaVuSans-30"/>
       <use x="190.869141" xlink:href="#DejaVuSans-30"/>
       <use x="254.492188" xlink:href="#DejaVuSans-30"/>
       <use x="318.115234" xlink:href="#DejaVuSans-30"/>
      </g>
     </g>
    </g>
    <g id="xtick_6">
     <g id="line2d_6">
      <g>
       <use style="stroke:#000000;stroke-width:0.8;" x="398.487273" xlink:href="#mce0f6f6490" y="307.584"/>
      </g>
     </g>
     <g id="text_6">
      <!-- 1000000 -->
      <defs>
       <path d="M 12.40625 8.296875 
L 28.515625 8.296875 
L 28.515625 63.921875 
L 10.984375 60.40625 
L 10.984375 69.390625 
L 28.421875 72.90625 
L 38.28125 72.90625 
L 38.28125 8.296875 
L 54.390625 8.296875 
L 54.390625 0 
L 12.40625 0 
z
" id="DejaVuSans-31"/>
      </defs>
      <g transform="translate(376.218523 322.182437)scale(0.1 -0.1)">
       <use xlink:href="#DejaVuSans-31"/>
       <use x="63.623047" xlink:href="#DejaVuSans-30"/>
       <use x="127.246094" xlink:href="#DejaVuSans-30"/>
       <use x="190.869141" xlink:href="#DejaVuSans-30"/>
       <use x="254.492188" xlink:href="#DejaVuSans-30"/>
       <use x="318.115234" xlink:href="#DejaVuSans-30"/>
       <use x="381.738281" xlink:href="#DejaVuSans-30"/>
      </g>
     </g>
    </g>
    <g id="text_7">
     <!-- alexa rank -->
     <defs>
      <path d="M 34.28125 27.484375 
Q 23.390625 27.484375 19.1875 25 
Q 14.984375 22.515625 14.984375 16.5 
Q 14.984375 11.71875 18.140625 8.90625 
Q 21.296875 6.109375 26.703125 6.109375 
Q 34.1875 6.109375 38.703125 11.40625 
Q 43.21875 16.703125 43.21875 25.484375 
L 43.21875 27.484375 
z
M 52.203125 31.203125 
L 52.203125 0 
L 43.21875 0 
L 43.21875 8.296875 
Q 40.140625 3.328125 35.546875 0.953125 
Q 30.953125 -1.421875 24.3125 -1.421875 
Q 15.921875 -1.421875 10.953125 3.296875 
Q 6 8.015625 6 15.921875 
Q 6 25.140625 12.171875 29.828125 
Q 18.359375 34.515625 30.609375 34.515625 
L 43.21875 34.515625 
L 43.21875 35.40625 
Q 43.21875 41.609375 39.140625 45 
Q 35.0625 48.390625 27.6875 48.390625 
Q 23 48.390625 18.546875 47.265625 
Q 14.109375 46.140625 10.015625 43.890625 
L 10.015625 52.203125 
Q 14.9375 54.109375 19.578125 55.046875 
Q 24.21875 56 28.609375 56 
Q 40.484375 56 46.34375 49.84375 
Q 52.203125 43.703125 52.203125 31.203125 
z
" id="DejaVuSans-61"/>
      <path d="M 9.421875 75.984375 
L 18.40625 75.984375 
L 18.40625 0 
L 9.421875 0 
z
" id="DejaVuSans-6c"/>
      <path d="M 56.203125 29.59375 
L 56.203125 25.203125 
L 14.890625 25.203125 
Q 15.484375 15.921875 20.484375 11.0625 
Q 25.484375 6.203125 34.421875 6.203125 
Q 39.59375 6.203125 44.453125 7.46875 
Q 49.3125 8.734375 54.109375 11.28125 
L 54.109375 2.78125 
Q 49.265625 0.734375 44.1875 -0.34375 
Q 39.109375 -1.421875 33.890625 -1.421875 
Q 20.796875 -1.421875 13.15625 6.1875 
Q 5.515625 13.8125 5.515625 26.8125 
Q 5.515625 40.234375 12.765625 48.109375 
Q 20.015625 56 32.328125 56 
Q 43.359375 56 49.78125 48.890625 
Q 56.203125 41.796875 56.203125 29.59375 
z
M 47.21875 32.234375 
Q 47.125 39.59375 43.09375 43.984375 
Q 39.0625 48.390625 32.421875 48.390625 
Q 24.90625 48.390625 20.390625 44.140625 
Q 15.875 39.890625 15.1875 32.171875 
z
" id="DejaVuSans-65"/>
      <path d="M 54.890625 54.6875 
L 35.109375 28.078125 
L 55.90625 0 
L 45.3125 0 
L 29.390625 21.484375 
L 13.484375 0 
L 2.875 0 
L 24.125 28.609375 
L 4.6875 54.6875 
L 15.28125 54.6875 
L 29.78125 35.203125 
L 44.28125 54.6875 
z
" id="DejaVuSans-78"/>
      <path id="DejaVuSans-20"/>
      <path d="M 41.109375 46.296875 
Q 39.59375 47.171875 37.8125 47.578125 
Q 36.03125 48 33.890625 48 
Q 26.265625 48 22.1875 43.046875 
Q 18.109375 38.09375 18.109375 28.8125 
L 18.109375 0 
L 9.078125 0 
L 9.078125 54.6875 
L 18.109375 54.6875 
L 18.109375 46.1875 
Q 20.953125 51.171875 25.484375 53.578125 
Q 30.03125 56 36.53125 56 
Q 37.453125 56 38.578125 55.875 
Q 39.703125 55.765625 41.0625 55.515625 
z
" id="DejaVuSans-72"/>
      <path d="M 54.890625 33.015625 
L 54.890625 0 
L 45.90625 0 
L 45.90625 32.71875 
Q 45.90625 40.484375 42.875 44.328125 
Q 39.84375 48.1875 33.796875 48.1875 
Q 26.515625 48.1875 22.3125 43.546875 
Q 18.109375 38.921875 18.109375 30.90625 
L 18.109375 0 
L 9.078125 0 
L 9.078125 54.6875 
L 18.109375 54.6875 
L 18.109375 46.1875 
Q 21.34375 51.125 25.703125 53.5625 
Q 30.078125 56 35.796875 56 
Q 45.21875 56 50.046875 50.171875 
Q 54.890625 44.34375 54.890625 33.015625 
z
" id="DejaVuSans-6e"/>
      <path d="M 9.078125 75.984375 
L 18.109375 75.984375 
L 18.109375 31.109375 
L 44.921875 54.6875 
L 56.390625 54.6875 
L 27.390625 29.109375 
L 57.625 0 
L 45.90625 0 
L 18.109375 26.703125 
L 18.109375 0 
L 9.078125 0 
z
" id="DejaVuSans-6b"/>
     </defs>
     <g transform="translate(209.835 335.860562)scale(0.1 -0.1)">
      <use xlink:href="#DejaVuSans-61"/>
      <use x="61.279297" xlink:href="#DejaVuSans-6c"/>
      <use x="89.0625" xlink:href="#DejaVuSans-65"/>
      <use x="150.570312" xlink:href="#DejaVuSans-78"/>
      <use x="209.75" xlink:href="#DejaVuSans-61"/>
      <use x="271.029297" xlink:href="#DejaVuSans-20"/>
      <use x="302.816406" xlink:href="#DejaVuSans-72"/>
      <use x="343.929688" xlink:href="#DejaVuSans-61"/>
      <use x="405.208984" xlink:href="#DejaVuSans-6e"/>
      <use x="468.587891" xlink:href="#DejaVuSans-6b"/>
     </g>
    </g>
   </g>
   <g id="matplotlib.axis_2">
    <g id="ytick_1">
     <g id="line2d_7">
      <defs>
       <path d="M 0 0 
L -3.5 0 
" id="mda31836a10" style="stroke:#000000;stroke-width:0.8;"/>
      </defs>
      <g>
       <use style="stroke:#000000;stroke-width:0.8;" x="57.6" xlink:href="#mda31836a10" y="307.584"/>
      </g>
     </g>
     <g id="text_8">
      <!-- 0.0 -->
      <defs>
       <path d="M 10.6875 12.40625 
L 21 12.40625 
L 21 0 
L 10.6875 0 
z
" id="DejaVuSans-2e"/>
      </defs>
      <g transform="translate(34.696875 311.383219)scale(0.1 -0.1)">
       <use xlink:href="#DejaVuSans-30"/>
       <use x="63.623047" xlink:href="#DejaVuSans-2e"/>
       <use x="95.410156" xlink:href="#DejaVuSans-30"/>
      </g>
     </g>
    </g>
    <g id="ytick_2">
     <g id="line2d_8">
      <g>
       <use style="stroke:#000000;stroke-width:0.8;" x="57.6" xlink:href="#mda31836a10" y="256.896"/>
      </g>
     </g>
     <g id="text_9">
      <!-- 0.2 -->
      <g transform="translate(34.696875 260.695219)scale(0.1 -0.1)">
       <use xlink:href="#DejaVuSans-30"/>
       <use x="63.623047" xlink:href="#DejaVuSans-2e"/>
       <use x="95.410156" xlink:href="#DejaVuSans-32"/>
      </g>
     </g>
    </g>
    <g id="ytick_3">
     <g id="line2d_9">
      <g>
       <use style="stroke:#000000;stroke-width:0.8;" x="57.6" xlink:href="#mda31836a10" y="206.208"/>
      </g>
     </g>
     <g id="text_10">
      <!-- 0.4 -->
      <g transform="translate(34.696875 210.007219)scale(0.1 -0.1)">
       <use xlink:href="#DejaVuSans-30"/>
       <use x="63.623047" xlink:href="#DejaVuSans-2e"/>
       <use x="95.410156" xlink:href="#DejaVuSans-34"/>
      </g>
     </g>
    </g>
    <g id="ytick_4">
     <g id="line2d_10">
      <g>
       <use style="stroke:#000000;stroke-width:0.8;" x="57.6" xlink:href="#mda31836a10" y="155.52"/>
      </g>
     </g>
     <g id="text_11">
      <!-- 0.6 -->
      <g transform="translate(34.696875 159.319219)scale(0.1 -0.1)">
       <use xlink:href="#DejaVuSans-30"/>
       <use x="63.623047" xlink:href="#DejaVuSans-2e"/>
       <use x="95.410156" xlink:href="#DejaVuSans-36"/>
      </g>
     </g>
    </g>
    <g id="ytick_5">
     <g id="line2d_11">
      <g>
       <use style="stroke:#000000;stroke-width:0.8;" x="57.6" xlink:href="#mda31836a10" y="104.832"/>
      </g>
     </g>
     <g id="text_12">
      <!-- 0.8 -->
      <g transform="translate(34.696875 108.631219)scale(0.1 -0.1)">
       <use xlink:href="#DejaVuSans-30"/>
       <use x="63.623047" xlink:href="#DejaVuSans-2e"/>
       <use x="95.410156" xlink:href="#DejaVuSans-38"/>
      </g>
     </g>
    </g>
    <g id="ytick_6">
     <g id="line2d_12">
      <g>
       <use style="stroke:#000000;stroke-width:0.8;" x="57.6" xlink:href="#mda31836a10" y="54.144"/>
      </g>
     </g>
     <g id="text_13">
      <!-- 1.0 -->
      <g transform="translate(34.696875 57.943219)scale(0.1 -0.1)">
       <use xlink:href="#DejaVuSans-31"/>
       <use x="63.623047" xlink:href="#DejaVuSans-2e"/>
       <use x="95.410156" xlink:href="#DejaVuSans-30"/>
      </g>
     </g>
    </g>
    <g id="text_14">
     <!-- proportion -->
     <defs>
      <path d="M 18.109375 8.203125 
L 18.109375 -20.796875 
L 9.078125 -20.796875 
L 9.078125 54.6875 
L 18.109375 54.6875 
L 18.109375 46.390625 
Q 20.953125 51.265625 25.265625 53.625 
Q 29.59375 56 35.59375 56 
Q 45.5625 56 51.78125 48.09375 
Q 58.015625 40.1875 58.015625 27.296875 
Q 58.015625 14.40625 51.78125 6.484375 
Q 45.5625 -1.421875 35.59375 -1.421875 
Q 29.59375 -1.421875 25.265625 0.953125 
Q 20.953125 3.328125 18.109375 8.203125 
z
M 48.6875 27.296875 
Q 48.6875 37.203125 44.609375 42.84375 
Q 40.53125 48.484375 33.40625 48.484375 
Q 26.265625 48.484375 22.1875 42.84375 
Q 18.109375 37.203125 18.109375 27.296875 
Q 18.109375 17.390625 22.1875 11.75 
Q 26.265625 6.109375 33.40625 6.109375 
Q 40.53125 6.109375 44.609375 11.75 
Q 48.6875 17.390625 48.6875 27.296875 
z
" id="DejaVuSans-70"/>
      <path d="M 30.609375 48.390625 
Q 23.390625 48.390625 19.1875 42.75 
Q 14.984375 37.109375 14.984375 27.296875 
Q 14.984375 17.484375 19.15625 11.84375 
Q 23.34375 6.203125 30.609375 6.203125 
Q 37.796875 6.203125 41.984375 11.859375 
Q 46.1875 17.53125 46.1875 27.296875 
Q 46.1875 37.015625 41.984375 42.703125 
Q 37.796875 48.390625 30.609375 48.390625 
z
M 30.609375 56 
Q 42.328125 56 49.015625 48.375 
Q 55.71875 40.765625 55.71875 27.296875 
Q 55.71875 13.875 49.015625 6.21875 
Q 42.328125 -1.421875 30.609375 -1.421875 
Q 18.84375 -1.421875 12.171875 6.21875 
Q 5.515625 13.875 5.515625 27.296875 
Q 5.515625 40.765625 12.171875 48.375 
Q 18.84375 56 30.609375 56 
z
" id="DejaVuSans-6f"/>
      <path d="M 18.3125 70.21875 
L 18.3125 54.6875 
L 36.8125 54.6875 
L 36.8125 47.703125 
L 18.3125 47.703125 
L 18.3125 18.015625 
Q 18.3125 11.328125 20.140625 9.421875 
Q 21.96875 7.515625 27.59375 7.515625 
L 36.8125 7.515625 
L 36.8125 0 
L 27.59375 0 
Q 17.1875 0 13.234375 3.875 
Q 9.28125 7.765625 9.28125 18.015625 
L 9.28125 47.703125 
L 2.6875 47.703125 
L 2.6875 54.6875 
L 9.28125 54.6875 
L 9.28125 70.21875 
z
" id="DejaVuSans-74"/>
      <path d="M 9.421875 54.6875 
L 18.40625 54.6875 
L 18.40625 0 
L 9.421875 0 
z
M 9.421875 75.984375 
L 18.40625 75.984375 
L 18.40625 64.59375 
L 9.421875 64.59375 
z
" id="DejaVuSans-69"/>
     </defs>
     <g transform="translate(28.617187 200.681906)rotate(-90)scale(0.1 -0.1)">
      <use xlink:href="#DejaVuSans-70"/>
      <use x="63.476562" xlink:href="#DejaVuSans-72"/>
      <use x="104.558594" xlink:href="#DejaVuSans-6f"/>
      <use x="165.740234" xlink:href="#DejaVuSans-70"/>
      <use x="229.216797" xlink:href="#DejaVuSans-6f"/>
      <use x="290.398438" xlink:href="#DejaVuSans-72"/>
      <use x="331.511719" xlink:href="#DejaVuSans-74"/>
      <use x="370.720703" xlink:href="#DejaVuSans-69"/>
      <use x="398.503906" xlink:href="#DejaVuSans-6f"/>
      <use x="459.685547" xlink:href="#DejaVuSans-6e"/>
     </g>
    </g>
   </g>
   <g id="patch_3">
    <path d="M 57.6 307.584 
L 57.6 41.472 
" style="fill:none;stroke:#000000;stroke-linecap:square;stroke-linejoin:miter;stroke-width:0.8;"/>
   </g>
   <g id="patch_4">
    <path d="M 414.72 307.584 
L 414.72 41.472 
" style="fill:none;stroke:#000000;stroke-linecap:square;stroke-linejoin:miter;stroke-width:0.8;"/>
   </g>
   <g id="patch_5">
    <path d="M 57.6 307.584 
L 414.72 307.584 
" style="fill:none;stroke:#000000;stroke-linecap:square;stroke-linejoin:miter;stroke-width:0.8;"/>
   </g>
   <g id="patch_6">
    <path d="M 57.6 41.472 
L 414.72 41.472 
" style="fill:none;stroke:#000000;stroke-linecap:square;stroke-linejoin:miter;stroke-width:0.8;"/>
   </g>
   <g id="text_15">
    <!-- without sct -->
    <defs>
     <path d="M 4.203125 54.6875 
L 13.1875 54.6875 
L 24.421875 12.015625 
L 35.59375 54.6875 
L 46.1875 54.6875 
L 57.421875 12.015625 
L 68.609375 54.6875 
L 77.59375 54.6875 
L 63.28125 0 
L 52.6875 0 
L 40.921875 44.828125 
L 29.109375 0 
L 18.5 0 
z
" id="DejaVuSans-77"/>
     <path d="M 54.890625 33.015625 
L 54.890625 0 
L 45.90625 0 
L 45.90625 32.71875 
Q 45.90625 40.484375 42.875 44.328125 
Q 39.84375 48.1875 33.796875 48.1875 
Q 26.515625 48.1875 22.3125 43.546875 
Q 18.109375 38.921875 18.109375 30.90625 
L 18.109375 0 
L 9.078125 0 
L 9.078125 75.984375 
L 18.109375 75.984375 
L 18.109375 46.1875 
Q 21.34375 51.125 25.703125 53.5625 
Q 30.078125 56 35.796875 56 
Q 45.21875 56 50.046875 50.171875 
Q 54.890625 44.34375 54.890625 33.015625 
z
" id="DejaVuSans-68"/>
     <path d="M 8.5 21.578125 
L 8.5 54.6875 
L 17.484375 54.6875 
L 17.484375 21.921875 
Q 17.484375 14.15625 20.5 10.265625 
Q 23.53125 6.390625 29.59375 6.390625 
Q 36.859375 6.390625 41.078125 11.03125 
Q 45.3125 15.671875 45.3125 23.6875 
L 45.3125 54.6875 
L 54.296875 54.6875 
L 54.296875 0 
L 45.3125 0 
L 45.3125 8.40625 
Q 42.046875 3.421875 37.71875 1 
Q 33.40625 -1.421875 27.6875 -1.421875 
Q 18.265625 -1.421875 13.375 4.4375 
Q 8.5 10.296875 8.5 21.578125 
z
M 31.109375 56 
z
" id="DejaVuSans-75"/>
     <path d="M 44.28125 53.078125 
L 44.28125 44.578125 
Q 40.484375 46.53125 36.375 47.5 
Q 32.28125 48.484375 27.875 48.484375 
Q 21.1875 48.484375 17.84375 46.4375 
Q 14.5 44.390625 14.5 40.28125 
Q 14.5 37.15625 16.890625 35.375 
Q 19.28125 33.59375 26.515625 31.984375 
L 29.59375 31.296875 
Q 39.15625 29.25 43.1875 25.515625 
Q 47.21875 21.78125 47.21875 15.09375 
Q 47.21875 7.46875 41.1875 3.015625 
Q 35.15625 -1.421875 24.609375 -1.421875 
Q 20.21875 -1.421875 15.453125 -0.5625 
Q 10.6875 0.296875 5.421875 2 
L 5.421875 11.28125 
Q 10.40625 8.6875 15.234375 7.390625 
Q 20.0625 6.109375 24.8125 6.109375 
Q 31.15625 6.109375 34.5625 8.28125 
Q 37.984375 10.453125 37.984375 14.40625 
Q 37.984375 18.0625 35.515625 20.015625 
Q 33.0625 21.96875 24.703125 23.78125 
L 21.578125 24.515625 
Q 13.234375 26.265625 9.515625 29.90625 
Q 5.8125 33.546875 5.8125 39.890625 
Q 5.8125 47.609375 11.28125 51.796875 
Q 16.75 56 26.8125 56 
Q 31.78125 56 36.171875 55.265625 
Q 40.578125 54.546875 44.28125 53.078125 
z
" id="DejaVuSans-73"/>
     <path d="M 48.78125 52.59375 
L 48.78125 44.1875 
Q 44.96875 46.296875 41.140625 47.34375 
Q 37.3125 48.390625 33.40625 48.390625 
Q 24.65625 48.390625 19.8125 42.84375 
Q 14.984375 37.3125 14.984375 27.296875 
Q 14.984375 17.28125 19.8125 11.734375 
Q 24.65625 6.203125 33.40625 6.203125 
Q 37.3125 6.203125 41.140625 7.25 
Q 44.96875 8.296875 48.78125 10.40625 
L 48.78125 2.09375 
Q 45.015625 0.34375 40.984375 -0.53125 
Q 36.96875 -1.421875 32.421875 -1.421875 
Q 20.0625 -1.421875 12.78125 6.34375 
Q 5.515625 14.109375 5.515625 27.296875 
Q 5.515625 40.671875 12.859375 48.328125 
Q 20.21875 56 33.015625 56 
Q 37.15625 56 41.109375 55.140625 
Q 45.0625 54.296875 48.78125 52.59375 
z
" id="DejaVuSans-63"/>
    </defs>
    <g transform="translate(80.391405 231.552)scale(0.1 -0.1)">
     <use xlink:href="#DejaVuSans-77"/>
     <use x="81.787109" xlink:href="#DejaVuSans-69"/>
     <use x="109.570312" xlink:href="#DejaVuSans-74"/>
     <use x="148.779297" xlink:href="#DejaVuSans-68"/>
     <use x="212.158203" xlink:href="#DejaVuSans-6f"/>
     <use x="273.339844" xlink:href="#DejaVuSans-75"/>
     <use x="336.71875" xlink:href="#DejaVuSans-74"/>
     <use x="375.927734" xlink:href="#DejaVuSans-20"/>
     <use x="407.714844" xlink:href="#DejaVuSans-73"/>
     <use x="459.814453" xlink:href="#DejaVuSans-63"/>
     <use x="514.794922" xlink:href="#DejaVuSans-74"/>
    </g>
   </g>
   <g id="text_16">
    <!-- certificate with scts -->
    <defs>
     <path d="M 37.109375 75.984375 
L 37.109375 68.5 
L 28.515625 68.5 
Q 23.6875 68.5 21.796875 66.546875 
Q 19.921875 64.59375 19.921875 59.515625 
L 19.921875 54.6875 
L 34.71875 54.6875 
L 34.71875 47.703125 
L 19.921875 47.703125 
L 19.921875 0 
L 10.890625 0 
L 10.890625 47.703125 
L 2.296875 47.703125 
L 2.296875 54.6875 
L 10.890625 54.6875 
L 10.890625 58.5 
Q 10.890625 67.625 15.140625 71.796875 
Q 19.390625 75.984375 28.609375 75.984375 
z
" id="DejaVuSans-66"/>
    </defs>
    <g transform="translate(80.391405 99.7632)scale(0.1 -0.1)">
     <use xlink:href="#DejaVuSans-63"/>
     <use x="54.980469" xlink:href="#DejaVuSans-65"/>
     <use x="116.503906" xlink:href="#DejaVuSans-72"/>
     <use x="157.617188" xlink:href="#DejaVuSans-74"/>
     <use x="196.826172" xlink:href="#DejaVuSans-69"/>
     <use x="224.609375" xlink:href="#DejaVuSans-66"/>
     <use x="259.814453" xlink:href="#DejaVuSans-69"/>
     <use x="287.597656" xlink:href="#DejaVuSans-63"/>
     <use x="342.578125" xlink:href="#DejaVuSans-61"/>
     <use x="403.857422" xlink:href="#DejaVuSans-74"/>
     <use x="443.066406" xlink:href="#DejaVuSans-65"/>
     <use x="504.589844" xlink:href="#DejaVuSans-20"/>
     <use x="536.376953" xlink:href="#DejaVuSans-77"/>
     <use x="618.164062" xlink:href="#DejaVuSans-69"/>
     <use x="645.947266" xlink:href="#DejaVuSans-74"/>
     <use x="685.15625" xlink:href="#DejaVuSans-68"/>
     <use x="748.535156" xlink:href="#DejaVuSans-20"/>
     <use x="780.322266" xlink:href="#DejaVuSans-73"/>
     <use x="832.421875" xlink:href="#DejaVuSans-63"/>
     <use x="887.402344" xlink:href="#DejaVuSans-74"/>
     <use x="926.611328" xlink:href="#DejaVuSans-73"/>
    </g>
   </g>
   <g id="text_17">
    <!-- ev-certificate with scts -->
    <defs>
     <path d="M 2.984375 54.6875 
L 12.5 54.6875 
L 29.59375 8.796875 
L 46.6875 54.6875 
L 56.203125 54.6875 
L 35.6875 0 
L 23.484375 0 
z
" id="DejaVuSans-76"/>
     <path d="M 4.890625 31.390625 
L 31.203125 31.390625 
L 31.203125 23.390625 
L 4.890625 23.390625 
z
" id="DejaVuSans-2d"/>
    </defs>
    <g transform="translate(80.391405 61.7472)scale(0.1 -0.1)">
     <use xlink:href="#DejaVuSans-65"/>
     <use x="61.523438" xlink:href="#DejaVuSans-76"/>
     <use x="120.671875" xlink:href="#DejaVuSans-2d"/>
     <use x="156.755859" xlink:href="#DejaVuSans-63"/>
     <use x="211.736328" xlink:href="#DejaVuSans-65"/>
     <use x="273.259766" xlink:href="#DejaVuSans-72"/>
     <use x="314.373047" xlink:href="#DejaVuSans-74"/>
     <use x="353.582031" xlink:href="#DejaVuSans-69"/>
     <use x="381.365234" xlink:href="#DejaVuSans-66"/>
     <use x="416.570312" xlink:href="#DejaVuSans-69"/>
     <use x="444.353516" xlink:href="#DejaVuSans-63"/>
     <use x="499.333984" xlink:href="#DejaVuSans-61"/>
     <use x="560.613281" xlink:href="#DejaVuSans-74"/>
     <use x="599.822266" xlink:href="#DejaVuSans-65"/>
     <use x="661.345703" xlink:href="#DejaVuSans-20"/>
     <use x="693.132812" xlink:href="#DejaVuSans-77"/>
     <use x="774.919922" xlink:href="#DejaVuSans-69"/>
     <use x="802.703125" xlink:href="#DejaVuSans-74"/>
     <use x="841.912109" xlink:href="#DejaVuSans-68"/>
     <use x="905.291016" xlink:href="#DejaVuSans-20"/>
     <use x="937.078125" xlink:href="#DejaVuSans-73"/>
     <use x="989.177734" xlink:href="#DejaVuSans-63"/>
     <use x="1044.158203" xlink:href="#DejaVuSans-74"/>
     <use x="1083.367188" xlink:href="#DejaVuSans-73"/>
    </g>
   </g>
   <g id="text_18">
    <!-- Non-EV and EV Certificates with or without SCTs -->
    <defs>
     <path d="M 9.8125 72.90625 
L 23.09375 72.90625 
L 55.421875 11.921875 
L 55.421875 72.90625 
L 64.984375 72.90625 
L 64.984375 0 
L 51.703125 0 
L 19.390625 60.984375 
L 19.390625 0 
L 9.8125 0 
z
" id="DejaVuSans-4e"/>
     <path d="M 9.8125 72.90625 
L 55.90625 72.90625 
L 55.90625 64.59375 
L 19.671875 64.59375 
L 19.671875 43.015625 
L 54.390625 43.015625 
L 54.390625 34.71875 
L 19.671875 34.71875 
L 19.671875 8.296875 
L 56.78125 8.296875 
L 56.78125 0 
L 9.8125 0 
z
" id="DejaVuSans-45"/>
     <path d="M 28.609375 0 
L 0.78125 72.90625 
L 11.078125 72.90625 
L 34.1875 11.53125 
L 57.328125 72.90625 
L 67.578125 72.90625 
L 39.796875 0 
z
" id="DejaVuSans-56"/>
     <path d="M 45.40625 46.390625 
L 45.40625 75.984375 
L 54.390625 75.984375 
L 54.390625 0 
L 45.40625 0 
L 45.40625 8.203125 
Q 42.578125 3.328125 38.25 0.953125 
Q 33.9375 -1.421875 27.875 -1.421875 
Q 17.96875 -1.421875 11.734375 6.484375 
Q 5.515625 14.40625 5.515625 27.296875 
Q 5.515625 40.1875 11.734375 48.09375 
Q 17.96875 56 27.875 56 
Q 33.9375 56 38.25 53.625 
Q 42.578125 51.265625 45.40625 46.390625 
z
M 14.796875 27.296875 
Q 14.796875 17.390625 18.875 11.75 
Q 22.953125 6.109375 30.078125 6.109375 
Q 37.203125 6.109375 41.296875 11.75 
Q 45.40625 17.390625 45.40625 27.296875 
Q 45.40625 37.203125 41.296875 42.84375 
Q 37.203125 48.484375 30.078125 48.484375 
Q 22.953125 48.484375 18.875 42.84375 
Q 14.796875 37.203125 14.796875 27.296875 
z
" id="DejaVuSans-64"/>
     <path d="M 64.40625 67.28125 
L 64.40625 56.890625 
Q 59.421875 61.53125 53.78125 63.8125 
Q 48.140625 66.109375 41.796875 66.109375 
Q 29.296875 66.109375 22.65625 58.46875 
Q 16.015625 50.828125 16.015625 36.375 
Q 16.015625 21.96875 22.65625 14.328125 
Q 29.296875 6.6875 41.796875 6.6875 
Q 48.140625 6.6875 53.78125 8.984375 
Q 59.421875 11.28125 64.40625 15.921875 
L 64.40625 5.609375 
Q 59.234375 2.09375 53.4375 0.328125 
Q 47.65625 -1.421875 41.21875 -1.421875 
Q 24.65625 -1.421875 15.125 8.703125 
Q 5.609375 18.84375 5.609375 36.375 
Q 5.609375 53.953125 15.125 64.078125 
Q 24.65625 74.21875 41.21875 74.21875 
Q 47.75 74.21875 53.53125 72.484375 
Q 59.328125 70.75 64.40625 67.28125 
z
" id="DejaVuSans-43"/>
     <path d="M 53.515625 70.515625 
L 53.515625 60.890625 
Q 47.90625 63.578125 42.921875 64.890625 
Q 37.9375 66.21875 33.296875 66.21875 
Q 25.25 66.21875 20.875 63.09375 
Q 16.5 59.96875 16.5 54.203125 
Q 16.5 49.359375 19.40625 46.890625 
Q 22.3125 44.4375 30.421875 42.921875 
L 36.375 41.703125 
Q 47.40625 39.59375 52.65625 34.296875 
Q 57.90625 29 57.90625 20.125 
Q 57.90625 9.515625 50.796875 4.046875 
Q 43.703125 -1.421875 29.984375 -1.421875 
Q 24.8125 -1.421875 18.96875 -0.25 
Q 13.140625 0.921875 6.890625 3.21875 
L 6.890625 13.375 
Q 12.890625 10.015625 18.65625 8.296875 
Q 24.421875 6.59375 29.984375 6.59375 
Q 38.421875 6.59375 43.015625 9.90625 
Q 47.609375 13.234375 47.609375 19.390625 
Q 47.609375 24.75 44.3125 27.78125 
Q 41.015625 30.8125 33.5 32.328125 
L 27.484375 33.5 
Q 16.453125 35.6875 11.515625 40.375 
Q 6.59375 45.0625 6.59375 53.421875 
Q 6.59375 63.09375 13.40625 68.65625 
Q 20.21875 74.21875 32.171875 74.21875 
Q 37.3125 74.21875 42.625 73.28125 
Q 47.953125 72.359375 53.515625 70.515625 
z
" id="DejaVuSans-53"/>
     <path d="M -0.296875 72.90625 
L 61.375 72.90625 
L 61.375 64.59375 
L 35.5 64.59375 
L 35.5 0 
L 25.59375 0 
L 25.59375 64.59375 
L -0.296875 64.59375 
z
" id="DejaVuSans-54"/>
    </defs>
    <g transform="translate(91.118437 35.472)scale(0.12 -0.12)">
     <use xlink:href="#DejaVuSans-4e"/>
     <use x="74.804688" xlink:href="#DejaVuSans-6f"/>
     <use x="135.986328" xlink:href="#DejaVuSans-6e"/>
     <use x="199.365234" xlink:href="#DejaVuSans-2d"/>
     <use x="235.449219" xlink:href="#DejaVuSans-45"/>
     <use x="298.632812" xlink:href="#DejaVuSans-56"/>
     <use x="367.041016" xlink:href="#DejaVuSans-20"/>
     <use x="398.828125" xlink:href="#DejaVuSans-61"/>
     <use x="460.107422" xlink:href="#DejaVuSans-6e"/>
     <use x="523.486328" xlink:href="#DejaVuSans-64"/>
     <use x="586.962891" xlink:href="#DejaVuSans-20"/>
     <use x="618.75" xlink:href="#DejaVuSans-45"/>
     <use x="681.933594" xlink:href="#DejaVuSans-56"/>
     <use x="750.341797" xlink:href="#DejaVuSans-20"/>
     <use x="782.128906" xlink:href="#DejaVuSans-43"/>
     <use x="851.953125" xlink:href="#DejaVuSans-65"/>
     <use x="913.476562" xlink:href="#DejaVuSans-72"/>
     <use x="954.589844" xlink:href="#DejaVuSans-74"/>
     <use x="993.798828" xlink:href="#DejaVuSans-69"/>
     <use x="1021.582031" xlink:href="#DejaVuSans-66"/>
     <use x="1056.787109" xlink:href="#DejaVuSans-69"/>
     <use x="1084.570312" xlink:href="#DejaVuSans-63"/>
     <use x="1139.550781" xlink:href="#DejaVuSans-61"/>
     <use x="1200.830078" xlink:href="#DejaVuSans-74"/>
     <use x="1240.039062" xlink:href="#DejaVuSans-65"/>
     <use x="1301.5625" xlink:href="#DejaVuSans-73"/>
     <use x="1353.662109" xlink:href="#DejaVuSans-20"/>
     <use x="1385.449219" xlink:href="#DejaVuSans-77"/>
     <use x="1467.236328" xlink:href="#DejaVuSans-69"/>
     <use x="1495.019531" xlink:href="#DejaVuSans-74"/>
     <use x="1534.228516" xlink:href="#DejaVuSans-68"/>
     <use x="1597.607422" xlink:href="#DejaVuSans-20"/>
     <use x="1629.394531" xlink:href="#DejaVuSans-6f"/>
     <use x="1690.576172" xlink:href="#DejaVuSans-72"/>
     <use x="1731.689453" xlink:href="#DejaVuSans-20"/>
     <use x="1763.476562" xlink:href="#DejaVuSans-77"/>
     <use x="1845.263672" xlink:href="#DejaVuSans-69"/>
     <use x="1873.046875" xlink:href="#DejaVuSans-74"/>
     <use x="1912.255859" xlink:href="#DejaVuSans-68"/>
     <use x="1975.634766" xlink:href="#DejaVuSans-6f"/>
     <use x="2036.816406" xlink:href="#DejaVuSans-75"/>
     <use x="2100.195312" xlink:href="#DejaVuSans-74"/>
     <use x="2139.404297" xlink:href="#DejaVuSans-20"/>
     <use x="2171.191406" xlink:href="#DejaVuSans-53"/>
     <use x="2234.667969" xlink:href="#DejaVuSans-43"/>
     <use x="2304.492188" xlink:href="#DejaVuSans-54"/>
     <use x="2365.326172" xlink:href="#DejaVuSans-73"/>
    </g>
   </g>
  </g>
 </g>
 <defs>
  <clipPath id="pb8123af759">
   <rect height="266.112" width="357.12" x="57.6" y="41.472"/>
  </clipPath>
 </defs>
</svg>
