<?xml version="1.0" encoding="utf-8" standalone="no"?>
<!DOCTYPE svg PUBLIC "-//W3C//DTD SVG 1.1//EN"
  "http://www.w3.org/Graphics/SVG/1.1/DTD/svg11.dtd">
<!-- Created with matplotlib (http://matplotlib.org/) -->
<svg height="345pt" version="1.1" viewBox="0 0 460 345" width="460pt" xmlns="http://www.w3.org/2000/svg" xmlns:xlink="http://www.w3.org/1999/xlink">
 <defs>
  <style type="text/css">
*{stroke-linecap:butt;stroke-linejoin:round;}
  </style>
 </defs>
 <g id="figure_1">
  <g id="patch_1">
   <path d="M 0 345.6 
L 460.8 345.6 
L 460.8 0 
L 0 0 
z
" style="fill:#ffffff;"/>
  </g>
  <g id="axes_1">
   <g id="patch_2">
    <path d="M 57.6 307.584 
L 414.72 307.584 
L 414.72 41.472 
L 57.6 41.472 
z
" style="fill:#ffffff;"/>
   </g>
   <g id="PolyCollection_1">
    <path clip-path="url(#p7068aab98e)" d="M 73.832727 170.717442 
L 73.832727 307.584 
L 77.112066 307.584 
L 80.391405 307.584 
L 83.670744 307.584 
L 86.950083 307.584 
L 90.229421 307.584 
L 93.50876 307.584 
L 96.788099 307.584 
L 100.067438 307.584 
L 103.346777 307.584 
L 106.626116 307.584 
L 109.905455 307.584 
L 113.184793 307.584 
L 116.464132 307.584 
L 119.743471 307.584 
L 123.02281 307.584 
L 126.302149 307.584 
L 129.581488 307.584 
L 132.860826 307.584 
L 136.140165 307.584 
L 139.419504 307.584 
L 142.698843 307.584 
L 145.978182 307.584 
L 149.257521 307.584 
L 152.53686 307.584 
L 155.816198 307.584 
L 159.095537 307.584 
L 162.374876 307.584 
L 165.654215 307.584 
L 168.933554 307.584 
L 172.212893 307.584 
L 175.492231 307.584 
L 178.77157 307.584 
L 182.050909 307.584 
L 185.330248 307.584 
L 188.609587 307.584 
L 191.888926 307.584 
L 195.168264 307.584 
L 198.447603 307.584 
L 201.726942 307.584 
L 205.006281 307.584 
L 208.28562 307.584 
L 211.564959 307.584 
L 214.844298 307.584 
L 218.123636 307.584 
L 221.402975 307.584 
L 224.682314 307.584 
L 227.961653 307.584 
L 231.240992 307.584 
L 234.520331 307.584 
L 237.799669 307.584 
L 241.079008 307.584 
L 244.358347 307.584 
L 247.637686 307.584 
L 250.917025 307.584 
L 254.196364 307.584 
L 257.475702 307.584 
L 260.755041 307.584 
L 264.03438 307.584 
L 267.313719 307.584 
L 270.593058 307.584 
L 273.872397 307.584 
L 277.151736 307.584 
L 280.431074 307.584 
L 283.710413 307.584 
L 286.989752 307.584 
L 290.269091 307.584 
L 293.54843 307.584 
L 296.827769 307.584 
L 300.107107 307.584 
L 303.386446 307.584 
L 306.665785 307.584 
L 309.945124 307.584 
L 313.224463 307.584 
L 316.503802 307.584 
L 319.78314 307.584 
L 323.062479 307.584 
L 326.341818 307.584 
L 329.621157 307.584 
L 332.900496 307.584 
L 336.179835 307.584 
L 339.459174 307.584 
L 342.738512 307.584 
L 346.017851 307.584 
L 349.29719 307.584 
L 352.576529 307.584 
L 355.855868 307.584 
L 359.135207 307.584 
L 362.414545 307.584 
L 365.693884 307.584 
L 368.973223 307.584 
L 372.252562 307.584 
L 375.531901 307.584 
L 378.81124 307.584 
L 382.090579 307.584 
L 385.369917 307.584 
L 388.649256 307.584 
L 391.928595 307.584 
L 395.207934 307.584 
L 398.487273 307.584 
L 398.487273 113.762564 
L 398.487273 113.762564 
L 395.207934 112.570115 
L 391.928595 110.784906 
L 388.649256 111.524563 
L 385.369917 112.597365 
L 382.090579 115.049058 
L 378.81124 112.406069 
L 375.531901 111.829071 
L 372.252562 112.234176 
L 368.973223 115.352509 
L 365.693884 113.376176 
L 362.414545 113.546334 
L 359.135207 112.786984 
L 355.855868 112.50004 
L 352.576529 114.319725 
L 349.29719 112.4934 
L 346.017851 111.86992 
L 342.738512 112.669075 
L 339.459174 111.750673 
L 336.179835 111.79023 
L 332.900496 113.776941 
L 329.621157 115.064167 
L 326.341818 113.210399 
L 323.062479 112.225543 
L 319.78314 112.943589 
L 316.503802 112.79478 
L 313.224463 113.524597 
L 309.945124 114.445873 
L 306.665785 112.896084 
L 303.386446 114.712213 
L 300.107107 107.852762 
L 296.827769 115.425614 
L 293.54843 113.027223 
L 290.269091 115.546879 
L 286.989752 113.93962 
L 283.710413 113.024949 
L 280.431074 115.541793 
L 277.151736 115.777725 
L 273.872397 114.925942 
L 270.593058 114.260735 
L 267.313719 115.865915 
L 264.03438 113.962373 
L 260.755041 114.405734 
L 257.475702 115.347745 
L 254.196364 114.483233 
L 250.917025 113.185079 
L 247.637686 113.190332 
L 244.358347 114.037875 
L 241.079008 113.138449 
L 237.799669 115.583422 
L 234.520331 116.121688 
L 231.240992 116.154088 
L 227.961653 114.859417 
L 224.682314 113.013248 
L 221.402975 115.430783 
L 218.123636 118.807547 
L 214.844298 116.481677 
L 211.564959 116.488662 
L 208.28562 116.578755 
L 205.006281 117.598822 
L 201.726942 116.81273 
L 198.447603 117.385268 
L 195.168264 115.127577 
L 191.888926 116.272067 
L 188.609587 115.657065 
L 185.330248 117.466105 
L 182.050909 115.034438 
L 178.77157 115.997941 
L 175.492231 120.181458 
L 172.212893 116.555674 
L 168.933554 120.671758 
L 165.654215 118.316556 
L 162.374876 122.218982 
L 159.095537 119.387883 
L 155.816198 120.073984 
L 152.53686 120.941546 
L 149.257521 120.525755 
L 145.978182 120.75903 
L 142.698843 123.279647 
L 139.419504 123.271067 
L 136.140165 123.118916 
L 132.860826 122.04881 
L 129.581488 124.214757 
L 126.302149 124.735543 
L 123.02281 126.87556 
L 119.743471 127.37053 
L 116.464132 126.544259 
L 113.184793 127.783646 
L 109.905455 125.344535 
L 106.626116 131.512866 
L 103.346777 131.106627 
L 100.067438 129.863551 
L 96.788099 132.445086 
L 93.50876 133.828279 
L 90.229421 138.273945 
L 86.950083 138.617432 
L 83.670744 142.471991 
L 80.391405 147.864499 
L 77.112066 155.869468 
L 73.832727 170.717442 
z
" style="fill:#fdae6b;"/>
   </g>
   <g id="PolyCollection_2">
    <path clip-path="url(#p7068aab98e)" d="M 73.832727 170.700215 
L 73.832727 170.717442 
L 77.112066 155.869468 
L 80.391405 147.864499 
L 83.670744 142.471991 
L 86.950083 138.617432 
L 90.229421 138.273945 
L 93.50876 133.828279 
L 96.788099 132.445086 
L 100.067438 129.863551 
L 103.346777 131.106627 
L 106.626116 131.512866 
L 109.905455 125.344535 
L 113.184793 127.783646 
L 116.464132 126.544259 
L 119.743471 127.37053 
L 123.02281 126.87556 
L 126.302149 124.735543 
L 129.581488 124.214757 
L 132.860826 122.04881 
L 136.140165 123.118916 
L 139.419504 123.271067 
L 142.698843 123.279647 
L 145.978182 120.75903 
L 149.257521 120.525755 
L 152.53686 120.941546 
L 155.816198 120.073984 
L 159.095537 119.387883 
L 162.374876 122.218982 
L 165.654215 118.316556 
L 168.933554 120.671758 
L 172.212893 116.555674 
L 175.492231 120.181458 
L 178.77157 115.997941 
L 182.050909 115.034438 
L 185.330248 117.466105 
L 188.609587 115.657065 
L 191.888926 116.272067 
L 195.168264 115.127577 
L 198.447603 117.385268 
L 201.726942 116.81273 
L 205.006281 117.598822 
L 208.28562 116.578755 
L 211.564959 116.488662 
L 214.844298 116.481677 
L 218.123636 118.807547 
L 221.402975 115.430783 
L 224.682314 113.013248 
L 227.961653 114.859417 
L 231.240992 116.154088 
L 234.520331 116.121688 
L 237.799669 115.583422 
L 241.079008 113.138449 
L 244.358347 114.037875 
L 247.637686 113.190332 
L 250.917025 113.185079 
L 254.196364 114.483233 
L 257.475702 115.347745 
L 260.755041 114.405734 
L 264.03438 113.962373 
L 267.313719 115.865915 
L 270.593058 114.260735 
L 273.872397 114.925942 
L 277.151736 115.777725 
L 280.431074 115.541793 
L 283.710413 113.024949 
L 286.989752 113.93962 
L 290.269091 115.546879 
L 293.54843 113.027223 
L 296.827769 115.425614 
L 300.107107 107.852762 
L 303.386446 114.712213 
L 306.665785 112.896084 
L 309.945124 114.445873 
L 313.224463 113.524597 
L 316.503802 112.79478 
L 319.78314 112.943589 
L 323.062479 112.225543 
L 326.341818 113.210399 
L 329.621157 115.064167 
L 332.900496 113.776941 
L 336.179835 111.79023 
L 339.459174 111.750673 
L 342.738512 112.669075 
L 346.017851 111.86992 
L 349.29719 112.4934 
L 352.576529 114.319725 
L 355.855868 112.50004 
L 359.135207 112.786984 
L 362.414545 113.546334 
L 365.693884 113.376176 
L 368.973223 115.352509 
L 372.252562 112.234176 
L 375.531901 111.829071 
L 378.81124 112.406069 
L 382.090579 115.049058 
L 385.369917 112.597365 
L 388.649256 111.524563 
L 391.928595 110.784906 
L 395.207934 112.570115 
L 398.487273 113.762564 
L 398.487273 113.762564 
L 398.487273 113.762564 
L 395.207934 112.532949 
L 391.928595 110.784906 
L 388.649256 111.487852 
L 385.369917 112.597365 
L 382.090579 115.049058 
L 378.81124 112.406069 
L 375.531901 111.792011 
L 372.252562 112.234176 
L 368.973223 115.352509 
L 365.693884 113.376176 
L 362.414545 113.546334 
L 359.135207 112.768449 
L 355.855868 112.50004 
L 352.576529 114.319725 
L 349.29719 112.4934 
L 346.017851 111.832484 
L 342.738512 112.669075 
L 339.459174 111.677266 
L 336.179835 111.79023 
L 332.900496 113.776941 
L 329.621157 115.007427 
L 326.341818 113.191589 
L 323.062479 112.225543 
L 319.78314 112.943589 
L 316.503802 112.79478 
L 313.224463 113.524597 
L 309.945124 114.445873 
L 306.665785 112.877597 
L 303.386446 114.712213 
L 300.107107 107.852762 
L 296.827769 115.425614 
L 293.54843 112.989682 
L 290.269091 115.546879 
L 286.989752 113.902248 
L 283.710413 113.024949 
L 280.431074 115.541793 
L 277.151736 115.777725 
L 273.872397 114.925942 
L 270.593058 114.222747 
L 267.313719 115.789502 
L 264.03438 113.962373 
L 260.755041 114.405734 
L 257.475702 115.347745 
L 254.196364 114.483233 
L 250.917025 113.185079 
L 247.637686 113.190332 
L 244.358347 114.037875 
L 241.079008 113.119406 
L 237.799669 115.583422 
L 234.520331 116.121688 
L 231.240992 116.154088 
L 227.961653 114.859417 
L 224.682314 112.975231 
L 221.402975 115.430783 
L 218.123636 118.769487 
L 214.844298 116.462479 
L 211.564959 116.488662 
L 208.28562 116.501651 
L 205.006281 117.560893 
L 201.726942 116.81273 
L 198.447603 117.347274 
L 195.168264 115.127577 
L 191.888926 116.272067 
L 188.609587 115.618487 
L 185.330248 117.466105 
L 182.050909 115.034438 
L 178.77157 115.997941 
L 175.492231 120.181458 
L 172.212893 116.555674 
L 168.933554 120.633068 
L 165.654215 118.316556 
L 162.374876 122.218982 
L 159.095537 119.349437 
L 155.816198 120.073984 
L 152.53686 120.941546 
L 149.257521 120.525755 
L 145.978182 120.719695 
L 142.698843 123.279647 
L 139.419504 123.271067 
L 136.140165 123.118916 
L 132.860826 122.009204 
L 129.581488 124.214757 
L 126.302149 124.735543 
L 123.02281 126.87556 
L 119.743471 127.37053 
L 116.464132 126.544259 
L 113.184793 127.783646 
L 109.905455 125.344535 
L 106.626116 131.512866 
L 103.346777 131.106627 
L 100.067438 129.863551 
L 96.788099 132.445086 
L 93.50876 133.828279 
L 90.229421 138.273945 
L 86.950083 138.617432 
L 83.670744 142.471991 
L 80.391405 147.864499 
L 77.112066 155.869468 
L 73.832727 170.700215 
z
" style="fill:#c6dbef;"/>
   </g>
   <g id="PolyCollection_3">
    <path clip-path="url(#p7068aab98e)" d="M 73.832727 134.196724 
L 73.832727 170.700215 
L 77.112066 155.869468 
L 80.391405 147.864499 
L 83.670744 142.471991 
L 86.950083 138.617432 
L 90.229421 138.273945 
L 93.50876 133.828279 
L 96.788099 132.445086 
L 100.067438 129.863551 
L 103.346777 131.106627 
L 106.626116 131.512866 
L 109.905455 125.344535 
L 113.184793 127.783646 
L 116.464132 126.544259 
L 119.743471 127.37053 
L 123.02281 126.87556 
L 126.302149 124.735543 
L 129.581488 124.214757 
L 132.860826 122.009204 
L 136.140165 123.118916 
L 139.419504 123.271067 
L 142.698843 123.279647 
L 145.978182 120.719695 
L 149.257521 120.525755 
L 152.53686 120.941546 
L 155.816198 120.073984 
L 159.095537 119.349437 
L 162.374876 122.218982 
L 165.654215 118.316556 
L 168.933554 120.633068 
L 172.212893 116.555674 
L 175.492231 120.181458 
L 178.77157 115.997941 
L 182.050909 115.034438 
L 185.330248 117.466105 
L 188.609587 115.618487 
L 191.888926 116.272067 
L 195.168264 115.127577 
L 198.447603 117.347274 
L 201.726942 116.81273 
L 205.006281 117.560893 
L 208.28562 116.501651 
L 211.564959 116.488662 
L 214.844298 116.462479 
L 218.123636 118.769487 
L 221.402975 115.430783 
L 224.682314 112.975231 
L 227.961653 114.859417 
L 231.240992 116.154088 
L 234.520331 116.121688 
L 237.799669 115.583422 
L 241.079008 113.119406 
L 244.358347 114.037875 
L 247.637686 113.190332 
L 250.917025 113.185079 
L 254.196364 114.483233 
L 257.475702 115.347745 
L 260.755041 114.405734 
L 264.03438 113.962373 
L 267.313719 115.789502 
L 270.593058 114.222747 
L 273.872397 114.925942 
L 277.151736 115.777725 
L 280.431074 115.541793 
L 283.710413 113.024949 
L 286.989752 113.902248 
L 290.269091 115.546879 
L 293.54843 112.989682 
L 296.827769 115.425614 
L 300.107107 107.852762 
L 303.386446 114.712213 
L 306.665785 112.877597 
L 309.945124 114.445873 
L 313.224463 113.524597 
L 316.503802 112.79478 
L 319.78314 112.943589 
L 323.062479 112.225543 
L 326.341818 113.191589 
L 329.621157 115.007427 
L 332.900496 113.776941 
L 336.179835 111.79023 
L 339.459174 111.677266 
L 342.738512 112.669075 
L 346.017851 111.832484 
L 349.29719 112.4934 
L 352.576529 114.319725 
L 355.855868 112.50004 
L 359.135207 112.768449 
L 362.414545 113.546334 
L 365.693884 113.376176 
L 368.973223 115.352509 
L 372.252562 112.234176 
L 375.531901 111.792011 
L 378.81124 112.406069 
L 382.090579 115.049058 
L 385.369917 112.597365 
L 388.649256 111.487852 
L 391.928595 110.784906 
L 395.207934 112.532949 
L 398.487273 113.762564 
L 398.487273 92.028392 
L 398.487273 92.028392 
L 395.207934 91.42224 
L 391.928595 89.832002 
L 388.649256 89.662679 
L 385.369917 91.895903 
L 382.090579 93.366857 
L 378.81124 91.848409 
L 375.531901 91.353002 
L 372.252562 91.267606 
L 368.973223 93.913418 
L 365.693884 91.634133 
L 362.414545 92.507229 
L 359.135207 91.21289 
L 355.855868 91.600872 
L 352.576529 91.864688 
L 349.29719 89.980787 
L 346.017851 90.92462 
L 342.738512 90.818215 
L 339.459174 91.086413 
L 336.179835 91.314688 
L 332.900496 93.806581 
L 329.621157 94.63766 
L 326.341818 92.34905 
L 323.062479 91.926637 
L 319.78314 91.061163 
L 316.503802 92.555741 
L 313.224463 91.661399 
L 309.945124 93.95459 
L 306.665785 92.042607 
L 303.386446 92.957787 
L 300.107107 89.234231 
L 296.827769 94.215661 
L 293.54843 92.86765 
L 290.269091 95.219617 
L 286.989752 93.048526 
L 283.710413 92.269979 
L 280.431074 95.11978 
L 277.151736 93.810395 
L 273.872397 93.849851 
L 270.593058 93.765962 
L 267.313719 94.795264 
L 264.03438 93.852005 
L 260.755041 94.075121 
L 257.475702 94.858614 
L 254.196364 94.998094 
L 250.917025 93.650265 
L 247.637686 93.091906 
L 244.358347 95.103806 
L 241.079008 93.257815 
L 237.799669 95.434037 
L 234.520331 95.372552 
L 231.240992 95.395019 
L 227.961653 94.372268 
L 224.682314 92.522111 
L 221.402975 95.148688 
L 218.123636 96.580642 
L 214.844298 96.495992 
L 211.564959 95.604451 
L 208.28562 96.801645 
L 205.006281 96.794895 
L 201.726942 95.736236 
L 198.447603 95.785592 
L 195.168264 95.090116 
L 191.888926 96.348572 
L 188.609587 96.194323 
L 185.330248 96.756632 
L 182.050909 95.869111 
L 178.77157 94.702074 
L 175.492231 98.546813 
L 172.212893 96.818649 
L 168.933554 100.340071 
L 165.654215 97.306186 
L 162.374876 101.254849 
L 159.095537 97.050408 
L 155.816198 98.486115 
L 152.53686 100.948244 
L 149.257521 100.593795 
L 145.978182 100.501138 
L 142.698843 102.452892 
L 139.419504 102.573758 
L 136.140165 103.247757 
L 132.860826 102.225913 
L 129.581488 102.077975 
L 126.302149 103.367187 
L 123.02281 105.547521 
L 119.743471 106.443023 
L 116.464132 103.71394 
L 113.184793 106.968592 
L 109.905455 104.429871 
L 106.626116 108.54619 
L 103.346777 107.991709 
L 100.067438 107.873438 
L 96.788099 109.264359 
L 93.50876 110.008208 
L 90.229421 114.314608 
L 86.950083 114.558169 
L 83.670744 117.469817 
L 80.391405 121.80974 
L 77.112066 126.867453 
L 73.832727 134.196724 
z
" style="fill:#9ecae1;"/>
   </g>
   <g id="PolyCollection_4">
    <path clip-path="url(#p7068aab98e)" d="M 73.832727 73.35183 
L 73.832727 134.196724 
L 77.112066 126.867453 
L 80.391405 121.80974 
L 83.670744 117.469817 
L 86.950083 114.558169 
L 90.229421 114.314608 
L 93.50876 110.008208 
L 96.788099 109.264359 
L 100.067438 107.873438 
L 103.346777 107.991709 
L 106.626116 108.54619 
L 109.905455 104.429871 
L 113.184793 106.968592 
L 116.464132 103.71394 
L 119.743471 106.443023 
L 123.02281 105.547521 
L 126.302149 103.367187 
L 129.581488 102.077975 
L 132.860826 102.225913 
L 136.140165 103.247757 
L 139.419504 102.573758 
L 142.698843 102.452892 
L 145.978182 100.501138 
L 149.257521 100.593795 
L 152.53686 100.948244 
L 155.816198 98.486115 
L 159.095537 97.050408 
L 162.374876 101.254849 
L 165.654215 97.306186 
L 168.933554 100.340071 
L 172.212893 96.818649 
L 175.492231 98.546813 
L 178.77157 94.702074 
L 182.050909 95.869111 
L 185.330248 96.756632 
L 188.609587 96.194323 
L 191.888926 96.348572 
L 195.168264 95.090116 
L 198.447603 95.785592 
L 201.726942 95.736236 
L 205.006281 96.794895 
L 208.28562 96.801645 
L 211.564959 95.604451 
L 214.844298 96.495992 
L 218.123636 96.580642 
L 221.402975 95.148688 
L 224.682314 92.522111 
L 227.961653 94.372268 
L 231.240992 95.395019 
L 234.520331 95.372552 
L 237.799669 95.434037 
L 241.079008 93.257815 
L 244.358347 95.103806 
L 247.637686 93.091906 
L 250.917025 93.650265 
L 254.196364 94.998094 
L 257.475702 94.858614 
L 260.755041 94.075121 
L 264.03438 93.852005 
L 267.313719 94.795264 
L 270.593058 93.765962 
L 273.872397 93.849851 
L 277.151736 93.810395 
L 280.431074 95.11978 
L 283.710413 92.269979 
L 286.989752 93.048526 
L 290.269091 95.219617 
L 293.54843 92.86765 
L 296.827769 94.215661 
L 300.107107 89.234231 
L 303.386446 92.957787 
L 306.665785 92.042607 
L 309.945124 93.95459 
L 313.224463 91.661399 
L 316.503802 92.555741 
L 319.78314 91.061163 
L 323.062479 91.926637 
L 326.341818 92.34905 
L 329.621157 94.63766 
L 332.900496 93.806581 
L 336.179835 91.314688 
L 339.459174 91.086413 
L 342.738512 90.818215 
L 346.017851 90.92462 
L 349.29719 89.980787 
L 352.576529 91.864688 
L 355.855868 91.600872 
L 359.135207 91.21289 
L 362.414545 92.507229 
L 365.693884 91.634133 
L 368.973223 93.913418 
L 372.252562 91.267606 
L 375.531901 91.353002 
L 378.81124 91.848409 
L 382.090579 93.366857 
L 385.369917 91.895903 
L 388.649256 89.662679 
L 391.928595 89.832002 
L 395.207934 91.42224 
L 398.487273 92.028392 
L 398.487273 74.844107 
L 398.487273 74.844107 
L 395.207934 74.529957 
L 391.928595 73.882776 
L 388.649256 72.867025 
L 385.369917 74.085604 
L 382.090579 74.77676 
L 378.81124 74.259164 
L 375.531901 73.378534 
L 372.252562 73.926974 
L 368.973223 74.71112 
L 365.693884 73.745346 
L 362.414545 75.369787 
L 359.135207 73.734908 
L 355.855868 74.197428 
L 352.576529 74.089356 
L 349.29719 72.202746 
L 346.017851 73.666742 
L 342.738512 72.565437 
L 339.459174 72.771198 
L 336.179835 73.333824 
L 332.900496 74.077275 
L 329.621157 74.835296 
L 326.341818 74.572697 
L 323.062479 73.979884 
L 319.78314 72.68747 
L 316.503802 73.276073 
L 313.224463 73.504784 
L 309.945124 73.902798 
L 306.665785 72.298357 
L 303.386446 73.95306 
L 300.107107 71.432636 
L 296.827769 74.33133 
L 293.54843 73.121029 
L 290.269091 75.141181 
L 286.989752 72.755387 
L 283.710413 73.094191 
L 280.431074 73.869594 
L 277.151736 72.032766 
L 273.872397 74.015743 
L 270.593058 73.49912 
L 267.313719 72.788565 
L 264.03438 72.488301 
L 260.755041 72.939521 
L 257.475702 73.84219 
L 254.196364 72.50646 
L 250.917025 71.685465 
L 247.637686 72.397829 
L 244.358347 72.079518 
L 241.079008 71.929931 
L 237.799669 72.577733 
L 234.520331 72.388597 
L 231.240992 73.338507 
L 227.961653 72.163509 
L 224.682314 70.966501 
L 221.402975 72.357666 
L 218.123636 72.964556 
L 214.844298 73.073766 
L 211.564959 72.429714 
L 208.28562 73.323556 
L 205.006281 72.065341 
L 201.726942 72.378067 
L 198.447603 72.305205 
L 195.168264 72.013156 
L 191.888926 73.352491 
L 188.609587 71.677828 
L 185.330248 72.541895 
L 182.050909 71.821869 
L 178.77157 71.698701 
L 175.492231 72.808035 
L 172.212893 71.371914 
L 168.933554 73.759919 
L 165.654215 71.536562 
L 162.374876 72.964959 
L 159.095537 71.022058 
L 155.816198 71.955969 
L 152.53686 73.122316 
L 149.257521 71.674052 
L 145.978182 72.572782 
L 142.698843 71.470942 
L 139.419504 71.984497 
L 136.140165 72.555476 
L 132.860826 70.501356 
L 129.581488 71.69074 
L 126.302149 71.304913 
L 123.02281 71.029516 
L 119.743471 72.406211 
L 116.464132 71.227646 
L 113.184793 71.476762 
L 109.905455 71.037372 
L 106.626116 72.997242 
L 103.346777 70.92744 
L 100.067438 70.972764 
L 96.788099 71.269913 
L 93.50876 70.037258 
L 90.229421 71.685657 
L 86.950083 70.380554 
L 83.670744 71.059533 
L 80.391405 71.347804 
L 77.112066 71.427453 
L 73.832727 73.35183 
z
" style="fill:#6baed6;"/>
   </g>
   <g id="PolyCollection_5">
    <path clip-path="url(#p7068aab98e)" d="M 73.832727 57.330949 
L 73.832727 73.35183 
L 77.112066 71.427453 
L 80.391405 71.347804 
L 83.670744 71.059533 
L 86.950083 70.380554 
L 90.229421 71.685657 
L 93.50876 70.037258 
L 96.788099 71.269913 
L 100.067438 70.972764 
L 103.346777 70.92744 
L 106.626116 72.997242 
L 109.905455 71.037372 
L 113.184793 71.476762 
L 116.464132 71.227646 
L 119.743471 72.406211 
L 123.02281 71.029516 
L 126.302149 71.304913 
L 129.581488 71.69074 
L 132.860826 70.501356 
L 136.140165 72.555476 
L 139.419504 71.984497 
L 142.698843 71.470942 
L 145.978182 72.572782 
L 149.257521 71.674052 
L 152.53686 73.122316 
L 155.816198 71.955969 
L 159.095537 71.022058 
L 162.374876 72.964959 
L 165.654215 71.536562 
L 168.933554 73.759919 
L 172.212893 71.371914 
L 175.492231 72.808035 
L 178.77157 71.698701 
L 182.050909 71.821869 
L 185.330248 72.541895 
L 188.609587 71.677828 
L 191.888926 73.352491 
L 195.168264 72.013156 
L 198.447603 72.305205 
L 201.726942 72.378067 
L 205.006281 72.065341 
L 208.28562 73.323556 
L 211.564959 72.429714 
L 214.844298 73.073766 
L 218.123636 72.964556 
L 221.402975 72.357666 
L 224.682314 70.966501 
L 227.961653 72.163509 
L 231.240992 73.338507 
L 234.520331 72.388597 
L 237.799669 72.577733 
L 241.079008 71.929931 
L 244.358347 72.079518 
L 247.637686 72.397829 
L 250.917025 71.685465 
L 254.196364 72.50646 
L 257.475702 73.84219 
L 260.755041 72.939521 
L 264.03438 72.488301 
L 267.313719 72.788565 
L 270.593058 73.49912 
L 273.872397 74.015743 
L 277.151736 72.032766 
L 280.431074 73.869594 
L 283.710413 73.094191 
L 286.989752 72.755387 
L 290.269091 75.141181 
L 293.54843 73.121029 
L 296.827769 74.33133 
L 300.107107 71.432636 
L 303.386446 73.95306 
L 306.665785 72.298357 
L 309.945124 73.902798 
L 313.224463 73.504784 
L 316.503802 73.276073 
L 319.78314 72.68747 
L 323.062479 73.979884 
L 326.341818 74.572697 
L 329.621157 74.835296 
L 332.900496 74.077275 
L 336.179835 73.333824 
L 339.459174 72.771198 
L 342.738512 72.565437 
L 346.017851 73.666742 
L 349.29719 72.202746 
L 352.576529 74.089356 
L 355.855868 74.197428 
L 359.135207 73.734908 
L 362.414545 75.369787 
L 365.693884 73.745346 
L 368.973223 74.71112 
L 372.252562 73.926974 
L 375.531901 73.378534 
L 378.81124 74.259164 
L 382.090579 74.77676 
L 385.369917 74.085604 
L 388.649256 72.867025 
L 391.928595 73.882776 
L 395.207934 74.529957 
L 398.487273 74.844107 
L 398.487273 61.570469 
L 398.487273 61.570469 
L 395.207934 61.242847 
L 391.928595 61.336788 
L 388.649256 60.550211 
L 385.369917 61.724034 
L 382.090579 61.096547 
L 378.81124 61.27926 
L 375.531901 61.389378 
L 372.252562 61.846772 
L 368.973223 61.252452 
L 365.693884 61.031462 
L 362.414545 61.536622 
L 359.135207 61.298296 
L 355.855868 61.285802 
L 352.576529 61.088079 
L 349.29719 60.656377 
L 346.017851 61.53756 
L 342.738512 61.002846 
L 339.459174 60.732339 
L 336.179835 61.455323 
L 332.900496 61.54249 
L 329.621157 60.782615 
L 326.341818 61.856492 
L 323.062479 61.033775 
L 319.78314 60.237124 
L 316.503802 60.914946 
L 313.224463 62.046361 
L 309.945124 61.670289 
L 306.665785 60.485084 
L 303.386446 60.821842 
L 300.107107 60.090531 
L 296.827769 61.548546 
L 293.54843 60.713693 
L 290.269091 62.144749 
L 286.989752 60.459912 
L 283.710413 60.573529 
L 280.431074 61.409343 
L 277.151736 60.954251 
L 273.872397 60.918458 
L 270.593058 61.171865 
L 267.313719 60.791857 
L 264.03438 60.771496 
L 260.755041 60.845988 
L 257.475702 61.582609 
L 254.196364 60.613675 
L 250.917025 60.332872 
L 247.637686 60.619306 
L 244.358347 60.308134 
L 241.079008 60.428108 
L 237.799669 60.549103 
L 234.520331 60.655799 
L 231.240992 60.402249 
L 227.961653 60.571341 
L 224.682314 59.580424 
L 221.402975 61.421805 
L 218.123636 61.432446 
L 214.844298 61.439447 
L 211.564959 60.49588 
L 208.28562 60.986957 
L 205.006281 60.534997 
L 201.726942 61.414423 
L 198.447603 60.603006 
L 195.168264 60.358517 
L 191.888926 61.352015 
L 188.609587 60.355103 
L 185.330248 60.320842 
L 182.050909 60.112903 
L 178.77157 60.244978 
L 175.492231 60.847418 
L 172.212893 60.96009 
L 168.933554 61.030851 
L 165.654215 59.715811 
L 162.374876 60.748871 
L 159.095537 59.661087 
L 155.816198 61.26088 
L 152.53686 61.229749 
L 149.257521 60.574914 
L 145.978182 60.811403 
L 142.698843 59.785775 
L 139.419504 59.352337 
L 136.140165 60.352521 
L 132.860826 59.550245 
L 129.581488 59.741139 
L 126.302149 59.364346 
L 123.02281 58.822408 
L 119.743471 60.066879 
L 116.464132 59.968859 
L 113.184793 59.082165 
L 109.905455 58.638386 
L 106.626116 59.62858 
L 103.346777 58.847383 
L 100.067438 59.483326 
L 96.788099 59.473804 
L 93.50876 58.246125 
L 90.229421 58.305768 
L 86.950083 58.104616 
L 83.670744 58.070123 
L 80.391405 58.895162 
L 77.112066 58.683281 
L 73.832727 57.330949 
z
" style="fill:#3182bd;"/>
   </g>
   <g id="PolyCollection_6">
    <path clip-path="url(#p7068aab98e)" d="M 73.832727 54.144 
L 73.832727 57.330949 
L 77.112066 58.683281 
L 80.391405 58.895162 
L 83.670744 58.070123 
L 86.950083 58.104616 
L 90.229421 58.305768 
L 93.50876 58.246125 
L 96.788099 59.473804 
L 100.067438 59.483326 
L 103.346777 58.847383 
L 106.626116 59.62858 
L 109.905455 58.638386 
L 113.184793 59.082165 
L 116.464132 59.968859 
L 119.743471 60.066879 
L 123.02281 58.822408 
L 126.302149 59.364346 
L 129.581488 59.741139 
L 132.860826 59.550245 
L 136.140165 60.352521 
L 139.419504 59.352337 
L 142.698843 59.785775 
L 145.978182 60.811403 
L 149.257521 60.574914 
L 152.53686 61.229749 
L 155.816198 61.26088 
L 159.095537 59.661087 
L 162.374876 60.748871 
L 165.654215 59.715811 
L 168.933554 61.030851 
L 172.212893 60.96009 
L 175.492231 60.847418 
L 178.77157 60.244978 
L 182.050909 60.112903 
L 185.330248 60.320842 
L 188.609587 60.355103 
L 191.888926 61.352015 
L 195.168264 60.358517 
L 198.447603 60.603006 
L 201.726942 61.414423 
L 205.006281 60.534997 
L 208.28562 60.986957 
L 211.564959 60.49588 
L 214.844298 61.439447 
L 218.123636 61.432446 
L 221.402975 61.421805 
L 224.682314 59.580424 
L 227.961653 60.571341 
L 231.240992 60.402249 
L 234.520331 60.655799 
L 237.799669 60.549103 
L 241.079008 60.428108 
L 244.358347 60.308134 
L 247.637686 60.619306 
L 250.917025 60.332872 
L 254.196364 60.613675 
L 257.475702 61.582609 
L 260.755041 60.845988 
L 264.03438 60.771496 
L 267.313719 60.791857 
L 270.593058 61.171865 
L 273.872397 60.918458 
L 277.151736 60.954251 
L 280.431074 61.409343 
L 283.710413 60.573529 
L 286.989752 60.459912 
L 290.269091 62.144749 
L 293.54843 60.713693 
L 296.827769 61.548546 
L 300.107107 60.090531 
L 303.386446 60.821842 
L 306.665785 60.485084 
L 309.945124 61.670289 
L 313.224463 62.046361 
L 316.503802 60.914946 
L 319.78314 60.237124 
L 323.062479 61.033775 
L 326.341818 61.856492 
L 329.621157 60.782615 
L 332.900496 61.54249 
L 336.179835 61.455323 
L 339.459174 60.732339 
L 342.738512 61.002846 
L 346.017851 61.53756 
L 349.29719 60.656377 
L 352.576529 61.088079 
L 355.855868 61.285802 
L 359.135207 61.298296 
L 362.414545 61.536622 
L 365.693884 61.031462 
L 368.973223 61.252452 
L 372.252562 61.846772 
L 375.531901 61.389378 
L 378.81124 61.27926 
L 382.090579 61.096547 
L 385.369917 61.724034 
L 388.649256 60.550211 
L 391.928595 61.336788 
L 395.207934 61.242847 
L 398.487273 61.570469 
L 398.487273 54.144 
L 398.487273 54.144 
L 395.207934 54.144 
L 391.928595 54.144 
L 388.649256 54.144 
L 385.369917 54.144 
L 382.090579 54.144 
L 378.81124 54.144 
L 375.531901 54.144 
L 372.252562 54.144 
L 368.973223 54.144 
L 365.693884 54.144 
L 362.414545 54.144 
L 359.135207 54.144 
L 355.855868 54.144 
L 352.576529 54.144 
L 349.29719 54.144 
L 346.017851 54.144 
L 342.738512 54.144 
L 339.459174 54.144 
L 336.179835 54.144 
L 332.900496 54.144 
L 329.621157 54.144 
L 326.341818 54.144 
L 323.062479 54.144 
L 319.78314 54.144 
L 316.503802 54.144 
L 313.224463 54.144 
L 309.945124 54.144 
L 306.665785 54.144 
L 303.386446 54.144 
L 300.107107 54.144 
L 296.827769 54.144 
L 293.54843 54.144 
L 290.269091 54.144 
L 286.989752 54.144 
L 283.710413 54.144 
L 280.431074 54.144 
L 277.151736 54.144 
L 273.872397 54.144 
L 270.593058 54.144 
L 267.313719 54.144 
L 264.03438 54.144 
L 260.755041 54.144 
L 257.475702 54.144 
L 254.196364 54.144 
L 250.917025 54.144 
L 247.637686 54.144 
L 244.358347 54.144 
L 241.079008 54.144 
L 237.799669 54.144 
L 234.520331 54.144 
L 231.240992 54.144 
L 227.961653 54.144 
L 224.682314 54.144 
L 221.402975 54.144 
L 218.123636 54.144 
L 214.844298 54.144 
L 211.564959 54.144 
L 208.28562 54.144 
L 205.006281 54.144 
L 201.726942 54.144 
L 198.447603 54.144 
L 195.168264 54.144 
L 191.888926 54.144 
L 188.609587 54.144 
L 185.330248 54.144 
L 182.050909 54.144 
L 178.77157 54.144 
L 175.492231 54.144 
L 172.212893 54.144 
L 168.933554 54.144 
L 165.654215 54.144 
L 162.374876 54.144 
L 159.095537 54.144 
L 155.816198 54.144 
L 152.53686 54.144 
L 149.257521 54.144 
L 145.978182 54.144 
L 142.698843 54.144 
L 139.419504 54.144 
L 136.140165 54.144 
L 132.860826 54.144 
L 129.581488 54.144 
L 126.302149 54.144 
L 123.02281 54.144 
L 119.743471 54.144 
L 116.464132 54.144 
L 113.184793 54.144 
L 109.905455 54.144 
L 106.626116 54.144 
L 103.346777 54.144 
L 100.067438 54.144 
L 96.788099 54.144 
L 93.50876 54.144 
L 90.229421 54.144 
L 86.950083 54.144 
L 83.670744 54.144 
L 80.391405 54.144 
L 77.112066 54.144 
L 73.832727 54.144 
z
" style="fill:#0e5a90;"/>
   </g>
   <g id="matplotlib.axis_1">
    <g id="xtick_1">
     <g id="line2d_1">
      <defs>
       <path d="M 0 0 
L 0 3.5 
" id="mb63d4b8b9c" style="stroke:#000000;stroke-width:0.8;"/>
      </defs>
      <g>
       <use style="stroke:#000000;stroke-width:0.8;" x="70.553388" xlink:href="#mb63d4b8b9c" y="307.584"/>
      </g>
     </g>
     <g id="text_1">
      <!-- 0 -->
      <defs>
       <path d="M 31.78125 66.40625 
Q 24.171875 66.40625 20.328125 58.90625 
Q 16.5 51.421875 16.5 36.375 
Q 16.5 21.390625 20.328125 13.890625 
Q 24.171875 6.390625 31.78125 6.390625 
Q 39.453125 6.390625 43.28125 13.890625 
Q 47.125 21.390625 47.125 36.375 
Q 47.125 51.421875 43.28125 58.90625 
Q 39.453125 66.40625 31.78125 66.40625 
z
M 31.78125 74.21875 
Q 44.046875 74.21875 50.515625 64.515625 
Q 56.984375 54.828125 56.984375 36.375 
Q 56.984375 17.96875 50.515625 8.265625 
Q 44.046875 -1.421875 31.78125 -1.421875 
Q 19.53125 -1.421875 13.0625 8.265625 
Q 6.59375 17.96875 6.59375 36.375 
Q 6.59375 54.828125 13.0625 64.515625 
Q 19.53125 74.21875 31.78125 74.21875 
z
" id="DejaVuSans-30"/>
      </defs>
      <g transform="translate(67.372138 322.182437)scale(0.1 -0.1)">
       <use xlink:href="#DejaVuSans-30"/>
      </g>
     </g>
    </g>
    <g id="xtick_2">
     <g id="line2d_2">
      <g>
       <use style="stroke:#000000;stroke-width:0.8;" x="136.140165" xlink:href="#mb63d4b8b9c" y="307.584"/>
      </g>
     </g>
     <g id="text_2">
      <!-- 200000 -->
      <defs>
       <path d="M 19.1875 8.296875 
L 53.609375 8.296875 
L 53.609375 0 
L 7.328125 0 
L 7.328125 8.296875 
Q 12.9375 14.109375 22.625 23.890625 
Q 32.328125 33.6875 34.8125 36.53125 
Q 39.546875 41.84375 41.421875 45.53125 
Q 43.3125 49.21875 43.3125 52.78125 
Q 43.3125 58.59375 39.234375 62.25 
Q 35.15625 65.921875 28.609375 65.921875 
Q 23.96875 65.921875 18.8125 64.3125 
Q 13.671875 62.703125 7.8125 59.421875 
L 7.8125 69.390625 
Q 13.765625 71.78125 18.9375 73 
Q 24.125 74.21875 28.421875 74.21875 
Q 39.75 74.21875 46.484375 68.546875 
Q 53.21875 62.890625 53.21875 53.421875 
Q 53.21875 48.921875 51.53125 44.890625 
Q 49.859375 40.875 45.40625 35.40625 
Q 44.1875 33.984375 37.640625 27.21875 
Q 31.109375 20.453125 19.1875 8.296875 
z
" id="DejaVuSans-32"/>
      </defs>
      <g transform="translate(117.052665 322.182437)scale(0.1 -0.1)">
       <use xlink:href="#DejaVuSans-32"/>
       <use x="63.623047" xlink:href="#DejaVuSans-30"/>
       <use x="127.246094" xlink:href="#DejaVuSans-30"/>
       <use x="190.869141" xlink:href="#DejaVuSans-30"/>
       <use x="254.492188" xlink:href="#DejaVuSans-30"/>
       <use x="318.115234" xlink:href="#DejaVuSans-30"/>
      </g>
     </g>
    </g>
    <g id="xtick_3">
     <g id="line2d_3">
      <g>
       <use style="stroke:#000000;stroke-width:0.8;" x="201.726942" xlink:href="#mb63d4b8b9c" y="307.584"/>
      </g>
     </g>
     <g id="text_3">
      <!-- 400000 -->
      <defs>
       <path d="M 37.796875 64.3125 
L 12.890625 25.390625 
L 37.796875 25.390625 
z
M 35.203125 72.90625 
L 47.609375 72.90625 
L 47.609375 25.390625 
L 58.015625 25.390625 
L 58.015625 17.1875 
L 47.609375 17.1875 
L 47.609375 0 
L 37.796875 0 
L 37.796875 17.1875 
L 4.890625 17.1875 
L 4.890625 26.703125 
z
" id="DejaVuSans-34"/>
      </defs>
      <g transform="translate(182.639442 322.182437)scale(0.1 -0.1)">
       <use xlink:href="#DejaVuSans-34"/>
       <use x="63.623047" xlink:href="#DejaVuSans-30"/>
       <use x="127.246094" xlink:href="#DejaVuSans-30"/>
       <use x="190.869141" xlink:href="#DejaVuSans-30"/>
       <use x="254.492188" xlink:href="#DejaVuSans-30"/>
       <use x="318.115234" xlink:href="#DejaVuSans-30"/>
      </g>
     </g>
    </g>
    <g id="xtick_4">
     <g id="line2d_4">
      <g>
       <use style="stroke:#000000;stroke-width:0.8;" x="267.313719" xlink:href="#mb63d4b8b9c" y="307.584"/>
      </g>
     </g>
     <g id="text_4">
      <!-- 600000 -->
      <defs>
       <path d="M 33.015625 40.375 
Q 26.375 40.375 22.484375 35.828125 
Q 18.609375 31.296875 18.609375 23.390625 
Q 18.609375 15.53125 22.484375 10.953125 
Q 26.375 6.390625 33.015625 6.390625 
Q 39.65625 6.390625 43.53125 10.953125 
Q 47.40625 15.53125 47.40625 23.390625 
Q 47.40625 31.296875 43.53125 35.828125 
Q 39.65625 40.375 33.015625 40.375 
z
M 52.59375 71.296875 
L 52.59375 62.3125 
Q 48.875 64.0625 45.09375 64.984375 
Q 41.3125 65.921875 37.59375 65.921875 
Q 27.828125 65.921875 22.671875 59.328125 
Q 17.53125 52.734375 16.796875 39.40625 
Q 19.671875 43.65625 24.015625 45.921875 
Q 28.375 48.1875 33.59375 48.1875 
Q 44.578125 48.1875 50.953125 41.515625 
Q 57.328125 34.859375 57.328125 23.390625 
Q 57.328125 12.15625 50.6875 5.359375 
Q 44.046875 -1.421875 33.015625 -1.421875 
Q 20.359375 -1.421875 13.671875 8.265625 
Q 6.984375 17.96875 6.984375 36.375 
Q 6.984375 53.65625 15.1875 63.9375 
Q 23.390625 74.21875 37.203125 74.21875 
Q 40.921875 74.21875 44.703125 73.484375 
Q 48.484375 72.75 52.59375 71.296875 
z
" id="DejaVuSans-36"/>
      </defs>
      <g transform="translate(248.226219 322.182437)scale(0.1 -0.1)">
       <use xlink:href="#DejaVuSans-36"/>
       <use x="63.623047" xlink:href="#DejaVuSans-30"/>
       <use x="127.246094" xlink:href="#DejaVuSans-30"/>
       <use x="190.869141" xlink:href="#DejaVuSans-30"/>
       <use x="254.492188" xlink:href="#DejaVuSans-30"/>
       <use x="318.115234" xlink:href="#DejaVuSans-30"/>
      </g>
     </g>
    </g>
    <g id="xtick_5">
     <g id="line2d_5">
      <g>
       <use style="stroke:#000000;stroke-width:0.8;" x="332.900496" xlink:href="#mb63d4b8b9c" y="307.584"/>
      </g>
     </g>
     <g id="text_5">
      <!-- 800000 -->
      <defs>
       <path d="M 31.78125 34.625 
Q 24.75 34.625 20.71875 30.859375 
Q 16.703125 27.09375 16.703125 20.515625 
Q 16.703125 13.921875 20.71875 10.15625 
Q 24.75 6.390625 31.78125 6.390625 
Q 38.8125 6.390625 42.859375 10.171875 
Q 46.921875 13.96875 46.921875 20.515625 
Q 46.921875 27.09375 42.890625 30.859375 
Q 38.875 34.625 31.78125 34.625 
z
M 21.921875 38.8125 
Q 15.578125 40.375 12.03125 44.71875 
Q 8.5 49.078125 8.5 55.328125 
Q 8.5 64.0625 14.71875 69.140625 
Q 20.953125 74.21875 31.78125 74.21875 
Q 42.671875 74.21875 48.875 69.140625 
Q 55.078125 64.0625 55.078125 55.328125 
Q 55.078125 49.078125 51.53125 44.71875 
Q 48 40.375 41.703125 38.8125 
Q 48.828125 37.15625 52.796875 32.3125 
Q 56.78125 27.484375 56.78125 20.515625 
Q 56.78125 9.90625 50.3125 4.234375 
Q 43.84375 -1.421875 31.78125 -1.421875 
Q 19.734375 -1.421875 13.25 4.234375 
Q 6.78125 9.90625 6.78125 20.515625 
Q 6.78125 27.484375 10.78125 32.3125 
Q 14.796875 37.15625 21.921875 38.8125 
z
M 18.3125 54.390625 
Q 18.3125 48.734375 21.84375 45.5625 
Q 25.390625 42.390625 31.78125 42.390625 
Q 38.140625 42.390625 41.71875 45.5625 
Q 45.3125 48.734375 45.3125 54.390625 
Q 45.3125 60.0625 41.71875 63.234375 
Q 38.140625 66.40625 31.78125 66.40625 
Q 25.390625 66.40625 21.84375 63.234375 
Q 18.3125 60.0625 18.3125 54.390625 
z
" id="DejaVuSans-38"/>
      </defs>
      <g transform="translate(313.812996 322.182437)scale(0.1 -0.1)">
       <use xlink:href="#DejaVuSans-38"/>
       <use x="63.623047" xlink:href="#DejaVuSans-30"/>
       <use x="127.246094" xlink:href="#DejaVuSans-30"/>
       <use x="190.869141" xlink:href="#DejaVuSans-30"/>
       <use x="254.492188" xlink:href="#DejaVuSans-30"/>
       <use x="318.115234" xlink:href="#DejaVuSans-30"/>
      </g>
     </g>
    </g>
    <g id="xtick_6">
     <g id="line2d_6">
      <g>
       <use style="stroke:#000000;stroke-width:0.8;" x="398.487273" xlink:href="#mb63d4b8b9c" y="307.584"/>
      </g>
     </g>
     <g id="text_6">
      <!-- 1000000 -->
      <defs>
       <path d="M 12.40625 8.296875 
L 28.515625 8.296875 
L 28.515625 63.921875 
L 10.984375 60.40625 
L 10.984375 69.390625 
L 28.421875 72.90625 
L 38.28125 72.90625 
L 38.28125 8.296875 
L 54.390625 8.296875 
L 54.390625 0 
L 12.40625 0 
z
" id="DejaVuSans-31"/>
      </defs>
      <g transform="translate(376.218523 322.182437)scale(0.1 -0.1)">
       <use xlink:href="#DejaVuSans-31"/>
       <use x="63.623047" xlink:href="#DejaVuSans-30"/>
       <use x="127.246094" xlink:href="#DejaVuSans-30"/>
       <use x="190.869141" xlink:href="#DejaVuSans-30"/>
       <use x="254.492188" xlink:href="#DejaVuSans-30"/>
       <use x="318.115234" xlink:href="#DejaVuSans-30"/>
       <use x="381.738281" xlink:href="#DejaVuSans-30"/>
      </g>
     </g>
    </g>
    <g id="text_7">
     <!-- alexa rank -->
     <defs>
      <path d="M 34.28125 27.484375 
Q 23.390625 27.484375 19.1875 25 
Q 14.984375 22.515625 14.984375 16.5 
Q 14.984375 11.71875 18.140625 8.90625 
Q 21.296875 6.109375 26.703125 6.109375 
Q 34.1875 6.109375 38.703125 11.40625 
Q 43.21875 16.703125 43.21875 25.484375 
L 43.21875 27.484375 
z
M 52.203125 31.203125 
L 52.203125 0 
L 43.21875 0 
L 43.21875 8.296875 
Q 40.140625 3.328125 35.546875 0.953125 
Q 30.953125 -1.421875 24.3125 -1.421875 
Q 15.921875 -1.421875 10.953125 3.296875 
Q 6 8.015625 6 15.921875 
Q 6 25.140625 12.171875 29.828125 
Q 18.359375 34.515625 30.609375 34.515625 
L 43.21875 34.515625 
L 43.21875 35.40625 
Q 43.21875 41.609375 39.140625 45 
Q 35.0625 48.390625 27.6875 48.390625 
Q 23 48.390625 18.546875 47.265625 
Q 14.109375 46.140625 10.015625 43.890625 
L 10.015625 52.203125 
Q 14.9375 54.109375 19.578125 55.046875 
Q 24.21875 56 28.609375 56 
Q 40.484375 56 46.34375 49.84375 
Q 52.203125 43.703125 52.203125 31.203125 
z
" id="DejaVuSans-61"/>
      <path d="M 9.421875 75.984375 
L 18.40625 75.984375 
L 18.40625 0 
L 9.421875 0 
z
" id="DejaVuSans-6c"/>
      <path d="M 56.203125 29.59375 
L 56.203125 25.203125 
L 14.890625 25.203125 
Q 15.484375 15.921875 20.484375 11.0625 
Q 25.484375 6.203125 34.421875 6.203125 
Q 39.59375 6.203125 44.453125 7.46875 
Q 49.3125 8.734375 54.109375 11.28125 
L 54.109375 2.78125 
Q 49.265625 0.734375 44.1875 -0.34375 
Q 39.109375 -1.421875 33.890625 -1.421875 
Q 20.796875 -1.421875 13.15625 6.1875 
Q 5.515625 13.8125 5.515625 26.8125 
Q 5.515625 40.234375 12.765625 48.109375 
Q 20.015625 56 32.328125 56 
Q 43.359375 56 49.78125 48.890625 
Q 56.203125 41.796875 56.203125 29.59375 
z
M 47.21875 32.234375 
Q 47.125 39.59375 43.09375 43.984375 
Q 39.0625 48.390625 32.421875 48.390625 
Q 24.90625 48.390625 20.390625 44.140625 
Q 15.875 39.890625 15.1875 32.171875 
z
" id="DejaVuSans-65"/>
      <path d="M 54.890625 54.6875 
L 35.109375 28.078125 
L 55.90625 0 
L 45.3125 0 
L 29.390625 21.484375 
L 13.484375 0 
L 2.875 0 
L 24.125 28.609375 
L 4.6875 54.6875 
L 15.28125 54.6875 
L 29.78125 35.203125 
L 44.28125 54.6875 
z
" id="DejaVuSans-78"/>
      <path id="DejaVuSans-20"/>
      <path d="M 41.109375 46.296875 
Q 39.59375 47.171875 37.8125 47.578125 
Q 36.03125 48 33.890625 48 
Q 26.265625 48 22.1875 43.046875 
Q 18.109375 38.09375 18.109375 28.8125 
L 18.109375 0 
L 9.078125 0 
L 9.078125 54.6875 
L 18.109375 54.6875 
L 18.109375 46.1875 
Q 20.953125 51.171875 25.484375 53.578125 
Q 30.03125 56 36.53125 56 
Q 37.453125 56 38.578125 55.875 
Q 39.703125 55.765625 41.0625 55.515625 
z
" id="DejaVuSans-72"/>
      <path d="M 54.890625 33.015625 
L 54.890625 0 
L 45.90625 0 
L 45.90625 32.71875 
Q 45.90625 40.484375 42.875 44.328125 
Q 39.84375 48.1875 33.796875 48.1875 
Q 26.515625 48.1875 22.3125 43.546875 
Q 18.109375 38.921875 18.109375 30.90625 
L 18.109375 0 
L 9.078125 0 
L 9.078125 54.6875 
L 18.109375 54.6875 
L 18.109375 46.1875 
Q 21.34375 51.125 25.703125 53.5625 
Q 30.078125 56 35.796875 56 
Q 45.21875 56 50.046875 50.171875 
Q 54.890625 44.34375 54.890625 33.015625 
z
" id="DejaVuSans-6e"/>
      <path d="M 9.078125 75.984375 
L 18.109375 75.984375 
L 18.109375 31.109375 
L 44.921875 54.6875 
L 56.390625 54.6875 
L 27.390625 29.109375 
L 57.625 0 
L 45.90625 0 
L 18.109375 26.703125 
L 18.109375 0 
L 9.078125 0 
z
" id="DejaVuSans-6b"/>
     </defs>
     <g transform="translate(209.835 335.860562)scale(0.1 -0.1)">
      <use xlink:href="#DejaVuSans-61"/>
      <use x="61.279297" xlink:href="#DejaVuSans-6c"/>
      <use x="89.0625" xlink:href="#DejaVuSans-65"/>
      <use x="150.570312" xlink:href="#DejaVuSans-78"/>
      <use x="209.75" xlink:href="#DejaVuSans-61"/>
      <use x="271.029297" xlink:href="#DejaVuSans-20"/>
      <use x="302.816406" xlink:href="#DejaVuSans-72"/>
      <use x="343.929688" xlink:href="#DejaVuSans-61"/>
      <use x="405.208984" xlink:href="#DejaVuSans-6e"/>
      <use x="468.587891" xlink:href="#DejaVuSans-6b"/>
     </g>
    </g>
   </g>
   <g id="matplotlib.axis_2">
    <g id="ytick_1">
     <g id="line2d_7">
      <defs>
       <path d="M 0 0 
L -3.5 0 
" id="mf974c55559" style="stroke:#000000;stroke-width:0.8;"/>
      </defs>
      <g>
       <use style="stroke:#000000;stroke-width:0.8;" x="57.6" xlink:href="#mf974c55559" y="307.584"/>
      </g>
     </g>
     <g id="text_8">
      <!-- 0.0 -->
      <defs>
       <path d="M 10.6875 12.40625 
L 21 12.40625 
L 21 0 
L 10.6875 0 
z
" id="DejaVuSans-2e"/>
      </defs>
      <g transform="translate(34.696875 311.383219)scale(0.1 -0.1)">
       <use xlink:href="#DejaVuSans-30"/>
       <use x="63.623047" xlink:href="#DejaVuSans-2e"/>
       <use x="95.410156" xlink:href="#DejaVuSans-30"/>
      </g>
     </g>
    </g>
    <g id="ytick_2">
     <g id="line2d_8">
      <g>
       <use style="stroke:#000000;stroke-width:0.8;" x="57.6" xlink:href="#mf974c55559" y="256.896"/>
      </g>
     </g>
     <g id="text_9">
      <!-- 0.2 -->
      <g transform="translate(34.696875 260.695219)scale(0.1 -0.1)">
       <use xlink:href="#DejaVuSans-30"/>
       <use x="63.623047" xlink:href="#DejaVuSans-2e"/>
       <use x="95.410156" xlink:href="#DejaVuSans-32"/>
      </g>
     </g>
    </g>
    <g id="ytick_3">
     <g id="line2d_9">
      <g>
       <use style="stroke:#000000;stroke-width:0.8;" x="57.6" xlink:href="#mf974c55559" y="206.208"/>
      </g>
     </g>
     <g id="text_10">
      <!-- 0.4 -->
      <g transform="translate(34.696875 210.007219)scale(0.1 -0.1)">
       <use xlink:href="#DejaVuSans-30"/>
       <use x="63.623047" xlink:href="#DejaVuSans-2e"/>
       <use x="95.410156" xlink:href="#DejaVuSans-34"/>
      </g>
     </g>
    </g>
    <g id="ytick_4">
     <g id="line2d_10">
      <g>
       <use style="stroke:#000000;stroke-width:0.8;" x="57.6" xlink:href="#mf974c55559" y="155.52"/>
      </g>
     </g>
     <g id="text_11">
      <!-- 0.6 -->
      <g transform="translate(34.696875 159.319219)scale(0.1 -0.1)">
       <use xlink:href="#DejaVuSans-30"/>
       <use x="63.623047" xlink:href="#DejaVuSans-2e"/>
       <use x="95.410156" xlink:href="#DejaVuSans-36"/>
      </g>
     </g>
    </g>
    <g id="ytick_5">
     <g id="line2d_11">
      <g>
       <use style="stroke:#000000;stroke-width:0.8;" x="57.6" xlink:href="#mf974c55559" y="104.832"/>
      </g>
     </g>
     <g id="text_12">
      <!-- 0.8 -->
      <g transform="translate(34.696875 108.631219)scale(0.1 -0.1)">
       <use xlink:href="#DejaVuSans-30"/>
       <use x="63.623047" xlink:href="#DejaVuSans-2e"/>
       <use x="95.410156" xlink:href="#DejaVuSans-38"/>
      </g>
     </g>
    </g>
    <g id="ytick_6">
     <g id="line2d_12">
      <g>
       <use style="stroke:#000000;stroke-width:0.8;" x="57.6" xlink:href="#mf974c55559" y="54.144"/>
      </g>
     </g>
     <g id="text_13">
      <!-- 1.0 -->
      <g transform="translate(34.696875 57.943219)scale(0.1 -0.1)">
       <use xlink:href="#DejaVuSans-31"/>
       <use x="63.623047" xlink:href="#DejaVuSans-2e"/>
       <use x="95.410156" xlink:href="#DejaVuSans-30"/>
      </g>
     </g>
    </g>
    <g id="text_14">
     <!-- proportion -->
     <defs>
      <path d="M 18.109375 8.203125 
L 18.109375 -20.796875 
L 9.078125 -20.796875 
L 9.078125 54.6875 
L 18.109375 54.6875 
L 18.109375 46.390625 
Q 20.953125 51.265625 25.265625 53.625 
Q 29.59375 56 35.59375 56 
Q 45.5625 56 51.78125 48.09375 
Q 58.015625 40.1875 58.015625 27.296875 
Q 58.015625 14.40625 51.78125 6.484375 
Q 45.5625 -1.421875 35.59375 -1.421875 
Q 29.59375 -1.421875 25.265625 0.953125 
Q 20.953125 3.328125 18.109375 8.203125 
z
M 48.6875 27.296875 
Q 48.6875 37.203125 44.609375 42.84375 
Q 40.53125 48.484375 33.40625 48.484375 
Q 26.265625 48.484375 22.1875 42.84375 
Q 18.109375 37.203125 18.109375 27.296875 
Q 18.109375 17.390625 22.1875 11.75 
Q 26.265625 6.109375 33.40625 6.109375 
Q 40.53125 6.109375 44.609375 11.75 
Q 48.6875 17.390625 48.6875 27.296875 
z
" id="DejaVuSans-70"/>
      <path d="M 30.609375 48.390625 
Q 23.390625 48.390625 19.1875 42.75 
Q 14.984375 37.109375 14.984375 27.296875 
Q 14.984375 17.484375 19.15625 11.84375 
Q 23.34375 6.203125 30.609375 6.203125 
Q 37.796875 6.203125 41.984375 11.859375 
Q 46.1875 17.53125 46.1875 27.296875 
Q 46.1875 37.015625 41.984375 42.703125 
Q 37.796875 48.390625 30.609375 48.390625 
z
M 30.609375 56 
Q 42.328125 56 49.015625 48.375 
Q 55.71875 40.765625 55.71875 27.296875 
Q 55.71875 13.875 49.015625 6.21875 
Q 42.328125 -1.421875 30.609375 -1.421875 
Q 18.84375 -1.421875 12.171875 6.21875 
Q 5.515625 13.875 5.515625 27.296875 
Q 5.515625 40.765625 12.171875 48.375 
Q 18.84375 56 30.609375 56 
z
" id="DejaVuSans-6f"/>
      <path d="M 18.3125 70.21875 
L 18.3125 54.6875 
L 36.8125 54.6875 
L 36.8125 47.703125 
L 18.3125 47.703125 
L 18.3125 18.015625 
Q 18.3125 11.328125 20.140625 9.421875 
Q 21.96875 7.515625 27.59375 7.515625 
L 36.8125 7.515625 
L 36.8125 0 
L 27.59375 0 
Q 17.1875 0 13.234375 3.875 
Q 9.28125 7.765625 9.28125 18.015625 
L 9.28125 47.703125 
L 2.6875 47.703125 
L 2.6875 54.6875 
L 9.28125 54.6875 
L 9.28125 70.21875 
z
" id="DejaVuSans-74"/>
      <path d="M 9.421875 54.6875 
L 18.40625 54.6875 
L 18.40625 0 
L 9.421875 0 
z
M 9.421875 75.984375 
L 18.40625 75.984375 
L 18.40625 64.59375 
L 9.421875 64.59375 
z
" id="DejaVuSans-69"/>
     </defs>
     <g transform="translate(28.617187 200.681906)rotate(-90)scale(0.1 -0.1)">
      <use xlink:href="#DejaVuSans-70"/>
      <use x="63.476562" xlink:href="#DejaVuSans-72"/>
      <use x="104.558594" xlink:href="#DejaVuSans-6f"/>
      <use x="165.740234" xlink:href="#DejaVuSans-70"/>
      <use x="229.216797" xlink:href="#DejaVuSans-6f"/>
      <use x="290.398438" xlink:href="#DejaVuSans-72"/>
      <use x="331.511719" xlink:href="#DejaVuSans-74"/>
      <use x="370.720703" xlink:href="#DejaVuSans-69"/>
      <use x="398.503906" xlink:href="#DejaVuSans-6f"/>
      <use x="459.685547" xlink:href="#DejaVuSans-6e"/>
     </g>
    </g>
   </g>
   <g id="line2d_13">
    <path clip-path="url(#p7068aab98e)" d="M 57.6 118.914095 
L 414.72 118.914095 
" style="fill:none;stroke:#808080;stroke-dasharray:3.7,1.6;stroke-dashoffset:0;"/>
   </g>
   <g id="line2d_14">
    <path clip-path="url(#p7068aab98e)" d="M 57.6 118.904066 
L 414.72 118.904066 
" style="fill:none;stroke:#808080;stroke-dasharray:1,1.65;stroke-dashoffset:0;"/>
   </g>
   <g id="line2d_15">
    <path clip-path="url(#p7068aab98e)" d="M 57.6 97.623729 
L 414.72 97.623729 
" style="fill:none;stroke:#808080;stroke-dasharray:1,1.65;stroke-dashoffset:0;"/>
   </g>
   <g id="line2d_16">
    <path clip-path="url(#p7068aab98e)" d="M 57.6 72.703473 
L 414.72 72.703473 
" style="fill:none;stroke:#808080;stroke-dasharray:1,1.65;stroke-dashoffset:0;"/>
   </g>
   <g id="line2d_17">
    <path clip-path="url(#p7068aab98e)" d="M 57.6 60.520509 
L 414.72 60.520509 
" style="fill:none;stroke:#808080;stroke-dasharray:1,1.65;stroke-dashoffset:0;"/>
   </g>
   <g id="patch_3">
    <path d="M 57.6 307.584 
L 57.6 41.472 
" style="fill:none;stroke:#000000;stroke-linecap:square;stroke-linejoin:miter;stroke-width:0.8;"/>
   </g>
   <g id="patch_4">
    <path d="M 414.72 307.584 
L 414.72 41.472 
" style="fill:none;stroke:#000000;stroke-linecap:square;stroke-linejoin:miter;stroke-width:0.8;"/>
   </g>
   <g id="patch_5">
    <path d="M 57.6 307.584 
L 414.72 307.584 
" style="fill:none;stroke:#000000;stroke-linecap:square;stroke-linejoin:miter;stroke-width:0.8;"/>
   </g>
   <g id="patch_6">
    <path d="M 57.6 41.472 
L 414.72 41.472 
" style="fill:none;stroke:#000000;stroke-linecap:square;stroke-linejoin:miter;stroke-width:0.8;"/>
   </g>
   <g id="text_15">
    <!-- without sct -->
    <defs>
     <path d="M 4.203125 54.6875 
L 13.1875 54.6875 
L 24.421875 12.015625 
L 35.59375 54.6875 
L 46.1875 54.6875 
L 57.421875 12.015625 
L 68.609375 54.6875 
L 77.59375 54.6875 
L 63.28125 0 
L 52.6875 0 
L 40.921875 44.828125 
L 29.109375 0 
L 18.5 0 
z
" id="DejaVuSans-77"/>
     <path d="M 54.890625 33.015625 
L 54.890625 0 
L 45.90625 0 
L 45.90625 32.71875 
Q 45.90625 40.484375 42.875 44.328125 
Q 39.84375 48.1875 33.796875 48.1875 
Q 26.515625 48.1875 22.3125 43.546875 
Q 18.109375 38.921875 18.109375 30.90625 
L 18.109375 0 
L 9.078125 0 
L 9.078125 75.984375 
L 18.109375 75.984375 
L 18.109375 46.1875 
Q 21.34375 51.125 25.703125 53.5625 
Q 30.078125 56 35.796875 56 
Q 45.21875 56 50.046875 50.171875 
Q 54.890625 44.34375 54.890625 33.015625 
z
" id="DejaVuSans-68"/>
     <path d="M 8.5 21.578125 
L 8.5 54.6875 
L 17.484375 54.6875 
L 17.484375 21.921875 
Q 17.484375 14.15625 20.5 10.265625 
Q 23.53125 6.390625 29.59375 6.390625 
Q 36.859375 6.390625 41.078125 11.03125 
Q 45.3125 15.671875 45.3125 23.6875 
L 45.3125 54.6875 
L 54.296875 54.6875 
L 54.296875 0 
L 45.3125 0 
L 45.3125 8.40625 
Q 42.046875 3.421875 37.71875 1 
Q 33.40625 -1.421875 27.6875 -1.421875 
Q 18.265625 -1.421875 13.375 4.4375 
Q 8.5 10.296875 8.5 21.578125 
z
M 31.109375 56 
z
" id="DejaVuSans-75"/>
     <path d="M 44.28125 53.078125 
L 44.28125 44.578125 
Q 40.484375 46.53125 36.375 47.5 
Q 32.28125 48.484375 27.875 48.484375 
Q 21.1875 48.484375 17.84375 46.4375 
Q 14.5 44.390625 14.5 40.28125 
Q 14.5 37.15625 16.890625 35.375 
Q 19.28125 33.59375 26.515625 31.984375 
L 29.59375 31.296875 
Q 39.15625 29.25 43.1875 25.515625 
Q 47.21875 21.78125 47.21875 15.09375 
Q 47.21875 7.46875 41.1875 3.015625 
Q 35.15625 -1.421875 24.609375 -1.421875 
Q 20.21875 -1.421875 15.453125 -0.5625 
Q 10.6875 0.296875 5.421875 2 
L 5.421875 11.28125 
Q 10.40625 8.6875 15.234375 7.390625 
Q 20.0625 6.109375 24.8125 6.109375 
Q 31.15625 6.109375 34.5625 8.28125 
Q 37.984375 10.453125 37.984375 14.40625 
Q 37.984375 18.0625 35.515625 20.015625 
Q 33.0625 21.96875 24.703125 23.78125 
L 21.578125 24.515625 
Q 13.234375 26.265625 9.515625 29.90625 
Q 5.8125 33.546875 5.8125 39.890625 
Q 5.8125 47.609375 11.28125 51.796875 
Q 16.75 56 26.8125 56 
Q 31.78125 56 36.171875 55.265625 
Q 40.578125 54.546875 44.28125 53.078125 
z
" id="DejaVuSans-73"/>
     <path d="M 48.78125 52.59375 
L 48.78125 44.1875 
Q 44.96875 46.296875 41.140625 47.34375 
Q 37.3125 48.390625 33.40625 48.390625 
Q 24.65625 48.390625 19.8125 42.84375 
Q 14.984375 37.3125 14.984375 27.296875 
Q 14.984375 17.28125 19.8125 11.734375 
Q 24.65625 6.203125 33.40625 6.203125 
Q 37.3125 6.203125 41.140625 7.25 
Q 44.96875 8.296875 48.78125 10.40625 
L 48.78125 2.09375 
Q 45.015625 0.34375 40.984375 -0.53125 
Q 36.96875 -1.421875 32.421875 -1.421875 
Q 20.0625 -1.421875 12.78125 6.34375 
Q 5.515625 14.109375 5.515625 27.296875 
Q 5.515625 40.671875 12.859375 48.328125 
Q 20.21875 56 33.015625 56 
Q 37.15625 56 41.109375 55.140625 
Q 45.0625 54.296875 48.78125 52.59375 
z
" id="DejaVuSans-63"/>
    </defs>
    <g transform="translate(93.50876 218.88)scale(0.1 -0.1)">
     <use xlink:href="#DejaVuSans-77"/>
     <use x="81.787109" xlink:href="#DejaVuSans-69"/>
     <use x="109.570312" xlink:href="#DejaVuSans-74"/>
     <use x="148.779297" xlink:href="#DejaVuSans-68"/>
     <use x="212.158203" xlink:href="#DejaVuSans-6f"/>
     <use x="273.339844" xlink:href="#DejaVuSans-75"/>
     <use x="336.71875" xlink:href="#DejaVuSans-74"/>
     <use x="375.927734" xlink:href="#DejaVuSans-20"/>
     <use x="407.714844" xlink:href="#DejaVuSans-73"/>
     <use x="459.814453" xlink:href="#DejaVuSans-63"/>
     <use x="514.794922" xlink:href="#DejaVuSans-74"/>
    </g>
   </g>
   <g id="text_16">
    <!-- 2 scts -->
    <g transform="translate(93.50876 120.0384)scale(0.1 -0.1)">
     <use xlink:href="#DejaVuSans-32"/>
     <use x="63.623047" xlink:href="#DejaVuSans-20"/>
     <use x="95.410156" xlink:href="#DejaVuSans-73"/>
     <use x="147.509766" xlink:href="#DejaVuSans-63"/>
     <use x="202.490234" xlink:href="#DejaVuSans-74"/>
     <use x="241.699219" xlink:href="#DejaVuSans-73"/>
    </g>
   </g>
   <g id="text_17">
    <!-- 3 scts -->
    <defs>
     <path d="M 40.578125 39.3125 
Q 47.65625 37.796875 51.625 33 
Q 55.609375 28.21875 55.609375 21.1875 
Q 55.609375 10.40625 48.1875 4.484375 
Q 40.765625 -1.421875 27.09375 -1.421875 
Q 22.515625 -1.421875 17.65625 -0.515625 
Q 12.796875 0.390625 7.625 2.203125 
L 7.625 11.71875 
Q 11.71875 9.328125 16.59375 8.109375 
Q 21.484375 6.890625 26.8125 6.890625 
Q 36.078125 6.890625 40.9375 10.546875 
Q 45.796875 14.203125 45.796875 21.1875 
Q 45.796875 27.640625 41.28125 31.265625 
Q 36.765625 34.90625 28.71875 34.90625 
L 20.21875 34.90625 
L 20.21875 43.015625 
L 29.109375 43.015625 
Q 36.375 43.015625 40.234375 45.921875 
Q 44.09375 48.828125 44.09375 54.296875 
Q 44.09375 59.90625 40.109375 62.90625 
Q 36.140625 65.921875 28.71875 65.921875 
Q 24.65625 65.921875 20.015625 65.03125 
Q 15.375 64.15625 9.8125 62.3125 
L 9.8125 71.09375 
Q 15.4375 72.65625 20.34375 73.4375 
Q 25.25 74.21875 29.59375 74.21875 
Q 40.828125 74.21875 47.359375 69.109375 
Q 53.90625 64.015625 53.90625 55.328125 
Q 53.90625 49.265625 50.4375 45.09375 
Q 46.96875 40.921875 40.578125 39.3125 
z
" id="DejaVuSans-33"/>
    </defs>
    <g transform="translate(93.50876 92.16)scale(0.1 -0.1)">
     <use xlink:href="#DejaVuSans-33"/>
     <use x="63.623047" xlink:href="#DejaVuSans-20"/>
     <use x="95.410156" xlink:href="#DejaVuSans-73"/>
     <use x="147.509766" xlink:href="#DejaVuSans-63"/>
     <use x="202.490234" xlink:href="#DejaVuSans-74"/>
     <use x="241.699219" xlink:href="#DejaVuSans-73"/>
    </g>
   </g>
   <g id="text_18">
    <!-- 4 scts -->
    <g transform="translate(93.50876 66.816)scale(0.1 -0.1)">
     <use xlink:href="#DejaVuSans-34"/>
     <use x="63.623047" xlink:href="#DejaVuSans-20"/>
     <use x="95.410156" xlink:href="#DejaVuSans-73"/>
     <use x="147.509766" xlink:href="#DejaVuSans-63"/>
     <use x="202.490234" xlink:href="#DejaVuSans-74"/>
     <use x="241.699219" xlink:href="#DejaVuSans-73"/>
    </g>
   </g>
   <g id="text_19">
    <!-- 5 or more scts -->
    <defs>
     <path d="M 10.796875 72.90625 
L 49.515625 72.90625 
L 49.515625 64.59375 
L 19.828125 64.59375 
L 19.828125 46.734375 
Q 21.96875 47.46875 24.109375 47.828125 
Q 26.265625 48.1875 28.421875 48.1875 
Q 40.625 48.1875 47.75 41.5 
Q 54.890625 34.8125 54.890625 23.390625 
Q 54.890625 11.625 47.5625 5.09375 
Q 40.234375 -1.421875 26.90625 -1.421875 
Q 22.3125 -1.421875 17.546875 -0.640625 
Q 12.796875 0.140625 7.71875 1.703125 
L 7.71875 11.625 
Q 12.109375 9.234375 16.796875 8.0625 
Q 21.484375 6.890625 26.703125 6.890625 
Q 35.15625 6.890625 40.078125 11.328125 
Q 45.015625 15.765625 45.015625 23.390625 
Q 45.015625 31 40.078125 35.4375 
Q 35.15625 39.890625 26.703125 39.890625 
Q 22.75 39.890625 18.8125 39.015625 
Q 14.890625 38.140625 10.796875 36.28125 
z
" id="DejaVuSans-35"/>
     <path d="M 52 44.1875 
Q 55.375 50.25 60.0625 53.125 
Q 64.75 56 71.09375 56 
Q 79.640625 56 84.28125 50.015625 
Q 88.921875 44.046875 88.921875 33.015625 
L 88.921875 0 
L 79.890625 0 
L 79.890625 32.71875 
Q 79.890625 40.578125 77.09375 44.375 
Q 74.3125 48.1875 68.609375 48.1875 
Q 61.625 48.1875 57.5625 43.546875 
Q 53.515625 38.921875 53.515625 30.90625 
L 53.515625 0 
L 44.484375 0 
L 44.484375 32.71875 
Q 44.484375 40.625 41.703125 44.40625 
Q 38.921875 48.1875 33.109375 48.1875 
Q 26.21875 48.1875 22.15625 43.53125 
Q 18.109375 38.875 18.109375 30.90625 
L 18.109375 0 
L 9.078125 0 
L 9.078125 54.6875 
L 18.109375 54.6875 
L 18.109375 46.1875 
Q 21.1875 51.21875 25.484375 53.609375 
Q 29.78125 56 35.6875 56 
Q 41.65625 56 45.828125 52.96875 
Q 50 49.953125 52 44.1875 
z
" id="DejaVuSans-6d"/>
    </defs>
    <g transform="translate(93.50876 56.6784)scale(0.1 -0.1)">
     <use xlink:href="#DejaVuSans-35"/>
     <use x="63.623047" xlink:href="#DejaVuSans-20"/>
     <use x="95.410156" xlink:href="#DejaVuSans-6f"/>
     <use x="156.591797" xlink:href="#DejaVuSans-72"/>
     <use x="197.705078" xlink:href="#DejaVuSans-20"/>
     <use x="229.492188" xlink:href="#DejaVuSans-6d"/>
     <use x="326.904297" xlink:href="#DejaVuSans-6f"/>
     <use x="388.085938" xlink:href="#DejaVuSans-72"/>
     <use x="429.167969" xlink:href="#DejaVuSans-65"/>
     <use x="490.691406" xlink:href="#DejaVuSans-20"/>
     <use x="522.478516" xlink:href="#DejaVuSans-73"/>
     <use x="574.578125" xlink:href="#DejaVuSans-63"/>
     <use x="629.558594" xlink:href="#DejaVuSans-74"/>
     <use x="668.767578" xlink:href="#DejaVuSans-73"/>
    </g>
   </g>
   <g id="text_20">
    <!-- 0.74 -->
    <defs>
     <path d="M 8.203125 72.90625 
L 55.078125 72.90625 
L 55.078125 68.703125 
L 28.609375 0 
L 18.3125 0 
L 43.21875 64.59375 
L 8.203125 64.59375 
z
" id="DejaVuSans-37"/>
    </defs>
    <g style="fill:#808080;" transform="translate(48.287763 116.834407)scale(0.1 -0.1)">
     <use xlink:href="#DejaVuSans-30"/>
     <use x="63.623047" xlink:href="#DejaVuSans-2e"/>
     <use x="95.410156" xlink:href="#DejaVuSans-37"/>
     <use x="159.033203" xlink:href="#DejaVuSans-34"/>
    </g>
   </g>
   <g id="text_21">
    <!-- 0.74 -->
    <g style="fill:#808080;" transform="translate(48.287763 116.824378)scale(0.1 -0.1)">
     <use xlink:href="#DejaVuSans-30"/>
     <use x="63.623047" xlink:href="#DejaVuSans-2e"/>
     <use x="95.410156" xlink:href="#DejaVuSans-37"/>
     <use x="159.033203" xlink:href="#DejaVuSans-34"/>
    </g>
   </g>
   <g id="text_22">
    <!-- 0.83 -->
    <g style="fill:#808080;" transform="translate(48.287763 95.544041)scale(0.1 -0.1)">
     <use xlink:href="#DejaVuSans-30"/>
     <use x="63.623047" xlink:href="#DejaVuSans-2e"/>
     <use x="95.410156" xlink:href="#DejaVuSans-38"/>
     <use x="159.033203" xlink:href="#DejaVuSans-33"/>
    </g>
   </g>
   <g id="text_23">
    <!-- 0.93 -->
    <defs>
     <path d="M 10.984375 1.515625 
L 10.984375 10.5 
Q 14.703125 8.734375 18.5 7.8125 
Q 22.3125 6.890625 25.984375 6.890625 
Q 35.75 6.890625 40.890625 13.453125 
Q 46.046875 20.015625 46.78125 33.40625 
Q 43.953125 29.203125 39.59375 26.953125 
Q 35.25 24.703125 29.984375 24.703125 
Q 19.046875 24.703125 12.671875 31.3125 
Q 6.296875 37.9375 6.296875 49.421875 
Q 6.296875 60.640625 12.9375 67.421875 
Q 19.578125 74.21875 30.609375 74.21875 
Q 43.265625 74.21875 49.921875 64.515625 
Q 56.59375 54.828125 56.59375 36.375 
Q 56.59375 19.140625 48.40625 8.859375 
Q 40.234375 -1.421875 26.421875 -1.421875 
Q 22.703125 -1.421875 18.890625 -0.6875 
Q 15.09375 0.046875 10.984375 1.515625 
z
M 30.609375 32.421875 
Q 37.25 32.421875 41.125 36.953125 
Q 45.015625 41.5 45.015625 49.421875 
Q 45.015625 57.28125 41.125 61.84375 
Q 37.25 66.40625 30.609375 66.40625 
Q 23.96875 66.40625 20.09375 61.84375 
Q 16.21875 57.28125 16.21875 49.421875 
Q 16.21875 41.5 20.09375 36.953125 
Q 23.96875 32.421875 30.609375 32.421875 
z
" id="DejaVuSans-39"/>
    </defs>
    <g style="fill:#808080;" transform="translate(48.287763 70.623786)scale(0.1 -0.1)">
     <use xlink:href="#DejaVuSans-30"/>
     <use x="63.623047" xlink:href="#DejaVuSans-2e"/>
     <use x="95.410156" xlink:href="#DejaVuSans-39"/>
     <use x="159.033203" xlink:href="#DejaVuSans-33"/>
    </g>
   </g>
   <g id="text_24">
    <!-- 0.97 -->
    <g style="fill:#808080;" transform="translate(48.287763 58.440821)scale(0.1 -0.1)">
     <use xlink:href="#DejaVuSans-30"/>
     <use x="63.623047" xlink:href="#DejaVuSans-2e"/>
     <use x="95.410156" xlink:href="#DejaVuSans-39"/>
     <use x="159.033203" xlink:href="#DejaVuSans-37"/>
    </g>
   </g>
   <g id="text_25">
    <!-- Certificates with or without SCTs -->
    <defs>
     <path d="M 64.40625 67.28125 
L 64.40625 56.890625 
Q 59.421875 61.53125 53.78125 63.8125 
Q 48.140625 66.109375 41.796875 66.109375 
Q 29.296875 66.109375 22.65625 58.46875 
Q 16.015625 50.828125 16.015625 36.375 
Q 16.015625 21.96875 22.65625 14.328125 
Q 29.296875 6.6875 41.796875 6.6875 
Q 48.140625 6.6875 53.78125 8.984375 
Q 59.421875 11.28125 64.40625 15.921875 
L 64.40625 5.609375 
Q 59.234375 2.09375 53.4375 0.328125 
Q 47.65625 -1.421875 41.21875 -1.421875 
Q 24.65625 -1.421875 15.125 8.703125 
Q 5.609375 18.84375 5.609375 36.375 
Q 5.609375 53.953125 15.125 64.078125 
Q 24.65625 74.21875 41.21875 74.21875 
Q 47.75 74.21875 53.53125 72.484375 
Q 59.328125 70.75 64.40625 67.28125 
z
" id="DejaVuSans-43"/>
     <path d="M 37.109375 75.984375 
L 37.109375 68.5 
L 28.515625 68.5 
Q 23.6875 68.5 21.796875 66.546875 
Q 19.921875 64.59375 19.921875 59.515625 
L 19.921875 54.6875 
L 34.71875 54.6875 
L 34.71875 47.703125 
L 19.921875 47.703125 
L 19.921875 0 
L 10.890625 0 
L 10.890625 47.703125 
L 2.296875 47.703125 
L 2.296875 54.6875 
L 10.890625 54.6875 
L 10.890625 58.5 
Q 10.890625 67.625 15.140625 71.796875 
Q 19.390625 75.984375 28.609375 75.984375 
z
" id="DejaVuSans-66"/>
     <path d="M 53.515625 70.515625 
L 53.515625 60.890625 
Q 47.90625 63.578125 42.921875 64.890625 
Q 37.9375 66.21875 33.296875 66.21875 
Q 25.25 66.21875 20.875 63.09375 
Q 16.5 59.96875 16.5 54.203125 
Q 16.5 49.359375 19.40625 46.890625 
Q 22.3125 44.4375 30.421875 42.921875 
L 36.375 41.703125 
Q 47.40625 39.59375 52.65625 34.296875 
Q 57.90625 29 57.90625 20.125 
Q 57.90625 9.515625 50.796875 4.046875 
Q 43.703125 -1.421875 29.984375 -1.421875 
Q 24.8125 -1.421875 18.96875 -0.25 
Q 13.140625 0.921875 6.890625 3.21875 
L 6.890625 13.375 
Q 12.890625 10.015625 18.65625 8.296875 
Q 24.421875 6.59375 29.984375 6.59375 
Q 38.421875 6.59375 43.015625 9.90625 
Q 47.609375 13.234375 47.609375 19.390625 
Q 47.609375 24.75 44.3125 27.78125 
Q 41.015625 30.8125 33.5 32.328125 
L 27.484375 33.5 
Q 16.453125 35.6875 11.515625 40.375 
Q 6.59375 45.0625 6.59375 53.421875 
Q 6.59375 63.09375 13.40625 68.65625 
Q 20.21875 74.21875 32.171875 74.21875 
Q 37.3125 74.21875 42.625 73.28125 
Q 47.953125 72.359375 53.515625 70.515625 
z
" id="DejaVuSans-53"/>
     <path d="M -0.296875 72.90625 
L 61.375 72.90625 
L 61.375 64.59375 
L 35.5 64.59375 
L 35.5 0 
L 25.59375 0 
L 25.59375 64.59375 
L -0.296875 64.59375 
z
" id="DejaVuSans-54"/>
    </defs>
    <g transform="translate(138.045937 35.472)scale(0.12 -0.12)">
     <use xlink:href="#DejaVuSans-43"/>
     <use x="69.824219" xlink:href="#DejaVuSans-65"/>
     <use x="131.347656" xlink:href="#DejaVuSans-72"/>
     <use x="172.460938" xlink:href="#DejaVuSans-74"/>
     <use x="211.669922" xlink:href="#DejaVuSans-69"/>
     <use x="239.453125" xlink:href="#DejaVuSans-66"/>
     <use x="274.658203" xlink:href="#DejaVuSans-69"/>
     <use x="302.441406" xlink:href="#DejaVuSans-63"/>
     <use x="357.421875" xlink:href="#DejaVuSans-61"/>
     <use x="418.701172" xlink:href="#DejaVuSans-74"/>
     <use x="457.910156" xlink:href="#DejaVuSans-65"/>
     <use x="519.433594" xlink:href="#DejaVuSans-73"/>
     <use x="571.533203" xlink:href="#DejaVuSans-20"/>
     <use x="603.320312" xlink:href="#DejaVuSans-77"/>
     <use x="685.107422" xlink:href="#DejaVuSans-69"/>
     <use x="712.890625" xlink:href="#DejaVuSans-74"/>
     <use x="752.099609" xlink:href="#DejaVuSans-68"/>
     <use x="815.478516" xlink:href="#DejaVuSans-20"/>
     <use x="847.265625" xlink:href="#DejaVuSans-6f"/>
     <use x="908.447266" xlink:href="#DejaVuSans-72"/>
     <use x="949.560547" xlink:href="#DejaVuSans-20"/>
     <use x="981.347656" xlink:href="#DejaVuSans-77"/>
     <use x="1063.134766" xlink:href="#DejaVuSans-69"/>
     <use x="1090.917969" xlink:href="#DejaVuSans-74"/>
     <use x="1130.126953" xlink:href="#DejaVuSans-68"/>
     <use x="1193.505859" xlink:href="#DejaVuSans-6f"/>
     <use x="1254.6875" xlink:href="#DejaVuSans-75"/>
     <use x="1318.066406" xlink:href="#DejaVuSans-74"/>
     <use x="1357.275391" xlink:href="#DejaVuSans-20"/>
     <use x="1389.0625" xlink:href="#DejaVuSans-53"/>
     <use x="1452.539062" xlink:href="#DejaVuSans-43"/>
     <use x="1522.363281" xlink:href="#DejaVuSans-54"/>
     <use x="1583.197266" xlink:href="#DejaVuSans-73"/>
    </g>
   </g>
  </g>
 </g>
 <defs>
  <clipPath id="p7068aab98e">
   <rect height="266.112" width="357.12" x="57.6" y="41.472"/>
  </clipPath>
 </defs>
</svg>
