<?xml version="1.0" encoding="utf-8" standalone="no"?>
<!DOCTYPE svg PUBLIC "-//W3C//DTD SVG 1.1//EN"
  "http://www.w3.org/Graphics/SVG/1.1/DTD/svg11.dtd">
<!-- Created with matplotlib (http://matplotlib.org/) -->
<svg height="345pt" version="1.1" viewBox="0 0 460 345" width="460pt" xmlns="http://www.w3.org/2000/svg" xmlns:xlink="http://www.w3.org/1999/xlink">
 <defs>
  <style type="text/css">
*{stroke-linecap:butt;stroke-linejoin:round;}
  </style>
 </defs>
 <g id="figure_1">
  <g id="patch_1">
   <path d="M 0 345.6 
L 460.8 345.6 
L 460.8 0 
L 0 0 
z
" style="fill:#ffffff;"/>
  </g>
  <g id="axes_1">
   <g id="patch_2">
    <path d="M 57.6 307.584 
L 414.72 307.584 
L 414.72 41.472 
L 57.6 41.472 
z
" style="fill:#ffffff;"/>
   </g>
   <g id="PolyCollection_1">
    <path clip-path="url(#p1439a40d0a)" d="M 73.832727 166.662934 
L 73.832727 307.584 
L 77.112066 307.584 
L 80.391405 307.584 
L 83.670744 307.584 
L 86.950083 307.584 
L 90.229421 307.584 
L 93.50876 307.584 
L 96.788099 307.584 
L 100.067438 307.584 
L 103.346777 307.584 
L 106.626116 307.584 
L 109.905455 307.584 
L 113.184793 307.584 
L 116.464132 307.584 
L 119.743471 307.584 
L 123.02281 307.584 
L 126.302149 307.584 
L 129.581488 307.584 
L 132.860826 307.584 
L 136.140165 307.584 
L 139.419504 307.584 
L 142.698843 307.584 
L 145.978182 307.584 
L 149.257521 307.584 
L 152.53686 307.584 
L 155.816198 307.584 
L 159.095537 307.584 
L 162.374876 307.584 
L 165.654215 307.584 
L 168.933554 307.584 
L 172.212893 307.584 
L 175.492231 307.584 
L 178.77157 307.584 
L 182.050909 307.584 
L 185.330248 307.584 
L 188.609587 307.584 
L 191.888926 307.584 
L 195.168264 307.584 
L 198.447603 307.584 
L 201.726942 307.584 
L 205.006281 307.584 
L 208.28562 307.584 
L 211.564959 307.584 
L 214.844298 307.584 
L 218.123636 307.584 
L 221.402975 307.584 
L 224.682314 307.584 
L 227.961653 307.584 
L 231.240992 307.584 
L 234.520331 307.584 
L 237.799669 307.584 
L 241.079008 307.584 
L 244.358347 307.584 
L 247.637686 307.584 
L 250.917025 307.584 
L 254.196364 307.584 
L 257.475702 307.584 
L 260.755041 307.584 
L 264.03438 307.584 
L 267.313719 307.584 
L 270.593058 307.584 
L 273.872397 307.584 
L 277.151736 307.584 
L 280.431074 307.584 
L 283.710413 307.584 
L 286.989752 307.584 
L 290.269091 307.584 
L 293.54843 307.584 
L 296.827769 307.584 
L 300.107107 307.584 
L 303.386446 307.584 
L 306.665785 307.584 
L 309.945124 307.584 
L 313.224463 307.584 
L 316.503802 307.584 
L 319.78314 307.584 
L 323.062479 307.584 
L 326.341818 307.584 
L 329.621157 307.584 
L 332.900496 307.584 
L 336.179835 307.584 
L 339.459174 307.584 
L 342.738512 307.584 
L 346.017851 307.584 
L 349.29719 307.584 
L 352.576529 307.584 
L 355.855868 307.584 
L 359.135207 307.584 
L 362.414545 307.584 
L 365.693884 307.584 
L 368.973223 307.584 
L 372.252562 307.584 
L 375.531901 307.584 
L 378.81124 307.584 
L 382.090579 307.584 
L 385.369917 307.584 
L 388.649256 307.584 
L 391.928595 307.584 
L 395.207934 307.584 
L 398.487273 307.584 
L 398.487273 111.3984 
L 398.487273 111.3984 
L 395.207934 110.157913 
L 391.928595 107.54931 
L 388.649256 108.621406 
L 385.369917 109.530543 
L 382.090579 113.418745 
L 378.81124 109.631972 
L 375.531901 109.640136 
L 372.252562 108.991526 
L 368.973223 113.030723 
L 365.693884 110.808348 
L 362.414545 111.371156 
L 359.135207 110.981923 
L 355.855868 110.082098 
L 352.576529 111.702223 
L 349.29719 109.489444 
L 346.017851 109.46572 
L 342.738512 109.091173 
L 339.459174 108.896321 
L 336.179835 109.609242 
L 332.900496 110.291291 
L 329.621157 111.436073 
L 326.341818 111.32136 
L 323.062479 109.637123 
L 319.78314 110.193973 
L 316.503802 110.075845 
L 313.224463 110.968767 
L 309.945124 111.11452 
L 306.665785 109.668756 
L 303.386446 110.885431 
L 300.107107 105.347948 
L 296.827769 111.986046 
L 293.54843 108.902178 
L 290.269091 112.5642 
L 286.989752 111.121864 
L 283.710413 109.794137 
L 280.431074 112.016432 
L 277.151736 111.525164 
L 273.872397 112.508252 
L 270.593058 110.01065 
L 267.313719 112.247655 
L 264.03438 110.889548 
L 260.755041 110.723637 
L 257.475702 112.399351 
L 254.196364 110.696401 
L 250.917025 109.345261 
L 247.637686 109.920523 
L 244.358347 110.906052 
L 241.079008 108.70921 
L 237.799669 111.050667 
L 234.520331 112.693716 
L 231.240992 112.474191 
L 227.961653 110.559634 
L 224.682314 109.239652 
L 221.402975 111.344138 
L 218.123636 114.960134 
L 214.844298 111.690435 
L 211.564959 112.648411 
L 208.28562 112.605746 
L 205.006281 113.031873 
L 201.726942 113.123155 
L 198.447603 112.955026 
L 195.168264 110.73779 
L 191.888926 111.908676 
L 188.609587 111.033023 
L 185.330248 113.638795 
L 182.050909 110.769849 
L 178.77157 111.313882 
L 175.492231 116.277677 
L 172.212893 112.990657 
L 168.933554 116.820114 
L 165.654215 113.908029 
L 162.374876 117.687771 
L 159.095537 113.702201 
L 155.816198 115.562949 
L 152.53686 116.193925 
L 149.257521 114.291266 
L 145.978182 115.580279 
L 142.698843 118.58337 
L 139.419504 118.516788 
L 136.140165 116.514644 
L 132.860826 117.006083 
L 129.581488 117.241765 
L 126.302149 118.831543 
L 123.02281 120.968199 
L 119.743471 121.05216 
L 116.464132 120.186601 
L 113.184793 122.716054 
L 109.905455 120.449294 
L 106.626116 125.654041 
L 103.346777 124.788706 
L 100.067438 124.052784 
L 96.788099 126.888395 
L 93.50876 127.60487 
L 90.229421 131.616881 
L 86.950083 133.547948 
L 83.670744 136.089737 
L 80.391405 140.746817 
L 77.112066 149.193909 
L 73.832727 166.662934 
z
" style="fill:#fdae6b;"/>
   </g>
   <g id="PolyCollection_2">
    <path clip-path="url(#p1439a40d0a)" d="M 73.832727 166.626614 
L 73.832727 166.662934 
L 77.112066 149.193909 
L 80.391405 140.746817 
L 83.670744 136.089737 
L 86.950083 133.547948 
L 90.229421 131.616881 
L 93.50876 127.60487 
L 96.788099 126.888395 
L 100.067438 124.052784 
L 103.346777 124.788706 
L 106.626116 125.654041 
L 109.905455 120.449294 
L 113.184793 122.716054 
L 116.464132 120.186601 
L 119.743471 121.05216 
L 123.02281 120.968199 
L 126.302149 118.831543 
L 129.581488 117.241765 
L 132.860826 117.006083 
L 136.140165 116.514644 
L 139.419504 118.516788 
L 142.698843 118.58337 
L 145.978182 115.580279 
L 149.257521 114.291266 
L 152.53686 116.193925 
L 155.816198 115.562949 
L 159.095537 113.702201 
L 162.374876 117.687771 
L 165.654215 113.908029 
L 168.933554 116.820114 
L 172.212893 112.990657 
L 175.492231 116.277677 
L 178.77157 111.313882 
L 182.050909 110.769849 
L 185.330248 113.638795 
L 188.609587 111.033023 
L 191.888926 111.908676 
L 195.168264 110.73779 
L 198.447603 112.955026 
L 201.726942 113.123155 
L 205.006281 113.031873 
L 208.28562 112.605746 
L 211.564959 112.648411 
L 214.844298 111.690435 
L 218.123636 114.960134 
L 221.402975 111.344138 
L 224.682314 109.239652 
L 227.961653 110.559634 
L 231.240992 112.474191 
L 234.520331 112.693716 
L 237.799669 111.050667 
L 241.079008 108.70921 
L 244.358347 110.906052 
L 247.637686 109.920523 
L 250.917025 109.345261 
L 254.196364 110.696401 
L 257.475702 112.399351 
L 260.755041 110.723637 
L 264.03438 110.889548 
L 267.313719 112.247655 
L 270.593058 110.01065 
L 273.872397 112.508252 
L 277.151736 111.525164 
L 280.431074 112.016432 
L 283.710413 109.794137 
L 286.989752 111.121864 
L 290.269091 112.5642 
L 293.54843 108.902178 
L 296.827769 111.986046 
L 300.107107 105.347948 
L 303.386446 110.885431 
L 306.665785 109.668756 
L 309.945124 111.11452 
L 313.224463 110.968767 
L 316.503802 110.075845 
L 319.78314 110.193973 
L 323.062479 109.637123 
L 326.341818 111.32136 
L 329.621157 111.436073 
L 332.900496 110.291291 
L 336.179835 109.609242 
L 339.459174 108.896321 
L 342.738512 109.091173 
L 346.017851 109.46572 
L 349.29719 109.489444 
L 352.576529 111.702223 
L 355.855868 110.082098 
L 359.135207 110.981923 
L 362.414545 111.371156 
L 365.693884 110.808348 
L 368.973223 113.030723 
L 372.252562 108.991526 
L 375.531901 109.640136 
L 378.81124 109.631972 
L 382.090579 113.418745 
L 385.369917 109.530543 
L 388.649256 108.621406 
L 391.928595 107.54931 
L 395.207934 110.157913 
L 398.487273 111.3984 
L 398.487273 111.3984 
L 398.487273 111.3984 
L 395.207934 110.119652 
L 391.928595 107.54931 
L 388.649256 108.583887 
L 385.369917 109.530543 
L 382.090579 113.418745 
L 378.81124 109.631972 
L 375.531901 109.601916 
L 372.252562 108.991526 
L 368.973223 113.030723 
L 365.693884 110.808348 
L 362.414545 111.371156 
L 359.135207 110.944332 
L 355.855868 110.082098 
L 352.576529 111.702223 
L 349.29719 109.489444 
L 346.017851 109.427488 
L 342.738512 109.091173 
L 339.459174 108.821472 
L 336.179835 109.609242 
L 332.900496 110.291291 
L 329.621157 111.397362 
L 326.341818 111.32136 
L 323.062479 109.637123 
L 319.78314 110.193973 
L 316.503802 110.075845 
L 313.224463 110.968767 
L 309.945124 111.11452 
L 306.665785 109.668756 
L 303.386446 110.885431 
L 300.107107 105.347948 
L 296.827769 111.986046 
L 293.54843 108.863561 
L 290.269091 112.5642 
L 286.989752 111.083417 
L 283.710413 109.794137 
L 280.431074 112.016432 
L 277.151736 111.525164 
L 273.872397 112.508252 
L 270.593058 109.971418 
L 267.313719 112.169348 
L 264.03438 110.889548 
L 260.755041 110.723637 
L 257.475702 112.399351 
L 254.196364 110.696401 
L 250.917025 109.345261 
L 247.637686 109.920523 
L 244.358347 110.906052 
L 241.079008 108.70921 
L 237.799669 111.050667 
L 234.520331 112.693716 
L 231.240992 112.474191 
L 227.961653 110.559634 
L 224.682314 109.200715 
L 221.402975 111.344138 
L 218.123636 114.920695 
L 214.844298 111.690435 
L 211.564959 112.648411 
L 208.28562 112.526423 
L 205.006281 112.992901 
L 201.726942 113.123155 
L 198.447603 112.915556 
L 195.168264 110.73779 
L 191.888926 111.908676 
L 188.609587 110.993323 
L 185.330248 113.638795 
L 182.050909 110.769849 
L 178.77157 111.313882 
L 175.492231 116.277677 
L 172.212893 112.990657 
L 168.933554 116.779886 
L 165.654215 113.908029 
L 162.374876 117.687771 
L 159.095537 113.662496 
L 155.816198 115.562949 
L 152.53686 116.193925 
L 149.257521 114.291266 
L 145.978182 115.539349 
L 142.698843 118.58337 
L 139.419504 118.516788 
L 136.140165 116.514644 
L 132.860826 116.964589 
L 129.581488 117.241765 
L 126.302149 118.831543 
L 123.02281 120.968199 
L 119.743471 121.05216 
L 116.464132 120.186601 
L 113.184793 122.716054 
L 109.905455 120.449294 
L 106.626116 125.654041 
L 103.346777 124.788706 
L 100.067438 124.052784 
L 96.788099 126.888395 
L 93.50876 127.60487 
L 90.229421 131.616881 
L 86.950083 133.547948 
L 83.670744 136.089737 
L 80.391405 140.746817 
L 77.112066 149.193909 
L 73.832727 166.626614 
z
" style="fill:#c6dbef;"/>
   </g>
   <g id="PolyCollection_3">
    <path clip-path="url(#p1439a40d0a)" d="M 73.832727 125.185651 
L 73.832727 166.626614 
L 77.112066 149.193909 
L 80.391405 140.746817 
L 83.670744 136.089737 
L 86.950083 133.547948 
L 90.229421 131.616881 
L 93.50876 127.60487 
L 96.788099 126.888395 
L 100.067438 124.052784 
L 103.346777 124.788706 
L 106.626116 125.654041 
L 109.905455 120.449294 
L 113.184793 122.716054 
L 116.464132 120.186601 
L 119.743471 121.05216 
L 123.02281 120.968199 
L 126.302149 118.831543 
L 129.581488 117.241765 
L 132.860826 116.964589 
L 136.140165 116.514644 
L 139.419504 118.516788 
L 142.698843 118.58337 
L 145.978182 115.539349 
L 149.257521 114.291266 
L 152.53686 116.193925 
L 155.816198 115.562949 
L 159.095537 113.662496 
L 162.374876 117.687771 
L 165.654215 113.908029 
L 168.933554 116.779886 
L 172.212893 112.990657 
L 175.492231 116.277677 
L 178.77157 111.313882 
L 182.050909 110.769849 
L 185.330248 113.638795 
L 188.609587 110.993323 
L 191.888926 111.908676 
L 195.168264 110.73779 
L 198.447603 112.915556 
L 201.726942 113.123155 
L 205.006281 112.992901 
L 208.28562 112.526423 
L 211.564959 112.648411 
L 214.844298 111.690435 
L 218.123636 114.920695 
L 221.402975 111.344138 
L 224.682314 109.200715 
L 227.961653 110.559634 
L 231.240992 112.474191 
L 234.520331 112.693716 
L 237.799669 111.050667 
L 241.079008 108.70921 
L 244.358347 110.906052 
L 247.637686 109.920523 
L 250.917025 109.345261 
L 254.196364 110.696401 
L 257.475702 112.399351 
L 260.755041 110.723637 
L 264.03438 110.889548 
L 267.313719 112.169348 
L 270.593058 109.971418 
L 273.872397 112.508252 
L 277.151736 111.525164 
L 280.431074 112.016432 
L 283.710413 109.794137 
L 286.989752 111.083417 
L 290.269091 112.5642 
L 293.54843 108.863561 
L 296.827769 111.986046 
L 300.107107 105.347948 
L 303.386446 110.885431 
L 306.665785 109.668756 
L 309.945124 111.11452 
L 313.224463 110.968767 
L 316.503802 110.075845 
L 319.78314 110.193973 
L 323.062479 109.637123 
L 326.341818 111.32136 
L 329.621157 111.397362 
L 332.900496 110.291291 
L 336.179835 109.609242 
L 339.459174 108.821472 
L 342.738512 109.091173 
L 346.017851 109.427488 
L 349.29719 109.489444 
L 352.576529 111.702223 
L 355.855868 110.082098 
L 359.135207 110.944332 
L 362.414545 111.371156 
L 365.693884 110.808348 
L 368.973223 113.030723 
L 372.252562 108.991526 
L 375.531901 109.601916 
L 378.81124 109.631972 
L 382.090579 113.418745 
L 385.369917 109.530543 
L 388.649256 108.583887 
L 391.928595 107.54931 
L 395.207934 110.119652 
L 398.487273 111.3984 
L 398.487273 90.1248 
L 398.487273 90.1248 
L 395.207934 88.846609 
L 391.928595 86.699034 
L 388.649256 87.123091 
L 385.369917 89.002929 
L 382.090579 91.373781 
L 378.81124 89.076711 
L 375.531901 89.383282 
L 372.252562 88.538608 
L 368.973223 91.37889 
L 365.693884 88.731826 
L 362.414545 90.120806 
L 359.135207 88.803104 
L 355.855868 89.157246 
L 352.576529 89.337617 
L 349.29719 87.159759 
L 346.017851 88.591042 
L 342.738512 87.027888 
L 339.459174 88.312742 
L 336.179835 89.377122 
L 332.900496 90.766743 
L 329.621157 91.422558 
L 326.341818 90.256017 
L 323.062479 89.540226 
L 319.78314 88.668932 
L 316.503802 89.641377 
L 313.224463 89.062742 
L 309.945124 90.773267 
L 306.665785 88.875225 
L 303.386446 89.569465 
L 300.107107 86.351674 
L 296.827769 91.303367 
L 293.54843 89.09192 
L 290.269091 92.843972 
L 286.989752 90.706718 
L 283.710413 89.427733 
L 280.431074 91.895351 
L 277.151736 90.114866 
L 273.872397 90.82458 
L 270.593058 89.531443 
L 267.313719 91.261429 
L 264.03438 90.723775 
L 260.755041 90.612392 
L 257.475702 92.526288 
L 254.196364 91.59566 
L 250.917025 89.991519 
L 247.637686 90.552579 
L 244.358347 92.037889 
L 241.079008 89.362645 
L 237.799669 91.299556 
L 234.520331 91.957358 
L 231.240992 91.770092 
L 227.961653 90.724179 
L 224.682314 89.303982 
L 221.402975 91.361905 
L 218.123636 92.637221 
L 214.844298 92.32498 
L 211.564959 91.999795 
L 208.28562 93.092056 
L 205.006281 92.181435 
L 201.726942 91.908507 
L 198.447603 91.562022 
L 195.168264 90.782521 
L 191.888926 92.143898 
L 188.609587 91.62009 
L 185.330248 92.189356 
L 182.050909 91.226067 
L 178.77157 89.944174 
L 175.492231 93.984529 
L 172.212893 93.470194 
L 168.933554 95.941486 
L 165.654215 93.000748 
L 162.374876 96.288712 
L 159.095537 91.586256 
L 155.816198 93.455396 
L 152.53686 96.503098 
L 149.257521 94.242177 
L 145.978182 95.647256 
L 142.698843 97.802984 
L 139.419504 98.261033 
L 136.140165 97.016088 
L 132.860826 96.549972 
L 129.581488 95.415748 
L 126.302149 97.832229 
L 123.02281 99.240085 
L 119.743471 99.287353 
L 116.464132 97.71349 
L 113.184793 101.331151 
L 109.905455 98.292413 
L 106.626116 102.560505 
L 103.346777 101.409882 
L 100.067438 102.072008 
L 96.788099 102.803826 
L 93.50876 102.686609 
L 90.229421 107.289254 
L 86.950083 107.526212 
L 83.670744 110.158062 
L 80.391405 112.514704 
L 77.112066 116.929261 
L 73.832727 125.185651 
z
" style="fill:#9ecae1;"/>
   </g>
   <g id="PolyCollection_4">
    <path clip-path="url(#p1439a40d0a)" d="M 73.832727 70.01578 
L 73.832727 125.185651 
L 77.112066 116.929261 
L 80.391405 112.514704 
L 83.670744 110.158062 
L 86.950083 107.526212 
L 90.229421 107.289254 
L 93.50876 102.686609 
L 96.788099 102.803826 
L 100.067438 102.072008 
L 103.346777 101.409882 
L 106.626116 102.560505 
L 109.905455 98.292413 
L 113.184793 101.331151 
L 116.464132 97.71349 
L 119.743471 99.287353 
L 123.02281 99.240085 
L 126.302149 97.832229 
L 129.581488 95.415748 
L 132.860826 96.549972 
L 136.140165 97.016088 
L 139.419504 98.261033 
L 142.698843 97.802984 
L 145.978182 95.647256 
L 149.257521 94.242177 
L 152.53686 96.503098 
L 155.816198 93.455396 
L 159.095537 91.586256 
L 162.374876 96.288712 
L 165.654215 93.000748 
L 168.933554 95.941486 
L 172.212893 93.470194 
L 175.492231 93.984529 
L 178.77157 89.944174 
L 182.050909 91.226067 
L 185.330248 92.189356 
L 188.609587 91.62009 
L 191.888926 92.143898 
L 195.168264 90.782521 
L 198.447603 91.562022 
L 201.726942 91.908507 
L 205.006281 92.181435 
L 208.28562 93.092056 
L 211.564959 91.999795 
L 214.844298 92.32498 
L 218.123636 92.637221 
L 221.402975 91.361905 
L 224.682314 89.303982 
L 227.961653 90.724179 
L 231.240992 91.770092 
L 234.520331 91.957358 
L 237.799669 91.299556 
L 241.079008 89.362645 
L 244.358347 92.037889 
L 247.637686 90.552579 
L 250.917025 89.991519 
L 254.196364 91.59566 
L 257.475702 92.526288 
L 260.755041 90.612392 
L 264.03438 90.723775 
L 267.313719 91.261429 
L 270.593058 89.531443 
L 273.872397 90.82458 
L 277.151736 90.114866 
L 280.431074 91.895351 
L 283.710413 89.427733 
L 286.989752 90.706718 
L 290.269091 92.843972 
L 293.54843 89.09192 
L 296.827769 91.303367 
L 300.107107 86.351674 
L 303.386446 89.569465 
L 306.665785 88.875225 
L 309.945124 90.773267 
L 313.224463 89.062742 
L 316.503802 89.641377 
L 319.78314 88.668932 
L 323.062479 89.540226 
L 326.341818 90.256017 
L 329.621157 91.422558 
L 332.900496 90.766743 
L 336.179835 89.377122 
L 339.459174 88.312742 
L 342.738512 87.027888 
L 346.017851 88.591042 
L 349.29719 87.159759 
L 352.576529 89.337617 
L 355.855868 89.157246 
L 359.135207 88.803104 
L 362.414545 90.120806 
L 365.693884 88.731826 
L 368.973223 91.37889 
L 372.252562 88.538608 
L 375.531901 89.383282 
L 378.81124 89.076711 
L 382.090579 91.373781 
L 385.369917 89.002929 
L 388.649256 87.123091 
L 391.928595 86.699034 
L 395.207934 88.846609 
L 398.487273 90.1248 
L 398.487273 74.5728 
L 398.487273 74.5728 
L 395.207934 74.192696 
L 391.928595 73.338298 
L 388.649256 72.078022 
L 385.369917 73.417148 
L 382.090579 74.685898 
L 378.81124 73.576022 
L 375.531901 73.101358 
L 372.252562 73.601083 
L 368.973223 74.386311 
L 365.693884 73.350957 
L 362.414545 74.936533 
L 359.135207 73.616252 
L 355.855868 74.275672 
L 352.576529 73.827917 
L 349.29719 71.877523 
L 346.017851 73.107077 
L 342.738512 72.29345 
L 339.459174 72.594372 
L 336.179835 72.914484 
L 332.900496 73.668547 
L 329.621157 73.96396 
L 326.341818 74.244813 
L 323.062479 73.863135 
L 319.78314 72.12011 
L 316.503802 73.151061 
L 313.224463 73.008591 
L 309.945124 73.434413 
L 306.665785 71.810968 
L 303.386446 72.956667 
L 300.107107 71.146838 
L 296.827769 73.63048 
L 293.54843 72.679913 
L 290.269091 74.916493 
L 286.989752 72.559922 
L 283.710413 72.694046 
L 280.431074 73.486703 
L 277.151736 71.640167 
L 273.872397 74.049689 
L 270.593058 73.25008 
L 267.313719 72.311181 
L 264.03438 72.394806 
L 260.755041 72.378196 
L 257.475702 73.900162 
L 254.196364 71.863489 
L 250.917025 71.499684 
L 247.637686 72.407458 
L 244.358347 71.554706 
L 241.079008 71.358494 
L 237.799669 71.548444 
L 234.520331 71.889915 
L 231.240992 72.703606 
L 227.961653 71.82768 
L 224.682314 70.302796 
L 221.402975 71.658308 
L 218.123636 72.128538 
L 214.844298 71.977503 
L 211.564959 71.944531 
L 208.28562 72.745465 
L 205.006281 71.79867 
L 201.726942 71.707944 
L 198.447603 71.629426 
L 195.168264 70.706066 
L 191.888926 72.419375 
L 188.609587 70.857383 
L 185.330248 71.757591 
L 182.050909 70.895814 
L 178.77157 70.861262 
L 175.492231 71.970543 
L 172.212893 71.015548 
L 168.933554 72.528457 
L 165.654215 70.958964 
L 162.374876 72.112675 
L 159.095537 69.708543 
L 155.816198 71.266115 
L 152.53686 72.246857 
L 149.257521 70.289006 
L 145.978182 71.621209 
L 142.698843 70.727958 
L 139.419504 71.199345 
L 136.140165 71.251612 
L 132.860826 69.330483 
L 129.581488 70.523599 
L 126.302149 70.275657 
L 123.02281 69.517665 
L 119.743471 70.281404 
L 116.464132 69.450011 
L 113.184793 69.7492 
L 109.905455 69.356187 
L 106.626116 70.927827 
L 103.346777 69.094588 
L 100.067438 69.183478 
L 96.788099 69.437088 
L 93.50876 68.001391 
L 90.229421 68.634449 
L 86.950083 67.866073 
L 83.670744 68.116693 
L 80.391405 67.854423 
L 77.112066 68.135917 
L 73.832727 70.01578 
z
" style="fill:#6baed6;"/>
   </g>
   <g id="PolyCollection_5">
    <path clip-path="url(#p1439a40d0a)" d="M 73.832727 57.231188 
L 73.832727 70.01578 
L 77.112066 68.135917 
L 80.391405 67.854423 
L 83.670744 68.116693 
L 86.950083 67.866073 
L 90.229421 68.634449 
L 93.50876 68.001391 
L 96.788099 69.437088 
L 100.067438 69.183478 
L 103.346777 69.094588 
L 106.626116 70.927827 
L 109.905455 69.356187 
L 113.184793 69.7492 
L 116.464132 69.450011 
L 119.743471 70.281404 
L 123.02281 69.517665 
L 126.302149 70.275657 
L 129.581488 70.523599 
L 132.860826 69.330483 
L 136.140165 71.251612 
L 139.419504 71.199345 
L 142.698843 70.727958 
L 145.978182 71.621209 
L 149.257521 70.289006 
L 152.53686 72.246857 
L 155.816198 71.266115 
L 159.095537 69.708543 
L 162.374876 72.112675 
L 165.654215 70.958964 
L 168.933554 72.528457 
L 172.212893 71.015548 
L 175.492231 71.970543 
L 178.77157 70.861262 
L 182.050909 70.895814 
L 185.330248 71.757591 
L 188.609587 70.857383 
L 191.888926 72.419375 
L 195.168264 70.706066 
L 198.447603 71.629426 
L 201.726942 71.707944 
L 205.006281 71.79867 
L 208.28562 72.745465 
L 211.564959 71.944531 
L 214.844298 71.977503 
L 218.123636 72.128538 
L 221.402975 71.658308 
L 224.682314 70.302796 
L 227.961653 71.82768 
L 231.240992 72.703606 
L 234.520331 71.889915 
L 237.799669 71.548444 
L 241.079008 71.358494 
L 244.358347 71.554706 
L 247.637686 72.407458 
L 250.917025 71.499684 
L 254.196364 71.863489 
L 257.475702 73.900162 
L 260.755041 72.378196 
L 264.03438 72.394806 
L 267.313719 72.311181 
L 270.593058 73.25008 
L 273.872397 74.049689 
L 277.151736 71.640167 
L 280.431074 73.486703 
L 283.710413 72.694046 
L 286.989752 72.559922 
L 290.269091 74.916493 
L 293.54843 72.679913 
L 296.827769 73.63048 
L 300.107107 71.146838 
L 303.386446 72.956667 
L 306.665785 71.810968 
L 309.945124 73.434413 
L 313.224463 73.008591 
L 316.503802 73.151061 
L 319.78314 72.12011 
L 323.062479 73.863135 
L 326.341818 74.244813 
L 329.621157 73.96396 
L 332.900496 73.668547 
L 336.179835 72.914484 
L 339.459174 72.594372 
L 342.738512 72.29345 
L 346.017851 73.107077 
L 349.29719 71.877523 
L 352.576529 73.827917 
L 355.855868 74.275672 
L 359.135207 73.616252 
L 362.414545 74.936533 
L 365.693884 73.350957 
L 368.973223 74.386311 
L 372.252562 73.601083 
L 375.531901 73.101358 
L 378.81124 73.576022 
L 382.090579 74.685898 
L 385.369917 73.417148 
L 388.649256 72.078022 
L 391.928595 73.338298 
L 395.207934 74.192696 
L 398.487273 74.5728 
L 398.487273 61.4016 
L 398.487273 61.4016 
L 395.207934 61.107478 
L 391.928595 61.44536 
L 388.649256 60.447171 
L 385.369917 61.632778 
L 382.090579 60.927066 
L 378.81124 61.108077 
L 375.531901 61.176568 
L 372.252562 61.651064 
L 368.973223 61.191613 
L 365.693884 61.260522 
L 362.414545 61.545379 
L 359.135207 61.399105 
L 355.855868 61.207082 
L 352.576529 61.0372 
L 349.29719 60.731831 
L 346.017851 61.331618 
L 342.738512 60.974026 
L 339.459174 60.693321 
L 336.179835 61.375252 
L 332.900496 61.612613 
L 329.621157 60.802268 
L 326.341818 61.975987 
L 323.062479 61.094806 
L 319.78314 60.123178 
L 316.503802 60.905405 
L 313.224463 61.95933 
L 309.945124 61.725057 
L 306.665785 60.472466 
L 303.386446 60.743605 
L 300.107107 59.928874 
L 296.827769 61.514134 
L 293.54843 60.824652 
L 290.269091 62.289311 
L 286.989752 60.333903 
L 283.710413 60.520578 
L 280.431074 61.305081 
L 277.151736 60.758882 
L 273.872397 60.869417 
L 270.593058 61.205796 
L 267.313719 60.643465 
L 264.03438 60.826843 
L 260.755041 60.886056 
L 257.475702 61.781491 
L 254.196364 60.576688 
L 250.917025 60.334063 
L 247.637686 60.534238 
L 244.358347 60.249564 
L 241.079008 60.540211 
L 237.799669 60.440889 
L 234.520331 60.636408 
L 231.240992 60.148578 
L 227.961653 60.794942 
L 224.682314 59.59516 
L 221.402975 61.229334 
L 218.123636 61.361479 
L 214.844298 61.018148 
L 211.564959 60.393964 
L 208.28562 60.926197 
L 205.006281 60.574509 
L 201.726942 61.242592 
L 198.447603 60.696101 
L 195.168264 60.364873 
L 191.888926 61.027456 
L 188.609587 60.217985 
L 185.330248 60.210903 
L 182.050909 60.042526 
L 178.77157 60.255263 
L 175.492231 60.644507 
L 172.212893 61.112683 
L 168.933554 60.701257 
L 165.654215 59.816518 
L 162.374876 60.882253 
L 159.095537 59.742471 
L 155.816198 61.458698 
L 152.53686 61.091368 
L 149.257521 60.447466 
L 145.978182 60.692837 
L 142.698843 59.591285 
L 139.419504 59.329473 
L 136.140165 60.038912 
L 132.860826 59.33064 
L 129.581488 59.953513 
L 126.302149 59.413943 
L 123.02281 58.858591 
L 119.743471 59.564513 
L 116.464132 59.610432 
L 113.184793 59.015464 
L 109.905455 58.195072 
L 106.626116 59.233832 
L 103.346777 58.591059 
L 100.067438 59.349973 
L 96.788099 59.009983 
L 93.50876 57.984 
L 90.229421 57.980908 
L 86.950083 57.616354 
L 83.670744 57.678269 
L 80.391405 58.443718 
L 77.112066 58.345539 
L 73.832727 57.231188 
z
" style="fill:#3182bd;"/>
   </g>
   <g id="PolyCollection_6">
    <path clip-path="url(#p1439a40d0a)" d="M 73.832727 54.144 
L 73.832727 57.231188 
L 77.112066 58.345539 
L 80.391405 58.443718 
L 83.670744 57.678269 
L 86.950083 57.616354 
L 90.229421 57.980908 
L 93.50876 57.984 
L 96.788099 59.009983 
L 100.067438 59.349973 
L 103.346777 58.591059 
L 106.626116 59.233832 
L 109.905455 58.195072 
L 113.184793 59.015464 
L 116.464132 59.610432 
L 119.743471 59.564513 
L 123.02281 58.858591 
L 126.302149 59.413943 
L 129.581488 59.953513 
L 132.860826 59.33064 
L 136.140165 60.038912 
L 139.419504 59.329473 
L 142.698843 59.591285 
L 145.978182 60.692837 
L 149.257521 60.447466 
L 152.53686 61.091368 
L 155.816198 61.458698 
L 159.095537 59.742471 
L 162.374876 60.882253 
L 165.654215 59.816518 
L 168.933554 60.701257 
L 172.212893 61.112683 
L 175.492231 60.644507 
L 178.77157 60.255263 
L 182.050909 60.042526 
L 185.330248 60.210903 
L 188.609587 60.217985 
L 191.888926 61.027456 
L 195.168264 60.364873 
L 198.447603 60.696101 
L 201.726942 61.242592 
L 205.006281 60.574509 
L 208.28562 60.926197 
L 211.564959 60.393964 
L 214.844298 61.018148 
L 218.123636 61.361479 
L 221.402975 61.229334 
L 224.682314 59.59516 
L 227.961653 60.794942 
L 231.240992 60.148578 
L 234.520331 60.636408 
L 237.799669 60.440889 
L 241.079008 60.540211 
L 244.358347 60.249564 
L 247.637686 60.534238 
L 250.917025 60.334063 
L 254.196364 60.576688 
L 257.475702 61.781491 
L 260.755041 60.886056 
L 264.03438 60.826843 
L 267.313719 60.643465 
L 270.593058 61.205796 
L 273.872397 60.869417 
L 277.151736 60.758882 
L 280.431074 61.305081 
L 283.710413 60.520578 
L 286.989752 60.333903 
L 290.269091 62.289311 
L 293.54843 60.824652 
L 296.827769 61.514134 
L 300.107107 59.928874 
L 303.386446 60.743605 
L 306.665785 60.472466 
L 309.945124 61.725057 
L 313.224463 61.95933 
L 316.503802 60.905405 
L 319.78314 60.123178 
L 323.062479 61.094806 
L 326.341818 61.975987 
L 329.621157 60.802268 
L 332.900496 61.612613 
L 336.179835 61.375252 
L 339.459174 60.693321 
L 342.738512 60.974026 
L 346.017851 61.331618 
L 349.29719 60.731831 
L 352.576529 61.0372 
L 355.855868 61.207082 
L 359.135207 61.399105 
L 362.414545 61.545379 
L 365.693884 61.260522 
L 368.973223 61.191613 
L 372.252562 61.651064 
L 375.531901 61.176568 
L 378.81124 61.108077 
L 382.090579 60.927066 
L 385.369917 61.632778 
L 388.649256 60.447171 
L 391.928595 61.44536 
L 395.207934 61.107478 
L 398.487273 61.4016 
L 398.487273 54.144 
L 398.487273 54.144 
L 395.207934 54.144 
L 391.928595 54.144 
L 388.649256 54.144 
L 385.369917 54.144 
L 382.090579 54.144 
L 378.81124 54.144 
L 375.531901 54.144 
L 372.252562 54.144 
L 368.973223 54.144 
L 365.693884 54.144 
L 362.414545 54.144 
L 359.135207 54.144 
L 355.855868 54.144 
L 352.576529 54.144 
L 349.29719 54.144 
L 346.017851 54.144 
L 342.738512 54.144 
L 339.459174 54.144 
L 336.179835 54.144 
L 332.900496 54.144 
L 329.621157 54.144 
L 326.341818 54.144 
L 323.062479 54.144 
L 319.78314 54.144 
L 316.503802 54.144 
L 313.224463 54.144 
L 309.945124 54.144 
L 306.665785 54.144 
L 303.386446 54.144 
L 300.107107 54.144 
L 296.827769 54.144 
L 293.54843 54.144 
L 290.269091 54.144 
L 286.989752 54.144 
L 283.710413 54.144 
L 280.431074 54.144 
L 277.151736 54.144 
L 273.872397 54.144 
L 270.593058 54.144 
L 267.313719 54.144 
L 264.03438 54.144 
L 260.755041 54.144 
L 257.475702 54.144 
L 254.196364 54.144 
L 250.917025 54.144 
L 247.637686 54.144 
L 244.358347 54.144 
L 241.079008 54.144 
L 237.799669 54.144 
L 234.520331 54.144 
L 231.240992 54.144 
L 227.961653 54.144 
L 224.682314 54.144 
L 221.402975 54.144 
L 218.123636 54.144 
L 214.844298 54.144 
L 211.564959 54.144 
L 208.28562 54.144 
L 205.006281 54.144 
L 201.726942 54.144 
L 198.447603 54.144 
L 195.168264 54.144 
L 191.888926 54.144 
L 188.609587 54.144 
L 185.330248 54.144 
L 182.050909 54.144 
L 178.77157 54.144 
L 175.492231 54.144 
L 172.212893 54.144 
L 168.933554 54.144 
L 165.654215 54.144 
L 162.374876 54.144 
L 159.095537 54.144 
L 155.816198 54.144 
L 152.53686 54.144 
L 149.257521 54.144 
L 145.978182 54.144 
L 142.698843 54.144 
L 139.419504 54.144 
L 136.140165 54.144 
L 132.860826 54.144 
L 129.581488 54.144 
L 126.302149 54.144 
L 123.02281 54.144 
L 119.743471 54.144 
L 116.464132 54.144 
L 113.184793 54.144 
L 109.905455 54.144 
L 106.626116 54.144 
L 103.346777 54.144 
L 100.067438 54.144 
L 96.788099 54.144 
L 93.50876 54.144 
L 90.229421 54.144 
L 86.950083 54.144 
L 83.670744 54.144 
L 80.391405 54.144 
L 77.112066 54.144 
L 73.832727 54.144 
z
" style="fill:#0e5a90;"/>
   </g>
   <g id="matplotlib.axis_1">
    <g id="xtick_1">
     <g id="line2d_1">
      <defs>
       <path d="M 0 0 
L 0 3.5 
" id="md816f86923" style="stroke:#000000;stroke-width:0.8;"/>
      </defs>
      <g>
       <use style="stroke:#000000;stroke-width:0.8;" x="70.553388" xlink:href="#md816f86923" y="307.584"/>
      </g>
     </g>
     <g id="text_1">
      <!-- 0 -->
      <defs>
       <path d="M 31.78125 66.40625 
Q 24.171875 66.40625 20.328125 58.90625 
Q 16.5 51.421875 16.5 36.375 
Q 16.5 21.390625 20.328125 13.890625 
Q 24.171875 6.390625 31.78125 6.390625 
Q 39.453125 6.390625 43.28125 13.890625 
Q 47.125 21.390625 47.125 36.375 
Q 47.125 51.421875 43.28125 58.90625 
Q 39.453125 66.40625 31.78125 66.40625 
z
M 31.78125 74.21875 
Q 44.046875 74.21875 50.515625 64.515625 
Q 56.984375 54.828125 56.984375 36.375 
Q 56.984375 17.96875 50.515625 8.265625 
Q 44.046875 -1.421875 31.78125 -1.421875 
Q 19.53125 -1.421875 13.0625 8.265625 
Q 6.59375 17.96875 6.59375 36.375 
Q 6.59375 54.828125 13.0625 64.515625 
Q 19.53125 74.21875 31.78125 74.21875 
z
" id="DejaVuSans-30"/>
      </defs>
      <g transform="translate(67.372138 322.182437)scale(0.1 -0.1)">
       <use xlink:href="#DejaVuSans-30"/>
      </g>
     </g>
    </g>
    <g id="xtick_2">
     <g id="line2d_2">
      <g>
       <use style="stroke:#000000;stroke-width:0.8;" x="136.140165" xlink:href="#md816f86923" y="307.584"/>
      </g>
     </g>
     <g id="text_2">
      <!-- 200000 -->
      <defs>
       <path d="M 19.1875 8.296875 
L 53.609375 8.296875 
L 53.609375 0 
L 7.328125 0 
L 7.328125 8.296875 
Q 12.9375 14.109375 22.625 23.890625 
Q 32.328125 33.6875 34.8125 36.53125 
Q 39.546875 41.84375 41.421875 45.53125 
Q 43.3125 49.21875 43.3125 52.78125 
Q 43.3125 58.59375 39.234375 62.25 
Q 35.15625 65.921875 28.609375 65.921875 
Q 23.96875 65.921875 18.8125 64.3125 
Q 13.671875 62.703125 7.8125 59.421875 
L 7.8125 69.390625 
Q 13.765625 71.78125 18.9375 73 
Q 24.125 74.21875 28.421875 74.21875 
Q 39.75 74.21875 46.484375 68.546875 
Q 53.21875 62.890625 53.21875 53.421875 
Q 53.21875 48.921875 51.53125 44.890625 
Q 49.859375 40.875 45.40625 35.40625 
Q 44.1875 33.984375 37.640625 27.21875 
Q 31.109375 20.453125 19.1875 8.296875 
z
" id="DejaVuSans-32"/>
      </defs>
      <g transform="translate(117.052665 322.182437)scale(0.1 -0.1)">
       <use xlink:href="#DejaVuSans-32"/>
       <use x="63.623047" xlink:href="#DejaVuSans-30"/>
       <use x="127.246094" xlink:href="#DejaVuSans-30"/>
       <use x="190.869141" xlink:href="#DejaVuSans-30"/>
       <use x="254.492188" xlink:href="#DejaVuSans-30"/>
       <use x="318.115234" xlink:href="#DejaVuSans-30"/>
      </g>
     </g>
    </g>
    <g id="xtick_3">
     <g id="line2d_3">
      <g>
       <use style="stroke:#000000;stroke-width:0.8;" x="201.726942" xlink:href="#md816f86923" y="307.584"/>
      </g>
     </g>
     <g id="text_3">
      <!-- 400000 -->
      <defs>
       <path d="M 37.796875 64.3125 
L 12.890625 25.390625 
L 37.796875 25.390625 
z
M 35.203125 72.90625 
L 47.609375 72.90625 
L 47.609375 25.390625 
L 58.015625 25.390625 
L 58.015625 17.1875 
L 47.609375 17.1875 
L 47.609375 0 
L 37.796875 0 
L 37.796875 17.1875 
L 4.890625 17.1875 
L 4.890625 26.703125 
z
" id="DejaVuSans-34"/>
      </defs>
      <g transform="translate(182.639442 322.182437)scale(0.1 -0.1)">
       <use xlink:href="#DejaVuSans-34"/>
       <use x="63.623047" xlink:href="#DejaVuSans-30"/>
       <use x="127.246094" xlink:href="#DejaVuSans-30"/>
       <use x="190.869141" xlink:href="#DejaVuSans-30"/>
       <use x="254.492188" xlink:href="#DejaVuSans-30"/>
       <use x="318.115234" xlink:href="#DejaVuSans-30"/>
      </g>
     </g>
    </g>
    <g id="xtick_4">
     <g id="line2d_4">
      <g>
       <use style="stroke:#000000;stroke-width:0.8;" x="267.313719" xlink:href="#md816f86923" y="307.584"/>
      </g>
     </g>
     <g id="text_4">
      <!-- 600000 -->
      <defs>
       <path d="M 33.015625 40.375 
Q 26.375 40.375 22.484375 35.828125 
Q 18.609375 31.296875 18.609375 23.390625 
Q 18.609375 15.53125 22.484375 10.953125 
Q 26.375 6.390625 33.015625 6.390625 
Q 39.65625 6.390625 43.53125 10.953125 
Q 47.40625 15.53125 47.40625 23.390625 
Q 47.40625 31.296875 43.53125 35.828125 
Q 39.65625 40.375 33.015625 40.375 
z
M 52.59375 71.296875 
L 52.59375 62.3125 
Q 48.875 64.0625 45.09375 64.984375 
Q 41.3125 65.921875 37.59375 65.921875 
Q 27.828125 65.921875 22.671875 59.328125 
Q 17.53125 52.734375 16.796875 39.40625 
Q 19.671875 43.65625 24.015625 45.921875 
Q 28.375 48.1875 33.59375 48.1875 
Q 44.578125 48.1875 50.953125 41.515625 
Q 57.328125 34.859375 57.328125 23.390625 
Q 57.328125 12.15625 50.6875 5.359375 
Q 44.046875 -1.421875 33.015625 -1.421875 
Q 20.359375 -1.421875 13.671875 8.265625 
Q 6.984375 17.96875 6.984375 36.375 
Q 6.984375 53.65625 15.1875 63.9375 
Q 23.390625 74.21875 37.203125 74.21875 
Q 40.921875 74.21875 44.703125 73.484375 
Q 48.484375 72.75 52.59375 71.296875 
z
" id="DejaVuSans-36"/>
      </defs>
      <g transform="translate(248.226219 322.182437)scale(0.1 -0.1)">
       <use xlink:href="#DejaVuSans-36"/>
       <use x="63.623047" xlink:href="#DejaVuSans-30"/>
       <use x="127.246094" xlink:href="#DejaVuSans-30"/>
       <use x="190.869141" xlink:href="#DejaVuSans-30"/>
       <use x="254.492188" xlink:href="#DejaVuSans-30"/>
       <use x="318.115234" xlink:href="#DejaVuSans-30"/>
      </g>
     </g>
    </g>
    <g id="xtick_5">
     <g id="line2d_5">
      <g>
       <use style="stroke:#000000;stroke-width:0.8;" x="332.900496" xlink:href="#md816f86923" y="307.584"/>
      </g>
     </g>
     <g id="text_5">
      <!-- 800000 -->
      <defs>
       <path d="M 31.78125 34.625 
Q 24.75 34.625 20.71875 30.859375 
Q 16.703125 27.09375 16.703125 20.515625 
Q 16.703125 13.921875 20.71875 10.15625 
Q 24.75 6.390625 31.78125 6.390625 
Q 38.8125 6.390625 42.859375 10.171875 
Q 46.921875 13.96875 46.921875 20.515625 
Q 46.921875 27.09375 42.890625 30.859375 
Q 38.875 34.625 31.78125 34.625 
z
M 21.921875 38.8125 
Q 15.578125 40.375 12.03125 44.71875 
Q 8.5 49.078125 8.5 55.328125 
Q 8.5 64.0625 14.71875 69.140625 
Q 20.953125 74.21875 31.78125 74.21875 
Q 42.671875 74.21875 48.875 69.140625 
Q 55.078125 64.0625 55.078125 55.328125 
Q 55.078125 49.078125 51.53125 44.71875 
Q 48 40.375 41.703125 38.8125 
Q 48.828125 37.15625 52.796875 32.3125 
Q 56.78125 27.484375 56.78125 20.515625 
Q 56.78125 9.90625 50.3125 4.234375 
Q 43.84375 -1.421875 31.78125 -1.421875 
Q 19.734375 -1.421875 13.25 4.234375 
Q 6.78125 9.90625 6.78125 20.515625 
Q 6.78125 27.484375 10.78125 32.3125 
Q 14.796875 37.15625 21.921875 38.8125 
z
M 18.3125 54.390625 
Q 18.3125 48.734375 21.84375 45.5625 
Q 25.390625 42.390625 31.78125 42.390625 
Q 38.140625 42.390625 41.71875 45.5625 
Q 45.3125 48.734375 45.3125 54.390625 
Q 45.3125 60.0625 41.71875 63.234375 
Q 38.140625 66.40625 31.78125 66.40625 
Q 25.390625 66.40625 21.84375 63.234375 
Q 18.3125 60.0625 18.3125 54.390625 
z
" id="DejaVuSans-38"/>
      </defs>
      <g transform="translate(313.812996 322.182437)scale(0.1 -0.1)">
       <use xlink:href="#DejaVuSans-38"/>
       <use x="63.623047" xlink:href="#DejaVuSans-30"/>
       <use x="127.246094" xlink:href="#DejaVuSans-30"/>
       <use x="190.869141" xlink:href="#DejaVuSans-30"/>
       <use x="254.492188" xlink:href="#DejaVuSans-30"/>
       <use x="318.115234" xlink:href="#DejaVuSans-30"/>
      </g>
     </g>
    </g>
    <g id="xtick_6">
     <g id="line2d_6">
      <g>
       <use style="stroke:#000000;stroke-width:0.8;" x="398.487273" xlink:href="#md816f86923" y="307.584"/>
      </g>
     </g>
     <g id="text_6">
      <!-- 1000000 -->
      <defs>
       <path d="M 12.40625 8.296875 
L 28.515625 8.296875 
L 28.515625 63.921875 
L 10.984375 60.40625 
L 10.984375 69.390625 
L 28.421875 72.90625 
L 38.28125 72.90625 
L 38.28125 8.296875 
L 54.390625 8.296875 
L 54.390625 0 
L 12.40625 0 
z
" id="DejaVuSans-31"/>
      </defs>
      <g transform="translate(376.218523 322.182437)scale(0.1 -0.1)">
       <use xlink:href="#DejaVuSans-31"/>
       <use x="63.623047" xlink:href="#DejaVuSans-30"/>
       <use x="127.246094" xlink:href="#DejaVuSans-30"/>
       <use x="190.869141" xlink:href="#DejaVuSans-30"/>
       <use x="254.492188" xlink:href="#DejaVuSans-30"/>
       <use x="318.115234" xlink:href="#DejaVuSans-30"/>
       <use x="381.738281" xlink:href="#DejaVuSans-30"/>
      </g>
     </g>
    </g>
    <g id="text_7">
     <!-- alexa rank -->
     <defs>
      <path d="M 34.28125 27.484375 
Q 23.390625 27.484375 19.1875 25 
Q 14.984375 22.515625 14.984375 16.5 
Q 14.984375 11.71875 18.140625 8.90625 
Q 21.296875 6.109375 26.703125 6.109375 
Q 34.1875 6.109375 38.703125 11.40625 
Q 43.21875 16.703125 43.21875 25.484375 
L 43.21875 27.484375 
z
M 52.203125 31.203125 
L 52.203125 0 
L 43.21875 0 
L 43.21875 8.296875 
Q 40.140625 3.328125 35.546875 0.953125 
Q 30.953125 -1.421875 24.3125 -1.421875 
Q 15.921875 -1.421875 10.953125 3.296875 
Q 6 8.015625 6 15.921875 
Q 6 25.140625 12.171875 29.828125 
Q 18.359375 34.515625 30.609375 34.515625 
L 43.21875 34.515625 
L 43.21875 35.40625 
Q 43.21875 41.609375 39.140625 45 
Q 35.0625 48.390625 27.6875 48.390625 
Q 23 48.390625 18.546875 47.265625 
Q 14.109375 46.140625 10.015625 43.890625 
L 10.015625 52.203125 
Q 14.9375 54.109375 19.578125 55.046875 
Q 24.21875 56 28.609375 56 
Q 40.484375 56 46.34375 49.84375 
Q 52.203125 43.703125 52.203125 31.203125 
z
" id="DejaVuSans-61"/>
      <path d="M 9.421875 75.984375 
L 18.40625 75.984375 
L 18.40625 0 
L 9.421875 0 
z
" id="DejaVuSans-6c"/>
      <path d="M 56.203125 29.59375 
L 56.203125 25.203125 
L 14.890625 25.203125 
Q 15.484375 15.921875 20.484375 11.0625 
Q 25.484375 6.203125 34.421875 6.203125 
Q 39.59375 6.203125 44.453125 7.46875 
Q 49.3125 8.734375 54.109375 11.28125 
L 54.109375 2.78125 
Q 49.265625 0.734375 44.1875 -0.34375 
Q 39.109375 -1.421875 33.890625 -1.421875 
Q 20.796875 -1.421875 13.15625 6.1875 
Q 5.515625 13.8125 5.515625 26.8125 
Q 5.515625 40.234375 12.765625 48.109375 
Q 20.015625 56 32.328125 56 
Q 43.359375 56 49.78125 48.890625 
Q 56.203125 41.796875 56.203125 29.59375 
z
M 47.21875 32.234375 
Q 47.125 39.59375 43.09375 43.984375 
Q 39.0625 48.390625 32.421875 48.390625 
Q 24.90625 48.390625 20.390625 44.140625 
Q 15.875 39.890625 15.1875 32.171875 
z
" id="DejaVuSans-65"/>
      <path d="M 54.890625 54.6875 
L 35.109375 28.078125 
L 55.90625 0 
L 45.3125 0 
L 29.390625 21.484375 
L 13.484375 0 
L 2.875 0 
L 24.125 28.609375 
L 4.6875 54.6875 
L 15.28125 54.6875 
L 29.78125 35.203125 
L 44.28125 54.6875 
z
" id="DejaVuSans-78"/>
      <path id="DejaVuSans-20"/>
      <path d="M 41.109375 46.296875 
Q 39.59375 47.171875 37.8125 47.578125 
Q 36.03125 48 33.890625 48 
Q 26.265625 48 22.1875 43.046875 
Q 18.109375 38.09375 18.109375 28.8125 
L 18.109375 0 
L 9.078125 0 
L 9.078125 54.6875 
L 18.109375 54.6875 
L 18.109375 46.1875 
Q 20.953125 51.171875 25.484375 53.578125 
Q 30.03125 56 36.53125 56 
Q 37.453125 56 38.578125 55.875 
Q 39.703125 55.765625 41.0625 55.515625 
z
" id="DejaVuSans-72"/>
      <path d="M 54.890625 33.015625 
L 54.890625 0 
L 45.90625 0 
L 45.90625 32.71875 
Q 45.90625 40.484375 42.875 44.328125 
Q 39.84375 48.1875 33.796875 48.1875 
Q 26.515625 48.1875 22.3125 43.546875 
Q 18.109375 38.921875 18.109375 30.90625 
L 18.109375 0 
L 9.078125 0 
L 9.078125 54.6875 
L 18.109375 54.6875 
L 18.109375 46.1875 
Q 21.34375 51.125 25.703125 53.5625 
Q 30.078125 56 35.796875 56 
Q 45.21875 56 50.046875 50.171875 
Q 54.890625 44.34375 54.890625 33.015625 
z
" id="DejaVuSans-6e"/>
      <path d="M 9.078125 75.984375 
L 18.109375 75.984375 
L 18.109375 31.109375 
L 44.921875 54.6875 
L 56.390625 54.6875 
L 27.390625 29.109375 
L 57.625 0 
L 45.90625 0 
L 18.109375 26.703125 
L 18.109375 0 
L 9.078125 0 
z
" id="DejaVuSans-6b"/>
     </defs>
     <g transform="translate(209.835 335.860562)scale(0.1 -0.1)">
      <use xlink:href="#DejaVuSans-61"/>
      <use x="61.279297" xlink:href="#DejaVuSans-6c"/>
      <use x="89.0625" xlink:href="#DejaVuSans-65"/>
      <use x="150.570312" xlink:href="#DejaVuSans-78"/>
      <use x="209.75" xlink:href="#DejaVuSans-61"/>
      <use x="271.029297" xlink:href="#DejaVuSans-20"/>
      <use x="302.816406" xlink:href="#DejaVuSans-72"/>
      <use x="343.929688" xlink:href="#DejaVuSans-61"/>
      <use x="405.208984" xlink:href="#DejaVuSans-6e"/>
      <use x="468.587891" xlink:href="#DejaVuSans-6b"/>
     </g>
    </g>
   </g>
   <g id="matplotlib.axis_2">
    <g id="ytick_1">
     <g id="line2d_7">
      <defs>
       <path d="M 0 0 
L -3.5 0 
" id="mee4932345c" style="stroke:#000000;stroke-width:0.8;"/>
      </defs>
      <g>
       <use style="stroke:#000000;stroke-width:0.8;" x="57.6" xlink:href="#mee4932345c" y="307.584"/>
      </g>
     </g>
     <g id="text_8">
      <!-- 0.0 -->
      <defs>
       <path d="M 10.6875 12.40625 
L 21 12.40625 
L 21 0 
L 10.6875 0 
z
" id="DejaVuSans-2e"/>
      </defs>
      <g transform="translate(34.696875 311.383219)scale(0.1 -0.1)">
       <use xlink:href="#DejaVuSans-30"/>
       <use x="63.623047" xlink:href="#DejaVuSans-2e"/>
       <use x="95.410156" xlink:href="#DejaVuSans-30"/>
      </g>
     </g>
    </g>
    <g id="ytick_2">
     <g id="line2d_8">
      <g>
       <use style="stroke:#000000;stroke-width:0.8;" x="57.6" xlink:href="#mee4932345c" y="256.896"/>
      </g>
     </g>
     <g id="text_9">
      <!-- 0.2 -->
      <g transform="translate(34.696875 260.695219)scale(0.1 -0.1)">
       <use xlink:href="#DejaVuSans-30"/>
       <use x="63.623047" xlink:href="#DejaVuSans-2e"/>
       <use x="95.410156" xlink:href="#DejaVuSans-32"/>
      </g>
     </g>
    </g>
    <g id="ytick_3">
     <g id="line2d_9">
      <g>
       <use style="stroke:#000000;stroke-width:0.8;" x="57.6" xlink:href="#mee4932345c" y="206.208"/>
      </g>
     </g>
     <g id="text_10">
      <!-- 0.4 -->
      <g transform="translate(34.696875 210.007219)scale(0.1 -0.1)">
       <use xlink:href="#DejaVuSans-30"/>
       <use x="63.623047" xlink:href="#DejaVuSans-2e"/>
       <use x="95.410156" xlink:href="#DejaVuSans-34"/>
      </g>
     </g>
    </g>
    <g id="ytick_4">
     <g id="line2d_10">
      <g>
       <use style="stroke:#000000;stroke-width:0.8;" x="57.6" xlink:href="#mee4932345c" y="155.52"/>
      </g>
     </g>
     <g id="text_11">
      <!-- 0.6 -->
      <g transform="translate(34.696875 159.319219)scale(0.1 -0.1)">
       <use xlink:href="#DejaVuSans-30"/>
       <use x="63.623047" xlink:href="#DejaVuSans-2e"/>
       <use x="95.410156" xlink:href="#DejaVuSans-36"/>
      </g>
     </g>
    </g>
    <g id="ytick_5">
     <g id="line2d_11">
      <g>
       <use style="stroke:#000000;stroke-width:0.8;" x="57.6" xlink:href="#mee4932345c" y="104.832"/>
      </g>
     </g>
     <g id="text_12">
      <!-- 0.8 -->
      <g transform="translate(34.696875 108.631219)scale(0.1 -0.1)">
       <use xlink:href="#DejaVuSans-30"/>
       <use x="63.623047" xlink:href="#DejaVuSans-2e"/>
       <use x="95.410156" xlink:href="#DejaVuSans-38"/>
      </g>
     </g>
    </g>
    <g id="ytick_6">
     <g id="line2d_12">
      <g>
       <use style="stroke:#000000;stroke-width:0.8;" x="57.6" xlink:href="#mee4932345c" y="54.144"/>
      </g>
     </g>
     <g id="text_13">
      <!-- 1.0 -->
      <g transform="translate(34.696875 57.943219)scale(0.1 -0.1)">
       <use xlink:href="#DejaVuSans-31"/>
       <use x="63.623047" xlink:href="#DejaVuSans-2e"/>
       <use x="95.410156" xlink:href="#DejaVuSans-30"/>
      </g>
     </g>
    </g>
    <g id="text_14">
     <!-- proportion -->
     <defs>
      <path d="M 18.109375 8.203125 
L 18.109375 -20.796875 
L 9.078125 -20.796875 
L 9.078125 54.6875 
L 18.109375 54.6875 
L 18.109375 46.390625 
Q 20.953125 51.265625 25.265625 53.625 
Q 29.59375 56 35.59375 56 
Q 45.5625 56 51.78125 48.09375 
Q 58.015625 40.1875 58.015625 27.296875 
Q 58.015625 14.40625 51.78125 6.484375 
Q 45.5625 -1.421875 35.59375 -1.421875 
Q 29.59375 -1.421875 25.265625 0.953125 
Q 20.953125 3.328125 18.109375 8.203125 
z
M 48.6875 27.296875 
Q 48.6875 37.203125 44.609375 42.84375 
Q 40.53125 48.484375 33.40625 48.484375 
Q 26.265625 48.484375 22.1875 42.84375 
Q 18.109375 37.203125 18.109375 27.296875 
Q 18.109375 17.390625 22.1875 11.75 
Q 26.265625 6.109375 33.40625 6.109375 
Q 40.53125 6.109375 44.609375 11.75 
Q 48.6875 17.390625 48.6875 27.296875 
z
" id="DejaVuSans-70"/>
      <path d="M 30.609375 48.390625 
Q 23.390625 48.390625 19.1875 42.75 
Q 14.984375 37.109375 14.984375 27.296875 
Q 14.984375 17.484375 19.15625 11.84375 
Q 23.34375 6.203125 30.609375 6.203125 
Q 37.796875 6.203125 41.984375 11.859375 
Q 46.1875 17.53125 46.1875 27.296875 
Q 46.1875 37.015625 41.984375 42.703125 
Q 37.796875 48.390625 30.609375 48.390625 
z
M 30.609375 56 
Q 42.328125 56 49.015625 48.375 
Q 55.71875 40.765625 55.71875 27.296875 
Q 55.71875 13.875 49.015625 6.21875 
Q 42.328125 -1.421875 30.609375 -1.421875 
Q 18.84375 -1.421875 12.171875 6.21875 
Q 5.515625 13.875 5.515625 27.296875 
Q 5.515625 40.765625 12.171875 48.375 
Q 18.84375 56 30.609375 56 
z
" id="DejaVuSans-6f"/>
      <path d="M 18.3125 70.21875 
L 18.3125 54.6875 
L 36.8125 54.6875 
L 36.8125 47.703125 
L 18.3125 47.703125 
L 18.3125 18.015625 
Q 18.3125 11.328125 20.140625 9.421875 
Q 21.96875 7.515625 27.59375 7.515625 
L 36.8125 7.515625 
L 36.8125 0 
L 27.59375 0 
Q 17.1875 0 13.234375 3.875 
Q 9.28125 7.765625 9.28125 18.015625 
L 9.28125 47.703125 
L 2.6875 47.703125 
L 2.6875 54.6875 
L 9.28125 54.6875 
L 9.28125 70.21875 
z
" id="DejaVuSans-74"/>
      <path d="M 9.421875 54.6875 
L 18.40625 54.6875 
L 18.40625 0 
L 9.421875 0 
z
M 9.421875 75.984375 
L 18.40625 75.984375 
L 18.40625 64.59375 
L 9.421875 64.59375 
z
" id="DejaVuSans-69"/>
     </defs>
     <g transform="translate(28.617187 200.681906)rotate(-90)scale(0.1 -0.1)">
      <use xlink:href="#DejaVuSans-70"/>
      <use x="63.476562" xlink:href="#DejaVuSans-72"/>
      <use x="104.558594" xlink:href="#DejaVuSans-6f"/>
      <use x="165.740234" xlink:href="#DejaVuSans-70"/>
      <use x="229.216797" xlink:href="#DejaVuSans-6f"/>
      <use x="290.398438" xlink:href="#DejaVuSans-72"/>
      <use x="331.511719" xlink:href="#DejaVuSans-74"/>
      <use x="370.720703" xlink:href="#DejaVuSans-69"/>
      <use x="398.503906" xlink:href="#DejaVuSans-6f"/>
      <use x="459.685547" xlink:href="#DejaVuSans-6e"/>
     </g>
    </g>
   </g>
   <g id="line2d_13">
    <path clip-path="url(#p1439a40d0a)" d="M 57.6 114.903832 
L 414.72 114.903832 
" style="fill:none;stroke:#808080;stroke-dasharray:3.7,1.6;stroke-dashoffset:0;"/>
   </g>
   <g id="line2d_14">
    <path clip-path="url(#p1439a40d0a)" d="M 57.6 114.894107 
L 414.72 114.894107 
" style="fill:none;stroke:#808080;stroke-dasharray:1,1.65;stroke-dashoffset:0;"/>
   </g>
   <g id="line2d_15">
    <path clip-path="url(#p1439a40d0a)" d="M 57.6 93.515268 
L 414.72 93.515268 
" style="fill:none;stroke:#808080;stroke-dasharray:1,1.65;stroke-dashoffset:0;"/>
   </g>
   <g id="line2d_16">
    <path clip-path="url(#p1439a40d0a)" d="M 57.6 71.856977 
L 414.72 71.856977 
" style="fill:none;stroke:#808080;stroke-dasharray:1,1.65;stroke-dashoffset:0;"/>
   </g>
   <g id="line2d_17">
    <path clip-path="url(#p1439a40d0a)" d="M 57.6 60.431161 
L 414.72 60.431161 
" style="fill:none;stroke:#808080;stroke-dasharray:1,1.65;stroke-dashoffset:0;"/>
   </g>
   <g id="patch_3">
    <path d="M 57.6 307.584 
L 57.6 41.472 
" style="fill:none;stroke:#000000;stroke-linecap:square;stroke-linejoin:miter;stroke-width:0.8;"/>
   </g>
   <g id="patch_4">
    <path d="M 414.72 307.584 
L 414.72 41.472 
" style="fill:none;stroke:#000000;stroke-linecap:square;stroke-linejoin:miter;stroke-width:0.8;"/>
   </g>
   <g id="patch_5">
    <path d="M 57.6 307.584 
L 414.72 307.584 
" style="fill:none;stroke:#000000;stroke-linecap:square;stroke-linejoin:miter;stroke-width:0.8;"/>
   </g>
   <g id="patch_6">
    <path d="M 57.6 41.472 
L 414.72 41.472 
" style="fill:none;stroke:#000000;stroke-linecap:square;stroke-linejoin:miter;stroke-width:0.8;"/>
   </g>
   <g id="text_15">
    <!-- without scts -->
    <defs>
     <path d="M 4.203125 54.6875 
L 13.1875 54.6875 
L 24.421875 12.015625 
L 35.59375 54.6875 
L 46.1875 54.6875 
L 57.421875 12.015625 
L 68.609375 54.6875 
L 77.59375 54.6875 
L 63.28125 0 
L 52.6875 0 
L 40.921875 44.828125 
L 29.109375 0 
L 18.5 0 
z
" id="DejaVuSans-77"/>
     <path d="M 54.890625 33.015625 
L 54.890625 0 
L 45.90625 0 
L 45.90625 32.71875 
Q 45.90625 40.484375 42.875 44.328125 
Q 39.84375 48.1875 33.796875 48.1875 
Q 26.515625 48.1875 22.3125 43.546875 
Q 18.109375 38.921875 18.109375 30.90625 
L 18.109375 0 
L 9.078125 0 
L 9.078125 75.984375 
L 18.109375 75.984375 
L 18.109375 46.1875 
Q 21.34375 51.125 25.703125 53.5625 
Q 30.078125 56 35.796875 56 
Q 45.21875 56 50.046875 50.171875 
Q 54.890625 44.34375 54.890625 33.015625 
z
" id="DejaVuSans-68"/>
     <path d="M 8.5 21.578125 
L 8.5 54.6875 
L 17.484375 54.6875 
L 17.484375 21.921875 
Q 17.484375 14.15625 20.5 10.265625 
Q 23.53125 6.390625 29.59375 6.390625 
Q 36.859375 6.390625 41.078125 11.03125 
Q 45.3125 15.671875 45.3125 23.6875 
L 45.3125 54.6875 
L 54.296875 54.6875 
L 54.296875 0 
L 45.3125 0 
L 45.3125 8.40625 
Q 42.046875 3.421875 37.71875 1 
Q 33.40625 -1.421875 27.6875 -1.421875 
Q 18.265625 -1.421875 13.375 4.4375 
Q 8.5 10.296875 8.5 21.578125 
z
M 31.109375 56 
z
" id="DejaVuSans-75"/>
     <path d="M 44.28125 53.078125 
L 44.28125 44.578125 
Q 40.484375 46.53125 36.375 47.5 
Q 32.28125 48.484375 27.875 48.484375 
Q 21.1875 48.484375 17.84375 46.4375 
Q 14.5 44.390625 14.5 40.28125 
Q 14.5 37.15625 16.890625 35.375 
Q 19.28125 33.59375 26.515625 31.984375 
L 29.59375 31.296875 
Q 39.15625 29.25 43.1875 25.515625 
Q 47.21875 21.78125 47.21875 15.09375 
Q 47.21875 7.46875 41.1875 3.015625 
Q 35.15625 -1.421875 24.609375 -1.421875 
Q 20.21875 -1.421875 15.453125 -0.5625 
Q 10.6875 0.296875 5.421875 2 
L 5.421875 11.28125 
Q 10.40625 8.6875 15.234375 7.390625 
Q 20.0625 6.109375 24.8125 6.109375 
Q 31.15625 6.109375 34.5625 8.28125 
Q 37.984375 10.453125 37.984375 14.40625 
Q 37.984375 18.0625 35.515625 20.015625 
Q 33.0625 21.96875 24.703125 23.78125 
L 21.578125 24.515625 
Q 13.234375 26.265625 9.515625 29.90625 
Q 5.8125 33.546875 5.8125 39.890625 
Q 5.8125 47.609375 11.28125 51.796875 
Q 16.75 56 26.8125 56 
Q 31.78125 56 36.171875 55.265625 
Q 40.578125 54.546875 44.28125 53.078125 
z
" id="DejaVuSans-73"/>
     <path d="M 48.78125 52.59375 
L 48.78125 44.1875 
Q 44.96875 46.296875 41.140625 47.34375 
Q 37.3125 48.390625 33.40625 48.390625 
Q 24.65625 48.390625 19.8125 42.84375 
Q 14.984375 37.3125 14.984375 27.296875 
Q 14.984375 17.28125 19.8125 11.734375 
Q 24.65625 6.203125 33.40625 6.203125 
Q 37.3125 6.203125 41.140625 7.25 
Q 44.96875 8.296875 48.78125 10.40625 
L 48.78125 2.09375 
Q 45.015625 0.34375 40.984375 -0.53125 
Q 36.96875 -1.421875 32.421875 -1.421875 
Q 20.0625 -1.421875 12.78125 6.34375 
Q 5.515625 14.109375 5.515625 27.296875 
Q 5.515625 40.671875 12.859375 48.328125 
Q 20.21875 56 33.015625 56 
Q 37.15625 56 41.109375 55.140625 
Q 45.0625 54.296875 48.78125 52.59375 
z
" id="DejaVuSans-63"/>
    </defs>
    <g transform="translate(93.50876 218.88)scale(0.1 -0.1)">
     <use xlink:href="#DejaVuSans-77"/>
     <use x="81.787109" xlink:href="#DejaVuSans-69"/>
     <use x="109.570312" xlink:href="#DejaVuSans-74"/>
     <use x="148.779297" xlink:href="#DejaVuSans-68"/>
     <use x="212.158203" xlink:href="#DejaVuSans-6f"/>
     <use x="273.339844" xlink:href="#DejaVuSans-75"/>
     <use x="336.71875" xlink:href="#DejaVuSans-74"/>
     <use x="375.927734" xlink:href="#DejaVuSans-20"/>
     <use x="407.714844" xlink:href="#DejaVuSans-73"/>
     <use x="459.814453" xlink:href="#DejaVuSans-63"/>
     <use x="514.794922" xlink:href="#DejaVuSans-74"/>
     <use x="554.003906" xlink:href="#DejaVuSans-73"/>
    </g>
   </g>
   <g id="text_16">
    <!-- with 2 scts -->
    <g transform="translate(93.50876 112.4352)scale(0.1 -0.1)">
     <use xlink:href="#DejaVuSans-77"/>
     <use x="81.787109" xlink:href="#DejaVuSans-69"/>
     <use x="109.570312" xlink:href="#DejaVuSans-74"/>
     <use x="148.779297" xlink:href="#DejaVuSans-68"/>
     <use x="212.158203" xlink:href="#DejaVuSans-20"/>
     <use x="243.945312" xlink:href="#DejaVuSans-32"/>
     <use x="307.568359" xlink:href="#DejaVuSans-20"/>
     <use x="339.355469" xlink:href="#DejaVuSans-73"/>
     <use x="391.455078" xlink:href="#DejaVuSans-63"/>
     <use x="446.435547" xlink:href="#DejaVuSans-74"/>
     <use x="485.644531" xlink:href="#DejaVuSans-73"/>
    </g>
   </g>
   <g id="text_17">
    <!-- with 3 scts -->
    <defs>
     <path d="M 40.578125 39.3125 
Q 47.65625 37.796875 51.625 33 
Q 55.609375 28.21875 55.609375 21.1875 
Q 55.609375 10.40625 48.1875 4.484375 
Q 40.765625 -1.421875 27.09375 -1.421875 
Q 22.515625 -1.421875 17.65625 -0.515625 
Q 12.796875 0.390625 7.625 2.203125 
L 7.625 11.71875 
Q 11.71875 9.328125 16.59375 8.109375 
Q 21.484375 6.890625 26.8125 6.890625 
Q 36.078125 6.890625 40.9375 10.546875 
Q 45.796875 14.203125 45.796875 21.1875 
Q 45.796875 27.640625 41.28125 31.265625 
Q 36.765625 34.90625 28.71875 34.90625 
L 20.21875 34.90625 
L 20.21875 43.015625 
L 29.109375 43.015625 
Q 36.375 43.015625 40.234375 45.921875 
Q 44.09375 48.828125 44.09375 54.296875 
Q 44.09375 59.90625 40.109375 62.90625 
Q 36.140625 65.921875 28.71875 65.921875 
Q 24.65625 65.921875 20.015625 65.03125 
Q 15.375 64.15625 9.8125 62.3125 
L 9.8125 71.09375 
Q 15.4375 72.65625 20.34375 73.4375 
Q 25.25 74.21875 29.59375 74.21875 
Q 40.828125 74.21875 47.359375 69.109375 
Q 53.90625 64.015625 53.90625 55.328125 
Q 53.90625 49.265625 50.4375 45.09375 
Q 46.96875 40.921875 40.578125 39.3125 
z
" id="DejaVuSans-33"/>
    </defs>
    <g transform="translate(93.50876 87.0912)scale(0.1 -0.1)">
     <use xlink:href="#DejaVuSans-77"/>
     <use x="81.787109" xlink:href="#DejaVuSans-69"/>
     <use x="109.570312" xlink:href="#DejaVuSans-74"/>
     <use x="148.779297" xlink:href="#DejaVuSans-68"/>
     <use x="212.158203" xlink:href="#DejaVuSans-20"/>
     <use x="243.945312" xlink:href="#DejaVuSans-33"/>
     <use x="307.568359" xlink:href="#DejaVuSans-20"/>
     <use x="339.355469" xlink:href="#DejaVuSans-73"/>
     <use x="391.455078" xlink:href="#DejaVuSans-63"/>
     <use x="446.435547" xlink:href="#DejaVuSans-74"/>
     <use x="485.644531" xlink:href="#DejaVuSans-73"/>
    </g>
   </g>
   <g id="text_18">
    <!-- with 4 scts -->
    <g transform="translate(93.50876 66.816)scale(0.1 -0.1)">
     <use xlink:href="#DejaVuSans-77"/>
     <use x="81.787109" xlink:href="#DejaVuSans-69"/>
     <use x="109.570312" xlink:href="#DejaVuSans-74"/>
     <use x="148.779297" xlink:href="#DejaVuSans-68"/>
     <use x="212.158203" xlink:href="#DejaVuSans-20"/>
     <use x="243.945312" xlink:href="#DejaVuSans-34"/>
     <use x="307.568359" xlink:href="#DejaVuSans-20"/>
     <use x="339.355469" xlink:href="#DejaVuSans-73"/>
     <use x="391.455078" xlink:href="#DejaVuSans-63"/>
     <use x="446.435547" xlink:href="#DejaVuSans-74"/>
     <use x="485.644531" xlink:href="#DejaVuSans-73"/>
    </g>
   </g>
   <g id="text_19">
    <!-- with 5 or more scts -->
    <defs>
     <path d="M 10.796875 72.90625 
L 49.515625 72.90625 
L 49.515625 64.59375 
L 19.828125 64.59375 
L 19.828125 46.734375 
Q 21.96875 47.46875 24.109375 47.828125 
Q 26.265625 48.1875 28.421875 48.1875 
Q 40.625 48.1875 47.75 41.5 
Q 54.890625 34.8125 54.890625 23.390625 
Q 54.890625 11.625 47.5625 5.09375 
Q 40.234375 -1.421875 26.90625 -1.421875 
Q 22.3125 -1.421875 17.546875 -0.640625 
Q 12.796875 0.140625 7.71875 1.703125 
L 7.71875 11.625 
Q 12.109375 9.234375 16.796875 8.0625 
Q 21.484375 6.890625 26.703125 6.890625 
Q 35.15625 6.890625 40.078125 11.328125 
Q 45.015625 15.765625 45.015625 23.390625 
Q 45.015625 31 40.078125 35.4375 
Q 35.15625 39.890625 26.703125 39.890625 
Q 22.75 39.890625 18.8125 39.015625 
Q 14.890625 38.140625 10.796875 36.28125 
z
" id="DejaVuSans-35"/>
     <path d="M 52 44.1875 
Q 55.375 50.25 60.0625 53.125 
Q 64.75 56 71.09375 56 
Q 79.640625 56 84.28125 50.015625 
Q 88.921875 44.046875 88.921875 33.015625 
L 88.921875 0 
L 79.890625 0 
L 79.890625 32.71875 
Q 79.890625 40.578125 77.09375 44.375 
Q 74.3125 48.1875 68.609375 48.1875 
Q 61.625 48.1875 57.5625 43.546875 
Q 53.515625 38.921875 53.515625 30.90625 
L 53.515625 0 
L 44.484375 0 
L 44.484375 32.71875 
Q 44.484375 40.625 41.703125 44.40625 
Q 38.921875 48.1875 33.109375 48.1875 
Q 26.21875 48.1875 22.15625 43.53125 
Q 18.109375 38.875 18.109375 30.90625 
L 18.109375 0 
L 9.078125 0 
L 9.078125 54.6875 
L 18.109375 54.6875 
L 18.109375 46.1875 
Q 21.1875 51.21875 25.484375 53.609375 
Q 29.78125 56 35.6875 56 
Q 41.65625 56 45.828125 52.96875 
Q 50 49.953125 52 44.1875 
z
" id="DejaVuSans-6d"/>
    </defs>
    <g transform="translate(93.50876 59.2128)scale(0.1 -0.1)">
     <use xlink:href="#DejaVuSans-77"/>
     <use x="81.787109" xlink:href="#DejaVuSans-69"/>
     <use x="109.570312" xlink:href="#DejaVuSans-74"/>
     <use x="148.779297" xlink:href="#DejaVuSans-68"/>
     <use x="212.158203" xlink:href="#DejaVuSans-20"/>
     <use x="243.945312" xlink:href="#DejaVuSans-35"/>
     <use x="307.568359" xlink:href="#DejaVuSans-20"/>
     <use x="339.355469" xlink:href="#DejaVuSans-6f"/>
     <use x="400.537109" xlink:href="#DejaVuSans-72"/>
     <use x="441.650391" xlink:href="#DejaVuSans-20"/>
     <use x="473.4375" xlink:href="#DejaVuSans-6d"/>
     <use x="570.849609" xlink:href="#DejaVuSans-6f"/>
     <use x="632.03125" xlink:href="#DejaVuSans-72"/>
     <use x="673.113281" xlink:href="#DejaVuSans-65"/>
     <use x="734.636719" xlink:href="#DejaVuSans-20"/>
     <use x="766.423828" xlink:href="#DejaVuSans-73"/>
     <use x="818.523438" xlink:href="#DejaVuSans-63"/>
     <use x="873.503906" xlink:href="#DejaVuSans-74"/>
     <use x="912.712891" xlink:href="#DejaVuSans-73"/>
    </g>
   </g>
   <g id="text_20">
    <!-- 0.76 -->
    <defs>
     <path d="M 8.203125 72.90625 
L 55.078125 72.90625 
L 55.078125 68.703125 
L 28.609375 0 
L 18.3125 0 
L 43.21875 64.59375 
L 8.203125 64.59375 
z
" id="DejaVuSans-37"/>
    </defs>
    <g style="fill:#808080;" transform="translate(48.287763 112.824144)scale(0.1 -0.1)">
     <use xlink:href="#DejaVuSans-30"/>
     <use x="63.623047" xlink:href="#DejaVuSans-2e"/>
     <use x="95.410156" xlink:href="#DejaVuSans-37"/>
     <use x="159.033203" xlink:href="#DejaVuSans-36"/>
    </g>
   </g>
   <g id="text_21">
    <!-- 0.76 -->
    <g style="fill:#808080;" transform="translate(48.287763 112.814419)scale(0.1 -0.1)">
     <use xlink:href="#DejaVuSans-30"/>
     <use x="63.623047" xlink:href="#DejaVuSans-2e"/>
     <use x="95.410156" xlink:href="#DejaVuSans-37"/>
     <use x="159.033203" xlink:href="#DejaVuSans-36"/>
    </g>
   </g>
   <g id="text_22">
    <!-- 0.84 -->
    <g style="fill:#808080;" transform="translate(48.287763 91.435581)scale(0.1 -0.1)">
     <use xlink:href="#DejaVuSans-30"/>
     <use x="63.623047" xlink:href="#DejaVuSans-2e"/>
     <use x="95.410156" xlink:href="#DejaVuSans-38"/>
     <use x="159.033203" xlink:href="#DejaVuSans-34"/>
    </g>
   </g>
   <g id="text_23">
    <!-- 0.93 -->
    <defs>
     <path d="M 10.984375 1.515625 
L 10.984375 10.5 
Q 14.703125 8.734375 18.5 7.8125 
Q 22.3125 6.890625 25.984375 6.890625 
Q 35.75 6.890625 40.890625 13.453125 
Q 46.046875 20.015625 46.78125 33.40625 
Q 43.953125 29.203125 39.59375 26.953125 
Q 35.25 24.703125 29.984375 24.703125 
Q 19.046875 24.703125 12.671875 31.3125 
Q 6.296875 37.9375 6.296875 49.421875 
Q 6.296875 60.640625 12.9375 67.421875 
Q 19.578125 74.21875 30.609375 74.21875 
Q 43.265625 74.21875 49.921875 64.515625 
Q 56.59375 54.828125 56.59375 36.375 
Q 56.59375 19.140625 48.40625 8.859375 
Q 40.234375 -1.421875 26.421875 -1.421875 
Q 22.703125 -1.421875 18.890625 -0.6875 
Q 15.09375 0.046875 10.984375 1.515625 
z
M 30.609375 32.421875 
Q 37.25 32.421875 41.125 36.953125 
Q 45.015625 41.5 45.015625 49.421875 
Q 45.015625 57.28125 41.125 61.84375 
Q 37.25 66.40625 30.609375 66.40625 
Q 23.96875 66.40625 20.09375 61.84375 
Q 16.21875 57.28125 16.21875 49.421875 
Q 16.21875 41.5 20.09375 36.953125 
Q 23.96875 32.421875 30.609375 32.421875 
z
" id="DejaVuSans-39"/>
    </defs>
    <g style="fill:#808080;" transform="translate(48.287763 69.77729)scale(0.1 -0.1)">
     <use xlink:href="#DejaVuSans-30"/>
     <use x="63.623047" xlink:href="#DejaVuSans-2e"/>
     <use x="95.410156" xlink:href="#DejaVuSans-39"/>
     <use x="159.033203" xlink:href="#DejaVuSans-33"/>
    </g>
   </g>
   <g id="text_24">
    <!-- 0.98 -->
    <g style="fill:#808080;" transform="translate(48.287763 58.351474)scale(0.1 -0.1)">
     <use xlink:href="#DejaVuSans-30"/>
     <use x="63.623047" xlink:href="#DejaVuSans-2e"/>
     <use x="95.410156" xlink:href="#DejaVuSans-39"/>
     <use x="159.033203" xlink:href="#DejaVuSans-38"/>
    </g>
   </g>
   <g id="text_25">
    <!-- Non-EV Certificates with or without SCTs -->
    <defs>
     <path d="M 9.8125 72.90625 
L 23.09375 72.90625 
L 55.421875 11.921875 
L 55.421875 72.90625 
L 64.984375 72.90625 
L 64.984375 0 
L 51.703125 0 
L 19.390625 60.984375 
L 19.390625 0 
L 9.8125 0 
z
" id="DejaVuSans-4e"/>
     <path d="M 4.890625 31.390625 
L 31.203125 31.390625 
L 31.203125 23.390625 
L 4.890625 23.390625 
z
" id="DejaVuSans-2d"/>
     <path d="M 9.8125 72.90625 
L 55.90625 72.90625 
L 55.90625 64.59375 
L 19.671875 64.59375 
L 19.671875 43.015625 
L 54.390625 43.015625 
L 54.390625 34.71875 
L 19.671875 34.71875 
L 19.671875 8.296875 
L 56.78125 8.296875 
L 56.78125 0 
L 9.8125 0 
z
" id="DejaVuSans-45"/>
     <path d="M 28.609375 0 
L 0.78125 72.90625 
L 11.078125 72.90625 
L 34.1875 11.53125 
L 57.328125 72.90625 
L 67.578125 72.90625 
L 39.796875 0 
z
" id="DejaVuSans-56"/>
     <path d="M 64.40625 67.28125 
L 64.40625 56.890625 
Q 59.421875 61.53125 53.78125 63.8125 
Q 48.140625 66.109375 41.796875 66.109375 
Q 29.296875 66.109375 22.65625 58.46875 
Q 16.015625 50.828125 16.015625 36.375 
Q 16.015625 21.96875 22.65625 14.328125 
Q 29.296875 6.6875 41.796875 6.6875 
Q 48.140625 6.6875 53.78125 8.984375 
Q 59.421875 11.28125 64.40625 15.921875 
L 64.40625 5.609375 
Q 59.234375 2.09375 53.4375 0.328125 
Q 47.65625 -1.421875 41.21875 -1.421875 
Q 24.65625 -1.421875 15.125 8.703125 
Q 5.609375 18.84375 5.609375 36.375 
Q 5.609375 53.953125 15.125 64.078125 
Q 24.65625 74.21875 41.21875 74.21875 
Q 47.75 74.21875 53.53125 72.484375 
Q 59.328125 70.75 64.40625 67.28125 
z
" id="DejaVuSans-43"/>
     <path d="M 37.109375 75.984375 
L 37.109375 68.5 
L 28.515625 68.5 
Q 23.6875 68.5 21.796875 66.546875 
Q 19.921875 64.59375 19.921875 59.515625 
L 19.921875 54.6875 
L 34.71875 54.6875 
L 34.71875 47.703125 
L 19.921875 47.703125 
L 19.921875 0 
L 10.890625 0 
L 10.890625 47.703125 
L 2.296875 47.703125 
L 2.296875 54.6875 
L 10.890625 54.6875 
L 10.890625 58.5 
Q 10.890625 67.625 15.140625 71.796875 
Q 19.390625 75.984375 28.609375 75.984375 
z
" id="DejaVuSans-66"/>
     <path d="M 53.515625 70.515625 
L 53.515625 60.890625 
Q 47.90625 63.578125 42.921875 64.890625 
Q 37.9375 66.21875 33.296875 66.21875 
Q 25.25 66.21875 20.875 63.09375 
Q 16.5 59.96875 16.5 54.203125 
Q 16.5 49.359375 19.40625 46.890625 
Q 22.3125 44.4375 30.421875 42.921875 
L 36.375 41.703125 
Q 47.40625 39.59375 52.65625 34.296875 
Q 57.90625 29 57.90625 20.125 
Q 57.90625 9.515625 50.796875 4.046875 
Q 43.703125 -1.421875 29.984375 -1.421875 
Q 24.8125 -1.421875 18.96875 -0.25 
Q 13.140625 0.921875 6.890625 3.21875 
L 6.890625 13.375 
Q 12.890625 10.015625 18.65625 8.296875 
Q 24.421875 6.59375 29.984375 6.59375 
Q 38.421875 6.59375 43.015625 9.90625 
Q 47.609375 13.234375 47.609375 19.390625 
Q 47.609375 24.75 44.3125 27.78125 
Q 41.015625 30.8125 33.5 32.328125 
L 27.484375 33.5 
Q 16.453125 35.6875 11.515625 40.375 
Q 6.59375 45.0625 6.59375 53.421875 
Q 6.59375 63.09375 13.40625 68.65625 
Q 20.21875 74.21875 32.171875 74.21875 
Q 37.3125 74.21875 42.625 73.28125 
Q 47.953125 72.359375 53.515625 70.515625 
z
" id="DejaVuSans-53"/>
     <path d="M -0.296875 72.90625 
L 61.375 72.90625 
L 61.375 64.59375 
L 35.5 64.59375 
L 35.5 0 
L 25.59375 0 
L 25.59375 64.59375 
L -0.296875 64.59375 
z
" id="DejaVuSans-54"/>
    </defs>
    <g transform="translate(114.11625 35.472)scale(0.12 -0.12)">
     <use xlink:href="#DejaVuSans-4e"/>
     <use x="74.804688" xlink:href="#DejaVuSans-6f"/>
     <use x="135.986328" xlink:href="#DejaVuSans-6e"/>
     <use x="199.365234" xlink:href="#DejaVuSans-2d"/>
     <use x="235.449219" xlink:href="#DejaVuSans-45"/>
     <use x="298.632812" xlink:href="#DejaVuSans-56"/>
     <use x="367.041016" xlink:href="#DejaVuSans-20"/>
     <use x="398.828125" xlink:href="#DejaVuSans-43"/>
     <use x="468.652344" xlink:href="#DejaVuSans-65"/>
     <use x="530.175781" xlink:href="#DejaVuSans-72"/>
     <use x="571.289062" xlink:href="#DejaVuSans-74"/>
     <use x="610.498047" xlink:href="#DejaVuSans-69"/>
     <use x="638.28125" xlink:href="#DejaVuSans-66"/>
     <use x="673.486328" xlink:href="#DejaVuSans-69"/>
     <use x="701.269531" xlink:href="#DejaVuSans-63"/>
     <use x="756.25" xlink:href="#DejaVuSans-61"/>
     <use x="817.529297" xlink:href="#DejaVuSans-74"/>
     <use x="856.738281" xlink:href="#DejaVuSans-65"/>
     <use x="918.261719" xlink:href="#DejaVuSans-73"/>
     <use x="970.361328" xlink:href="#DejaVuSans-20"/>
     <use x="1002.148438" xlink:href="#DejaVuSans-77"/>
     <use x="1083.935547" xlink:href="#DejaVuSans-69"/>
     <use x="1111.71875" xlink:href="#DejaVuSans-74"/>
     <use x="1150.927734" xlink:href="#DejaVuSans-68"/>
     <use x="1214.306641" xlink:href="#DejaVuSans-20"/>
     <use x="1246.09375" xlink:href="#DejaVuSans-6f"/>
     <use x="1307.275391" xlink:href="#DejaVuSans-72"/>
     <use x="1348.388672" xlink:href="#DejaVuSans-20"/>
     <use x="1380.175781" xlink:href="#DejaVuSans-77"/>
     <use x="1461.962891" xlink:href="#DejaVuSans-69"/>
     <use x="1489.746094" xlink:href="#DejaVuSans-74"/>
     <use x="1528.955078" xlink:href="#DejaVuSans-68"/>
     <use x="1592.333984" xlink:href="#DejaVuSans-6f"/>
     <use x="1653.515625" xlink:href="#DejaVuSans-75"/>
     <use x="1716.894531" xlink:href="#DejaVuSans-74"/>
     <use x="1756.103516" xlink:href="#DejaVuSans-20"/>
     <use x="1787.890625" xlink:href="#DejaVuSans-53"/>
     <use x="1851.367188" xlink:href="#DejaVuSans-43"/>
     <use x="1921.191406" xlink:href="#DejaVuSans-54"/>
     <use x="1982.025391" xlink:href="#DejaVuSans-73"/>
    </g>
   </g>
  </g>
 </g>
 <defs>
  <clipPath id="p1439a40d0a">
   <rect height="266.112" width="357.12" x="57.6" y="41.472"/>
  </clipPath>
 </defs>
</svg>
