<?xml version="1.0" encoding="utf-8" standalone="no"?>
<!DOCTYPE svg PUBLIC "-//W3C//DTD SVG 1.1//EN"
  "http://www.w3.org/Graphics/SVG/1.1/DTD/svg11.dtd">
<!-- Created with matplotlib (http://matplotlib.org/) -->
<svg height="345pt" version="1.1" viewBox="0 0 460 345" width="460pt" xmlns="http://www.w3.org/2000/svg" xmlns:xlink="http://www.w3.org/1999/xlink">
 <defs>
  <style type="text/css">
*{stroke-linecap:butt;stroke-linejoin:round;}
  </style>
 </defs>
 <g id="figure_1">
  <g id="patch_1">
   <path d="M 0 345.6 
L 460.8 345.6 
L 460.8 0 
L 0 0 
z
" style="fill:#ffffff;"/>
  </g>
  <g id="axes_1">
   <g id="patch_2">
    <path d="M 57.6 307.584 
L 414.72 307.584 
L 414.72 41.472 
L 57.6 41.472 
z
" style="fill:#ffffff;"/>
   </g>
   <g id="PolyCollection_1">
    <path clip-path="url(#p7c2655eee7)" d="M 73.832727 151.436864 
L 73.832727 307.584 
L 77.112066 307.584 
L 80.391405 307.584 
L 83.670744 307.584 
L 86.950083 307.584 
L 90.229421 307.584 
L 93.50876 307.584 
L 96.788099 307.584 
L 100.067438 307.584 
L 103.346777 307.584 
L 106.626116 307.584 
L 109.905455 307.584 
L 113.184793 307.584 
L 116.464132 307.584 
L 119.743471 307.584 
L 123.02281 307.584 
L 126.302149 307.584 
L 129.581488 307.584 
L 132.860826 307.584 
L 136.140165 307.584 
L 139.419504 307.584 
L 142.698843 307.584 
L 145.978182 307.584 
L 149.257521 307.584 
L 152.53686 307.584 
L 155.816198 307.584 
L 159.095537 307.584 
L 162.374876 307.584 
L 165.654215 307.584 
L 168.933554 307.584 
L 172.212893 307.584 
L 175.492231 307.584 
L 178.77157 307.584 
L 182.050909 307.584 
L 185.330248 307.584 
L 188.609587 307.584 
L 191.888926 307.584 
L 195.168264 307.584 
L 198.447603 307.584 
L 201.726942 307.584 
L 205.006281 307.584 
L 208.28562 307.584 
L 211.564959 307.584 
L 214.844298 307.584 
L 218.123636 307.584 
L 221.402975 307.584 
L 224.682314 307.584 
L 227.961653 307.584 
L 231.240992 307.584 
L 234.520331 307.584 
L 237.799669 307.584 
L 241.079008 307.584 
L 244.358347 307.584 
L 247.637686 307.584 
L 250.917025 307.584 
L 254.196364 307.584 
L 257.475702 307.584 
L 260.755041 307.584 
L 264.03438 307.584 
L 267.313719 307.584 
L 270.593058 307.584 
L 273.872397 307.584 
L 277.151736 307.584 
L 280.431074 307.584 
L 283.710413 307.584 
L 286.989752 307.584 
L 290.269091 307.584 
L 293.54843 307.584 
L 296.827769 307.584 
L 300.107107 307.584 
L 303.386446 307.584 
L 306.665785 307.584 
L 309.945124 307.584 
L 313.224463 307.584 
L 316.503802 307.584 
L 319.78314 307.584 
L 323.062479 307.584 
L 326.341818 307.584 
L 329.621157 307.584 
L 332.900496 307.584 
L 336.179835 307.584 
L 339.459174 307.584 
L 342.738512 307.584 
L 346.017851 307.584 
L 349.29719 307.584 
L 352.576529 307.584 
L 355.855868 307.584 
L 359.135207 307.584 
L 362.414545 307.584 
L 365.693884 307.584 
L 368.973223 307.584 
L 372.252562 307.584 
L 375.531901 307.584 
L 378.81124 307.584 
L 382.090579 307.584 
L 385.369917 307.584 
L 388.649256 307.584 
L 391.928595 307.584 
L 395.207934 307.584 
L 398.487273 307.584 
L 398.487273 108.701605 
L 398.487273 108.701605 
L 395.207934 106.322824 
L 391.928595 105.508341 
L 388.649256 106.34597 
L 385.369917 106.940851 
L 382.090579 109.769782 
L 378.81124 106.991354 
L 375.531901 106.485683 
L 372.252562 106.783318 
L 368.973223 109.22127 
L 365.693884 106.839446 
L 362.414545 107.477718 
L 359.135207 107.047079 
L 355.855868 107.270196 
L 352.576529 107.987825 
L 349.29719 106.710753 
L 346.017851 106.065863 
L 342.738512 105.4746 
L 339.459174 105.841841 
L 336.179835 106.314618 
L 332.900496 107.284645 
L 329.621157 109.423755 
L 326.341818 107.489741 
L 323.062479 106.619028 
L 319.78314 106.158545 
L 316.503802 106.364304 
L 313.224463 107.817721 
L 309.945124 107.771527 
L 306.665785 106.821708 
L 303.386446 108.360763 
L 300.107107 101.356826 
L 296.827769 108.710543 
L 293.54843 105.976094 
L 290.269091 109.15209 
L 286.989752 107.501797 
L 283.710413 106.440532 
L 280.431074 108.276441 
L 277.151736 108.444194 
L 273.872397 108.422368 
L 270.593058 107.113273 
L 267.313719 109.844236 
L 264.03438 107.07201 
L 260.755041 107.118385 
L 257.475702 108.046136 
L 254.196364 106.905033 
L 250.917025 105.308861 
L 247.637686 106.16007 
L 244.358347 107.487348 
L 241.079008 106.102708 
L 237.799669 108.393218 
L 234.520331 108.366884 
L 231.240992 109.358137 
L 227.961653 106.153251 
L 224.682314 105.257618 
L 221.402975 107.124541 
L 218.123636 110.36374 
L 214.844298 107.563399 
L 211.564959 108.198966 
L 208.28562 108.100643 
L 205.006281 108.939695 
L 201.726942 107.838247 
L 198.447603 107.655449 
L 195.168264 105.255265 
L 191.888926 108.27143 
L 188.609587 106.187553 
L 185.330248 109.140872 
L 182.050909 106.439258 
L 178.77157 106.17927 
L 175.492231 110.651764 
L 172.212893 106.716037 
L 168.933554 109.706312 
L 165.654215 107.394109 
L 162.374876 110.689352 
L 159.095537 109.063431 
L 155.816198 110.587871 
L 152.53686 111.42647 
L 149.257521 109.528332 
L 145.978182 110.139429 
L 142.698843 111.020051 
L 139.419504 111.185353 
L 136.140165 110.409637 
L 132.860826 109.772108 
L 129.581488 111.053064 
L 126.302149 112.639769 
L 123.02281 114.715617 
L 119.743471 114.08397 
L 116.464132 112.992558 
L 113.184793 114.751927 
L 109.905455 110.942311 
L 106.626116 117.276826 
L 103.346777 116.828246 
L 100.067438 115.121085 
L 96.788099 117.334814 
L 93.50876 117.418146 
L 90.229421 123.072256 
L 86.950083 120.308861 
L 83.670744 124.801561 
L 80.391405 129.567541 
L 77.112066 138.098397 
L 73.832727 151.436864 
z
" style="fill:#fdae6b;"/>
   </g>
   <g id="PolyCollection_2">
    <path clip-path="url(#p7c2655eee7)" d="M 73.832727 151.436864 
L 73.832727 151.436864 
L 77.112066 138.098397 
L 80.391405 129.567541 
L 83.670744 124.801561 
L 86.950083 120.308861 
L 90.229421 123.072256 
L 93.50876 117.418146 
L 96.788099 117.334814 
L 100.067438 115.121085 
L 103.346777 116.828246 
L 106.626116 117.276826 
L 109.905455 110.942311 
L 113.184793 114.751927 
L 116.464132 112.992558 
L 119.743471 114.08397 
L 123.02281 114.715617 
L 126.302149 112.639769 
L 129.581488 111.053064 
L 132.860826 109.772108 
L 136.140165 110.409637 
L 139.419504 111.185353 
L 142.698843 111.020051 
L 145.978182 110.139429 
L 149.257521 109.528332 
L 152.53686 111.42647 
L 155.816198 110.587871 
L 159.095537 109.063431 
L 162.374876 110.689352 
L 165.654215 107.394109 
L 168.933554 109.706312 
L 172.212893 106.716037 
L 175.492231 110.651764 
L 178.77157 106.17927 
L 182.050909 106.439258 
L 185.330248 109.140872 
L 188.609587 106.187553 
L 191.888926 108.27143 
L 195.168264 105.255265 
L 198.447603 107.655449 
L 201.726942 107.838247 
L 205.006281 108.939695 
L 208.28562 108.100643 
L 211.564959 108.198966 
L 214.844298 107.563399 
L 218.123636 110.36374 
L 221.402975 107.124541 
L 224.682314 105.257618 
L 227.961653 106.153251 
L 231.240992 109.358137 
L 234.520331 108.366884 
L 237.799669 108.393218 
L 241.079008 106.102708 
L 244.358347 107.487348 
L 247.637686 106.16007 
L 250.917025 105.308861 
L 254.196364 106.905033 
L 257.475702 108.046136 
L 260.755041 107.118385 
L 264.03438 107.07201 
L 267.313719 109.844236 
L 270.593058 107.113273 
L 273.872397 108.422368 
L 277.151736 108.444194 
L 280.431074 108.276441 
L 283.710413 106.440532 
L 286.989752 107.501797 
L 290.269091 109.15209 
L 293.54843 105.976094 
L 296.827769 108.710543 
L 300.107107 101.356826 
L 303.386446 108.360763 
L 306.665785 106.821708 
L 309.945124 107.771527 
L 313.224463 107.817721 
L 316.503802 106.364304 
L 319.78314 106.158545 
L 323.062479 106.619028 
L 326.341818 107.489741 
L 329.621157 109.423755 
L 332.900496 107.284645 
L 336.179835 106.314618 
L 339.459174 105.841841 
L 342.738512 105.4746 
L 346.017851 106.065863 
L 349.29719 106.710753 
L 352.576529 107.987825 
L 355.855868 107.270196 
L 359.135207 107.047079 
L 362.414545 107.477718 
L 365.693884 106.839446 
L 368.973223 109.22127 
L 372.252562 106.783318 
L 375.531901 106.485683 
L 378.81124 106.991354 
L 382.090579 109.769782 
L 385.369917 106.940851 
L 388.649256 106.34597 
L 391.928595 105.508341 
L 395.207934 106.322824 
L 398.487273 108.701605 
L 398.487273 108.701605 
L 398.487273 108.701605 
L 395.207934 106.284985 
L 391.928595 105.508341 
L 388.649256 106.308495 
L 385.369917 106.940851 
L 382.090579 109.769782 
L 378.81124 106.991354 
L 375.531901 106.448269 
L 372.252562 106.783318 
L 368.973223 109.22127 
L 365.693884 106.839446 
L 362.414545 107.477718 
L 359.135207 107.047079 
L 355.855868 107.270196 
L 352.576529 107.987825 
L 349.29719 106.710753 
L 346.017851 106.027544 
L 342.738512 105.4746 
L 339.459174 105.76648 
L 336.179835 106.314618 
L 332.900496 107.284645 
L 329.621157 109.34606 
L 326.341818 107.451555 
L 323.062479 106.619028 
L 319.78314 106.158545 
L 316.503802 106.364304 
L 313.224463 107.817721 
L 309.945124 107.771527 
L 306.665785 106.783591 
L 303.386446 108.360763 
L 300.107107 101.356826 
L 296.827769 108.710543 
L 293.54843 105.937442 
L 290.269091 109.15209 
L 286.989752 107.463657 
L 283.710413 106.440532 
L 280.431074 108.276441 
L 277.151736 108.444194 
L 273.872397 108.422368 
L 270.593058 107.07421 
L 267.313719 109.765674 
L 264.03438 107.07201 
L 260.755041 107.118385 
L 257.475702 108.046136 
L 254.196364 106.905033 
L 250.917025 105.308861 
L 247.637686 106.16007 
L 244.358347 107.487348 
L 241.079008 106.063729 
L 237.799669 108.393218 
L 234.520331 108.366884 
L 231.240992 109.358137 
L 227.961653 106.153251 
L 224.682314 105.218209 
L 221.402975 107.124541 
L 218.123636 110.324508 
L 214.844298 107.523113 
L 211.564959 108.198966 
L 208.28562 108.020529 
L 205.006281 108.900045 
L 201.726942 107.838247 
L 198.447603 107.616015 
L 195.168264 105.255265 
L 191.888926 108.27143 
L 188.609587 106.147209 
L 185.330248 109.140872 
L 182.050909 106.439258 
L 178.77157 106.17927 
L 175.492231 110.651764 
L 172.212893 106.716037 
L 168.933554 109.665961 
L 165.654215 107.394109 
L 162.374876 110.689352 
L 159.095537 109.0229 
L 155.816198 110.587871 
L 152.53686 111.42647 
L 149.257521 109.528332 
L 145.978182 110.098286 
L 142.698843 111.020051 
L 139.419504 111.185353 
L 136.140165 110.409637 
L 132.860826 109.730595 
L 129.581488 111.053064 
L 126.302149 112.639769 
L 123.02281 114.715617 
L 119.743471 114.08397 
L 116.464132 112.992558 
L 113.184793 114.751927 
L 109.905455 110.942311 
L 106.626116 117.276826 
L 103.346777 116.828246 
L 100.067438 115.121085 
L 96.788099 117.334814 
L 93.50876 117.418146 
L 90.229421 123.072256 
L 86.950083 120.308861 
L 83.670744 124.801561 
L 80.391405 129.567541 
L 77.112066 138.098397 
L 73.832727 151.436864 
z
" style="fill:#c6dbef;"/>
   </g>
   <g id="PolyCollection_3">
    <path clip-path="url(#p7c2655eee7)" d="M 73.832727 121.372945 
L 73.832727 151.436864 
L 77.112066 138.098397 
L 80.391405 129.567541 
L 83.670744 124.801561 
L 86.950083 120.308861 
L 90.229421 123.072256 
L 93.50876 117.418146 
L 96.788099 117.334814 
L 100.067438 115.121085 
L 103.346777 116.828246 
L 106.626116 117.276826 
L 109.905455 110.942311 
L 113.184793 114.751927 
L 116.464132 112.992558 
L 119.743471 114.08397 
L 123.02281 114.715617 
L 126.302149 112.639769 
L 129.581488 111.053064 
L 132.860826 109.730595 
L 136.140165 110.409637 
L 139.419504 111.185353 
L 142.698843 111.020051 
L 145.978182 110.098286 
L 149.257521 109.528332 
L 152.53686 111.42647 
L 155.816198 110.587871 
L 159.095537 109.0229 
L 162.374876 110.689352 
L 165.654215 107.394109 
L 168.933554 109.665961 
L 172.212893 106.716037 
L 175.492231 110.651764 
L 178.77157 106.17927 
L 182.050909 106.439258 
L 185.330248 109.140872 
L 188.609587 106.147209 
L 191.888926 108.27143 
L 195.168264 105.255265 
L 198.447603 107.616015 
L 201.726942 107.838247 
L 205.006281 108.900045 
L 208.28562 108.020529 
L 211.564959 108.198966 
L 214.844298 107.523113 
L 218.123636 110.324508 
L 221.402975 107.124541 
L 224.682314 105.218209 
L 227.961653 106.153251 
L 231.240992 109.358137 
L 234.520331 108.366884 
L 237.799669 108.393218 
L 241.079008 106.063729 
L 244.358347 107.487348 
L 247.637686 106.16007 
L 250.917025 105.308861 
L 254.196364 106.905033 
L 257.475702 108.046136 
L 260.755041 107.118385 
L 264.03438 107.07201 
L 267.313719 109.765674 
L 270.593058 107.07421 
L 273.872397 108.422368 
L 277.151736 108.444194 
L 280.431074 108.276441 
L 283.710413 106.440532 
L 286.989752 107.463657 
L 290.269091 109.15209 
L 293.54843 105.937442 
L 296.827769 108.710543 
L 300.107107 101.356826 
L 303.386446 108.360763 
L 306.665785 106.783591 
L 309.945124 107.771527 
L 313.224463 107.817721 
L 316.503802 106.364304 
L 319.78314 106.158545 
L 323.062479 106.619028 
L 326.341818 107.451555 
L 329.621157 109.34606 
L 332.900496 107.284645 
L 336.179835 106.314618 
L 339.459174 105.76648 
L 342.738512 105.4746 
L 346.017851 106.027544 
L 349.29719 106.710753 
L 352.576529 107.987825 
L 355.855868 107.270196 
L 359.135207 107.047079 
L 362.414545 107.477718 
L 365.693884 106.839446 
L 368.973223 109.22127 
L 372.252562 106.783318 
L 375.531901 106.448269 
L 378.81124 106.991354 
L 382.090579 109.769782 
L 385.369917 106.940851 
L 388.649256 106.308495 
L 391.928595 105.508341 
L 395.207934 106.284985 
L 398.487273 108.701605 
L 398.487273 88.280816 
L 398.487273 88.280816 
L 395.207934 87.290229 
L 391.928595 85.744154 
L 388.649256 86.222166 
L 385.369917 87.477445 
L 382.090579 89.586976 
L 378.81124 87.443516 
L 375.531901 87.479554 
L 372.252562 87.270135 
L 368.973223 89.388841 
L 365.693884 86.536871 
L 362.414545 88.035119 
L 359.135207 86.685102 
L 355.855868 87.912631 
L 352.576529 87.572366 
L 349.29719 85.891098 
L 346.017851 86.906504 
L 342.738512 84.919134 
L 339.459174 86.43631 
L 336.179835 86.705799 
L 332.900496 88.412267 
L 329.621157 90.466256 
L 326.341818 87.823988 
L 323.062479 87.347896 
L 319.78314 86.376727 
L 316.503802 87.80132 
L 313.224463 87.46403 
L 309.945124 88.928404 
L 306.665785 87.496384 
L 303.386446 88.380017 
L 300.107107 83.942259 
L 296.827769 89.121546 
L 293.54843 87.22996 
L 290.269091 90.94769 
L 286.989752 88.508099 
L 283.710413 87.507571 
L 280.431074 89.590154 
L 277.151736 88.545851 
L 273.872397 89.778594 
L 270.593058 88.714654 
L 267.313719 90.675184 
L 264.03438 88.288594 
L 260.755041 88.517284 
L 257.475702 89.245748 
L 254.196364 89.058244 
L 250.917025 87.328849 
L 247.637686 87.70148 
L 244.358347 90.389111 
L 241.079008 87.977577 
L 237.799669 89.795747 
L 234.520331 89.332892 
L 231.240992 90.400494 
L 227.961653 87.455545 
L 224.682314 86.420063 
L 221.402975 89.280537 
L 218.123636 89.923765 
L 214.844298 89.595788 
L 211.564959 89.568952 
L 208.28562 90.115095 
L 205.006281 90.026854 
L 201.726942 89.256329 
L 198.447603 88.254098 
L 195.168264 87.725698 
L 191.888926 90.440285 
L 188.609587 89.283484 
L 185.330248 91.161125 
L 182.050909 89.416577 
L 178.77157 88.309793 
L 175.492231 92.269224 
L 172.212893 89.850204 
L 168.933554 91.952196 
L 165.654215 89.242488 
L 162.374876 92.841465 
L 159.095537 89.73017 
L 155.816198 91.965935 
L 152.53686 93.862507 
L 149.257521 92.200486 
L 145.978182 92.941714 
L 142.698843 93.266144 
L 139.419504 93.505392 
L 136.140165 93.162996 
L 132.860826 92.959135 
L 129.581488 92.24905 
L 126.302149 93.974452 
L 123.02281 95.499794 
L 119.743471 96.868066 
L 116.464132 93.768976 
L 113.184793 96.723249 
L 109.905455 93.555926 
L 106.626116 97.891284 
L 103.346777 96.920313 
L 100.067438 96.781152 
L 96.788099 97.20173 
L 93.50876 98.186927 
L 90.229421 102.697502 
L 86.950083 101.154752 
L 83.670744 104.497171 
L 80.391405 109.581359 
L 77.112066 115.426448 
L 73.832727 121.372945 
z
" style="fill:#9ecae1;"/>
   </g>
   <g id="PolyCollection_4">
    <path clip-path="url(#p7c2655eee7)" d="M 73.832727 69.156663 
L 73.832727 121.372945 
L 77.112066 115.426448 
L 80.391405 109.581359 
L 83.670744 104.497171 
L 86.950083 101.154752 
L 90.229421 102.697502 
L 93.50876 98.186927 
L 96.788099 97.20173 
L 100.067438 96.781152 
L 103.346777 96.920313 
L 106.626116 97.891284 
L 109.905455 93.555926 
L 113.184793 96.723249 
L 116.464132 93.768976 
L 119.743471 96.868066 
L 123.02281 95.499794 
L 126.302149 93.974452 
L 129.581488 92.24905 
L 132.860826 92.959135 
L 136.140165 93.162996 
L 139.419504 93.505392 
L 142.698843 93.266144 
L 145.978182 92.941714 
L 149.257521 92.200486 
L 152.53686 93.862507 
L 155.816198 91.965935 
L 159.095537 89.73017 
L 162.374876 92.841465 
L 165.654215 89.242488 
L 168.933554 91.952196 
L 172.212893 89.850204 
L 175.492231 92.269224 
L 178.77157 88.309793 
L 182.050909 89.416577 
L 185.330248 91.161125 
L 188.609587 89.283484 
L 191.888926 90.440285 
L 195.168264 87.725698 
L 198.447603 88.254098 
L 201.726942 89.256329 
L 205.006281 90.026854 
L 208.28562 90.115095 
L 211.564959 89.568952 
L 214.844298 89.595788 
L 218.123636 89.923765 
L 221.402975 89.280537 
L 224.682314 86.420063 
L 227.961653 87.455545 
L 231.240992 90.400494 
L 234.520331 89.332892 
L 237.799669 89.795747 
L 241.079008 87.977577 
L 244.358347 90.389111 
L 247.637686 87.70148 
L 250.917025 87.328849 
L 254.196364 89.058244 
L 257.475702 89.245748 
L 260.755041 88.517284 
L 264.03438 88.288594 
L 267.313719 90.675184 
L 270.593058 88.714654 
L 273.872397 89.778594 
L 277.151736 88.545851 
L 280.431074 89.590154 
L 283.710413 87.507571 
L 286.989752 88.508099 
L 290.269091 90.94769 
L 293.54843 87.22996 
L 296.827769 89.121546 
L 300.107107 83.942259 
L 303.386446 88.380017 
L 306.665785 87.496384 
L 309.945124 88.928404 
L 313.224463 87.46403 
L 316.503802 87.80132 
L 319.78314 86.376727 
L 323.062479 87.347896 
L 326.341818 87.823988 
L 329.621157 90.466256 
L 332.900496 88.412267 
L 336.179835 86.705799 
L 339.459174 86.43631 
L 342.738512 84.919134 
L 346.017851 86.906504 
L 349.29719 85.891098 
L 352.576529 87.572366 
L 355.855868 87.912631 
L 359.135207 86.685102 
L 362.414545 88.035119 
L 365.693884 86.536871 
L 368.973223 89.388841 
L 372.252562 87.270135 
L 375.531901 87.479554 
L 378.81124 87.443516 
L 382.090579 89.586976 
L 385.369917 87.477445 
L 388.649256 86.222166 
L 391.928595 85.744154 
L 395.207934 87.290229 
L 398.487273 88.280816 
L 398.487273 74.83298 
L 398.487273 74.83298 
L 395.207934 74.273901 
L 391.928595 73.382144 
L 388.649256 72.394078 
L 385.369917 74.023129 
L 382.090579 74.364672 
L 378.81124 73.881256 
L 375.531901 73.037888 
L 372.252562 73.502929 
L 368.973223 74.053299 
L 365.693884 73.077861 
L 362.414545 74.501545 
L 359.135207 73.173884 
L 355.855868 74.046849 
L 352.576529 73.468556 
L 349.29719 71.896303 
L 346.017851 73.226721 
L 342.738512 72.105839 
L 339.459174 72.494473 
L 336.179835 72.796291 
L 332.900496 73.51302 
L 329.621157 74.500002 
L 326.341818 73.466079 
L 323.062479 73.225829 
L 319.78314 72.374303 
L 316.503802 73.01192 
L 313.224463 73.266465 
L 309.945124 73.477044 
L 306.665785 71.86841 
L 303.386446 73.423668 
L 300.107107 70.62979 
L 296.827769 73.57597 
L 293.54843 72.155749 
L 290.269091 74.559781 
L 286.989752 72.336758 
L 283.710413 72.846071 
L 280.431074 73.2541 
L 277.151736 71.579484 
L 273.872397 73.479708 
L 270.593058 73.206688 
L 267.313719 72.723839 
L 264.03438 71.955189 
L 260.755041 72.39633 
L 257.475702 72.867495 
L 254.196364 71.484221 
L 250.917025 71.107751 
L 247.637686 71.495865 
L 244.358347 72.069571 
L 241.079008 71.411598 
L 237.799669 71.831382 
L 234.520331 71.498522 
L 231.240992 73.220129 
L 227.961653 71.200152 
L 224.682314 69.631781 
L 221.402975 71.830441 
L 218.123636 71.99465 
L 214.844298 71.789322 
L 211.564959 71.856476 
L 208.28562 72.249718 
L 205.006281 71.35191 
L 201.726942 71.463452 
L 198.447603 71.297633 
L 195.168264 70.994745 
L 191.888926 72.846889 
L 188.609587 70.84635 
L 185.330248 71.575345 
L 182.050909 71.047918 
L 178.77157 71.005041 
L 175.492231 71.908293 
L 172.212893 70.104838 
L 168.933554 72.261268 
L 165.654215 69.966431 
L 162.374876 71.586254 
L 159.095537 70.113192 
L 155.816198 71.196903 
L 152.53686 71.947471 
L 149.257521 70.41922 
L 145.978182 71.547429 
L 142.698843 69.792858 
L 139.419504 70.517359 
L 136.140165 70.982919 
L 132.860826 68.881297 
L 129.581488 69.634531 
L 126.302149 70.22617 
L 123.02281 68.47232 
L 119.743471 71.528275 
L 116.464132 69.371432 
L 113.184793 69.430989 
L 109.905455 68.604792 
L 106.626116 70.543822 
L 103.346777 68.98914 
L 100.067438 68.228728 
L 96.788099 68.778553 
L 93.50876 67.751805 
L 90.229421 68.781763 
L 86.950083 67.325781 
L 83.670744 67.880585 
L 80.391405 68.256864 
L 77.112066 68.676208 
L 73.832727 69.156663 
z
" style="fill:#6baed6;"/>
   </g>
   <g id="PolyCollection_5">
    <path clip-path="url(#p7c2655eee7)" d="M 73.832727 57.308623 
L 73.832727 69.156663 
L 77.112066 68.676208 
L 80.391405 68.256864 
L 83.670744 67.880585 
L 86.950083 67.325781 
L 90.229421 68.781763 
L 93.50876 67.751805 
L 96.788099 68.778553 
L 100.067438 68.228728 
L 103.346777 68.98914 
L 106.626116 70.543822 
L 109.905455 68.604792 
L 113.184793 69.430989 
L 116.464132 69.371432 
L 119.743471 71.528275 
L 123.02281 68.47232 
L 126.302149 70.22617 
L 129.581488 69.634531 
L 132.860826 68.881297 
L 136.140165 70.982919 
L 139.419504 70.517359 
L 142.698843 69.792858 
L 145.978182 71.547429 
L 149.257521 70.41922 
L 152.53686 71.947471 
L 155.816198 71.196903 
L 159.095537 70.113192 
L 162.374876 71.586254 
L 165.654215 69.966431 
L 168.933554 72.261268 
L 172.212893 70.104838 
L 175.492231 71.908293 
L 178.77157 71.005041 
L 182.050909 71.047918 
L 185.330248 71.575345 
L 188.609587 70.84635 
L 191.888926 72.846889 
L 195.168264 70.994745 
L 198.447603 71.297633 
L 201.726942 71.463452 
L 205.006281 71.35191 
L 208.28562 72.249718 
L 211.564959 71.856476 
L 214.844298 71.789322 
L 218.123636 71.99465 
L 221.402975 71.830441 
L 224.682314 69.631781 
L 227.961653 71.200152 
L 231.240992 73.220129 
L 234.520331 71.498522 
L 237.799669 71.831382 
L 241.079008 71.411598 
L 244.358347 72.069571 
L 247.637686 71.495865 
L 250.917025 71.107751 
L 254.196364 71.484221 
L 257.475702 72.867495 
L 260.755041 72.39633 
L 264.03438 71.955189 
L 267.313719 72.723839 
L 270.593058 73.206688 
L 273.872397 73.479708 
L 277.151736 71.579484 
L 280.431074 73.2541 
L 283.710413 72.846071 
L 286.989752 72.336758 
L 290.269091 74.559781 
L 293.54843 72.155749 
L 296.827769 73.57597 
L 300.107107 70.62979 
L 303.386446 73.423668 
L 306.665785 71.86841 
L 309.945124 73.477044 
L 313.224463 73.266465 
L 316.503802 73.01192 
L 319.78314 72.374303 
L 323.062479 73.225829 
L 326.341818 73.466079 
L 329.621157 74.500002 
L 332.900496 73.51302 
L 336.179835 72.796291 
L 339.459174 72.494473 
L 342.738512 72.105839 
L 346.017851 73.226721 
L 349.29719 71.896303 
L 352.576529 73.468556 
L 355.855868 74.046849 
L 359.135207 73.173884 
L 362.414545 74.501545 
L 365.693884 73.077861 
L 368.973223 74.053299 
L 372.252562 73.502929 
L 375.531901 73.037888 
L 378.81124 73.881256 
L 382.090579 74.364672 
L 385.369917 74.023129 
L 388.649256 72.394078 
L 391.928595 73.382144 
L 395.207934 74.273901 
L 398.487273 74.83298 
L 398.487273 61.806585 
L 398.487273 61.806585 
L 395.207934 61.522441 
L 391.928595 61.471027 
L 388.649256 60.552138 
L 385.369917 61.891569 
L 382.090579 61.414354 
L 378.81124 61.303964 
L 375.531901 61.402246 
L 372.252562 62.126666 
L 368.973223 61.369769 
L 365.693884 60.873505 
L 362.414545 61.616058 
L 359.135207 61.337296 
L 355.855868 61.310584 
L 352.576529 61.117983 
L 349.29719 60.77715 
L 346.017851 61.769425 
L 342.738512 61.073244 
L 339.459174 60.926516 
L 336.179835 61.55709 
L 332.900496 61.593623 
L 329.621157 60.903436 
L 326.341818 61.628442 
L 323.062479 60.921078 
L 319.78314 60.544 
L 316.503802 61.15753 
L 313.224463 62.416294 
L 309.945124 61.907367 
L 306.665785 60.662009 
L 303.386446 60.998993 
L 300.107107 60.103652 
L 296.827769 61.681249 
L 293.54843 60.676158 
L 290.269091 62.239232 
L 286.989752 60.627792 
L 283.710413 60.608913 
L 280.431074 61.387344 
L 277.151736 61.258928 
L 273.872397 60.986457 
L 270.593058 61.292508 
L 267.313719 61.13599 
L 264.03438 60.716251 
L 260.755041 61.119413 
L 257.475702 61.487301 
L 254.196364 60.729387 
L 250.917025 60.437004 
L 247.637686 60.58672 
L 244.358347 60.486894 
L 241.079008 60.614477 
L 237.799669 60.870745 
L 234.520331 60.781905 
L 231.240992 60.621195 
L 227.961653 60.389915 
L 224.682314 59.385412 
L 221.402975 61.825194 
L 218.123636 61.755046 
L 214.844298 61.556647 
L 211.564959 60.566767 
L 208.28562 60.99373 
L 205.006281 60.686178 
L 201.726942 61.521534 
L 198.447603 60.689984 
L 195.168264 60.333255 
L 191.888926 61.672705 
L 188.609587 60.477983 
L 185.330248 60.372278 
L 182.050909 60.240495 
L 178.77157 60.355962 
L 175.492231 61.068365 
L 172.212893 61.054878 
L 168.933554 61.124595 
L 165.654215 59.645708 
L 162.374876 60.593577 
L 159.095537 59.899394 
L 155.816198 61.245935 
L 152.53686 61.129667 
L 149.257521 60.824128 
L 145.978182 60.891429 
L 142.698843 59.942815 
L 139.419504 59.41124 
L 136.140165 60.382147 
L 132.860826 59.665297 
L 129.581488 59.859757 
L 126.302149 59.351957 
L 123.02281 58.530221 
L 119.743471 60.247438 
L 116.464132 60.075127 
L 113.184793 58.838103 
L 109.905455 58.490596 
L 106.626116 59.509641 
L 103.346777 58.863553 
L 100.067438 59.463006 
L 96.788099 59.388753 
L 93.50876 58.307902 
L 90.229421 57.982722 
L 86.950083 57.727397 
L 83.670744 57.664 
L 80.391405 58.707441 
L 77.112066 58.405645 
L 73.832727 57.308623 
z
" style="fill:#3182bd;"/>
   </g>
   <g id="PolyCollection_6">
    <path clip-path="url(#p7c2655eee7)" d="M 73.832727 54.144 
L 73.832727 57.308623 
L 77.112066 58.405645 
L 80.391405 58.707441 
L 83.670744 57.664 
L 86.950083 57.727397 
L 90.229421 57.982722 
L 93.50876 58.307902 
L 96.788099 59.388753 
L 100.067438 59.463006 
L 103.346777 58.863553 
L 106.626116 59.509641 
L 109.905455 58.490596 
L 113.184793 58.838103 
L 116.464132 60.075127 
L 119.743471 60.247438 
L 123.02281 58.530221 
L 126.302149 59.351957 
L 129.581488 59.859757 
L 132.860826 59.665297 
L 136.140165 60.382147 
L 139.419504 59.41124 
L 142.698843 59.942815 
L 145.978182 60.891429 
L 149.257521 60.824128 
L 152.53686 61.129667 
L 155.816198 61.245935 
L 159.095537 59.899394 
L 162.374876 60.593577 
L 165.654215 59.645708 
L 168.933554 61.124595 
L 172.212893 61.054878 
L 175.492231 61.068365 
L 178.77157 60.355962 
L 182.050909 60.240495 
L 185.330248 60.372278 
L 188.609587 60.477983 
L 191.888926 61.672705 
L 195.168264 60.333255 
L 198.447603 60.689984 
L 201.726942 61.521534 
L 205.006281 60.686178 
L 208.28562 60.99373 
L 211.564959 60.566767 
L 214.844298 61.556647 
L 218.123636 61.755046 
L 221.402975 61.825194 
L 224.682314 59.385412 
L 227.961653 60.389915 
L 231.240992 60.621195 
L 234.520331 60.781905 
L 237.799669 60.870745 
L 241.079008 60.614477 
L 244.358347 60.486894 
L 247.637686 60.58672 
L 250.917025 60.437004 
L 254.196364 60.729387 
L 257.475702 61.487301 
L 260.755041 61.119413 
L 264.03438 60.716251 
L 267.313719 61.13599 
L 270.593058 61.292508 
L 273.872397 60.986457 
L 277.151736 61.258928 
L 280.431074 61.387344 
L 283.710413 60.608913 
L 286.989752 60.627792 
L 290.269091 62.239232 
L 293.54843 60.676158 
L 296.827769 61.681249 
L 300.107107 60.103652 
L 303.386446 60.998993 
L 306.665785 60.662009 
L 309.945124 61.907367 
L 313.224463 62.416294 
L 316.503802 61.15753 
L 319.78314 60.544 
L 323.062479 60.921078 
L 326.341818 61.628442 
L 329.621157 60.903436 
L 332.900496 61.593623 
L 336.179835 61.55709 
L 339.459174 60.926516 
L 342.738512 61.073244 
L 346.017851 61.769425 
L 349.29719 60.77715 
L 352.576529 61.117983 
L 355.855868 61.310584 
L 359.135207 61.337296 
L 362.414545 61.616058 
L 365.693884 60.873505 
L 368.973223 61.369769 
L 372.252562 62.126666 
L 375.531901 61.402246 
L 378.81124 61.303964 
L 382.090579 61.414354 
L 385.369917 61.891569 
L 388.649256 60.552138 
L 391.928595 61.471027 
L 395.207934 61.522441 
L 398.487273 61.806585 
L 398.487273 54.144 
L 398.487273 54.144 
L 395.207934 54.144 
L 391.928595 54.144 
L 388.649256 54.144 
L 385.369917 54.144 
L 382.090579 54.144 
L 378.81124 54.144 
L 375.531901 54.144 
L 372.252562 54.144 
L 368.973223 54.144 
L 365.693884 54.144 
L 362.414545 54.144 
L 359.135207 54.144 
L 355.855868 54.144 
L 352.576529 54.144 
L 349.29719 54.144 
L 346.017851 54.144 
L 342.738512 54.144 
L 339.459174 54.144 
L 336.179835 54.144 
L 332.900496 54.144 
L 329.621157 54.144 
L 326.341818 54.144 
L 323.062479 54.144 
L 319.78314 54.144 
L 316.503802 54.144 
L 313.224463 54.144 
L 309.945124 54.144 
L 306.665785 54.144 
L 303.386446 54.144 
L 300.107107 54.144 
L 296.827769 54.144 
L 293.54843 54.144 
L 290.269091 54.144 
L 286.989752 54.144 
L 283.710413 54.144 
L 280.431074 54.144 
L 277.151736 54.144 
L 273.872397 54.144 
L 270.593058 54.144 
L 267.313719 54.144 
L 264.03438 54.144 
L 260.755041 54.144 
L 257.475702 54.144 
L 254.196364 54.144 
L 250.917025 54.144 
L 247.637686 54.144 
L 244.358347 54.144 
L 241.079008 54.144 
L 237.799669 54.144 
L 234.520331 54.144 
L 231.240992 54.144 
L 227.961653 54.144 
L 224.682314 54.144 
L 221.402975 54.144 
L 218.123636 54.144 
L 214.844298 54.144 
L 211.564959 54.144 
L 208.28562 54.144 
L 205.006281 54.144 
L 201.726942 54.144 
L 198.447603 54.144 
L 195.168264 54.144 
L 191.888926 54.144 
L 188.609587 54.144 
L 185.330248 54.144 
L 182.050909 54.144 
L 178.77157 54.144 
L 175.492231 54.144 
L 172.212893 54.144 
L 168.933554 54.144 
L 165.654215 54.144 
L 162.374876 54.144 
L 159.095537 54.144 
L 155.816198 54.144 
L 152.53686 54.144 
L 149.257521 54.144 
L 145.978182 54.144 
L 142.698843 54.144 
L 139.419504 54.144 
L 136.140165 54.144 
L 132.860826 54.144 
L 129.581488 54.144 
L 126.302149 54.144 
L 123.02281 54.144 
L 119.743471 54.144 
L 116.464132 54.144 
L 113.184793 54.144 
L 109.905455 54.144 
L 106.626116 54.144 
L 103.346777 54.144 
L 100.067438 54.144 
L 96.788099 54.144 
L 93.50876 54.144 
L 90.229421 54.144 
L 86.950083 54.144 
L 83.670744 54.144 
L 80.391405 54.144 
L 77.112066 54.144 
L 73.832727 54.144 
z
" style="fill:#0e5a90;"/>
   </g>
   <g id="matplotlib.axis_1">
    <g id="xtick_1">
     <g id="line2d_1">
      <defs>
       <path d="M 0 0 
L 0 3.5 
" id="m97c0de4fea" style="stroke:#000000;stroke-width:0.8;"/>
      </defs>
      <g>
       <use style="stroke:#000000;stroke-width:0.8;" x="70.553388" xlink:href="#m97c0de4fea" y="307.584"/>
      </g>
     </g>
     <g id="text_1">
      <!-- 0 -->
      <defs>
       <path d="M 31.78125 66.40625 
Q 24.171875 66.40625 20.328125 58.90625 
Q 16.5 51.421875 16.5 36.375 
Q 16.5 21.390625 20.328125 13.890625 
Q 24.171875 6.390625 31.78125 6.390625 
Q 39.453125 6.390625 43.28125 13.890625 
Q 47.125 21.390625 47.125 36.375 
Q 47.125 51.421875 43.28125 58.90625 
Q 39.453125 66.40625 31.78125 66.40625 
z
M 31.78125 74.21875 
Q 44.046875 74.21875 50.515625 64.515625 
Q 56.984375 54.828125 56.984375 36.375 
Q 56.984375 17.96875 50.515625 8.265625 
Q 44.046875 -1.421875 31.78125 -1.421875 
Q 19.53125 -1.421875 13.0625 8.265625 
Q 6.59375 17.96875 6.59375 36.375 
Q 6.59375 54.828125 13.0625 64.515625 
Q 19.53125 74.21875 31.78125 74.21875 
z
" id="DejaVuSans-30"/>
      </defs>
      <g transform="translate(67.372138 322.182437)scale(0.1 -0.1)">
       <use xlink:href="#DejaVuSans-30"/>
      </g>
     </g>
    </g>
    <g id="xtick_2">
     <g id="line2d_2">
      <g>
       <use style="stroke:#000000;stroke-width:0.8;" x="136.140165" xlink:href="#m97c0de4fea" y="307.584"/>
      </g>
     </g>
     <g id="text_2">
      <!-- 200000 -->
      <defs>
       <path d="M 19.1875 8.296875 
L 53.609375 8.296875 
L 53.609375 0 
L 7.328125 0 
L 7.328125 8.296875 
Q 12.9375 14.109375 22.625 23.890625 
Q 32.328125 33.6875 34.8125 36.53125 
Q 39.546875 41.84375 41.421875 45.53125 
Q 43.3125 49.21875 43.3125 52.78125 
Q 43.3125 58.59375 39.234375 62.25 
Q 35.15625 65.921875 28.609375 65.921875 
Q 23.96875 65.921875 18.8125 64.3125 
Q 13.671875 62.703125 7.8125 59.421875 
L 7.8125 69.390625 
Q 13.765625 71.78125 18.9375 73 
Q 24.125 74.21875 28.421875 74.21875 
Q 39.75 74.21875 46.484375 68.546875 
Q 53.21875 62.890625 53.21875 53.421875 
Q 53.21875 48.921875 51.53125 44.890625 
Q 49.859375 40.875 45.40625 35.40625 
Q 44.1875 33.984375 37.640625 27.21875 
Q 31.109375 20.453125 19.1875 8.296875 
z
" id="DejaVuSans-32"/>
      </defs>
      <g transform="translate(117.052665 322.182437)scale(0.1 -0.1)">
       <use xlink:href="#DejaVuSans-32"/>
       <use x="63.623047" xlink:href="#DejaVuSans-30"/>
       <use x="127.246094" xlink:href="#DejaVuSans-30"/>
       <use x="190.869141" xlink:href="#DejaVuSans-30"/>
       <use x="254.492188" xlink:href="#DejaVuSans-30"/>
       <use x="318.115234" xlink:href="#DejaVuSans-30"/>
      </g>
     </g>
    </g>
    <g id="xtick_3">
     <g id="line2d_3">
      <g>
       <use style="stroke:#000000;stroke-width:0.8;" x="201.726942" xlink:href="#m97c0de4fea" y="307.584"/>
      </g>
     </g>
     <g id="text_3">
      <!-- 400000 -->
      <defs>
       <path d="M 37.796875 64.3125 
L 12.890625 25.390625 
L 37.796875 25.390625 
z
M 35.203125 72.90625 
L 47.609375 72.90625 
L 47.609375 25.390625 
L 58.015625 25.390625 
L 58.015625 17.1875 
L 47.609375 17.1875 
L 47.609375 0 
L 37.796875 0 
L 37.796875 17.1875 
L 4.890625 17.1875 
L 4.890625 26.703125 
z
" id="DejaVuSans-34"/>
      </defs>
      <g transform="translate(182.639442 322.182437)scale(0.1 -0.1)">
       <use xlink:href="#DejaVuSans-34"/>
       <use x="63.623047" xlink:href="#DejaVuSans-30"/>
       <use x="127.246094" xlink:href="#DejaVuSans-30"/>
       <use x="190.869141" xlink:href="#DejaVuSans-30"/>
       <use x="254.492188" xlink:href="#DejaVuSans-30"/>
       <use x="318.115234" xlink:href="#DejaVuSans-30"/>
      </g>
     </g>
    </g>
    <g id="xtick_4">
     <g id="line2d_4">
      <g>
       <use style="stroke:#000000;stroke-width:0.8;" x="267.313719" xlink:href="#m97c0de4fea" y="307.584"/>
      </g>
     </g>
     <g id="text_4">
      <!-- 600000 -->
      <defs>
       <path d="M 33.015625 40.375 
Q 26.375 40.375 22.484375 35.828125 
Q 18.609375 31.296875 18.609375 23.390625 
Q 18.609375 15.53125 22.484375 10.953125 
Q 26.375 6.390625 33.015625 6.390625 
Q 39.65625 6.390625 43.53125 10.953125 
Q 47.40625 15.53125 47.40625 23.390625 
Q 47.40625 31.296875 43.53125 35.828125 
Q 39.65625 40.375 33.015625 40.375 
z
M 52.59375 71.296875 
L 52.59375 62.3125 
Q 48.875 64.0625 45.09375 64.984375 
Q 41.3125 65.921875 37.59375 65.921875 
Q 27.828125 65.921875 22.671875 59.328125 
Q 17.53125 52.734375 16.796875 39.40625 
Q 19.671875 43.65625 24.015625 45.921875 
Q 28.375 48.1875 33.59375 48.1875 
Q 44.578125 48.1875 50.953125 41.515625 
Q 57.328125 34.859375 57.328125 23.390625 
Q 57.328125 12.15625 50.6875 5.359375 
Q 44.046875 -1.421875 33.015625 -1.421875 
Q 20.359375 -1.421875 13.671875 8.265625 
Q 6.984375 17.96875 6.984375 36.375 
Q 6.984375 53.65625 15.1875 63.9375 
Q 23.390625 74.21875 37.203125 74.21875 
Q 40.921875 74.21875 44.703125 73.484375 
Q 48.484375 72.75 52.59375 71.296875 
z
" id="DejaVuSans-36"/>
      </defs>
      <g transform="translate(248.226219 322.182437)scale(0.1 -0.1)">
       <use xlink:href="#DejaVuSans-36"/>
       <use x="63.623047" xlink:href="#DejaVuSans-30"/>
       <use x="127.246094" xlink:href="#DejaVuSans-30"/>
       <use x="190.869141" xlink:href="#DejaVuSans-30"/>
       <use x="254.492188" xlink:href="#DejaVuSans-30"/>
       <use x="318.115234" xlink:href="#DejaVuSans-30"/>
      </g>
     </g>
    </g>
    <g id="xtick_5">
     <g id="line2d_5">
      <g>
       <use style="stroke:#000000;stroke-width:0.8;" x="332.900496" xlink:href="#m97c0de4fea" y="307.584"/>
      </g>
     </g>
     <g id="text_5">
      <!-- 800000 -->
      <defs>
       <path d="M 31.78125 34.625 
Q 24.75 34.625 20.71875 30.859375 
Q 16.703125 27.09375 16.703125 20.515625 
Q 16.703125 13.921875 20.71875 10.15625 
Q 24.75 6.390625 31.78125 6.390625 
Q 38.8125 6.390625 42.859375 10.171875 
Q 46.921875 13.96875 46.921875 20.515625 
Q 46.921875 27.09375 42.890625 30.859375 
Q 38.875 34.625 31.78125 34.625 
z
M 21.921875 38.8125 
Q 15.578125 40.375 12.03125 44.71875 
Q 8.5 49.078125 8.5 55.328125 
Q 8.5 64.0625 14.71875 69.140625 
Q 20.953125 74.21875 31.78125 74.21875 
Q 42.671875 74.21875 48.875 69.140625 
Q 55.078125 64.0625 55.078125 55.328125 
Q 55.078125 49.078125 51.53125 44.71875 
Q 48 40.375 41.703125 38.8125 
Q 48.828125 37.15625 52.796875 32.3125 
Q 56.78125 27.484375 56.78125 20.515625 
Q 56.78125 9.90625 50.3125 4.234375 
Q 43.84375 -1.421875 31.78125 -1.421875 
Q 19.734375 -1.421875 13.25 4.234375 
Q 6.78125 9.90625 6.78125 20.515625 
Q 6.78125 27.484375 10.78125 32.3125 
Q 14.796875 37.15625 21.921875 38.8125 
z
M 18.3125 54.390625 
Q 18.3125 48.734375 21.84375 45.5625 
Q 25.390625 42.390625 31.78125 42.390625 
Q 38.140625 42.390625 41.71875 45.5625 
Q 45.3125 48.734375 45.3125 54.390625 
Q 45.3125 60.0625 41.71875 63.234375 
Q 38.140625 66.40625 31.78125 66.40625 
Q 25.390625 66.40625 21.84375 63.234375 
Q 18.3125 60.0625 18.3125 54.390625 
z
" id="DejaVuSans-38"/>
      </defs>
      <g transform="translate(313.812996 322.182437)scale(0.1 -0.1)">
       <use xlink:href="#DejaVuSans-38"/>
       <use x="63.623047" xlink:href="#DejaVuSans-30"/>
       <use x="127.246094" xlink:href="#DejaVuSans-30"/>
       <use x="190.869141" xlink:href="#DejaVuSans-30"/>
       <use x="254.492188" xlink:href="#DejaVuSans-30"/>
       <use x="318.115234" xlink:href="#DejaVuSans-30"/>
      </g>
     </g>
    </g>
    <g id="xtick_6">
     <g id="line2d_6">
      <g>
       <use style="stroke:#000000;stroke-width:0.8;" x="398.487273" xlink:href="#m97c0de4fea" y="307.584"/>
      </g>
     </g>
     <g id="text_6">
      <!-- 1000000 -->
      <defs>
       <path d="M 12.40625 8.296875 
L 28.515625 8.296875 
L 28.515625 63.921875 
L 10.984375 60.40625 
L 10.984375 69.390625 
L 28.421875 72.90625 
L 38.28125 72.90625 
L 38.28125 8.296875 
L 54.390625 8.296875 
L 54.390625 0 
L 12.40625 0 
z
" id="DejaVuSans-31"/>
      </defs>
      <g transform="translate(376.218523 322.182437)scale(0.1 -0.1)">
       <use xlink:href="#DejaVuSans-31"/>
       <use x="63.623047" xlink:href="#DejaVuSans-30"/>
       <use x="127.246094" xlink:href="#DejaVuSans-30"/>
       <use x="190.869141" xlink:href="#DejaVuSans-30"/>
       <use x="254.492188" xlink:href="#DejaVuSans-30"/>
       <use x="318.115234" xlink:href="#DejaVuSans-30"/>
       <use x="381.738281" xlink:href="#DejaVuSans-30"/>
      </g>
     </g>
    </g>
    <g id="text_7">
     <!-- alexa rank -->
     <defs>
      <path d="M 34.28125 27.484375 
Q 23.390625 27.484375 19.1875 25 
Q 14.984375 22.515625 14.984375 16.5 
Q 14.984375 11.71875 18.140625 8.90625 
Q 21.296875 6.109375 26.703125 6.109375 
Q 34.1875 6.109375 38.703125 11.40625 
Q 43.21875 16.703125 43.21875 25.484375 
L 43.21875 27.484375 
z
M 52.203125 31.203125 
L 52.203125 0 
L 43.21875 0 
L 43.21875 8.296875 
Q 40.140625 3.328125 35.546875 0.953125 
Q 30.953125 -1.421875 24.3125 -1.421875 
Q 15.921875 -1.421875 10.953125 3.296875 
Q 6 8.015625 6 15.921875 
Q 6 25.140625 12.171875 29.828125 
Q 18.359375 34.515625 30.609375 34.515625 
L 43.21875 34.515625 
L 43.21875 35.40625 
Q 43.21875 41.609375 39.140625 45 
Q 35.0625 48.390625 27.6875 48.390625 
Q 23 48.390625 18.546875 47.265625 
Q 14.109375 46.140625 10.015625 43.890625 
L 10.015625 52.203125 
Q 14.9375 54.109375 19.578125 55.046875 
Q 24.21875 56 28.609375 56 
Q 40.484375 56 46.34375 49.84375 
Q 52.203125 43.703125 52.203125 31.203125 
z
" id="DejaVuSans-61"/>
      <path d="M 9.421875 75.984375 
L 18.40625 75.984375 
L 18.40625 0 
L 9.421875 0 
z
" id="DejaVuSans-6c"/>
      <path d="M 56.203125 29.59375 
L 56.203125 25.203125 
L 14.890625 25.203125 
Q 15.484375 15.921875 20.484375 11.0625 
Q 25.484375 6.203125 34.421875 6.203125 
Q 39.59375 6.203125 44.453125 7.46875 
Q 49.3125 8.734375 54.109375 11.28125 
L 54.109375 2.78125 
Q 49.265625 0.734375 44.1875 -0.34375 
Q 39.109375 -1.421875 33.890625 -1.421875 
Q 20.796875 -1.421875 13.15625 6.1875 
Q 5.515625 13.8125 5.515625 26.8125 
Q 5.515625 40.234375 12.765625 48.109375 
Q 20.015625 56 32.328125 56 
Q 43.359375 56 49.78125 48.890625 
Q 56.203125 41.796875 56.203125 29.59375 
z
M 47.21875 32.234375 
Q 47.125 39.59375 43.09375 43.984375 
Q 39.0625 48.390625 32.421875 48.390625 
Q 24.90625 48.390625 20.390625 44.140625 
Q 15.875 39.890625 15.1875 32.171875 
z
" id="DejaVuSans-65"/>
      <path d="M 54.890625 54.6875 
L 35.109375 28.078125 
L 55.90625 0 
L 45.3125 0 
L 29.390625 21.484375 
L 13.484375 0 
L 2.875 0 
L 24.125 28.609375 
L 4.6875 54.6875 
L 15.28125 54.6875 
L 29.78125 35.203125 
L 44.28125 54.6875 
z
" id="DejaVuSans-78"/>
      <path id="DejaVuSans-20"/>
      <path d="M 41.109375 46.296875 
Q 39.59375 47.171875 37.8125 47.578125 
Q 36.03125 48 33.890625 48 
Q 26.265625 48 22.1875 43.046875 
Q 18.109375 38.09375 18.109375 28.8125 
L 18.109375 0 
L 9.078125 0 
L 9.078125 54.6875 
L 18.109375 54.6875 
L 18.109375 46.1875 
Q 20.953125 51.171875 25.484375 53.578125 
Q 30.03125 56 36.53125 56 
Q 37.453125 56 38.578125 55.875 
Q 39.703125 55.765625 41.0625 55.515625 
z
" id="DejaVuSans-72"/>
      <path d="M 54.890625 33.015625 
L 54.890625 0 
L 45.90625 0 
L 45.90625 32.71875 
Q 45.90625 40.484375 42.875 44.328125 
Q 39.84375 48.1875 33.796875 48.1875 
Q 26.515625 48.1875 22.3125 43.546875 
Q 18.109375 38.921875 18.109375 30.90625 
L 18.109375 0 
L 9.078125 0 
L 9.078125 54.6875 
L 18.109375 54.6875 
L 18.109375 46.1875 
Q 21.34375 51.125 25.703125 53.5625 
Q 30.078125 56 35.796875 56 
Q 45.21875 56 50.046875 50.171875 
Q 54.890625 44.34375 54.890625 33.015625 
z
" id="DejaVuSans-6e"/>
      <path d="M 9.078125 75.984375 
L 18.109375 75.984375 
L 18.109375 31.109375 
L 44.921875 54.6875 
L 56.390625 54.6875 
L 27.390625 29.109375 
L 57.625 0 
L 45.90625 0 
L 18.109375 26.703125 
L 18.109375 0 
L 9.078125 0 
z
" id="DejaVuSans-6b"/>
     </defs>
     <g transform="translate(209.835 335.860562)scale(0.1 -0.1)">
      <use xlink:href="#DejaVuSans-61"/>
      <use x="61.279297" xlink:href="#DejaVuSans-6c"/>
      <use x="89.0625" xlink:href="#DejaVuSans-65"/>
      <use x="150.570312" xlink:href="#DejaVuSans-78"/>
      <use x="209.75" xlink:href="#DejaVuSans-61"/>
      <use x="271.029297" xlink:href="#DejaVuSans-20"/>
      <use x="302.816406" xlink:href="#DejaVuSans-72"/>
      <use x="343.929688" xlink:href="#DejaVuSans-61"/>
      <use x="405.208984" xlink:href="#DejaVuSans-6e"/>
      <use x="468.587891" xlink:href="#DejaVuSans-6b"/>
     </g>
    </g>
   </g>
   <g id="matplotlib.axis_2">
    <g id="ytick_1">
     <g id="line2d_7">
      <defs>
       <path d="M 0 0 
L -3.5 0 
" id="ma2ee280f9b" style="stroke:#000000;stroke-width:0.8;"/>
      </defs>
      <g>
       <use style="stroke:#000000;stroke-width:0.8;" x="57.6" xlink:href="#ma2ee280f9b" y="307.584"/>
      </g>
     </g>
     <g id="text_8">
      <!-- 0.0 -->
      <defs>
       <path d="M 10.6875 12.40625 
L 21 12.40625 
L 21 0 
L 10.6875 0 
z
" id="DejaVuSans-2e"/>
      </defs>
      <g transform="translate(34.696875 311.383219)scale(0.1 -0.1)">
       <use xlink:href="#DejaVuSans-30"/>
       <use x="63.623047" xlink:href="#DejaVuSans-2e"/>
       <use x="95.410156" xlink:href="#DejaVuSans-30"/>
      </g>
     </g>
    </g>
    <g id="ytick_2">
     <g id="line2d_8">
      <g>
       <use style="stroke:#000000;stroke-width:0.8;" x="57.6" xlink:href="#ma2ee280f9b" y="256.896"/>
      </g>
     </g>
     <g id="text_9">
      <!-- 0.2 -->
      <g transform="translate(34.696875 260.695219)scale(0.1 -0.1)">
       <use xlink:href="#DejaVuSans-30"/>
       <use x="63.623047" xlink:href="#DejaVuSans-2e"/>
       <use x="95.410156" xlink:href="#DejaVuSans-32"/>
      </g>
     </g>
    </g>
    <g id="ytick_3">
     <g id="line2d_9">
      <g>
       <use style="stroke:#000000;stroke-width:0.8;" x="57.6" xlink:href="#ma2ee280f9b" y="206.208"/>
      </g>
     </g>
     <g id="text_10">
      <!-- 0.4 -->
      <g transform="translate(34.696875 210.007219)scale(0.1 -0.1)">
       <use xlink:href="#DejaVuSans-30"/>
       <use x="63.623047" xlink:href="#DejaVuSans-2e"/>
       <use x="95.410156" xlink:href="#DejaVuSans-34"/>
      </g>
     </g>
    </g>
    <g id="ytick_4">
     <g id="line2d_10">
      <g>
       <use style="stroke:#000000;stroke-width:0.8;" x="57.6" xlink:href="#ma2ee280f9b" y="155.52"/>
      </g>
     </g>
     <g id="text_11">
      <!-- 0.6 -->
      <g transform="translate(34.696875 159.319219)scale(0.1 -0.1)">
       <use xlink:href="#DejaVuSans-30"/>
       <use x="63.623047" xlink:href="#DejaVuSans-2e"/>
       <use x="95.410156" xlink:href="#DejaVuSans-36"/>
      </g>
     </g>
    </g>
    <g id="ytick_5">
     <g id="line2d_11">
      <g>
       <use style="stroke:#000000;stroke-width:0.8;" x="57.6" xlink:href="#ma2ee280f9b" y="104.832"/>
      </g>
     </g>
     <g id="text_12">
      <!-- 0.8 -->
      <g transform="translate(34.696875 108.631219)scale(0.1 -0.1)">
       <use xlink:href="#DejaVuSans-30"/>
       <use x="63.623047" xlink:href="#DejaVuSans-2e"/>
       <use x="95.410156" xlink:href="#DejaVuSans-38"/>
      </g>
     </g>
    </g>
    <g id="ytick_6">
     <g id="line2d_12">
      <g>
       <use style="stroke:#000000;stroke-width:0.8;" x="57.6" xlink:href="#ma2ee280f9b" y="54.144"/>
      </g>
     </g>
     <g id="text_13">
      <!-- 1.0 -->
      <g transform="translate(34.696875 57.943219)scale(0.1 -0.1)">
       <use xlink:href="#DejaVuSans-31"/>
       <use x="63.623047" xlink:href="#DejaVuSans-2e"/>
       <use x="95.410156" xlink:href="#DejaVuSans-30"/>
      </g>
     </g>
    </g>
    <g id="text_14">
     <!-- proportion -->
     <defs>
      <path d="M 18.109375 8.203125 
L 18.109375 -20.796875 
L 9.078125 -20.796875 
L 9.078125 54.6875 
L 18.109375 54.6875 
L 18.109375 46.390625 
Q 20.953125 51.265625 25.265625 53.625 
Q 29.59375 56 35.59375 56 
Q 45.5625 56 51.78125 48.09375 
Q 58.015625 40.1875 58.015625 27.296875 
Q 58.015625 14.40625 51.78125 6.484375 
Q 45.5625 -1.421875 35.59375 -1.421875 
Q 29.59375 -1.421875 25.265625 0.953125 
Q 20.953125 3.328125 18.109375 8.203125 
z
M 48.6875 27.296875 
Q 48.6875 37.203125 44.609375 42.84375 
Q 40.53125 48.484375 33.40625 48.484375 
Q 26.265625 48.484375 22.1875 42.84375 
Q 18.109375 37.203125 18.109375 27.296875 
Q 18.109375 17.390625 22.1875 11.75 
Q 26.265625 6.109375 33.40625 6.109375 
Q 40.53125 6.109375 44.609375 11.75 
Q 48.6875 17.390625 48.6875 27.296875 
z
" id="DejaVuSans-70"/>
      <path d="M 30.609375 48.390625 
Q 23.390625 48.390625 19.1875 42.75 
Q 14.984375 37.109375 14.984375 27.296875 
Q 14.984375 17.484375 19.15625 11.84375 
Q 23.34375 6.203125 30.609375 6.203125 
Q 37.796875 6.203125 41.984375 11.859375 
Q 46.1875 17.53125 46.1875 27.296875 
Q 46.1875 37.015625 41.984375 42.703125 
Q 37.796875 48.390625 30.609375 48.390625 
z
M 30.609375 56 
Q 42.328125 56 49.015625 48.375 
Q 55.71875 40.765625 55.71875 27.296875 
Q 55.71875 13.875 49.015625 6.21875 
Q 42.328125 -1.421875 30.609375 -1.421875 
Q 18.84375 -1.421875 12.171875 6.21875 
Q 5.515625 13.875 5.515625 27.296875 
Q 5.515625 40.765625 12.171875 48.375 
Q 18.84375 56 30.609375 56 
z
" id="DejaVuSans-6f"/>
      <path d="M 18.3125 70.21875 
L 18.3125 54.6875 
L 36.8125 54.6875 
L 36.8125 47.703125 
L 18.3125 47.703125 
L 18.3125 18.015625 
Q 18.3125 11.328125 20.140625 9.421875 
Q 21.96875 7.515625 27.59375 7.515625 
L 36.8125 7.515625 
L 36.8125 0 
L 27.59375 0 
Q 17.1875 0 13.234375 3.875 
Q 9.28125 7.765625 9.28125 18.015625 
L 9.28125 47.703125 
L 2.6875 47.703125 
L 2.6875 54.6875 
L 9.28125 54.6875 
L 9.28125 70.21875 
z
" id="DejaVuSans-74"/>
      <path d="M 9.421875 54.6875 
L 18.40625 54.6875 
L 18.40625 0 
L 9.421875 0 
z
M 9.421875 75.984375 
L 18.40625 75.984375 
L 18.40625 64.59375 
L 9.421875 64.59375 
z
" id="DejaVuSans-69"/>
     </defs>
     <g transform="translate(28.617187 200.681906)rotate(-90)scale(0.1 -0.1)">
      <use xlink:href="#DejaVuSans-70"/>
      <use x="63.476562" xlink:href="#DejaVuSans-72"/>
      <use x="104.558594" xlink:href="#DejaVuSans-6f"/>
      <use x="165.740234" xlink:href="#DejaVuSans-70"/>
      <use x="229.216797" xlink:href="#DejaVuSans-6f"/>
      <use x="290.398438" xlink:href="#DejaVuSans-72"/>
      <use x="331.511719" xlink:href="#DejaVuSans-74"/>
      <use x="370.720703" xlink:href="#DejaVuSans-69"/>
      <use x="398.503906" xlink:href="#DejaVuSans-6f"/>
      <use x="459.685547" xlink:href="#DejaVuSans-6e"/>
     </g>
    </g>
   </g>
   <g id="line2d_13">
    <path clip-path="url(#p7c2655eee7)" d="M 57.6 109.951731 
L 414.72 109.951731 
" style="fill:none;stroke:#808080;stroke-dasharray:3.7,1.6;stroke-dashoffset:0;"/>
   </g>
   <g id="line2d_14">
    <path clip-path="url(#p7c2655eee7)" d="M 57.6 109.940773 
L 414.72 109.940773 
" style="fill:none;stroke:#808080;stroke-dasharray:1,1.65;stroke-dashoffset:0;"/>
   </g>
   <g id="line2d_15">
    <path clip-path="url(#p7c2655eee7)" d="M 57.6 90.972148 
L 414.72 90.972148 
" style="fill:none;stroke:#808080;stroke-dasharray:1,1.65;stroke-dashoffset:0;"/>
   </g>
   <g id="line2d_16">
    <path clip-path="url(#p7c2655eee7)" d="M 57.6 71.681933 
L 414.72 71.681933 
" style="fill:none;stroke:#808080;stroke-dasharray:1,1.65;stroke-dashoffset:0;"/>
   </g>
   <g id="line2d_17">
    <path clip-path="url(#p7c2655eee7)" d="M 57.6 60.58826 
L 414.72 60.58826 
" style="fill:none;stroke:#808080;stroke-dasharray:1,1.65;stroke-dashoffset:0;"/>
   </g>
   <g id="patch_3">
    <path d="M 57.6 307.584 
L 57.6 41.472 
" style="fill:none;stroke:#000000;stroke-linecap:square;stroke-linejoin:miter;stroke-width:0.8;"/>
   </g>
   <g id="patch_4">
    <path d="M 414.72 307.584 
L 414.72 41.472 
" style="fill:none;stroke:#000000;stroke-linecap:square;stroke-linejoin:miter;stroke-width:0.8;"/>
   </g>
   <g id="patch_5">
    <path d="M 57.6 307.584 
L 414.72 307.584 
" style="fill:none;stroke:#000000;stroke-linecap:square;stroke-linejoin:miter;stroke-width:0.8;"/>
   </g>
   <g id="patch_6">
    <path d="M 57.6 41.472 
L 414.72 41.472 
" style="fill:none;stroke:#000000;stroke-linecap:square;stroke-linejoin:miter;stroke-width:0.8;"/>
   </g>
   <g id="text_15">
    <!-- without scts -->
    <defs>
     <path d="M 4.203125 54.6875 
L 13.1875 54.6875 
L 24.421875 12.015625 
L 35.59375 54.6875 
L 46.1875 54.6875 
L 57.421875 12.015625 
L 68.609375 54.6875 
L 77.59375 54.6875 
L 63.28125 0 
L 52.6875 0 
L 40.921875 44.828125 
L 29.109375 0 
L 18.5 0 
z
" id="DejaVuSans-77"/>
     <path d="M 54.890625 33.015625 
L 54.890625 0 
L 45.90625 0 
L 45.90625 32.71875 
Q 45.90625 40.484375 42.875 44.328125 
Q 39.84375 48.1875 33.796875 48.1875 
Q 26.515625 48.1875 22.3125 43.546875 
Q 18.109375 38.921875 18.109375 30.90625 
L 18.109375 0 
L 9.078125 0 
L 9.078125 75.984375 
L 18.109375 75.984375 
L 18.109375 46.1875 
Q 21.34375 51.125 25.703125 53.5625 
Q 30.078125 56 35.796875 56 
Q 45.21875 56 50.046875 50.171875 
Q 54.890625 44.34375 54.890625 33.015625 
z
" id="DejaVuSans-68"/>
     <path d="M 8.5 21.578125 
L 8.5 54.6875 
L 17.484375 54.6875 
L 17.484375 21.921875 
Q 17.484375 14.15625 20.5 10.265625 
Q 23.53125 6.390625 29.59375 6.390625 
Q 36.859375 6.390625 41.078125 11.03125 
Q 45.3125 15.671875 45.3125 23.6875 
L 45.3125 54.6875 
L 54.296875 54.6875 
L 54.296875 0 
L 45.3125 0 
L 45.3125 8.40625 
Q 42.046875 3.421875 37.71875 1 
Q 33.40625 -1.421875 27.6875 -1.421875 
Q 18.265625 -1.421875 13.375 4.4375 
Q 8.5 10.296875 8.5 21.578125 
z
M 31.109375 56 
z
" id="DejaVuSans-75"/>
     <path d="M 44.28125 53.078125 
L 44.28125 44.578125 
Q 40.484375 46.53125 36.375 47.5 
Q 32.28125 48.484375 27.875 48.484375 
Q 21.1875 48.484375 17.84375 46.4375 
Q 14.5 44.390625 14.5 40.28125 
Q 14.5 37.15625 16.890625 35.375 
Q 19.28125 33.59375 26.515625 31.984375 
L 29.59375 31.296875 
Q 39.15625 29.25 43.1875 25.515625 
Q 47.21875 21.78125 47.21875 15.09375 
Q 47.21875 7.46875 41.1875 3.015625 
Q 35.15625 -1.421875 24.609375 -1.421875 
Q 20.21875 -1.421875 15.453125 -0.5625 
Q 10.6875 0.296875 5.421875 2 
L 5.421875 11.28125 
Q 10.40625 8.6875 15.234375 7.390625 
Q 20.0625 6.109375 24.8125 6.109375 
Q 31.15625 6.109375 34.5625 8.28125 
Q 37.984375 10.453125 37.984375 14.40625 
Q 37.984375 18.0625 35.515625 20.015625 
Q 33.0625 21.96875 24.703125 23.78125 
L 21.578125 24.515625 
Q 13.234375 26.265625 9.515625 29.90625 
Q 5.8125 33.546875 5.8125 39.890625 
Q 5.8125 47.609375 11.28125 51.796875 
Q 16.75 56 26.8125 56 
Q 31.78125 56 36.171875 55.265625 
Q 40.578125 54.546875 44.28125 53.078125 
z
" id="DejaVuSans-73"/>
     <path d="M 48.78125 52.59375 
L 48.78125 44.1875 
Q 44.96875 46.296875 41.140625 47.34375 
Q 37.3125 48.390625 33.40625 48.390625 
Q 24.65625 48.390625 19.8125 42.84375 
Q 14.984375 37.3125 14.984375 27.296875 
Q 14.984375 17.28125 19.8125 11.734375 
Q 24.65625 6.203125 33.40625 6.203125 
Q 37.3125 6.203125 41.140625 7.25 
Q 44.96875 8.296875 48.78125 10.40625 
L 48.78125 2.09375 
Q 45.015625 0.34375 40.984375 -0.53125 
Q 36.96875 -1.421875 32.421875 -1.421875 
Q 20.0625 -1.421875 12.78125 6.34375 
Q 5.515625 14.109375 5.515625 27.296875 
Q 5.515625 40.671875 12.859375 48.328125 
Q 20.21875 56 33.015625 56 
Q 37.15625 56 41.109375 55.140625 
Q 45.0625 54.296875 48.78125 52.59375 
z
" id="DejaVuSans-63"/>
    </defs>
    <g transform="translate(93.50876 218.88)scale(0.1 -0.1)">
     <use xlink:href="#DejaVuSans-77"/>
     <use x="81.787109" xlink:href="#DejaVuSans-69"/>
     <use x="109.570312" xlink:href="#DejaVuSans-74"/>
     <use x="148.779297" xlink:href="#DejaVuSans-68"/>
     <use x="212.158203" xlink:href="#DejaVuSans-6f"/>
     <use x="273.339844" xlink:href="#DejaVuSans-75"/>
     <use x="336.71875" xlink:href="#DejaVuSans-74"/>
     <use x="375.927734" xlink:href="#DejaVuSans-20"/>
     <use x="407.714844" xlink:href="#DejaVuSans-73"/>
     <use x="459.814453" xlink:href="#DejaVuSans-63"/>
     <use x="514.794922" xlink:href="#DejaVuSans-74"/>
     <use x="554.003906" xlink:href="#DejaVuSans-73"/>
    </g>
   </g>
   <g id="text_16">
    <!-- with 2 scts -->
    <g transform="translate(93.50876 112.4352)scale(0.1 -0.1)">
     <use xlink:href="#DejaVuSans-77"/>
     <use x="81.787109" xlink:href="#DejaVuSans-69"/>
     <use x="109.570312" xlink:href="#DejaVuSans-74"/>
     <use x="148.779297" xlink:href="#DejaVuSans-68"/>
     <use x="212.158203" xlink:href="#DejaVuSans-20"/>
     <use x="243.945312" xlink:href="#DejaVuSans-32"/>
     <use x="307.568359" xlink:href="#DejaVuSans-20"/>
     <use x="339.355469" xlink:href="#DejaVuSans-73"/>
     <use x="391.455078" xlink:href="#DejaVuSans-63"/>
     <use x="446.435547" xlink:href="#DejaVuSans-74"/>
     <use x="485.644531" xlink:href="#DejaVuSans-73"/>
    </g>
   </g>
   <g id="text_17">
    <!-- with 3 scts -->
    <defs>
     <path d="M 40.578125 39.3125 
Q 47.65625 37.796875 51.625 33 
Q 55.609375 28.21875 55.609375 21.1875 
Q 55.609375 10.40625 48.1875 4.484375 
Q 40.765625 -1.421875 27.09375 -1.421875 
Q 22.515625 -1.421875 17.65625 -0.515625 
Q 12.796875 0.390625 7.625 2.203125 
L 7.625 11.71875 
Q 11.71875 9.328125 16.59375 8.109375 
Q 21.484375 6.890625 26.8125 6.890625 
Q 36.078125 6.890625 40.9375 10.546875 
Q 45.796875 14.203125 45.796875 21.1875 
Q 45.796875 27.640625 41.28125 31.265625 
Q 36.765625 34.90625 28.71875 34.90625 
L 20.21875 34.90625 
L 20.21875 43.015625 
L 29.109375 43.015625 
Q 36.375 43.015625 40.234375 45.921875 
Q 44.09375 48.828125 44.09375 54.296875 
Q 44.09375 59.90625 40.109375 62.90625 
Q 36.140625 65.921875 28.71875 65.921875 
Q 24.65625 65.921875 20.015625 65.03125 
Q 15.375 64.15625 9.8125 62.3125 
L 9.8125 71.09375 
Q 15.4375 72.65625 20.34375 73.4375 
Q 25.25 74.21875 29.59375 74.21875 
Q 40.828125 74.21875 47.359375 69.109375 
Q 53.90625 64.015625 53.90625 55.328125 
Q 53.90625 49.265625 50.4375 45.09375 
Q 46.96875 40.921875 40.578125 39.3125 
z
" id="DejaVuSans-33"/>
    </defs>
    <g transform="translate(93.50876 87.0912)scale(0.1 -0.1)">
     <use xlink:href="#DejaVuSans-77"/>
     <use x="81.787109" xlink:href="#DejaVuSans-69"/>
     <use x="109.570312" xlink:href="#DejaVuSans-74"/>
     <use x="148.779297" xlink:href="#DejaVuSans-68"/>
     <use x="212.158203" xlink:href="#DejaVuSans-20"/>
     <use x="243.945312" xlink:href="#DejaVuSans-33"/>
     <use x="307.568359" xlink:href="#DejaVuSans-20"/>
     <use x="339.355469" xlink:href="#DejaVuSans-73"/>
     <use x="391.455078" xlink:href="#DejaVuSans-63"/>
     <use x="446.435547" xlink:href="#DejaVuSans-74"/>
     <use x="485.644531" xlink:href="#DejaVuSans-73"/>
    </g>
   </g>
   <g id="text_18">
    <!-- with 4 scts -->
    <g transform="translate(93.50876 66.816)scale(0.1 -0.1)">
     <use xlink:href="#DejaVuSans-77"/>
     <use x="81.787109" xlink:href="#DejaVuSans-69"/>
     <use x="109.570312" xlink:href="#DejaVuSans-74"/>
     <use x="148.779297" xlink:href="#DejaVuSans-68"/>
     <use x="212.158203" xlink:href="#DejaVuSans-20"/>
     <use x="243.945312" xlink:href="#DejaVuSans-34"/>
     <use x="307.568359" xlink:href="#DejaVuSans-20"/>
     <use x="339.355469" xlink:href="#DejaVuSans-73"/>
     <use x="391.455078" xlink:href="#DejaVuSans-63"/>
     <use x="446.435547" xlink:href="#DejaVuSans-74"/>
     <use x="485.644531" xlink:href="#DejaVuSans-73"/>
    </g>
   </g>
   <g id="text_19">
    <!-- with 5 or more scts -->
    <defs>
     <path d="M 10.796875 72.90625 
L 49.515625 72.90625 
L 49.515625 64.59375 
L 19.828125 64.59375 
L 19.828125 46.734375 
Q 21.96875 47.46875 24.109375 47.828125 
Q 26.265625 48.1875 28.421875 48.1875 
Q 40.625 48.1875 47.75 41.5 
Q 54.890625 34.8125 54.890625 23.390625 
Q 54.890625 11.625 47.5625 5.09375 
Q 40.234375 -1.421875 26.90625 -1.421875 
Q 22.3125 -1.421875 17.546875 -0.640625 
Q 12.796875 0.140625 7.71875 1.703125 
L 7.71875 11.625 
Q 12.109375 9.234375 16.796875 8.0625 
Q 21.484375 6.890625 26.703125 6.890625 
Q 35.15625 6.890625 40.078125 11.328125 
Q 45.015625 15.765625 45.015625 23.390625 
Q 45.015625 31 40.078125 35.4375 
Q 35.15625 39.890625 26.703125 39.890625 
Q 22.75 39.890625 18.8125 39.015625 
Q 14.890625 38.140625 10.796875 36.28125 
z
" id="DejaVuSans-35"/>
     <path d="M 52 44.1875 
Q 55.375 50.25 60.0625 53.125 
Q 64.75 56 71.09375 56 
Q 79.640625 56 84.28125 50.015625 
Q 88.921875 44.046875 88.921875 33.015625 
L 88.921875 0 
L 79.890625 0 
L 79.890625 32.71875 
Q 79.890625 40.578125 77.09375 44.375 
Q 74.3125 48.1875 68.609375 48.1875 
Q 61.625 48.1875 57.5625 43.546875 
Q 53.515625 38.921875 53.515625 30.90625 
L 53.515625 0 
L 44.484375 0 
L 44.484375 32.71875 
Q 44.484375 40.625 41.703125 44.40625 
Q 38.921875 48.1875 33.109375 48.1875 
Q 26.21875 48.1875 22.15625 43.53125 
Q 18.109375 38.875 18.109375 30.90625 
L 18.109375 0 
L 9.078125 0 
L 9.078125 54.6875 
L 18.109375 54.6875 
L 18.109375 46.1875 
Q 21.1875 51.21875 25.484375 53.609375 
Q 29.78125 56 35.6875 56 
Q 41.65625 56 45.828125 52.96875 
Q 50 49.953125 52 44.1875 
z
" id="DejaVuSans-6d"/>
    </defs>
    <g transform="translate(93.50876 59.2128)scale(0.1 -0.1)">
     <use xlink:href="#DejaVuSans-77"/>
     <use x="81.787109" xlink:href="#DejaVuSans-69"/>
     <use x="109.570312" xlink:href="#DejaVuSans-74"/>
     <use x="148.779297" xlink:href="#DejaVuSans-68"/>
     <use x="212.158203" xlink:href="#DejaVuSans-20"/>
     <use x="243.945312" xlink:href="#DejaVuSans-35"/>
     <use x="307.568359" xlink:href="#DejaVuSans-20"/>
     <use x="339.355469" xlink:href="#DejaVuSans-6f"/>
     <use x="400.537109" xlink:href="#DejaVuSans-72"/>
     <use x="441.650391" xlink:href="#DejaVuSans-20"/>
     <use x="473.4375" xlink:href="#DejaVuSans-6d"/>
     <use x="570.849609" xlink:href="#DejaVuSans-6f"/>
     <use x="632.03125" xlink:href="#DejaVuSans-72"/>
     <use x="673.113281" xlink:href="#DejaVuSans-65"/>
     <use x="734.636719" xlink:href="#DejaVuSans-20"/>
     <use x="766.423828" xlink:href="#DejaVuSans-73"/>
     <use x="818.523438" xlink:href="#DejaVuSans-63"/>
     <use x="873.503906" xlink:href="#DejaVuSans-74"/>
     <use x="912.712891" xlink:href="#DejaVuSans-73"/>
    </g>
   </g>
   <g id="text_20">
    <!-- 0.78 -->
    <defs>
     <path d="M 8.203125 72.90625 
L 55.078125 72.90625 
L 55.078125 68.703125 
L 28.609375 0 
L 18.3125 0 
L 43.21875 64.59375 
L 8.203125 64.59375 
z
" id="DejaVuSans-37"/>
    </defs>
    <g style="fill:#808080;" transform="translate(48.287763 107.872044)scale(0.1 -0.1)">
     <use xlink:href="#DejaVuSans-30"/>
     <use x="63.623047" xlink:href="#DejaVuSans-2e"/>
     <use x="95.410156" xlink:href="#DejaVuSans-37"/>
     <use x="159.033203" xlink:href="#DejaVuSans-38"/>
    </g>
   </g>
   <g id="text_21">
    <!-- 0.78 -->
    <g style="fill:#808080;" transform="translate(48.287763 107.861086)scale(0.1 -0.1)">
     <use xlink:href="#DejaVuSans-30"/>
     <use x="63.623047" xlink:href="#DejaVuSans-2e"/>
     <use x="95.410156" xlink:href="#DejaVuSans-37"/>
     <use x="159.033203" xlink:href="#DejaVuSans-38"/>
    </g>
   </g>
   <g id="text_22">
    <!-- 0.85 -->
    <g style="fill:#808080;" transform="translate(48.287763 88.89246)scale(0.1 -0.1)">
     <use xlink:href="#DejaVuSans-30"/>
     <use x="63.623047" xlink:href="#DejaVuSans-2e"/>
     <use x="95.410156" xlink:href="#DejaVuSans-38"/>
     <use x="159.033203" xlink:href="#DejaVuSans-35"/>
    </g>
   </g>
   <g id="text_23">
    <!-- 0.93 -->
    <defs>
     <path d="M 10.984375 1.515625 
L 10.984375 10.5 
Q 14.703125 8.734375 18.5 7.8125 
Q 22.3125 6.890625 25.984375 6.890625 
Q 35.75 6.890625 40.890625 13.453125 
Q 46.046875 20.015625 46.78125 33.40625 
Q 43.953125 29.203125 39.59375 26.953125 
Q 35.25 24.703125 29.984375 24.703125 
Q 19.046875 24.703125 12.671875 31.3125 
Q 6.296875 37.9375 6.296875 49.421875 
Q 6.296875 60.640625 12.9375 67.421875 
Q 19.578125 74.21875 30.609375 74.21875 
Q 43.265625 74.21875 49.921875 64.515625 
Q 56.59375 54.828125 56.59375 36.375 
Q 56.59375 19.140625 48.40625 8.859375 
Q 40.234375 -1.421875 26.421875 -1.421875 
Q 22.703125 -1.421875 18.890625 -0.6875 
Q 15.09375 0.046875 10.984375 1.515625 
z
M 30.609375 32.421875 
Q 37.25 32.421875 41.125 36.953125 
Q 45.015625 41.5 45.015625 49.421875 
Q 45.015625 57.28125 41.125 61.84375 
Q 37.25 66.40625 30.609375 66.40625 
Q 23.96875 66.40625 20.09375 61.84375 
Q 16.21875 57.28125 16.21875 49.421875 
Q 16.21875 41.5 20.09375 36.953125 
Q 23.96875 32.421875 30.609375 32.421875 
z
" id="DejaVuSans-39"/>
    </defs>
    <g style="fill:#808080;" transform="translate(48.287763 69.602246)scale(0.1 -0.1)">
     <use xlink:href="#DejaVuSans-30"/>
     <use x="63.623047" xlink:href="#DejaVuSans-2e"/>
     <use x="95.410156" xlink:href="#DejaVuSans-39"/>
     <use x="159.033203" xlink:href="#DejaVuSans-33"/>
    </g>
   </g>
   <g id="text_24">
    <!-- 0.97 -->
    <g style="fill:#808080;" transform="translate(48.287763 58.508573)scale(0.1 -0.1)">
     <use xlink:href="#DejaVuSans-30"/>
     <use x="63.623047" xlink:href="#DejaVuSans-2e"/>
     <use x="95.410156" xlink:href="#DejaVuSans-39"/>
     <use x="159.033203" xlink:href="#DejaVuSans-37"/>
    </g>
   </g>
   <g id="text_25">
    <!-- Non-EV Certificates with or without SCTs -->
    <defs>
     <path d="M 9.8125 72.90625 
L 23.09375 72.90625 
L 55.421875 11.921875 
L 55.421875 72.90625 
L 64.984375 72.90625 
L 64.984375 0 
L 51.703125 0 
L 19.390625 60.984375 
L 19.390625 0 
L 9.8125 0 
z
" id="DejaVuSans-4e"/>
     <path d="M 4.890625 31.390625 
L 31.203125 31.390625 
L 31.203125 23.390625 
L 4.890625 23.390625 
z
" id="DejaVuSans-2d"/>
     <path d="M 9.8125 72.90625 
L 55.90625 72.90625 
L 55.90625 64.59375 
L 19.671875 64.59375 
L 19.671875 43.015625 
L 54.390625 43.015625 
L 54.390625 34.71875 
L 19.671875 34.71875 
L 19.671875 8.296875 
L 56.78125 8.296875 
L 56.78125 0 
L 9.8125 0 
z
" id="DejaVuSans-45"/>
     <path d="M 28.609375 0 
L 0.78125 72.90625 
L 11.078125 72.90625 
L 34.1875 11.53125 
L 57.328125 72.90625 
L 67.578125 72.90625 
L 39.796875 0 
z
" id="DejaVuSans-56"/>
     <path d="M 64.40625 67.28125 
L 64.40625 56.890625 
Q 59.421875 61.53125 53.78125 63.8125 
Q 48.140625 66.109375 41.796875 66.109375 
Q 29.296875 66.109375 22.65625 58.46875 
Q 16.015625 50.828125 16.015625 36.375 
Q 16.015625 21.96875 22.65625 14.328125 
Q 29.296875 6.6875 41.796875 6.6875 
Q 48.140625 6.6875 53.78125 8.984375 
Q 59.421875 11.28125 64.40625 15.921875 
L 64.40625 5.609375 
Q 59.234375 2.09375 53.4375 0.328125 
Q 47.65625 -1.421875 41.21875 -1.421875 
Q 24.65625 -1.421875 15.125 8.703125 
Q 5.609375 18.84375 5.609375 36.375 
Q 5.609375 53.953125 15.125 64.078125 
Q 24.65625 74.21875 41.21875 74.21875 
Q 47.75 74.21875 53.53125 72.484375 
Q 59.328125 70.75 64.40625 67.28125 
z
" id="DejaVuSans-43"/>
     <path d="M 37.109375 75.984375 
L 37.109375 68.5 
L 28.515625 68.5 
Q 23.6875 68.5 21.796875 66.546875 
Q 19.921875 64.59375 19.921875 59.515625 
L 19.921875 54.6875 
L 34.71875 54.6875 
L 34.71875 47.703125 
L 19.921875 47.703125 
L 19.921875 0 
L 10.890625 0 
L 10.890625 47.703125 
L 2.296875 47.703125 
L 2.296875 54.6875 
L 10.890625 54.6875 
L 10.890625 58.5 
Q 10.890625 67.625 15.140625 71.796875 
Q 19.390625 75.984375 28.609375 75.984375 
z
" id="DejaVuSans-66"/>
     <path d="M 53.515625 70.515625 
L 53.515625 60.890625 
Q 47.90625 63.578125 42.921875 64.890625 
Q 37.9375 66.21875 33.296875 66.21875 
Q 25.25 66.21875 20.875 63.09375 
Q 16.5 59.96875 16.5 54.203125 
Q 16.5 49.359375 19.40625 46.890625 
Q 22.3125 44.4375 30.421875 42.921875 
L 36.375 41.703125 
Q 47.40625 39.59375 52.65625 34.296875 
Q 57.90625 29 57.90625 20.125 
Q 57.90625 9.515625 50.796875 4.046875 
Q 43.703125 -1.421875 29.984375 -1.421875 
Q 24.8125 -1.421875 18.96875 -0.25 
Q 13.140625 0.921875 6.890625 3.21875 
L 6.890625 13.375 
Q 12.890625 10.015625 18.65625 8.296875 
Q 24.421875 6.59375 29.984375 6.59375 
Q 38.421875 6.59375 43.015625 9.90625 
Q 47.609375 13.234375 47.609375 19.390625 
Q 47.609375 24.75 44.3125 27.78125 
Q 41.015625 30.8125 33.5 32.328125 
L 27.484375 33.5 
Q 16.453125 35.6875 11.515625 40.375 
Q 6.59375 45.0625 6.59375 53.421875 
Q 6.59375 63.09375 13.40625 68.65625 
Q 20.21875 74.21875 32.171875 74.21875 
Q 37.3125 74.21875 42.625 73.28125 
Q 47.953125 72.359375 53.515625 70.515625 
z
" id="DejaVuSans-53"/>
     <path d="M -0.296875 72.90625 
L 61.375 72.90625 
L 61.375 64.59375 
L 35.5 64.59375 
L 35.5 0 
L 25.59375 0 
L 25.59375 64.59375 
L -0.296875 64.59375 
z
" id="DejaVuSans-54"/>
    </defs>
    <g transform="translate(114.11625 35.472)scale(0.12 -0.12)">
     <use xlink:href="#DejaVuSans-4e"/>
     <use x="74.804688" xlink:href="#DejaVuSans-6f"/>
     <use x="135.986328" xlink:href="#DejaVuSans-6e"/>
     <use x="199.365234" xlink:href="#DejaVuSans-2d"/>
     <use x="235.449219" xlink:href="#DejaVuSans-45"/>
     <use x="298.632812" xlink:href="#DejaVuSans-56"/>
     <use x="367.041016" xlink:href="#DejaVuSans-20"/>
     <use x="398.828125" xlink:href="#DejaVuSans-43"/>
     <use x="468.652344" xlink:href="#DejaVuSans-65"/>
     <use x="530.175781" xlink:href="#DejaVuSans-72"/>
     <use x="571.289062" xlink:href="#DejaVuSans-74"/>
     <use x="610.498047" xlink:href="#DejaVuSans-69"/>
     <use x="638.28125" xlink:href="#DejaVuSans-66"/>
     <use x="673.486328" xlink:href="#DejaVuSans-69"/>
     <use x="701.269531" xlink:href="#DejaVuSans-63"/>
     <use x="756.25" xlink:href="#DejaVuSans-61"/>
     <use x="817.529297" xlink:href="#DejaVuSans-74"/>
     <use x="856.738281" xlink:href="#DejaVuSans-65"/>
     <use x="918.261719" xlink:href="#DejaVuSans-73"/>
     <use x="970.361328" xlink:href="#DejaVuSans-20"/>
     <use x="1002.148438" xlink:href="#DejaVuSans-77"/>
     <use x="1083.935547" xlink:href="#DejaVuSans-69"/>
     <use x="1111.71875" xlink:href="#DejaVuSans-74"/>
     <use x="1150.927734" xlink:href="#DejaVuSans-68"/>
     <use x="1214.306641" xlink:href="#DejaVuSans-20"/>
     <use x="1246.09375" xlink:href="#DejaVuSans-6f"/>
     <use x="1307.275391" xlink:href="#DejaVuSans-72"/>
     <use x="1348.388672" xlink:href="#DejaVuSans-20"/>
     <use x="1380.175781" xlink:href="#DejaVuSans-77"/>
     <use x="1461.962891" xlink:href="#DejaVuSans-69"/>
     <use x="1489.746094" xlink:href="#DejaVuSans-74"/>
     <use x="1528.955078" xlink:href="#DejaVuSans-68"/>
     <use x="1592.333984" xlink:href="#DejaVuSans-6f"/>
     <use x="1653.515625" xlink:href="#DejaVuSans-75"/>
     <use x="1716.894531" xlink:href="#DejaVuSans-74"/>
     <use x="1756.103516" xlink:href="#DejaVuSans-20"/>
     <use x="1787.890625" xlink:href="#DejaVuSans-53"/>
     <use x="1851.367188" xlink:href="#DejaVuSans-43"/>
     <use x="1921.191406" xlink:href="#DejaVuSans-54"/>
     <use x="1982.025391" xlink:href="#DejaVuSans-73"/>
    </g>
   </g>
  </g>
 </g>
 <defs>
  <clipPath id="p7c2655eee7">
   <rect height="266.112" width="357.12" x="57.6" y="41.472"/>
  </clipPath>
 </defs>
</svg>
