<?xml version="1.0" encoding="utf-8" standalone="no"?>
<!DOCTYPE svg PUBLIC "-//W3C//DTD SVG 1.1//EN"
  "http://www.w3.org/Graphics/SVG/1.1/DTD/svg11.dtd">
<!-- Created with matplotlib (http://matplotlib.org/) -->
<svg height="345pt" version="1.1" viewBox="0 0 460 345" width="460pt" xmlns="http://www.w3.org/2000/svg" xmlns:xlink="http://www.w3.org/1999/xlink">
 <defs>
  <style type="text/css">
*{stroke-linecap:butt;stroke-linejoin:round;}
  </style>
 </defs>
 <g id="figure_1">
  <g id="patch_1">
   <path d="M 0 345.6 
L 460.8 345.6 
L 460.8 0 
L 0 0 
z
" style="fill:#ffffff;"/>
  </g>
  <g id="axes_1">
   <g id="patch_2">
    <path d="M 57.6 307.584 
L 414.72 307.584 
L 414.72 41.472 
L 57.6 41.472 
z
" style="fill:#ffffff;"/>
   </g>
   <g id="PolyCollection_1">
    <path clip-path="url(#pfc570fb2ce)" d="M 73.832727 178.760007 
L 73.832727 307.584 
L 77.112066 307.584 
L 80.391405 307.584 
L 83.670744 307.584 
L 86.950083 307.584 
L 90.229421 307.584 
L 93.50876 307.584 
L 96.788099 307.584 
L 100.067438 307.584 
L 103.346777 307.584 
L 106.626116 307.584 
L 109.905455 307.584 
L 113.184793 307.584 
L 116.464132 307.584 
L 119.743471 307.584 
L 123.02281 307.584 
L 126.302149 307.584 
L 129.581488 307.584 
L 132.860826 307.584 
L 136.140165 307.584 
L 139.419504 307.584 
L 142.698843 307.584 
L 145.978182 307.584 
L 149.257521 307.584 
L 152.53686 307.584 
L 155.816198 307.584 
L 159.095537 307.584 
L 162.374876 307.584 
L 165.654215 307.584 
L 168.933554 307.584 
L 172.212893 307.584 
L 175.492231 307.584 
L 178.77157 307.584 
L 182.050909 307.584 
L 185.330248 307.584 
L 188.609587 307.584 
L 191.888926 307.584 
L 195.168264 307.584 
L 198.447603 307.584 
L 201.726942 307.584 
L 205.006281 307.584 
L 208.28562 307.584 
L 211.564959 307.584 
L 214.844298 307.584 
L 218.123636 307.584 
L 221.402975 307.584 
L 224.682314 307.584 
L 227.961653 307.584 
L 231.240992 307.584 
L 234.520331 307.584 
L 237.799669 307.584 
L 241.079008 307.584 
L 244.358347 307.584 
L 247.637686 307.584 
L 250.917025 307.584 
L 254.196364 307.584 
L 257.475702 307.584 
L 260.755041 307.584 
L 264.03438 307.584 
L 267.313719 307.584 
L 270.593058 307.584 
L 273.872397 307.584 
L 277.151736 307.584 
L 280.431074 307.584 
L 283.710413 307.584 
L 286.989752 307.584 
L 290.269091 307.584 
L 293.54843 307.584 
L 296.827769 307.584 
L 300.107107 307.584 
L 303.386446 307.584 
L 306.665785 307.584 
L 309.945124 307.584 
L 313.224463 307.584 
L 316.503802 307.584 
L 319.78314 307.584 
L 323.062479 307.584 
L 326.341818 307.584 
L 329.621157 307.584 
L 332.900496 307.584 
L 336.179835 307.584 
L 339.459174 307.584 
L 342.738512 307.584 
L 346.017851 307.584 
L 349.29719 307.584 
L 352.576529 307.584 
L 355.855868 307.584 
L 359.135207 307.584 
L 362.414545 307.584 
L 365.693884 307.584 
L 368.973223 307.584 
L 372.252562 307.584 
L 375.531901 307.584 
L 378.81124 307.584 
L 382.090579 307.584 
L 385.369917 307.584 
L 388.649256 307.584 
L 391.928595 307.584 
L 395.207934 307.584 
L 398.487273 307.584 
L 398.487273 115.323062 
L 398.487273 115.323062 
L 395.207934 114.600661 
L 391.928595 112.00483 
L 388.649256 112.740297 
L 385.369917 114.106731 
L 382.090579 117.022211 
L 378.81124 114.082597 
L 375.531901 113.517093 
L 372.252562 113.567958 
L 368.973223 117.580383 
L 365.693884 115.423411 
L 362.414545 115.666532 
L 359.135207 114.881255 
L 355.855868 114.018414 
L 352.576529 116.251383 
L 349.29719 114.075853 
L 346.017851 113.770352 
L 342.738512 114.61468 
L 339.459174 113.448083 
L 336.179835 113.64403 
L 332.900496 115.521406 
L 329.621157 116.268673 
L 326.341818 115.274877 
L 323.062479 113.881316 
L 319.78314 115.30752 
L 316.503802 114.786611 
L 313.224463 115.247858 
L 309.945124 116.225844 
L 306.665785 114.679032 
L 303.386446 116.018928 
L 300.107107 110.035856 
L 296.827769 117.17571 
L 293.54843 114.825762 
L 290.269091 117.399524 
L 286.989752 115.891882 
L 283.710413 115.088406 
L 280.431074 117.655127 
L 277.151736 117.504 
L 273.872397 117.032431 
L 270.593058 115.983664 
L 267.313719 117.237301 
L 264.03438 115.981838 
L 260.755041 116.40742 
L 257.475702 117.750095 
L 254.196364 116.624531 
L 250.917025 115.33882 
L 247.637686 115.377311 
L 244.358347 115.8538 
L 241.079008 114.583522 
L 237.799669 117.324403 
L 234.520331 118.515165 
L 231.240992 117.996043 
L 227.961653 117.447412 
L 224.682314 115.202058 
L 221.402975 117.71552 
L 218.123636 121.369969 
L 214.844298 118.931751 
L 211.564959 118.853714 
L 208.28562 119.026478 
L 205.006281 120.007644 
L 201.726942 119.928889 
L 198.447603 120.18947 
L 195.168264 118.396941 
L 191.888926 118.465914 
L 188.609587 118.449102 
L 185.330248 119.831047 
L 182.050909 117.46606 
L 178.77157 118.866581 
L 175.492231 123.02651 
L 172.212893 119.888463 
L 168.933554 124.451918 
L 165.654215 122.123092 
L 162.374876 126.165701 
L 159.095537 122.049371 
L 155.816198 123.185633 
L 152.53686 123.879969 
L 149.257521 123.471504 
L 145.978182 124.144691 
L 142.698843 127.521353 
L 139.419504 127.343708 
L 136.140165 126.438258 
L 132.860826 126.07043 
L 129.581488 127.64465 
L 126.302149 128.326212 
L 123.02281 130.571515 
L 119.743471 131.288092 
L 116.464132 130.535218 
L 113.184793 132.323797 
L 109.905455 130.51569 
L 106.626116 135.942305 
L 103.346777 135.66932 
L 100.067438 134.888006 
L 96.788099 137.523533 
L 93.50876 139.362665 
L 90.229421 142.693487 
L 86.950083 145.661844 
L 83.670744 148.590386 
L 80.391405 153.877679 
L 77.112066 161.840526 
L 73.832727 178.760007 
z
" style="fill:#fdae6b;"/>
   </g>
   <g id="PolyCollection_2">
    <path clip-path="url(#pfc570fb2ce)" d="M 73.832727 178.726874 
L 73.832727 178.760007 
L 77.112066 161.840526 
L 80.391405 153.877679 
L 83.670744 148.590386 
L 86.950083 145.661844 
L 90.229421 142.693487 
L 93.50876 139.362665 
L 96.788099 137.523533 
L 100.067438 134.888006 
L 103.346777 135.66932 
L 106.626116 135.942305 
L 109.905455 130.51569 
L 113.184793 132.323797 
L 116.464132 130.535218 
L 119.743471 131.288092 
L 123.02281 130.571515 
L 126.302149 128.326212 
L 129.581488 127.64465 
L 132.860826 126.07043 
L 136.140165 126.438258 
L 139.419504 127.343708 
L 142.698843 127.521353 
L 145.978182 124.144691 
L 149.257521 123.471504 
L 152.53686 123.879969 
L 155.816198 123.185633 
L 159.095537 122.049371 
L 162.374876 126.165701 
L 165.654215 122.123092 
L 168.933554 124.451918 
L 172.212893 119.888463 
L 175.492231 123.02651 
L 178.77157 118.866581 
L 182.050909 117.46606 
L 185.330248 119.831047 
L 188.609587 118.449102 
L 191.888926 118.465914 
L 195.168264 118.396941 
L 198.447603 120.18947 
L 201.726942 119.928889 
L 205.006281 120.007644 
L 208.28562 119.026478 
L 211.564959 118.853714 
L 214.844298 118.931751 
L 218.123636 121.369969 
L 221.402975 117.71552 
L 224.682314 115.202058 
L 227.961653 117.447412 
L 231.240992 117.996043 
L 234.520331 118.515165 
L 237.799669 117.324403 
L 241.079008 114.583522 
L 244.358347 115.8538 
L 247.637686 115.377311 
L 250.917025 115.33882 
L 254.196364 116.624531 
L 257.475702 117.750095 
L 260.755041 116.40742 
L 264.03438 115.981838 
L 267.313719 117.237301 
L 270.593058 115.983664 
L 273.872397 117.032431 
L 277.151736 117.504 
L 280.431074 117.655127 
L 283.710413 115.088406 
L 286.989752 115.891882 
L 290.269091 117.399524 
L 293.54843 114.825762 
L 296.827769 117.17571 
L 300.107107 110.035856 
L 303.386446 116.018928 
L 306.665785 114.679032 
L 309.945124 116.225844 
L 313.224463 115.247858 
L 316.503802 114.786611 
L 319.78314 115.30752 
L 323.062479 113.881316 
L 326.341818 115.274877 
L 329.621157 116.268673 
L 332.900496 115.521406 
L 336.179835 113.64403 
L 339.459174 113.448083 
L 342.738512 114.61468 
L 346.017851 113.770352 
L 349.29719 114.075853 
L 352.576529 116.251383 
L 355.855868 114.018414 
L 359.135207 114.881255 
L 362.414545 115.666532 
L 365.693884 115.423411 
L 368.973223 117.580383 
L 372.252562 113.567958 
L 375.531901 113.517093 
L 378.81124 114.082597 
L 382.090579 117.022211 
L 385.369917 114.106731 
L 388.649256 112.740297 
L 391.928595 112.00483 
L 395.207934 114.600661 
L 398.487273 115.323062 
L 398.487273 115.323062 
L 398.487273 115.323062 
L 395.207934 114.563319 
L 391.928595 112.00483 
L 388.649256 112.703583 
L 385.369917 114.106731 
L 382.090579 117.022211 
L 378.81124 114.082597 
L 375.531901 113.479657 
L 372.252562 113.567958 
L 368.973223 117.580383 
L 365.693884 115.423411 
L 362.414545 115.666532 
L 359.135207 114.844444 
L 355.855868 114.018414 
L 352.576529 116.251383 
L 349.29719 114.075853 
L 346.017851 113.733016 
L 342.738512 114.61468 
L 339.459174 113.375003 
L 336.179835 113.64403 
L 332.900496 115.521406 
L 329.621157 116.230953 
L 326.341818 115.274877 
L 323.062479 113.881316 
L 319.78314 115.30752 
L 316.503802 114.786611 
L 313.224463 115.247858 
L 309.945124 116.225844 
L 306.665785 114.679032 
L 303.386446 116.018928 
L 300.107107 110.035856 
L 296.827769 117.17571 
L 293.54843 114.788304 
L 290.269091 117.399524 
L 286.989752 115.854391 
L 283.710413 115.088406 
L 280.431074 117.655127 
L 277.151736 117.504 
L 273.872397 117.032431 
L 270.593058 115.945656 
L 267.313719 117.161102 
L 264.03438 115.981838 
L 260.755041 116.40742 
L 257.475702 117.750095 
L 254.196364 116.624531 
L 250.917025 115.33882 
L 247.637686 115.377311 
L 244.358347 115.8538 
L 241.079008 114.583522 
L 237.799669 117.324403 
L 234.520331 118.515165 
L 231.240992 117.996043 
L 227.961653 117.447412 
L 224.682314 115.164322 
L 221.402975 117.71552 
L 218.123636 121.331881 
L 214.844298 118.931751 
L 211.564959 118.853714 
L 208.28562 118.949876 
L 205.006281 119.970136 
L 201.726942 119.928889 
L 198.447603 120.151512 
L 195.168264 118.396941 
L 191.888926 118.465914 
L 188.609587 118.410916 
L 185.330248 119.831047 
L 182.050909 117.46606 
L 178.77157 118.866581 
L 175.492231 123.02651 
L 172.212893 119.888463 
L 168.933554 124.413372 
L 165.654215 122.123092 
L 162.374876 126.165701 
L 159.095537 122.011414 
L 155.816198 123.185633 
L 152.53686 123.879969 
L 149.257521 123.471504 
L 145.978182 124.105628 
L 142.698843 127.521353 
L 139.419504 127.343708 
L 136.140165 126.438258 
L 132.860826 126.030953 
L 129.581488 127.64465 
L 126.302149 128.326212 
L 123.02281 130.571515 
L 119.743471 131.288092 
L 116.464132 130.535218 
L 113.184793 132.323797 
L 109.905455 130.51569 
L 106.626116 135.942305 
L 103.346777 135.66932 
L 100.067438 134.888006 
L 96.788099 137.523533 
L 93.50876 139.362665 
L 90.229421 142.693487 
L 86.950083 145.661844 
L 83.670744 148.590386 
L 80.391405 153.877679 
L 77.112066 161.840526 
L 73.832727 178.726874 
z
" style="fill:#c6dbef;"/>
   </g>
   <g id="PolyCollection_3">
    <path clip-path="url(#pfc570fb2ce)" d="M 73.832727 136.978357 
L 73.832727 178.726874 
L 77.112066 161.840526 
L 80.391405 153.877679 
L 83.670744 148.590386 
L 86.950083 145.661844 
L 90.229421 142.693487 
L 93.50876 139.362665 
L 96.788099 137.523533 
L 100.067438 134.888006 
L 103.346777 135.66932 
L 106.626116 135.942305 
L 109.905455 130.51569 
L 113.184793 132.323797 
L 116.464132 130.535218 
L 119.743471 131.288092 
L 123.02281 130.571515 
L 126.302149 128.326212 
L 129.581488 127.64465 
L 132.860826 126.030953 
L 136.140165 126.438258 
L 139.419504 127.343708 
L 142.698843 127.521353 
L 145.978182 124.105628 
L 149.257521 123.471504 
L 152.53686 123.879969 
L 155.816198 123.185633 
L 159.095537 122.011414 
L 162.374876 126.165701 
L 165.654215 122.123092 
L 168.933554 124.413372 
L 172.212893 119.888463 
L 175.492231 123.02651 
L 178.77157 118.866581 
L 182.050909 117.46606 
L 185.330248 119.831047 
L 188.609587 118.410916 
L 191.888926 118.465914 
L 195.168264 118.396941 
L 198.447603 120.151512 
L 201.726942 119.928889 
L 205.006281 119.970136 
L 208.28562 118.949876 
L 211.564959 118.853714 
L 214.844298 118.931751 
L 218.123636 121.331881 
L 221.402975 117.71552 
L 224.682314 115.164322 
L 227.961653 117.447412 
L 231.240992 117.996043 
L 234.520331 118.515165 
L 237.799669 117.324403 
L 241.079008 114.583522 
L 244.358347 115.8538 
L 247.637686 115.377311 
L 250.917025 115.33882 
L 254.196364 116.624531 
L 257.475702 117.750095 
L 260.755041 116.40742 
L 264.03438 115.981838 
L 267.313719 117.161102 
L 270.593058 115.945656 
L 273.872397 117.032431 
L 277.151736 117.504 
L 280.431074 117.655127 
L 283.710413 115.088406 
L 286.989752 115.854391 
L 290.269091 117.399524 
L 293.54843 114.788304 
L 296.827769 117.17571 
L 300.107107 110.035856 
L 303.386446 116.018928 
L 306.665785 114.679032 
L 309.945124 116.225844 
L 313.224463 115.247858 
L 316.503802 114.786611 
L 319.78314 115.30752 
L 323.062479 113.881316 
L 326.341818 115.274877 
L 329.621157 116.230953 
L 332.900496 115.521406 
L 336.179835 113.64403 
L 339.459174 113.375003 
L 342.738512 114.61468 
L 346.017851 113.733016 
L 349.29719 114.075853 
L 352.576529 116.251383 
L 355.855868 114.018414 
L 359.135207 114.844444 
L 362.414545 115.666532 
L 365.693884 115.423411 
L 368.973223 117.580383 
L 372.252562 113.567958 
L 375.531901 113.479657 
L 378.81124 114.082597 
L 382.090579 117.022211 
L 385.369917 114.106731 
L 388.649256 112.703583 
L 391.928595 112.00483 
L 395.207934 114.563319 
L 398.487273 115.323062 
L 398.487273 93.062457 
L 398.487273 93.062457 
L 395.207934 92.195475 
L 391.928595 90.449556 
L 388.649256 90.160897 
L 385.369917 92.869157 
L 382.090579 94.387566 
L 378.81124 92.968695 
L 375.531901 92.365897 
L 372.252562 92.02724 
L 368.973223 95.200058 
L 365.693884 92.807502 
L 362.414545 93.654225 
L 359.135207 92.353255 
L 355.855868 92.346761 
L 352.576529 92.732091 
L 349.29719 90.760718 
L 346.017851 91.96585 
L 342.738512 91.947495 
L 339.459174 92.181924 
L 336.179835 92.819019 
L 332.900496 95.160632 
L 329.621157 95.334129 
L 326.341818 93.663714 
L 323.062479 93.069368 
L 319.78314 92.4416 
L 316.503802 93.633063 
L 313.224463 92.460819 
L 309.945124 94.971942 
L 306.665785 92.996484 
L 303.386446 93.586038 
L 300.107107 90.578623 
L 296.827769 95.377244 
L 293.54843 93.999182 
L 290.269091 96.238367 
L 286.989752 94.259503 
L 283.710413 93.507845 
L 280.431074 96.497345 
L 277.151736 94.753551 
L 273.872397 94.397123 
L 270.593058 94.356885 
L 267.313719 95.215606 
L 264.03438 95.090162 
L 260.755041 95.293616 
L 257.475702 96.699506 
L 254.196364 96.396746 
L 250.917025 95.054504 
L 247.637686 94.80016 
L 244.358347 96.013025 
L 241.079008 94.092303 
L 237.799669 96.528938 
L 234.520331 96.880043 
L 231.240992 96.346151 
L 227.961653 96.35885 
L 224.682314 94.107216 
L 221.402975 96.371181 
L 218.123636 98.174153 
L 214.844298 98.13008 
L 211.564959 96.913675 
L 208.28562 98.496958 
L 205.006281 98.065598 
L 201.726942 97.361778 
L 198.447603 97.453127 
L 195.168264 97.121647 
L 191.888926 97.439838 
L 188.609587 97.675957 
L 185.330248 97.393018 
L 182.050909 96.978395 
L 178.77157 95.854108 
L 175.492231 99.438188 
L 172.212893 98.771734 
L 168.933554 102.480694 
L 165.654215 99.463395 
L 162.374876 103.444569 
L 159.095537 98.250227 
L 155.816198 99.753796 
L 152.53686 102.677494 
L 149.257521 102.154844 
L 145.978182 102.425726 
L 142.698843 105.047138 
L 139.419504 105.271893 
L 136.140165 105.347551 
L 132.860826 104.318804 
L 129.581488 104.046671 
L 126.302149 105.785499 
L 123.02281 107.926326 
L 119.743471 108.30485 
L 116.464132 106.0778 
L 113.184793 109.791458 
L 109.905455 107.166881 
L 106.626116 111.093692 
L 103.346777 110.865907 
L 100.067438 110.998329 
L 96.788099 112.417541 
L 93.50876 112.809587 
L 90.229421 116.826812 
L 86.950083 118.144392 
L 83.670744 120.932715 
L 80.391405 123.979971 
L 77.112066 128.708735 
L 73.832727 136.978357 
z
" style="fill:#9ecae1;"/>
   </g>
   <g id="PolyCollection_4">
    <path clip-path="url(#pfc570fb2ce)" d="M 73.832727 74.123647 
L 73.832727 136.978357 
L 77.112066 128.708735 
L 80.391405 123.979971 
L 83.670744 120.932715 
L 86.950083 118.144392 
L 90.229421 116.826812 
L 93.50876 112.809587 
L 96.788099 112.417541 
L 100.067438 110.998329 
L 103.346777 110.865907 
L 106.626116 111.093692 
L 109.905455 107.166881 
L 113.184793 109.791458 
L 116.464132 106.0778 
L 119.743471 108.30485 
L 123.02281 107.926326 
L 126.302149 105.785499 
L 129.581488 104.046671 
L 132.860826 104.318804 
L 136.140165 105.347551 
L 139.419504 105.271893 
L 142.698843 105.047138 
L 145.978182 102.425726 
L 149.257521 102.154844 
L 152.53686 102.677494 
L 155.816198 99.753796 
L 159.095537 98.250227 
L 162.374876 103.444569 
L 165.654215 99.463395 
L 168.933554 102.480694 
L 172.212893 98.771734 
L 175.492231 99.438188 
L 178.77157 95.854108 
L 182.050909 96.978395 
L 185.330248 97.393018 
L 188.609587 97.675957 
L 191.888926 97.439838 
L 195.168264 97.121647 
L 198.447603 97.453127 
L 201.726942 97.361778 
L 205.006281 98.065598 
L 208.28562 98.496958 
L 211.564959 96.913675 
L 214.844298 98.13008 
L 218.123636 98.174153 
L 221.402975 96.371181 
L 224.682314 94.107216 
L 227.961653 96.35885 
L 231.240992 96.346151 
L 234.520331 96.880043 
L 237.799669 96.528938 
L 241.079008 94.092303 
L 244.358347 96.013025 
L 247.637686 94.80016 
L 250.917025 95.054504 
L 254.196364 96.396746 
L 257.475702 96.699506 
L 260.755041 95.293616 
L 264.03438 95.090162 
L 267.313719 95.215606 
L 270.593058 94.356885 
L 273.872397 94.397123 
L 277.151736 94.753551 
L 280.431074 96.497345 
L 283.710413 93.507845 
L 286.989752 94.259503 
L 290.269091 96.238367 
L 293.54843 93.999182 
L 296.827769 95.377244 
L 300.107107 90.578623 
L 303.386446 93.586038 
L 306.665785 92.996484 
L 309.945124 94.971942 
L 313.224463 92.460819 
L 316.503802 93.633063 
L 319.78314 92.4416 
L 323.062479 93.069368 
L 326.341818 93.663714 
L 329.621157 95.334129 
L 332.900496 95.160632 
L 336.179835 92.819019 
L 339.459174 92.181924 
L 342.738512 91.947495 
L 346.017851 91.96585 
L 349.29719 90.760718 
L 352.576529 92.732091 
L 355.855868 92.346761 
L 359.135207 92.353255 
L 362.414545 93.654225 
L 365.693884 92.807502 
L 368.973223 95.200058 
L 372.252562 92.02724 
L 375.531901 92.365897 
L 378.81124 92.968695 
L 382.090579 94.387566 
L 385.369917 92.869157 
L 388.649256 90.160897 
L 391.928595 90.449556 
L 395.207934 92.195475 
L 398.487273 93.062457 
L 398.487273 74.787703 
L 398.487273 74.787703 
L 395.207934 74.458036 
L 391.928595 73.78652 
L 388.649256 72.721523 
L 385.369917 73.747914 
L 382.090579 75.002637 
L 378.81124 74.123532 
L 375.531901 73.460845 
L 372.252562 73.964452 
L 368.973223 74.958467 
L 365.693884 73.960911 
L 362.414545 75.596672 
L 359.135207 73.984837 
L 355.855868 74.299377 
L 352.576529 74.298051 
L 349.29719 72.190811 
L 346.017851 73.596304 
L 342.738512 72.747495 
L 339.459174 72.815834 
L 336.179835 73.425022 
L 332.900496 74.172805 
L 329.621157 74.663625 
L 326.341818 75.037309 
L 323.062479 74.327524 
L 319.78314 72.579413 
L 316.503802 73.321265 
L 313.224463 73.396415 
L 309.945124 73.827597 
L 306.665785 72.267822 
L 303.386446 73.735882 
L 300.107107 71.617358 
L 296.827769 74.441711 
L 293.54843 73.359891 
L 290.269091 75.343149 
L 286.989752 72.852071 
L 283.710413 73.092785 
L 280.431074 74.017202 
L 277.151736 72.192689 
L 273.872397 74.251699 
L 270.593058 73.528283 
L 267.313719 72.584313 
L 264.03438 72.676324 
L 260.755041 72.953129 
L 257.475702 74.399512 
L 254.196364 72.689323 
L 250.917025 71.883281 
L 247.637686 72.95849 
L 244.358347 71.797301 
L 241.079008 71.992427 
L 237.799669 72.557439 
L 234.520331 72.573919 
L 231.240992 73.068731 
L 227.961653 72.554051 
L 224.682314 71.31422 
L 221.402975 72.219387 
L 218.123636 72.997742 
L 214.844298 73.168074 
L 211.564959 72.52309 
L 208.28562 73.601083 
L 205.006281 72.297761 
L 201.726942 72.487111 
L 198.447603 72.477311 
L 195.168264 72.002824 
L 191.888926 73.11022 
L 188.609587 71.747713 
L 185.330248 72.684699 
L 182.050909 71.824096 
L 178.77157 71.630452 
L 175.492231 72.891722 
L 172.212893 71.806692 
L 168.933554 73.84101 
L 165.654215 72.039351 
L 162.374876 73.396554 
L 159.095537 70.921068 
L 155.816198 72.050939 
L 152.53686 73.290939 
L 149.257521 71.785374 
L 145.978182 72.698871 
L 142.698843 72.00812 
L 139.419504 72.318519 
L 136.140165 72.696011 
L 132.860826 70.724187 
L 129.581488 72.137935 
L 126.302149 71.38326 
L 123.02281 71.63198 
L 119.743471 71.937478 
L 116.464132 71.455267 
L 113.184793 71.755932 
L 109.905455 71.479905 
L 106.626116 73.246124 
L 103.346777 71.116848 
L 100.067438 71.518311 
L 96.788099 71.764261 
L 93.50876 70.316885 
L 90.229421 71.502904 
L 86.950083 70.94944 
L 83.670744 71.392053 
L 80.391405 71.463022 
L 77.112066 71.547293 
L 73.832727 74.123647 
z
" style="fill:#6baed6;"/>
   </g>
   <g id="PolyCollection_5">
    <path clip-path="url(#pfc570fb2ce)" d="M 73.832727 57.357973 
L 73.832727 74.123647 
L 77.112066 71.547293 
L 80.391405 71.463022 
L 83.670744 71.392053 
L 86.950083 70.94944 
L 90.229421 71.502904 
L 93.50876 70.316885 
L 96.788099 71.764261 
L 100.067438 71.518311 
L 103.346777 71.116848 
L 106.626116 73.246124 
L 109.905455 71.479905 
L 113.184793 71.755932 
L 116.464132 71.455267 
L 119.743471 71.937478 
L 123.02281 71.63198 
L 126.302149 71.38326 
L 129.581488 72.137935 
L 132.860826 70.724187 
L 136.140165 72.696011 
L 139.419504 72.318519 
L 142.698843 72.00812 
L 145.978182 72.698871 
L 149.257521 71.785374 
L 152.53686 73.290939 
L 155.816198 72.050939 
L 159.095537 70.921068 
L 162.374876 73.396554 
L 165.654215 72.039351 
L 168.933554 73.84101 
L 172.212893 71.806692 
L 175.492231 72.891722 
L 178.77157 71.630452 
L 182.050909 71.824096 
L 185.330248 72.684699 
L 188.609587 71.747713 
L 191.888926 73.11022 
L 195.168264 72.002824 
L 198.447603 72.477311 
L 201.726942 72.487111 
L 205.006281 72.297761 
L 208.28562 73.601083 
L 211.564959 72.52309 
L 214.844298 73.168074 
L 218.123636 72.997742 
L 221.402975 72.219387 
L 224.682314 71.31422 
L 227.961653 72.554051 
L 231.240992 73.068731 
L 234.520331 72.573919 
L 237.799669 72.557439 
L 241.079008 71.992427 
L 244.358347 71.797301 
L 247.637686 72.95849 
L 250.917025 71.883281 
L 254.196364 72.689323 
L 257.475702 74.399512 
L 260.755041 72.953129 
L 264.03438 72.676324 
L 267.313719 72.584313 
L 270.593058 73.528283 
L 273.872397 74.251699 
L 277.151736 72.192689 
L 280.431074 74.017202 
L 283.710413 73.092785 
L 286.989752 72.852071 
L 290.269091 75.343149 
L 293.54843 73.359891 
L 296.827769 74.441711 
L 300.107107 71.617358 
L 303.386446 73.735882 
L 306.665785 72.267822 
L 309.945124 73.827597 
L 313.224463 73.396415 
L 316.503802 73.321265 
L 319.78314 72.579413 
L 323.062479 74.327524 
L 326.341818 75.037309 
L 329.621157 74.663625 
L 332.900496 74.172805 
L 336.179835 73.425022 
L 339.459174 72.815834 
L 342.738512 72.747495 
L 346.017851 73.596304 
L 349.29719 72.190811 
L 352.576529 74.298051 
L 355.855868 74.299377 
L 359.135207 73.984837 
L 362.414545 75.596672 
L 365.693884 73.960911 
L 368.973223 74.958467 
L 372.252562 73.964452 
L 375.531901 73.460845 
L 378.81124 74.123532 
L 382.090579 75.002637 
L 385.369917 73.747914 
L 388.649256 72.721523 
L 391.928595 73.78652 
L 395.207934 74.458036 
L 398.487273 74.787703 
L 398.487273 61.401258 
L 398.487273 61.401258 
L 395.207934 61.052266 
L 391.928595 61.31683 
L 388.649256 60.532318 
L 385.369917 61.569725 
L 382.090579 60.870155 
L 378.81124 61.206362 
L 375.531901 61.331663 
L 372.252562 61.623416 
L 368.973223 61.171269 
L 365.693884 61.234797 
L 362.414545 61.493872 
L 359.135207 61.322039 
L 355.855868 61.24461 
L 352.576529 61.061439 
L 349.29719 60.645336 
L 346.017851 61.312603 
L 342.738512 60.966524 
L 339.459174 60.611543 
L 336.179835 61.374383 
L 332.900496 61.557978 
L 329.621157 60.744982 
L 326.341818 62.040386 
L 323.062479 61.130604 
L 319.78314 60.038827 
L 316.503802 60.768208 
L 313.224463 61.852487 
L 309.945124 61.557303 
L 306.665785 60.380943 
L 303.386446 60.711524 
L 300.107107 59.98117 
L 296.827769 61.497699 
L 293.54843 60.811502 
L 290.269091 62.198157 
L 286.989752 60.330036 
L 283.710413 60.573052 
L 280.431074 61.360315 
L 277.151736 60.74163 
L 273.872397 60.859141 
L 270.593058 61.137545 
L 267.313719 60.54477 
L 264.03438 60.841514 
L 260.755041 60.76065 
L 257.475702 61.716154 
L 254.196364 60.529709 
L 250.917025 60.259683 
L 247.637686 60.619863 
L 244.358347 60.169148 
L 241.079008 60.387119 
L 237.799669 60.30702 
L 234.520331 60.592564 
L 231.240992 60.162065 
L 227.961653 60.745965 
L 224.682314 59.691302 
L 221.402975 61.104947 
L 218.123636 61.228436 
L 214.844298 61.178747 
L 211.564959 60.423523 
L 208.28562 60.999941 
L 205.006281 60.482813 
L 201.726942 61.301333 
L 198.447603 60.596718 
L 195.168264 60.433412 
L 191.888926 61.023141 
L 188.609587 60.215562 
L 185.330248 60.235944 
L 182.050909 60.024719 
L 178.77157 60.199914 
L 175.492231 60.674969 
L 172.212893 60.973574 
L 168.933554 60.812459 
L 165.654215 59.799241 
L 162.374876 60.886291 
L 159.095537 59.571875 
L 155.816198 61.353796 
L 152.53686 61.22418 
L 149.257521 60.372643 
L 145.978182 60.745628 
L 142.698843 59.59928 
L 139.419504 59.276083 
L 136.140165 60.197814 
L 132.860826 59.354916 
L 129.581488 59.748043 
L 126.302149 59.369174 
L 123.02281 59.029777 
L 119.743471 59.762993 
L 116.464132 59.761563 
L 113.184793 59.22061 
L 109.905455 58.517021 
L 106.626116 59.49418 
L 103.346777 58.754891 
L 100.067438 59.379562 
L 96.788099 59.288041 
L 93.50876 58.148344 
L 90.229421 58.264355 
L 86.950083 58.18041 
L 83.670744 58.20907 
L 80.391405 58.884336 
L 77.112066 58.622253 
L 73.832727 57.357973 
z
" style="fill:#3182bd;"/>
   </g>
   <g id="PolyCollection_6">
    <path clip-path="url(#pfc570fb2ce)" d="M 73.832727 54.144 
L 73.832727 57.357973 
L 77.112066 58.622253 
L 80.391405 58.884336 
L 83.670744 58.20907 
L 86.950083 58.18041 
L 90.229421 58.264355 
L 93.50876 58.148344 
L 96.788099 59.288041 
L 100.067438 59.379562 
L 103.346777 58.754891 
L 106.626116 59.49418 
L 109.905455 58.517021 
L 113.184793 59.22061 
L 116.464132 59.761563 
L 119.743471 59.762993 
L 123.02281 59.029777 
L 126.302149 59.369174 
L 129.581488 59.748043 
L 132.860826 59.354916 
L 136.140165 60.197814 
L 139.419504 59.276083 
L 142.698843 59.59928 
L 145.978182 60.745628 
L 149.257521 60.372643 
L 152.53686 61.22418 
L 155.816198 61.353796 
L 159.095537 59.571875 
L 162.374876 60.886291 
L 165.654215 59.799241 
L 168.933554 60.812459 
L 172.212893 60.973574 
L 175.492231 60.674969 
L 178.77157 60.199914 
L 182.050909 60.024719 
L 185.330248 60.235944 
L 188.609587 60.215562 
L 191.888926 61.023141 
L 195.168264 60.433412 
L 198.447603 60.596718 
L 201.726942 61.301333 
L 205.006281 60.482813 
L 208.28562 60.999941 
L 211.564959 60.423523 
L 214.844298 61.178747 
L 218.123636 61.228436 
L 221.402975 61.104947 
L 224.682314 59.691302 
L 227.961653 60.745965 
L 231.240992 60.162065 
L 234.520331 60.592564 
L 237.799669 60.30702 
L 241.079008 60.387119 
L 244.358347 60.169148 
L 247.637686 60.619863 
L 250.917025 60.259683 
L 254.196364 60.529709 
L 257.475702 61.716154 
L 260.755041 60.76065 
L 264.03438 60.841514 
L 267.313719 60.54477 
L 270.593058 61.137545 
L 273.872397 60.859141 
L 277.151736 60.74163 
L 280.431074 61.360315 
L 283.710413 60.573052 
L 286.989752 60.330036 
L 290.269091 62.198157 
L 293.54843 60.811502 
L 296.827769 61.497699 
L 300.107107 59.98117 
L 303.386446 60.711524 
L 306.665785 60.380943 
L 309.945124 61.557303 
L 313.224463 61.852487 
L 316.503802 60.768208 
L 319.78314 60.038827 
L 323.062479 61.130604 
L 326.341818 62.040386 
L 329.621157 60.744982 
L 332.900496 61.557978 
L 336.179835 61.374383 
L 339.459174 60.611543 
L 342.738512 60.966524 
L 346.017851 61.312603 
L 349.29719 60.645336 
L 352.576529 61.061439 
L 355.855868 61.24461 
L 359.135207 61.322039 
L 362.414545 61.493872 
L 365.693884 61.234797 
L 368.973223 61.171269 
L 372.252562 61.623416 
L 375.531901 61.331663 
L 378.81124 61.206362 
L 382.090579 60.870155 
L 385.369917 61.569725 
L 388.649256 60.532318 
L 391.928595 61.31683 
L 395.207934 61.052266 
L 398.487273 61.401258 
L 398.487273 54.144 
L 398.487273 54.144 
L 395.207934 54.144 
L 391.928595 54.144 
L 388.649256 54.144 
L 385.369917 54.144 
L 382.090579 54.144 
L 378.81124 54.144 
L 375.531901 54.144 
L 372.252562 54.144 
L 368.973223 54.144 
L 365.693884 54.144 
L 362.414545 54.144 
L 359.135207 54.144 
L 355.855868 54.144 
L 352.576529 54.144 
L 349.29719 54.144 
L 346.017851 54.144 
L 342.738512 54.144 
L 339.459174 54.144 
L 336.179835 54.144 
L 332.900496 54.144 
L 329.621157 54.144 
L 326.341818 54.144 
L 323.062479 54.144 
L 319.78314 54.144 
L 316.503802 54.144 
L 313.224463 54.144 
L 309.945124 54.144 
L 306.665785 54.144 
L 303.386446 54.144 
L 300.107107 54.144 
L 296.827769 54.144 
L 293.54843 54.144 
L 290.269091 54.144 
L 286.989752 54.144 
L 283.710413 54.144 
L 280.431074 54.144 
L 277.151736 54.144 
L 273.872397 54.144 
L 270.593058 54.144 
L 267.313719 54.144 
L 264.03438 54.144 
L 260.755041 54.144 
L 257.475702 54.144 
L 254.196364 54.144 
L 250.917025 54.144 
L 247.637686 54.144 
L 244.358347 54.144 
L 241.079008 54.144 
L 237.799669 54.144 
L 234.520331 54.144 
L 231.240992 54.144 
L 227.961653 54.144 
L 224.682314 54.144 
L 221.402975 54.144 
L 218.123636 54.144 
L 214.844298 54.144 
L 211.564959 54.144 
L 208.28562 54.144 
L 205.006281 54.144 
L 201.726942 54.144 
L 198.447603 54.144 
L 195.168264 54.144 
L 191.888926 54.144 
L 188.609587 54.144 
L 185.330248 54.144 
L 182.050909 54.144 
L 178.77157 54.144 
L 175.492231 54.144 
L 172.212893 54.144 
L 168.933554 54.144 
L 165.654215 54.144 
L 162.374876 54.144 
L 159.095537 54.144 
L 155.816198 54.144 
L 152.53686 54.144 
L 149.257521 54.144 
L 145.978182 54.144 
L 142.698843 54.144 
L 139.419504 54.144 
L 136.140165 54.144 
L 132.860826 54.144 
L 129.581488 54.144 
L 126.302149 54.144 
L 123.02281 54.144 
L 119.743471 54.144 
L 116.464132 54.144 
L 113.184793 54.144 
L 109.905455 54.144 
L 106.626116 54.144 
L 103.346777 54.144 
L 100.067438 54.144 
L 96.788099 54.144 
L 93.50876 54.144 
L 90.229421 54.144 
L 86.950083 54.144 
L 83.670744 54.144 
L 80.391405 54.144 
L 77.112066 54.144 
L 73.832727 54.144 
z
" style="fill:#0e5a90;"/>
   </g>
   <g id="matplotlib.axis_1">
    <g id="xtick_1">
     <g id="line2d_1">
      <defs>
       <path d="M 0 0 
L 0 3.5 
" id="madbb28e132" style="stroke:#000000;stroke-width:0.8;"/>
      </defs>
      <g>
       <use style="stroke:#000000;stroke-width:0.8;" x="70.553388" xlink:href="#madbb28e132" y="307.584"/>
      </g>
     </g>
     <g id="text_1">
      <!-- 0 -->
      <defs>
       <path d="M 31.78125 66.40625 
Q 24.171875 66.40625 20.328125 58.90625 
Q 16.5 51.421875 16.5 36.375 
Q 16.5 21.390625 20.328125 13.890625 
Q 24.171875 6.390625 31.78125 6.390625 
Q 39.453125 6.390625 43.28125 13.890625 
Q 47.125 21.390625 47.125 36.375 
Q 47.125 51.421875 43.28125 58.90625 
Q 39.453125 66.40625 31.78125 66.40625 
z
M 31.78125 74.21875 
Q 44.046875 74.21875 50.515625 64.515625 
Q 56.984375 54.828125 56.984375 36.375 
Q 56.984375 17.96875 50.515625 8.265625 
Q 44.046875 -1.421875 31.78125 -1.421875 
Q 19.53125 -1.421875 13.0625 8.265625 
Q 6.59375 17.96875 6.59375 36.375 
Q 6.59375 54.828125 13.0625 64.515625 
Q 19.53125 74.21875 31.78125 74.21875 
z
" id="DejaVuSans-30"/>
      </defs>
      <g transform="translate(67.372138 322.182437)scale(0.1 -0.1)">
       <use xlink:href="#DejaVuSans-30"/>
      </g>
     </g>
    </g>
    <g id="xtick_2">
     <g id="line2d_2">
      <g>
       <use style="stroke:#000000;stroke-width:0.8;" x="136.140165" xlink:href="#madbb28e132" y="307.584"/>
      </g>
     </g>
     <g id="text_2">
      <!-- 200000 -->
      <defs>
       <path d="M 19.1875 8.296875 
L 53.609375 8.296875 
L 53.609375 0 
L 7.328125 0 
L 7.328125 8.296875 
Q 12.9375 14.109375 22.625 23.890625 
Q 32.328125 33.6875 34.8125 36.53125 
Q 39.546875 41.84375 41.421875 45.53125 
Q 43.3125 49.21875 43.3125 52.78125 
Q 43.3125 58.59375 39.234375 62.25 
Q 35.15625 65.921875 28.609375 65.921875 
Q 23.96875 65.921875 18.8125 64.3125 
Q 13.671875 62.703125 7.8125 59.421875 
L 7.8125 69.390625 
Q 13.765625 71.78125 18.9375 73 
Q 24.125 74.21875 28.421875 74.21875 
Q 39.75 74.21875 46.484375 68.546875 
Q 53.21875 62.890625 53.21875 53.421875 
Q 53.21875 48.921875 51.53125 44.890625 
Q 49.859375 40.875 45.40625 35.40625 
Q 44.1875 33.984375 37.640625 27.21875 
Q 31.109375 20.453125 19.1875 8.296875 
z
" id="DejaVuSans-32"/>
      </defs>
      <g transform="translate(117.052665 322.182437)scale(0.1 -0.1)">
       <use xlink:href="#DejaVuSans-32"/>
       <use x="63.623047" xlink:href="#DejaVuSans-30"/>
       <use x="127.246094" xlink:href="#DejaVuSans-30"/>
       <use x="190.869141" xlink:href="#DejaVuSans-30"/>
       <use x="254.492188" xlink:href="#DejaVuSans-30"/>
       <use x="318.115234" xlink:href="#DejaVuSans-30"/>
      </g>
     </g>
    </g>
    <g id="xtick_3">
     <g id="line2d_3">
      <g>
       <use style="stroke:#000000;stroke-width:0.8;" x="201.726942" xlink:href="#madbb28e132" y="307.584"/>
      </g>
     </g>
     <g id="text_3">
      <!-- 400000 -->
      <defs>
       <path d="M 37.796875 64.3125 
L 12.890625 25.390625 
L 37.796875 25.390625 
z
M 35.203125 72.90625 
L 47.609375 72.90625 
L 47.609375 25.390625 
L 58.015625 25.390625 
L 58.015625 17.1875 
L 47.609375 17.1875 
L 47.609375 0 
L 37.796875 0 
L 37.796875 17.1875 
L 4.890625 17.1875 
L 4.890625 26.703125 
z
" id="DejaVuSans-34"/>
      </defs>
      <g transform="translate(182.639442 322.182437)scale(0.1 -0.1)">
       <use xlink:href="#DejaVuSans-34"/>
       <use x="63.623047" xlink:href="#DejaVuSans-30"/>
       <use x="127.246094" xlink:href="#DejaVuSans-30"/>
       <use x="190.869141" xlink:href="#DejaVuSans-30"/>
       <use x="254.492188" xlink:href="#DejaVuSans-30"/>
       <use x="318.115234" xlink:href="#DejaVuSans-30"/>
      </g>
     </g>
    </g>
    <g id="xtick_4">
     <g id="line2d_4">
      <g>
       <use style="stroke:#000000;stroke-width:0.8;" x="267.313719" xlink:href="#madbb28e132" y="307.584"/>
      </g>
     </g>
     <g id="text_4">
      <!-- 600000 -->
      <defs>
       <path d="M 33.015625 40.375 
Q 26.375 40.375 22.484375 35.828125 
Q 18.609375 31.296875 18.609375 23.390625 
Q 18.609375 15.53125 22.484375 10.953125 
Q 26.375 6.390625 33.015625 6.390625 
Q 39.65625 6.390625 43.53125 10.953125 
Q 47.40625 15.53125 47.40625 23.390625 
Q 47.40625 31.296875 43.53125 35.828125 
Q 39.65625 40.375 33.015625 40.375 
z
M 52.59375 71.296875 
L 52.59375 62.3125 
Q 48.875 64.0625 45.09375 64.984375 
Q 41.3125 65.921875 37.59375 65.921875 
Q 27.828125 65.921875 22.671875 59.328125 
Q 17.53125 52.734375 16.796875 39.40625 
Q 19.671875 43.65625 24.015625 45.921875 
Q 28.375 48.1875 33.59375 48.1875 
Q 44.578125 48.1875 50.953125 41.515625 
Q 57.328125 34.859375 57.328125 23.390625 
Q 57.328125 12.15625 50.6875 5.359375 
Q 44.046875 -1.421875 33.015625 -1.421875 
Q 20.359375 -1.421875 13.671875 8.265625 
Q 6.984375 17.96875 6.984375 36.375 
Q 6.984375 53.65625 15.1875 63.9375 
Q 23.390625 74.21875 37.203125 74.21875 
Q 40.921875 74.21875 44.703125 73.484375 
Q 48.484375 72.75 52.59375 71.296875 
z
" id="DejaVuSans-36"/>
      </defs>
      <g transform="translate(248.226219 322.182437)scale(0.1 -0.1)">
       <use xlink:href="#DejaVuSans-36"/>
       <use x="63.623047" xlink:href="#DejaVuSans-30"/>
       <use x="127.246094" xlink:href="#DejaVuSans-30"/>
       <use x="190.869141" xlink:href="#DejaVuSans-30"/>
       <use x="254.492188" xlink:href="#DejaVuSans-30"/>
       <use x="318.115234" xlink:href="#DejaVuSans-30"/>
      </g>
     </g>
    </g>
    <g id="xtick_5">
     <g id="line2d_5">
      <g>
       <use style="stroke:#000000;stroke-width:0.8;" x="332.900496" xlink:href="#madbb28e132" y="307.584"/>
      </g>
     </g>
     <g id="text_5">
      <!-- 800000 -->
      <defs>
       <path d="M 31.78125 34.625 
Q 24.75 34.625 20.71875 30.859375 
Q 16.703125 27.09375 16.703125 20.515625 
Q 16.703125 13.921875 20.71875 10.15625 
Q 24.75 6.390625 31.78125 6.390625 
Q 38.8125 6.390625 42.859375 10.171875 
Q 46.921875 13.96875 46.921875 20.515625 
Q 46.921875 27.09375 42.890625 30.859375 
Q 38.875 34.625 31.78125 34.625 
z
M 21.921875 38.8125 
Q 15.578125 40.375 12.03125 44.71875 
Q 8.5 49.078125 8.5 55.328125 
Q 8.5 64.0625 14.71875 69.140625 
Q 20.953125 74.21875 31.78125 74.21875 
Q 42.671875 74.21875 48.875 69.140625 
Q 55.078125 64.0625 55.078125 55.328125 
Q 55.078125 49.078125 51.53125 44.71875 
Q 48 40.375 41.703125 38.8125 
Q 48.828125 37.15625 52.796875 32.3125 
Q 56.78125 27.484375 56.78125 20.515625 
Q 56.78125 9.90625 50.3125 4.234375 
Q 43.84375 -1.421875 31.78125 -1.421875 
Q 19.734375 -1.421875 13.25 4.234375 
Q 6.78125 9.90625 6.78125 20.515625 
Q 6.78125 27.484375 10.78125 32.3125 
Q 14.796875 37.15625 21.921875 38.8125 
z
M 18.3125 54.390625 
Q 18.3125 48.734375 21.84375 45.5625 
Q 25.390625 42.390625 31.78125 42.390625 
Q 38.140625 42.390625 41.71875 45.5625 
Q 45.3125 48.734375 45.3125 54.390625 
Q 45.3125 60.0625 41.71875 63.234375 
Q 38.140625 66.40625 31.78125 66.40625 
Q 25.390625 66.40625 21.84375 63.234375 
Q 18.3125 60.0625 18.3125 54.390625 
z
" id="DejaVuSans-38"/>
      </defs>
      <g transform="translate(313.812996 322.182437)scale(0.1 -0.1)">
       <use xlink:href="#DejaVuSans-38"/>
       <use x="63.623047" xlink:href="#DejaVuSans-30"/>
       <use x="127.246094" xlink:href="#DejaVuSans-30"/>
       <use x="190.869141" xlink:href="#DejaVuSans-30"/>
       <use x="254.492188" xlink:href="#DejaVuSans-30"/>
       <use x="318.115234" xlink:href="#DejaVuSans-30"/>
      </g>
     </g>
    </g>
    <g id="xtick_6">
     <g id="line2d_6">
      <g>
       <use style="stroke:#000000;stroke-width:0.8;" x="398.487273" xlink:href="#madbb28e132" y="307.584"/>
      </g>
     </g>
     <g id="text_6">
      <!-- 1000000 -->
      <defs>
       <path d="M 12.40625 8.296875 
L 28.515625 8.296875 
L 28.515625 63.921875 
L 10.984375 60.40625 
L 10.984375 69.390625 
L 28.421875 72.90625 
L 38.28125 72.90625 
L 38.28125 8.296875 
L 54.390625 8.296875 
L 54.390625 0 
L 12.40625 0 
z
" id="DejaVuSans-31"/>
      </defs>
      <g transform="translate(376.218523 322.182437)scale(0.1 -0.1)">
       <use xlink:href="#DejaVuSans-31"/>
       <use x="63.623047" xlink:href="#DejaVuSans-30"/>
       <use x="127.246094" xlink:href="#DejaVuSans-30"/>
       <use x="190.869141" xlink:href="#DejaVuSans-30"/>
       <use x="254.492188" xlink:href="#DejaVuSans-30"/>
       <use x="318.115234" xlink:href="#DejaVuSans-30"/>
       <use x="381.738281" xlink:href="#DejaVuSans-30"/>
      </g>
     </g>
    </g>
    <g id="text_7">
     <!-- alexa rank -->
     <defs>
      <path d="M 34.28125 27.484375 
Q 23.390625 27.484375 19.1875 25 
Q 14.984375 22.515625 14.984375 16.5 
Q 14.984375 11.71875 18.140625 8.90625 
Q 21.296875 6.109375 26.703125 6.109375 
Q 34.1875 6.109375 38.703125 11.40625 
Q 43.21875 16.703125 43.21875 25.484375 
L 43.21875 27.484375 
z
M 52.203125 31.203125 
L 52.203125 0 
L 43.21875 0 
L 43.21875 8.296875 
Q 40.140625 3.328125 35.546875 0.953125 
Q 30.953125 -1.421875 24.3125 -1.421875 
Q 15.921875 -1.421875 10.953125 3.296875 
Q 6 8.015625 6 15.921875 
Q 6 25.140625 12.171875 29.828125 
Q 18.359375 34.515625 30.609375 34.515625 
L 43.21875 34.515625 
L 43.21875 35.40625 
Q 43.21875 41.609375 39.140625 45 
Q 35.0625 48.390625 27.6875 48.390625 
Q 23 48.390625 18.546875 47.265625 
Q 14.109375 46.140625 10.015625 43.890625 
L 10.015625 52.203125 
Q 14.9375 54.109375 19.578125 55.046875 
Q 24.21875 56 28.609375 56 
Q 40.484375 56 46.34375 49.84375 
Q 52.203125 43.703125 52.203125 31.203125 
z
" id="DejaVuSans-61"/>
      <path d="M 9.421875 75.984375 
L 18.40625 75.984375 
L 18.40625 0 
L 9.421875 0 
z
" id="DejaVuSans-6c"/>
      <path d="M 56.203125 29.59375 
L 56.203125 25.203125 
L 14.890625 25.203125 
Q 15.484375 15.921875 20.484375 11.0625 
Q 25.484375 6.203125 34.421875 6.203125 
Q 39.59375 6.203125 44.453125 7.46875 
Q 49.3125 8.734375 54.109375 11.28125 
L 54.109375 2.78125 
Q 49.265625 0.734375 44.1875 -0.34375 
Q 39.109375 -1.421875 33.890625 -1.421875 
Q 20.796875 -1.421875 13.15625 6.1875 
Q 5.515625 13.8125 5.515625 26.8125 
Q 5.515625 40.234375 12.765625 48.109375 
Q 20.015625 56 32.328125 56 
Q 43.359375 56 49.78125 48.890625 
Q 56.203125 41.796875 56.203125 29.59375 
z
M 47.21875 32.234375 
Q 47.125 39.59375 43.09375 43.984375 
Q 39.0625 48.390625 32.421875 48.390625 
Q 24.90625 48.390625 20.390625 44.140625 
Q 15.875 39.890625 15.1875 32.171875 
z
" id="DejaVuSans-65"/>
      <path d="M 54.890625 54.6875 
L 35.109375 28.078125 
L 55.90625 0 
L 45.3125 0 
L 29.390625 21.484375 
L 13.484375 0 
L 2.875 0 
L 24.125 28.609375 
L 4.6875 54.6875 
L 15.28125 54.6875 
L 29.78125 35.203125 
L 44.28125 54.6875 
z
" id="DejaVuSans-78"/>
      <path id="DejaVuSans-20"/>
      <path d="M 41.109375 46.296875 
Q 39.59375 47.171875 37.8125 47.578125 
Q 36.03125 48 33.890625 48 
Q 26.265625 48 22.1875 43.046875 
Q 18.109375 38.09375 18.109375 28.8125 
L 18.109375 0 
L 9.078125 0 
L 9.078125 54.6875 
L 18.109375 54.6875 
L 18.109375 46.1875 
Q 20.953125 51.171875 25.484375 53.578125 
Q 30.03125 56 36.53125 56 
Q 37.453125 56 38.578125 55.875 
Q 39.703125 55.765625 41.0625 55.515625 
z
" id="DejaVuSans-72"/>
      <path d="M 54.890625 33.015625 
L 54.890625 0 
L 45.90625 0 
L 45.90625 32.71875 
Q 45.90625 40.484375 42.875 44.328125 
Q 39.84375 48.1875 33.796875 48.1875 
Q 26.515625 48.1875 22.3125 43.546875 
Q 18.109375 38.921875 18.109375 30.90625 
L 18.109375 0 
L 9.078125 0 
L 9.078125 54.6875 
L 18.109375 54.6875 
L 18.109375 46.1875 
Q 21.34375 51.125 25.703125 53.5625 
Q 30.078125 56 35.796875 56 
Q 45.21875 56 50.046875 50.171875 
Q 54.890625 44.34375 54.890625 33.015625 
z
" id="DejaVuSans-6e"/>
      <path d="M 9.078125 75.984375 
L 18.109375 75.984375 
L 18.109375 31.109375 
L 44.921875 54.6875 
L 56.390625 54.6875 
L 27.390625 29.109375 
L 57.625 0 
L 45.90625 0 
L 18.109375 26.703125 
L 18.109375 0 
L 9.078125 0 
z
" id="DejaVuSans-6b"/>
     </defs>
     <g transform="translate(209.835 335.860562)scale(0.1 -0.1)">
      <use xlink:href="#DejaVuSans-61"/>
      <use x="61.279297" xlink:href="#DejaVuSans-6c"/>
      <use x="89.0625" xlink:href="#DejaVuSans-65"/>
      <use x="150.570312" xlink:href="#DejaVuSans-78"/>
      <use x="209.75" xlink:href="#DejaVuSans-61"/>
      <use x="271.029297" xlink:href="#DejaVuSans-20"/>
      <use x="302.816406" xlink:href="#DejaVuSans-72"/>
      <use x="343.929688" xlink:href="#DejaVuSans-61"/>
      <use x="405.208984" xlink:href="#DejaVuSans-6e"/>
      <use x="468.587891" xlink:href="#DejaVuSans-6b"/>
     </g>
    </g>
   </g>
   <g id="matplotlib.axis_2">
    <g id="ytick_1">
     <g id="line2d_7">
      <defs>
       <path d="M 0 0 
L -3.5 0 
" id="m5fae677cd5" style="stroke:#000000;stroke-width:0.8;"/>
      </defs>
      <g>
       <use style="stroke:#000000;stroke-width:0.8;" x="57.6" xlink:href="#m5fae677cd5" y="307.584"/>
      </g>
     </g>
     <g id="text_8">
      <!-- 0.0 -->
      <defs>
       <path d="M 10.6875 12.40625 
L 21 12.40625 
L 21 0 
L 10.6875 0 
z
" id="DejaVuSans-2e"/>
      </defs>
      <g transform="translate(34.696875 311.383219)scale(0.1 -0.1)">
       <use xlink:href="#DejaVuSans-30"/>
       <use x="63.623047" xlink:href="#DejaVuSans-2e"/>
       <use x="95.410156" xlink:href="#DejaVuSans-30"/>
      </g>
     </g>
    </g>
    <g id="ytick_2">
     <g id="line2d_8">
      <g>
       <use style="stroke:#000000;stroke-width:0.8;" x="57.6" xlink:href="#m5fae677cd5" y="256.896"/>
      </g>
     </g>
     <g id="text_9">
      <!-- 0.2 -->
      <g transform="translate(34.696875 260.695219)scale(0.1 -0.1)">
       <use xlink:href="#DejaVuSans-30"/>
       <use x="63.623047" xlink:href="#DejaVuSans-2e"/>
       <use x="95.410156" xlink:href="#DejaVuSans-32"/>
      </g>
     </g>
    </g>
    <g id="ytick_3">
     <g id="line2d_9">
      <g>
       <use style="stroke:#000000;stroke-width:0.8;" x="57.6" xlink:href="#m5fae677cd5" y="206.208"/>
      </g>
     </g>
     <g id="text_10">
      <!-- 0.4 -->
      <g transform="translate(34.696875 210.007219)scale(0.1 -0.1)">
       <use xlink:href="#DejaVuSans-30"/>
       <use x="63.623047" xlink:href="#DejaVuSans-2e"/>
       <use x="95.410156" xlink:href="#DejaVuSans-34"/>
      </g>
     </g>
    </g>
    <g id="ytick_4">
     <g id="line2d_10">
      <g>
       <use style="stroke:#000000;stroke-width:0.8;" x="57.6" xlink:href="#m5fae677cd5" y="155.52"/>
      </g>
     </g>
     <g id="text_11">
      <!-- 0.6 -->
      <g transform="translate(34.696875 159.319219)scale(0.1 -0.1)">
       <use xlink:href="#DejaVuSans-30"/>
       <use x="63.623047" xlink:href="#DejaVuSans-2e"/>
       <use x="95.410156" xlink:href="#DejaVuSans-36"/>
      </g>
     </g>
    </g>
    <g id="ytick_5">
     <g id="line2d_11">
      <g>
       <use style="stroke:#000000;stroke-width:0.8;" x="57.6" xlink:href="#m5fae677cd5" y="104.832"/>
      </g>
     </g>
     <g id="text_12">
      <!-- 0.8 -->
      <g transform="translate(34.696875 108.631219)scale(0.1 -0.1)">
       <use xlink:href="#DejaVuSans-30"/>
       <use x="63.623047" xlink:href="#DejaVuSans-2e"/>
       <use x="95.410156" xlink:href="#DejaVuSans-38"/>
      </g>
     </g>
    </g>
    <g id="ytick_6">
     <g id="line2d_12">
      <g>
       <use style="stroke:#000000;stroke-width:0.8;" x="57.6" xlink:href="#m5fae677cd5" y="54.144"/>
      </g>
     </g>
     <g id="text_13">
      <!-- 1.0 -->
      <g transform="translate(34.696875 57.943219)scale(0.1 -0.1)">
       <use xlink:href="#DejaVuSans-31"/>
       <use x="63.623047" xlink:href="#DejaVuSans-2e"/>
       <use x="95.410156" xlink:href="#DejaVuSans-30"/>
      </g>
     </g>
    </g>
    <g id="text_14">
     <!-- proportion -->
     <defs>
      <path d="M 18.109375 8.203125 
L 18.109375 -20.796875 
L 9.078125 -20.796875 
L 9.078125 54.6875 
L 18.109375 54.6875 
L 18.109375 46.390625 
Q 20.953125 51.265625 25.265625 53.625 
Q 29.59375 56 35.59375 56 
Q 45.5625 56 51.78125 48.09375 
Q 58.015625 40.1875 58.015625 27.296875 
Q 58.015625 14.40625 51.78125 6.484375 
Q 45.5625 -1.421875 35.59375 -1.421875 
Q 29.59375 -1.421875 25.265625 0.953125 
Q 20.953125 3.328125 18.109375 8.203125 
z
M 48.6875 27.296875 
Q 48.6875 37.203125 44.609375 42.84375 
Q 40.53125 48.484375 33.40625 48.484375 
Q 26.265625 48.484375 22.1875 42.84375 
Q 18.109375 37.203125 18.109375 27.296875 
Q 18.109375 17.390625 22.1875 11.75 
Q 26.265625 6.109375 33.40625 6.109375 
Q 40.53125 6.109375 44.609375 11.75 
Q 48.6875 17.390625 48.6875 27.296875 
z
" id="DejaVuSans-70"/>
      <path d="M 30.609375 48.390625 
Q 23.390625 48.390625 19.1875 42.75 
Q 14.984375 37.109375 14.984375 27.296875 
Q 14.984375 17.484375 19.15625 11.84375 
Q 23.34375 6.203125 30.609375 6.203125 
Q 37.796875 6.203125 41.984375 11.859375 
Q 46.1875 17.53125 46.1875 27.296875 
Q 46.1875 37.015625 41.984375 42.703125 
Q 37.796875 48.390625 30.609375 48.390625 
z
M 30.609375 56 
Q 42.328125 56 49.015625 48.375 
Q 55.71875 40.765625 55.71875 27.296875 
Q 55.71875 13.875 49.015625 6.21875 
Q 42.328125 -1.421875 30.609375 -1.421875 
Q 18.84375 -1.421875 12.171875 6.21875 
Q 5.515625 13.875 5.515625 27.296875 
Q 5.515625 40.765625 12.171875 48.375 
Q 18.84375 56 30.609375 56 
z
" id="DejaVuSans-6f"/>
      <path d="M 18.3125 70.21875 
L 18.3125 54.6875 
L 36.8125 54.6875 
L 36.8125 47.703125 
L 18.3125 47.703125 
L 18.3125 18.015625 
Q 18.3125 11.328125 20.140625 9.421875 
Q 21.96875 7.515625 27.59375 7.515625 
L 36.8125 7.515625 
L 36.8125 0 
L 27.59375 0 
Q 17.1875 0 13.234375 3.875 
Q 9.28125 7.765625 9.28125 18.015625 
L 9.28125 47.703125 
L 2.6875 47.703125 
L 2.6875 54.6875 
L 9.28125 54.6875 
L 9.28125 70.21875 
z
" id="DejaVuSans-74"/>
      <path d="M 9.421875 54.6875 
L 18.40625 54.6875 
L 18.40625 0 
L 9.421875 0 
z
M 9.421875 75.984375 
L 18.40625 75.984375 
L 18.40625 64.59375 
L 9.421875 64.59375 
z
" id="DejaVuSans-69"/>
     </defs>
     <g transform="translate(28.617187 200.681906)rotate(-90)scale(0.1 -0.1)">
      <use xlink:href="#DejaVuSans-70"/>
      <use x="63.476562" xlink:href="#DejaVuSans-72"/>
      <use x="104.558594" xlink:href="#DejaVuSans-6f"/>
      <use x="165.740234" xlink:href="#DejaVuSans-70"/>
      <use x="229.216797" xlink:href="#DejaVuSans-6f"/>
      <use x="290.398438" xlink:href="#DejaVuSans-72"/>
      <use x="331.511719" xlink:href="#DejaVuSans-74"/>
      <use x="370.720703" xlink:href="#DejaVuSans-69"/>
      <use x="398.503906" xlink:href="#DejaVuSans-6f"/>
      <use x="459.685547" xlink:href="#DejaVuSans-6e"/>
     </g>
    </g>
   </g>
   <g id="line2d_13">
    <path clip-path="url(#pfc570fb2ce)" d="M 57.6 121.670586 
L 414.72 121.670586 
" style="fill:none;stroke:#808080;stroke-dasharray:3.7,1.6;stroke-dashoffset:0;"/>
   </g>
   <g id="line2d_14">
    <path clip-path="url(#pfc570fb2ce)" d="M 57.6 121.661187 
L 414.72 121.661187 
" style="fill:none;stroke:#808080;stroke-dasharray:1,1.65;stroke-dashoffset:0;"/>
   </g>
   <g id="line2d_15">
    <path clip-path="url(#pfc570fb2ce)" d="M 57.6 99.145472 
L 414.72 99.145472 
" style="fill:none;stroke:#808080;stroke-dasharray:1,1.65;stroke-dashoffset:0;"/>
   </g>
   <g id="line2d_16">
    <path clip-path="url(#pfc570fb2ce)" d="M 57.6 72.839194 
L 414.72 72.839194 
" style="fill:none;stroke:#808080;stroke-dasharray:1,1.65;stroke-dashoffset:0;"/>
   </g>
   <g id="line2d_17">
    <path clip-path="url(#pfc570fb2ce)" d="M 57.6 60.452279 
L 414.72 60.452279 
" style="fill:none;stroke:#808080;stroke-dasharray:1,1.65;stroke-dashoffset:0;"/>
   </g>
   <g id="patch_3">
    <path d="M 57.6 307.584 
L 57.6 41.472 
" style="fill:none;stroke:#000000;stroke-linecap:square;stroke-linejoin:miter;stroke-width:0.8;"/>
   </g>
   <g id="patch_4">
    <path d="M 414.72 307.584 
L 414.72 41.472 
" style="fill:none;stroke:#000000;stroke-linecap:square;stroke-linejoin:miter;stroke-width:0.8;"/>
   </g>
   <g id="patch_5">
    <path d="M 57.6 307.584 
L 414.72 307.584 
" style="fill:none;stroke:#000000;stroke-linecap:square;stroke-linejoin:miter;stroke-width:0.8;"/>
   </g>
   <g id="patch_6">
    <path d="M 57.6 41.472 
L 414.72 41.472 
" style="fill:none;stroke:#000000;stroke-linecap:square;stroke-linejoin:miter;stroke-width:0.8;"/>
   </g>
   <g id="text_15">
    <!-- without sct -->
    <defs>
     <path d="M 4.203125 54.6875 
L 13.1875 54.6875 
L 24.421875 12.015625 
L 35.59375 54.6875 
L 46.1875 54.6875 
L 57.421875 12.015625 
L 68.609375 54.6875 
L 77.59375 54.6875 
L 63.28125 0 
L 52.6875 0 
L 40.921875 44.828125 
L 29.109375 0 
L 18.5 0 
z
" id="DejaVuSans-77"/>
     <path d="M 54.890625 33.015625 
L 54.890625 0 
L 45.90625 0 
L 45.90625 32.71875 
Q 45.90625 40.484375 42.875 44.328125 
Q 39.84375 48.1875 33.796875 48.1875 
Q 26.515625 48.1875 22.3125 43.546875 
Q 18.109375 38.921875 18.109375 30.90625 
L 18.109375 0 
L 9.078125 0 
L 9.078125 75.984375 
L 18.109375 75.984375 
L 18.109375 46.1875 
Q 21.34375 51.125 25.703125 53.5625 
Q 30.078125 56 35.796875 56 
Q 45.21875 56 50.046875 50.171875 
Q 54.890625 44.34375 54.890625 33.015625 
z
" id="DejaVuSans-68"/>
     <path d="M 8.5 21.578125 
L 8.5 54.6875 
L 17.484375 54.6875 
L 17.484375 21.921875 
Q 17.484375 14.15625 20.5 10.265625 
Q 23.53125 6.390625 29.59375 6.390625 
Q 36.859375 6.390625 41.078125 11.03125 
Q 45.3125 15.671875 45.3125 23.6875 
L 45.3125 54.6875 
L 54.296875 54.6875 
L 54.296875 0 
L 45.3125 0 
L 45.3125 8.40625 
Q 42.046875 3.421875 37.71875 1 
Q 33.40625 -1.421875 27.6875 -1.421875 
Q 18.265625 -1.421875 13.375 4.4375 
Q 8.5 10.296875 8.5 21.578125 
z
M 31.109375 56 
z
" id="DejaVuSans-75"/>
     <path d="M 44.28125 53.078125 
L 44.28125 44.578125 
Q 40.484375 46.53125 36.375 47.5 
Q 32.28125 48.484375 27.875 48.484375 
Q 21.1875 48.484375 17.84375 46.4375 
Q 14.5 44.390625 14.5 40.28125 
Q 14.5 37.15625 16.890625 35.375 
Q 19.28125 33.59375 26.515625 31.984375 
L 29.59375 31.296875 
Q 39.15625 29.25 43.1875 25.515625 
Q 47.21875 21.78125 47.21875 15.09375 
Q 47.21875 7.46875 41.1875 3.015625 
Q 35.15625 -1.421875 24.609375 -1.421875 
Q 20.21875 -1.421875 15.453125 -0.5625 
Q 10.6875 0.296875 5.421875 2 
L 5.421875 11.28125 
Q 10.40625 8.6875 15.234375 7.390625 
Q 20.0625 6.109375 24.8125 6.109375 
Q 31.15625 6.109375 34.5625 8.28125 
Q 37.984375 10.453125 37.984375 14.40625 
Q 37.984375 18.0625 35.515625 20.015625 
Q 33.0625 21.96875 24.703125 23.78125 
L 21.578125 24.515625 
Q 13.234375 26.265625 9.515625 29.90625 
Q 5.8125 33.546875 5.8125 39.890625 
Q 5.8125 47.609375 11.28125 51.796875 
Q 16.75 56 26.8125 56 
Q 31.78125 56 36.171875 55.265625 
Q 40.578125 54.546875 44.28125 53.078125 
z
" id="DejaVuSans-73"/>
     <path d="M 48.78125 52.59375 
L 48.78125 44.1875 
Q 44.96875 46.296875 41.140625 47.34375 
Q 37.3125 48.390625 33.40625 48.390625 
Q 24.65625 48.390625 19.8125 42.84375 
Q 14.984375 37.3125 14.984375 27.296875 
Q 14.984375 17.28125 19.8125 11.734375 
Q 24.65625 6.203125 33.40625 6.203125 
Q 37.3125 6.203125 41.140625 7.25 
Q 44.96875 8.296875 48.78125 10.40625 
L 48.78125 2.09375 
Q 45.015625 0.34375 40.984375 -0.53125 
Q 36.96875 -1.421875 32.421875 -1.421875 
Q 20.0625 -1.421875 12.78125 6.34375 
Q 5.515625 14.109375 5.515625 27.296875 
Q 5.515625 40.671875 12.859375 48.328125 
Q 20.21875 56 33.015625 56 
Q 37.15625 56 41.109375 55.140625 
Q 45.0625 54.296875 48.78125 52.59375 
z
" id="DejaVuSans-63"/>
    </defs>
    <g transform="translate(93.50876 218.88)scale(0.1 -0.1)">
     <use xlink:href="#DejaVuSans-77"/>
     <use x="81.787109" xlink:href="#DejaVuSans-69"/>
     <use x="109.570312" xlink:href="#DejaVuSans-74"/>
     <use x="148.779297" xlink:href="#DejaVuSans-68"/>
     <use x="212.158203" xlink:href="#DejaVuSans-6f"/>
     <use x="273.339844" xlink:href="#DejaVuSans-75"/>
     <use x="336.71875" xlink:href="#DejaVuSans-74"/>
     <use x="375.927734" xlink:href="#DejaVuSans-20"/>
     <use x="407.714844" xlink:href="#DejaVuSans-73"/>
     <use x="459.814453" xlink:href="#DejaVuSans-63"/>
     <use x="514.794922" xlink:href="#DejaVuSans-74"/>
    </g>
   </g>
   <g id="text_16">
    <!-- 2 scts -->
    <g transform="translate(93.50876 120.0384)scale(0.1 -0.1)">
     <use xlink:href="#DejaVuSans-32"/>
     <use x="63.623047" xlink:href="#DejaVuSans-20"/>
     <use x="95.410156" xlink:href="#DejaVuSans-73"/>
     <use x="147.509766" xlink:href="#DejaVuSans-63"/>
     <use x="202.490234" xlink:href="#DejaVuSans-74"/>
     <use x="241.699219" xlink:href="#DejaVuSans-73"/>
    </g>
   </g>
   <g id="text_17">
    <!-- 3 scts -->
    <defs>
     <path d="M 40.578125 39.3125 
Q 47.65625 37.796875 51.625 33 
Q 55.609375 28.21875 55.609375 21.1875 
Q 55.609375 10.40625 48.1875 4.484375 
Q 40.765625 -1.421875 27.09375 -1.421875 
Q 22.515625 -1.421875 17.65625 -0.515625 
Q 12.796875 0.390625 7.625 2.203125 
L 7.625 11.71875 
Q 11.71875 9.328125 16.59375 8.109375 
Q 21.484375 6.890625 26.8125 6.890625 
Q 36.078125 6.890625 40.9375 10.546875 
Q 45.796875 14.203125 45.796875 21.1875 
Q 45.796875 27.640625 41.28125 31.265625 
Q 36.765625 34.90625 28.71875 34.90625 
L 20.21875 34.90625 
L 20.21875 43.015625 
L 29.109375 43.015625 
Q 36.375 43.015625 40.234375 45.921875 
Q 44.09375 48.828125 44.09375 54.296875 
Q 44.09375 59.90625 40.109375 62.90625 
Q 36.140625 65.921875 28.71875 65.921875 
Q 24.65625 65.921875 20.015625 65.03125 
Q 15.375 64.15625 9.8125 62.3125 
L 9.8125 71.09375 
Q 15.4375 72.65625 20.34375 73.4375 
Q 25.25 74.21875 29.59375 74.21875 
Q 40.828125 74.21875 47.359375 69.109375 
Q 53.90625 64.015625 53.90625 55.328125 
Q 53.90625 49.265625 50.4375 45.09375 
Q 46.96875 40.921875 40.578125 39.3125 
z
" id="DejaVuSans-33"/>
    </defs>
    <g transform="translate(93.50876 92.16)scale(0.1 -0.1)">
     <use xlink:href="#DejaVuSans-33"/>
     <use x="63.623047" xlink:href="#DejaVuSans-20"/>
     <use x="95.410156" xlink:href="#DejaVuSans-73"/>
     <use x="147.509766" xlink:href="#DejaVuSans-63"/>
     <use x="202.490234" xlink:href="#DejaVuSans-74"/>
     <use x="241.699219" xlink:href="#DejaVuSans-73"/>
    </g>
   </g>
   <g id="text_18">
    <!-- 4 scts -->
    <g transform="translate(93.50876 66.816)scale(0.1 -0.1)">
     <use xlink:href="#DejaVuSans-34"/>
     <use x="63.623047" xlink:href="#DejaVuSans-20"/>
     <use x="95.410156" xlink:href="#DejaVuSans-73"/>
     <use x="147.509766" xlink:href="#DejaVuSans-63"/>
     <use x="202.490234" xlink:href="#DejaVuSans-74"/>
     <use x="241.699219" xlink:href="#DejaVuSans-73"/>
    </g>
   </g>
   <g id="text_19">
    <!-- 5 or more scts -->
    <defs>
     <path d="M 10.796875 72.90625 
L 49.515625 72.90625 
L 49.515625 64.59375 
L 19.828125 64.59375 
L 19.828125 46.734375 
Q 21.96875 47.46875 24.109375 47.828125 
Q 26.265625 48.1875 28.421875 48.1875 
Q 40.625 48.1875 47.75 41.5 
Q 54.890625 34.8125 54.890625 23.390625 
Q 54.890625 11.625 47.5625 5.09375 
Q 40.234375 -1.421875 26.90625 -1.421875 
Q 22.3125 -1.421875 17.546875 -0.640625 
Q 12.796875 0.140625 7.71875 1.703125 
L 7.71875 11.625 
Q 12.109375 9.234375 16.796875 8.0625 
Q 21.484375 6.890625 26.703125 6.890625 
Q 35.15625 6.890625 40.078125 11.328125 
Q 45.015625 15.765625 45.015625 23.390625 
Q 45.015625 31 40.078125 35.4375 
Q 35.15625 39.890625 26.703125 39.890625 
Q 22.75 39.890625 18.8125 39.015625 
Q 14.890625 38.140625 10.796875 36.28125 
z
" id="DejaVuSans-35"/>
     <path d="M 52 44.1875 
Q 55.375 50.25 60.0625 53.125 
Q 64.75 56 71.09375 56 
Q 79.640625 56 84.28125 50.015625 
Q 88.921875 44.046875 88.921875 33.015625 
L 88.921875 0 
L 79.890625 0 
L 79.890625 32.71875 
Q 79.890625 40.578125 77.09375 44.375 
Q 74.3125 48.1875 68.609375 48.1875 
Q 61.625 48.1875 57.5625 43.546875 
Q 53.515625 38.921875 53.515625 30.90625 
L 53.515625 0 
L 44.484375 0 
L 44.484375 32.71875 
Q 44.484375 40.625 41.703125 44.40625 
Q 38.921875 48.1875 33.109375 48.1875 
Q 26.21875 48.1875 22.15625 43.53125 
Q 18.109375 38.875 18.109375 30.90625 
L 18.109375 0 
L 9.078125 0 
L 9.078125 54.6875 
L 18.109375 54.6875 
L 18.109375 46.1875 
Q 21.1875 51.21875 25.484375 53.609375 
Q 29.78125 56 35.6875 56 
Q 41.65625 56 45.828125 52.96875 
Q 50 49.953125 52 44.1875 
z
" id="DejaVuSans-6d"/>
    </defs>
    <g transform="translate(93.50876 56.6784)scale(0.1 -0.1)">
     <use xlink:href="#DejaVuSans-35"/>
     <use x="63.623047" xlink:href="#DejaVuSans-20"/>
     <use x="95.410156" xlink:href="#DejaVuSans-6f"/>
     <use x="156.591797" xlink:href="#DejaVuSans-72"/>
     <use x="197.705078" xlink:href="#DejaVuSans-20"/>
     <use x="229.492188" xlink:href="#DejaVuSans-6d"/>
     <use x="326.904297" xlink:href="#DejaVuSans-6f"/>
     <use x="388.085938" xlink:href="#DejaVuSans-72"/>
     <use x="429.167969" xlink:href="#DejaVuSans-65"/>
     <use x="490.691406" xlink:href="#DejaVuSans-20"/>
     <use x="522.478516" xlink:href="#DejaVuSans-73"/>
     <use x="574.578125" xlink:href="#DejaVuSans-63"/>
     <use x="629.558594" xlink:href="#DejaVuSans-74"/>
     <use x="668.767578" xlink:href="#DejaVuSans-73"/>
    </g>
   </g>
   <g id="text_20">
    <!-- 0.73 -->
    <defs>
     <path d="M 8.203125 72.90625 
L 55.078125 72.90625 
L 55.078125 68.703125 
L 28.609375 0 
L 18.3125 0 
L 43.21875 64.59375 
L 8.203125 64.59375 
z
" id="DejaVuSans-37"/>
    </defs>
    <g style="fill:#808080;" transform="translate(48.287763 119.590898)scale(0.1 -0.1)">
     <use xlink:href="#DejaVuSans-30"/>
     <use x="63.623047" xlink:href="#DejaVuSans-2e"/>
     <use x="95.410156" xlink:href="#DejaVuSans-37"/>
     <use x="159.033203" xlink:href="#DejaVuSans-33"/>
    </g>
   </g>
   <g id="text_21">
    <!-- 0.73 -->
    <g style="fill:#808080;" transform="translate(48.287763 119.5815)scale(0.1 -0.1)">
     <use xlink:href="#DejaVuSans-30"/>
     <use x="63.623047" xlink:href="#DejaVuSans-2e"/>
     <use x="95.410156" xlink:href="#DejaVuSans-37"/>
     <use x="159.033203" xlink:href="#DejaVuSans-33"/>
    </g>
   </g>
   <g id="text_22">
    <!-- 0.82 -->
    <g style="fill:#808080;" transform="translate(48.287763 97.065785)scale(0.1 -0.1)">
     <use xlink:href="#DejaVuSans-30"/>
     <use x="63.623047" xlink:href="#DejaVuSans-2e"/>
     <use x="95.410156" xlink:href="#DejaVuSans-38"/>
     <use x="159.033203" xlink:href="#DejaVuSans-32"/>
    </g>
   </g>
   <g id="text_23">
    <!-- 0.93 -->
    <defs>
     <path d="M 10.984375 1.515625 
L 10.984375 10.5 
Q 14.703125 8.734375 18.5 7.8125 
Q 22.3125 6.890625 25.984375 6.890625 
Q 35.75 6.890625 40.890625 13.453125 
Q 46.046875 20.015625 46.78125 33.40625 
Q 43.953125 29.203125 39.59375 26.953125 
Q 35.25 24.703125 29.984375 24.703125 
Q 19.046875 24.703125 12.671875 31.3125 
Q 6.296875 37.9375 6.296875 49.421875 
Q 6.296875 60.640625 12.9375 67.421875 
Q 19.578125 74.21875 30.609375 74.21875 
Q 43.265625 74.21875 49.921875 64.515625 
Q 56.59375 54.828125 56.59375 36.375 
Q 56.59375 19.140625 48.40625 8.859375 
Q 40.234375 -1.421875 26.421875 -1.421875 
Q 22.703125 -1.421875 18.890625 -0.6875 
Q 15.09375 0.046875 10.984375 1.515625 
z
M 30.609375 32.421875 
Q 37.25 32.421875 41.125 36.953125 
Q 45.015625 41.5 45.015625 49.421875 
Q 45.015625 57.28125 41.125 61.84375 
Q 37.25 66.40625 30.609375 66.40625 
Q 23.96875 66.40625 20.09375 61.84375 
Q 16.21875 57.28125 16.21875 49.421875 
Q 16.21875 41.5 20.09375 36.953125 
Q 23.96875 32.421875 30.609375 32.421875 
z
" id="DejaVuSans-39"/>
    </defs>
    <g style="fill:#808080;" transform="translate(48.287763 70.759506)scale(0.1 -0.1)">
     <use xlink:href="#DejaVuSans-30"/>
     <use x="63.623047" xlink:href="#DejaVuSans-2e"/>
     <use x="95.410156" xlink:href="#DejaVuSans-39"/>
     <use x="159.033203" xlink:href="#DejaVuSans-33"/>
    </g>
   </g>
   <g id="text_24">
    <!-- 0.98 -->
    <g style="fill:#808080;" transform="translate(48.287763 58.372592)scale(0.1 -0.1)">
     <use xlink:href="#DejaVuSans-30"/>
     <use x="63.623047" xlink:href="#DejaVuSans-2e"/>
     <use x="95.410156" xlink:href="#DejaVuSans-39"/>
     <use x="159.033203" xlink:href="#DejaVuSans-38"/>
    </g>
   </g>
   <g id="text_25">
    <!-- Certificates with or without SCTs -->
    <defs>
     <path d="M 64.40625 67.28125 
L 64.40625 56.890625 
Q 59.421875 61.53125 53.78125 63.8125 
Q 48.140625 66.109375 41.796875 66.109375 
Q 29.296875 66.109375 22.65625 58.46875 
Q 16.015625 50.828125 16.015625 36.375 
Q 16.015625 21.96875 22.65625 14.328125 
Q 29.296875 6.6875 41.796875 6.6875 
Q 48.140625 6.6875 53.78125 8.984375 
Q 59.421875 11.28125 64.40625 15.921875 
L 64.40625 5.609375 
Q 59.234375 2.09375 53.4375 0.328125 
Q 47.65625 -1.421875 41.21875 -1.421875 
Q 24.65625 -1.421875 15.125 8.703125 
Q 5.609375 18.84375 5.609375 36.375 
Q 5.609375 53.953125 15.125 64.078125 
Q 24.65625 74.21875 41.21875 74.21875 
Q 47.75 74.21875 53.53125 72.484375 
Q 59.328125 70.75 64.40625 67.28125 
z
" id="DejaVuSans-43"/>
     <path d="M 37.109375 75.984375 
L 37.109375 68.5 
L 28.515625 68.5 
Q 23.6875 68.5 21.796875 66.546875 
Q 19.921875 64.59375 19.921875 59.515625 
L 19.921875 54.6875 
L 34.71875 54.6875 
L 34.71875 47.703125 
L 19.921875 47.703125 
L 19.921875 0 
L 10.890625 0 
L 10.890625 47.703125 
L 2.296875 47.703125 
L 2.296875 54.6875 
L 10.890625 54.6875 
L 10.890625 58.5 
Q 10.890625 67.625 15.140625 71.796875 
Q 19.390625 75.984375 28.609375 75.984375 
z
" id="DejaVuSans-66"/>
     <path d="M 53.515625 70.515625 
L 53.515625 60.890625 
Q 47.90625 63.578125 42.921875 64.890625 
Q 37.9375 66.21875 33.296875 66.21875 
Q 25.25 66.21875 20.875 63.09375 
Q 16.5 59.96875 16.5 54.203125 
Q 16.5 49.359375 19.40625 46.890625 
Q 22.3125 44.4375 30.421875 42.921875 
L 36.375 41.703125 
Q 47.40625 39.59375 52.65625 34.296875 
Q 57.90625 29 57.90625 20.125 
Q 57.90625 9.515625 50.796875 4.046875 
Q 43.703125 -1.421875 29.984375 -1.421875 
Q 24.8125 -1.421875 18.96875 -0.25 
Q 13.140625 0.921875 6.890625 3.21875 
L 6.890625 13.375 
Q 12.890625 10.015625 18.65625 8.296875 
Q 24.421875 6.59375 29.984375 6.59375 
Q 38.421875 6.59375 43.015625 9.90625 
Q 47.609375 13.234375 47.609375 19.390625 
Q 47.609375 24.75 44.3125 27.78125 
Q 41.015625 30.8125 33.5 32.328125 
L 27.484375 33.5 
Q 16.453125 35.6875 11.515625 40.375 
Q 6.59375 45.0625 6.59375 53.421875 
Q 6.59375 63.09375 13.40625 68.65625 
Q 20.21875 74.21875 32.171875 74.21875 
Q 37.3125 74.21875 42.625 73.28125 
Q 47.953125 72.359375 53.515625 70.515625 
z
" id="DejaVuSans-53"/>
     <path d="M -0.296875 72.90625 
L 61.375 72.90625 
L 61.375 64.59375 
L 35.5 64.59375 
L 35.5 0 
L 25.59375 0 
L 25.59375 64.59375 
L -0.296875 64.59375 
z
" id="DejaVuSans-54"/>
    </defs>
    <g transform="translate(138.045937 35.472)scale(0.12 -0.12)">
     <use xlink:href="#DejaVuSans-43"/>
     <use x="69.824219" xlink:href="#DejaVuSans-65"/>
     <use x="131.347656" xlink:href="#DejaVuSans-72"/>
     <use x="172.460938" xlink:href="#DejaVuSans-74"/>
     <use x="211.669922" xlink:href="#DejaVuSans-69"/>
     <use x="239.453125" xlink:href="#DejaVuSans-66"/>
     <use x="274.658203" xlink:href="#DejaVuSans-69"/>
     <use x="302.441406" xlink:href="#DejaVuSans-63"/>
     <use x="357.421875" xlink:href="#DejaVuSans-61"/>
     <use x="418.701172" xlink:href="#DejaVuSans-74"/>
     <use x="457.910156" xlink:href="#DejaVuSans-65"/>
     <use x="519.433594" xlink:href="#DejaVuSans-73"/>
     <use x="571.533203" xlink:href="#DejaVuSans-20"/>
     <use x="603.320312" xlink:href="#DejaVuSans-77"/>
     <use x="685.107422" xlink:href="#DejaVuSans-69"/>
     <use x="712.890625" xlink:href="#DejaVuSans-74"/>
     <use x="752.099609" xlink:href="#DejaVuSans-68"/>
     <use x="815.478516" xlink:href="#DejaVuSans-20"/>
     <use x="847.265625" xlink:href="#DejaVuSans-6f"/>
     <use x="908.447266" xlink:href="#DejaVuSans-72"/>
     <use x="949.560547" xlink:href="#DejaVuSans-20"/>
     <use x="981.347656" xlink:href="#DejaVuSans-77"/>
     <use x="1063.134766" xlink:href="#DejaVuSans-69"/>
     <use x="1090.917969" xlink:href="#DejaVuSans-74"/>
     <use x="1130.126953" xlink:href="#DejaVuSans-68"/>
     <use x="1193.505859" xlink:href="#DejaVuSans-6f"/>
     <use x="1254.6875" xlink:href="#DejaVuSans-75"/>
     <use x="1318.066406" xlink:href="#DejaVuSans-74"/>
     <use x="1357.275391" xlink:href="#DejaVuSans-20"/>
     <use x="1389.0625" xlink:href="#DejaVuSans-53"/>
     <use x="1452.539062" xlink:href="#DejaVuSans-43"/>
     <use x="1522.363281" xlink:href="#DejaVuSans-54"/>
     <use x="1583.197266" xlink:href="#DejaVuSans-73"/>
    </g>
   </g>
  </g>
 </g>
 <defs>
  <clipPath id="pfc570fb2ce">
   <rect height="266.112" width="357.12" x="57.6" y="41.472"/>
  </clipPath>
 </defs>
</svg>
